%TF.GenerationSoftware,KiCad,Pcbnew,6.0.10-86aedd382b~118~ubuntu20.04.1*%
%TF.CreationDate,2023-01-18T18:06:03-08:00*%
%TF.ProjectId,parallel2usb,70617261-6c6c-4656-9c32-7573622e6b69,rev?*%
%TF.SameCoordinates,Original*%
%TF.FileFunction,Legend,Top*%
%TF.FilePolarity,Positive*%
%FSLAX46Y46*%
G04 Gerber Fmt 4.6, Leading zero omitted, Abs format (unit mm)*
G04 Created by KiCad (PCBNEW 6.0.10-86aedd382b~118~ubuntu20.04.1) date 2023-01-18 18:06:03*
%MOMM*%
%LPD*%
G01*
G04 APERTURE LIST*
%ADD10C,0.150000*%
%ADD11C,0.120000*%
G04 APERTURE END LIST*
D10*
%TO.C,C20*%
X176776142Y-112785142D02*
X176728523Y-112832761D01*
X176585666Y-112880380D01*
X176490428Y-112880380D01*
X176347571Y-112832761D01*
X176252333Y-112737523D01*
X176204714Y-112642285D01*
X176157095Y-112451809D01*
X176157095Y-112308952D01*
X176204714Y-112118476D01*
X176252333Y-112023238D01*
X176347571Y-111928000D01*
X176490428Y-111880380D01*
X176585666Y-111880380D01*
X176728523Y-111928000D01*
X176776142Y-111975619D01*
X177157095Y-111975619D02*
X177204714Y-111928000D01*
X177299952Y-111880380D01*
X177538047Y-111880380D01*
X177633285Y-111928000D01*
X177680904Y-111975619D01*
X177728523Y-112070857D01*
X177728523Y-112166095D01*
X177680904Y-112308952D01*
X177109476Y-112880380D01*
X177728523Y-112880380D01*
X178347571Y-111880380D02*
X178442809Y-111880380D01*
X178538047Y-111928000D01*
X178585666Y-111975619D01*
X178633285Y-112070857D01*
X178680904Y-112261333D01*
X178680904Y-112499428D01*
X178633285Y-112689904D01*
X178585666Y-112785142D01*
X178538047Y-112832761D01*
X178442809Y-112880380D01*
X178347571Y-112880380D01*
X178252333Y-112832761D01*
X178204714Y-112785142D01*
X178157095Y-112689904D01*
X178109476Y-112499428D01*
X178109476Y-112261333D01*
X178157095Y-112070857D01*
X178204714Y-111975619D01*
X178252333Y-111928000D01*
X178347571Y-111880380D01*
%TO.C,U2*%
X170174218Y-116256903D02*
X170201155Y-116337715D01*
X170281967Y-116418528D01*
X170389717Y-116472402D01*
X170497467Y-116472402D01*
X170578279Y-116445465D01*
X170712966Y-116364653D01*
X170793778Y-116283841D01*
X170874590Y-116149154D01*
X170901528Y-116068341D01*
X170901528Y-115960592D01*
X170847653Y-115852842D01*
X170793778Y-115798967D01*
X170686028Y-115745093D01*
X170632154Y-115745093D01*
X170443592Y-115933654D01*
X170551341Y-116041404D01*
X170443592Y-115448781D02*
X169877906Y-116014467D01*
X169662407Y-115798967D01*
X169635470Y-115718155D01*
X169635470Y-115664280D01*
X169662407Y-115583468D01*
X169743219Y-115502656D01*
X169824032Y-115475719D01*
X169877906Y-115475719D01*
X169958719Y-115502656D01*
X170174218Y-115718155D01*
X169366096Y-115502656D02*
X169015910Y-115152470D01*
X169419971Y-115125532D01*
X169339158Y-115044720D01*
X169312221Y-114963908D01*
X169312221Y-114910033D01*
X169339158Y-114829221D01*
X169473845Y-114694534D01*
X169554658Y-114667597D01*
X169608532Y-114667597D01*
X169689345Y-114694534D01*
X169850969Y-114856158D01*
X169877906Y-114936971D01*
X169877906Y-114990845D01*
X170189592Y-86046277D02*
X170216529Y-86127089D01*
X170297341Y-86207902D01*
X170405091Y-86261776D01*
X170512841Y-86261776D01*
X170593653Y-86234839D01*
X170728340Y-86154027D01*
X170809152Y-86073215D01*
X170889964Y-85938528D01*
X170916902Y-85857715D01*
X170916902Y-85749966D01*
X170863027Y-85642216D01*
X170809152Y-85588341D01*
X170701402Y-85534467D01*
X170647528Y-85534467D01*
X170458966Y-85723028D01*
X170566715Y-85830778D01*
X170458966Y-85238155D02*
X169893280Y-85803841D01*
X169677781Y-85588341D01*
X169650844Y-85507529D01*
X169650844Y-85453654D01*
X169677781Y-85372842D01*
X169758593Y-85292030D01*
X169839406Y-85265093D01*
X169893280Y-85265093D01*
X169974093Y-85292030D01*
X170189592Y-85507529D01*
X169596969Y-84376158D02*
X169920218Y-84699407D01*
X169758593Y-84537783D02*
X169192908Y-85103468D01*
X169327595Y-85076531D01*
X169435345Y-85076531D01*
X169516157Y-85103468D01*
X168842722Y-84753282D02*
X168492536Y-84403096D01*
X168896597Y-84376158D01*
X168815784Y-84295346D01*
X168788847Y-84214534D01*
X168788847Y-84160659D01*
X168815784Y-84079847D01*
X168950471Y-83945160D01*
X169031284Y-83918223D01*
X169085158Y-83918223D01*
X169165971Y-83945160D01*
X169327595Y-84106784D01*
X169354532Y-84187597D01*
X169354532Y-84241471D01*
X170189592Y-78426277D02*
X170216529Y-78507089D01*
X170297341Y-78587902D01*
X170405091Y-78641776D01*
X170512841Y-78641776D01*
X170593653Y-78614839D01*
X170728340Y-78534027D01*
X170809152Y-78453215D01*
X170889964Y-78318528D01*
X170916902Y-78237715D01*
X170916902Y-78129966D01*
X170863027Y-78022216D01*
X170809152Y-77968341D01*
X170701402Y-77914467D01*
X170647528Y-77914467D01*
X170458966Y-78103028D01*
X170566715Y-78210778D01*
X170458966Y-77618155D02*
X169893280Y-78183841D01*
X169677781Y-77968341D01*
X169650844Y-77887529D01*
X169650844Y-77833654D01*
X169677781Y-77752842D01*
X169758593Y-77672030D01*
X169839406Y-77645093D01*
X169893280Y-77645093D01*
X169974093Y-77672030D01*
X170189592Y-77887529D01*
X169596969Y-76756158D02*
X169920218Y-77079407D01*
X169758593Y-76917783D02*
X169192908Y-77483468D01*
X169327595Y-77456531D01*
X169435345Y-77456531D01*
X169516157Y-77483468D01*
X168519473Y-76810033D02*
X168788847Y-77079407D01*
X169085158Y-76836971D01*
X169031284Y-76836971D01*
X168950471Y-76810033D01*
X168815784Y-76675346D01*
X168788847Y-76594534D01*
X168788847Y-76540659D01*
X168815784Y-76459847D01*
X168950471Y-76325160D01*
X169031284Y-76298223D01*
X169085158Y-76298223D01*
X169165971Y-76325160D01*
X169300658Y-76459847D01*
X169327595Y-76540659D01*
X169327595Y-76594534D01*
X170201155Y-83263841D02*
X170228093Y-83344653D01*
X170308905Y-83425465D01*
X170416654Y-83479340D01*
X170524404Y-83479340D01*
X170605216Y-83452402D01*
X170739903Y-83371590D01*
X170820715Y-83290778D01*
X170901528Y-83156091D01*
X170928465Y-83075279D01*
X170928465Y-82967529D01*
X170874590Y-82859780D01*
X170820715Y-82805905D01*
X170712966Y-82752030D01*
X170659091Y-82752030D01*
X170470529Y-82940592D01*
X170578279Y-83048341D01*
X170470529Y-82455719D02*
X169904844Y-83021404D01*
X170147280Y-82132470D01*
X169581595Y-82698155D01*
X169877906Y-81863096D02*
X169312221Y-82428781D01*
X169177534Y-82294094D01*
X169123659Y-82186345D01*
X169123659Y-82078595D01*
X169150597Y-81997783D01*
X169231409Y-81863096D01*
X169312221Y-81782284D01*
X169446908Y-81701471D01*
X169527720Y-81674534D01*
X169635470Y-81674534D01*
X169743219Y-81728409D01*
X169877906Y-81863096D01*
X170274218Y-103586903D02*
X170301155Y-103667715D01*
X170381967Y-103748528D01*
X170489717Y-103802402D01*
X170597467Y-103802402D01*
X170678279Y-103775465D01*
X170812966Y-103694653D01*
X170893778Y-103613841D01*
X170974590Y-103479154D01*
X171001528Y-103398341D01*
X171001528Y-103290592D01*
X170947653Y-103182842D01*
X170893778Y-103128967D01*
X170786028Y-103075093D01*
X170732154Y-103075093D01*
X170543592Y-103263654D01*
X170651341Y-103371404D01*
X170543592Y-102778781D02*
X169977906Y-103344467D01*
X169762407Y-103128967D01*
X169735470Y-103048155D01*
X169735470Y-102994280D01*
X169762407Y-102913468D01*
X169843219Y-102832656D01*
X169924032Y-102805719D01*
X169977906Y-102805719D01*
X170058719Y-102832656D01*
X170274218Y-103048155D01*
X169466096Y-102832656D02*
X169088972Y-102455532D01*
X169897094Y-102132284D01*
X170201155Y-108663841D02*
X170228093Y-108744653D01*
X170308905Y-108825465D01*
X170416654Y-108879340D01*
X170524404Y-108879340D01*
X170605216Y-108852402D01*
X170739903Y-108771590D01*
X170820715Y-108690778D01*
X170901528Y-108556091D01*
X170928465Y-108475279D01*
X170928465Y-108367529D01*
X170874590Y-108259780D01*
X170820715Y-108205905D01*
X170712966Y-108152030D01*
X170659091Y-108152030D01*
X170470529Y-108340592D01*
X170578279Y-108448341D01*
X170470529Y-107855719D02*
X169904844Y-108421404D01*
X170147280Y-107532470D01*
X169581595Y-108098155D01*
X169877906Y-107263096D02*
X169312221Y-107828781D01*
X169177534Y-107694094D01*
X169123659Y-107586345D01*
X169123659Y-107478595D01*
X169150597Y-107397783D01*
X169231409Y-107263096D01*
X169312221Y-107182284D01*
X169446908Y-107101471D01*
X169527720Y-107074534D01*
X169635470Y-107074534D01*
X169743219Y-107128409D01*
X169877906Y-107263096D01*
X170201155Y-95963841D02*
X170228093Y-96044653D01*
X170308905Y-96125465D01*
X170416654Y-96179340D01*
X170524404Y-96179340D01*
X170605216Y-96152402D01*
X170739903Y-96071590D01*
X170820715Y-95990778D01*
X170901528Y-95856091D01*
X170928465Y-95775279D01*
X170928465Y-95667529D01*
X170874590Y-95559780D01*
X170820715Y-95505905D01*
X170712966Y-95452030D01*
X170659091Y-95452030D01*
X170470529Y-95640592D01*
X170578279Y-95748341D01*
X170470529Y-95155719D02*
X169904844Y-95721404D01*
X170147280Y-94832470D01*
X169581595Y-95398155D01*
X169877906Y-94563096D02*
X169312221Y-95128781D01*
X169177534Y-94994094D01*
X169123659Y-94886345D01*
X169123659Y-94778595D01*
X169150597Y-94697783D01*
X169231409Y-94563096D01*
X169312221Y-94482284D01*
X169446908Y-94401471D01*
X169527720Y-94374534D01*
X169635470Y-94374534D01*
X169743219Y-94428409D01*
X169877906Y-94563096D01*
X170174218Y-106096903D02*
X170201155Y-106177715D01*
X170281967Y-106258528D01*
X170389717Y-106312402D01*
X170497467Y-106312402D01*
X170578279Y-106285465D01*
X170712966Y-106204653D01*
X170793778Y-106123841D01*
X170874590Y-105989154D01*
X170901528Y-105908341D01*
X170901528Y-105800592D01*
X170847653Y-105692842D01*
X170793778Y-105638967D01*
X170686028Y-105585093D01*
X170632154Y-105585093D01*
X170443592Y-105773654D01*
X170551341Y-105881404D01*
X170443592Y-105288781D02*
X169877906Y-105854467D01*
X169662407Y-105638967D01*
X169635470Y-105558155D01*
X169635470Y-105504280D01*
X169662407Y-105423468D01*
X169743219Y-105342656D01*
X169824032Y-105315719D01*
X169877906Y-105315719D01*
X169958719Y-105342656D01*
X170174218Y-105558155D01*
X169069784Y-105046345D02*
X169177534Y-105154094D01*
X169258346Y-105181032D01*
X169312221Y-105181032D01*
X169446908Y-105154094D01*
X169581595Y-105073282D01*
X169797094Y-104857783D01*
X169824032Y-104776971D01*
X169824032Y-104723096D01*
X169797094Y-104642284D01*
X169689345Y-104534534D01*
X169608532Y-104507597D01*
X169554658Y-104507597D01*
X169473845Y-104534534D01*
X169339158Y-104669221D01*
X169312221Y-104750033D01*
X169312221Y-104803908D01*
X169339158Y-104884720D01*
X169446908Y-104992470D01*
X169527720Y-105019407D01*
X169581595Y-105019407D01*
X169662407Y-104992470D01*
X170174218Y-111176903D02*
X170201155Y-111257715D01*
X170281967Y-111338528D01*
X170389717Y-111392402D01*
X170497467Y-111392402D01*
X170578279Y-111365465D01*
X170712966Y-111284653D01*
X170793778Y-111203841D01*
X170874590Y-111069154D01*
X170901528Y-110988341D01*
X170901528Y-110880592D01*
X170847653Y-110772842D01*
X170793778Y-110718967D01*
X170686028Y-110665093D01*
X170632154Y-110665093D01*
X170443592Y-110853654D01*
X170551341Y-110961404D01*
X170443592Y-110368781D02*
X169877906Y-110934467D01*
X169662407Y-110718967D01*
X169635470Y-110638155D01*
X169635470Y-110584280D01*
X169662407Y-110503468D01*
X169743219Y-110422656D01*
X169824032Y-110395719D01*
X169877906Y-110395719D01*
X169958719Y-110422656D01*
X170174218Y-110638155D01*
X169042847Y-110099407D02*
X169312221Y-110368781D01*
X169608532Y-110126345D01*
X169554658Y-110126345D01*
X169473845Y-110099407D01*
X169339158Y-109964720D01*
X169312221Y-109883908D01*
X169312221Y-109830033D01*
X169339158Y-109749221D01*
X169473845Y-109614534D01*
X169554658Y-109587597D01*
X169608532Y-109587597D01*
X169689345Y-109614534D01*
X169824032Y-109749221D01*
X169850969Y-109830033D01*
X169850969Y-109883908D01*
X170189592Y-93666277D02*
X170216529Y-93747089D01*
X170297341Y-93827902D01*
X170405091Y-93881776D01*
X170512841Y-93881776D01*
X170593653Y-93854839D01*
X170728340Y-93774027D01*
X170809152Y-93693215D01*
X170889964Y-93558528D01*
X170916902Y-93477715D01*
X170916902Y-93369966D01*
X170863027Y-93262216D01*
X170809152Y-93208341D01*
X170701402Y-93154467D01*
X170647528Y-93154467D01*
X170458966Y-93343028D01*
X170566715Y-93450778D01*
X170458966Y-92858155D02*
X169893280Y-93423841D01*
X169677781Y-93208341D01*
X169650844Y-93127529D01*
X169650844Y-93073654D01*
X169677781Y-92992842D01*
X169758593Y-92912030D01*
X169839406Y-92885093D01*
X169893280Y-92885093D01*
X169974093Y-92912030D01*
X170189592Y-93127529D01*
X169596969Y-91996158D02*
X169920218Y-92319407D01*
X169758593Y-92157783D02*
X169192908Y-92723468D01*
X169327595Y-92696531D01*
X169435345Y-92696531D01*
X169516157Y-92723468D01*
X168681097Y-92211658D02*
X168627223Y-92157783D01*
X168600285Y-92076971D01*
X168600285Y-92023096D01*
X168627223Y-91942284D01*
X168708035Y-91807597D01*
X168842722Y-91672910D01*
X168977409Y-91592097D01*
X169058221Y-91565160D01*
X169112096Y-91565160D01*
X169192908Y-91592097D01*
X169246783Y-91645972D01*
X169273720Y-91726784D01*
X169273720Y-91780659D01*
X169246783Y-91861471D01*
X169165971Y-91996158D01*
X169031284Y-92130845D01*
X168896597Y-92211658D01*
X168815784Y-92238595D01*
X168761910Y-92238595D01*
X168681097Y-92211658D01*
X169666218Y-126289903D02*
X169693155Y-126370715D01*
X169773967Y-126451528D01*
X169881717Y-126505402D01*
X169989467Y-126505402D01*
X170070279Y-126478465D01*
X170204966Y-126397653D01*
X170285778Y-126316841D01*
X170366590Y-126182154D01*
X170393528Y-126101341D01*
X170393528Y-125993592D01*
X170339653Y-125885842D01*
X170285778Y-125831967D01*
X170178028Y-125778093D01*
X170124154Y-125778093D01*
X169935592Y-125966654D01*
X170043341Y-126074404D01*
X169935592Y-125481781D02*
X169369906Y-126047467D01*
X169154407Y-125831967D01*
X169127470Y-125751155D01*
X169127470Y-125697280D01*
X169154407Y-125616468D01*
X169235219Y-125535656D01*
X169316032Y-125508719D01*
X169369906Y-125508719D01*
X169450719Y-125535656D01*
X169666218Y-125751155D01*
X168696471Y-125374032D02*
X168642597Y-125320157D01*
X168615659Y-125239345D01*
X168615659Y-125185470D01*
X168642597Y-125104658D01*
X168723409Y-124969971D01*
X168858096Y-124835284D01*
X168992783Y-124754471D01*
X169073595Y-124727534D01*
X169127470Y-124727534D01*
X169208282Y-124754471D01*
X169262157Y-124808346D01*
X169289094Y-124889158D01*
X169289094Y-124943033D01*
X169262157Y-125023845D01*
X169181345Y-125158532D01*
X169046658Y-125293219D01*
X168911971Y-125374032D01*
X168831158Y-125400969D01*
X168777284Y-125400969D01*
X168696471Y-125374032D01*
X170074218Y-123886903D02*
X170101155Y-123967715D01*
X170181967Y-124048528D01*
X170289717Y-124102402D01*
X170397467Y-124102402D01*
X170478279Y-124075465D01*
X170612966Y-123994653D01*
X170693778Y-123913841D01*
X170774590Y-123779154D01*
X170801528Y-123698341D01*
X170801528Y-123590592D01*
X170747653Y-123482842D01*
X170693778Y-123428967D01*
X170586028Y-123375093D01*
X170532154Y-123375093D01*
X170343592Y-123563654D01*
X170451341Y-123671404D01*
X170343592Y-123078781D02*
X169777906Y-123644467D01*
X169562407Y-123428967D01*
X169535470Y-123348155D01*
X169535470Y-123294280D01*
X169562407Y-123213468D01*
X169643219Y-123132656D01*
X169724032Y-123105719D01*
X169777906Y-123105719D01*
X169858719Y-123132656D01*
X170074218Y-123348155D01*
X169481595Y-122216784D02*
X169804844Y-122540033D01*
X169643219Y-122378409D02*
X169077534Y-122944094D01*
X169212221Y-122917157D01*
X169319971Y-122917157D01*
X169400783Y-122944094D01*
X170043592Y-88586277D02*
X170070529Y-88667089D01*
X170151341Y-88747902D01*
X170259091Y-88801776D01*
X170366841Y-88801776D01*
X170447653Y-88774839D01*
X170582340Y-88694027D01*
X170663152Y-88613215D01*
X170743964Y-88478528D01*
X170770902Y-88397715D01*
X170770902Y-88289966D01*
X170717027Y-88182216D01*
X170663152Y-88128341D01*
X170555402Y-88074467D01*
X170501528Y-88074467D01*
X170312966Y-88263028D01*
X170420715Y-88370778D01*
X170312966Y-87778155D02*
X169747280Y-88343841D01*
X169531781Y-88128341D01*
X169504844Y-88047529D01*
X169504844Y-87993654D01*
X169531781Y-87912842D01*
X169612593Y-87832030D01*
X169693406Y-87805093D01*
X169747280Y-87805093D01*
X169828093Y-87832030D01*
X170043592Y-88047529D01*
X169450969Y-86916158D02*
X169774218Y-87239407D01*
X169612593Y-87077783D02*
X169046908Y-87643468D01*
X169181595Y-87616531D01*
X169289345Y-87616531D01*
X169370157Y-87643468D01*
X168723659Y-87212470D02*
X168669784Y-87212470D01*
X168588972Y-87185532D01*
X168454285Y-87050845D01*
X168427348Y-86970033D01*
X168427348Y-86916158D01*
X168454285Y-86835346D01*
X168508160Y-86781471D01*
X168615910Y-86727597D01*
X169262407Y-86727597D01*
X168912221Y-86377410D01*
X170174218Y-98476903D02*
X170201155Y-98557715D01*
X170281967Y-98638528D01*
X170389717Y-98692402D01*
X170497467Y-98692402D01*
X170578279Y-98665465D01*
X170712966Y-98584653D01*
X170793778Y-98503841D01*
X170874590Y-98369154D01*
X170901528Y-98288341D01*
X170901528Y-98180592D01*
X170847653Y-98072842D01*
X170793778Y-98018967D01*
X170686028Y-97965093D01*
X170632154Y-97965093D01*
X170443592Y-98153654D01*
X170551341Y-98261404D01*
X170443592Y-97668781D02*
X169877906Y-98234467D01*
X169662407Y-98018967D01*
X169635470Y-97938155D01*
X169635470Y-97884280D01*
X169662407Y-97803468D01*
X169743219Y-97722656D01*
X169824032Y-97695719D01*
X169877906Y-97695719D01*
X169958719Y-97722656D01*
X170174218Y-97938155D01*
X169850969Y-97076158D02*
X169743219Y-96968409D01*
X169662407Y-96941471D01*
X169608532Y-96941471D01*
X169473845Y-96968409D01*
X169339158Y-97049221D01*
X169123659Y-97264720D01*
X169096722Y-97345532D01*
X169096722Y-97399407D01*
X169123659Y-97480219D01*
X169231409Y-97587969D01*
X169312221Y-97614906D01*
X169366096Y-97614906D01*
X169446908Y-97587969D01*
X169581595Y-97453282D01*
X169608532Y-97372470D01*
X169608532Y-97318595D01*
X169581595Y-97237783D01*
X169473845Y-97130033D01*
X169393033Y-97103096D01*
X169339158Y-97103096D01*
X169258346Y-97130033D01*
X170174218Y-113716903D02*
X170201155Y-113797715D01*
X170281967Y-113878528D01*
X170389717Y-113932402D01*
X170497467Y-113932402D01*
X170578279Y-113905465D01*
X170712966Y-113824653D01*
X170793778Y-113743841D01*
X170874590Y-113609154D01*
X170901528Y-113528341D01*
X170901528Y-113420592D01*
X170847653Y-113312842D01*
X170793778Y-113258967D01*
X170686028Y-113205093D01*
X170632154Y-113205093D01*
X170443592Y-113393654D01*
X170551341Y-113501404D01*
X170443592Y-112908781D02*
X169877906Y-113474467D01*
X169662407Y-113258967D01*
X169635470Y-113178155D01*
X169635470Y-113124280D01*
X169662407Y-113043468D01*
X169743219Y-112962656D01*
X169824032Y-112935719D01*
X169877906Y-112935719D01*
X169958719Y-112962656D01*
X170174218Y-113178155D01*
X169258346Y-112477783D02*
X169635470Y-112100659D01*
X169177534Y-112827969D02*
X169716282Y-112558595D01*
X169366096Y-112208409D01*
X170074218Y-118796903D02*
X170101155Y-118877715D01*
X170181967Y-118958528D01*
X170289717Y-119012402D01*
X170397467Y-119012402D01*
X170478279Y-118985465D01*
X170612966Y-118904653D01*
X170693778Y-118823841D01*
X170774590Y-118689154D01*
X170801528Y-118608341D01*
X170801528Y-118500592D01*
X170747653Y-118392842D01*
X170693778Y-118338967D01*
X170586028Y-118285093D01*
X170532154Y-118285093D01*
X170343592Y-118473654D01*
X170451341Y-118581404D01*
X170343592Y-117988781D02*
X169777906Y-118554467D01*
X169562407Y-118338967D01*
X169535470Y-118258155D01*
X169535470Y-118204280D01*
X169562407Y-118123468D01*
X169643219Y-118042656D01*
X169724032Y-118015719D01*
X169777906Y-118015719D01*
X169858719Y-118042656D01*
X170074218Y-118258155D01*
X169293033Y-117961844D02*
X169239158Y-117961844D01*
X169158346Y-117934906D01*
X169023659Y-117800219D01*
X168996722Y-117719407D01*
X168996722Y-117665532D01*
X169023659Y-117584720D01*
X169077534Y-117530845D01*
X169185284Y-117476971D01*
X169831781Y-117476971D01*
X169481595Y-117126784D01*
X170174218Y-101016903D02*
X170201155Y-101097715D01*
X170281967Y-101178528D01*
X170389717Y-101232402D01*
X170497467Y-101232402D01*
X170578279Y-101205465D01*
X170712966Y-101124653D01*
X170793778Y-101043841D01*
X170874590Y-100909154D01*
X170901528Y-100828341D01*
X170901528Y-100720592D01*
X170847653Y-100612842D01*
X170793778Y-100558967D01*
X170686028Y-100505093D01*
X170632154Y-100505093D01*
X170443592Y-100693654D01*
X170551341Y-100801404D01*
X170443592Y-100208781D02*
X169877906Y-100774467D01*
X169662407Y-100558967D01*
X169635470Y-100478155D01*
X169635470Y-100424280D01*
X169662407Y-100343468D01*
X169743219Y-100262656D01*
X169824032Y-100235719D01*
X169877906Y-100235719D01*
X169958719Y-100262656D01*
X170174218Y-100478155D01*
X169473845Y-99885532D02*
X169500783Y-99966345D01*
X169500783Y-100020219D01*
X169473845Y-100101032D01*
X169446908Y-100127969D01*
X169366096Y-100154906D01*
X169312221Y-100154906D01*
X169231409Y-100127969D01*
X169123659Y-100020219D01*
X169096722Y-99939407D01*
X169096722Y-99885532D01*
X169123659Y-99804720D01*
X169150597Y-99777783D01*
X169231409Y-99750845D01*
X169285284Y-99750845D01*
X169366096Y-99777783D01*
X169473845Y-99885532D01*
X169554658Y-99912470D01*
X169608532Y-99912470D01*
X169689345Y-99885532D01*
X169797094Y-99777783D01*
X169824032Y-99696971D01*
X169824032Y-99643096D01*
X169797094Y-99562284D01*
X169689345Y-99454534D01*
X169608532Y-99427597D01*
X169554658Y-99427597D01*
X169473845Y-99454534D01*
X169366096Y-99562284D01*
X169339158Y-99643096D01*
X169339158Y-99696971D01*
X169366096Y-99777783D01*
X170043592Y-91126277D02*
X170070529Y-91207089D01*
X170151341Y-91287902D01*
X170259091Y-91341776D01*
X170366841Y-91341776D01*
X170447653Y-91314839D01*
X170582340Y-91234027D01*
X170663152Y-91153215D01*
X170743964Y-91018528D01*
X170770902Y-90937715D01*
X170770902Y-90829966D01*
X170717027Y-90722216D01*
X170663152Y-90668341D01*
X170555402Y-90614467D01*
X170501528Y-90614467D01*
X170312966Y-90803028D01*
X170420715Y-90910778D01*
X170312966Y-90318155D02*
X169747280Y-90883841D01*
X169531781Y-90668341D01*
X169504844Y-90587529D01*
X169504844Y-90533654D01*
X169531781Y-90452842D01*
X169612593Y-90372030D01*
X169693406Y-90345093D01*
X169747280Y-90345093D01*
X169828093Y-90372030D01*
X170043592Y-90587529D01*
X169450969Y-89456158D02*
X169774218Y-89779407D01*
X169612593Y-89617783D02*
X169046908Y-90183468D01*
X169181595Y-90156531D01*
X169289345Y-90156531D01*
X169370157Y-90183468D01*
X168912221Y-88917410D02*
X169235470Y-89240659D01*
X169073845Y-89079035D02*
X168508160Y-89644720D01*
X168642847Y-89617783D01*
X168750597Y-89617783D01*
X168831409Y-89644720D01*
X170201155Y-121363841D02*
X170228093Y-121444653D01*
X170308905Y-121525465D01*
X170416654Y-121579340D01*
X170524404Y-121579340D01*
X170605216Y-121552402D01*
X170739903Y-121471590D01*
X170820715Y-121390778D01*
X170901528Y-121256091D01*
X170928465Y-121175279D01*
X170928465Y-121067529D01*
X170874590Y-120959780D01*
X170820715Y-120905905D01*
X170712966Y-120852030D01*
X170659091Y-120852030D01*
X170470529Y-121040592D01*
X170578279Y-121148341D01*
X170470529Y-120555719D02*
X169904844Y-121121404D01*
X170147280Y-120232470D01*
X169581595Y-120798155D01*
X169877906Y-119963096D02*
X169312221Y-120528781D01*
X169177534Y-120394094D01*
X169123659Y-120286345D01*
X169123659Y-120178595D01*
X169150597Y-120097783D01*
X169231409Y-119963096D01*
X169312221Y-119882284D01*
X169446908Y-119801471D01*
X169527720Y-119774534D01*
X169635470Y-119774534D01*
X169743219Y-119828409D01*
X169877906Y-119963096D01*
X170143592Y-80966277D02*
X170170529Y-81047089D01*
X170251341Y-81127902D01*
X170359091Y-81181776D01*
X170466841Y-81181776D01*
X170547653Y-81154839D01*
X170682340Y-81074027D01*
X170763152Y-80993215D01*
X170843964Y-80858528D01*
X170870902Y-80777715D01*
X170870902Y-80669966D01*
X170817027Y-80562216D01*
X170763152Y-80508341D01*
X170655402Y-80454467D01*
X170601528Y-80454467D01*
X170412966Y-80643028D01*
X170520715Y-80750778D01*
X170412966Y-80158155D02*
X169847280Y-80723841D01*
X169631781Y-80508341D01*
X169604844Y-80427529D01*
X169604844Y-80373654D01*
X169631781Y-80292842D01*
X169712593Y-80212030D01*
X169793406Y-80185093D01*
X169847280Y-80185093D01*
X169928093Y-80212030D01*
X170143592Y-80427529D01*
X169550969Y-79296158D02*
X169874218Y-79619407D01*
X169712593Y-79457783D02*
X169146908Y-80023468D01*
X169281595Y-79996531D01*
X169389345Y-79996531D01*
X169470157Y-80023468D01*
X168688972Y-79188409D02*
X169066096Y-78811285D01*
X168608160Y-79538595D02*
X169146908Y-79269221D01*
X168796722Y-78919035D01*
%TO.C,J2*%
X195246666Y-75017380D02*
X195246666Y-75731666D01*
X195199047Y-75874523D01*
X195103809Y-75969761D01*
X194960952Y-76017380D01*
X194865714Y-76017380D01*
X195675238Y-75112619D02*
X195722857Y-75065000D01*
X195818095Y-75017380D01*
X196056190Y-75017380D01*
X196151428Y-75065000D01*
X196199047Y-75112619D01*
X196246666Y-75207857D01*
X196246666Y-75303095D01*
X196199047Y-75445952D01*
X195627619Y-76017380D01*
X196246666Y-76017380D01*
%TO.C,C3*%
X188047333Y-77954142D02*
X187999714Y-78001761D01*
X187856857Y-78049380D01*
X187761619Y-78049380D01*
X187618761Y-78001761D01*
X187523523Y-77906523D01*
X187475904Y-77811285D01*
X187428285Y-77620809D01*
X187428285Y-77477952D01*
X187475904Y-77287476D01*
X187523523Y-77192238D01*
X187618761Y-77097000D01*
X187761619Y-77049380D01*
X187856857Y-77049380D01*
X187999714Y-77097000D01*
X188047333Y-77144619D01*
X188380666Y-77049380D02*
X188999714Y-77049380D01*
X188666380Y-77430333D01*
X188809238Y-77430333D01*
X188904476Y-77477952D01*
X188952095Y-77525571D01*
X188999714Y-77620809D01*
X188999714Y-77858904D01*
X188952095Y-77954142D01*
X188904476Y-78001761D01*
X188809238Y-78049380D01*
X188523523Y-78049380D01*
X188428285Y-78001761D01*
X188380666Y-77954142D01*
%TO.C,C19*%
X176545542Y-90323942D02*
X176497923Y-90371561D01*
X176355066Y-90419180D01*
X176259828Y-90419180D01*
X176116971Y-90371561D01*
X176021733Y-90276323D01*
X175974114Y-90181085D01*
X175926495Y-89990609D01*
X175926495Y-89847752D01*
X175974114Y-89657276D01*
X176021733Y-89562038D01*
X176116971Y-89466800D01*
X176259828Y-89419180D01*
X176355066Y-89419180D01*
X176497923Y-89466800D01*
X176545542Y-89514419D01*
X177497923Y-90419180D02*
X176926495Y-90419180D01*
X177212209Y-90419180D02*
X177212209Y-89419180D01*
X177116971Y-89562038D01*
X177021733Y-89657276D01*
X176926495Y-89704895D01*
X177974114Y-90419180D02*
X178164590Y-90419180D01*
X178259828Y-90371561D01*
X178307447Y-90323942D01*
X178402685Y-90181085D01*
X178450304Y-89990609D01*
X178450304Y-89609657D01*
X178402685Y-89514419D01*
X178355066Y-89466800D01*
X178259828Y-89419180D01*
X178069352Y-89419180D01*
X177974114Y-89466800D01*
X177926495Y-89514419D01*
X177878876Y-89609657D01*
X177878876Y-89847752D01*
X177926495Y-89942990D01*
X177974114Y-89990609D01*
X178069352Y-90038228D01*
X178259828Y-90038228D01*
X178355066Y-89990609D01*
X178402685Y-89942990D01*
X178450304Y-89847752D01*
%TO.C,C16*%
X187063142Y-114530142D02*
X187015523Y-114577761D01*
X186872666Y-114625380D01*
X186777428Y-114625380D01*
X186634571Y-114577761D01*
X186539333Y-114482523D01*
X186491714Y-114387285D01*
X186444095Y-114196809D01*
X186444095Y-114053952D01*
X186491714Y-113863476D01*
X186539333Y-113768238D01*
X186634571Y-113673000D01*
X186777428Y-113625380D01*
X186872666Y-113625380D01*
X187015523Y-113673000D01*
X187063142Y-113720619D01*
X188015523Y-114625380D02*
X187444095Y-114625380D01*
X187729809Y-114625380D02*
X187729809Y-113625380D01*
X187634571Y-113768238D01*
X187539333Y-113863476D01*
X187444095Y-113911095D01*
X188872666Y-113625380D02*
X188682190Y-113625380D01*
X188586952Y-113673000D01*
X188539333Y-113720619D01*
X188444095Y-113863476D01*
X188396476Y-114053952D01*
X188396476Y-114434904D01*
X188444095Y-114530142D01*
X188491714Y-114577761D01*
X188586952Y-114625380D01*
X188777428Y-114625380D01*
X188872666Y-114577761D01*
X188920285Y-114530142D01*
X188967904Y-114434904D01*
X188967904Y-114196809D01*
X188920285Y-114101571D01*
X188872666Y-114053952D01*
X188777428Y-114006333D01*
X188586952Y-114006333D01*
X188491714Y-114053952D01*
X188444095Y-114101571D01*
X188396476Y-114196809D01*
%TO.C,C17*%
X187063142Y-120626142D02*
X187015523Y-120673761D01*
X186872666Y-120721380D01*
X186777428Y-120721380D01*
X186634571Y-120673761D01*
X186539333Y-120578523D01*
X186491714Y-120483285D01*
X186444095Y-120292809D01*
X186444095Y-120149952D01*
X186491714Y-119959476D01*
X186539333Y-119864238D01*
X186634571Y-119769000D01*
X186777428Y-119721380D01*
X186872666Y-119721380D01*
X187015523Y-119769000D01*
X187063142Y-119816619D01*
X188015523Y-120721380D02*
X187444095Y-120721380D01*
X187729809Y-120721380D02*
X187729809Y-119721380D01*
X187634571Y-119864238D01*
X187539333Y-119959476D01*
X187444095Y-120007095D01*
X188348857Y-119721380D02*
X189015523Y-119721380D01*
X188586952Y-120721380D01*
%TO.C,R9*%
X188047333Y-76525380D02*
X187714000Y-76049190D01*
X187475904Y-76525380D02*
X187475904Y-75525380D01*
X187856857Y-75525380D01*
X187952095Y-75573000D01*
X187999714Y-75620619D01*
X188047333Y-75715857D01*
X188047333Y-75858714D01*
X187999714Y-75953952D01*
X187952095Y-76001571D01*
X187856857Y-76049190D01*
X187475904Y-76049190D01*
X188523523Y-76525380D02*
X188714000Y-76525380D01*
X188809238Y-76477761D01*
X188856857Y-76430142D01*
X188952095Y-76287285D01*
X188999714Y-76096809D01*
X188999714Y-75715857D01*
X188952095Y-75620619D01*
X188904476Y-75573000D01*
X188809238Y-75525380D01*
X188618761Y-75525380D01*
X188523523Y-75573000D01*
X188475904Y-75620619D01*
X188428285Y-75715857D01*
X188428285Y-75953952D01*
X188475904Y-76049190D01*
X188523523Y-76096809D01*
X188618761Y-76144428D01*
X188809238Y-76144428D01*
X188904476Y-76096809D01*
X188952095Y-76049190D01*
X188999714Y-75953952D01*
%TO.C,C15*%
X187063142Y-117578142D02*
X187015523Y-117625761D01*
X186872666Y-117673380D01*
X186777428Y-117673380D01*
X186634571Y-117625761D01*
X186539333Y-117530523D01*
X186491714Y-117435285D01*
X186444095Y-117244809D01*
X186444095Y-117101952D01*
X186491714Y-116911476D01*
X186539333Y-116816238D01*
X186634571Y-116721000D01*
X186777428Y-116673380D01*
X186872666Y-116673380D01*
X187015523Y-116721000D01*
X187063142Y-116768619D01*
X188015523Y-117673380D02*
X187444095Y-117673380D01*
X187729809Y-117673380D02*
X187729809Y-116673380D01*
X187634571Y-116816238D01*
X187539333Y-116911476D01*
X187444095Y-116959095D01*
X188920285Y-116673380D02*
X188444095Y-116673380D01*
X188396476Y-117149571D01*
X188444095Y-117101952D01*
X188539333Y-117054333D01*
X188777428Y-117054333D01*
X188872666Y-117101952D01*
X188920285Y-117149571D01*
X188967904Y-117244809D01*
X188967904Y-117482904D01*
X188920285Y-117578142D01*
X188872666Y-117625761D01*
X188777428Y-117673380D01*
X188539333Y-117673380D01*
X188444095Y-117625761D01*
X188396476Y-117578142D01*
%TO.C,C12*%
X187063142Y-87098142D02*
X187015523Y-87145761D01*
X186872666Y-87193380D01*
X186777428Y-87193380D01*
X186634571Y-87145761D01*
X186539333Y-87050523D01*
X186491714Y-86955285D01*
X186444095Y-86764809D01*
X186444095Y-86621952D01*
X186491714Y-86431476D01*
X186539333Y-86336238D01*
X186634571Y-86241000D01*
X186777428Y-86193380D01*
X186872666Y-86193380D01*
X187015523Y-86241000D01*
X187063142Y-86288619D01*
X188015523Y-87193380D02*
X187444095Y-87193380D01*
X187729809Y-87193380D02*
X187729809Y-86193380D01*
X187634571Y-86336238D01*
X187539333Y-86431476D01*
X187444095Y-86479095D01*
X188396476Y-86288619D02*
X188444095Y-86241000D01*
X188539333Y-86193380D01*
X188777428Y-86193380D01*
X188872666Y-86241000D01*
X188920285Y-86288619D01*
X188967904Y-86383857D01*
X188967904Y-86479095D01*
X188920285Y-86621952D01*
X188348857Y-87193380D01*
X188967904Y-87193380D01*
%TO.C,R3*%
X188047333Y-94813380D02*
X187714000Y-94337190D01*
X187475904Y-94813380D02*
X187475904Y-93813380D01*
X187856857Y-93813380D01*
X187952095Y-93861000D01*
X187999714Y-93908619D01*
X188047333Y-94003857D01*
X188047333Y-94146714D01*
X187999714Y-94241952D01*
X187952095Y-94289571D01*
X187856857Y-94337190D01*
X187475904Y-94337190D01*
X188380666Y-93813380D02*
X188999714Y-93813380D01*
X188666380Y-94194333D01*
X188809238Y-94194333D01*
X188904476Y-94241952D01*
X188952095Y-94289571D01*
X188999714Y-94384809D01*
X188999714Y-94622904D01*
X188952095Y-94718142D01*
X188904476Y-94765761D01*
X188809238Y-94813380D01*
X188523523Y-94813380D01*
X188428285Y-94765761D01*
X188380666Y-94718142D01*
%TO.C,R12*%
X187063142Y-85669380D02*
X186729809Y-85193190D01*
X186491714Y-85669380D02*
X186491714Y-84669380D01*
X186872666Y-84669380D01*
X186967904Y-84717000D01*
X187015523Y-84764619D01*
X187063142Y-84859857D01*
X187063142Y-85002714D01*
X187015523Y-85097952D01*
X186967904Y-85145571D01*
X186872666Y-85193190D01*
X186491714Y-85193190D01*
X188015523Y-85669380D02*
X187444095Y-85669380D01*
X187729809Y-85669380D02*
X187729809Y-84669380D01*
X187634571Y-84812238D01*
X187539333Y-84907476D01*
X187444095Y-84955095D01*
X188396476Y-84764619D02*
X188444095Y-84717000D01*
X188539333Y-84669380D01*
X188777428Y-84669380D01*
X188872666Y-84717000D01*
X188920285Y-84764619D01*
X188967904Y-84859857D01*
X188967904Y-84955095D01*
X188920285Y-85097952D01*
X188348857Y-85669380D01*
X188967904Y-85669380D01*
%TO.C,C5*%
X188047333Y-96242142D02*
X187999714Y-96289761D01*
X187856857Y-96337380D01*
X187761619Y-96337380D01*
X187618761Y-96289761D01*
X187523523Y-96194523D01*
X187475904Y-96099285D01*
X187428285Y-95908809D01*
X187428285Y-95765952D01*
X187475904Y-95575476D01*
X187523523Y-95480238D01*
X187618761Y-95385000D01*
X187761619Y-95337380D01*
X187856857Y-95337380D01*
X187999714Y-95385000D01*
X188047333Y-95432619D01*
X188952095Y-95337380D02*
X188475904Y-95337380D01*
X188428285Y-95813571D01*
X188475904Y-95765952D01*
X188571142Y-95718333D01*
X188809238Y-95718333D01*
X188904476Y-95765952D01*
X188952095Y-95813571D01*
X188999714Y-95908809D01*
X188999714Y-96146904D01*
X188952095Y-96242142D01*
X188904476Y-96289761D01*
X188809238Y-96337380D01*
X188571142Y-96337380D01*
X188475904Y-96289761D01*
X188428285Y-96242142D01*
%TO.C,C11*%
X187190142Y-102338142D02*
X187142523Y-102385761D01*
X186999666Y-102433380D01*
X186904428Y-102433380D01*
X186761571Y-102385761D01*
X186666333Y-102290523D01*
X186618714Y-102195285D01*
X186571095Y-102004809D01*
X186571095Y-101861952D01*
X186618714Y-101671476D01*
X186666333Y-101576238D01*
X186761571Y-101481000D01*
X186904428Y-101433380D01*
X186999666Y-101433380D01*
X187142523Y-101481000D01*
X187190142Y-101528619D01*
X188142523Y-102433380D02*
X187571095Y-102433380D01*
X187856809Y-102433380D02*
X187856809Y-101433380D01*
X187761571Y-101576238D01*
X187666333Y-101671476D01*
X187571095Y-101719095D01*
X189094904Y-102433380D02*
X188523476Y-102433380D01*
X188809190Y-102433380D02*
X188809190Y-101433380D01*
X188713952Y-101576238D01*
X188618714Y-101671476D01*
X188523476Y-101719095D01*
%TO.C,R11*%
X187190142Y-82621380D02*
X186856809Y-82145190D01*
X186618714Y-82621380D02*
X186618714Y-81621380D01*
X186999666Y-81621380D01*
X187094904Y-81669000D01*
X187142523Y-81716619D01*
X187190142Y-81811857D01*
X187190142Y-81954714D01*
X187142523Y-82049952D01*
X187094904Y-82097571D01*
X186999666Y-82145190D01*
X186618714Y-82145190D01*
X188142523Y-82621380D02*
X187571095Y-82621380D01*
X187856809Y-82621380D02*
X187856809Y-81621380D01*
X187761571Y-81764238D01*
X187666333Y-81859476D01*
X187571095Y-81907095D01*
X189094904Y-82621380D02*
X188523476Y-82621380D01*
X188809190Y-82621380D02*
X188809190Y-81621380D01*
X188713952Y-81764238D01*
X188618714Y-81859476D01*
X188523476Y-81907095D01*
%TO.C,U1*%
X179705095Y-110297980D02*
X179705095Y-111107504D01*
X179752714Y-111202742D01*
X179800333Y-111250361D01*
X179895571Y-111297980D01*
X180086047Y-111297980D01*
X180181285Y-111250361D01*
X180228904Y-111202742D01*
X180276523Y-111107504D01*
X180276523Y-110297980D01*
X181276523Y-111297980D02*
X180705095Y-111297980D01*
X180990809Y-111297980D02*
X180990809Y-110297980D01*
X180895571Y-110440838D01*
X180800333Y-110536076D01*
X180705095Y-110583695D01*
%TO.C,R16*%
X187063142Y-122245380D02*
X186729809Y-121769190D01*
X186491714Y-122245380D02*
X186491714Y-121245380D01*
X186872666Y-121245380D01*
X186967904Y-121293000D01*
X187015523Y-121340619D01*
X187063142Y-121435857D01*
X187063142Y-121578714D01*
X187015523Y-121673952D01*
X186967904Y-121721571D01*
X186872666Y-121769190D01*
X186491714Y-121769190D01*
X188015523Y-122245380D02*
X187444095Y-122245380D01*
X187729809Y-122245380D02*
X187729809Y-121245380D01*
X187634571Y-121388238D01*
X187539333Y-121483476D01*
X187444095Y-121531095D01*
X188872666Y-121245380D02*
X188682190Y-121245380D01*
X188586952Y-121293000D01*
X188539333Y-121340619D01*
X188444095Y-121483476D01*
X188396476Y-121673952D01*
X188396476Y-122054904D01*
X188444095Y-122150142D01*
X188491714Y-122197761D01*
X188586952Y-122245380D01*
X188777428Y-122245380D01*
X188872666Y-122197761D01*
X188920285Y-122150142D01*
X188967904Y-122054904D01*
X188967904Y-121816809D01*
X188920285Y-121721571D01*
X188872666Y-121673952D01*
X188777428Y-121626333D01*
X188586952Y-121626333D01*
X188491714Y-121673952D01*
X188444095Y-121721571D01*
X188396476Y-121816809D01*
%TO.C,C2*%
X188047333Y-93194142D02*
X187999714Y-93241761D01*
X187856857Y-93289380D01*
X187761619Y-93289380D01*
X187618761Y-93241761D01*
X187523523Y-93146523D01*
X187475904Y-93051285D01*
X187428285Y-92860809D01*
X187428285Y-92717952D01*
X187475904Y-92527476D01*
X187523523Y-92432238D01*
X187618761Y-92337000D01*
X187761619Y-92289380D01*
X187856857Y-92289380D01*
X187999714Y-92337000D01*
X188047333Y-92384619D01*
X188428285Y-92384619D02*
X188475904Y-92337000D01*
X188571142Y-92289380D01*
X188809238Y-92289380D01*
X188904476Y-92337000D01*
X188952095Y-92384619D01*
X188999714Y-92479857D01*
X188999714Y-92575095D01*
X188952095Y-92717952D01*
X188380666Y-93289380D01*
X188999714Y-93289380D01*
%TO.C,C4*%
X188047333Y-105386142D02*
X187999714Y-105433761D01*
X187856857Y-105481380D01*
X187761619Y-105481380D01*
X187618761Y-105433761D01*
X187523523Y-105338523D01*
X187475904Y-105243285D01*
X187428285Y-105052809D01*
X187428285Y-104909952D01*
X187475904Y-104719476D01*
X187523523Y-104624238D01*
X187618761Y-104529000D01*
X187761619Y-104481380D01*
X187856857Y-104481380D01*
X187999714Y-104529000D01*
X188047333Y-104576619D01*
X188904476Y-104814714D02*
X188904476Y-105481380D01*
X188666380Y-104433761D02*
X188428285Y-105148047D01*
X189047333Y-105148047D01*
%TO.C,C13*%
X187063142Y-126722142D02*
X187015523Y-126769761D01*
X186872666Y-126817380D01*
X186777428Y-126817380D01*
X186634571Y-126769761D01*
X186539333Y-126674523D01*
X186491714Y-126579285D01*
X186444095Y-126388809D01*
X186444095Y-126245952D01*
X186491714Y-126055476D01*
X186539333Y-125960238D01*
X186634571Y-125865000D01*
X186777428Y-125817380D01*
X186872666Y-125817380D01*
X187015523Y-125865000D01*
X187063142Y-125912619D01*
X188015523Y-126817380D02*
X187444095Y-126817380D01*
X187729809Y-126817380D02*
X187729809Y-125817380D01*
X187634571Y-125960238D01*
X187539333Y-126055476D01*
X187444095Y-126103095D01*
X188348857Y-125817380D02*
X188967904Y-125817380D01*
X188634571Y-126198333D01*
X188777428Y-126198333D01*
X188872666Y-126245952D01*
X188920285Y-126293571D01*
X188967904Y-126388809D01*
X188967904Y-126626904D01*
X188920285Y-126722142D01*
X188872666Y-126769761D01*
X188777428Y-126817380D01*
X188491714Y-126817380D01*
X188396476Y-126769761D01*
X188348857Y-126722142D01*
%TO.C,C9*%
X188047333Y-84050142D02*
X187999714Y-84097761D01*
X187856857Y-84145380D01*
X187761619Y-84145380D01*
X187618761Y-84097761D01*
X187523523Y-84002523D01*
X187475904Y-83907285D01*
X187428285Y-83716809D01*
X187428285Y-83573952D01*
X187475904Y-83383476D01*
X187523523Y-83288238D01*
X187618761Y-83193000D01*
X187761619Y-83145380D01*
X187856857Y-83145380D01*
X187999714Y-83193000D01*
X188047333Y-83240619D01*
X188523523Y-84145380D02*
X188714000Y-84145380D01*
X188809238Y-84097761D01*
X188856857Y-84050142D01*
X188952095Y-83907285D01*
X188999714Y-83716809D01*
X188999714Y-83335857D01*
X188952095Y-83240619D01*
X188904476Y-83193000D01*
X188809238Y-83145380D01*
X188618761Y-83145380D01*
X188523523Y-83193000D01*
X188475904Y-83240619D01*
X188428285Y-83335857D01*
X188428285Y-83573952D01*
X188475904Y-83669190D01*
X188523523Y-83716809D01*
X188618761Y-83764428D01*
X188809238Y-83764428D01*
X188904476Y-83716809D01*
X188952095Y-83669190D01*
X188999714Y-83573952D01*
%TO.C,R8*%
X187920333Y-119197380D02*
X187587000Y-118721190D01*
X187348904Y-119197380D02*
X187348904Y-118197380D01*
X187729857Y-118197380D01*
X187825095Y-118245000D01*
X187872714Y-118292619D01*
X187920333Y-118387857D01*
X187920333Y-118530714D01*
X187872714Y-118625952D01*
X187825095Y-118673571D01*
X187729857Y-118721190D01*
X187348904Y-118721190D01*
X188491761Y-118625952D02*
X188396523Y-118578333D01*
X188348904Y-118530714D01*
X188301285Y-118435476D01*
X188301285Y-118387857D01*
X188348904Y-118292619D01*
X188396523Y-118245000D01*
X188491761Y-118197380D01*
X188682238Y-118197380D01*
X188777476Y-118245000D01*
X188825095Y-118292619D01*
X188872714Y-118387857D01*
X188872714Y-118435476D01*
X188825095Y-118530714D01*
X188777476Y-118578333D01*
X188682238Y-118625952D01*
X188491761Y-118625952D01*
X188396523Y-118673571D01*
X188348904Y-118721190D01*
X188301285Y-118816428D01*
X188301285Y-119006904D01*
X188348904Y-119102142D01*
X188396523Y-119149761D01*
X188491761Y-119197380D01*
X188682238Y-119197380D01*
X188777476Y-119149761D01*
X188825095Y-119102142D01*
X188872714Y-119006904D01*
X188872714Y-118816428D01*
X188825095Y-118721190D01*
X188777476Y-118673571D01*
X188682238Y-118625952D01*
%TO.C,R6*%
X188047333Y-107005380D02*
X187714000Y-106529190D01*
X187475904Y-107005380D02*
X187475904Y-106005380D01*
X187856857Y-106005380D01*
X187952095Y-106053000D01*
X187999714Y-106100619D01*
X188047333Y-106195857D01*
X188047333Y-106338714D01*
X187999714Y-106433952D01*
X187952095Y-106481571D01*
X187856857Y-106529190D01*
X187475904Y-106529190D01*
X188904476Y-106005380D02*
X188714000Y-106005380D01*
X188618761Y-106053000D01*
X188571142Y-106100619D01*
X188475904Y-106243476D01*
X188428285Y-106433952D01*
X188428285Y-106814904D01*
X188475904Y-106910142D01*
X188523523Y-106957761D01*
X188618761Y-107005380D01*
X188809238Y-107005380D01*
X188904476Y-106957761D01*
X188952095Y-106910142D01*
X188999714Y-106814904D01*
X188999714Y-106576809D01*
X188952095Y-106481571D01*
X188904476Y-106433952D01*
X188809238Y-106386333D01*
X188618761Y-106386333D01*
X188523523Y-106433952D01*
X188475904Y-106481571D01*
X188428285Y-106576809D01*
%TO.C,J1*%
X195670997Y-127087380D02*
X195670997Y-127801666D01*
X195623378Y-127944523D01*
X195528140Y-128039761D01*
X195385283Y-128087380D01*
X195290045Y-128087380D01*
X196670997Y-128087380D02*
X196099569Y-128087380D01*
X196385283Y-128087380D02*
X196385283Y-127087380D01*
X196290045Y-127230238D01*
X196194807Y-127325476D01*
X196099569Y-127373095D01*
%TO.C,R2*%
X188047333Y-91765380D02*
X187714000Y-91289190D01*
X187475904Y-91765380D02*
X187475904Y-90765380D01*
X187856857Y-90765380D01*
X187952095Y-90813000D01*
X187999714Y-90860619D01*
X188047333Y-90955857D01*
X188047333Y-91098714D01*
X187999714Y-91193952D01*
X187952095Y-91241571D01*
X187856857Y-91289190D01*
X187475904Y-91289190D01*
X188428285Y-90860619D02*
X188475904Y-90813000D01*
X188571142Y-90765380D01*
X188809238Y-90765380D01*
X188904476Y-90813000D01*
X188952095Y-90860619D01*
X188999714Y-90955857D01*
X188999714Y-91051095D01*
X188952095Y-91193952D01*
X188380666Y-91765380D01*
X188999714Y-91765380D01*
%TO.C,R15*%
X187063142Y-110053380D02*
X186729809Y-109577190D01*
X186491714Y-110053380D02*
X186491714Y-109053380D01*
X186872666Y-109053380D01*
X186967904Y-109101000D01*
X187015523Y-109148619D01*
X187063142Y-109243857D01*
X187063142Y-109386714D01*
X187015523Y-109481952D01*
X186967904Y-109529571D01*
X186872666Y-109577190D01*
X186491714Y-109577190D01*
X188015523Y-110053380D02*
X187444095Y-110053380D01*
X187729809Y-110053380D02*
X187729809Y-109053380D01*
X187634571Y-109196238D01*
X187539333Y-109291476D01*
X187444095Y-109339095D01*
X188920285Y-109053380D02*
X188444095Y-109053380D01*
X188396476Y-109529571D01*
X188444095Y-109481952D01*
X188539333Y-109434333D01*
X188777428Y-109434333D01*
X188872666Y-109481952D01*
X188920285Y-109529571D01*
X188967904Y-109624809D01*
X188967904Y-109862904D01*
X188920285Y-109958142D01*
X188872666Y-110005761D01*
X188777428Y-110053380D01*
X188539333Y-110053380D01*
X188444095Y-110005761D01*
X188396476Y-109958142D01*
%TO.C,C10*%
X187063142Y-123674142D02*
X187015523Y-123721761D01*
X186872666Y-123769380D01*
X186777428Y-123769380D01*
X186634571Y-123721761D01*
X186539333Y-123626523D01*
X186491714Y-123531285D01*
X186444095Y-123340809D01*
X186444095Y-123197952D01*
X186491714Y-123007476D01*
X186539333Y-122912238D01*
X186634571Y-122817000D01*
X186777428Y-122769380D01*
X186872666Y-122769380D01*
X187015523Y-122817000D01*
X187063142Y-122864619D01*
X188015523Y-123769380D02*
X187444095Y-123769380D01*
X187729809Y-123769380D02*
X187729809Y-122769380D01*
X187634571Y-122912238D01*
X187539333Y-123007476D01*
X187444095Y-123055095D01*
X188634571Y-122769380D02*
X188729809Y-122769380D01*
X188825047Y-122817000D01*
X188872666Y-122864619D01*
X188920285Y-122959857D01*
X188967904Y-123150333D01*
X188967904Y-123388428D01*
X188920285Y-123578904D01*
X188872666Y-123674142D01*
X188825047Y-123721761D01*
X188729809Y-123769380D01*
X188634571Y-123769380D01*
X188539333Y-123721761D01*
X188491714Y-123674142D01*
X188444095Y-123578904D01*
X188396476Y-123388428D01*
X188396476Y-123150333D01*
X188444095Y-122959857D01*
X188491714Y-122864619D01*
X188539333Y-122817000D01*
X188634571Y-122769380D01*
%TO.C,C8*%
X188047333Y-99290142D02*
X187999714Y-99337761D01*
X187856857Y-99385380D01*
X187761619Y-99385380D01*
X187618761Y-99337761D01*
X187523523Y-99242523D01*
X187475904Y-99147285D01*
X187428285Y-98956809D01*
X187428285Y-98813952D01*
X187475904Y-98623476D01*
X187523523Y-98528238D01*
X187618761Y-98433000D01*
X187761619Y-98385380D01*
X187856857Y-98385380D01*
X187999714Y-98433000D01*
X188047333Y-98480619D01*
X188618761Y-98813952D02*
X188523523Y-98766333D01*
X188475904Y-98718714D01*
X188428285Y-98623476D01*
X188428285Y-98575857D01*
X188475904Y-98480619D01*
X188523523Y-98433000D01*
X188618761Y-98385380D01*
X188809238Y-98385380D01*
X188904476Y-98433000D01*
X188952095Y-98480619D01*
X188999714Y-98575857D01*
X188999714Y-98623476D01*
X188952095Y-98718714D01*
X188904476Y-98766333D01*
X188809238Y-98813952D01*
X188618761Y-98813952D01*
X188523523Y-98861571D01*
X188475904Y-98909190D01*
X188428285Y-99004428D01*
X188428285Y-99194904D01*
X188475904Y-99290142D01*
X188523523Y-99337761D01*
X188618761Y-99385380D01*
X188809238Y-99385380D01*
X188904476Y-99337761D01*
X188952095Y-99290142D01*
X188999714Y-99194904D01*
X188999714Y-99004428D01*
X188952095Y-98909190D01*
X188904476Y-98861571D01*
X188809238Y-98813952D01*
%TO.C,R14*%
X187063142Y-103957380D02*
X186729809Y-103481190D01*
X186491714Y-103957380D02*
X186491714Y-102957380D01*
X186872666Y-102957380D01*
X186967904Y-103005000D01*
X187015523Y-103052619D01*
X187063142Y-103147857D01*
X187063142Y-103290714D01*
X187015523Y-103385952D01*
X186967904Y-103433571D01*
X186872666Y-103481190D01*
X186491714Y-103481190D01*
X188015523Y-103957380D02*
X187444095Y-103957380D01*
X187729809Y-103957380D02*
X187729809Y-102957380D01*
X187634571Y-103100238D01*
X187539333Y-103195476D01*
X187444095Y-103243095D01*
X188872666Y-103290714D02*
X188872666Y-103957380D01*
X188634571Y-102909761D02*
X188396476Y-103624047D01*
X189015523Y-103624047D01*
%TO.C,R18*%
X172227542Y-91968580D02*
X171894209Y-91492390D01*
X171656114Y-91968580D02*
X171656114Y-90968580D01*
X172037066Y-90968580D01*
X172132304Y-91016200D01*
X172179923Y-91063819D01*
X172227542Y-91159057D01*
X172227542Y-91301914D01*
X172179923Y-91397152D01*
X172132304Y-91444771D01*
X172037066Y-91492390D01*
X171656114Y-91492390D01*
X173179923Y-91968580D02*
X172608495Y-91968580D01*
X172894209Y-91968580D02*
X172894209Y-90968580D01*
X172798971Y-91111438D01*
X172703733Y-91206676D01*
X172608495Y-91254295D01*
X173751352Y-91397152D02*
X173656114Y-91349533D01*
X173608495Y-91301914D01*
X173560876Y-91206676D01*
X173560876Y-91159057D01*
X173608495Y-91063819D01*
X173656114Y-91016200D01*
X173751352Y-90968580D01*
X173941828Y-90968580D01*
X174037066Y-91016200D01*
X174084685Y-91063819D01*
X174132304Y-91159057D01*
X174132304Y-91206676D01*
X174084685Y-91301914D01*
X174037066Y-91349533D01*
X173941828Y-91397152D01*
X173751352Y-91397152D01*
X173656114Y-91444771D01*
X173608495Y-91492390D01*
X173560876Y-91587628D01*
X173560876Y-91778104D01*
X173608495Y-91873342D01*
X173656114Y-91920961D01*
X173751352Y-91968580D01*
X173941828Y-91968580D01*
X174037066Y-91920961D01*
X174084685Y-91873342D01*
X174132304Y-91778104D01*
X174132304Y-91587628D01*
X174084685Y-91492390D01*
X174037066Y-91444771D01*
X173941828Y-91397152D01*
%TO.C,R13*%
X187063142Y-116149380D02*
X186729809Y-115673190D01*
X186491714Y-116149380D02*
X186491714Y-115149380D01*
X186872666Y-115149380D01*
X186967904Y-115197000D01*
X187015523Y-115244619D01*
X187063142Y-115339857D01*
X187063142Y-115482714D01*
X187015523Y-115577952D01*
X186967904Y-115625571D01*
X186872666Y-115673190D01*
X186491714Y-115673190D01*
X188015523Y-116149380D02*
X187444095Y-116149380D01*
X187729809Y-116149380D02*
X187729809Y-115149380D01*
X187634571Y-115292238D01*
X187539333Y-115387476D01*
X187444095Y-115435095D01*
X188348857Y-115149380D02*
X188967904Y-115149380D01*
X188634571Y-115530333D01*
X188777428Y-115530333D01*
X188872666Y-115577952D01*
X188920285Y-115625571D01*
X188967904Y-115720809D01*
X188967904Y-115958904D01*
X188920285Y-116054142D01*
X188872666Y-116101761D01*
X188777428Y-116149380D01*
X188491714Y-116149380D01*
X188396476Y-116101761D01*
X188348857Y-116054142D01*
%TO.C,R10*%
X187063142Y-79573380D02*
X186729809Y-79097190D01*
X186491714Y-79573380D02*
X186491714Y-78573380D01*
X186872666Y-78573380D01*
X186967904Y-78621000D01*
X187015523Y-78668619D01*
X187063142Y-78763857D01*
X187063142Y-78906714D01*
X187015523Y-79001952D01*
X186967904Y-79049571D01*
X186872666Y-79097190D01*
X186491714Y-79097190D01*
X188015523Y-79573380D02*
X187444095Y-79573380D01*
X187729809Y-79573380D02*
X187729809Y-78573380D01*
X187634571Y-78716238D01*
X187539333Y-78811476D01*
X187444095Y-78859095D01*
X188634571Y-78573380D02*
X188729809Y-78573380D01*
X188825047Y-78621000D01*
X188872666Y-78668619D01*
X188920285Y-78763857D01*
X188967904Y-78954333D01*
X188967904Y-79192428D01*
X188920285Y-79382904D01*
X188872666Y-79478142D01*
X188825047Y-79525761D01*
X188729809Y-79573380D01*
X188634571Y-79573380D01*
X188539333Y-79525761D01*
X188491714Y-79478142D01*
X188444095Y-79382904D01*
X188396476Y-79192428D01*
X188396476Y-78954333D01*
X188444095Y-78763857D01*
X188491714Y-78668619D01*
X188539333Y-78621000D01*
X188634571Y-78573380D01*
%TO.C,C6*%
X188047333Y-81002142D02*
X187999714Y-81049761D01*
X187856857Y-81097380D01*
X187761619Y-81097380D01*
X187618761Y-81049761D01*
X187523523Y-80954523D01*
X187475904Y-80859285D01*
X187428285Y-80668809D01*
X187428285Y-80525952D01*
X187475904Y-80335476D01*
X187523523Y-80240238D01*
X187618761Y-80145000D01*
X187761619Y-80097380D01*
X187856857Y-80097380D01*
X187999714Y-80145000D01*
X188047333Y-80192619D01*
X188904476Y-80097380D02*
X188714000Y-80097380D01*
X188618761Y-80145000D01*
X188571142Y-80192619D01*
X188475904Y-80335476D01*
X188428285Y-80525952D01*
X188428285Y-80906904D01*
X188475904Y-81002142D01*
X188523523Y-81049761D01*
X188618761Y-81097380D01*
X188809238Y-81097380D01*
X188904476Y-81049761D01*
X188952095Y-81002142D01*
X188999714Y-80906904D01*
X188999714Y-80668809D01*
X188952095Y-80573571D01*
X188904476Y-80525952D01*
X188809238Y-80478333D01*
X188618761Y-80478333D01*
X188523523Y-80525952D01*
X188475904Y-80573571D01*
X188428285Y-80668809D01*
%TO.C,C14*%
X187063142Y-108434142D02*
X187015523Y-108481761D01*
X186872666Y-108529380D01*
X186777428Y-108529380D01*
X186634571Y-108481761D01*
X186539333Y-108386523D01*
X186491714Y-108291285D01*
X186444095Y-108100809D01*
X186444095Y-107957952D01*
X186491714Y-107767476D01*
X186539333Y-107672238D01*
X186634571Y-107577000D01*
X186777428Y-107529380D01*
X186872666Y-107529380D01*
X187015523Y-107577000D01*
X187063142Y-107624619D01*
X188015523Y-108529380D02*
X187444095Y-108529380D01*
X187729809Y-108529380D02*
X187729809Y-107529380D01*
X187634571Y-107672238D01*
X187539333Y-107767476D01*
X187444095Y-107815095D01*
X188872666Y-107862714D02*
X188872666Y-108529380D01*
X188634571Y-107481761D02*
X188396476Y-108196047D01*
X189015523Y-108196047D01*
%TO.C,C1*%
X188047333Y-90146142D02*
X187999714Y-90193761D01*
X187856857Y-90241380D01*
X187761619Y-90241380D01*
X187618761Y-90193761D01*
X187523523Y-90098523D01*
X187475904Y-90003285D01*
X187428285Y-89812809D01*
X187428285Y-89669952D01*
X187475904Y-89479476D01*
X187523523Y-89384238D01*
X187618761Y-89289000D01*
X187761619Y-89241380D01*
X187856857Y-89241380D01*
X187999714Y-89289000D01*
X188047333Y-89336619D01*
X188999714Y-90241380D02*
X188428285Y-90241380D01*
X188714000Y-90241380D02*
X188714000Y-89241380D01*
X188618761Y-89384238D01*
X188523523Y-89479476D01*
X188428285Y-89527095D01*
%TO.C,R19*%
X180408242Y-91859380D02*
X180074909Y-91383190D01*
X179836814Y-91859380D02*
X179836814Y-90859380D01*
X180217766Y-90859380D01*
X180313004Y-90907000D01*
X180360623Y-90954619D01*
X180408242Y-91049857D01*
X180408242Y-91192714D01*
X180360623Y-91287952D01*
X180313004Y-91335571D01*
X180217766Y-91383190D01*
X179836814Y-91383190D01*
X181360623Y-91859380D02*
X180789195Y-91859380D01*
X181074909Y-91859380D02*
X181074909Y-90859380D01*
X180979671Y-91002238D01*
X180884433Y-91097476D01*
X180789195Y-91145095D01*
X181836814Y-91859380D02*
X182027290Y-91859380D01*
X182122528Y-91811761D01*
X182170147Y-91764142D01*
X182265385Y-91621285D01*
X182313004Y-91430809D01*
X182313004Y-91049857D01*
X182265385Y-90954619D01*
X182217766Y-90907000D01*
X182122528Y-90859380D01*
X181932052Y-90859380D01*
X181836814Y-90907000D01*
X181789195Y-90954619D01*
X181741576Y-91049857D01*
X181741576Y-91287952D01*
X181789195Y-91383190D01*
X181836814Y-91430809D01*
X181932052Y-91478428D01*
X182122528Y-91478428D01*
X182217766Y-91430809D01*
X182265385Y-91383190D01*
X182313004Y-91287952D01*
%TO.C,R17*%
X187063142Y-125293380D02*
X186729809Y-124817190D01*
X186491714Y-125293380D02*
X186491714Y-124293380D01*
X186872666Y-124293380D01*
X186967904Y-124341000D01*
X187015523Y-124388619D01*
X187063142Y-124483857D01*
X187063142Y-124626714D01*
X187015523Y-124721952D01*
X186967904Y-124769571D01*
X186872666Y-124817190D01*
X186491714Y-124817190D01*
X188015523Y-125293380D02*
X187444095Y-125293380D01*
X187729809Y-125293380D02*
X187729809Y-124293380D01*
X187634571Y-124436238D01*
X187539333Y-124531476D01*
X187444095Y-124579095D01*
X188348857Y-124293380D02*
X189015523Y-124293380D01*
X188586952Y-125293380D01*
%TO.C,R7*%
X188047333Y-113101380D02*
X187714000Y-112625190D01*
X187475904Y-113101380D02*
X187475904Y-112101380D01*
X187856857Y-112101380D01*
X187952095Y-112149000D01*
X187999714Y-112196619D01*
X188047333Y-112291857D01*
X188047333Y-112434714D01*
X187999714Y-112529952D01*
X187952095Y-112577571D01*
X187856857Y-112625190D01*
X187475904Y-112625190D01*
X188380666Y-112101380D02*
X189047333Y-112101380D01*
X188618761Y-113101380D01*
%TO.C,C18*%
X176545542Y-95022942D02*
X176497923Y-95070561D01*
X176355066Y-95118180D01*
X176259828Y-95118180D01*
X176116971Y-95070561D01*
X176021733Y-94975323D01*
X175974114Y-94880085D01*
X175926495Y-94689609D01*
X175926495Y-94546752D01*
X175974114Y-94356276D01*
X176021733Y-94261038D01*
X176116971Y-94165800D01*
X176259828Y-94118180D01*
X176355066Y-94118180D01*
X176497923Y-94165800D01*
X176545542Y-94213419D01*
X177497923Y-95118180D02*
X176926495Y-95118180D01*
X177212209Y-95118180D02*
X177212209Y-94118180D01*
X177116971Y-94261038D01*
X177021733Y-94356276D01*
X176926495Y-94403895D01*
X178069352Y-94546752D02*
X177974114Y-94499133D01*
X177926495Y-94451514D01*
X177878876Y-94356276D01*
X177878876Y-94308657D01*
X177926495Y-94213419D01*
X177974114Y-94165800D01*
X178069352Y-94118180D01*
X178259828Y-94118180D01*
X178355066Y-94165800D01*
X178402685Y-94213419D01*
X178450304Y-94308657D01*
X178450304Y-94356276D01*
X178402685Y-94451514D01*
X178355066Y-94499133D01*
X178259828Y-94546752D01*
X178069352Y-94546752D01*
X177974114Y-94594371D01*
X177926495Y-94641990D01*
X177878876Y-94737228D01*
X177878876Y-94927704D01*
X177926495Y-95022942D01*
X177974114Y-95070561D01*
X178069352Y-95118180D01*
X178259828Y-95118180D01*
X178355066Y-95070561D01*
X178402685Y-95022942D01*
X178450304Y-94927704D01*
X178450304Y-94737228D01*
X178402685Y-94641990D01*
X178355066Y-94594371D01*
X178259828Y-94546752D01*
%TO.C,C7*%
X188047333Y-111482142D02*
X187999714Y-111529761D01*
X187856857Y-111577380D01*
X187761619Y-111577380D01*
X187618761Y-111529761D01*
X187523523Y-111434523D01*
X187475904Y-111339285D01*
X187428285Y-111148809D01*
X187428285Y-111005952D01*
X187475904Y-110815476D01*
X187523523Y-110720238D01*
X187618761Y-110625000D01*
X187761619Y-110577380D01*
X187856857Y-110577380D01*
X187999714Y-110625000D01*
X188047333Y-110672619D01*
X188380666Y-110577380D02*
X189047333Y-110577380D01*
X188618761Y-111577380D01*
%TO.C,R1*%
X188047333Y-88717380D02*
X187714000Y-88241190D01*
X187475904Y-88717380D02*
X187475904Y-87717380D01*
X187856857Y-87717380D01*
X187952095Y-87765000D01*
X187999714Y-87812619D01*
X188047333Y-87907857D01*
X188047333Y-88050714D01*
X187999714Y-88145952D01*
X187952095Y-88193571D01*
X187856857Y-88241190D01*
X187475904Y-88241190D01*
X188999714Y-88717380D02*
X188428285Y-88717380D01*
X188714000Y-88717380D02*
X188714000Y-87717380D01*
X188618761Y-87860238D01*
X188523523Y-87955476D01*
X188428285Y-88003095D01*
%TO.C,R4*%
X188047333Y-97861380D02*
X187714000Y-97385190D01*
X187475904Y-97861380D02*
X187475904Y-96861380D01*
X187856857Y-96861380D01*
X187952095Y-96909000D01*
X187999714Y-96956619D01*
X188047333Y-97051857D01*
X188047333Y-97194714D01*
X187999714Y-97289952D01*
X187952095Y-97337571D01*
X187856857Y-97385190D01*
X187475904Y-97385190D01*
X188904476Y-97194714D02*
X188904476Y-97861380D01*
X188666380Y-96813761D02*
X188428285Y-97528047D01*
X189047333Y-97528047D01*
%TO.C,R5*%
X188047333Y-100909380D02*
X187714000Y-100433190D01*
X187475904Y-100909380D02*
X187475904Y-99909380D01*
X187856857Y-99909380D01*
X187952095Y-99957000D01*
X187999714Y-100004619D01*
X188047333Y-100099857D01*
X188047333Y-100242714D01*
X187999714Y-100337952D01*
X187952095Y-100385571D01*
X187856857Y-100433190D01*
X187475904Y-100433190D01*
X188952095Y-99909380D02*
X188475904Y-99909380D01*
X188428285Y-100385571D01*
X188475904Y-100337952D01*
X188571142Y-100290333D01*
X188809238Y-100290333D01*
X188904476Y-100337952D01*
X188952095Y-100385571D01*
X188999714Y-100480809D01*
X188999714Y-100718904D01*
X188952095Y-100814142D01*
X188904476Y-100861761D01*
X188809238Y-100909380D01*
X188571142Y-100909380D01*
X188475904Y-100861761D01*
X188428285Y-100814142D01*
D11*
%TO.C,C20*%
X177565267Y-111508000D02*
X177272733Y-111508000D01*
X177565267Y-110488000D02*
X177272733Y-110488000D01*
%TO.C,J2*%
X196100000Y-78359000D02*
X196100000Y-126679000D01*
X193440000Y-75759000D02*
X194770000Y-75759000D01*
X193440000Y-77089000D02*
X193440000Y-75759000D01*
X193440000Y-78359000D02*
X196100000Y-78359000D01*
X193440000Y-126679000D02*
X196100000Y-126679000D01*
X193440000Y-78359000D02*
X193440000Y-126679000D01*
%TO.C,C3*%
X191000767Y-77087000D02*
X190708233Y-77087000D01*
X191000767Y-78107000D02*
X190708233Y-78107000D01*
%TO.C,C19*%
X177043233Y-90777600D02*
X177335767Y-90777600D01*
X177043233Y-91797600D02*
X177335767Y-91797600D01*
%TO.C,C16*%
X191000767Y-114683000D02*
X190708233Y-114683000D01*
X191000767Y-113663000D02*
X190708233Y-113663000D01*
%TO.C,C17*%
X191000767Y-120779000D02*
X190708233Y-120779000D01*
X191000767Y-119759000D02*
X190708233Y-119759000D01*
%TO.C,R9*%
X191112224Y-76595500D02*
X190602776Y-76595500D01*
X191112224Y-75550500D02*
X190602776Y-75550500D01*
%TO.C,C15*%
X191000767Y-117731000D02*
X190708233Y-117731000D01*
X191000767Y-116711000D02*
X190708233Y-116711000D01*
%TO.C,C12*%
X191000767Y-87251000D02*
X190708233Y-87251000D01*
X191000767Y-86231000D02*
X190708233Y-86231000D01*
%TO.C,R3*%
X191112224Y-94883500D02*
X190602776Y-94883500D01*
X191112224Y-93838500D02*
X190602776Y-93838500D01*
%TO.C,R12*%
X191112224Y-85739500D02*
X190602776Y-85739500D01*
X191112224Y-84694500D02*
X190602776Y-84694500D01*
%TO.C,C5*%
X191000767Y-95375000D02*
X190708233Y-95375000D01*
X191000767Y-96395000D02*
X190708233Y-96395000D01*
%TO.C,C11*%
X191000767Y-101471000D02*
X190708233Y-101471000D01*
X191000767Y-102491000D02*
X190708233Y-102491000D01*
%TO.C,R11*%
X191112224Y-81646500D02*
X190602776Y-81646500D01*
X191112224Y-82691500D02*
X190602776Y-82691500D01*
D10*
%TO.C,U1*%
X181039000Y-93842500D02*
X181039000Y-94190000D01*
X173289000Y-93842500D02*
X181039000Y-93842500D01*
X181039000Y-109992500D02*
X181039000Y-109645000D01*
X173289000Y-109992500D02*
X173289000Y-109645000D01*
X173289000Y-109992500D02*
X181039000Y-109992500D01*
X173289000Y-94092500D02*
X171864000Y-94092500D01*
X173289000Y-93842500D02*
X173289000Y-94092500D01*
D11*
%TO.C,R16*%
X191112224Y-122315500D02*
X190602776Y-122315500D01*
X191112224Y-121270500D02*
X190602776Y-121270500D01*
%TO.C,C2*%
X191000767Y-93347000D02*
X190708233Y-93347000D01*
X191000767Y-92327000D02*
X190708233Y-92327000D01*
%TO.C,C4*%
X191000767Y-104519000D02*
X190708233Y-104519000D01*
X191000767Y-105539000D02*
X190708233Y-105539000D01*
%TO.C,C13*%
X191000767Y-126875000D02*
X190708233Y-126875000D01*
X191000767Y-125855000D02*
X190708233Y-125855000D01*
%TO.C,C9*%
X191000767Y-83183000D02*
X190708233Y-83183000D01*
X191000767Y-84203000D02*
X190708233Y-84203000D01*
%TO.C,R8*%
X191112224Y-119267500D02*
X190602776Y-119267500D01*
X191112224Y-118222500D02*
X190602776Y-118222500D01*
%TO.C,R6*%
X191112224Y-107075500D02*
X190602776Y-107075500D01*
X191112224Y-106030500D02*
X190602776Y-106030500D01*
%TO.C,J1*%
X197228000Y-128215000D02*
X197228000Y-74995000D01*
X196766675Y-118225000D02*
X196333662Y-118475000D01*
X196333662Y-118475000D02*
X196333662Y-117975000D01*
X197228000Y-74995000D02*
X209568000Y-74995000D01*
X196333662Y-117975000D02*
X196766675Y-118225000D01*
X209568000Y-128215000D02*
X197228000Y-128215000D01*
%TO.C,R2*%
X191112224Y-90790500D02*
X190602776Y-90790500D01*
X191112224Y-91835500D02*
X190602776Y-91835500D01*
%TO.C,R15*%
X191112224Y-110123500D02*
X190602776Y-110123500D01*
X191112224Y-109078500D02*
X190602776Y-109078500D01*
%TO.C,C10*%
X191000767Y-123827000D02*
X190708233Y-123827000D01*
X191000767Y-122807000D02*
X190708233Y-122807000D01*
%TO.C,C8*%
X191000767Y-98423000D02*
X190708233Y-98423000D01*
X191000767Y-99443000D02*
X190708233Y-99443000D01*
%TO.C,R14*%
X191112224Y-102982500D02*
X190602776Y-102982500D01*
X191112224Y-104027500D02*
X190602776Y-104027500D01*
%TO.C,R18*%
X173529624Y-93359500D02*
X173020176Y-93359500D01*
X173529624Y-92314500D02*
X173020176Y-92314500D01*
%TO.C,R13*%
X191112224Y-115174500D02*
X190602776Y-115174500D01*
X191112224Y-116219500D02*
X190602776Y-116219500D01*
%TO.C,R10*%
X191112224Y-78598500D02*
X190602776Y-78598500D01*
X191112224Y-79643500D02*
X190602776Y-79643500D01*
%TO.C,C6*%
X191000767Y-81155000D02*
X190708233Y-81155000D01*
X191000767Y-80135000D02*
X190708233Y-80135000D01*
%TO.C,C14*%
X191000767Y-107567000D02*
X190708233Y-107567000D01*
X191000767Y-108587000D02*
X190708233Y-108587000D01*
%TO.C,C1*%
X191000767Y-90299000D02*
X190708233Y-90299000D01*
X191000767Y-89279000D02*
X190708233Y-89279000D01*
%TO.C,R19*%
X180796376Y-92314500D02*
X181305824Y-92314500D01*
X180796376Y-93359500D02*
X181305824Y-93359500D01*
%TO.C,R17*%
X191112224Y-125363500D02*
X190602776Y-125363500D01*
X191112224Y-124318500D02*
X190602776Y-124318500D01*
%TO.C,R7*%
X191112224Y-113171500D02*
X190602776Y-113171500D01*
X191112224Y-112126500D02*
X190602776Y-112126500D01*
%TO.C,C18*%
X177043233Y-92327000D02*
X177335767Y-92327000D01*
X177043233Y-93347000D02*
X177335767Y-93347000D01*
%TO.C,C7*%
X191000767Y-111635000D02*
X190708233Y-111635000D01*
X191000767Y-110615000D02*
X190708233Y-110615000D01*
%TO.C,R1*%
X191112224Y-88787500D02*
X190602776Y-88787500D01*
X191112224Y-87742500D02*
X190602776Y-87742500D01*
%TO.C,R4*%
X191112224Y-97931500D02*
X190602776Y-97931500D01*
X191112224Y-96886500D02*
X190602776Y-96886500D01*
%TO.C,R5*%
X191112224Y-99934500D02*
X190602776Y-99934500D01*
X191112224Y-100979500D02*
X190602776Y-100979500D01*
%TD*%
M02*
