M48
; DRILL file {KiCad 6.0.10-86aedd382b~118~ubuntu20.04.1} date Wed 18 Jan 2023 09:44:46 PM PST
; FORMAT={-:-/ absolute / inch / decimal}
; #@! TF.CreationDate,2023-01-18T21:44:46-08:00
; #@! TF.GenerationSoftware,Kicad,Pcbnew,6.0.10-86aedd382b~118~ubuntu20.04.1
; #@! TF.FileFunction,Plated,1,2,PTH
FMAT,2
INCH
; #@! TA.AperFunction,Plated,PTH,ViaDrill
T1C0.0118
; #@! TA.AperFunction,Plated,PTH,ViaDrill
T2C0.0157
; #@! TA.AperFunction,Plated,PTH,ComponentDrill
T3C0.0394
; #@! TA.AperFunction,Plated,PTH,ComponentDrill
T4C0.0402
; #@! TA.AperFunction,Plated,PTH,ComponentDrill
T5C0.1260
%
G90
G05
T1
X6.7439Y-3.8561
X6.7457Y-4.2761
X7.14Y-3.35
X7.2Y-4.2
X7.21Y-3.85
X7.25Y-4.3
X7.41Y-4.3
X7.425Y-4.075
X7.435Y-4.54
T2
X6.835Y-3.95
X6.835Y-4.075
X6.835Y-4.175
X6.86Y-3.7
X6.91Y-4.37
X7.09Y-3.7
X7.115Y-3.95
X7.115Y-4.075
X7.115Y-4.3
X7.14Y-3.395
X7.14Y-3.5
X7.15Y-4.55
X7.23Y-4.55
T3
X7.6681Y-3.035
X7.6681Y-3.135
X7.6681Y-3.235
X7.6681Y-3.335
X7.6681Y-3.435
X7.6681Y-3.535
X7.6681Y-3.635
X7.6681Y-3.735
X7.6681Y-3.835
X7.6681Y-3.935
X7.6681Y-4.035
X7.6681Y-4.135
X7.6681Y-4.235
X7.6681Y-4.335
X7.6681Y-4.435
X7.6681Y-4.535
X7.6681Y-4.635
X7.6681Y-4.735
X7.6681Y-4.835
X7.6681Y-4.935
X7.8381Y-3.3459
X7.8381Y-3.4549
X7.8381Y-3.564
X7.8381Y-3.673
X7.8381Y-3.7821
X7.8381Y-3.8911
X7.8381Y-4.0002
X7.8381Y-4.1093
X7.8381Y-4.2183
X7.8381Y-4.3274
X7.8381Y-4.4364
X7.8381Y-4.5455
X7.8381Y-4.6545
X7.9499Y-3.4004
X7.9499Y-3.5094
X7.9499Y-3.6185
X7.9499Y-3.7276
X7.9499Y-3.8366
X7.9499Y-3.9457
X7.9499Y-4.0547
X7.9499Y-4.1638
X7.9499Y-4.2728
X7.9499Y-4.3819
X7.9499Y-4.4909
X7.9499Y-4.6
T4
X6.6Y-3.05
X6.6Y-3.15
X6.6Y-3.25
X6.6Y-3.35
X6.6Y-3.45
X6.6Y-3.55
X6.6Y-3.65
X6.6Y-3.75
X6.6Y-3.85
X6.6Y-3.95
X6.6Y-4.05
X6.6Y-4.15
X6.6Y-4.25
X6.6Y-4.35
X6.6Y-4.45
X6.6Y-4.55
X6.6Y-4.65
X6.6Y-4.75
X6.6Y-4.85
X6.6Y-4.95
X6.85Y-3.0591
X6.95Y-3.0591
X7.05Y-3.0591
X7.3Y-3.05
X7.3Y-3.15
X7.3Y-3.25
X7.3Y-3.35
X7.3Y-3.45
X7.3Y-3.55
X7.3Y-3.65
X7.3Y-3.75
X7.3Y-3.85
X7.3Y-3.95
X7.3Y-4.05
X7.3Y-4.15
X7.3Y-4.25
X7.3Y-4.35
X7.3Y-4.45
X7.3Y-4.55
X7.3Y-4.65
X7.3Y-4.75
X7.3Y-4.85
X7.3Y-4.95
T5
X7.894Y-3.073
X7.894Y-4.9274
T0
M30
