%TF.GenerationSoftware,KiCad,Pcbnew,6.0.10-86aedd382b~118~ubuntu20.04.1*%
%TF.CreationDate,2023-01-18T18:06:03-08:00*%
%TF.ProjectId,parallel2usb,70617261-6c6c-4656-9c32-7573622e6b69,rev?*%
%TF.SameCoordinates,Original*%
%TF.FileFunction,Copper,L2,Bot*%
%TF.FilePolarity,Positive*%
%FSLAX46Y46*%
G04 Gerber Fmt 4.6, Leading zero omitted, Abs format (unit mm)*
G04 Created by KiCad (PCBNEW 6.0.10-86aedd382b~118~ubuntu20.04.1) date 2023-01-18 18:06:03*
%MOMM*%
%LPD*%
G01*
G04 APERTURE LIST*
%TA.AperFunction,ComponentPad*%
%ADD10O,1.700000X1.700000*%
%TD*%
%TA.AperFunction,SMDPad,CuDef*%
%ADD11R,3.500000X1.700000*%
%TD*%
%TA.AperFunction,ComponentPad*%
%ADD12R,1.700000X1.700000*%
%TD*%
%TA.AperFunction,SMDPad,CuDef*%
%ADD13R,1.700000X3.500000*%
%TD*%
%TA.AperFunction,ComponentPad*%
%ADD14C,1.600000*%
%TD*%
%TA.AperFunction,ComponentPad*%
%ADD15R,1.600000X1.600000*%
%TD*%
%TA.AperFunction,ComponentPad*%
%ADD16C,4.000000*%
%TD*%
%TA.AperFunction,ViaPad*%
%ADD17C,0.800000*%
%TD*%
%TA.AperFunction,ViaPad*%
%ADD18C,0.600000*%
%TD*%
%TA.AperFunction,Conductor*%
%ADD19C,0.200000*%
%TD*%
%TA.AperFunction,Conductor*%
%ADD20C,0.127000*%
%TD*%
G04 APERTURE END LIST*
D10*
%TO.P,U2,1,GPIO0*%
%TO.N,/AUTOF_3*%
X167640000Y-125730000D03*
D11*
X166740000Y-125730000D03*
%TO.P,U2,2,GPIO1*%
%TO.N,/INIT_3*%
X166740000Y-123190000D03*
D10*
X167640000Y-123190000D03*
D12*
%TO.P,U2,3,GND*%
%TO.N,GND*%
X167640000Y-120650000D03*
D11*
X166740000Y-120650000D03*
%TO.P,U2,4,GPIO2*%
%TO.N,/SELIN_3*%
X166740000Y-118110000D03*
D10*
X167640000Y-118110000D03*
%TO.P,U2,5,GPIO3*%
%TO.N,/D0_3*%
X167640000Y-115570000D03*
D11*
X166740000Y-115570000D03*
%TO.P,U2,6,GPIO4*%
%TO.N,/D1_3*%
X166740000Y-113030000D03*
D10*
X167640000Y-113030000D03*
%TO.P,U2,7,GPIO5*%
%TO.N,/D2_3*%
X167640000Y-110490000D03*
D11*
X166740000Y-110490000D03*
D12*
%TO.P,U2,8,GND*%
%TO.N,GND*%
X167640000Y-107950000D03*
D11*
X166740000Y-107950000D03*
D10*
%TO.P,U2,9,GPIO6*%
%TO.N,/D3_3*%
X167640000Y-105410000D03*
D11*
X166740000Y-105410000D03*
D10*
%TO.P,U2,10,GPIO7*%
%TO.N,/D4_3*%
X167640000Y-102870000D03*
D11*
X166740000Y-102870000D03*
D10*
%TO.P,U2,11,GPIO8*%
%TO.N,/D5_3*%
X167640000Y-100330000D03*
D11*
X166740000Y-100330000D03*
%TO.P,U2,12,GPIO9*%
%TO.N,/D6_3*%
X166740000Y-97790000D03*
D10*
X167640000Y-97790000D03*
D12*
%TO.P,U2,13,GND*%
%TO.N,GND*%
X167640000Y-95250000D03*
D11*
X166740000Y-95250000D03*
%TO.P,U2,14,GPIO10*%
%TO.N,/D7_3*%
X166740000Y-92710000D03*
D10*
X167640000Y-92710000D03*
D11*
%TO.P,U2,15,GPIO11*%
%TO.N,/STROBE_3*%
X166740000Y-90170000D03*
D10*
X167640000Y-90170000D03*
%TO.P,U2,16,GPIO12*%
%TO.N,/ERROR_3*%
X167640000Y-87630000D03*
D11*
X166740000Y-87630000D03*
%TO.P,U2,17,GPIO13*%
%TO.N,/ACK_3*%
X166740000Y-85090000D03*
D10*
X167640000Y-85090000D03*
D11*
%TO.P,U2,18,GND*%
%TO.N,GND*%
X166740000Y-82550000D03*
D12*
X167640000Y-82550000D03*
D10*
%TO.P,U2,19,GPIO14*%
%TO.N,/BUSY_3*%
X167640000Y-80010000D03*
D11*
X166740000Y-80010000D03*
D10*
%TO.P,U2,20,GPIO15*%
%TO.N,/PE_3*%
X167640000Y-77470000D03*
D11*
X166740000Y-77470000D03*
D10*
%TO.P,U2,21,GPIO16*%
%TO.N,/HD*%
X185420000Y-77470000D03*
D11*
X186320000Y-77470000D03*
D10*
%TO.P,U2,22,GPIO17*%
%TO.N,/DIR*%
X185420000Y-80010000D03*
D11*
X186320000Y-80010000D03*
D12*
%TO.P,U2,23,GND*%
%TO.N,GND*%
X185420000Y-82550000D03*
D11*
X186320000Y-82550000D03*
D10*
%TO.P,U2,24,GPIO18*%
%TO.N,/SEL_3*%
X185420000Y-85090000D03*
D11*
X186320000Y-85090000D03*
%TO.P,U2,25,GPIO19*%
%TO.N,unconnected-(U2-Pad25)*%
X186320000Y-87630000D03*
D10*
X185420000Y-87630000D03*
D11*
%TO.P,U2,26,GPIO20*%
%TO.N,unconnected-(U2-Pad26)*%
X186320000Y-90170000D03*
D10*
X185420000Y-90170000D03*
%TO.P,U2,27,GPIO21*%
%TO.N,unconnected-(U2-Pad27)*%
X185420000Y-92710000D03*
D11*
X186320000Y-92710000D03*
D12*
%TO.P,U2,28,GND*%
%TO.N,GND*%
X185420000Y-95250000D03*
D11*
X186320000Y-95250000D03*
%TO.P,U2,29,GPIO22*%
%TO.N,unconnected-(U2-Pad29)*%
X186320000Y-97790000D03*
D10*
X185420000Y-97790000D03*
%TO.P,U2,30,RUN*%
%TO.N,unconnected-(U2-Pad30)*%
X185420000Y-100330000D03*
D11*
X186320000Y-100330000D03*
%TO.P,U2,31,GPIO26_ADC0*%
%TO.N,unconnected-(U2-Pad31)*%
X186320000Y-102870000D03*
D10*
X185420000Y-102870000D03*
D11*
%TO.P,U2,32,GPIO27_ADC1*%
%TO.N,unconnected-(U2-Pad32)*%
X186320000Y-105410000D03*
D10*
X185420000Y-105410000D03*
D12*
%TO.P,U2,33,AGND*%
%TO.N,GND*%
X185420000Y-107950000D03*
D11*
X186320000Y-107950000D03*
%TO.P,U2,34,GPIO28_ADC2*%
%TO.N,unconnected-(U2-Pad34)*%
X186320000Y-110490000D03*
D10*
X185420000Y-110490000D03*
%TO.P,U2,35,ADC_VREF*%
%TO.N,unconnected-(U2-Pad35)*%
X185420000Y-113030000D03*
D11*
X186320000Y-113030000D03*
%TO.P,U2,36,3V3*%
%TO.N,+3.3V*%
X186320000Y-115570000D03*
D10*
X185420000Y-115570000D03*
%TO.P,U2,37,3V3_EN*%
%TO.N,unconnected-(U2-Pad37)*%
X185420000Y-118110000D03*
D11*
X186320000Y-118110000D03*
%TO.P,U2,38,GND*%
%TO.N,GND*%
X186320000Y-120650000D03*
D12*
X185420000Y-120650000D03*
D11*
%TO.P,U2,39,VSYS*%
%TO.N,unconnected-(U2-Pad39)*%
X186320000Y-123190000D03*
D10*
X185420000Y-123190000D03*
D11*
%TO.P,U2,40,VBUS*%
%TO.N,+5V*%
X186320000Y-125730000D03*
D10*
X185420000Y-125730000D03*
D13*
%TO.P,U2,41,SWCLK*%
%TO.N,unconnected-(U2-Pad41)*%
X173990000Y-76800000D03*
D10*
X173990000Y-77700000D03*
D13*
%TO.P,U2,42,GND*%
%TO.N,unconnected-(U2-Pad42)*%
X176530000Y-76800000D03*
D12*
X176530000Y-77700000D03*
D10*
%TO.P,U2,43,SWDIO*%
%TO.N,unconnected-(U2-Pad43)*%
X179070000Y-77700000D03*
D13*
X179070000Y-76800000D03*
%TD*%
D12*
%TO.P,J2,1,Pin_1*%
%TO.N,+3.3V*%
X194770000Y-77089000D03*
D10*
%TO.P,J2,2,Pin_2*%
%TO.N,+5V*%
X194770000Y-79629000D03*
%TO.P,J2,3,Pin_3*%
%TO.N,/SEL*%
X194770000Y-82169000D03*
%TO.P,J2,4,Pin_4*%
%TO.N,/PE*%
X194770000Y-84709000D03*
%TO.P,J2,5,Pin_5*%
%TO.N,/BUSY*%
X194770000Y-87249000D03*
%TO.P,J2,6,Pin_6*%
%TO.N,/ACK*%
X194770000Y-89789000D03*
%TO.P,J2,7,Pin_7*%
%TO.N,/D7*%
X194770000Y-92329000D03*
%TO.P,J2,8,Pin_8*%
%TO.N,/D6*%
X194770000Y-94869000D03*
%TO.P,J2,9,Pin_9*%
%TO.N,/D5*%
X194770000Y-97409000D03*
%TO.P,J2,10,Pin_10*%
%TO.N,/D4*%
X194770000Y-99949000D03*
%TO.P,J2,11,Pin_11*%
%TO.N,/D3*%
X194770000Y-102489000D03*
%TO.P,J2,12,Pin_12*%
%TO.N,/SELIN*%
X194770000Y-105029000D03*
%TO.P,J2,13,Pin_13*%
%TO.N,/D2*%
X194770000Y-107569000D03*
%TO.P,J2,14,Pin_14*%
%TO.N,/INIT*%
X194770000Y-110109000D03*
%TO.P,J2,15,Pin_15*%
%TO.N,/D1*%
X194770000Y-112649000D03*
%TO.P,J2,16,Pin_16*%
%TO.N,/ERROR*%
X194770000Y-115189000D03*
%TO.P,J2,17,Pin_17*%
%TO.N,/D0*%
X194770000Y-117729000D03*
%TO.P,J2,18,Pin_18*%
%TO.N,/AUTOF*%
X194770000Y-120269000D03*
%TO.P,J2,19,Pin_19*%
%TO.N,/STROBE*%
X194770000Y-122809000D03*
%TO.P,J2,20,Pin_20*%
%TO.N,GND*%
X194770000Y-125349000D03*
%TD*%
D14*
%TO.P,J1,25,P25*%
%TO.N,GND*%
X201928000Y-86370000D03*
%TO.P,J1,24,P24*%
X201928000Y-89140000D03*
%TO.P,J1,23,P23*%
X201928000Y-91910000D03*
%TO.P,J1,22,P22*%
X201928000Y-94680000D03*
%TO.P,J1,21,P21*%
X201928000Y-97450000D03*
%TO.P,J1,20,P20*%
X201928000Y-100220000D03*
%TO.P,J1,19,P19*%
X201928000Y-102990000D03*
%TO.P,J1,18,P18*%
X201928000Y-105760000D03*
%TO.P,J1,17,P17*%
%TO.N,/SELIN*%
X201928000Y-108530000D03*
%TO.P,J1,16,P16*%
%TO.N,/INIT*%
X201928000Y-111300000D03*
%TO.P,J1,15,P15*%
%TO.N,/ERROR*%
X201928000Y-114070000D03*
%TO.P,J1,14,P14*%
%TO.N,/AUTOF*%
X201928000Y-116840000D03*
%TO.P,J1,13,13*%
%TO.N,/SEL*%
X199088000Y-84985000D03*
%TO.P,J1,12,12*%
%TO.N,/PE*%
X199088000Y-87755000D03*
%TO.P,J1,11,11*%
%TO.N,/BUSY*%
X199088000Y-90525000D03*
%TO.P,J1,10,10*%
%TO.N,/ACK*%
X199088000Y-93295000D03*
%TO.P,J1,9,9*%
%TO.N,/D7*%
X199088000Y-96065000D03*
%TO.P,J1,8,8*%
%TO.N,/D6*%
X199088000Y-98835000D03*
%TO.P,J1,7,7*%
%TO.N,/D5*%
X199088000Y-101605000D03*
%TO.P,J1,6,6*%
%TO.N,/D4*%
X199088000Y-104375000D03*
%TO.P,J1,5,5*%
%TO.N,/D3*%
X199088000Y-107145000D03*
%TO.P,J1,4,4*%
%TO.N,/D2*%
X199088000Y-109915000D03*
%TO.P,J1,3,3*%
%TO.N,/D1*%
X199088000Y-112685000D03*
%TO.P,J1,2,2*%
%TO.N,/D0*%
X199088000Y-115455000D03*
D15*
%TO.P,J1,1,1*%
%TO.N,/STROBE*%
X199088000Y-118225000D03*
D16*
%TO.P,J1,0,PAD*%
%TO.N,GND*%
X200508000Y-125155000D03*
X200508000Y-78055000D03*
%TD*%
D17*
%TO.N,GND*%
X175514000Y-110998000D03*
D18*
%TO.N,/SEL_3*%
X181356000Y-85090000D03*
D17*
%TO.N,+5V*%
X181356000Y-88900000D03*
%TO.N,+3.3V*%
X181356000Y-86233000D03*
X183642000Y-115570000D03*
X181610000Y-115570000D03*
%TO.N,GND*%
X173609000Y-103505000D03*
X173609000Y-100330000D03*
X174244000Y-93980000D03*
D18*
%TO.N,/STROBE_3*%
X171294017Y-97945983D03*
X171340803Y-108611705D03*
D17*
%TO.N,GND*%
X173609000Y-106045000D03*
X180086000Y-93980000D03*
X180721000Y-109220000D03*
X180721000Y-103505000D03*
X180721000Y-100330000D03*
D18*
%TO.N,Net-(R14-Pad2)*%
X182880000Y-106680000D03*
X188595000Y-103505000D03*
%TO.N,Net-(R13-Pad2)*%
X188849000Y-115316000D03*
X183134000Y-97790000D03*
%TO.N,Net-(R15-Pad2)*%
X188214000Y-109220000D03*
X184150000Y-109220000D03*
%TD*%
D19*
%TO.N,GND*%
X175514000Y-110998000D02*
X179324000Y-110998000D01*
X179451000Y-119634000D02*
X179451000Y-111125000D01*
X179451000Y-111125000D02*
X179451000Y-109601000D01*
X179324000Y-110998000D02*
X179451000Y-111125000D01*
D20*
%TO.N,Net-(R13-Pad2)*%
X183134000Y-97790000D02*
X184404000Y-99060000D01*
X184404000Y-99060000D02*
X188468000Y-99060000D01*
X188468000Y-99060000D02*
X189230000Y-99822000D01*
X189230000Y-99822000D02*
X189230000Y-115062000D01*
X189230000Y-115062000D02*
X188976000Y-115316000D01*
X188976000Y-115316000D02*
X188849000Y-115316000D01*
D19*
%TO.N,GND*%
X185420000Y-120650000D02*
X180467000Y-120650000D01*
X180467000Y-120650000D02*
X179451000Y-119634000D01*
X179451000Y-109601000D02*
X179832000Y-109220000D01*
X179832000Y-109220000D02*
X180721000Y-109220000D01*
X185420000Y-107950000D02*
X183388000Y-107950000D01*
X183388000Y-107950000D02*
X183007000Y-108331000D01*
X183007000Y-108331000D02*
X183007000Y-109220000D01*
X183007000Y-109220000D02*
X180721000Y-109220000D01*
D20*
%TO.N,/STROBE_3*%
X171323000Y-97974966D02*
X171294017Y-97945983D01*
X171340803Y-108611705D02*
X171323000Y-108593902D01*
X171323000Y-108593902D02*
X171323000Y-97974966D01*
D19*
%TO.N,+5V*%
X194770000Y-79629000D02*
X193693000Y-80706000D01*
X193693000Y-80706000D02*
X192217000Y-80706000D01*
X192217000Y-80706000D02*
X191897000Y-81026000D01*
X191897000Y-81026000D02*
X191262000Y-81661000D01*
X188976000Y-88900000D02*
X181356000Y-88900000D01*
X191262000Y-81661000D02*
X191262000Y-85344000D01*
X191262000Y-85344000D02*
X191262000Y-86614000D01*
X191262000Y-86614000D02*
X189103000Y-88773000D01*
X189103000Y-88773000D02*
X188976000Y-88900000D01*
%TO.N,+3.3V*%
X181356000Y-86233000D02*
X188231000Y-86233000D01*
X188231000Y-86233000D02*
X190881000Y-83583000D01*
X190881000Y-83583000D02*
X190881000Y-79756000D01*
X190881000Y-79756000D02*
X193548000Y-77089000D01*
X193548000Y-77089000D02*
X194770000Y-77089000D01*
X183642000Y-115570000D02*
X181610000Y-115570000D01*
%TO.N,GND*%
X173609000Y-100330000D02*
X173609000Y-94615000D01*
X173609000Y-94615000D02*
X174244000Y-93980000D01*
X173609000Y-100330000D02*
X173609000Y-103505000D01*
X173609000Y-103505000D02*
X173609000Y-106045000D01*
X180086000Y-93980000D02*
X180721000Y-94615000D01*
X180721000Y-94615000D02*
X181356000Y-95250000D01*
X180721000Y-100330000D02*
X180721000Y-94615000D01*
X180721000Y-103505000D02*
X180721000Y-100330000D01*
X180721000Y-109220000D02*
X180721000Y-103505000D01*
X181356000Y-95250000D02*
X185420000Y-95250000D01*
X168717000Y-94173000D02*
X168717000Y-93914000D01*
X168717000Y-93914000D02*
X168717000Y-83627000D01*
X174244000Y-93980000D02*
X168783000Y-93980000D01*
X168783000Y-93980000D02*
X168717000Y-93914000D01*
X174244000Y-93980000D02*
X180086000Y-93980000D01*
D20*
%TO.N,/SEL_3*%
X181356000Y-85090000D02*
X185420000Y-85090000D01*
D19*
%TO.N,GND*%
X167640000Y-95250000D02*
X168717000Y-94173000D01*
X168717000Y-83627000D02*
X167640000Y-82550000D01*
X167640000Y-107950000D02*
X168717000Y-106873000D01*
X168717000Y-106873000D02*
X168717000Y-96327000D01*
X168717000Y-96327000D02*
X167640000Y-95250000D01*
X167640000Y-120650000D02*
X168717000Y-119573000D01*
X168717000Y-119573000D02*
X168717000Y-109027000D01*
X168717000Y-109027000D02*
X167640000Y-107950000D01*
D20*
%TO.N,Net-(R14-Pad2)*%
X183769000Y-104980000D02*
X183769000Y-105283000D01*
X183769000Y-106299000D02*
X183515000Y-106553000D01*
X183769000Y-105283000D02*
X183769000Y-106299000D01*
X187960000Y-104013000D02*
X184736000Y-104013000D01*
X183515000Y-106553000D02*
X183388000Y-106680000D01*
X183388000Y-106680000D02*
X182880000Y-106680000D01*
X188087000Y-104013000D02*
X187960000Y-104013000D01*
X188595000Y-103505000D02*
X188087000Y-104013000D01*
X184736000Y-104013000D02*
X183769000Y-104980000D01*
%TO.N,Net-(R15-Pad2)*%
X184150000Y-109220000D02*
X188087000Y-109220000D01*
X188087000Y-109220000D02*
X188214000Y-109220000D01*
D19*
%TO.N,GND*%
X204216000Y-121447000D02*
X204216000Y-108458000D01*
X204216000Y-108458000D02*
X204216000Y-105664000D01*
X201928000Y-105760000D02*
X204216000Y-108048000D01*
X204216000Y-108048000D02*
X204216000Y-108458000D01*
X204216000Y-105278000D02*
X204216000Y-105664000D01*
X204216000Y-105664000D02*
X204216000Y-103124000D01*
X201928000Y-102990000D02*
X204216000Y-105278000D01*
X201928000Y-100220000D02*
X204216000Y-102508000D01*
X204216000Y-103124000D02*
X204216000Y-99949000D01*
X204216000Y-102508000D02*
X204216000Y-103124000D01*
X204216000Y-99949000D02*
X204216000Y-97282000D01*
X201928000Y-97450000D02*
X204216000Y-99738000D01*
X204216000Y-99738000D02*
X204216000Y-99949000D01*
X204216000Y-96968000D02*
X204216000Y-97282000D01*
X204216000Y-97282000D02*
X204216000Y-94234000D01*
X201928000Y-94680000D02*
X204216000Y-96968000D01*
X204216000Y-94234000D02*
X204216000Y-91694000D01*
X201928000Y-91910000D02*
X204216000Y-94198000D01*
X204216000Y-94198000D02*
X204216000Y-94234000D01*
X204216000Y-91694000D02*
X204216000Y-89027000D01*
X201928000Y-89140000D02*
X204216000Y-91428000D01*
X204216000Y-91428000D02*
X204216000Y-91694000D01*
X204216000Y-89027000D02*
X204216000Y-81763000D01*
X201928000Y-86370000D02*
X204216000Y-88658000D01*
X204216000Y-88658000D02*
X204216000Y-89027000D01*
X200508000Y-125155000D02*
X204216000Y-121447000D01*
X204216000Y-81763000D02*
X200508000Y-78055000D01*
X194770000Y-125349000D02*
X196469000Y-125349000D01*
X197104000Y-127127000D02*
X198536000Y-127127000D01*
X196469000Y-125349000D02*
X196850000Y-125730000D01*
X196850000Y-125730000D02*
X196850000Y-126873000D01*
X196850000Y-126873000D02*
X197104000Y-127127000D01*
X198536000Y-127127000D02*
X200508000Y-125155000D01*
%TD*%
%TA.AperFunction,Conductor*%
%TO.N,GND*%
G36*
X172573621Y-75331502D02*
G01*
X172620114Y-75385158D01*
X172631500Y-75437500D01*
X172631500Y-77620219D01*
X172630787Y-77633607D01*
X172627251Y-77666695D01*
X172627548Y-77671848D01*
X172627548Y-77671851D01*
X172631291Y-77736763D01*
X172631500Y-77744006D01*
X172631500Y-78598134D01*
X172638255Y-78660316D01*
X172689385Y-78796705D01*
X172776739Y-78913261D01*
X172893295Y-79000615D01*
X173029684Y-79051745D01*
X173091866Y-79058500D01*
X173960826Y-79058500D01*
X173965443Y-79058585D01*
X174046673Y-79061564D01*
X174046677Y-79061564D01*
X174051837Y-79061753D01*
X174056957Y-79061097D01*
X174056959Y-79061097D01*
X174069261Y-79059521D01*
X174085271Y-79058500D01*
X174888134Y-79058500D01*
X174950316Y-79051745D01*
X175086705Y-79000615D01*
X175184436Y-78927370D01*
X175250941Y-78902522D01*
X175320324Y-78917575D01*
X175335562Y-78927368D01*
X175433295Y-79000615D01*
X175569684Y-79051745D01*
X175631866Y-79058500D01*
X177428134Y-79058500D01*
X177490316Y-79051745D01*
X177626705Y-79000615D01*
X177724436Y-78927370D01*
X177790941Y-78902522D01*
X177860324Y-78917575D01*
X177875562Y-78927368D01*
X177973295Y-79000615D01*
X178109684Y-79051745D01*
X178171866Y-79058500D01*
X179040826Y-79058500D01*
X179045443Y-79058585D01*
X179126673Y-79061564D01*
X179126677Y-79061564D01*
X179131837Y-79061753D01*
X179136957Y-79061097D01*
X179136959Y-79061097D01*
X179149261Y-79059521D01*
X179165271Y-79058500D01*
X179968134Y-79058500D01*
X180030316Y-79051745D01*
X180166705Y-79000615D01*
X180283261Y-78913261D01*
X180370615Y-78796705D01*
X180421745Y-78660316D01*
X180428500Y-78598134D01*
X180428500Y-77797856D01*
X180429578Y-77781409D01*
X180431092Y-77769908D01*
X180431529Y-77766590D01*
X180433156Y-77700000D01*
X180428924Y-77648524D01*
X180428500Y-77638200D01*
X180428500Y-75437500D01*
X180448502Y-75369379D01*
X180502158Y-75322886D01*
X180554500Y-75311500D01*
X200211673Y-75311500D01*
X200279794Y-75331502D01*
X200326287Y-75385158D01*
X200336391Y-75455432D01*
X200306897Y-75520012D01*
X200247171Y-75558396D01*
X200227465Y-75562506D01*
X200041050Y-75586055D01*
X200033279Y-75587538D01*
X199735296Y-75664047D01*
X199727770Y-75666492D01*
X199441707Y-75779753D01*
X199434572Y-75783110D01*
X199164961Y-75931330D01*
X199158281Y-75935570D01*
X198935177Y-76097664D01*
X198926754Y-76108587D01*
X198933658Y-76121448D01*
X200495188Y-77682978D01*
X200509132Y-77690592D01*
X200510965Y-77690461D01*
X200517580Y-77686210D01*
X202082666Y-76121124D01*
X202089279Y-76109013D01*
X202080452Y-76097395D01*
X201857719Y-75935570D01*
X201851039Y-75931330D01*
X201581428Y-75783110D01*
X201574293Y-75779753D01*
X201288230Y-75666492D01*
X201280704Y-75664047D01*
X200982721Y-75587538D01*
X200974950Y-75586055D01*
X200788535Y-75562506D01*
X200723459Y-75534125D01*
X200684057Y-75475065D01*
X200682840Y-75404079D01*
X200720195Y-75343704D01*
X200784261Y-75313108D01*
X200804327Y-75311500D01*
X209169500Y-75311500D01*
X209237621Y-75331502D01*
X209284114Y-75385158D01*
X209295500Y-75437500D01*
X209295500Y-127762500D01*
X209275498Y-127830621D01*
X209221842Y-127877114D01*
X209169500Y-127888500D01*
X200883486Y-127888500D01*
X200815365Y-127868498D01*
X200768872Y-127814842D01*
X200758768Y-127744568D01*
X200788262Y-127679988D01*
X200847988Y-127641604D01*
X200867694Y-127637494D01*
X200974950Y-127623945D01*
X200982721Y-127622462D01*
X201280704Y-127545953D01*
X201288230Y-127543508D01*
X201574293Y-127430247D01*
X201581428Y-127426890D01*
X201851039Y-127278670D01*
X201857719Y-127274430D01*
X202080823Y-127112336D01*
X202089246Y-127101413D01*
X202082342Y-127088552D01*
X200520812Y-125527022D01*
X200506868Y-125519408D01*
X200505035Y-125519539D01*
X200498420Y-125523790D01*
X198933334Y-127088876D01*
X198926721Y-127100987D01*
X198935548Y-127112605D01*
X199158281Y-127274430D01*
X199164961Y-127278670D01*
X199434572Y-127426890D01*
X199441707Y-127430247D01*
X199727770Y-127543508D01*
X199735296Y-127545953D01*
X200033279Y-127622462D01*
X200041050Y-127623945D01*
X200148306Y-127637494D01*
X200213382Y-127665875D01*
X200252784Y-127724935D01*
X200254001Y-127795921D01*
X200216646Y-127856296D01*
X200152580Y-127886892D01*
X200132514Y-127888500D01*
X186933481Y-127888500D01*
X186865360Y-127868498D01*
X186849191Y-127856155D01*
X186725998Y-127745281D01*
X186240302Y-127308155D01*
X186203049Y-127247717D01*
X186204385Y-127176733D01*
X186243886Y-127117740D01*
X186309010Y-127089467D01*
X186324592Y-127088500D01*
X188118134Y-127088500D01*
X188180316Y-127081745D01*
X188316705Y-127030615D01*
X188433261Y-126943261D01*
X188520615Y-126826705D01*
X188571745Y-126690316D01*
X188578500Y-126628134D01*
X188578500Y-125616966D01*
X193438257Y-125616966D01*
X193468565Y-125751446D01*
X193471645Y-125761275D01*
X193551770Y-125958603D01*
X193556413Y-125967794D01*
X193667694Y-126149388D01*
X193673777Y-126157699D01*
X193813213Y-126318667D01*
X193820580Y-126325883D01*
X193984434Y-126461916D01*
X193992881Y-126467831D01*
X194176756Y-126575279D01*
X194186042Y-126579729D01*
X194385001Y-126655703D01*
X194394899Y-126658579D01*
X194498250Y-126679606D01*
X194512299Y-126678410D01*
X194516000Y-126668065D01*
X194516000Y-126667517D01*
X195024000Y-126667517D01*
X195028064Y-126681359D01*
X195041478Y-126683393D01*
X195048184Y-126682534D01*
X195058262Y-126680392D01*
X195262255Y-126619191D01*
X195271842Y-126615433D01*
X195463095Y-126521739D01*
X195471945Y-126516464D01*
X195645328Y-126392792D01*
X195653200Y-126386139D01*
X195804052Y-126235812D01*
X195810730Y-126227965D01*
X195935003Y-126055020D01*
X195940313Y-126046183D01*
X196034670Y-125855267D01*
X196038469Y-125845672D01*
X196100377Y-125641910D01*
X196102555Y-125631837D01*
X196103986Y-125620962D01*
X196101775Y-125606778D01*
X196088617Y-125603000D01*
X195042115Y-125603000D01*
X195026876Y-125607475D01*
X195025671Y-125608865D01*
X195024000Y-125616548D01*
X195024000Y-126667517D01*
X194516000Y-126667517D01*
X194516000Y-125621115D01*
X194511525Y-125605876D01*
X194510135Y-125604671D01*
X194502452Y-125603000D01*
X193453225Y-125603000D01*
X193439694Y-125606973D01*
X193438257Y-125616966D01*
X188578500Y-125616966D01*
X188578500Y-125158958D01*
X197995290Y-125158958D01*
X198014607Y-125465994D01*
X198015600Y-125473855D01*
X198073246Y-125776046D01*
X198075217Y-125783723D01*
X198170284Y-126076309D01*
X198173199Y-126083672D01*
X198304189Y-126362041D01*
X198308001Y-126368974D01*
X198472851Y-126628736D01*
X198477495Y-126635129D01*
X198552497Y-126725790D01*
X198565014Y-126734245D01*
X198575752Y-126728038D01*
X200135978Y-125167812D01*
X200142356Y-125156132D01*
X200872408Y-125156132D01*
X200872539Y-125157965D01*
X200876790Y-125164580D01*
X202439145Y-126726935D01*
X202452407Y-126734177D01*
X202462512Y-126726988D01*
X202538505Y-126635129D01*
X202543149Y-126628736D01*
X202707999Y-126368974D01*
X202711811Y-126362041D01*
X202842801Y-126083672D01*
X202845716Y-126076309D01*
X202940783Y-125783723D01*
X202942754Y-125776046D01*
X203000400Y-125473855D01*
X203001393Y-125465994D01*
X203020710Y-125158958D01*
X203020710Y-125151042D01*
X203001393Y-124844006D01*
X203000400Y-124836145D01*
X202942754Y-124533954D01*
X202940783Y-124526277D01*
X202845716Y-124233691D01*
X202842801Y-124226328D01*
X202711811Y-123947959D01*
X202707999Y-123941026D01*
X202543149Y-123681264D01*
X202538505Y-123674871D01*
X202463503Y-123584210D01*
X202450986Y-123575755D01*
X202440248Y-123581962D01*
X200880022Y-125142188D01*
X200872408Y-125156132D01*
X200142356Y-125156132D01*
X200143592Y-125153868D01*
X200143461Y-125152035D01*
X200139210Y-125145420D01*
X198576855Y-123583065D01*
X198563593Y-123575823D01*
X198553488Y-123583012D01*
X198477495Y-123674871D01*
X198472851Y-123681264D01*
X198308001Y-123941026D01*
X198304189Y-123947959D01*
X198173199Y-124226328D01*
X198170284Y-124233691D01*
X198075217Y-124526277D01*
X198073246Y-124533954D01*
X198015600Y-124836145D01*
X198014607Y-124844006D01*
X197995290Y-125151042D01*
X197995290Y-125158958D01*
X188578500Y-125158958D01*
X188578500Y-124831866D01*
X188571745Y-124769684D01*
X188520615Y-124633295D01*
X188447370Y-124535564D01*
X188422522Y-124469059D01*
X188437575Y-124399676D01*
X188447370Y-124384435D01*
X188485358Y-124333748D01*
X188520615Y-124286705D01*
X188571745Y-124150316D01*
X188578500Y-124088134D01*
X188578500Y-122291866D01*
X188571745Y-122229684D01*
X188520615Y-122093295D01*
X188447058Y-121995148D01*
X188422210Y-121928642D01*
X188437263Y-121859259D01*
X188447058Y-121844018D01*
X188514786Y-121753649D01*
X188523324Y-121738054D01*
X188568478Y-121617606D01*
X188572105Y-121602351D01*
X188577631Y-121551486D01*
X188578000Y-121544672D01*
X188578000Y-120922115D01*
X188573525Y-120906876D01*
X188572135Y-120905671D01*
X188564452Y-120904000D01*
X184080116Y-120904000D01*
X184064877Y-120908475D01*
X184063672Y-120909865D01*
X184062001Y-120917548D01*
X184062001Y-121544669D01*
X184062371Y-121551490D01*
X184067895Y-121602352D01*
X184071521Y-121617604D01*
X184116676Y-121738054D01*
X184125214Y-121753649D01*
X184192942Y-121844018D01*
X184217790Y-121910525D01*
X184202737Y-121979907D01*
X184192942Y-121995148D01*
X184119385Y-122093295D01*
X184068255Y-122229684D01*
X184061500Y-122291866D01*
X184061500Y-123110219D01*
X184060787Y-123123607D01*
X184057251Y-123156695D01*
X184057548Y-123161848D01*
X184057548Y-123161851D01*
X184061291Y-123226763D01*
X184061500Y-123234016D01*
X184061500Y-124088134D01*
X184068255Y-124150316D01*
X184119385Y-124286705D01*
X184154642Y-124333748D01*
X184192630Y-124384435D01*
X184217478Y-124450941D01*
X184202425Y-124520324D01*
X184192632Y-124535562D01*
X184119385Y-124633295D01*
X184068255Y-124769684D01*
X184061500Y-124831866D01*
X184061500Y-125650219D01*
X184060787Y-125663607D01*
X184057251Y-125696695D01*
X184057548Y-125701848D01*
X184057548Y-125701851D01*
X184061291Y-125766763D01*
X184061500Y-125774016D01*
X184061500Y-126619500D01*
X184041498Y-126687621D01*
X183987842Y-126734114D01*
X183935500Y-126745500D01*
X180405949Y-126745500D01*
X180337828Y-126725498D01*
X180291335Y-126671842D01*
X180281231Y-126601568D01*
X180310725Y-126536988D01*
X180317010Y-126530249D01*
X180327637Y-126519660D01*
X180327647Y-126519648D01*
X180331303Y-126516005D01*
X180466458Y-126327917D01*
X180513641Y-126232450D01*
X180566784Y-126124922D01*
X180566785Y-126124920D01*
X180569078Y-126120280D01*
X180636408Y-125898671D01*
X180666640Y-125669041D01*
X180667815Y-125620962D01*
X180668245Y-125603365D01*
X180668245Y-125603361D01*
X180668327Y-125600000D01*
X180657310Y-125465994D01*
X180649773Y-125374318D01*
X180649772Y-125374312D01*
X180649349Y-125369167D01*
X180621137Y-125256850D01*
X180594184Y-125149544D01*
X180594183Y-125149540D01*
X180592925Y-125144533D01*
X180590866Y-125139797D01*
X180502630Y-124936868D01*
X180502628Y-124936865D01*
X180500570Y-124932131D01*
X180374764Y-124737665D01*
X180218887Y-124566358D01*
X180214836Y-124563159D01*
X180214832Y-124563155D01*
X180041177Y-124426011D01*
X180041172Y-124426008D01*
X180037123Y-124422810D01*
X180032607Y-124420317D01*
X180032604Y-124420315D01*
X179838879Y-124313373D01*
X179838875Y-124313371D01*
X179834355Y-124310876D01*
X179829486Y-124309152D01*
X179829482Y-124309150D01*
X179620903Y-124235288D01*
X179620899Y-124235287D01*
X179616028Y-124233562D01*
X179610935Y-124232655D01*
X179610932Y-124232654D01*
X179393095Y-124193851D01*
X179393089Y-124193850D01*
X179388006Y-124192945D01*
X179315096Y-124192054D01*
X179161581Y-124190179D01*
X179161579Y-124190179D01*
X179156411Y-124190116D01*
X178927464Y-124225150D01*
X178707314Y-124297106D01*
X178702726Y-124299494D01*
X178702722Y-124299496D01*
X178676065Y-124313373D01*
X178501872Y-124404052D01*
X178497739Y-124407155D01*
X178497736Y-124407157D01*
X178326713Y-124535565D01*
X178316655Y-124543117D01*
X178156639Y-124710564D01*
X178153725Y-124714836D01*
X178153724Y-124714837D01*
X178138152Y-124737665D01*
X178026119Y-124901899D01*
X177928602Y-125111981D01*
X177866707Y-125335169D01*
X177842095Y-125565469D01*
X177842392Y-125570622D01*
X177842392Y-125570625D01*
X177848018Y-125668200D01*
X177855427Y-125796697D01*
X177856564Y-125801743D01*
X177856565Y-125801749D01*
X177888741Y-125944523D01*
X177906346Y-126022642D01*
X177908288Y-126027424D01*
X177908289Y-126027428D01*
X177957812Y-126149388D01*
X177993484Y-126237237D01*
X178114501Y-126434719D01*
X178117882Y-126438622D01*
X178203102Y-126537003D01*
X178232584Y-126601588D01*
X178222469Y-126671861D01*
X178175968Y-126725509D01*
X178107864Y-126745500D01*
X174955949Y-126745500D01*
X174887828Y-126725498D01*
X174841335Y-126671842D01*
X174831231Y-126601568D01*
X174860725Y-126536988D01*
X174867010Y-126530249D01*
X174877637Y-126519660D01*
X174877647Y-126519648D01*
X174881303Y-126516005D01*
X175016458Y-126327917D01*
X175063641Y-126232450D01*
X175116784Y-126124922D01*
X175116785Y-126124920D01*
X175119078Y-126120280D01*
X175186408Y-125898671D01*
X175216640Y-125669041D01*
X175217815Y-125620962D01*
X175218245Y-125603365D01*
X175218245Y-125603361D01*
X175218327Y-125600000D01*
X175207310Y-125465994D01*
X175199773Y-125374318D01*
X175199772Y-125374312D01*
X175199349Y-125369167D01*
X175171137Y-125256850D01*
X175144184Y-125149544D01*
X175144183Y-125149540D01*
X175142925Y-125144533D01*
X175140866Y-125139797D01*
X175052630Y-124936868D01*
X175052628Y-124936865D01*
X175050570Y-124932131D01*
X174924764Y-124737665D01*
X174768887Y-124566358D01*
X174764836Y-124563159D01*
X174764832Y-124563155D01*
X174591177Y-124426011D01*
X174591172Y-124426008D01*
X174587123Y-124422810D01*
X174582607Y-124420317D01*
X174582604Y-124420315D01*
X174388879Y-124313373D01*
X174388875Y-124313371D01*
X174384355Y-124310876D01*
X174379486Y-124309152D01*
X174379482Y-124309150D01*
X174170903Y-124235288D01*
X174170899Y-124235287D01*
X174166028Y-124233562D01*
X174160935Y-124232655D01*
X174160932Y-124232654D01*
X173943095Y-124193851D01*
X173943089Y-124193850D01*
X173938006Y-124192945D01*
X173865096Y-124192054D01*
X173711581Y-124190179D01*
X173711579Y-124190179D01*
X173706411Y-124190116D01*
X173477464Y-124225150D01*
X173257314Y-124297106D01*
X173252726Y-124299494D01*
X173252722Y-124299496D01*
X173226065Y-124313373D01*
X173051872Y-124404052D01*
X173047739Y-124407155D01*
X173047736Y-124407157D01*
X172876713Y-124535565D01*
X172866655Y-124543117D01*
X172706639Y-124710564D01*
X172703725Y-124714836D01*
X172703724Y-124714837D01*
X172688152Y-124737665D01*
X172576119Y-124901899D01*
X172478602Y-125111981D01*
X172416707Y-125335169D01*
X172392095Y-125565469D01*
X172392392Y-125570622D01*
X172392392Y-125570625D01*
X172398018Y-125668200D01*
X172405427Y-125796697D01*
X172406564Y-125801743D01*
X172406565Y-125801749D01*
X172438741Y-125944523D01*
X172456346Y-126022642D01*
X172458288Y-126027424D01*
X172458289Y-126027428D01*
X172507812Y-126149388D01*
X172543484Y-126237237D01*
X172664501Y-126434719D01*
X172667882Y-126438622D01*
X172753102Y-126537003D01*
X172782584Y-126601588D01*
X172772469Y-126671861D01*
X172725968Y-126725509D01*
X172657864Y-126745500D01*
X169124500Y-126745500D01*
X169056379Y-126725498D01*
X169009886Y-126671842D01*
X168998500Y-126619500D01*
X168998500Y-125827856D01*
X168999578Y-125811409D01*
X169001092Y-125799908D01*
X169001529Y-125796590D01*
X169001653Y-125791529D01*
X169003074Y-125733365D01*
X169003074Y-125733361D01*
X169003156Y-125730000D01*
X168998924Y-125678524D01*
X168998500Y-125668200D01*
X168998500Y-124831866D01*
X168991745Y-124769684D01*
X168940615Y-124633295D01*
X168867370Y-124535564D01*
X168842522Y-124469059D01*
X168857575Y-124399676D01*
X168867370Y-124384435D01*
X168905358Y-124333748D01*
X168940615Y-124286705D01*
X168991745Y-124150316D01*
X168998500Y-124088134D01*
X168998500Y-123287856D01*
X168999578Y-123271409D01*
X169001092Y-123259908D01*
X169001529Y-123256590D01*
X169002505Y-123216639D01*
X169003074Y-123193365D01*
X169003074Y-123193361D01*
X169003156Y-123190000D01*
X168998924Y-123138524D01*
X168998500Y-123128200D01*
X168998500Y-122570000D01*
X172841693Y-122570000D01*
X172860885Y-122789371D01*
X172917880Y-123002076D01*
X172959784Y-123091939D01*
X173008618Y-123196666D01*
X173008621Y-123196671D01*
X173010944Y-123201653D01*
X173014100Y-123206160D01*
X173014101Y-123206162D01*
X173090628Y-123315453D01*
X173137251Y-123382038D01*
X173292962Y-123537749D01*
X173297471Y-123540906D01*
X173297473Y-123540908D01*
X173359315Y-123584210D01*
X173473346Y-123664056D01*
X173672924Y-123757120D01*
X173885629Y-123814115D01*
X174105000Y-123833307D01*
X174324371Y-123814115D01*
X174537076Y-123757120D01*
X174736654Y-123664056D01*
X174850685Y-123584210D01*
X174912527Y-123540908D01*
X174912529Y-123540906D01*
X174917038Y-123537749D01*
X175072749Y-123382038D01*
X175119373Y-123315453D01*
X175195899Y-123206162D01*
X175195900Y-123206160D01*
X175199056Y-123201653D01*
X175201379Y-123196671D01*
X175201382Y-123196666D01*
X175250216Y-123091939D01*
X175292120Y-123002076D01*
X175349115Y-122789371D01*
X175368307Y-122570000D01*
X177691693Y-122570000D01*
X177710885Y-122789371D01*
X177767880Y-123002076D01*
X177809784Y-123091939D01*
X177858618Y-123196666D01*
X177858621Y-123196671D01*
X177860944Y-123201653D01*
X177864100Y-123206160D01*
X177864101Y-123206162D01*
X177940628Y-123315453D01*
X177987251Y-123382038D01*
X178142962Y-123537749D01*
X178147471Y-123540906D01*
X178147473Y-123540908D01*
X178209315Y-123584210D01*
X178323346Y-123664056D01*
X178522924Y-123757120D01*
X178735629Y-123814115D01*
X178955000Y-123833307D01*
X179174371Y-123814115D01*
X179387076Y-123757120D01*
X179586654Y-123664056D01*
X179700685Y-123584210D01*
X179762527Y-123540908D01*
X179762529Y-123540906D01*
X179767038Y-123537749D01*
X179922749Y-123382038D01*
X179969373Y-123315453D01*
X180045899Y-123206162D01*
X180045900Y-123206160D01*
X180049056Y-123201653D01*
X180051379Y-123196671D01*
X180051382Y-123196666D01*
X180100216Y-123091939D01*
X180142120Y-123002076D01*
X180199115Y-122789371D01*
X180218307Y-122570000D01*
X180199115Y-122350629D01*
X180142120Y-122137924D01*
X180068436Y-121979907D01*
X180051382Y-121943334D01*
X180051379Y-121943329D01*
X180049056Y-121938347D01*
X180045899Y-121933838D01*
X179925908Y-121762473D01*
X179925906Y-121762470D01*
X179922749Y-121757962D01*
X179767038Y-121602251D01*
X179586654Y-121475944D01*
X179387076Y-121382880D01*
X179174371Y-121325885D01*
X178955000Y-121306693D01*
X178735629Y-121325885D01*
X178522924Y-121382880D01*
X178429562Y-121426415D01*
X178328334Y-121473618D01*
X178328329Y-121473621D01*
X178323347Y-121475944D01*
X178318840Y-121479100D01*
X178318838Y-121479101D01*
X178147473Y-121599092D01*
X178147470Y-121599094D01*
X178142962Y-121602251D01*
X177987251Y-121757962D01*
X177984094Y-121762470D01*
X177984092Y-121762473D01*
X177864101Y-121933838D01*
X177860944Y-121938347D01*
X177858621Y-121943329D01*
X177858618Y-121943334D01*
X177841564Y-121979907D01*
X177767880Y-122137924D01*
X177710885Y-122350629D01*
X177691693Y-122570000D01*
X175368307Y-122570000D01*
X175349115Y-122350629D01*
X175292120Y-122137924D01*
X175218436Y-121979907D01*
X175201382Y-121943334D01*
X175201379Y-121943329D01*
X175199056Y-121938347D01*
X175195899Y-121933838D01*
X175075908Y-121762473D01*
X175075906Y-121762470D01*
X175072749Y-121757962D01*
X174917038Y-121602251D01*
X174736654Y-121475944D01*
X174537076Y-121382880D01*
X174324371Y-121325885D01*
X174105000Y-121306693D01*
X173885629Y-121325885D01*
X173672924Y-121382880D01*
X173579562Y-121426415D01*
X173478334Y-121473618D01*
X173478329Y-121473621D01*
X173473347Y-121475944D01*
X173468840Y-121479100D01*
X173468838Y-121479101D01*
X173297473Y-121599092D01*
X173297470Y-121599094D01*
X173292962Y-121602251D01*
X173137251Y-121757962D01*
X173134094Y-121762470D01*
X173134092Y-121762473D01*
X173014101Y-121933838D01*
X173010944Y-121938347D01*
X173008621Y-121943329D01*
X173008618Y-121943334D01*
X172991564Y-121979907D01*
X172917880Y-122137924D01*
X172860885Y-122350629D01*
X172841693Y-122570000D01*
X168998500Y-122570000D01*
X168998500Y-122291866D01*
X168991745Y-122229684D01*
X168940615Y-122093295D01*
X168867058Y-121995148D01*
X168842210Y-121928642D01*
X168857263Y-121859259D01*
X168867058Y-121844018D01*
X168934786Y-121753649D01*
X168943324Y-121738054D01*
X168988478Y-121617606D01*
X168992105Y-121602351D01*
X168997631Y-121551486D01*
X168998000Y-121544672D01*
X168998000Y-120922115D01*
X168993525Y-120906876D01*
X168992135Y-120905671D01*
X168984452Y-120904000D01*
X166368000Y-120904000D01*
X166299879Y-120883998D01*
X166253386Y-120830342D01*
X166242000Y-120778000D01*
X166242000Y-120522000D01*
X166262002Y-120453879D01*
X166315658Y-120407386D01*
X166368000Y-120396000D01*
X168979884Y-120396000D01*
X168995123Y-120391525D01*
X168996328Y-120390135D01*
X168997999Y-120382452D01*
X168997999Y-119755331D01*
X168997629Y-119748510D01*
X168992105Y-119697648D01*
X168988479Y-119682396D01*
X168943324Y-119561946D01*
X168934786Y-119546351D01*
X168867058Y-119455982D01*
X168842210Y-119389475D01*
X168857263Y-119320093D01*
X168867058Y-119304852D01*
X168935229Y-119213891D01*
X168940615Y-119206705D01*
X168991745Y-119070316D01*
X168998500Y-119008134D01*
X168998500Y-118207856D01*
X168999578Y-118191409D01*
X169001092Y-118179908D01*
X169001529Y-118176590D01*
X169002616Y-118132119D01*
X169003074Y-118113365D01*
X169003074Y-118113361D01*
X169003156Y-118110000D01*
X168998924Y-118058524D01*
X168998500Y-118048200D01*
X168998500Y-117211866D01*
X168991745Y-117149684D01*
X168940615Y-117013295D01*
X168867370Y-116915564D01*
X168842522Y-116849059D01*
X168857575Y-116779676D01*
X168867370Y-116764435D01*
X168940615Y-116666705D01*
X168991745Y-116530316D01*
X168998500Y-116468134D01*
X168998500Y-115667856D01*
X168999578Y-115651409D01*
X169001092Y-115639908D01*
X169001529Y-115636590D01*
X169002227Y-115608039D01*
X169003074Y-115573365D01*
X169003074Y-115573361D01*
X169003156Y-115570000D01*
X180696496Y-115570000D01*
X180697186Y-115576565D01*
X180710752Y-115705634D01*
X180716458Y-115759928D01*
X180775473Y-115941556D01*
X180870960Y-116106944D01*
X180875378Y-116111851D01*
X180875379Y-116111852D01*
X180917859Y-116159031D01*
X180998747Y-116248866D01*
X181153248Y-116361118D01*
X181159276Y-116363802D01*
X181159278Y-116363803D01*
X181321681Y-116436109D01*
X181327712Y-116438794D01*
X181414780Y-116457301D01*
X181508056Y-116477128D01*
X181508061Y-116477128D01*
X181514513Y-116478500D01*
X181705487Y-116478500D01*
X181711939Y-116477128D01*
X181711944Y-116477128D01*
X181805220Y-116457301D01*
X181892288Y-116438794D01*
X181898319Y-116436109D01*
X182060722Y-116363803D01*
X182060724Y-116363802D01*
X182066752Y-116361118D01*
X182221253Y-116248866D01*
X182247074Y-116220189D01*
X182307520Y-116182950D01*
X182340710Y-116178500D01*
X182911290Y-116178500D01*
X182979411Y-116198502D01*
X183004926Y-116220189D01*
X183030747Y-116248866D01*
X183185248Y-116361118D01*
X183191276Y-116363802D01*
X183191278Y-116363803D01*
X183353681Y-116436109D01*
X183359712Y-116438794D01*
X183446780Y-116457301D01*
X183540056Y-116477128D01*
X183540061Y-116477128D01*
X183546513Y-116478500D01*
X183737487Y-116478500D01*
X183743939Y-116477128D01*
X183743944Y-116477128D01*
X183837220Y-116457301D01*
X183921258Y-116439438D01*
X183992047Y-116444840D01*
X184048679Y-116487657D01*
X184068170Y-116529530D01*
X184068255Y-116530316D01*
X184071027Y-116537711D01*
X184071028Y-116537714D01*
X184085196Y-116575507D01*
X184119385Y-116666705D01*
X184192630Y-116764435D01*
X184217478Y-116830941D01*
X184202425Y-116900324D01*
X184192632Y-116915562D01*
X184119385Y-117013295D01*
X184068255Y-117149684D01*
X184061500Y-117211866D01*
X184061500Y-118030219D01*
X184060787Y-118043607D01*
X184057251Y-118076695D01*
X184057548Y-118081848D01*
X184057548Y-118081851D01*
X184061291Y-118146763D01*
X184061500Y-118154016D01*
X184061500Y-119008134D01*
X184068255Y-119070316D01*
X184119385Y-119206705D01*
X184124771Y-119213891D01*
X184192942Y-119304852D01*
X184217790Y-119371358D01*
X184202737Y-119440741D01*
X184192942Y-119455982D01*
X184125214Y-119546351D01*
X184116676Y-119561946D01*
X184071522Y-119682394D01*
X184067895Y-119697649D01*
X184062369Y-119748514D01*
X184062000Y-119755328D01*
X184062000Y-120377885D01*
X184066475Y-120393124D01*
X184067865Y-120394329D01*
X184075548Y-120396000D01*
X188559884Y-120396000D01*
X188575123Y-120391525D01*
X188576328Y-120390135D01*
X188577999Y-120382452D01*
X188577999Y-119755331D01*
X188577629Y-119748510D01*
X188572105Y-119697648D01*
X188568479Y-119682396D01*
X188523324Y-119561946D01*
X188514786Y-119546351D01*
X188447058Y-119455982D01*
X188422210Y-119389475D01*
X188437263Y-119320093D01*
X188447058Y-119304852D01*
X188515229Y-119213891D01*
X188520615Y-119206705D01*
X188571745Y-119070316D01*
X188578500Y-119008134D01*
X188578500Y-117211866D01*
X188571745Y-117149684D01*
X188520615Y-117013295D01*
X188447370Y-116915564D01*
X188422522Y-116849059D01*
X188437575Y-116779676D01*
X188447370Y-116764435D01*
X188520615Y-116666705D01*
X188571745Y-116530316D01*
X188578500Y-116468134D01*
X188578500Y-116239547D01*
X188598502Y-116171426D01*
X188652158Y-116124933D01*
X188721164Y-116114654D01*
X188765063Y-116120512D01*
X188824980Y-116128507D01*
X188824984Y-116128507D01*
X188831961Y-116129438D01*
X188838972Y-116128800D01*
X188838976Y-116128800D01*
X188994404Y-116114654D01*
X189012600Y-116112998D01*
X189019302Y-116110820D01*
X189019304Y-116110820D01*
X189178409Y-116059124D01*
X189178412Y-116059123D01*
X189185108Y-116056947D01*
X189340912Y-115964069D01*
X189472266Y-115838982D01*
X189572643Y-115687902D01*
X189621477Y-115559347D01*
X189634555Y-115524920D01*
X189634556Y-115524918D01*
X189637055Y-115518338D01*
X189640561Y-115493392D01*
X189665373Y-115434224D01*
X189680953Y-115413920D01*
X189706925Y-115380072D01*
X189729641Y-115350468D01*
X189787277Y-115211322D01*
X189790263Y-115188643D01*
X189802000Y-115099492D01*
X189802000Y-115099486D01*
X189806935Y-115062000D01*
X189803078Y-115032702D01*
X189802000Y-115016256D01*
X189802000Y-99867751D01*
X189803078Y-99851304D01*
X189805858Y-99830188D01*
X189806936Y-99822000D01*
X189787277Y-99672678D01*
X189729641Y-99533532D01*
X189660976Y-99444046D01*
X189660975Y-99444045D01*
X189637955Y-99414045D01*
X189614505Y-99396051D01*
X189602114Y-99385184D01*
X188904816Y-98687886D01*
X188893949Y-98675495D01*
X188880984Y-98658598D01*
X188880981Y-98658595D01*
X188875955Y-98652045D01*
X188838045Y-98622955D01*
X188756468Y-98560359D01*
X188656281Y-98518860D01*
X188601001Y-98474313D01*
X188578500Y-98402452D01*
X188578500Y-96891866D01*
X188571745Y-96829684D01*
X188520615Y-96693295D01*
X188447058Y-96595148D01*
X188422210Y-96528642D01*
X188437263Y-96459259D01*
X188447058Y-96444018D01*
X188514786Y-96353649D01*
X188523324Y-96338054D01*
X188568478Y-96217606D01*
X188572105Y-96202351D01*
X188577631Y-96151486D01*
X188578000Y-96144672D01*
X188578000Y-95522115D01*
X188573525Y-95506876D01*
X188572135Y-95505671D01*
X188564452Y-95504000D01*
X184080116Y-95504000D01*
X184064877Y-95508475D01*
X184063672Y-95509865D01*
X184062001Y-95517548D01*
X184062001Y-96144669D01*
X184062371Y-96151490D01*
X184067895Y-96202352D01*
X184071521Y-96217604D01*
X184116676Y-96338054D01*
X184125214Y-96353649D01*
X184192942Y-96444018D01*
X184217790Y-96510525D01*
X184202737Y-96579907D01*
X184192942Y-96595148D01*
X184119385Y-96693295D01*
X184068255Y-96829684D01*
X184061500Y-96891866D01*
X184061500Y-97309107D01*
X184041498Y-97377228D01*
X183987842Y-97423721D01*
X183917568Y-97433825D01*
X183852988Y-97404331D01*
X183828646Y-97375876D01*
X183825326Y-97370562D01*
X183781676Y-97300707D01*
X183775359Y-97290598D01*
X183771626Y-97284624D01*
X183757941Y-97270843D01*
X183648778Y-97160915D01*
X183648774Y-97160912D01*
X183643815Y-97155918D01*
X183636613Y-97151347D01*
X183584538Y-97118300D01*
X183490666Y-97058727D01*
X183461463Y-97048328D01*
X183326425Y-97000243D01*
X183326420Y-97000242D01*
X183319790Y-96997881D01*
X183312802Y-96997048D01*
X183312799Y-96997047D01*
X183189698Y-96982368D01*
X183139680Y-96976404D01*
X183132677Y-96977140D01*
X183132676Y-96977140D01*
X182966288Y-96994628D01*
X182966286Y-96994629D01*
X182959288Y-96995364D01*
X182787579Y-97053818D01*
X182754194Y-97074357D01*
X182639095Y-97145166D01*
X182639092Y-97145168D01*
X182633088Y-97148862D01*
X182628053Y-97153793D01*
X182628050Y-97153795D01*
X182594795Y-97186361D01*
X182503493Y-97275771D01*
X182405235Y-97428238D01*
X182402826Y-97434858D01*
X182402824Y-97434861D01*
X182346051Y-97590844D01*
X182343197Y-97598685D01*
X182320463Y-97778640D01*
X182338163Y-97959160D01*
X182395418Y-98131273D01*
X182399065Y-98137295D01*
X182399066Y-98137297D01*
X182423869Y-98178251D01*
X182489380Y-98286424D01*
X182615382Y-98416902D01*
X182767159Y-98516222D01*
X182773763Y-98518678D01*
X182773765Y-98518679D01*
X182930558Y-98576990D01*
X182930560Y-98576990D01*
X182937168Y-98579448D01*
X182944153Y-98580380D01*
X182944157Y-98580381D01*
X183072229Y-98597469D01*
X183099552Y-98601115D01*
X183164429Y-98629951D01*
X183171983Y-98636913D01*
X183967180Y-99432110D01*
X183978047Y-99444500D01*
X183996045Y-99467955D01*
X184012204Y-99480354D01*
X184054071Y-99537690D01*
X184061500Y-99580316D01*
X184061500Y-100250219D01*
X184060787Y-100263607D01*
X184057251Y-100296695D01*
X184057548Y-100301848D01*
X184057548Y-100301851D01*
X184061291Y-100366763D01*
X184061500Y-100374016D01*
X184061500Y-101228134D01*
X184068255Y-101290316D01*
X184119385Y-101426705D01*
X184192630Y-101524435D01*
X184217478Y-101590941D01*
X184202425Y-101660324D01*
X184192632Y-101675562D01*
X184119385Y-101773295D01*
X184068255Y-101909684D01*
X184061500Y-101971866D01*
X184061500Y-102790219D01*
X184060787Y-102803607D01*
X184057251Y-102836695D01*
X184057548Y-102841848D01*
X184057548Y-102841851D01*
X184061291Y-102906763D01*
X184061500Y-102914016D01*
X184061500Y-103768134D01*
X184061869Y-103771531D01*
X184065802Y-103807733D01*
X184053274Y-103877615D01*
X184029634Y-103910436D01*
X183396886Y-104543184D01*
X183384495Y-104554051D01*
X183361045Y-104572045D01*
X183338025Y-104602045D01*
X183338024Y-104602046D01*
X183304682Y-104645499D01*
X183304681Y-104645500D01*
X183282860Y-104673938D01*
X183269359Y-104691532D01*
X183211723Y-104830678D01*
X183197000Y-104942508D01*
X183197000Y-104942514D01*
X183192065Y-104980000D01*
X183193143Y-104988188D01*
X183193143Y-104988189D01*
X183195922Y-105009298D01*
X183197000Y-105025744D01*
X183197000Y-105761609D01*
X183176998Y-105829730D01*
X183123342Y-105876223D01*
X183056081Y-105886723D01*
X182946345Y-105873638D01*
X182885680Y-105866404D01*
X182878677Y-105867140D01*
X182878676Y-105867140D01*
X182712288Y-105884628D01*
X182712286Y-105884629D01*
X182705288Y-105885364D01*
X182533579Y-105943818D01*
X182527575Y-105947512D01*
X182385095Y-106035166D01*
X182385092Y-106035168D01*
X182379088Y-106038862D01*
X182374053Y-106043793D01*
X182374050Y-106043795D01*
X182273433Y-106142327D01*
X182249493Y-106165771D01*
X182151235Y-106318238D01*
X182148826Y-106324858D01*
X182148824Y-106324861D01*
X182091606Y-106482066D01*
X182089197Y-106488685D01*
X182066463Y-106668640D01*
X182084163Y-106849160D01*
X182141418Y-107021273D01*
X182145065Y-107027295D01*
X182145066Y-107027297D01*
X182200676Y-107119120D01*
X182235380Y-107176424D01*
X182361382Y-107306902D01*
X182367278Y-107310760D01*
X182470646Y-107378402D01*
X182513159Y-107406222D01*
X182519763Y-107408678D01*
X182519765Y-107408679D01*
X182676558Y-107466990D01*
X182676560Y-107466990D01*
X182683168Y-107469448D01*
X182766995Y-107480633D01*
X182855980Y-107492507D01*
X182855984Y-107492507D01*
X182862961Y-107493438D01*
X182869972Y-107492800D01*
X182869976Y-107492800D01*
X183012459Y-107479832D01*
X183043600Y-107476998D01*
X183050302Y-107474820D01*
X183050304Y-107474820D01*
X183209409Y-107423124D01*
X183209412Y-107423123D01*
X183216108Y-107420947D01*
X183341227Y-107346361D01*
X183365860Y-107331677D01*
X183365862Y-107331676D01*
X183371912Y-107328069D01*
X183426277Y-107276298D01*
X183489402Y-107243806D01*
X183496719Y-107242623D01*
X183537322Y-107237277D01*
X183676468Y-107179641D01*
X183741246Y-107129935D01*
X183765954Y-107110976D01*
X183765955Y-107110975D01*
X183795955Y-107087955D01*
X183813949Y-107064505D01*
X183824816Y-107052114D01*
X183846905Y-107030025D01*
X183909217Y-106995999D01*
X183980032Y-107001064D01*
X184036868Y-107043611D01*
X184061679Y-107110131D01*
X184062000Y-107119120D01*
X184062000Y-107677885D01*
X184066475Y-107693124D01*
X184067865Y-107694329D01*
X184075548Y-107696000D01*
X186692000Y-107696000D01*
X186760121Y-107716002D01*
X186806614Y-107769658D01*
X186818000Y-107822000D01*
X186818000Y-108078000D01*
X186797998Y-108146121D01*
X186744342Y-108192614D01*
X186692000Y-108204000D01*
X184080116Y-108204000D01*
X184064877Y-108208475D01*
X184063672Y-108209865D01*
X184062001Y-108217548D01*
X184062001Y-108305796D01*
X184041999Y-108373917D01*
X183988343Y-108420410D01*
X183975107Y-108424832D01*
X183975288Y-108425364D01*
X183803579Y-108483818D01*
X183797575Y-108487512D01*
X183655095Y-108575166D01*
X183655092Y-108575168D01*
X183649088Y-108578862D01*
X183644053Y-108583793D01*
X183644050Y-108583795D01*
X183574701Y-108651707D01*
X183519493Y-108705771D01*
X183421235Y-108858238D01*
X183418826Y-108864858D01*
X183418824Y-108864861D01*
X183375604Y-108983607D01*
X183359197Y-109028685D01*
X183336463Y-109208640D01*
X183354163Y-109389160D01*
X183411418Y-109561273D01*
X183415065Y-109567295D01*
X183415066Y-109567297D01*
X183487508Y-109686913D01*
X183505380Y-109716424D01*
X183631382Y-109846902D01*
X183783159Y-109946222D01*
X183789763Y-109948678D01*
X183789765Y-109948679D01*
X183891468Y-109986502D01*
X183953168Y-110009448D01*
X183960155Y-110010380D01*
X183965985Y-110011834D01*
X184027242Y-110047724D01*
X184059372Y-110111034D01*
X184061500Y-110134091D01*
X184061500Y-110410219D01*
X184060787Y-110423607D01*
X184057251Y-110456695D01*
X184057548Y-110461848D01*
X184057548Y-110461851D01*
X184061291Y-110526763D01*
X184061500Y-110534016D01*
X184061500Y-111388134D01*
X184068255Y-111450316D01*
X184119385Y-111586705D01*
X184188408Y-111678802D01*
X184192630Y-111684435D01*
X184217478Y-111750941D01*
X184202425Y-111820324D01*
X184192632Y-111835562D01*
X184119385Y-111933295D01*
X184068255Y-112069684D01*
X184061500Y-112131866D01*
X184061500Y-112950219D01*
X184060787Y-112963607D01*
X184057251Y-112996695D01*
X184057548Y-113001848D01*
X184057548Y-113001851D01*
X184061291Y-113066763D01*
X184061500Y-113074016D01*
X184061500Y-113928134D01*
X184068255Y-113990316D01*
X184119385Y-114126705D01*
X184192630Y-114224435D01*
X184217478Y-114290941D01*
X184202425Y-114360324D01*
X184192632Y-114375562D01*
X184119385Y-114473295D01*
X184116233Y-114481703D01*
X184071029Y-114602285D01*
X184068255Y-114609684D01*
X184068205Y-114609665D01*
X184034820Y-114668106D01*
X183971865Y-114700928D01*
X183921258Y-114700562D01*
X183802331Y-114675283D01*
X183743944Y-114662872D01*
X183743939Y-114662872D01*
X183737487Y-114661500D01*
X183546513Y-114661500D01*
X183540061Y-114662872D01*
X183540056Y-114662872D01*
X183481669Y-114675283D01*
X183359712Y-114701206D01*
X183353682Y-114703891D01*
X183353681Y-114703891D01*
X183191278Y-114776197D01*
X183191276Y-114776198D01*
X183185248Y-114778882D01*
X183179907Y-114782762D01*
X183179906Y-114782763D01*
X183158589Y-114798251D01*
X183030747Y-114891134D01*
X183026334Y-114896036D01*
X183026332Y-114896037D01*
X183004926Y-114919811D01*
X182944480Y-114957050D01*
X182911290Y-114961500D01*
X182340710Y-114961500D01*
X182272589Y-114941498D01*
X182247074Y-114919811D01*
X182225668Y-114896037D01*
X182225666Y-114896036D01*
X182221253Y-114891134D01*
X182093411Y-114798251D01*
X182072094Y-114782763D01*
X182072093Y-114782762D01*
X182066752Y-114778882D01*
X182060724Y-114776198D01*
X182060722Y-114776197D01*
X181898319Y-114703891D01*
X181898318Y-114703891D01*
X181892288Y-114701206D01*
X181770331Y-114675283D01*
X181711944Y-114662872D01*
X181711939Y-114662872D01*
X181705487Y-114661500D01*
X181514513Y-114661500D01*
X181508061Y-114662872D01*
X181508056Y-114662872D01*
X181449669Y-114675283D01*
X181327712Y-114701206D01*
X181321682Y-114703891D01*
X181321681Y-114703891D01*
X181159278Y-114776197D01*
X181159276Y-114776198D01*
X181153248Y-114778882D01*
X181147907Y-114782762D01*
X181147906Y-114782763D01*
X181126589Y-114798251D01*
X180998747Y-114891134D01*
X180994326Y-114896044D01*
X180994325Y-114896045D01*
X180935532Y-114961342D01*
X180870960Y-115033056D01*
X180867659Y-115038774D01*
X180780926Y-115189000D01*
X180775473Y-115198444D01*
X180716458Y-115380072D01*
X180715768Y-115386633D01*
X180715768Y-115386635D01*
X180706387Y-115475894D01*
X180696496Y-115570000D01*
X169003156Y-115570000D01*
X168998924Y-115518524D01*
X168998500Y-115508200D01*
X168998500Y-114671866D01*
X168991745Y-114609684D01*
X168940615Y-114473295D01*
X168867370Y-114375564D01*
X168842522Y-114309059D01*
X168857575Y-114239676D01*
X168867370Y-114224435D01*
X168940615Y-114126705D01*
X168991745Y-113990316D01*
X168998500Y-113928134D01*
X168998500Y-113127856D01*
X168999578Y-113111409D01*
X169001092Y-113099908D01*
X169001529Y-113096590D01*
X169002505Y-113056639D01*
X169003074Y-113033365D01*
X169003074Y-113033361D01*
X169003156Y-113030000D01*
X168998924Y-112978524D01*
X168998500Y-112968200D01*
X168998500Y-112131866D01*
X168991745Y-112069684D01*
X168940615Y-111933295D01*
X168867370Y-111835564D01*
X168842522Y-111769059D01*
X168857575Y-111699676D01*
X168867370Y-111684435D01*
X168871592Y-111678802D01*
X168940615Y-111586705D01*
X168991745Y-111450316D01*
X168998500Y-111388134D01*
X168998500Y-110587856D01*
X168999578Y-110571409D01*
X169001092Y-110559908D01*
X169001529Y-110556590D01*
X169002505Y-110516639D01*
X169003074Y-110493365D01*
X169003074Y-110493361D01*
X169003156Y-110490000D01*
X168998924Y-110438524D01*
X168998500Y-110428200D01*
X168998500Y-109591866D01*
X168991745Y-109529684D01*
X168940615Y-109393295D01*
X168867058Y-109295148D01*
X168842210Y-109228642D01*
X168857263Y-109159259D01*
X168867058Y-109144018D01*
X168934786Y-109053649D01*
X168943324Y-109038054D01*
X168988478Y-108917606D01*
X168992105Y-108902351D01*
X168997631Y-108851486D01*
X168998000Y-108844672D01*
X168998000Y-108222115D01*
X168993525Y-108206876D01*
X168992135Y-108205671D01*
X168984452Y-108204000D01*
X166368000Y-108204000D01*
X166299879Y-108183998D01*
X166253386Y-108130342D01*
X166242000Y-108078000D01*
X166242000Y-107822000D01*
X166262002Y-107753879D01*
X166315658Y-107707386D01*
X166368000Y-107696000D01*
X168979884Y-107696000D01*
X168995123Y-107691525D01*
X168996328Y-107690135D01*
X168997999Y-107682452D01*
X168997999Y-107055331D01*
X168997629Y-107048510D01*
X168992105Y-106997648D01*
X168988479Y-106982396D01*
X168943324Y-106861946D01*
X168934786Y-106846351D01*
X168867058Y-106755982D01*
X168842210Y-106689475D01*
X168857263Y-106620093D01*
X168867058Y-106604852D01*
X168935229Y-106513891D01*
X168940615Y-106506705D01*
X168991745Y-106370316D01*
X168998500Y-106308134D01*
X168998500Y-105507856D01*
X168999578Y-105491409D01*
X169001092Y-105479908D01*
X169001529Y-105476590D01*
X169002505Y-105436639D01*
X169003074Y-105413365D01*
X169003074Y-105413361D01*
X169003156Y-105410000D01*
X168998924Y-105358524D01*
X168998500Y-105348200D01*
X168998500Y-104511866D01*
X168991745Y-104449684D01*
X168940615Y-104313295D01*
X168867370Y-104215564D01*
X168842522Y-104149059D01*
X168857575Y-104079676D01*
X168867370Y-104064435D01*
X168867481Y-104064287D01*
X168940615Y-103966705D01*
X168991745Y-103830316D01*
X168998500Y-103768134D01*
X168998500Y-102967856D01*
X168999578Y-102951409D01*
X169001092Y-102939908D01*
X169001529Y-102936590D01*
X169002505Y-102896639D01*
X169003074Y-102873365D01*
X169003074Y-102873361D01*
X169003156Y-102870000D01*
X168998924Y-102818524D01*
X168998500Y-102808200D01*
X168998500Y-101971866D01*
X168991745Y-101909684D01*
X168940615Y-101773295D01*
X168867370Y-101675564D01*
X168842522Y-101609059D01*
X168857575Y-101539676D01*
X168867370Y-101524435D01*
X168940615Y-101426705D01*
X168991745Y-101290316D01*
X168998500Y-101228134D01*
X168998500Y-100427856D01*
X168999578Y-100411409D01*
X169001092Y-100399908D01*
X169001529Y-100396590D01*
X169002081Y-100374016D01*
X169003074Y-100333365D01*
X169003074Y-100333361D01*
X169003156Y-100330000D01*
X168998924Y-100278524D01*
X168998500Y-100268200D01*
X168998500Y-99431866D01*
X168991745Y-99369684D01*
X168940615Y-99233295D01*
X168867370Y-99135564D01*
X168842522Y-99069059D01*
X168857575Y-98999676D01*
X168867370Y-98984435D01*
X168888151Y-98956707D01*
X168940615Y-98886705D01*
X168991745Y-98750316D01*
X168998500Y-98688134D01*
X168998500Y-97934623D01*
X170480480Y-97934623D01*
X170498180Y-98115143D01*
X170555435Y-98287256D01*
X170559082Y-98293278D01*
X170559083Y-98293280D01*
X170645747Y-98436381D01*
X170645750Y-98436384D01*
X170649397Y-98442407D01*
X170715638Y-98511001D01*
X170748569Y-98573895D01*
X170751000Y-98598526D01*
X170751000Y-108004650D01*
X170730998Y-108072771D01*
X170719515Y-108086869D01*
X170719783Y-108087087D01*
X170715334Y-108092543D01*
X170710296Y-108097476D01*
X170612038Y-108249943D01*
X170609629Y-108256563D01*
X170609627Y-108256566D01*
X170554403Y-108408293D01*
X170550000Y-108420390D01*
X170527266Y-108600345D01*
X170544966Y-108780865D01*
X170602221Y-108952978D01*
X170605868Y-108959000D01*
X170605869Y-108959002D01*
X170687247Y-109093373D01*
X170696183Y-109108129D01*
X170701072Y-109113192D01*
X170701073Y-109113193D01*
X170726522Y-109139546D01*
X170822185Y-109238607D01*
X170973962Y-109337927D01*
X170980566Y-109340383D01*
X170980568Y-109340384D01*
X171137361Y-109398695D01*
X171137363Y-109398695D01*
X171143971Y-109401153D01*
X171227798Y-109412338D01*
X171316783Y-109424212D01*
X171316787Y-109424212D01*
X171323764Y-109425143D01*
X171330775Y-109424505D01*
X171330779Y-109424505D01*
X171473262Y-109411537D01*
X171504403Y-109408703D01*
X171511105Y-109406525D01*
X171511107Y-109406525D01*
X171670212Y-109354829D01*
X171670215Y-109354828D01*
X171676911Y-109352652D01*
X171796073Y-109281617D01*
X171826663Y-109263382D01*
X171826665Y-109263381D01*
X171832715Y-109259774D01*
X171964069Y-109134687D01*
X172064446Y-108983607D01*
X172118695Y-108840797D01*
X172126358Y-108820625D01*
X172126359Y-108820623D01*
X172128858Y-108814043D01*
X172131065Y-108798338D01*
X172153551Y-108638344D01*
X172153551Y-108638341D01*
X172154102Y-108634422D01*
X172154419Y-108611705D01*
X172134200Y-108431450D01*
X172131883Y-108424796D01*
X172076867Y-108266811D01*
X172076865Y-108266808D01*
X172074548Y-108260153D01*
X172064465Y-108244017D01*
X171982162Y-108112303D01*
X171978429Y-108106329D01*
X171948088Y-108075775D01*
X171931594Y-108059166D01*
X171897787Y-107996735D01*
X171895000Y-107970382D01*
X171895000Y-98540159D01*
X171915002Y-98472038D01*
X171917223Y-98469023D01*
X171917283Y-98468965D01*
X171927777Y-98453171D01*
X172013759Y-98323756D01*
X172017660Y-98317885D01*
X172072415Y-98173743D01*
X172079572Y-98154903D01*
X172079573Y-98154901D01*
X172082072Y-98148321D01*
X172085407Y-98124590D01*
X172106765Y-97972622D01*
X172106765Y-97972619D01*
X172107316Y-97968700D01*
X172107633Y-97945983D01*
X172087414Y-97765728D01*
X172085097Y-97759074D01*
X172030081Y-97601089D01*
X172030079Y-97601086D01*
X172027762Y-97594431D01*
X172002715Y-97554347D01*
X171935376Y-97446581D01*
X171931643Y-97440607D01*
X171917958Y-97426826D01*
X171808795Y-97316898D01*
X171808791Y-97316895D01*
X171803832Y-97311901D01*
X171792714Y-97304845D01*
X171739135Y-97270843D01*
X171650683Y-97214710D01*
X171607592Y-97199366D01*
X171486442Y-97156226D01*
X171486437Y-97156225D01*
X171479807Y-97153864D01*
X171472819Y-97153031D01*
X171472816Y-97153030D01*
X171349715Y-97138351D01*
X171299697Y-97132387D01*
X171292694Y-97133123D01*
X171292693Y-97133123D01*
X171126305Y-97150611D01*
X171126303Y-97150612D01*
X171119305Y-97151347D01*
X170947596Y-97209801D01*
X170933474Y-97218489D01*
X170799112Y-97301149D01*
X170799109Y-97301151D01*
X170793105Y-97304845D01*
X170788070Y-97309776D01*
X170788067Y-97309778D01*
X170683309Y-97412365D01*
X170663510Y-97431754D01*
X170565252Y-97584221D01*
X170562843Y-97590841D01*
X170562841Y-97590844D01*
X170510967Y-97733367D01*
X170503214Y-97754668D01*
X170480480Y-97934623D01*
X168998500Y-97934623D01*
X168998500Y-97887856D01*
X168999578Y-97871409D01*
X169001092Y-97859908D01*
X169001529Y-97856590D01*
X169002505Y-97816639D01*
X169003074Y-97793365D01*
X169003074Y-97793361D01*
X169003156Y-97790000D01*
X168998924Y-97738524D01*
X168998500Y-97728200D01*
X168998500Y-96891866D01*
X168991745Y-96829684D01*
X168940615Y-96693295D01*
X168867058Y-96595148D01*
X168842210Y-96528642D01*
X168857263Y-96459259D01*
X168867058Y-96444018D01*
X168934786Y-96353649D01*
X168943324Y-96338054D01*
X168988478Y-96217606D01*
X168992105Y-96202351D01*
X168997631Y-96151486D01*
X168998000Y-96144672D01*
X168998000Y-95522115D01*
X168993525Y-95506876D01*
X168992135Y-95505671D01*
X168984452Y-95504000D01*
X166368000Y-95504000D01*
X166299879Y-95483998D01*
X166253386Y-95430342D01*
X166242000Y-95378000D01*
X166242000Y-95122000D01*
X166262002Y-95053879D01*
X166315658Y-95007386D01*
X166368000Y-94996000D01*
X168979884Y-94996000D01*
X168995123Y-94991525D01*
X168996328Y-94990135D01*
X168997999Y-94982452D01*
X168997999Y-94355331D01*
X168997629Y-94348510D01*
X168992105Y-94297648D01*
X168988479Y-94282396D01*
X168943324Y-94161946D01*
X168934786Y-94146351D01*
X168867058Y-94055982D01*
X168842210Y-93989475D01*
X168857263Y-93920093D01*
X168867058Y-93904852D01*
X168935229Y-93813891D01*
X168940615Y-93806705D01*
X168991745Y-93670316D01*
X168998500Y-93608134D01*
X168998500Y-92807856D01*
X168999578Y-92791409D01*
X169001092Y-92779908D01*
X169001529Y-92776590D01*
X169002505Y-92736639D01*
X169003074Y-92713365D01*
X169003074Y-92713361D01*
X169003156Y-92710000D01*
X168998924Y-92658524D01*
X168998500Y-92648200D01*
X168998500Y-91811866D01*
X168991745Y-91749684D01*
X168940615Y-91613295D01*
X168867370Y-91515564D01*
X168842522Y-91449059D01*
X168857575Y-91379676D01*
X168867370Y-91364435D01*
X168940615Y-91266705D01*
X168991745Y-91130316D01*
X168998500Y-91068134D01*
X168998500Y-90267856D01*
X168999578Y-90251409D01*
X169001092Y-90239908D01*
X169001529Y-90236590D01*
X169002505Y-90196639D01*
X169003074Y-90173365D01*
X169003074Y-90173361D01*
X169003156Y-90170000D01*
X168998924Y-90118524D01*
X168998500Y-90108200D01*
X168998500Y-89271866D01*
X168991745Y-89209684D01*
X168940615Y-89073295D01*
X168867370Y-88975564D01*
X168842522Y-88909059D01*
X168844487Y-88900000D01*
X180442496Y-88900000D01*
X180443186Y-88906565D01*
X180461594Y-89081703D01*
X180462458Y-89089928D01*
X180521473Y-89271556D01*
X180524776Y-89277278D01*
X180524777Y-89277279D01*
X180545753Y-89313610D01*
X180616960Y-89436944D01*
X180621378Y-89441851D01*
X180621379Y-89441852D01*
X180703962Y-89533570D01*
X180744747Y-89578866D01*
X180765650Y-89594053D01*
X180891118Y-89685211D01*
X180899248Y-89691118D01*
X180905276Y-89693802D01*
X180905278Y-89693803D01*
X181067681Y-89766109D01*
X181073712Y-89768794D01*
X181152994Y-89785646D01*
X181254056Y-89807128D01*
X181254061Y-89807128D01*
X181260513Y-89808500D01*
X181451487Y-89808500D01*
X181457939Y-89807128D01*
X181457944Y-89807128D01*
X181559006Y-89785646D01*
X181638288Y-89768794D01*
X181644319Y-89766109D01*
X181806722Y-89693803D01*
X181806724Y-89693802D01*
X181812752Y-89691118D01*
X181820883Y-89685211D01*
X181960516Y-89583761D01*
X181967253Y-89578866D01*
X181978497Y-89566379D01*
X181993074Y-89550189D01*
X182053520Y-89512950D01*
X182086710Y-89508500D01*
X183935500Y-89508500D01*
X184003621Y-89528502D01*
X184050114Y-89582158D01*
X184061500Y-89634500D01*
X184061500Y-90090219D01*
X184060787Y-90103607D01*
X184057251Y-90136695D01*
X184057548Y-90141848D01*
X184057548Y-90141851D01*
X184061291Y-90206763D01*
X184061500Y-90214016D01*
X184061500Y-91068134D01*
X184068255Y-91130316D01*
X184119385Y-91266705D01*
X184192630Y-91364435D01*
X184217478Y-91430941D01*
X184202425Y-91500324D01*
X184192632Y-91515562D01*
X184119385Y-91613295D01*
X184068255Y-91749684D01*
X184061500Y-91811866D01*
X184061500Y-92630219D01*
X184060787Y-92643607D01*
X184057251Y-92676695D01*
X184057548Y-92681848D01*
X184057548Y-92681851D01*
X184061291Y-92746763D01*
X184061500Y-92754016D01*
X184061500Y-93608134D01*
X184068255Y-93670316D01*
X184119385Y-93806705D01*
X184124771Y-93813891D01*
X184192942Y-93904852D01*
X184217790Y-93971358D01*
X184202737Y-94040741D01*
X184192942Y-94055982D01*
X184125214Y-94146351D01*
X184116676Y-94161946D01*
X184071522Y-94282394D01*
X184067895Y-94297649D01*
X184062369Y-94348514D01*
X184062000Y-94355328D01*
X184062000Y-94977885D01*
X184066475Y-94993124D01*
X184067865Y-94994329D01*
X184075548Y-94996000D01*
X188559884Y-94996000D01*
X188575123Y-94991525D01*
X188576328Y-94990135D01*
X188577999Y-94982452D01*
X188577999Y-94355331D01*
X188577629Y-94348510D01*
X188572105Y-94297648D01*
X188568479Y-94282396D01*
X188523324Y-94161946D01*
X188514786Y-94146351D01*
X188447058Y-94055982D01*
X188422210Y-93989475D01*
X188437263Y-93920093D01*
X188447058Y-93904852D01*
X188515229Y-93813891D01*
X188520615Y-93806705D01*
X188571745Y-93670316D01*
X188578500Y-93608134D01*
X188578500Y-91811866D01*
X188571745Y-91749684D01*
X188520615Y-91613295D01*
X188447370Y-91515564D01*
X188422522Y-91449059D01*
X188437575Y-91379676D01*
X188447370Y-91364435D01*
X188520615Y-91266705D01*
X188571745Y-91130316D01*
X188578500Y-91068134D01*
X188578500Y-89634500D01*
X188598502Y-89566379D01*
X188652158Y-89519886D01*
X188704500Y-89508500D01*
X188927864Y-89508500D01*
X188944307Y-89509578D01*
X188976000Y-89513750D01*
X188984189Y-89512672D01*
X189015874Y-89508501D01*
X189015884Y-89508500D01*
X189015885Y-89508500D01*
X189115457Y-89495391D01*
X189126664Y-89493916D01*
X189126666Y-89493915D01*
X189134851Y-89492838D01*
X189282876Y-89431524D01*
X189336165Y-89390634D01*
X189378072Y-89358477D01*
X189378075Y-89358474D01*
X189389507Y-89349702D01*
X189409987Y-89333987D01*
X189418190Y-89323297D01*
X189429452Y-89308621D01*
X189440319Y-89296230D01*
X191658234Y-87078315D01*
X191670625Y-87067448D01*
X191689437Y-87053013D01*
X191695987Y-87047987D01*
X191720474Y-87016075D01*
X191720480Y-87016069D01*
X191788496Y-86927429D01*
X191788497Y-86927427D01*
X191793524Y-86920876D01*
X191854838Y-86772851D01*
X191855974Y-86764226D01*
X191858004Y-86748802D01*
X191870500Y-86653885D01*
X191870500Y-86653880D01*
X191874672Y-86622189D01*
X191875750Y-86614000D01*
X191871578Y-86582307D01*
X191870500Y-86565864D01*
X191870500Y-81965239D01*
X191890502Y-81897118D01*
X191907405Y-81876144D01*
X192432144Y-81351405D01*
X192494456Y-81317379D01*
X192521239Y-81314500D01*
X193471665Y-81314500D01*
X193539786Y-81334502D01*
X193586279Y-81388158D01*
X193596383Y-81458432D01*
X193583788Y-81495237D01*
X193584743Y-81495680D01*
X193490688Y-81698305D01*
X193430989Y-81913570D01*
X193407251Y-82135695D01*
X193407548Y-82140848D01*
X193407548Y-82140851D01*
X193413011Y-82235590D01*
X193420110Y-82358715D01*
X193421247Y-82363761D01*
X193421248Y-82363767D01*
X193434372Y-82422000D01*
X193469222Y-82576639D01*
X193553266Y-82783616D01*
X193669987Y-82974088D01*
X193816250Y-83142938D01*
X193988126Y-83285632D01*
X194058595Y-83326811D01*
X194061445Y-83328476D01*
X194110169Y-83380114D01*
X194123240Y-83449897D01*
X194096509Y-83515669D01*
X194056055Y-83549027D01*
X194043607Y-83555507D01*
X194039474Y-83558610D01*
X194039471Y-83558612D01*
X193869100Y-83686530D01*
X193864965Y-83689635D01*
X193710629Y-83851138D01*
X193584743Y-84035680D01*
X193490688Y-84238305D01*
X193430989Y-84453570D01*
X193407251Y-84675695D01*
X193407548Y-84680848D01*
X193407548Y-84680851D01*
X193416656Y-84838817D01*
X193420110Y-84898715D01*
X193421247Y-84903761D01*
X193421248Y-84903767D01*
X193439555Y-84985000D01*
X193469222Y-85116639D01*
X193515491Y-85230586D01*
X193542229Y-85296434D01*
X193553266Y-85323616D01*
X193555965Y-85328020D01*
X193622930Y-85437297D01*
X193669987Y-85514088D01*
X193816250Y-85682938D01*
X193988126Y-85825632D01*
X194049411Y-85861444D01*
X194061445Y-85868476D01*
X194110169Y-85920114D01*
X194123240Y-85989897D01*
X194096509Y-86055669D01*
X194056055Y-86089027D01*
X194043607Y-86095507D01*
X194039474Y-86098610D01*
X194039471Y-86098612D01*
X193881845Y-86216961D01*
X193864965Y-86229635D01*
X193861393Y-86233373D01*
X193718586Y-86382812D01*
X193710629Y-86391138D01*
X193707715Y-86395410D01*
X193707714Y-86395411D01*
X193689838Y-86421617D01*
X193584743Y-86575680D01*
X193542360Y-86666987D01*
X193493220Y-86772851D01*
X193490688Y-86778305D01*
X193430989Y-86993570D01*
X193407251Y-87215695D01*
X193407548Y-87220848D01*
X193407548Y-87220851D01*
X193413011Y-87315590D01*
X193420110Y-87438715D01*
X193421247Y-87443761D01*
X193421248Y-87443767D01*
X193442275Y-87537069D01*
X193469222Y-87656639D01*
X193553266Y-87863616D01*
X193580777Y-87908510D01*
X193623120Y-87977607D01*
X193669987Y-88054088D01*
X193816250Y-88222938D01*
X193988126Y-88365632D01*
X193993503Y-88368774D01*
X194061445Y-88408476D01*
X194110169Y-88460114D01*
X194123240Y-88529897D01*
X194096509Y-88595669D01*
X194056055Y-88629027D01*
X194043607Y-88635507D01*
X194039474Y-88638610D01*
X194039471Y-88638612D01*
X193869100Y-88766530D01*
X193864965Y-88769635D01*
X193861393Y-88773373D01*
X193734112Y-88906565D01*
X193710629Y-88931138D01*
X193584743Y-89115680D01*
X193541108Y-89209684D01*
X193509732Y-89277279D01*
X193490688Y-89318305D01*
X193430989Y-89533570D01*
X193407251Y-89755695D01*
X193407548Y-89760848D01*
X193407548Y-89760851D01*
X193412981Y-89855077D01*
X193420110Y-89978715D01*
X193421247Y-89983761D01*
X193421248Y-89983767D01*
X193440857Y-90070775D01*
X193469222Y-90196639D01*
X193553266Y-90403616D01*
X193555965Y-90408020D01*
X193614846Y-90504105D01*
X193669987Y-90594088D01*
X193816250Y-90762938D01*
X193988126Y-90905632D01*
X194058595Y-90946811D01*
X194061445Y-90948476D01*
X194110169Y-91000114D01*
X194123240Y-91069897D01*
X194096509Y-91135669D01*
X194056055Y-91169027D01*
X194043607Y-91175507D01*
X194039474Y-91178610D01*
X194039471Y-91178612D01*
X193869100Y-91306530D01*
X193864965Y-91309635D01*
X193861393Y-91313373D01*
X193715311Y-91466239D01*
X193710629Y-91471138D01*
X193584743Y-91655680D01*
X193490688Y-91858305D01*
X193430989Y-92073570D01*
X193407251Y-92295695D01*
X193407548Y-92300848D01*
X193407548Y-92300851D01*
X193413011Y-92395590D01*
X193420110Y-92518715D01*
X193421247Y-92523761D01*
X193421248Y-92523767D01*
X193431894Y-92571006D01*
X193469222Y-92736639D01*
X193553266Y-92943616D01*
X193669987Y-93134088D01*
X193816250Y-93302938D01*
X193988126Y-93445632D01*
X194058595Y-93486811D01*
X194061445Y-93488476D01*
X194110169Y-93540114D01*
X194123240Y-93609897D01*
X194096509Y-93675669D01*
X194056055Y-93709027D01*
X194043607Y-93715507D01*
X194039474Y-93718610D01*
X194039471Y-93718612D01*
X193869100Y-93846530D01*
X193864965Y-93849635D01*
X193861393Y-93853373D01*
X193763075Y-93956257D01*
X193710629Y-94011138D01*
X193707715Y-94015410D01*
X193707714Y-94015411D01*
X193676107Y-94061745D01*
X193584743Y-94195680D01*
X193490688Y-94398305D01*
X193430989Y-94613570D01*
X193407251Y-94835695D01*
X193407548Y-94840848D01*
X193407548Y-94840851D01*
X193413011Y-94935590D01*
X193420110Y-95058715D01*
X193421247Y-95063761D01*
X193421248Y-95063767D01*
X193434372Y-95122000D01*
X193469222Y-95276639D01*
X193553266Y-95483616D01*
X193669987Y-95674088D01*
X193816250Y-95842938D01*
X193988126Y-95985632D01*
X194039068Y-96015400D01*
X194061445Y-96028476D01*
X194110169Y-96080114D01*
X194123240Y-96149897D01*
X194096509Y-96215669D01*
X194056055Y-96249027D01*
X194043607Y-96255507D01*
X194039474Y-96258610D01*
X194039471Y-96258612D01*
X193899190Y-96363938D01*
X193864965Y-96389635D01*
X193710629Y-96551138D01*
X193584743Y-96735680D01*
X193541108Y-96829684D01*
X193502343Y-96913197D01*
X193490688Y-96938305D01*
X193430989Y-97153570D01*
X193407251Y-97375695D01*
X193407548Y-97380848D01*
X193407548Y-97380851D01*
X193413011Y-97475590D01*
X193420110Y-97598715D01*
X193421247Y-97603761D01*
X193421248Y-97603767D01*
X193439175Y-97683312D01*
X193469222Y-97816639D01*
X193553266Y-98023616D01*
X193555965Y-98028020D01*
X193645264Y-98173743D01*
X193669987Y-98214088D01*
X193816250Y-98382938D01*
X193988126Y-98525632D01*
X194026536Y-98548077D01*
X194061445Y-98568476D01*
X194110169Y-98620114D01*
X194123240Y-98689897D01*
X194096509Y-98755669D01*
X194056055Y-98789027D01*
X194043607Y-98795507D01*
X194039474Y-98798610D01*
X194039471Y-98798612D01*
X193869100Y-98926530D01*
X193864965Y-98929635D01*
X193710629Y-99091138D01*
X193584743Y-99275680D01*
X193541108Y-99369684D01*
X193506380Y-99444500D01*
X193490688Y-99478305D01*
X193430989Y-99693570D01*
X193407251Y-99915695D01*
X193407548Y-99920848D01*
X193407548Y-99920851D01*
X193413011Y-100015590D01*
X193420110Y-100138715D01*
X193421247Y-100143761D01*
X193421248Y-100143767D01*
X193438684Y-100221132D01*
X193469222Y-100356639D01*
X193553266Y-100563616D01*
X193669987Y-100754088D01*
X193673367Y-100757990D01*
X193679622Y-100765211D01*
X193816250Y-100922938D01*
X193988126Y-101065632D01*
X194058595Y-101106811D01*
X194061445Y-101108476D01*
X194110169Y-101160114D01*
X194123240Y-101229897D01*
X194096509Y-101295669D01*
X194056055Y-101329027D01*
X194043607Y-101335507D01*
X194039474Y-101338610D01*
X194039471Y-101338612D01*
X193869100Y-101466530D01*
X193864965Y-101469635D01*
X193710629Y-101631138D01*
X193584743Y-101815680D01*
X193490688Y-102018305D01*
X193430989Y-102233570D01*
X193407251Y-102455695D01*
X193407548Y-102460848D01*
X193407548Y-102460851D01*
X193413011Y-102555590D01*
X193420110Y-102678715D01*
X193421247Y-102683761D01*
X193421248Y-102683767D01*
X193441119Y-102771939D01*
X193469222Y-102896639D01*
X193553266Y-103103616D01*
X193555965Y-103108020D01*
X193626616Y-103223312D01*
X193669987Y-103294088D01*
X193816250Y-103462938D01*
X193988126Y-103605632D01*
X194049526Y-103641511D01*
X194061445Y-103648476D01*
X194110169Y-103700114D01*
X194123240Y-103769897D01*
X194096509Y-103835669D01*
X194056055Y-103869027D01*
X194043607Y-103875507D01*
X194039474Y-103878610D01*
X194039471Y-103878612D01*
X193869100Y-104006530D01*
X193864965Y-104009635D01*
X193710629Y-104171138D01*
X193584743Y-104355680D01*
X193541108Y-104449684D01*
X193494996Y-104549025D01*
X193490688Y-104558305D01*
X193430989Y-104773570D01*
X193407251Y-104995695D01*
X193407548Y-105000848D01*
X193407548Y-105000851D01*
X193419812Y-105213547D01*
X193420110Y-105218715D01*
X193421247Y-105223761D01*
X193421248Y-105223767D01*
X193439769Y-105305947D01*
X193469222Y-105436639D01*
X193530673Y-105587976D01*
X193551105Y-105638293D01*
X193553266Y-105643616D01*
X193555965Y-105648020D01*
X193630457Y-105769580D01*
X193669987Y-105834088D01*
X193816250Y-106002938D01*
X193988126Y-106145632D01*
X194014157Y-106160843D01*
X194061445Y-106188476D01*
X194110169Y-106240114D01*
X194123240Y-106309897D01*
X194096509Y-106375669D01*
X194056055Y-106409027D01*
X194043607Y-106415507D01*
X194039474Y-106418610D01*
X194039471Y-106418612D01*
X193869100Y-106546530D01*
X193864965Y-106549635D01*
X193710629Y-106711138D01*
X193707715Y-106715410D01*
X193707714Y-106715411D01*
X193676107Y-106761745D01*
X193584743Y-106895680D01*
X193569003Y-106929590D01*
X193498533Y-107081405D01*
X193490688Y-107098305D01*
X193430989Y-107313570D01*
X193407251Y-107535695D01*
X193407548Y-107540848D01*
X193407548Y-107540851D01*
X193413011Y-107635590D01*
X193420110Y-107758715D01*
X193421247Y-107763761D01*
X193421248Y-107763767D01*
X193422576Y-107769658D01*
X193469222Y-107976639D01*
X193519854Y-108101332D01*
X193540103Y-108151198D01*
X193553266Y-108183616D01*
X193669987Y-108374088D01*
X193816250Y-108542938D01*
X193988126Y-108685632D01*
X194014157Y-108700843D01*
X194061445Y-108728476D01*
X194110169Y-108780114D01*
X194123240Y-108849897D01*
X194096509Y-108915669D01*
X194056055Y-108949027D01*
X194043607Y-108955507D01*
X194039474Y-108958610D01*
X194039471Y-108958612D01*
X193895374Y-109066803D01*
X193864965Y-109089635D01*
X193710629Y-109251138D01*
X193707715Y-109255410D01*
X193707714Y-109255411D01*
X193643841Y-109349045D01*
X193584743Y-109435680D01*
X193490688Y-109638305D01*
X193430989Y-109853570D01*
X193407251Y-110075695D01*
X193407548Y-110080848D01*
X193407548Y-110080851D01*
X193413011Y-110175590D01*
X193420110Y-110298715D01*
X193421247Y-110303761D01*
X193421248Y-110303767D01*
X193436000Y-110369225D01*
X193469222Y-110516639D01*
X193553266Y-110723616D01*
X193669987Y-110914088D01*
X193816250Y-111082938D01*
X193988126Y-111225632D01*
X193993031Y-111228498D01*
X194061445Y-111268476D01*
X194110169Y-111320114D01*
X194123240Y-111389897D01*
X194096509Y-111455669D01*
X194056055Y-111489027D01*
X194043607Y-111495507D01*
X194039474Y-111498610D01*
X194039471Y-111498612D01*
X193869100Y-111626530D01*
X193864965Y-111629635D01*
X193710629Y-111791138D01*
X193584743Y-111975680D01*
X193541108Y-112069684D01*
X193504664Y-112148197D01*
X193490688Y-112178305D01*
X193430989Y-112393570D01*
X193407251Y-112615695D01*
X193407548Y-112620848D01*
X193407548Y-112620851D01*
X193418264Y-112806707D01*
X193420110Y-112838715D01*
X193421247Y-112843761D01*
X193421248Y-112843767D01*
X193436871Y-112913087D01*
X193469222Y-113056639D01*
X193553266Y-113263616D01*
X193555965Y-113268020D01*
X193642200Y-113408743D01*
X193669987Y-113454088D01*
X193816250Y-113622938D01*
X193988126Y-113765632D01*
X194058595Y-113806811D01*
X194061445Y-113808476D01*
X194110169Y-113860114D01*
X194123240Y-113929897D01*
X194096509Y-113995669D01*
X194056055Y-114029027D01*
X194043607Y-114035507D01*
X194039474Y-114038610D01*
X194039471Y-114038612D01*
X193884783Y-114154755D01*
X193864965Y-114169635D01*
X193843544Y-114192051D01*
X193725907Y-114315151D01*
X193710629Y-114331138D01*
X193584743Y-114515680D01*
X193544542Y-114602286D01*
X193497379Y-114703891D01*
X193490688Y-114718305D01*
X193430989Y-114933570D01*
X193407251Y-115155695D01*
X193407548Y-115160848D01*
X193407548Y-115160851D01*
X193413011Y-115255590D01*
X193420110Y-115378715D01*
X193421247Y-115383761D01*
X193421248Y-115383767D01*
X193442275Y-115477069D01*
X193469222Y-115596639D01*
X193553266Y-115803616D01*
X193571764Y-115833802D01*
X193641303Y-115947279D01*
X193669987Y-115994088D01*
X193816250Y-116162938D01*
X193892846Y-116226529D01*
X193975066Y-116294789D01*
X193988126Y-116305632D01*
X194058595Y-116346811D01*
X194061445Y-116348476D01*
X194110169Y-116400114D01*
X194123240Y-116469897D01*
X194096509Y-116535669D01*
X194056055Y-116569027D01*
X194043607Y-116575507D01*
X194039474Y-116578610D01*
X194039471Y-116578612D01*
X193909356Y-116676305D01*
X193864965Y-116709635D01*
X193710629Y-116871138D01*
X193707715Y-116875410D01*
X193707714Y-116875411D01*
X193693165Y-116896739D01*
X193584743Y-117055680D01*
X193490688Y-117258305D01*
X193430989Y-117473570D01*
X193407251Y-117695695D01*
X193407548Y-117700848D01*
X193407548Y-117700851D01*
X193413011Y-117795590D01*
X193420110Y-117918715D01*
X193421247Y-117923761D01*
X193421248Y-117923767D01*
X193433363Y-117977523D01*
X193469222Y-118136639D01*
X193553266Y-118343616D01*
X193669987Y-118534088D01*
X193816250Y-118702938D01*
X193988126Y-118845632D01*
X194058595Y-118886811D01*
X194061445Y-118888476D01*
X194110169Y-118940114D01*
X194123240Y-119009897D01*
X194096509Y-119075669D01*
X194056055Y-119109027D01*
X194043607Y-119115507D01*
X194039474Y-119118610D01*
X194039471Y-119118612D01*
X193869100Y-119246530D01*
X193864965Y-119249635D01*
X193861393Y-119253373D01*
X193727349Y-119393642D01*
X193710629Y-119411138D01*
X193707715Y-119415410D01*
X193707714Y-119415411D01*
X193676107Y-119461745D01*
X193584743Y-119595680D01*
X193490688Y-119798305D01*
X193430989Y-120013570D01*
X193407251Y-120235695D01*
X193407548Y-120240848D01*
X193407548Y-120240851D01*
X193413011Y-120335590D01*
X193420110Y-120458715D01*
X193421247Y-120463761D01*
X193421248Y-120463767D01*
X193434372Y-120522000D01*
X193469222Y-120676639D01*
X193553266Y-120883616D01*
X193669987Y-121074088D01*
X193816250Y-121242938D01*
X193988126Y-121385632D01*
X194058595Y-121426811D01*
X194061445Y-121428476D01*
X194110169Y-121480114D01*
X194123240Y-121549897D01*
X194096509Y-121615669D01*
X194056055Y-121649027D01*
X194043607Y-121655507D01*
X194039474Y-121658610D01*
X194039471Y-121658612D01*
X193901141Y-121762473D01*
X193864965Y-121789635D01*
X193710629Y-121951138D01*
X193584743Y-122135680D01*
X193490688Y-122338305D01*
X193430989Y-122553570D01*
X193407251Y-122775695D01*
X193407548Y-122780848D01*
X193407548Y-122780851D01*
X193413011Y-122875590D01*
X193420110Y-122998715D01*
X193421247Y-123003761D01*
X193421248Y-123003767D01*
X193441119Y-123091939D01*
X193469222Y-123216639D01*
X193553266Y-123423616D01*
X193555965Y-123428020D01*
X193650944Y-123583012D01*
X193669987Y-123614088D01*
X193816250Y-123782938D01*
X193988126Y-123925632D01*
X194061955Y-123968774D01*
X194110679Y-124020412D01*
X194123750Y-124090195D01*
X194097019Y-124155967D01*
X194056562Y-124189327D01*
X194048457Y-124193546D01*
X194039738Y-124199036D01*
X193869433Y-124326905D01*
X193861726Y-124333748D01*
X193714590Y-124487717D01*
X193708104Y-124495727D01*
X193588098Y-124671649D01*
X193583000Y-124680623D01*
X193493338Y-124873783D01*
X193489775Y-124883470D01*
X193434389Y-125083183D01*
X193435912Y-125091607D01*
X193448292Y-125095000D01*
X196088344Y-125095000D01*
X196101875Y-125091027D01*
X196103180Y-125081947D01*
X196061214Y-124914875D01*
X196057894Y-124905124D01*
X195972972Y-124709814D01*
X195968105Y-124700739D01*
X195852426Y-124521926D01*
X195846136Y-124513757D01*
X195702806Y-124356240D01*
X195695273Y-124349215D01*
X195528139Y-124217222D01*
X195519556Y-124211520D01*
X195482602Y-124191120D01*
X195432631Y-124140687D01*
X195417859Y-124071245D01*
X195442975Y-124004839D01*
X195470327Y-123978232D01*
X195522488Y-123941026D01*
X195649860Y-123850173D01*
X195808096Y-123692489D01*
X195826857Y-123666381D01*
X195935435Y-123515277D01*
X195938453Y-123511077D01*
X196037430Y-123310811D01*
X196068488Y-123208587D01*
X198926754Y-123208587D01*
X198933658Y-123221448D01*
X200495188Y-124782978D01*
X200509132Y-124790592D01*
X200510965Y-124790461D01*
X200517580Y-124786210D01*
X202082666Y-123221124D01*
X202089279Y-123209013D01*
X202080452Y-123197395D01*
X201857719Y-123035570D01*
X201851039Y-123031330D01*
X201581428Y-122883110D01*
X201574293Y-122879753D01*
X201288230Y-122766492D01*
X201280704Y-122764047D01*
X200982721Y-122687538D01*
X200974950Y-122686055D01*
X200669722Y-122647497D01*
X200661831Y-122647000D01*
X200354169Y-122647000D01*
X200346278Y-122647497D01*
X200041050Y-122686055D01*
X200033279Y-122687538D01*
X199735296Y-122764047D01*
X199727770Y-122766492D01*
X199441707Y-122879753D01*
X199434572Y-122883110D01*
X199164961Y-123031330D01*
X199158281Y-123035570D01*
X198935177Y-123197664D01*
X198926754Y-123208587D01*
X196068488Y-123208587D01*
X196102370Y-123097069D01*
X196131529Y-122875590D01*
X196133156Y-122809000D01*
X196114852Y-122586361D01*
X196060431Y-122369702D01*
X195971354Y-122164840D01*
X195920421Y-122086109D01*
X195852822Y-121981617D01*
X195852820Y-121981614D01*
X195850014Y-121977277D01*
X195699670Y-121812051D01*
X195695619Y-121808852D01*
X195695615Y-121808848D01*
X195528414Y-121676800D01*
X195528410Y-121676798D01*
X195524359Y-121673598D01*
X195483053Y-121650796D01*
X195433084Y-121600364D01*
X195418312Y-121530921D01*
X195443428Y-121464516D01*
X195470780Y-121437909D01*
X195514603Y-121406650D01*
X195649860Y-121310173D01*
X195808096Y-121152489D01*
X195867594Y-121069689D01*
X195935435Y-120975277D01*
X195938453Y-120971077D01*
X195962652Y-120922115D01*
X196035136Y-120775453D01*
X196035137Y-120775451D01*
X196037430Y-120770811D01*
X196102370Y-120557069D01*
X196131529Y-120335590D01*
X196133156Y-120269000D01*
X196114852Y-120046361D01*
X196060431Y-119829702D01*
X195971354Y-119624840D01*
X195920577Y-119546351D01*
X195852822Y-119441617D01*
X195852820Y-119441614D01*
X195850014Y-119437277D01*
X195699670Y-119272051D01*
X195695619Y-119268852D01*
X195695615Y-119268848D01*
X195528414Y-119136800D01*
X195528410Y-119136798D01*
X195524359Y-119133598D01*
X195483053Y-119110796D01*
X195433084Y-119060364D01*
X195418312Y-118990921D01*
X195443428Y-118924516D01*
X195470780Y-118897909D01*
X195514603Y-118866650D01*
X195649860Y-118770173D01*
X195808096Y-118612489D01*
X195867594Y-118529689D01*
X195935435Y-118435277D01*
X195938453Y-118431077D01*
X196037430Y-118230811D01*
X196084987Y-118074284D01*
X196100865Y-118022023D01*
X196100865Y-118022021D01*
X196102370Y-118017069D01*
X196131529Y-117795590D01*
X196133156Y-117729000D01*
X196114852Y-117506361D01*
X196060431Y-117289702D01*
X195971354Y-117084840D01*
X195903382Y-116979771D01*
X195852822Y-116901617D01*
X195852820Y-116901614D01*
X195850014Y-116897277D01*
X195699670Y-116732051D01*
X195695619Y-116728852D01*
X195695615Y-116728848D01*
X195528414Y-116596800D01*
X195528410Y-116596798D01*
X195524359Y-116593598D01*
X195483053Y-116570796D01*
X195433084Y-116520364D01*
X195418312Y-116450921D01*
X195443428Y-116384516D01*
X195470780Y-116357909D01*
X195514603Y-116326650D01*
X195649860Y-116230173D01*
X195808096Y-116072489D01*
X195866075Y-115991803D01*
X195935435Y-115895277D01*
X195938453Y-115891077D01*
X195961799Y-115843841D01*
X196035136Y-115695453D01*
X196035137Y-115695451D01*
X196037430Y-115690811D01*
X196081288Y-115546457D01*
X196100865Y-115482023D01*
X196100865Y-115482021D01*
X196102370Y-115477069D01*
X196105276Y-115455000D01*
X197774502Y-115455000D01*
X197794457Y-115683087D01*
X197795881Y-115688400D01*
X197795881Y-115688402D01*
X197851314Y-115895277D01*
X197853716Y-115904243D01*
X197856039Y-115909224D01*
X197856039Y-115909225D01*
X197948151Y-116106762D01*
X197948154Y-116106767D01*
X197950477Y-116111749D01*
X198004035Y-116188238D01*
X198049207Y-116252749D01*
X198081802Y-116299300D01*
X198243700Y-116461198D01*
X198248208Y-116464355D01*
X198248211Y-116464357D01*
X198278604Y-116485638D01*
X198431251Y-116592523D01*
X198436233Y-116594846D01*
X198436238Y-116594849D01*
X198610923Y-116676305D01*
X198664208Y-116723222D01*
X198683669Y-116791499D01*
X198663127Y-116859459D01*
X198609105Y-116905525D01*
X198557673Y-116916500D01*
X198239866Y-116916500D01*
X198177684Y-116923255D01*
X198041295Y-116974385D01*
X197924739Y-117061739D01*
X197837385Y-117178295D01*
X197786255Y-117314684D01*
X197779500Y-117376866D01*
X197779500Y-119073134D01*
X197786255Y-119135316D01*
X197837385Y-119271705D01*
X197924739Y-119388261D01*
X198041295Y-119475615D01*
X198177684Y-119526745D01*
X198239866Y-119533500D01*
X199936134Y-119533500D01*
X199998316Y-119526745D01*
X200134705Y-119475615D01*
X200251261Y-119388261D01*
X200338615Y-119271705D01*
X200389745Y-119135316D01*
X200396500Y-119073134D01*
X200396500Y-117376866D01*
X200389745Y-117314684D01*
X200338615Y-117178295D01*
X200251261Y-117061739D01*
X200134705Y-116974385D01*
X199998316Y-116923255D01*
X199936134Y-116916500D01*
X199618327Y-116916500D01*
X199550206Y-116896498D01*
X199503713Y-116842842D01*
X199503304Y-116840000D01*
X200614502Y-116840000D01*
X200634457Y-117068087D01*
X200635881Y-117073400D01*
X200635881Y-117073402D01*
X200672073Y-117208469D01*
X200693716Y-117289243D01*
X200696039Y-117294224D01*
X200696039Y-117294225D01*
X200788151Y-117491762D01*
X200788154Y-117491767D01*
X200790477Y-117496749D01*
X200921802Y-117684300D01*
X201083700Y-117846198D01*
X201088208Y-117849355D01*
X201088211Y-117849357D01*
X201166389Y-117904098D01*
X201271251Y-117977523D01*
X201276233Y-117979846D01*
X201276238Y-117979849D01*
X201473775Y-118071961D01*
X201478757Y-118074284D01*
X201484065Y-118075706D01*
X201484067Y-118075707D01*
X201694598Y-118132119D01*
X201694600Y-118132119D01*
X201699913Y-118133543D01*
X201928000Y-118153498D01*
X202156087Y-118133543D01*
X202161400Y-118132119D01*
X202161402Y-118132119D01*
X202371933Y-118075707D01*
X202371935Y-118075706D01*
X202377243Y-118074284D01*
X202382225Y-118071961D01*
X202579762Y-117979849D01*
X202579767Y-117979846D01*
X202584749Y-117977523D01*
X202689611Y-117904098D01*
X202767789Y-117849357D01*
X202767792Y-117849355D01*
X202772300Y-117846198D01*
X202934198Y-117684300D01*
X203065523Y-117496749D01*
X203067846Y-117491767D01*
X203067849Y-117491762D01*
X203159961Y-117294225D01*
X203159961Y-117294224D01*
X203162284Y-117289243D01*
X203183928Y-117208469D01*
X203220119Y-117073402D01*
X203220119Y-117073400D01*
X203221543Y-117068087D01*
X203241498Y-116840000D01*
X203221543Y-116611913D01*
X203220119Y-116606598D01*
X203163707Y-116396067D01*
X203163706Y-116396065D01*
X203162284Y-116390757D01*
X203148463Y-116361118D01*
X203067849Y-116188238D01*
X203067846Y-116188233D01*
X203065523Y-116183251D01*
X202934198Y-115995700D01*
X202772300Y-115833802D01*
X202767792Y-115830645D01*
X202767789Y-115830643D01*
X202657424Y-115753365D01*
X202584749Y-115702477D01*
X202579767Y-115700154D01*
X202579762Y-115700151D01*
X202382225Y-115608039D01*
X202382224Y-115608039D01*
X202377243Y-115605716D01*
X202371935Y-115604294D01*
X202371933Y-115604293D01*
X202268981Y-115576707D01*
X202208358Y-115539755D01*
X202177337Y-115475894D01*
X202185765Y-115405400D01*
X202230968Y-115350653D01*
X202268981Y-115333293D01*
X202371933Y-115305707D01*
X202371935Y-115305706D01*
X202377243Y-115304284D01*
X202474553Y-115258908D01*
X202579762Y-115209849D01*
X202579767Y-115209846D01*
X202584749Y-115207523D01*
X202739033Y-115099492D01*
X202767789Y-115079357D01*
X202767792Y-115079355D01*
X202772300Y-115076198D01*
X202934198Y-114914300D01*
X202946981Y-114896045D01*
X203011965Y-114803238D01*
X203065523Y-114726749D01*
X203067846Y-114721767D01*
X203067849Y-114721762D01*
X203159961Y-114524225D01*
X203159961Y-114524224D01*
X203162284Y-114519243D01*
X203216348Y-114317477D01*
X203220119Y-114303402D01*
X203220119Y-114303400D01*
X203221543Y-114298087D01*
X203241498Y-114070000D01*
X203221543Y-113841913D01*
X203216971Y-113824849D01*
X203163707Y-113626067D01*
X203163706Y-113626065D01*
X203162284Y-113620757D01*
X203159961Y-113615775D01*
X203067849Y-113418238D01*
X203067846Y-113418233D01*
X203065523Y-113413251D01*
X202934198Y-113225700D01*
X202772300Y-113063802D01*
X202767792Y-113060645D01*
X202767789Y-113060643D01*
X202683825Y-113001851D01*
X202584749Y-112932477D01*
X202579767Y-112930154D01*
X202579762Y-112930151D01*
X202382225Y-112838039D01*
X202382224Y-112838039D01*
X202377243Y-112835716D01*
X202371935Y-112834294D01*
X202371933Y-112834293D01*
X202268981Y-112806707D01*
X202208358Y-112769755D01*
X202177337Y-112705894D01*
X202185765Y-112635400D01*
X202230968Y-112580653D01*
X202268981Y-112563293D01*
X202371933Y-112535707D01*
X202371935Y-112535706D01*
X202377243Y-112534284D01*
X202382225Y-112531961D01*
X202579762Y-112439849D01*
X202579767Y-112439846D01*
X202584749Y-112437523D01*
X202689611Y-112364098D01*
X202767789Y-112309357D01*
X202767792Y-112309355D01*
X202772300Y-112306198D01*
X202934198Y-112144300D01*
X202942905Y-112131866D01*
X203011965Y-112033238D01*
X203065523Y-111956749D01*
X203067846Y-111951767D01*
X203067849Y-111951762D01*
X203159961Y-111754225D01*
X203159961Y-111754224D01*
X203162284Y-111749243D01*
X203179650Y-111684435D01*
X203220119Y-111533402D01*
X203220119Y-111533400D01*
X203221543Y-111528087D01*
X203241498Y-111300000D01*
X203221543Y-111071913D01*
X203216971Y-111054849D01*
X203163707Y-110856067D01*
X203163706Y-110856065D01*
X203162284Y-110850757D01*
X203141618Y-110806438D01*
X203067849Y-110648238D01*
X203067846Y-110648233D01*
X203065523Y-110643251D01*
X202973337Y-110511596D01*
X202937357Y-110460211D01*
X202937355Y-110460208D01*
X202934198Y-110455700D01*
X202772300Y-110293802D01*
X202767792Y-110290645D01*
X202767789Y-110290643D01*
X202689611Y-110235902D01*
X202584749Y-110162477D01*
X202579767Y-110160154D01*
X202579762Y-110160151D01*
X202382225Y-110068039D01*
X202382224Y-110068039D01*
X202377243Y-110065716D01*
X202371935Y-110064294D01*
X202371933Y-110064293D01*
X202268981Y-110036707D01*
X202208358Y-109999755D01*
X202177337Y-109935894D01*
X202185765Y-109865400D01*
X202230968Y-109810653D01*
X202268981Y-109793293D01*
X202371933Y-109765707D01*
X202371935Y-109765706D01*
X202377243Y-109764284D01*
X202382225Y-109761961D01*
X202579762Y-109669849D01*
X202579767Y-109669846D01*
X202584749Y-109667523D01*
X202692798Y-109591866D01*
X202767789Y-109539357D01*
X202767792Y-109539355D01*
X202772300Y-109536198D01*
X202934198Y-109374300D01*
X202957947Y-109340384D01*
X202992098Y-109291611D01*
X203065523Y-109186749D01*
X203067846Y-109181767D01*
X203067849Y-109181762D01*
X203159961Y-108984225D01*
X203159961Y-108984224D01*
X203162284Y-108979243D01*
X203170381Y-108949027D01*
X203220119Y-108763402D01*
X203220119Y-108763400D01*
X203221543Y-108758087D01*
X203241498Y-108530000D01*
X203221543Y-108301913D01*
X203216971Y-108284849D01*
X203163707Y-108086067D01*
X203163706Y-108086065D01*
X203162284Y-108080757D01*
X203123104Y-107996735D01*
X203067849Y-107878238D01*
X203067846Y-107878233D01*
X203065523Y-107873251D01*
X202940240Y-107694329D01*
X202937357Y-107690211D01*
X202937355Y-107690208D01*
X202934198Y-107685700D01*
X202772300Y-107523802D01*
X202767792Y-107520645D01*
X202767789Y-107520643D01*
X202625408Y-107420947D01*
X202584749Y-107392477D01*
X202579767Y-107390154D01*
X202579762Y-107390151D01*
X202382225Y-107298039D01*
X202382224Y-107298039D01*
X202377243Y-107295716D01*
X202268014Y-107266448D01*
X202207392Y-107229496D01*
X202176370Y-107165635D01*
X202184799Y-107095141D01*
X202230002Y-107040394D01*
X202268015Y-107023034D01*
X202371761Y-106995236D01*
X202382053Y-106991490D01*
X202579511Y-106899414D01*
X202589006Y-106893931D01*
X202641048Y-106857491D01*
X202649424Y-106847012D01*
X202642356Y-106833566D01*
X201940812Y-106132022D01*
X201926868Y-106124408D01*
X201925035Y-106124539D01*
X201918420Y-106128790D01*
X201212923Y-106834287D01*
X201206493Y-106846062D01*
X201215789Y-106858077D01*
X201266994Y-106893931D01*
X201276489Y-106899414D01*
X201473947Y-106991490D01*
X201484239Y-106995236D01*
X201587985Y-107023034D01*
X201648608Y-107059985D01*
X201679629Y-107123846D01*
X201671201Y-107194340D01*
X201625998Y-107249088D01*
X201587986Y-107266448D01*
X201478757Y-107295716D01*
X201473776Y-107298039D01*
X201473775Y-107298039D01*
X201276238Y-107390151D01*
X201276233Y-107390154D01*
X201271251Y-107392477D01*
X201230592Y-107420947D01*
X201088211Y-107520643D01*
X201088208Y-107520645D01*
X201083700Y-107523802D01*
X200921802Y-107685700D01*
X200918645Y-107690208D01*
X200918643Y-107690211D01*
X200915760Y-107694329D01*
X200790477Y-107873251D01*
X200788154Y-107878233D01*
X200788151Y-107878238D01*
X200732896Y-107996735D01*
X200693716Y-108080757D01*
X200692294Y-108086065D01*
X200692293Y-108086067D01*
X200639029Y-108284849D01*
X200634457Y-108301913D01*
X200614502Y-108530000D01*
X200634457Y-108758087D01*
X200635881Y-108763400D01*
X200635881Y-108763402D01*
X200685620Y-108949027D01*
X200693716Y-108979243D01*
X200696039Y-108984224D01*
X200696039Y-108984225D01*
X200788151Y-109181762D01*
X200788154Y-109181767D01*
X200790477Y-109186749D01*
X200863902Y-109291611D01*
X200898054Y-109340384D01*
X200921802Y-109374300D01*
X201083700Y-109536198D01*
X201088208Y-109539355D01*
X201088211Y-109539357D01*
X201163202Y-109591866D01*
X201271251Y-109667523D01*
X201276233Y-109669846D01*
X201276238Y-109669849D01*
X201473775Y-109761961D01*
X201478757Y-109764284D01*
X201484065Y-109765706D01*
X201484067Y-109765707D01*
X201587019Y-109793293D01*
X201647642Y-109830245D01*
X201678663Y-109894106D01*
X201670235Y-109964600D01*
X201625032Y-110019347D01*
X201587019Y-110036707D01*
X201484067Y-110064293D01*
X201484065Y-110064294D01*
X201478757Y-110065716D01*
X201473776Y-110068039D01*
X201473775Y-110068039D01*
X201276238Y-110160151D01*
X201276233Y-110160154D01*
X201271251Y-110162477D01*
X201166389Y-110235902D01*
X201088211Y-110290643D01*
X201088208Y-110290645D01*
X201083700Y-110293802D01*
X200921802Y-110455700D01*
X200918645Y-110460208D01*
X200918643Y-110460211D01*
X200882663Y-110511596D01*
X200790477Y-110643251D01*
X200788154Y-110648233D01*
X200788151Y-110648238D01*
X200714382Y-110806438D01*
X200693716Y-110850757D01*
X200692294Y-110856065D01*
X200692293Y-110856067D01*
X200639029Y-111054849D01*
X200634457Y-111071913D01*
X200614502Y-111300000D01*
X200634457Y-111528087D01*
X200635881Y-111533400D01*
X200635881Y-111533402D01*
X200676351Y-111684435D01*
X200693716Y-111749243D01*
X200696039Y-111754224D01*
X200696039Y-111754225D01*
X200788151Y-111951762D01*
X200788154Y-111951767D01*
X200790477Y-111956749D01*
X200844035Y-112033238D01*
X200913096Y-112131866D01*
X200921802Y-112144300D01*
X201083700Y-112306198D01*
X201088208Y-112309355D01*
X201088211Y-112309357D01*
X201166389Y-112364098D01*
X201271251Y-112437523D01*
X201276233Y-112439846D01*
X201276238Y-112439849D01*
X201473775Y-112531961D01*
X201478757Y-112534284D01*
X201484065Y-112535706D01*
X201484067Y-112535707D01*
X201587019Y-112563293D01*
X201647642Y-112600245D01*
X201678663Y-112664106D01*
X201670235Y-112734600D01*
X201625032Y-112789347D01*
X201587019Y-112806707D01*
X201484067Y-112834293D01*
X201484065Y-112834294D01*
X201478757Y-112835716D01*
X201473776Y-112838039D01*
X201473775Y-112838039D01*
X201276238Y-112930151D01*
X201276233Y-112930154D01*
X201271251Y-112932477D01*
X201172175Y-113001851D01*
X201088211Y-113060643D01*
X201088208Y-113060645D01*
X201083700Y-113063802D01*
X200921802Y-113225700D01*
X200790477Y-113413251D01*
X200788154Y-113418233D01*
X200788151Y-113418238D01*
X200696039Y-113615775D01*
X200693716Y-113620757D01*
X200692294Y-113626065D01*
X200692293Y-113626067D01*
X200639029Y-113824849D01*
X200634457Y-113841913D01*
X200614502Y-114070000D01*
X200634457Y-114298087D01*
X200635881Y-114303400D01*
X200635881Y-114303402D01*
X200639653Y-114317477D01*
X200693716Y-114519243D01*
X200696039Y-114524224D01*
X200696039Y-114524225D01*
X200788151Y-114721762D01*
X200788154Y-114721767D01*
X200790477Y-114726749D01*
X200844035Y-114803238D01*
X200909020Y-114896045D01*
X200921802Y-114914300D01*
X201083700Y-115076198D01*
X201088208Y-115079355D01*
X201088211Y-115079357D01*
X201116967Y-115099492D01*
X201271251Y-115207523D01*
X201276233Y-115209846D01*
X201276238Y-115209849D01*
X201381447Y-115258908D01*
X201478757Y-115304284D01*
X201484065Y-115305706D01*
X201484067Y-115305707D01*
X201587019Y-115333293D01*
X201647642Y-115370245D01*
X201678663Y-115434106D01*
X201670235Y-115504600D01*
X201625032Y-115559347D01*
X201587019Y-115576707D01*
X201484067Y-115604293D01*
X201484065Y-115604294D01*
X201478757Y-115605716D01*
X201473776Y-115608039D01*
X201473775Y-115608039D01*
X201276238Y-115700151D01*
X201276233Y-115700154D01*
X201271251Y-115702477D01*
X201198576Y-115753365D01*
X201088211Y-115830643D01*
X201088208Y-115830645D01*
X201083700Y-115833802D01*
X200921802Y-115995700D01*
X200790477Y-116183251D01*
X200788154Y-116188233D01*
X200788151Y-116188238D01*
X200707537Y-116361118D01*
X200693716Y-116390757D01*
X200692294Y-116396065D01*
X200692293Y-116396067D01*
X200635881Y-116606598D01*
X200634457Y-116611913D01*
X200614502Y-116840000D01*
X199503304Y-116840000D01*
X199493609Y-116772568D01*
X199523103Y-116707988D01*
X199565077Y-116676305D01*
X199739762Y-116594849D01*
X199739767Y-116594846D01*
X199744749Y-116592523D01*
X199897396Y-116485638D01*
X199927789Y-116464357D01*
X199927792Y-116464355D01*
X199932300Y-116461198D01*
X200094198Y-116299300D01*
X200126794Y-116252749D01*
X200171965Y-116188238D01*
X200225523Y-116111749D01*
X200227846Y-116106767D01*
X200227849Y-116106762D01*
X200319961Y-115909225D01*
X200319961Y-115909224D01*
X200322284Y-115904243D01*
X200324687Y-115895277D01*
X200380119Y-115688402D01*
X200380119Y-115688400D01*
X200381543Y-115683087D01*
X200401498Y-115455000D01*
X200381543Y-115226913D01*
X200379409Y-115218947D01*
X200323707Y-115011067D01*
X200323706Y-115011065D01*
X200322284Y-115005757D01*
X200306320Y-114971522D01*
X200227849Y-114803238D01*
X200227846Y-114803233D01*
X200225523Y-114798251D01*
X200137027Y-114671866D01*
X200097357Y-114615211D01*
X200097355Y-114615208D01*
X200094198Y-114610700D01*
X199932300Y-114448802D01*
X199927792Y-114445645D01*
X199927789Y-114445643D01*
X199807787Y-114361617D01*
X199744749Y-114317477D01*
X199739767Y-114315154D01*
X199739762Y-114315151D01*
X199542225Y-114223039D01*
X199542224Y-114223039D01*
X199537243Y-114220716D01*
X199531935Y-114219294D01*
X199531933Y-114219293D01*
X199428981Y-114191707D01*
X199368358Y-114154755D01*
X199337337Y-114090894D01*
X199345765Y-114020400D01*
X199390968Y-113965653D01*
X199428981Y-113948293D01*
X199531933Y-113920707D01*
X199531935Y-113920706D01*
X199537243Y-113919284D01*
X199625053Y-113878338D01*
X199739762Y-113824849D01*
X199739767Y-113824846D01*
X199744749Y-113822523D01*
X199849611Y-113749098D01*
X199927789Y-113694357D01*
X199927792Y-113694355D01*
X199932300Y-113691198D01*
X200094198Y-113529300D01*
X200225523Y-113341749D01*
X200227846Y-113336767D01*
X200227849Y-113336762D01*
X200319961Y-113139225D01*
X200319961Y-113139224D01*
X200322284Y-113134243D01*
X200323996Y-113127856D01*
X200380119Y-112918402D01*
X200380119Y-112918400D01*
X200381543Y-112913087D01*
X200401498Y-112685000D01*
X200381543Y-112456913D01*
X200376971Y-112439849D01*
X200323707Y-112241067D01*
X200323706Y-112241065D01*
X200322284Y-112235757D01*
X200319961Y-112230775D01*
X200227849Y-112033238D01*
X200227846Y-112033233D01*
X200225523Y-112028251D01*
X200094198Y-111840700D01*
X199932300Y-111678802D01*
X199927792Y-111675645D01*
X199927789Y-111675643D01*
X199788764Y-111578297D01*
X199744749Y-111547477D01*
X199739767Y-111545154D01*
X199739762Y-111545151D01*
X199542225Y-111453039D01*
X199542224Y-111453039D01*
X199537243Y-111450716D01*
X199531935Y-111449294D01*
X199531933Y-111449293D01*
X199428981Y-111421707D01*
X199368358Y-111384755D01*
X199337337Y-111320894D01*
X199345765Y-111250400D01*
X199390968Y-111195653D01*
X199428981Y-111178293D01*
X199531933Y-111150707D01*
X199531935Y-111150706D01*
X199537243Y-111149284D01*
X199543151Y-111146529D01*
X199739762Y-111054849D01*
X199739767Y-111054846D01*
X199744749Y-111052523D01*
X199849611Y-110979098D01*
X199927789Y-110924357D01*
X199927792Y-110924355D01*
X199932300Y-110921198D01*
X200094198Y-110759300D01*
X200225523Y-110571749D01*
X200227846Y-110566767D01*
X200227849Y-110566762D01*
X200319961Y-110369225D01*
X200319961Y-110369224D01*
X200322284Y-110364243D01*
X200373732Y-110172240D01*
X200380119Y-110148402D01*
X200380119Y-110148400D01*
X200381543Y-110143087D01*
X200401498Y-109915000D01*
X200381543Y-109686913D01*
X200376931Y-109669702D01*
X200323707Y-109471067D01*
X200323706Y-109471065D01*
X200322284Y-109465757D01*
X200303048Y-109424505D01*
X200227849Y-109263238D01*
X200227846Y-109263233D01*
X200225523Y-109258251D01*
X200134891Y-109128816D01*
X200097357Y-109075211D01*
X200097355Y-109075208D01*
X200094198Y-109070700D01*
X199932300Y-108908802D01*
X199927792Y-108905645D01*
X199927789Y-108905643D01*
X199821075Y-108830921D01*
X199744749Y-108777477D01*
X199739767Y-108775154D01*
X199739762Y-108775151D01*
X199542225Y-108683039D01*
X199542224Y-108683039D01*
X199537243Y-108680716D01*
X199531935Y-108679294D01*
X199531933Y-108679293D01*
X199428981Y-108651707D01*
X199368358Y-108614755D01*
X199337337Y-108550894D01*
X199345765Y-108480400D01*
X199390968Y-108425653D01*
X199428981Y-108408293D01*
X199531933Y-108380707D01*
X199531935Y-108380706D01*
X199537243Y-108379284D01*
X199557820Y-108369689D01*
X199739762Y-108284849D01*
X199739767Y-108284846D01*
X199744749Y-108282523D01*
X199885457Y-108183998D01*
X199927789Y-108154357D01*
X199927792Y-108154355D01*
X199932300Y-108151198D01*
X200094198Y-107989300D01*
X200103064Y-107976639D01*
X200171965Y-107878238D01*
X200225523Y-107801749D01*
X200227846Y-107796767D01*
X200227849Y-107796762D01*
X200319961Y-107599225D01*
X200319961Y-107599224D01*
X200322284Y-107594243D01*
X200336591Y-107540851D01*
X200380119Y-107378402D01*
X200380119Y-107378400D01*
X200381543Y-107373087D01*
X200401498Y-107145000D01*
X200381543Y-106916913D01*
X200365621Y-106857491D01*
X200323707Y-106701067D01*
X200323706Y-106701065D01*
X200322284Y-106695757D01*
X200319355Y-106689475D01*
X200227849Y-106493238D01*
X200227846Y-106493233D01*
X200225523Y-106488251D01*
X200111116Y-106324861D01*
X200097357Y-106305211D01*
X200097355Y-106305208D01*
X200094198Y-106300700D01*
X199932300Y-106138802D01*
X199927792Y-106135645D01*
X199927789Y-106135643D01*
X199789571Y-106038862D01*
X199744749Y-106007477D01*
X199739767Y-106005154D01*
X199739762Y-106005151D01*
X199542225Y-105913039D01*
X199542224Y-105913039D01*
X199537243Y-105910716D01*
X199531935Y-105909294D01*
X199531933Y-105909293D01*
X199428981Y-105881707D01*
X199368358Y-105844755D01*
X199337337Y-105780894D01*
X199339180Y-105765475D01*
X200615483Y-105765475D01*
X200634472Y-105982519D01*
X200636375Y-105993312D01*
X200692764Y-106203761D01*
X200696510Y-106214053D01*
X200788586Y-106411511D01*
X200794069Y-106421006D01*
X200830509Y-106473048D01*
X200840988Y-106481424D01*
X200854434Y-106474356D01*
X201555978Y-105772812D01*
X201562356Y-105761132D01*
X202292408Y-105761132D01*
X202292539Y-105762965D01*
X202296790Y-105769580D01*
X203002287Y-106475077D01*
X203014062Y-106481507D01*
X203026077Y-106472211D01*
X203061931Y-106421006D01*
X203067414Y-106411511D01*
X203159490Y-106214053D01*
X203163236Y-106203761D01*
X203219625Y-105993312D01*
X203221528Y-105982519D01*
X203240517Y-105765475D01*
X203240517Y-105754525D01*
X203221528Y-105537481D01*
X203219625Y-105526688D01*
X203163236Y-105316239D01*
X203159490Y-105305947D01*
X203067414Y-105108489D01*
X203061931Y-105098994D01*
X203025491Y-105046952D01*
X203015012Y-105038576D01*
X203001566Y-105045644D01*
X202300022Y-105747188D01*
X202292408Y-105761132D01*
X201562356Y-105761132D01*
X201563592Y-105758868D01*
X201563461Y-105757035D01*
X201559210Y-105750420D01*
X200853713Y-105044923D01*
X200841938Y-105038493D01*
X200829923Y-105047789D01*
X200794069Y-105098994D01*
X200788586Y-105108489D01*
X200696510Y-105305947D01*
X200692764Y-105316239D01*
X200636375Y-105526688D01*
X200634472Y-105537481D01*
X200615483Y-105754525D01*
X200615483Y-105765475D01*
X199339180Y-105765475D01*
X199345765Y-105710400D01*
X199390968Y-105655653D01*
X199428981Y-105638293D01*
X199531933Y-105610707D01*
X199531935Y-105610706D01*
X199537243Y-105609284D01*
X199542225Y-105606961D01*
X199739762Y-105514849D01*
X199739767Y-105514846D01*
X199744749Y-105512523D01*
X199895957Y-105406646D01*
X199927789Y-105384357D01*
X199927792Y-105384355D01*
X199932300Y-105381198D01*
X200094198Y-105219300D01*
X200098227Y-105213547D01*
X200178437Y-105098994D01*
X200225523Y-105031749D01*
X200227846Y-105026767D01*
X200227849Y-105026762D01*
X200319961Y-104829225D01*
X200319961Y-104829224D01*
X200322284Y-104824243D01*
X200328421Y-104801342D01*
X200380119Y-104608402D01*
X200380119Y-104608400D01*
X200381543Y-104603087D01*
X200401498Y-104375000D01*
X200381543Y-104146913D01*
X200365621Y-104087491D01*
X200362559Y-104076062D01*
X201206493Y-104076062D01*
X201215789Y-104088077D01*
X201266994Y-104123931D01*
X201276489Y-104129414D01*
X201473947Y-104221490D01*
X201484239Y-104225236D01*
X201588950Y-104253293D01*
X201649573Y-104290245D01*
X201680594Y-104354105D01*
X201672166Y-104424600D01*
X201626963Y-104479347D01*
X201588950Y-104496707D01*
X201484239Y-104524764D01*
X201473947Y-104528510D01*
X201276489Y-104620586D01*
X201266994Y-104626069D01*
X201214952Y-104662509D01*
X201206576Y-104672988D01*
X201213644Y-104686434D01*
X201915188Y-105387978D01*
X201929132Y-105395592D01*
X201930965Y-105395461D01*
X201937580Y-105391210D01*
X202643077Y-104685713D01*
X202649507Y-104673938D01*
X202640211Y-104661923D01*
X202589006Y-104626069D01*
X202579511Y-104620586D01*
X202382053Y-104528510D01*
X202371761Y-104524764D01*
X202267050Y-104496707D01*
X202206427Y-104459755D01*
X202175406Y-104395895D01*
X202183834Y-104325400D01*
X202229037Y-104270653D01*
X202267050Y-104253293D01*
X202371761Y-104225236D01*
X202382053Y-104221490D01*
X202579511Y-104129414D01*
X202589006Y-104123931D01*
X202641048Y-104087491D01*
X202649424Y-104077012D01*
X202642356Y-104063566D01*
X201940812Y-103362022D01*
X201926868Y-103354408D01*
X201925035Y-103354539D01*
X201918420Y-103358790D01*
X201212923Y-104064287D01*
X201206493Y-104076062D01*
X200362559Y-104076062D01*
X200323707Y-103931067D01*
X200323706Y-103931065D01*
X200322284Y-103925757D01*
X200295831Y-103869027D01*
X200227849Y-103723238D01*
X200227846Y-103723233D01*
X200225523Y-103718251D01*
X200094198Y-103530700D01*
X199932300Y-103368802D01*
X199927792Y-103365645D01*
X199927789Y-103365643D01*
X199831170Y-103297990D01*
X199744749Y-103237477D01*
X199739767Y-103235154D01*
X199739762Y-103235151D01*
X199542225Y-103143039D01*
X199542224Y-103143039D01*
X199537243Y-103140716D01*
X199531935Y-103139294D01*
X199531933Y-103139293D01*
X199428981Y-103111707D01*
X199368358Y-103074755D01*
X199337337Y-103010894D01*
X199339180Y-102995475D01*
X200615483Y-102995475D01*
X200634472Y-103212519D01*
X200636375Y-103223312D01*
X200692764Y-103433761D01*
X200696510Y-103444053D01*
X200788586Y-103641511D01*
X200794069Y-103651006D01*
X200830509Y-103703048D01*
X200840988Y-103711424D01*
X200854434Y-103704356D01*
X201555978Y-103002812D01*
X201562356Y-102991132D01*
X202292408Y-102991132D01*
X202292539Y-102992965D01*
X202296790Y-102999580D01*
X203002287Y-103705077D01*
X203014062Y-103711507D01*
X203026077Y-103702211D01*
X203061931Y-103651006D01*
X203067414Y-103641511D01*
X203159490Y-103444053D01*
X203163236Y-103433761D01*
X203219625Y-103223312D01*
X203221528Y-103212519D01*
X203240517Y-102995475D01*
X203240517Y-102984525D01*
X203221528Y-102767481D01*
X203219625Y-102756688D01*
X203163236Y-102546239D01*
X203159490Y-102535947D01*
X203067414Y-102338489D01*
X203061931Y-102328994D01*
X203025491Y-102276952D01*
X203015012Y-102268576D01*
X203001566Y-102275644D01*
X202300022Y-102977188D01*
X202292408Y-102991132D01*
X201562356Y-102991132D01*
X201563592Y-102988868D01*
X201563461Y-102987035D01*
X201559210Y-102980420D01*
X200853713Y-102274923D01*
X200841938Y-102268493D01*
X200829923Y-102277789D01*
X200794069Y-102328994D01*
X200788586Y-102338489D01*
X200696510Y-102535947D01*
X200692764Y-102546239D01*
X200636375Y-102756688D01*
X200634472Y-102767481D01*
X200615483Y-102984525D01*
X200615483Y-102995475D01*
X199339180Y-102995475D01*
X199345765Y-102940400D01*
X199390968Y-102885653D01*
X199428981Y-102868293D01*
X199531933Y-102840707D01*
X199531935Y-102840706D01*
X199537243Y-102839284D01*
X199553803Y-102831562D01*
X199739762Y-102744849D01*
X199739767Y-102744846D01*
X199744749Y-102742523D01*
X199849611Y-102669098D01*
X199927789Y-102614357D01*
X199927792Y-102614355D01*
X199932300Y-102611198D01*
X200094198Y-102449300D01*
X200225523Y-102261749D01*
X200227846Y-102256767D01*
X200227849Y-102256762D01*
X200319961Y-102059225D01*
X200319961Y-102059224D01*
X200322284Y-102054243D01*
X200343442Y-101975283D01*
X200380119Y-101838402D01*
X200380119Y-101838400D01*
X200381543Y-101833087D01*
X200401498Y-101605000D01*
X200381543Y-101376913D01*
X200375296Y-101353598D01*
X200362559Y-101306062D01*
X201206493Y-101306062D01*
X201215789Y-101318077D01*
X201266994Y-101353931D01*
X201276489Y-101359414D01*
X201473947Y-101451490D01*
X201484239Y-101455236D01*
X201588950Y-101483293D01*
X201649573Y-101520245D01*
X201680594Y-101584105D01*
X201672166Y-101654600D01*
X201626963Y-101709347D01*
X201588950Y-101726707D01*
X201484239Y-101754764D01*
X201473947Y-101758510D01*
X201276489Y-101850586D01*
X201266994Y-101856069D01*
X201214952Y-101892509D01*
X201206576Y-101902988D01*
X201213644Y-101916434D01*
X201915188Y-102617978D01*
X201929132Y-102625592D01*
X201930965Y-102625461D01*
X201937580Y-102621210D01*
X202643077Y-101915713D01*
X202649507Y-101903938D01*
X202640211Y-101891923D01*
X202589006Y-101856069D01*
X202579511Y-101850586D01*
X202382053Y-101758510D01*
X202371761Y-101754764D01*
X202267050Y-101726707D01*
X202206427Y-101689755D01*
X202175406Y-101625895D01*
X202183834Y-101555400D01*
X202229037Y-101500653D01*
X202267050Y-101483293D01*
X202371761Y-101455236D01*
X202382053Y-101451490D01*
X202579511Y-101359414D01*
X202589006Y-101353931D01*
X202641048Y-101317491D01*
X202649424Y-101307012D01*
X202642356Y-101293566D01*
X201940812Y-100592022D01*
X201926868Y-100584408D01*
X201925035Y-100584539D01*
X201918420Y-100588790D01*
X201212923Y-101294287D01*
X201206493Y-101306062D01*
X200362559Y-101306062D01*
X200323707Y-101161067D01*
X200323706Y-101161065D01*
X200322284Y-101155757D01*
X200305562Y-101119896D01*
X200227849Y-100953238D01*
X200227846Y-100953233D01*
X200225523Y-100948251D01*
X200094198Y-100760700D01*
X199932300Y-100598802D01*
X199927792Y-100595645D01*
X199927789Y-100595643D01*
X199849611Y-100540902D01*
X199744749Y-100467477D01*
X199739767Y-100465154D01*
X199739762Y-100465151D01*
X199542225Y-100373039D01*
X199542224Y-100373039D01*
X199537243Y-100370716D01*
X199531935Y-100369294D01*
X199531933Y-100369293D01*
X199428981Y-100341707D01*
X199368358Y-100304755D01*
X199337337Y-100240894D01*
X199339180Y-100225475D01*
X200615483Y-100225475D01*
X200634472Y-100442519D01*
X200636375Y-100453312D01*
X200692764Y-100663761D01*
X200696510Y-100674053D01*
X200788586Y-100871511D01*
X200794069Y-100881006D01*
X200830509Y-100933048D01*
X200840988Y-100941424D01*
X200854434Y-100934356D01*
X201555978Y-100232812D01*
X201562356Y-100221132D01*
X202292408Y-100221132D01*
X202292539Y-100222965D01*
X202296790Y-100229580D01*
X203002287Y-100935077D01*
X203014062Y-100941507D01*
X203026077Y-100932211D01*
X203061931Y-100881006D01*
X203067414Y-100871511D01*
X203159490Y-100674053D01*
X203163236Y-100663761D01*
X203219625Y-100453312D01*
X203221528Y-100442519D01*
X203240517Y-100225475D01*
X203240517Y-100214525D01*
X203221528Y-99997481D01*
X203219625Y-99986688D01*
X203163236Y-99776239D01*
X203159490Y-99765947D01*
X203067414Y-99568489D01*
X203061931Y-99558994D01*
X203025491Y-99506952D01*
X203015012Y-99498576D01*
X203001566Y-99505644D01*
X202300022Y-100207188D01*
X202292408Y-100221132D01*
X201562356Y-100221132D01*
X201563592Y-100218868D01*
X201563461Y-100217035D01*
X201559210Y-100210420D01*
X200853713Y-99504923D01*
X200841938Y-99498493D01*
X200829923Y-99507789D01*
X200794069Y-99558994D01*
X200788586Y-99568489D01*
X200696510Y-99765947D01*
X200692764Y-99776239D01*
X200636375Y-99986688D01*
X200634472Y-99997481D01*
X200615483Y-100214525D01*
X200615483Y-100225475D01*
X199339180Y-100225475D01*
X199345765Y-100170400D01*
X199390968Y-100115653D01*
X199428981Y-100098293D01*
X199531933Y-100070707D01*
X199531935Y-100070706D01*
X199537243Y-100069284D01*
X199542225Y-100066961D01*
X199739762Y-99974849D01*
X199739767Y-99974846D01*
X199744749Y-99972523D01*
X199849611Y-99899098D01*
X199927789Y-99844357D01*
X199927792Y-99844355D01*
X199932300Y-99841198D01*
X200094198Y-99679300D01*
X200225523Y-99491749D01*
X200227846Y-99486767D01*
X200227849Y-99486762D01*
X200319961Y-99289225D01*
X200319961Y-99289224D01*
X200322284Y-99284243D01*
X200324579Y-99275680D01*
X200380119Y-99068402D01*
X200380119Y-99068400D01*
X200381543Y-99063087D01*
X200401498Y-98835000D01*
X200381543Y-98606913D01*
X200380119Y-98601598D01*
X200362559Y-98536062D01*
X201206493Y-98536062D01*
X201215789Y-98548077D01*
X201266994Y-98583931D01*
X201276489Y-98589414D01*
X201473947Y-98681490D01*
X201484239Y-98685236D01*
X201588950Y-98713293D01*
X201649573Y-98750245D01*
X201680594Y-98814105D01*
X201672166Y-98884600D01*
X201626963Y-98939347D01*
X201588950Y-98956707D01*
X201484239Y-98984764D01*
X201473947Y-98988510D01*
X201276489Y-99080586D01*
X201266994Y-99086069D01*
X201214952Y-99122509D01*
X201206576Y-99132988D01*
X201213644Y-99146434D01*
X201915188Y-99847978D01*
X201929132Y-99855592D01*
X201930965Y-99855461D01*
X201937580Y-99851210D01*
X202643077Y-99145713D01*
X202649507Y-99133938D01*
X202640211Y-99121923D01*
X202589006Y-99086069D01*
X202579511Y-99080586D01*
X202382053Y-98988510D01*
X202371761Y-98984764D01*
X202267050Y-98956707D01*
X202206427Y-98919755D01*
X202175406Y-98855895D01*
X202183834Y-98785400D01*
X202229037Y-98730653D01*
X202267050Y-98713293D01*
X202371761Y-98685236D01*
X202382053Y-98681490D01*
X202579511Y-98589414D01*
X202589006Y-98583931D01*
X202641048Y-98547491D01*
X202649424Y-98537012D01*
X202642356Y-98523566D01*
X201940812Y-97822022D01*
X201926868Y-97814408D01*
X201925035Y-97814539D01*
X201918420Y-97818790D01*
X201212923Y-98524287D01*
X201206493Y-98536062D01*
X200362559Y-98536062D01*
X200323707Y-98391067D01*
X200323706Y-98391065D01*
X200322284Y-98385757D01*
X200275965Y-98286424D01*
X200227849Y-98183238D01*
X200227846Y-98183233D01*
X200225523Y-98178251D01*
X200094198Y-97990700D01*
X199932300Y-97828802D01*
X199927792Y-97825645D01*
X199927789Y-97825643D01*
X199796005Y-97733367D01*
X199744749Y-97697477D01*
X199739767Y-97695154D01*
X199739762Y-97695151D01*
X199542225Y-97603039D01*
X199542224Y-97603039D01*
X199537243Y-97600716D01*
X199531935Y-97599294D01*
X199531933Y-97599293D01*
X199428981Y-97571707D01*
X199368358Y-97534755D01*
X199337337Y-97470894D01*
X199339180Y-97455475D01*
X200615483Y-97455475D01*
X200634472Y-97672519D01*
X200636375Y-97683312D01*
X200692764Y-97893761D01*
X200696510Y-97904053D01*
X200788586Y-98101511D01*
X200794069Y-98111006D01*
X200830509Y-98163048D01*
X200840988Y-98171424D01*
X200854434Y-98164356D01*
X201555978Y-97462812D01*
X201562356Y-97451132D01*
X202292408Y-97451132D01*
X202292539Y-97452965D01*
X202296790Y-97459580D01*
X203002287Y-98165077D01*
X203014062Y-98171507D01*
X203026077Y-98162211D01*
X203061931Y-98111006D01*
X203067414Y-98101511D01*
X203159490Y-97904053D01*
X203163236Y-97893761D01*
X203219625Y-97683312D01*
X203221528Y-97672519D01*
X203240517Y-97455475D01*
X203240517Y-97444525D01*
X203221528Y-97227481D01*
X203219625Y-97216688D01*
X203163236Y-97006239D01*
X203159490Y-96995947D01*
X203067414Y-96798489D01*
X203061931Y-96788994D01*
X203025491Y-96736952D01*
X203015012Y-96728576D01*
X203001566Y-96735644D01*
X202300022Y-97437188D01*
X202292408Y-97451132D01*
X201562356Y-97451132D01*
X201563592Y-97448868D01*
X201563461Y-97447035D01*
X201559210Y-97440420D01*
X200853713Y-96734923D01*
X200841938Y-96728493D01*
X200829923Y-96737789D01*
X200794069Y-96788994D01*
X200788586Y-96798489D01*
X200696510Y-96995947D01*
X200692764Y-97006239D01*
X200636375Y-97216688D01*
X200634472Y-97227481D01*
X200615483Y-97444525D01*
X200615483Y-97455475D01*
X199339180Y-97455475D01*
X199345765Y-97400400D01*
X199390968Y-97345653D01*
X199428981Y-97328293D01*
X199531933Y-97300707D01*
X199531935Y-97300706D01*
X199537243Y-97299284D01*
X199542225Y-97296961D01*
X199739762Y-97204849D01*
X199739767Y-97204846D01*
X199744749Y-97202523D01*
X199849611Y-97129098D01*
X199927789Y-97074357D01*
X199927792Y-97074355D01*
X199932300Y-97071198D01*
X200094198Y-96909300D01*
X200106406Y-96891866D01*
X200195350Y-96764840D01*
X200225523Y-96721749D01*
X200227846Y-96716767D01*
X200227849Y-96716762D01*
X200319961Y-96519225D01*
X200319961Y-96519224D01*
X200322284Y-96514243D01*
X200349667Y-96412051D01*
X200380119Y-96298402D01*
X200380119Y-96298400D01*
X200381543Y-96293087D01*
X200401498Y-96065000D01*
X200381543Y-95836913D01*
X200362813Y-95767012D01*
X200362558Y-95766062D01*
X201206493Y-95766062D01*
X201215789Y-95778077D01*
X201266994Y-95813931D01*
X201276489Y-95819414D01*
X201473947Y-95911490D01*
X201484239Y-95915236D01*
X201588950Y-95943293D01*
X201649573Y-95980245D01*
X201680594Y-96044105D01*
X201672166Y-96114600D01*
X201626963Y-96169347D01*
X201588950Y-96186707D01*
X201484239Y-96214764D01*
X201473947Y-96218510D01*
X201276489Y-96310586D01*
X201266994Y-96316069D01*
X201214952Y-96352509D01*
X201206576Y-96362988D01*
X201213644Y-96376434D01*
X201915188Y-97077978D01*
X201929132Y-97085592D01*
X201930965Y-97085461D01*
X201937580Y-97081210D01*
X202643077Y-96375713D01*
X202649507Y-96363938D01*
X202640211Y-96351923D01*
X202589006Y-96316069D01*
X202579511Y-96310586D01*
X202382053Y-96218510D01*
X202371761Y-96214764D01*
X202267050Y-96186707D01*
X202206427Y-96149755D01*
X202175406Y-96085895D01*
X202183834Y-96015400D01*
X202229037Y-95960653D01*
X202267050Y-95943293D01*
X202371761Y-95915236D01*
X202382053Y-95911490D01*
X202579511Y-95819414D01*
X202589006Y-95813931D01*
X202641048Y-95777491D01*
X202649424Y-95767012D01*
X202642356Y-95753566D01*
X201940812Y-95052022D01*
X201926868Y-95044408D01*
X201925035Y-95044539D01*
X201918420Y-95048790D01*
X201212923Y-95754287D01*
X201206493Y-95766062D01*
X200362558Y-95766062D01*
X200323707Y-95621067D01*
X200323706Y-95621065D01*
X200322284Y-95615757D01*
X200301450Y-95571077D01*
X200227849Y-95413238D01*
X200227846Y-95413233D01*
X200225523Y-95408251D01*
X200094198Y-95220700D01*
X199932300Y-95058802D01*
X199927792Y-95055645D01*
X199927789Y-95055643D01*
X199761074Y-94938908D01*
X199744749Y-94927477D01*
X199739767Y-94925154D01*
X199739762Y-94925151D01*
X199542225Y-94833039D01*
X199542224Y-94833039D01*
X199537243Y-94830716D01*
X199531935Y-94829294D01*
X199531933Y-94829293D01*
X199428981Y-94801707D01*
X199368358Y-94764755D01*
X199337337Y-94700894D01*
X199339180Y-94685475D01*
X200615483Y-94685475D01*
X200634472Y-94902519D01*
X200636375Y-94913312D01*
X200692764Y-95123761D01*
X200696510Y-95134053D01*
X200788586Y-95331511D01*
X200794069Y-95341006D01*
X200830509Y-95393048D01*
X200840988Y-95401424D01*
X200854434Y-95394356D01*
X201555978Y-94692812D01*
X201562356Y-94681132D01*
X202292408Y-94681132D01*
X202292539Y-94682965D01*
X202296790Y-94689580D01*
X203002287Y-95395077D01*
X203014062Y-95401507D01*
X203026077Y-95392211D01*
X203061931Y-95341006D01*
X203067414Y-95331511D01*
X203159490Y-95134053D01*
X203163236Y-95123761D01*
X203219625Y-94913312D01*
X203221528Y-94902519D01*
X203240517Y-94685475D01*
X203240517Y-94674525D01*
X203221528Y-94457481D01*
X203219625Y-94446688D01*
X203163236Y-94236239D01*
X203159490Y-94225947D01*
X203067414Y-94028489D01*
X203061931Y-94018994D01*
X203025491Y-93966952D01*
X203015012Y-93958576D01*
X203001566Y-93965644D01*
X202300022Y-94667188D01*
X202292408Y-94681132D01*
X201562356Y-94681132D01*
X201563592Y-94678868D01*
X201563461Y-94677035D01*
X201559210Y-94670420D01*
X200853713Y-93964923D01*
X200841938Y-93958493D01*
X200829923Y-93967789D01*
X200794069Y-94018994D01*
X200788586Y-94028489D01*
X200696510Y-94225947D01*
X200692764Y-94236239D01*
X200636375Y-94446688D01*
X200634472Y-94457481D01*
X200615483Y-94674525D01*
X200615483Y-94685475D01*
X199339180Y-94685475D01*
X199345765Y-94630400D01*
X199390968Y-94575653D01*
X199428981Y-94558293D01*
X199531933Y-94530707D01*
X199531935Y-94530706D01*
X199537243Y-94529284D01*
X199542225Y-94526961D01*
X199739762Y-94434849D01*
X199739767Y-94434846D01*
X199744749Y-94432523D01*
X199864732Y-94348510D01*
X199927789Y-94304357D01*
X199927792Y-94304355D01*
X199932300Y-94301198D01*
X200094198Y-94139300D01*
X200225523Y-93951749D01*
X200227846Y-93946767D01*
X200227849Y-93946762D01*
X200319961Y-93749225D01*
X200319961Y-93749224D01*
X200322284Y-93744243D01*
X200324279Y-93736800D01*
X200380119Y-93528402D01*
X200380119Y-93528400D01*
X200381543Y-93523087D01*
X200401498Y-93295000D01*
X200381543Y-93066913D01*
X200362813Y-92997012D01*
X200362558Y-92996062D01*
X201206493Y-92996062D01*
X201215789Y-93008077D01*
X201266994Y-93043931D01*
X201276489Y-93049414D01*
X201473947Y-93141490D01*
X201484239Y-93145236D01*
X201588950Y-93173293D01*
X201649573Y-93210245D01*
X201680594Y-93274105D01*
X201672166Y-93344600D01*
X201626963Y-93399347D01*
X201588950Y-93416707D01*
X201484239Y-93444764D01*
X201473947Y-93448510D01*
X201276489Y-93540586D01*
X201266994Y-93546069D01*
X201214952Y-93582509D01*
X201206576Y-93592988D01*
X201213644Y-93606434D01*
X201915188Y-94307978D01*
X201929132Y-94315592D01*
X201930965Y-94315461D01*
X201937580Y-94311210D01*
X202643077Y-93605713D01*
X202649507Y-93593938D01*
X202640211Y-93581923D01*
X202589006Y-93546069D01*
X202579511Y-93540586D01*
X202382053Y-93448510D01*
X202371761Y-93444764D01*
X202267050Y-93416707D01*
X202206427Y-93379755D01*
X202175406Y-93315895D01*
X202183834Y-93245400D01*
X202229037Y-93190653D01*
X202267050Y-93173293D01*
X202371761Y-93145236D01*
X202382053Y-93141490D01*
X202579511Y-93049414D01*
X202589006Y-93043931D01*
X202641048Y-93007491D01*
X202649424Y-92997012D01*
X202642356Y-92983566D01*
X201940812Y-92282022D01*
X201926868Y-92274408D01*
X201925035Y-92274539D01*
X201918420Y-92278790D01*
X201212923Y-92984287D01*
X201206493Y-92996062D01*
X200362558Y-92996062D01*
X200323707Y-92851067D01*
X200323706Y-92851065D01*
X200322284Y-92845757D01*
X200304611Y-92807856D01*
X200227849Y-92643238D01*
X200227846Y-92643233D01*
X200225523Y-92638251D01*
X200094198Y-92450700D01*
X199932300Y-92288802D01*
X199927792Y-92285645D01*
X199927789Y-92285643D01*
X199849611Y-92230902D01*
X199744749Y-92157477D01*
X199739767Y-92155154D01*
X199739762Y-92155151D01*
X199542225Y-92063039D01*
X199542224Y-92063039D01*
X199537243Y-92060716D01*
X199531935Y-92059294D01*
X199531933Y-92059293D01*
X199428981Y-92031707D01*
X199368358Y-91994755D01*
X199337337Y-91930894D01*
X199339180Y-91915475D01*
X200615483Y-91915475D01*
X200634472Y-92132519D01*
X200636375Y-92143312D01*
X200692764Y-92353761D01*
X200696510Y-92364053D01*
X200788586Y-92561511D01*
X200794069Y-92571006D01*
X200830509Y-92623048D01*
X200840988Y-92631424D01*
X200854434Y-92624356D01*
X201555978Y-91922812D01*
X201562356Y-91911132D01*
X202292408Y-91911132D01*
X202292539Y-91912965D01*
X202296790Y-91919580D01*
X203002287Y-92625077D01*
X203014062Y-92631507D01*
X203026077Y-92622211D01*
X203061931Y-92571006D01*
X203067414Y-92561511D01*
X203159490Y-92364053D01*
X203163236Y-92353761D01*
X203219625Y-92143312D01*
X203221528Y-92132519D01*
X203240517Y-91915475D01*
X203240517Y-91904525D01*
X203221528Y-91687481D01*
X203219625Y-91676688D01*
X203163236Y-91466239D01*
X203159490Y-91455947D01*
X203067414Y-91258489D01*
X203061931Y-91248994D01*
X203025491Y-91196952D01*
X203015012Y-91188576D01*
X203001566Y-91195644D01*
X202300022Y-91897188D01*
X202292408Y-91911132D01*
X201562356Y-91911132D01*
X201563592Y-91908868D01*
X201563461Y-91907035D01*
X201559210Y-91900420D01*
X200853713Y-91194923D01*
X200841938Y-91188493D01*
X200829923Y-91197789D01*
X200794069Y-91248994D01*
X200788586Y-91258489D01*
X200696510Y-91455947D01*
X200692764Y-91466239D01*
X200636375Y-91676688D01*
X200634472Y-91687481D01*
X200615483Y-91904525D01*
X200615483Y-91915475D01*
X199339180Y-91915475D01*
X199345765Y-91860400D01*
X199390968Y-91805653D01*
X199428981Y-91788293D01*
X199531933Y-91760707D01*
X199531935Y-91760706D01*
X199537243Y-91759284D01*
X199542225Y-91756961D01*
X199739762Y-91664849D01*
X199739767Y-91664846D01*
X199744749Y-91662523D01*
X199849611Y-91589098D01*
X199927789Y-91534357D01*
X199927792Y-91534355D01*
X199932300Y-91531198D01*
X200094198Y-91369300D01*
X200225523Y-91181749D01*
X200227846Y-91176767D01*
X200227849Y-91176762D01*
X200319961Y-90979225D01*
X200319961Y-90979224D01*
X200322284Y-90974243D01*
X200340669Y-90905632D01*
X200380119Y-90758402D01*
X200380119Y-90758400D01*
X200381543Y-90753087D01*
X200401498Y-90525000D01*
X200381543Y-90296913D01*
X200369350Y-90251409D01*
X200362558Y-90226062D01*
X201206493Y-90226062D01*
X201215789Y-90238077D01*
X201266994Y-90273931D01*
X201276489Y-90279414D01*
X201473947Y-90371490D01*
X201484239Y-90375236D01*
X201588950Y-90403293D01*
X201649573Y-90440245D01*
X201680594Y-90504105D01*
X201672166Y-90574600D01*
X201626963Y-90629347D01*
X201588950Y-90646707D01*
X201484239Y-90674764D01*
X201473947Y-90678510D01*
X201276489Y-90770586D01*
X201266994Y-90776069D01*
X201214952Y-90812509D01*
X201206576Y-90822988D01*
X201213644Y-90836434D01*
X201915188Y-91537978D01*
X201929132Y-91545592D01*
X201930965Y-91545461D01*
X201937580Y-91541210D01*
X202643077Y-90835713D01*
X202649507Y-90823938D01*
X202640211Y-90811923D01*
X202589006Y-90776069D01*
X202579511Y-90770586D01*
X202382053Y-90678510D01*
X202371761Y-90674764D01*
X202267050Y-90646707D01*
X202206427Y-90609755D01*
X202175406Y-90545895D01*
X202183834Y-90475400D01*
X202229037Y-90420653D01*
X202267050Y-90403293D01*
X202371761Y-90375236D01*
X202382053Y-90371490D01*
X202579511Y-90279414D01*
X202589006Y-90273931D01*
X202641048Y-90237491D01*
X202649424Y-90227012D01*
X202642356Y-90213566D01*
X201940812Y-89512022D01*
X201926868Y-89504408D01*
X201925035Y-89504539D01*
X201918420Y-89508790D01*
X201212923Y-90214287D01*
X201206493Y-90226062D01*
X200362558Y-90226062D01*
X200323707Y-90081067D01*
X200323706Y-90081065D01*
X200322284Y-90075757D01*
X200274623Y-89973547D01*
X200227849Y-89873238D01*
X200227846Y-89873233D01*
X200225523Y-89868251D01*
X200152098Y-89763389D01*
X200097357Y-89685211D01*
X200097355Y-89685208D01*
X200094198Y-89680700D01*
X199932300Y-89518802D01*
X199927792Y-89515645D01*
X199927789Y-89515643D01*
X199807229Y-89431226D01*
X199744749Y-89387477D01*
X199739767Y-89385154D01*
X199739762Y-89385151D01*
X199542225Y-89293039D01*
X199542224Y-89293039D01*
X199537243Y-89290716D01*
X199531935Y-89289294D01*
X199531933Y-89289293D01*
X199428981Y-89261707D01*
X199368358Y-89224755D01*
X199337337Y-89160894D01*
X199339180Y-89145475D01*
X200615483Y-89145475D01*
X200634472Y-89362519D01*
X200636375Y-89373312D01*
X200692764Y-89583761D01*
X200696510Y-89594053D01*
X200788586Y-89791511D01*
X200794069Y-89801006D01*
X200830509Y-89853048D01*
X200840988Y-89861424D01*
X200854434Y-89854356D01*
X201555978Y-89152812D01*
X201562356Y-89141132D01*
X202292408Y-89141132D01*
X202292539Y-89142965D01*
X202296790Y-89149580D01*
X203002287Y-89855077D01*
X203014062Y-89861507D01*
X203026077Y-89852211D01*
X203061931Y-89801006D01*
X203067414Y-89791511D01*
X203159490Y-89594053D01*
X203163236Y-89583761D01*
X203219625Y-89373312D01*
X203221528Y-89362519D01*
X203240517Y-89145475D01*
X203240517Y-89134525D01*
X203221528Y-88917481D01*
X203219625Y-88906688D01*
X203163236Y-88696239D01*
X203159490Y-88685947D01*
X203067414Y-88488489D01*
X203061931Y-88478994D01*
X203025491Y-88426952D01*
X203015012Y-88418576D01*
X203001566Y-88425644D01*
X202300022Y-89127188D01*
X202292408Y-89141132D01*
X201562356Y-89141132D01*
X201563592Y-89138868D01*
X201563461Y-89137035D01*
X201559210Y-89130420D01*
X200853713Y-88424923D01*
X200841938Y-88418493D01*
X200829923Y-88427789D01*
X200794069Y-88478994D01*
X200788586Y-88488489D01*
X200696510Y-88685947D01*
X200692764Y-88696239D01*
X200636375Y-88906688D01*
X200634472Y-88917481D01*
X200615483Y-89134525D01*
X200615483Y-89145475D01*
X199339180Y-89145475D01*
X199345765Y-89090400D01*
X199390968Y-89035653D01*
X199428981Y-89018293D01*
X199531933Y-88990707D01*
X199531935Y-88990706D01*
X199537243Y-88989284D01*
X199566664Y-88975565D01*
X199739762Y-88894849D01*
X199739767Y-88894846D01*
X199744749Y-88892523D01*
X199849611Y-88819098D01*
X199927789Y-88764357D01*
X199927792Y-88764355D01*
X199932300Y-88761198D01*
X200094198Y-88599300D01*
X200225523Y-88411749D01*
X200227846Y-88406767D01*
X200227849Y-88406762D01*
X200319961Y-88209225D01*
X200319961Y-88209224D01*
X200322284Y-88204243D01*
X200362559Y-88053938D01*
X200380119Y-87988402D01*
X200380119Y-87988400D01*
X200381543Y-87983087D01*
X200401498Y-87755000D01*
X200381543Y-87526913D01*
X200362813Y-87457012D01*
X200362558Y-87456062D01*
X201206493Y-87456062D01*
X201215789Y-87468077D01*
X201266994Y-87503931D01*
X201276489Y-87509414D01*
X201473947Y-87601490D01*
X201484239Y-87605236D01*
X201588950Y-87633293D01*
X201649573Y-87670245D01*
X201680594Y-87734105D01*
X201672166Y-87804600D01*
X201626963Y-87859347D01*
X201588950Y-87876707D01*
X201484239Y-87904764D01*
X201473947Y-87908510D01*
X201276489Y-88000586D01*
X201266994Y-88006069D01*
X201214952Y-88042509D01*
X201206576Y-88052988D01*
X201213644Y-88066434D01*
X201915188Y-88767978D01*
X201929132Y-88775592D01*
X201930965Y-88775461D01*
X201937580Y-88771210D01*
X202643077Y-88065713D01*
X202649507Y-88053938D01*
X202640211Y-88041923D01*
X202589006Y-88006069D01*
X202579511Y-88000586D01*
X202382053Y-87908510D01*
X202371761Y-87904764D01*
X202267050Y-87876707D01*
X202206427Y-87839755D01*
X202175406Y-87775895D01*
X202183834Y-87705400D01*
X202229037Y-87650653D01*
X202267050Y-87633293D01*
X202371761Y-87605236D01*
X202382053Y-87601490D01*
X202579511Y-87509414D01*
X202589006Y-87503931D01*
X202641048Y-87467491D01*
X202649424Y-87457012D01*
X202642356Y-87443566D01*
X201940812Y-86742022D01*
X201926868Y-86734408D01*
X201925035Y-86734539D01*
X201918420Y-86738790D01*
X201212923Y-87444287D01*
X201206493Y-87456062D01*
X200362558Y-87456062D01*
X200323707Y-87311067D01*
X200323706Y-87311065D01*
X200322284Y-87305757D01*
X200277894Y-87210562D01*
X200227849Y-87103238D01*
X200227846Y-87103233D01*
X200225523Y-87098251D01*
X200105912Y-86927429D01*
X200097357Y-86915211D01*
X200097355Y-86915208D01*
X200094198Y-86910700D01*
X199932300Y-86748802D01*
X199927792Y-86745645D01*
X199927789Y-86745643D01*
X199849611Y-86690902D01*
X199744749Y-86617477D01*
X199739767Y-86615154D01*
X199739762Y-86615151D01*
X199542225Y-86523039D01*
X199542224Y-86523039D01*
X199537243Y-86520716D01*
X199531935Y-86519294D01*
X199531933Y-86519293D01*
X199428981Y-86491707D01*
X199368358Y-86454755D01*
X199337337Y-86390894D01*
X199339180Y-86375475D01*
X200615483Y-86375475D01*
X200634472Y-86592519D01*
X200636375Y-86603312D01*
X200692764Y-86813761D01*
X200696510Y-86824053D01*
X200788586Y-87021511D01*
X200794069Y-87031006D01*
X200830509Y-87083048D01*
X200840988Y-87091424D01*
X200854434Y-87084356D01*
X201555978Y-86382812D01*
X201562356Y-86371132D01*
X202292408Y-86371132D01*
X202292539Y-86372965D01*
X202296790Y-86379580D01*
X203002287Y-87085077D01*
X203014062Y-87091507D01*
X203026077Y-87082211D01*
X203061931Y-87031006D01*
X203067414Y-87021511D01*
X203159490Y-86824053D01*
X203163236Y-86813761D01*
X203219625Y-86603312D01*
X203221528Y-86592519D01*
X203240517Y-86375475D01*
X203240517Y-86364525D01*
X203221528Y-86147481D01*
X203219625Y-86136688D01*
X203163236Y-85926239D01*
X203159490Y-85915947D01*
X203067414Y-85718489D01*
X203061931Y-85708994D01*
X203025491Y-85656952D01*
X203015012Y-85648576D01*
X203001566Y-85655644D01*
X202300022Y-86357188D01*
X202292408Y-86371132D01*
X201562356Y-86371132D01*
X201563592Y-86368868D01*
X201563461Y-86367035D01*
X201559210Y-86360420D01*
X200853713Y-85654923D01*
X200841938Y-85648493D01*
X200829923Y-85657789D01*
X200794069Y-85708994D01*
X200788586Y-85718489D01*
X200696510Y-85915947D01*
X200692764Y-85926239D01*
X200636375Y-86136688D01*
X200634472Y-86147481D01*
X200615483Y-86364525D01*
X200615483Y-86375475D01*
X199339180Y-86375475D01*
X199345765Y-86320400D01*
X199390968Y-86265653D01*
X199428981Y-86248293D01*
X199531933Y-86220707D01*
X199531935Y-86220706D01*
X199537243Y-86219284D01*
X199591699Y-86193891D01*
X199739762Y-86124849D01*
X199739767Y-86124846D01*
X199744749Y-86122523D01*
X199849611Y-86049098D01*
X199927789Y-85994357D01*
X199927792Y-85994355D01*
X199932300Y-85991198D01*
X200094198Y-85829300D01*
X200225523Y-85641749D01*
X200227846Y-85636767D01*
X200227849Y-85636762D01*
X200319961Y-85439225D01*
X200319961Y-85439224D01*
X200322284Y-85434243D01*
X200328492Y-85411077D01*
X200362813Y-85282988D01*
X201206576Y-85282988D01*
X201213644Y-85296434D01*
X201915188Y-85997978D01*
X201929132Y-86005592D01*
X201930965Y-86005461D01*
X201937580Y-86001210D01*
X202643077Y-85295713D01*
X202649507Y-85283938D01*
X202640211Y-85271923D01*
X202589006Y-85236069D01*
X202579511Y-85230586D01*
X202382053Y-85138510D01*
X202371761Y-85134764D01*
X202161312Y-85078375D01*
X202150519Y-85076472D01*
X201933475Y-85057483D01*
X201922525Y-85057483D01*
X201705481Y-85076472D01*
X201694688Y-85078375D01*
X201484239Y-85134764D01*
X201473947Y-85138510D01*
X201276489Y-85230586D01*
X201266994Y-85236069D01*
X201214952Y-85272509D01*
X201206576Y-85282988D01*
X200362813Y-85282988D01*
X200380119Y-85218402D01*
X200380119Y-85218400D01*
X200381543Y-85213087D01*
X200401498Y-84985000D01*
X200381543Y-84756913D01*
X200359781Y-84675695D01*
X200323707Y-84541067D01*
X200323706Y-84541065D01*
X200322284Y-84535757D01*
X200314004Y-84518000D01*
X200227849Y-84333238D01*
X200227846Y-84333233D01*
X200225523Y-84328251D01*
X200094198Y-84140700D01*
X199932300Y-83978802D01*
X199927792Y-83975645D01*
X199927789Y-83975643D01*
X199812830Y-83895148D01*
X199744749Y-83847477D01*
X199739767Y-83845154D01*
X199739762Y-83845151D01*
X199542225Y-83753039D01*
X199542224Y-83753039D01*
X199537243Y-83750716D01*
X199531935Y-83749294D01*
X199531933Y-83749293D01*
X199321402Y-83692881D01*
X199321400Y-83692881D01*
X199316087Y-83691457D01*
X199088000Y-83671502D01*
X198859913Y-83691457D01*
X198854600Y-83692881D01*
X198854598Y-83692881D01*
X198644067Y-83749293D01*
X198644065Y-83749294D01*
X198638757Y-83750716D01*
X198633776Y-83753039D01*
X198633775Y-83753039D01*
X198436238Y-83845151D01*
X198436233Y-83845154D01*
X198431251Y-83847477D01*
X198363170Y-83895148D01*
X198248211Y-83975643D01*
X198248208Y-83975645D01*
X198243700Y-83978802D01*
X198081802Y-84140700D01*
X197950477Y-84328251D01*
X197948154Y-84333233D01*
X197948151Y-84333238D01*
X197861996Y-84518000D01*
X197853716Y-84535757D01*
X197852294Y-84541065D01*
X197852293Y-84541067D01*
X197816219Y-84675695D01*
X197794457Y-84756913D01*
X197774502Y-84985000D01*
X197794457Y-85213087D01*
X197795881Y-85218400D01*
X197795881Y-85218402D01*
X197847509Y-85411077D01*
X197853716Y-85434243D01*
X197856039Y-85439224D01*
X197856039Y-85439225D01*
X197948151Y-85636762D01*
X197948154Y-85636767D01*
X197950477Y-85641749D01*
X198081802Y-85829300D01*
X198243700Y-85991198D01*
X198248208Y-85994355D01*
X198248211Y-85994357D01*
X198326389Y-86049098D01*
X198431251Y-86122523D01*
X198436233Y-86124846D01*
X198436238Y-86124849D01*
X198584301Y-86193891D01*
X198638757Y-86219284D01*
X198644065Y-86220706D01*
X198644067Y-86220707D01*
X198747019Y-86248293D01*
X198807642Y-86285245D01*
X198838663Y-86349106D01*
X198830235Y-86419600D01*
X198785032Y-86474347D01*
X198747019Y-86491707D01*
X198644067Y-86519293D01*
X198644065Y-86519294D01*
X198638757Y-86520716D01*
X198633776Y-86523039D01*
X198633775Y-86523039D01*
X198436238Y-86615151D01*
X198436233Y-86615154D01*
X198431251Y-86617477D01*
X198326389Y-86690902D01*
X198248211Y-86745643D01*
X198248208Y-86745645D01*
X198243700Y-86748802D01*
X198081802Y-86910700D01*
X198078645Y-86915208D01*
X198078643Y-86915211D01*
X198070088Y-86927429D01*
X197950477Y-87098251D01*
X197948154Y-87103233D01*
X197948151Y-87103238D01*
X197898106Y-87210562D01*
X197853716Y-87305757D01*
X197852294Y-87311065D01*
X197852293Y-87311067D01*
X197813187Y-87457012D01*
X197794457Y-87526913D01*
X197774502Y-87755000D01*
X197794457Y-87983087D01*
X197795881Y-87988400D01*
X197795881Y-87988402D01*
X197813442Y-88053938D01*
X197853716Y-88204243D01*
X197856039Y-88209224D01*
X197856039Y-88209225D01*
X197948151Y-88406762D01*
X197948154Y-88406767D01*
X197950477Y-88411749D01*
X198081802Y-88599300D01*
X198243700Y-88761198D01*
X198248208Y-88764355D01*
X198248211Y-88764357D01*
X198326389Y-88819098D01*
X198431251Y-88892523D01*
X198436233Y-88894846D01*
X198436238Y-88894849D01*
X198609336Y-88975565D01*
X198638757Y-88989284D01*
X198644065Y-88990706D01*
X198644067Y-88990707D01*
X198747019Y-89018293D01*
X198807642Y-89055245D01*
X198838663Y-89119106D01*
X198830235Y-89189600D01*
X198785032Y-89244347D01*
X198747019Y-89261707D01*
X198644067Y-89289293D01*
X198644065Y-89289294D01*
X198638757Y-89290716D01*
X198633776Y-89293039D01*
X198633775Y-89293039D01*
X198436238Y-89385151D01*
X198436233Y-89385154D01*
X198431251Y-89387477D01*
X198368771Y-89431226D01*
X198248211Y-89515643D01*
X198248208Y-89515645D01*
X198243700Y-89518802D01*
X198081802Y-89680700D01*
X198078645Y-89685208D01*
X198078643Y-89685211D01*
X198023902Y-89763389D01*
X197950477Y-89868251D01*
X197948154Y-89873233D01*
X197948151Y-89873238D01*
X197901377Y-89973547D01*
X197853716Y-90075757D01*
X197852294Y-90081065D01*
X197852293Y-90081067D01*
X197806650Y-90251409D01*
X197794457Y-90296913D01*
X197774502Y-90525000D01*
X197794457Y-90753087D01*
X197795881Y-90758400D01*
X197795881Y-90758402D01*
X197835332Y-90905632D01*
X197853716Y-90974243D01*
X197856039Y-90979224D01*
X197856039Y-90979225D01*
X197948151Y-91176762D01*
X197948154Y-91176767D01*
X197950477Y-91181749D01*
X198081802Y-91369300D01*
X198243700Y-91531198D01*
X198248208Y-91534355D01*
X198248211Y-91534357D01*
X198326389Y-91589098D01*
X198431251Y-91662523D01*
X198436233Y-91664846D01*
X198436238Y-91664849D01*
X198633775Y-91756961D01*
X198638757Y-91759284D01*
X198644065Y-91760706D01*
X198644067Y-91760707D01*
X198747019Y-91788293D01*
X198807642Y-91825245D01*
X198838663Y-91889106D01*
X198830235Y-91959600D01*
X198785032Y-92014347D01*
X198747019Y-92031707D01*
X198644067Y-92059293D01*
X198644065Y-92059294D01*
X198638757Y-92060716D01*
X198633776Y-92063039D01*
X198633775Y-92063039D01*
X198436238Y-92155151D01*
X198436233Y-92155154D01*
X198431251Y-92157477D01*
X198326389Y-92230902D01*
X198248211Y-92285643D01*
X198248208Y-92285645D01*
X198243700Y-92288802D01*
X198081802Y-92450700D01*
X197950477Y-92638251D01*
X197948154Y-92643233D01*
X197948151Y-92643238D01*
X197871389Y-92807856D01*
X197853716Y-92845757D01*
X197852294Y-92851065D01*
X197852293Y-92851067D01*
X197813187Y-92997012D01*
X197794457Y-93066913D01*
X197774502Y-93295000D01*
X197794457Y-93523087D01*
X197795881Y-93528400D01*
X197795881Y-93528402D01*
X197851722Y-93736800D01*
X197853716Y-93744243D01*
X197856039Y-93749224D01*
X197856039Y-93749225D01*
X197948151Y-93946762D01*
X197948154Y-93946767D01*
X197950477Y-93951749D01*
X198081802Y-94139300D01*
X198243700Y-94301198D01*
X198248208Y-94304355D01*
X198248211Y-94304357D01*
X198311268Y-94348510D01*
X198431251Y-94432523D01*
X198436233Y-94434846D01*
X198436238Y-94434849D01*
X198633775Y-94526961D01*
X198638757Y-94529284D01*
X198644065Y-94530706D01*
X198644067Y-94530707D01*
X198747019Y-94558293D01*
X198807642Y-94595245D01*
X198838663Y-94659106D01*
X198830235Y-94729600D01*
X198785032Y-94784347D01*
X198747019Y-94801707D01*
X198644067Y-94829293D01*
X198644065Y-94829294D01*
X198638757Y-94830716D01*
X198633776Y-94833039D01*
X198633775Y-94833039D01*
X198436238Y-94925151D01*
X198436233Y-94925154D01*
X198431251Y-94927477D01*
X198414926Y-94938908D01*
X198248211Y-95055643D01*
X198248208Y-95055645D01*
X198243700Y-95058802D01*
X198081802Y-95220700D01*
X197950477Y-95408251D01*
X197948154Y-95413233D01*
X197948151Y-95413238D01*
X197874550Y-95571077D01*
X197853716Y-95615757D01*
X197852294Y-95621065D01*
X197852293Y-95621067D01*
X197813187Y-95767012D01*
X197794457Y-95836913D01*
X197774502Y-96065000D01*
X197794457Y-96293087D01*
X197795881Y-96298400D01*
X197795881Y-96298402D01*
X197826334Y-96412051D01*
X197853716Y-96514243D01*
X197856039Y-96519224D01*
X197856039Y-96519225D01*
X197948151Y-96716762D01*
X197948154Y-96716767D01*
X197950477Y-96721749D01*
X197980650Y-96764840D01*
X198069595Y-96891866D01*
X198081802Y-96909300D01*
X198243700Y-97071198D01*
X198248208Y-97074355D01*
X198248211Y-97074357D01*
X198326389Y-97129098D01*
X198431251Y-97202523D01*
X198436233Y-97204846D01*
X198436238Y-97204849D01*
X198633775Y-97296961D01*
X198638757Y-97299284D01*
X198644065Y-97300706D01*
X198644067Y-97300707D01*
X198747019Y-97328293D01*
X198807642Y-97365245D01*
X198838663Y-97429106D01*
X198830235Y-97499600D01*
X198785032Y-97554347D01*
X198747019Y-97571707D01*
X198644067Y-97599293D01*
X198644065Y-97599294D01*
X198638757Y-97600716D01*
X198633776Y-97603039D01*
X198633775Y-97603039D01*
X198436238Y-97695151D01*
X198436233Y-97695154D01*
X198431251Y-97697477D01*
X198379995Y-97733367D01*
X198248211Y-97825643D01*
X198248208Y-97825645D01*
X198243700Y-97828802D01*
X198081802Y-97990700D01*
X197950477Y-98178251D01*
X197948154Y-98183233D01*
X197948151Y-98183238D01*
X197900035Y-98286424D01*
X197853716Y-98385757D01*
X197852294Y-98391065D01*
X197852293Y-98391067D01*
X197795881Y-98601598D01*
X197794457Y-98606913D01*
X197774502Y-98835000D01*
X197794457Y-99063087D01*
X197795881Y-99068400D01*
X197795881Y-99068402D01*
X197851422Y-99275680D01*
X197853716Y-99284243D01*
X197856039Y-99289224D01*
X197856039Y-99289225D01*
X197948151Y-99486762D01*
X197948154Y-99486767D01*
X197950477Y-99491749D01*
X198081802Y-99679300D01*
X198243700Y-99841198D01*
X198248208Y-99844355D01*
X198248211Y-99844357D01*
X198326389Y-99899098D01*
X198431251Y-99972523D01*
X198436233Y-99974846D01*
X198436238Y-99974849D01*
X198633775Y-100066961D01*
X198638757Y-100069284D01*
X198644065Y-100070706D01*
X198644067Y-100070707D01*
X198747019Y-100098293D01*
X198807642Y-100135245D01*
X198838663Y-100199106D01*
X198830235Y-100269600D01*
X198785032Y-100324347D01*
X198747019Y-100341707D01*
X198644067Y-100369293D01*
X198644065Y-100369294D01*
X198638757Y-100370716D01*
X198633776Y-100373039D01*
X198633775Y-100373039D01*
X198436238Y-100465151D01*
X198436233Y-100465154D01*
X198431251Y-100467477D01*
X198326389Y-100540902D01*
X198248211Y-100595643D01*
X198248208Y-100595645D01*
X198243700Y-100598802D01*
X198081802Y-100760700D01*
X197950477Y-100948251D01*
X197948154Y-100953233D01*
X197948151Y-100953238D01*
X197870438Y-101119896D01*
X197853716Y-101155757D01*
X197852294Y-101161065D01*
X197852293Y-101161067D01*
X197800704Y-101353598D01*
X197794457Y-101376913D01*
X197774502Y-101605000D01*
X197794457Y-101833087D01*
X197795881Y-101838400D01*
X197795881Y-101838402D01*
X197832559Y-101975283D01*
X197853716Y-102054243D01*
X197856039Y-102059224D01*
X197856039Y-102059225D01*
X197948151Y-102256762D01*
X197948154Y-102256767D01*
X197950477Y-102261749D01*
X198081802Y-102449300D01*
X198243700Y-102611198D01*
X198248208Y-102614355D01*
X198248211Y-102614357D01*
X198326389Y-102669098D01*
X198431251Y-102742523D01*
X198436233Y-102744846D01*
X198436238Y-102744849D01*
X198622197Y-102831562D01*
X198638757Y-102839284D01*
X198644065Y-102840706D01*
X198644067Y-102840707D01*
X198747019Y-102868293D01*
X198807642Y-102905245D01*
X198838663Y-102969106D01*
X198830235Y-103039600D01*
X198785032Y-103094347D01*
X198747019Y-103111707D01*
X198644067Y-103139293D01*
X198644065Y-103139294D01*
X198638757Y-103140716D01*
X198633776Y-103143039D01*
X198633775Y-103143039D01*
X198436238Y-103235151D01*
X198436233Y-103235154D01*
X198431251Y-103237477D01*
X198344830Y-103297990D01*
X198248211Y-103365643D01*
X198248208Y-103365645D01*
X198243700Y-103368802D01*
X198081802Y-103530700D01*
X197950477Y-103718251D01*
X197948154Y-103723233D01*
X197948151Y-103723238D01*
X197880169Y-103869027D01*
X197853716Y-103925757D01*
X197852294Y-103931065D01*
X197852293Y-103931067D01*
X197810379Y-104087491D01*
X197794457Y-104146913D01*
X197774502Y-104375000D01*
X197794457Y-104603087D01*
X197795881Y-104608400D01*
X197795881Y-104608402D01*
X197847580Y-104801342D01*
X197853716Y-104824243D01*
X197856039Y-104829224D01*
X197856039Y-104829225D01*
X197948151Y-105026762D01*
X197948154Y-105026767D01*
X197950477Y-105031749D01*
X197997563Y-105098994D01*
X198077774Y-105213547D01*
X198081802Y-105219300D01*
X198243700Y-105381198D01*
X198248208Y-105384355D01*
X198248211Y-105384357D01*
X198280043Y-105406646D01*
X198431251Y-105512523D01*
X198436233Y-105514846D01*
X198436238Y-105514849D01*
X198633775Y-105606961D01*
X198638757Y-105609284D01*
X198644065Y-105610706D01*
X198644067Y-105610707D01*
X198747019Y-105638293D01*
X198807642Y-105675245D01*
X198838663Y-105739106D01*
X198830235Y-105809600D01*
X198785032Y-105864347D01*
X198747019Y-105881707D01*
X198644067Y-105909293D01*
X198644065Y-105909294D01*
X198638757Y-105910716D01*
X198633776Y-105913039D01*
X198633775Y-105913039D01*
X198436238Y-106005151D01*
X198436233Y-106005154D01*
X198431251Y-106007477D01*
X198386429Y-106038862D01*
X198248211Y-106135643D01*
X198248208Y-106135645D01*
X198243700Y-106138802D01*
X198081802Y-106300700D01*
X198078645Y-106305208D01*
X198078643Y-106305211D01*
X198064884Y-106324861D01*
X197950477Y-106488251D01*
X197948154Y-106493233D01*
X197948151Y-106493238D01*
X197856645Y-106689475D01*
X197853716Y-106695757D01*
X197852294Y-106701065D01*
X197852293Y-106701067D01*
X197810379Y-106857491D01*
X197794457Y-106916913D01*
X197774502Y-107145000D01*
X197794457Y-107373087D01*
X197795881Y-107378400D01*
X197795881Y-107378402D01*
X197839410Y-107540851D01*
X197853716Y-107594243D01*
X197856039Y-107599224D01*
X197856039Y-107599225D01*
X197948151Y-107796762D01*
X197948154Y-107796767D01*
X197950477Y-107801749D01*
X198004035Y-107878238D01*
X198072937Y-107976639D01*
X198081802Y-107989300D01*
X198243700Y-108151198D01*
X198248208Y-108154355D01*
X198248211Y-108154357D01*
X198290543Y-108183998D01*
X198431251Y-108282523D01*
X198436233Y-108284846D01*
X198436238Y-108284849D01*
X198618180Y-108369689D01*
X198638757Y-108379284D01*
X198644065Y-108380706D01*
X198644067Y-108380707D01*
X198747019Y-108408293D01*
X198807642Y-108445245D01*
X198838663Y-108509106D01*
X198830235Y-108579600D01*
X198785032Y-108634347D01*
X198747019Y-108651707D01*
X198644067Y-108679293D01*
X198644065Y-108679294D01*
X198638757Y-108680716D01*
X198633776Y-108683039D01*
X198633775Y-108683039D01*
X198436238Y-108775151D01*
X198436233Y-108775154D01*
X198431251Y-108777477D01*
X198354925Y-108830921D01*
X198248211Y-108905643D01*
X198248208Y-108905645D01*
X198243700Y-108908802D01*
X198081802Y-109070700D01*
X198078645Y-109075208D01*
X198078643Y-109075211D01*
X198041109Y-109128816D01*
X197950477Y-109258251D01*
X197948154Y-109263233D01*
X197948151Y-109263238D01*
X197872952Y-109424505D01*
X197853716Y-109465757D01*
X197852294Y-109471065D01*
X197852293Y-109471067D01*
X197799069Y-109669702D01*
X197794457Y-109686913D01*
X197774502Y-109915000D01*
X197794457Y-110143087D01*
X197795881Y-110148400D01*
X197795881Y-110148402D01*
X197802269Y-110172240D01*
X197853716Y-110364243D01*
X197856039Y-110369224D01*
X197856039Y-110369225D01*
X197948151Y-110566762D01*
X197948154Y-110566767D01*
X197950477Y-110571749D01*
X198081802Y-110759300D01*
X198243700Y-110921198D01*
X198248208Y-110924355D01*
X198248211Y-110924357D01*
X198326389Y-110979098D01*
X198431251Y-111052523D01*
X198436233Y-111054846D01*
X198436238Y-111054849D01*
X198632849Y-111146529D01*
X198638757Y-111149284D01*
X198644065Y-111150706D01*
X198644067Y-111150707D01*
X198747019Y-111178293D01*
X198807642Y-111215245D01*
X198838663Y-111279106D01*
X198830235Y-111349600D01*
X198785032Y-111404347D01*
X198747019Y-111421707D01*
X198644067Y-111449293D01*
X198644065Y-111449294D01*
X198638757Y-111450716D01*
X198633776Y-111453039D01*
X198633775Y-111453039D01*
X198436238Y-111545151D01*
X198436233Y-111545154D01*
X198431251Y-111547477D01*
X198387236Y-111578297D01*
X198248211Y-111675643D01*
X198248208Y-111675645D01*
X198243700Y-111678802D01*
X198081802Y-111840700D01*
X197950477Y-112028251D01*
X197948154Y-112033233D01*
X197948151Y-112033238D01*
X197856039Y-112230775D01*
X197853716Y-112235757D01*
X197852294Y-112241065D01*
X197852293Y-112241067D01*
X197799029Y-112439849D01*
X197794457Y-112456913D01*
X197774502Y-112685000D01*
X197794457Y-112913087D01*
X197795881Y-112918400D01*
X197795881Y-112918402D01*
X197852005Y-113127856D01*
X197853716Y-113134243D01*
X197856039Y-113139224D01*
X197856039Y-113139225D01*
X197948151Y-113336762D01*
X197948154Y-113336767D01*
X197950477Y-113341749D01*
X198081802Y-113529300D01*
X198243700Y-113691198D01*
X198248208Y-113694355D01*
X198248211Y-113694357D01*
X198326389Y-113749098D01*
X198431251Y-113822523D01*
X198436233Y-113824846D01*
X198436238Y-113824849D01*
X198550947Y-113878338D01*
X198638757Y-113919284D01*
X198644065Y-113920706D01*
X198644067Y-113920707D01*
X198747019Y-113948293D01*
X198807642Y-113985245D01*
X198838663Y-114049106D01*
X198830235Y-114119600D01*
X198785032Y-114174347D01*
X198747019Y-114191707D01*
X198644067Y-114219293D01*
X198644065Y-114219294D01*
X198638757Y-114220716D01*
X198633776Y-114223039D01*
X198633775Y-114223039D01*
X198436238Y-114315151D01*
X198436233Y-114315154D01*
X198431251Y-114317477D01*
X198368213Y-114361617D01*
X198248211Y-114445643D01*
X198248208Y-114445645D01*
X198243700Y-114448802D01*
X198081802Y-114610700D01*
X198078645Y-114615208D01*
X198078643Y-114615211D01*
X198038973Y-114671866D01*
X197950477Y-114798251D01*
X197948154Y-114803233D01*
X197948151Y-114803238D01*
X197869680Y-114971522D01*
X197853716Y-115005757D01*
X197852294Y-115011065D01*
X197852293Y-115011067D01*
X197796591Y-115218947D01*
X197794457Y-115226913D01*
X197774502Y-115455000D01*
X196105276Y-115455000D01*
X196131529Y-115255590D01*
X196132647Y-115209849D01*
X196133074Y-115192365D01*
X196133074Y-115192361D01*
X196133156Y-115189000D01*
X196114852Y-114966361D01*
X196060431Y-114749702D01*
X195971354Y-114544840D01*
X195850014Y-114357277D01*
X195699670Y-114192051D01*
X195695619Y-114188852D01*
X195695615Y-114188848D01*
X195528414Y-114056800D01*
X195528410Y-114056798D01*
X195524359Y-114053598D01*
X195483053Y-114030796D01*
X195433084Y-113980364D01*
X195418312Y-113910921D01*
X195443428Y-113844516D01*
X195470780Y-113817909D01*
X195514603Y-113786650D01*
X195649860Y-113690173D01*
X195808096Y-113532489D01*
X195867594Y-113449689D01*
X195935435Y-113355277D01*
X195938453Y-113351077D01*
X195998189Y-113230211D01*
X196035136Y-113155453D01*
X196035137Y-113155451D01*
X196037430Y-113150811D01*
X196102370Y-112937069D01*
X196131529Y-112715590D01*
X196132143Y-112690475D01*
X196133074Y-112652365D01*
X196133074Y-112652361D01*
X196133156Y-112649000D01*
X196114852Y-112426361D01*
X196060431Y-112209702D01*
X195971354Y-112004840D01*
X195920421Y-111926109D01*
X195852822Y-111821617D01*
X195852820Y-111821614D01*
X195850014Y-111817277D01*
X195699670Y-111652051D01*
X195695619Y-111648852D01*
X195695615Y-111648848D01*
X195528414Y-111516800D01*
X195528410Y-111516798D01*
X195524359Y-111513598D01*
X195483053Y-111490796D01*
X195433084Y-111440364D01*
X195418312Y-111370921D01*
X195443428Y-111304516D01*
X195470780Y-111277909D01*
X195540052Y-111228498D01*
X195649860Y-111150173D01*
X195808096Y-110992489D01*
X195859324Y-110921198D01*
X195935435Y-110815277D01*
X195938453Y-110811077D01*
X196037430Y-110610811D01*
X196084254Y-110456695D01*
X196100865Y-110402023D01*
X196100865Y-110402021D01*
X196102370Y-110397069D01*
X196131529Y-110175590D01*
X196131772Y-110165634D01*
X196133074Y-110112365D01*
X196133074Y-110112361D01*
X196133156Y-110109000D01*
X196114852Y-109886361D01*
X196060431Y-109669702D01*
X195971354Y-109464840D01*
X195889250Y-109337927D01*
X195852822Y-109281617D01*
X195852820Y-109281614D01*
X195850014Y-109277277D01*
X195699670Y-109112051D01*
X195695619Y-109108852D01*
X195695615Y-109108848D01*
X195528414Y-108976800D01*
X195528410Y-108976798D01*
X195524359Y-108973598D01*
X195483053Y-108950796D01*
X195433084Y-108900364D01*
X195418312Y-108830921D01*
X195443428Y-108764516D01*
X195470780Y-108737909D01*
X195522745Y-108700843D01*
X195649860Y-108610173D01*
X195658562Y-108601502D01*
X195804435Y-108456137D01*
X195808096Y-108452489D01*
X195827970Y-108424832D01*
X195935435Y-108275277D01*
X195938453Y-108271077D01*
X195962652Y-108222115D01*
X196035136Y-108075453D01*
X196035137Y-108075451D01*
X196037430Y-108070811D01*
X196102370Y-107857069D01*
X196131529Y-107635590D01*
X196133156Y-107569000D01*
X196114852Y-107346361D01*
X196060431Y-107129702D01*
X195971354Y-106924840D01*
X195850014Y-106737277D01*
X195699670Y-106572051D01*
X195695619Y-106568852D01*
X195695615Y-106568848D01*
X195528414Y-106436800D01*
X195528410Y-106436798D01*
X195524359Y-106433598D01*
X195483053Y-106410796D01*
X195433084Y-106360364D01*
X195418312Y-106290921D01*
X195443428Y-106224516D01*
X195470780Y-106197909D01*
X195522745Y-106160843D01*
X195649860Y-106070173D01*
X195676331Y-106043795D01*
X195778936Y-105941547D01*
X195808096Y-105912489D01*
X195840683Y-105867140D01*
X195935435Y-105735277D01*
X195938453Y-105731077D01*
X195984310Y-105638293D01*
X196035136Y-105535453D01*
X196035137Y-105535451D01*
X196037430Y-105530811D01*
X196102370Y-105317069D01*
X196131529Y-105095590D01*
X196132697Y-105047789D01*
X196133074Y-105032365D01*
X196133074Y-105032361D01*
X196133156Y-105029000D01*
X196114852Y-104806361D01*
X196060431Y-104589702D01*
X195971354Y-104384840D01*
X195897483Y-104270653D01*
X195852822Y-104201617D01*
X195852820Y-104201614D01*
X195850014Y-104197277D01*
X195699670Y-104032051D01*
X195695619Y-104028852D01*
X195695615Y-104028848D01*
X195528414Y-103896800D01*
X195528410Y-103896798D01*
X195524359Y-103893598D01*
X195483053Y-103870796D01*
X195433084Y-103820364D01*
X195418312Y-103750921D01*
X195443428Y-103684516D01*
X195470780Y-103657909D01*
X195514603Y-103626650D01*
X195649860Y-103530173D01*
X195808096Y-103372489D01*
X195821089Y-103354408D01*
X195935435Y-103195277D01*
X195938453Y-103191077D01*
X196027505Y-103010894D01*
X196035136Y-102995453D01*
X196035137Y-102995451D01*
X196037430Y-102990811D01*
X196102370Y-102777069D01*
X196131529Y-102555590D01*
X196131611Y-102552240D01*
X196133074Y-102492365D01*
X196133074Y-102492361D01*
X196133156Y-102489000D01*
X196114852Y-102266361D01*
X196060431Y-102049702D01*
X195971354Y-101844840D01*
X195850014Y-101657277D01*
X195699670Y-101492051D01*
X195695619Y-101488852D01*
X195695615Y-101488848D01*
X195528414Y-101356800D01*
X195528410Y-101356798D01*
X195524359Y-101353598D01*
X195483053Y-101330796D01*
X195433084Y-101280364D01*
X195418312Y-101210921D01*
X195443428Y-101144516D01*
X195470780Y-101117909D01*
X195514603Y-101086650D01*
X195649860Y-100990173D01*
X195808096Y-100832489D01*
X195867594Y-100749689D01*
X195935435Y-100655277D01*
X195938453Y-100651077D01*
X196037430Y-100450811D01*
X196102370Y-100237069D01*
X196131529Y-100015590D01*
X196131611Y-100012240D01*
X196133074Y-99952365D01*
X196133074Y-99952361D01*
X196133156Y-99949000D01*
X196114852Y-99726361D01*
X196060431Y-99509702D01*
X195971354Y-99304840D01*
X195861845Y-99135565D01*
X195852822Y-99121617D01*
X195852820Y-99121614D01*
X195850014Y-99117277D01*
X195699670Y-98952051D01*
X195695619Y-98948852D01*
X195695615Y-98948848D01*
X195528414Y-98816800D01*
X195528410Y-98816798D01*
X195524359Y-98813598D01*
X195483053Y-98790796D01*
X195433084Y-98740364D01*
X195418312Y-98670921D01*
X195443428Y-98604516D01*
X195470780Y-98577909D01*
X195514603Y-98546650D01*
X195649860Y-98450173D01*
X195683248Y-98416902D01*
X195731209Y-98369107D01*
X195808096Y-98292489D01*
X195816659Y-98280573D01*
X195935435Y-98115277D01*
X195938453Y-98111077D01*
X196006882Y-97972622D01*
X196035136Y-97915453D01*
X196035137Y-97915451D01*
X196037430Y-97910811D01*
X196102370Y-97697069D01*
X196131529Y-97475590D01*
X196131920Y-97459580D01*
X196133074Y-97412365D01*
X196133074Y-97412361D01*
X196133156Y-97409000D01*
X196114852Y-97186361D01*
X196060431Y-96969702D01*
X195971354Y-96764840D01*
X195920421Y-96686109D01*
X195852822Y-96581617D01*
X195852820Y-96581614D01*
X195850014Y-96577277D01*
X195699670Y-96412051D01*
X195695619Y-96408852D01*
X195695615Y-96408848D01*
X195528414Y-96276800D01*
X195528410Y-96276798D01*
X195524359Y-96273598D01*
X195483053Y-96250796D01*
X195433084Y-96200364D01*
X195418312Y-96130921D01*
X195443428Y-96064516D01*
X195470780Y-96037909D01*
X195514603Y-96006650D01*
X195649860Y-95910173D01*
X195808096Y-95752489D01*
X195867594Y-95669689D01*
X195935435Y-95575277D01*
X195938453Y-95571077D01*
X195962652Y-95522115D01*
X196035136Y-95375453D01*
X196035137Y-95375451D01*
X196037430Y-95370811D01*
X196102370Y-95157069D01*
X196131529Y-94935590D01*
X196133156Y-94869000D01*
X196114852Y-94646361D01*
X196060431Y-94429702D01*
X195971354Y-94224840D01*
X195850014Y-94037277D01*
X195699670Y-93872051D01*
X195695619Y-93868852D01*
X195695615Y-93868848D01*
X195528414Y-93736800D01*
X195528410Y-93736798D01*
X195524359Y-93733598D01*
X195483053Y-93710796D01*
X195433084Y-93660364D01*
X195418312Y-93590921D01*
X195443428Y-93524516D01*
X195470780Y-93497909D01*
X195540035Y-93448510D01*
X195649860Y-93370173D01*
X195808096Y-93212489D01*
X195867594Y-93129689D01*
X195935435Y-93035277D01*
X195938453Y-93031077D01*
X195949821Y-93008077D01*
X196035136Y-92835453D01*
X196035137Y-92835451D01*
X196037430Y-92830811D01*
X196094419Y-92643238D01*
X196100865Y-92622023D01*
X196100865Y-92622021D01*
X196102370Y-92617069D01*
X196131529Y-92395590D01*
X196133156Y-92329000D01*
X196114852Y-92106361D01*
X196060431Y-91889702D01*
X195971354Y-91684840D01*
X195920421Y-91606109D01*
X195852822Y-91501617D01*
X195852820Y-91501614D01*
X195850014Y-91497277D01*
X195699670Y-91332051D01*
X195695619Y-91328852D01*
X195695615Y-91328848D01*
X195528414Y-91196800D01*
X195528410Y-91196798D01*
X195524359Y-91193598D01*
X195483053Y-91170796D01*
X195433084Y-91120364D01*
X195418312Y-91050921D01*
X195443428Y-90984516D01*
X195470780Y-90957909D01*
X195514603Y-90926650D01*
X195649860Y-90830173D01*
X195808096Y-90672489D01*
X195839097Y-90629347D01*
X195935435Y-90495277D01*
X195938453Y-90491077D01*
X195973259Y-90420653D01*
X196035136Y-90295453D01*
X196035137Y-90295451D01*
X196037430Y-90290811D01*
X196102370Y-90077069D01*
X196131529Y-89855590D01*
X196133156Y-89789000D01*
X196114852Y-89566361D01*
X196060431Y-89349702D01*
X195971354Y-89144840D01*
X195871641Y-88990707D01*
X195852822Y-88961617D01*
X195852820Y-88961614D01*
X195850014Y-88957277D01*
X195699670Y-88792051D01*
X195695619Y-88788852D01*
X195695615Y-88788848D01*
X195528414Y-88656800D01*
X195528410Y-88656798D01*
X195524359Y-88653598D01*
X195483053Y-88630796D01*
X195433084Y-88580364D01*
X195418312Y-88510921D01*
X195443428Y-88444516D01*
X195470780Y-88417909D01*
X195539665Y-88368774D01*
X195649860Y-88290173D01*
X195668601Y-88271498D01*
X195774969Y-88165500D01*
X195808096Y-88132489D01*
X195822271Y-88112763D01*
X195935435Y-87955277D01*
X195938453Y-87951077D01*
X195993472Y-87839755D01*
X196035136Y-87755453D01*
X196035137Y-87755451D01*
X196037430Y-87750811D01*
X196102370Y-87537069D01*
X196131529Y-87315590D01*
X196133156Y-87249000D01*
X196114852Y-87026361D01*
X196060431Y-86809702D01*
X195971354Y-86604840D01*
X195886934Y-86474347D01*
X195852822Y-86421617D01*
X195852820Y-86421614D01*
X195850014Y-86417277D01*
X195699670Y-86252051D01*
X195695619Y-86248852D01*
X195695615Y-86248848D01*
X195528414Y-86116800D01*
X195528410Y-86116798D01*
X195524359Y-86113598D01*
X195483053Y-86090796D01*
X195433084Y-86040364D01*
X195418312Y-85970921D01*
X195443428Y-85904516D01*
X195470780Y-85877909D01*
X195538927Y-85829300D01*
X195649860Y-85750173D01*
X195698426Y-85701777D01*
X195754974Y-85645426D01*
X195808096Y-85592489D01*
X195867594Y-85509689D01*
X195935435Y-85415277D01*
X195938453Y-85411077D01*
X196033679Y-85218402D01*
X196035136Y-85215453D01*
X196035137Y-85215451D01*
X196037430Y-85210811D01*
X196102370Y-84997069D01*
X196131529Y-84775590D01*
X196131611Y-84772240D01*
X196133074Y-84712365D01*
X196133074Y-84712361D01*
X196133156Y-84709000D01*
X196114852Y-84486361D01*
X196060431Y-84269702D01*
X195971354Y-84064840D01*
X195918215Y-83982699D01*
X195852822Y-83881617D01*
X195852820Y-83881614D01*
X195850014Y-83877277D01*
X195699670Y-83712051D01*
X195695619Y-83708852D01*
X195695615Y-83708848D01*
X195528414Y-83576800D01*
X195528410Y-83576798D01*
X195524359Y-83573598D01*
X195483053Y-83550796D01*
X195433084Y-83500364D01*
X195418312Y-83430921D01*
X195443428Y-83364516D01*
X195470780Y-83337909D01*
X195514603Y-83306650D01*
X195649860Y-83210173D01*
X195808096Y-83052489D01*
X195867594Y-82969689D01*
X195935435Y-82875277D01*
X195938453Y-82871077D01*
X195962652Y-82822115D01*
X196035136Y-82675453D01*
X196035137Y-82675451D01*
X196037430Y-82670811D01*
X196102370Y-82457069D01*
X196131529Y-82235590D01*
X196133156Y-82169000D01*
X196114852Y-81946361D01*
X196060431Y-81729702D01*
X195971354Y-81524840D01*
X195920577Y-81446351D01*
X195852822Y-81341617D01*
X195852820Y-81341614D01*
X195850014Y-81337277D01*
X195699670Y-81172051D01*
X195695619Y-81168852D01*
X195695615Y-81168848D01*
X195528414Y-81036800D01*
X195528410Y-81036798D01*
X195524359Y-81033598D01*
X195483053Y-81010796D01*
X195433084Y-80960364D01*
X195418312Y-80890921D01*
X195443428Y-80824516D01*
X195470780Y-80797909D01*
X195514603Y-80766650D01*
X195649860Y-80670173D01*
X195808096Y-80512489D01*
X195938453Y-80331077D01*
X195955108Y-80297379D01*
X196035136Y-80135453D01*
X196035137Y-80135451D01*
X196037430Y-80130811D01*
X196076874Y-80000987D01*
X198926721Y-80000987D01*
X198935548Y-80012605D01*
X199158281Y-80174430D01*
X199164961Y-80178670D01*
X199434572Y-80326890D01*
X199441707Y-80330247D01*
X199727770Y-80443508D01*
X199735296Y-80445953D01*
X200033279Y-80522462D01*
X200041050Y-80523945D01*
X200346278Y-80562503D01*
X200354169Y-80563000D01*
X200661831Y-80563000D01*
X200669722Y-80562503D01*
X200974950Y-80523945D01*
X200982721Y-80522462D01*
X201280704Y-80445953D01*
X201288230Y-80443508D01*
X201574293Y-80330247D01*
X201581428Y-80326890D01*
X201851039Y-80178670D01*
X201857719Y-80174430D01*
X202080823Y-80012336D01*
X202089246Y-80001413D01*
X202082342Y-79988552D01*
X200520812Y-78427022D01*
X200506868Y-78419408D01*
X200505035Y-78419539D01*
X200498420Y-78423790D01*
X198933334Y-79988876D01*
X198926721Y-80000987D01*
X196076874Y-80000987D01*
X196102370Y-79917069D01*
X196131529Y-79695590D01*
X196133156Y-79629000D01*
X196114852Y-79406361D01*
X196060431Y-79189702D01*
X195971354Y-78984840D01*
X195920421Y-78906109D01*
X195852822Y-78801617D01*
X195852820Y-78801614D01*
X195850014Y-78797277D01*
X195841843Y-78788297D01*
X195702798Y-78635488D01*
X195671746Y-78571642D01*
X195680141Y-78501143D01*
X195725317Y-78446375D01*
X195751761Y-78432706D01*
X195858297Y-78392767D01*
X195866705Y-78389615D01*
X195983261Y-78302261D01*
X196070615Y-78185705D01*
X196118130Y-78058958D01*
X197995290Y-78058958D01*
X198014607Y-78365994D01*
X198015600Y-78373855D01*
X198073246Y-78676046D01*
X198075217Y-78683723D01*
X198170284Y-78976309D01*
X198173199Y-78983672D01*
X198304189Y-79262041D01*
X198308001Y-79268974D01*
X198472851Y-79528736D01*
X198477495Y-79535129D01*
X198552497Y-79625790D01*
X198565014Y-79634245D01*
X198575752Y-79628038D01*
X200135978Y-78067812D01*
X200142356Y-78056132D01*
X200872408Y-78056132D01*
X200872539Y-78057965D01*
X200876790Y-78064580D01*
X202439145Y-79626935D01*
X202452407Y-79634177D01*
X202462512Y-79626988D01*
X202538505Y-79535129D01*
X202543149Y-79528736D01*
X202707999Y-79268974D01*
X202711811Y-79262041D01*
X202842801Y-78983672D01*
X202845716Y-78976309D01*
X202940783Y-78683723D01*
X202942754Y-78676046D01*
X203000400Y-78373855D01*
X203001393Y-78365994D01*
X203020710Y-78058958D01*
X203020710Y-78051042D01*
X203001393Y-77744006D01*
X203000400Y-77736145D01*
X202942754Y-77433954D01*
X202940783Y-77426277D01*
X202845716Y-77133691D01*
X202842801Y-77126328D01*
X202711811Y-76847959D01*
X202707999Y-76841026D01*
X202543149Y-76581264D01*
X202538505Y-76574871D01*
X202463503Y-76484210D01*
X202450986Y-76475755D01*
X202440248Y-76481962D01*
X200880022Y-78042188D01*
X200872408Y-78056132D01*
X200142356Y-78056132D01*
X200143592Y-78053868D01*
X200143461Y-78052035D01*
X200139210Y-78045420D01*
X198576855Y-76483065D01*
X198563593Y-76475823D01*
X198553488Y-76483012D01*
X198477495Y-76574871D01*
X198472851Y-76581264D01*
X198308001Y-76841026D01*
X198304189Y-76847959D01*
X198173199Y-77126328D01*
X198170284Y-77133691D01*
X198075217Y-77426277D01*
X198073246Y-77433954D01*
X198015600Y-77736145D01*
X198014607Y-77744006D01*
X197995290Y-78051042D01*
X197995290Y-78058958D01*
X196118130Y-78058958D01*
X196121745Y-78049316D01*
X196128500Y-77987134D01*
X196128500Y-76190866D01*
X196121745Y-76128684D01*
X196070615Y-75992295D01*
X195983261Y-75875739D01*
X195866705Y-75788385D01*
X195730316Y-75737255D01*
X195668134Y-75730500D01*
X193871866Y-75730500D01*
X193809684Y-75737255D01*
X193673295Y-75788385D01*
X193556739Y-75875739D01*
X193469385Y-75992295D01*
X193418255Y-76128684D01*
X193411500Y-76190866D01*
X193411500Y-76402713D01*
X193391498Y-76470834D01*
X193333718Y-76519122D01*
X193300766Y-76532772D01*
X193241124Y-76557476D01*
X193217918Y-76575283D01*
X193145937Y-76630515D01*
X193145921Y-76630529D01*
X193120566Y-76649984D01*
X193120563Y-76649987D01*
X193114013Y-76655013D01*
X193108983Y-76661568D01*
X193094548Y-76680379D01*
X193083681Y-76692770D01*
X190484766Y-79291685D01*
X190472375Y-79302552D01*
X190447013Y-79322013D01*
X190422526Y-79353925D01*
X190422523Y-79353928D01*
X190349476Y-79449124D01*
X190288162Y-79597149D01*
X190288162Y-79597150D01*
X190286414Y-79610426D01*
X190283969Y-79629000D01*
X190272500Y-79716115D01*
X190272500Y-79716120D01*
X190267250Y-79756000D01*
X190268328Y-79764188D01*
X190271422Y-79787690D01*
X190272500Y-79804136D01*
X190272500Y-83278762D01*
X190252498Y-83346883D01*
X190235595Y-83367857D01*
X188793595Y-84809856D01*
X188731283Y-84843882D01*
X188660467Y-84838817D01*
X188603632Y-84796270D01*
X188578821Y-84729750D01*
X188578500Y-84720761D01*
X188578500Y-84191866D01*
X188571745Y-84129684D01*
X188520615Y-83993295D01*
X188447058Y-83895148D01*
X188422210Y-83828642D01*
X188437263Y-83759259D01*
X188447058Y-83744018D01*
X188514786Y-83653649D01*
X188523324Y-83638054D01*
X188568478Y-83517606D01*
X188572105Y-83502351D01*
X188577631Y-83451486D01*
X188578000Y-83444672D01*
X188578000Y-82822115D01*
X188573525Y-82806876D01*
X188572135Y-82805671D01*
X188564452Y-82804000D01*
X184080116Y-82804000D01*
X184064877Y-82808475D01*
X184063672Y-82809865D01*
X184062001Y-82817548D01*
X184062001Y-83444669D01*
X184062371Y-83451490D01*
X184067895Y-83502352D01*
X184071521Y-83517604D01*
X184116676Y-83638054D01*
X184125214Y-83653649D01*
X184192942Y-83744018D01*
X184217790Y-83810525D01*
X184202737Y-83879907D01*
X184192942Y-83895148D01*
X184119385Y-83993295D01*
X184068255Y-84129684D01*
X184061500Y-84191866D01*
X184061500Y-84392000D01*
X184041498Y-84460121D01*
X183987842Y-84506614D01*
X183935500Y-84518000D01*
X181979914Y-84518000D01*
X181911793Y-84497998D01*
X181890508Y-84480784D01*
X181870778Y-84460915D01*
X181870774Y-84460912D01*
X181865815Y-84455918D01*
X181854697Y-84448862D01*
X181765096Y-84392000D01*
X181712666Y-84358727D01*
X181683463Y-84348328D01*
X181548425Y-84300243D01*
X181548420Y-84300242D01*
X181541790Y-84297881D01*
X181534802Y-84297048D01*
X181534799Y-84297047D01*
X181411698Y-84282368D01*
X181361680Y-84276404D01*
X181354677Y-84277140D01*
X181354676Y-84277140D01*
X181188288Y-84294628D01*
X181188286Y-84294629D01*
X181181288Y-84295364D01*
X181009579Y-84353818D01*
X181003575Y-84357512D01*
X180861095Y-84445166D01*
X180861092Y-84445168D01*
X180855088Y-84448862D01*
X180850053Y-84453793D01*
X180850050Y-84453795D01*
X180730525Y-84570843D01*
X180725493Y-84575771D01*
X180627235Y-84728238D01*
X180624826Y-84734858D01*
X180624824Y-84734861D01*
X180602473Y-84796270D01*
X180565197Y-84898685D01*
X180542463Y-85078640D01*
X180560163Y-85259160D01*
X180617418Y-85431273D01*
X180621065Y-85437295D01*
X180621066Y-85437297D01*
X180664632Y-85509233D01*
X180682811Y-85577863D01*
X180661001Y-85645426D01*
X180650492Y-85658815D01*
X180628772Y-85682938D01*
X180616960Y-85696056D01*
X180521473Y-85861444D01*
X180462458Y-86043072D01*
X180461768Y-86049633D01*
X180461768Y-86049635D01*
X180454709Y-86116800D01*
X180442496Y-86233000D01*
X180443186Y-86239565D01*
X180461463Y-86413457D01*
X180462458Y-86422928D01*
X180521473Y-86604556D01*
X180524776Y-86610278D01*
X180524777Y-86610279D01*
X180549950Y-86653880D01*
X180616960Y-86769944D01*
X180621378Y-86774851D01*
X180621379Y-86774852D01*
X180628983Y-86783297D01*
X180744747Y-86911866D01*
X180766168Y-86927429D01*
X180888174Y-87016072D01*
X180899248Y-87024118D01*
X180905276Y-87026802D01*
X180905278Y-87026803D01*
X181050420Y-87091424D01*
X181073712Y-87101794D01*
X181167113Y-87121647D01*
X181254056Y-87140128D01*
X181254061Y-87140128D01*
X181260513Y-87141500D01*
X181451487Y-87141500D01*
X181457939Y-87140128D01*
X181457944Y-87140128D01*
X181544887Y-87121647D01*
X181638288Y-87101794D01*
X181661580Y-87091424D01*
X181806722Y-87026803D01*
X181806724Y-87026802D01*
X181812752Y-87024118D01*
X181823827Y-87016072D01*
X181954852Y-86920876D01*
X181967253Y-86911866D01*
X181993074Y-86883189D01*
X182053520Y-86845950D01*
X182086710Y-86841500D01*
X183935500Y-86841500D01*
X184003621Y-86861502D01*
X184050114Y-86915158D01*
X184061500Y-86967500D01*
X184061500Y-87550219D01*
X184060787Y-87563607D01*
X184057251Y-87596695D01*
X184057548Y-87601848D01*
X184057548Y-87601851D01*
X184061291Y-87666763D01*
X184061500Y-87674016D01*
X184061500Y-88165500D01*
X184041498Y-88233621D01*
X183987842Y-88280114D01*
X183935500Y-88291500D01*
X182086710Y-88291500D01*
X182018589Y-88271498D01*
X181993074Y-88249811D01*
X181971668Y-88226037D01*
X181971666Y-88226036D01*
X181967253Y-88221134D01*
X181850265Y-88136137D01*
X181818094Y-88112763D01*
X181818093Y-88112762D01*
X181812752Y-88108882D01*
X181806724Y-88106198D01*
X181806722Y-88106197D01*
X181644319Y-88033891D01*
X181644318Y-88033891D01*
X181638288Y-88031206D01*
X181544887Y-88011353D01*
X181457944Y-87992872D01*
X181457939Y-87992872D01*
X181451487Y-87991500D01*
X181260513Y-87991500D01*
X181254061Y-87992872D01*
X181254056Y-87992872D01*
X181167112Y-88011353D01*
X181073712Y-88031206D01*
X181067682Y-88033891D01*
X181067681Y-88033891D01*
X180905278Y-88106197D01*
X180905276Y-88106198D01*
X180899248Y-88108882D01*
X180893907Y-88112762D01*
X180893906Y-88112763D01*
X180861735Y-88136137D01*
X180744747Y-88221134D01*
X180740326Y-88226044D01*
X180740325Y-88226045D01*
X180740150Y-88226240D01*
X180616960Y-88363056D01*
X180521473Y-88528444D01*
X180462458Y-88710072D01*
X180461768Y-88716633D01*
X180461768Y-88716635D01*
X180456752Y-88764357D01*
X180442496Y-88900000D01*
X168844487Y-88900000D01*
X168857575Y-88839676D01*
X168867370Y-88824435D01*
X168940615Y-88726705D01*
X168991745Y-88590316D01*
X168998500Y-88528134D01*
X168998500Y-87727856D01*
X168999578Y-87711409D01*
X169001092Y-87699908D01*
X169001529Y-87696590D01*
X169002505Y-87656639D01*
X169003074Y-87633365D01*
X169003074Y-87633361D01*
X169003156Y-87630000D01*
X168998924Y-87578524D01*
X168998500Y-87568200D01*
X168998500Y-86731866D01*
X168991745Y-86669684D01*
X168940615Y-86533295D01*
X168867370Y-86435564D01*
X168842522Y-86369059D01*
X168857575Y-86299676D01*
X168867370Y-86284435D01*
X168871786Y-86278543D01*
X168940615Y-86186705D01*
X168991745Y-86050316D01*
X168998500Y-85988134D01*
X168998500Y-85187856D01*
X168999578Y-85171409D01*
X169001092Y-85159908D01*
X169001529Y-85156590D01*
X169002505Y-85116639D01*
X169003074Y-85093365D01*
X169003074Y-85093361D01*
X169003156Y-85090000D01*
X168998924Y-85038524D01*
X168998500Y-85028200D01*
X168998500Y-84191866D01*
X168991745Y-84129684D01*
X168940615Y-83993295D01*
X168867058Y-83895148D01*
X168842210Y-83828642D01*
X168857263Y-83759259D01*
X168867058Y-83744018D01*
X168934786Y-83653649D01*
X168943324Y-83638054D01*
X168988478Y-83517606D01*
X168992105Y-83502351D01*
X168997631Y-83451486D01*
X168998000Y-83444672D01*
X168998000Y-82822115D01*
X168993525Y-82806876D01*
X168992135Y-82805671D01*
X168984452Y-82804000D01*
X166368000Y-82804000D01*
X166299879Y-82783998D01*
X166253386Y-82730342D01*
X166242000Y-82678000D01*
X166242000Y-82422000D01*
X166262002Y-82353879D01*
X166315658Y-82307386D01*
X166368000Y-82296000D01*
X168979884Y-82296000D01*
X168995123Y-82291525D01*
X168996328Y-82290135D01*
X168997999Y-82282452D01*
X168997999Y-81655331D01*
X168997629Y-81648510D01*
X168992105Y-81597648D01*
X168988479Y-81582396D01*
X168943324Y-81461946D01*
X168934786Y-81446351D01*
X168867058Y-81355982D01*
X168842210Y-81289475D01*
X168857263Y-81220093D01*
X168867058Y-81204852D01*
X168935229Y-81113891D01*
X168940615Y-81106705D01*
X168991745Y-80970316D01*
X168998500Y-80908134D01*
X168998500Y-80107856D01*
X168999578Y-80091409D01*
X169001092Y-80079908D01*
X169001529Y-80076590D01*
X169002505Y-80036639D01*
X169003074Y-80013365D01*
X169003074Y-80013361D01*
X169003156Y-80010000D01*
X169000418Y-79976695D01*
X184057251Y-79976695D01*
X184057548Y-79981848D01*
X184057548Y-79981851D01*
X184061291Y-80046763D01*
X184061500Y-80054016D01*
X184061500Y-80908134D01*
X184068255Y-80970316D01*
X184119385Y-81106705D01*
X184124771Y-81113891D01*
X184192942Y-81204852D01*
X184217790Y-81271358D01*
X184202737Y-81340741D01*
X184192942Y-81355982D01*
X184125214Y-81446351D01*
X184116676Y-81461946D01*
X184071522Y-81582394D01*
X184067895Y-81597649D01*
X184062369Y-81648514D01*
X184062000Y-81655328D01*
X184062000Y-82277885D01*
X184066475Y-82293124D01*
X184067865Y-82294329D01*
X184075548Y-82296000D01*
X188559884Y-82296000D01*
X188575123Y-82291525D01*
X188576328Y-82290135D01*
X188577999Y-82282452D01*
X188577999Y-81655331D01*
X188577629Y-81648510D01*
X188572105Y-81597648D01*
X188568479Y-81582396D01*
X188523324Y-81461946D01*
X188514786Y-81446351D01*
X188447058Y-81355982D01*
X188422210Y-81289475D01*
X188437263Y-81220093D01*
X188447058Y-81204852D01*
X188515229Y-81113891D01*
X188520615Y-81106705D01*
X188571745Y-80970316D01*
X188578500Y-80908134D01*
X188578500Y-79111866D01*
X188571745Y-79049684D01*
X188520615Y-78913295D01*
X188447370Y-78815564D01*
X188422522Y-78749059D01*
X188437575Y-78679676D01*
X188447370Y-78664435D01*
X188456345Y-78652460D01*
X188520615Y-78566705D01*
X188571745Y-78430316D01*
X188578500Y-78368134D01*
X188578500Y-76571866D01*
X188571745Y-76509684D01*
X188520615Y-76373295D01*
X188433261Y-76256739D01*
X188316705Y-76169385D01*
X188180316Y-76118255D01*
X188118134Y-76111500D01*
X185434985Y-76111500D01*
X185433446Y-76111491D01*
X185330081Y-76110228D01*
X185330079Y-76110228D01*
X185324911Y-76110165D01*
X185319797Y-76110948D01*
X185316289Y-76111193D01*
X185307496Y-76111500D01*
X184521866Y-76111500D01*
X184459684Y-76118255D01*
X184323295Y-76169385D01*
X184206739Y-76256739D01*
X184119385Y-76373295D01*
X184068255Y-76509684D01*
X184061500Y-76571866D01*
X184061500Y-77390219D01*
X184060787Y-77403607D01*
X184057251Y-77436695D01*
X184057548Y-77441848D01*
X184057548Y-77441851D01*
X184061291Y-77506763D01*
X184061500Y-77514016D01*
X184061500Y-78368134D01*
X184068255Y-78430316D01*
X184119385Y-78566705D01*
X184183655Y-78652460D01*
X184192630Y-78664435D01*
X184217478Y-78730941D01*
X184202425Y-78800324D01*
X184192632Y-78815562D01*
X184119385Y-78913295D01*
X184068255Y-79049684D01*
X184061500Y-79111866D01*
X184061500Y-79930219D01*
X184060787Y-79943607D01*
X184057251Y-79976695D01*
X169000418Y-79976695D01*
X168998924Y-79958524D01*
X168998500Y-79948200D01*
X168998500Y-79111866D01*
X168991745Y-79049684D01*
X168940615Y-78913295D01*
X168867370Y-78815564D01*
X168842522Y-78749059D01*
X168857575Y-78679676D01*
X168867370Y-78664435D01*
X168876345Y-78652460D01*
X168940615Y-78566705D01*
X168991745Y-78430316D01*
X168998500Y-78368134D01*
X168998500Y-77567856D01*
X168999578Y-77551409D01*
X169001092Y-77539908D01*
X169001529Y-77536590D01*
X169003156Y-77470000D01*
X168998924Y-77418524D01*
X168998500Y-77408200D01*
X168998500Y-76571866D01*
X168991745Y-76509684D01*
X168940615Y-76373295D01*
X168853261Y-76256739D01*
X168736705Y-76169385D01*
X168600316Y-76118255D01*
X168538134Y-76111500D01*
X167654985Y-76111500D01*
X167653446Y-76111491D01*
X167550081Y-76110228D01*
X167550079Y-76110228D01*
X167544911Y-76110165D01*
X167539797Y-76110948D01*
X167536289Y-76111193D01*
X167527496Y-76111500D01*
X165353500Y-76111500D01*
X165285379Y-76091498D01*
X165238886Y-76037842D01*
X165227500Y-75985500D01*
X165227500Y-75437500D01*
X165247502Y-75369379D01*
X165301158Y-75322886D01*
X165353500Y-75311500D01*
X172505500Y-75311500D01*
X172573621Y-75331502D01*
G37*
%TD.AperFunction*%
%TD*%
M02*
