%TF.GenerationSoftware,KiCad,Pcbnew,6.0.10-86aedd382b~118~ubuntu20.04.1*%
%TF.CreationDate,2023-01-18T18:06:03-08:00*%
%TF.ProjectId,parallel2usb,70617261-6c6c-4656-9c32-7573622e6b69,rev?*%
%TF.SameCoordinates,Original*%
%TF.FileFunction,Copper,L1,Top*%
%TF.FilePolarity,Positive*%
%FSLAX46Y46*%
G04 Gerber Fmt 4.6, Leading zero omitted, Abs format (unit mm)*
G04 Created by KiCad (PCBNEW 6.0.10-86aedd382b~118~ubuntu20.04.1) date 2023-01-18 18:06:03*
%MOMM*%
%LPD*%
G01*
G04 APERTURE LIST*
G04 Aperture macros list*
%AMRoundRect*
0 Rectangle with rounded corners*
0 $1 Rounding radius*
0 $2 $3 $4 $5 $6 $7 $8 $9 X,Y pos of 4 corners*
0 Add a 4 corners polygon primitive as box body*
4,1,4,$2,$3,$4,$5,$6,$7,$8,$9,$2,$3,0*
0 Add four circle primitives for the rounded corners*
1,1,$1+$1,$2,$3*
1,1,$1+$1,$4,$5*
1,1,$1+$1,$6,$7*
1,1,$1+$1,$8,$9*
0 Add four rect primitives between the rounded corners*
20,1,$1+$1,$2,$3,$4,$5,0*
20,1,$1+$1,$4,$5,$6,$7,0*
20,1,$1+$1,$6,$7,$8,$9,0*
20,1,$1+$1,$8,$9,$2,$3,0*%
G04 Aperture macros list end*
%TA.AperFunction,SMDPad,CuDef*%
%ADD10RoundRect,0.237500X0.300000X0.237500X-0.300000X0.237500X-0.300000X-0.237500X0.300000X-0.237500X0*%
%TD*%
%TA.AperFunction,ComponentPad*%
%ADD11O,1.700000X1.700000*%
%TD*%
%TA.AperFunction,ComponentPad*%
%ADD12R,1.700000X1.700000*%
%TD*%
%TA.AperFunction,SMDPad,CuDef*%
%ADD13RoundRect,0.237500X-0.300000X-0.237500X0.300000X-0.237500X0.300000X0.237500X-0.300000X0.237500X0*%
%TD*%
%TA.AperFunction,SMDPad,CuDef*%
%ADD14RoundRect,0.237500X0.250000X0.237500X-0.250000X0.237500X-0.250000X-0.237500X0.250000X-0.237500X0*%
%TD*%
%TA.AperFunction,SMDPad,CuDef*%
%ADD15R,1.200000X0.400000*%
%TD*%
%TA.AperFunction,ComponentPad*%
%ADD16C,1.600000*%
%TD*%
%TA.AperFunction,ComponentPad*%
%ADD17R,1.600000X1.600000*%
%TD*%
%TA.AperFunction,ComponentPad*%
%ADD18C,4.000000*%
%TD*%
%TA.AperFunction,SMDPad,CuDef*%
%ADD19RoundRect,0.237500X-0.250000X-0.237500X0.250000X-0.237500X0.250000X0.237500X-0.250000X0.237500X0*%
%TD*%
%TA.AperFunction,ViaPad*%
%ADD20C,0.800000*%
%TD*%
%TA.AperFunction,ViaPad*%
%ADD21C,0.600000*%
%TD*%
%TA.AperFunction,Conductor*%
%ADD22C,0.200000*%
%TD*%
%TA.AperFunction,Conductor*%
%ADD23C,0.127000*%
%TD*%
G04 APERTURE END LIST*
D10*
%TO.P,C20,1*%
%TO.N,+5V*%
X178281500Y-110998000D03*
%TO.P,C20,2*%
%TO.N,GND*%
X176556500Y-110998000D03*
%TD*%
D11*
%TO.P,U2,1,GPIO0*%
%TO.N,/AUTOF_3*%
X167640000Y-125730000D03*
%TO.P,U2,2,GPIO1*%
%TO.N,/INIT_3*%
X167640000Y-123190000D03*
D12*
%TO.P,U2,3,GND*%
%TO.N,GND*%
X167640000Y-120650000D03*
D11*
%TO.P,U2,4,GPIO2*%
%TO.N,/SELIN_3*%
X167640000Y-118110000D03*
%TO.P,U2,5,GPIO3*%
%TO.N,/D0_3*%
X167640000Y-115570000D03*
%TO.P,U2,6,GPIO4*%
%TO.N,/D1_3*%
X167640000Y-113030000D03*
%TO.P,U2,7,GPIO5*%
%TO.N,/D2_3*%
X167640000Y-110490000D03*
D12*
%TO.P,U2,8,GND*%
%TO.N,GND*%
X167640000Y-107950000D03*
D11*
%TO.P,U2,9,GPIO6*%
%TO.N,/D3_3*%
X167640000Y-105410000D03*
%TO.P,U2,10,GPIO7*%
%TO.N,/D4_3*%
X167640000Y-102870000D03*
%TO.P,U2,11,GPIO8*%
%TO.N,/D5_3*%
X167640000Y-100330000D03*
%TO.P,U2,12,GPIO9*%
%TO.N,/D6_3*%
X167640000Y-97790000D03*
D12*
%TO.P,U2,13,GND*%
%TO.N,GND*%
X167640000Y-95250000D03*
D11*
%TO.P,U2,14,GPIO10*%
%TO.N,/D7_3*%
X167640000Y-92710000D03*
%TO.P,U2,15,GPIO11*%
%TO.N,/STROBE_3*%
X167640000Y-90170000D03*
%TO.P,U2,16,GPIO12*%
%TO.N,/ERROR_3*%
X167640000Y-87630000D03*
%TO.P,U2,17,GPIO13*%
%TO.N,/ACK_3*%
X167640000Y-85090000D03*
D12*
%TO.P,U2,18,GND*%
%TO.N,GND*%
X167640000Y-82550000D03*
D11*
%TO.P,U2,19,GPIO14*%
%TO.N,/BUSY_3*%
X167640000Y-80010000D03*
%TO.P,U2,20,GPIO15*%
%TO.N,/PE_3*%
X167640000Y-77470000D03*
%TO.P,U2,21,GPIO16*%
%TO.N,/HD*%
X185420000Y-77470000D03*
%TO.P,U2,22,GPIO17*%
%TO.N,/DIR*%
X185420000Y-80010000D03*
D12*
%TO.P,U2,23,GND*%
%TO.N,GND*%
X185420000Y-82550000D03*
D11*
%TO.P,U2,24,GPIO18*%
%TO.N,/SEL_3*%
X185420000Y-85090000D03*
%TO.P,U2,25,GPIO19*%
%TO.N,unconnected-(U2-Pad25)*%
X185420000Y-87630000D03*
%TO.P,U2,26,GPIO20*%
%TO.N,unconnected-(U2-Pad26)*%
X185420000Y-90170000D03*
%TO.P,U2,27,GPIO21*%
%TO.N,unconnected-(U2-Pad27)*%
X185420000Y-92710000D03*
D12*
%TO.P,U2,28,GND*%
%TO.N,GND*%
X185420000Y-95250000D03*
D11*
%TO.P,U2,29,GPIO22*%
%TO.N,unconnected-(U2-Pad29)*%
X185420000Y-97790000D03*
%TO.P,U2,30,RUN*%
%TO.N,unconnected-(U2-Pad30)*%
X185420000Y-100330000D03*
%TO.P,U2,31,GPIO26_ADC0*%
%TO.N,unconnected-(U2-Pad31)*%
X185420000Y-102870000D03*
%TO.P,U2,32,GPIO27_ADC1*%
%TO.N,unconnected-(U2-Pad32)*%
X185420000Y-105410000D03*
D12*
%TO.P,U2,33,AGND*%
%TO.N,GND*%
X185420000Y-107950000D03*
D11*
%TO.P,U2,34,GPIO28_ADC2*%
%TO.N,unconnected-(U2-Pad34)*%
X185420000Y-110490000D03*
%TO.P,U2,35,ADC_VREF*%
%TO.N,unconnected-(U2-Pad35)*%
X185420000Y-113030000D03*
%TO.P,U2,36,3V3*%
%TO.N,+3.3V*%
X185420000Y-115570000D03*
%TO.P,U2,37,3V3_EN*%
%TO.N,unconnected-(U2-Pad37)*%
X185420000Y-118110000D03*
D12*
%TO.P,U2,38,GND*%
%TO.N,GND*%
X185420000Y-120650000D03*
D11*
%TO.P,U2,39,VSYS*%
%TO.N,unconnected-(U2-Pad39)*%
X185420000Y-123190000D03*
%TO.P,U2,40,VBUS*%
%TO.N,+5V*%
X185420000Y-125730000D03*
%TO.P,U2,41,SWCLK*%
%TO.N,unconnected-(U2-Pad41)*%
X173990000Y-77700000D03*
D12*
%TO.P,U2,42,GND*%
%TO.N,unconnected-(U2-Pad42)*%
X176530000Y-77700000D03*
D11*
%TO.P,U2,43,SWDIO*%
%TO.N,unconnected-(U2-Pad43)*%
X179070000Y-77700000D03*
%TD*%
D12*
%TO.P,J2,1,Pin_1*%
%TO.N,+3.3V*%
X194770000Y-77089000D03*
D11*
%TO.P,J2,2,Pin_2*%
%TO.N,+5V*%
X194770000Y-79629000D03*
%TO.P,J2,3,Pin_3*%
%TO.N,/SEL*%
X194770000Y-82169000D03*
%TO.P,J2,4,Pin_4*%
%TO.N,/PE*%
X194770000Y-84709000D03*
%TO.P,J2,5,Pin_5*%
%TO.N,/BUSY*%
X194770000Y-87249000D03*
%TO.P,J2,6,Pin_6*%
%TO.N,/ACK*%
X194770000Y-89789000D03*
%TO.P,J2,7,Pin_7*%
%TO.N,/D7*%
X194770000Y-92329000D03*
%TO.P,J2,8,Pin_8*%
%TO.N,/D6*%
X194770000Y-94869000D03*
%TO.P,J2,9,Pin_9*%
%TO.N,/D5*%
X194770000Y-97409000D03*
%TO.P,J2,10,Pin_10*%
%TO.N,/D4*%
X194770000Y-99949000D03*
%TO.P,J2,11,Pin_11*%
%TO.N,/D3*%
X194770000Y-102489000D03*
%TO.P,J2,12,Pin_12*%
%TO.N,/SELIN*%
X194770000Y-105029000D03*
%TO.P,J2,13,Pin_13*%
%TO.N,/D2*%
X194770000Y-107569000D03*
%TO.P,J2,14,Pin_14*%
%TO.N,/INIT*%
X194770000Y-110109000D03*
%TO.P,J2,15,Pin_15*%
%TO.N,/D1*%
X194770000Y-112649000D03*
%TO.P,J2,16,Pin_16*%
%TO.N,/ERROR*%
X194770000Y-115189000D03*
%TO.P,J2,17,Pin_17*%
%TO.N,/D0*%
X194770000Y-117729000D03*
%TO.P,J2,18,Pin_18*%
%TO.N,/AUTOF*%
X194770000Y-120269000D03*
%TO.P,J2,19,Pin_19*%
%TO.N,/STROBE*%
X194770000Y-122809000D03*
%TO.P,J2,20,Pin_20*%
%TO.N,GND*%
X194770000Y-125349000D03*
%TD*%
D10*
%TO.P,C3,2*%
%TO.N,GND*%
X189992000Y-77597000D03*
%TO.P,C3,1*%
%TO.N,/SEL*%
X191717000Y-77597000D03*
%TD*%
D13*
%TO.P,C19,2*%
%TO.N,GND*%
X178052000Y-91287600D03*
%TO.P,C19,1*%
%TO.N,+3.3V*%
X176327000Y-91287600D03*
%TD*%
D10*
%TO.P,C16,1*%
%TO.N,/D1*%
X191717000Y-114173000D03*
%TO.P,C16,2*%
%TO.N,GND*%
X189992000Y-114173000D03*
%TD*%
%TO.P,C17,1*%
%TO.N,/D0*%
X191717000Y-120269000D03*
%TO.P,C17,2*%
%TO.N,GND*%
X189992000Y-120269000D03*
%TD*%
D14*
%TO.P,R9,2*%
%TO.N,Net-(R9-Pad2)*%
X189945000Y-76073000D03*
%TO.P,R9,1*%
%TO.N,/SEL*%
X191770000Y-76073000D03*
%TD*%
D10*
%TO.P,C15,1*%
%TO.N,/ERROR*%
X191717000Y-117221000D03*
%TO.P,C15,2*%
%TO.N,GND*%
X189992000Y-117221000D03*
%TD*%
%TO.P,C12,1*%
%TO.N,/ACK*%
X191717000Y-86741000D03*
%TO.P,C12,2*%
%TO.N,GND*%
X189992000Y-86741000D03*
%TD*%
D14*
%TO.P,R3,1*%
%TO.N,/D5*%
X191770000Y-94361000D03*
%TO.P,R3,2*%
%TO.N,Net-(R3-Pad2)*%
X189945000Y-94361000D03*
%TD*%
%TO.P,R12,1*%
%TO.N,/ACK*%
X191770000Y-85217000D03*
%TO.P,R12,2*%
%TO.N,Net-(R12-Pad2)*%
X189945000Y-85217000D03*
%TD*%
D10*
%TO.P,C5,1*%
%TO.N,/D5*%
X191717000Y-95885000D03*
%TO.P,C5,2*%
%TO.N,GND*%
X189992000Y-95885000D03*
%TD*%
%TO.P,C11,1*%
%TO.N,/D3*%
X191717000Y-101981000D03*
%TO.P,C11,2*%
%TO.N,GND*%
X189992000Y-101981000D03*
%TD*%
D14*
%TO.P,R11,1*%
%TO.N,/BUSY*%
X191770000Y-82169000D03*
%TO.P,R11,2*%
%TO.N,Net-(R11-Pad2)*%
X189945000Y-82169000D03*
%TD*%
D15*
%TO.P,U1,48,DIR*%
%TO.N,/DIR*%
X181864000Y-94615000D03*
%TO.P,U1,47,Y9*%
%TO.N,Net-(R9-Pad2)*%
X181864000Y-95250000D03*
%TO.P,U1,46,Y10*%
%TO.N,Net-(R10-Pad2)*%
X181864000Y-95885000D03*
%TO.P,U1,45,Y11*%
%TO.N,Net-(R11-Pad2)*%
X181864000Y-96520000D03*
%TO.P,U1,44,Y12*%
%TO.N,Net-(R12-Pad2)*%
X181864000Y-97155000D03*
%TO.P,U1,43,Y13*%
%TO.N,Net-(R13-Pad2)*%
X181864000Y-97790000D03*
%TO.P,U1,42,Vcc_Cable*%
%TO.N,+5V*%
X181864000Y-98425000D03*
%TO.P,U1,41,B1*%
%TO.N,Net-(R1-Pad2)*%
X181864000Y-99060000D03*
%TO.P,U1,40,B2*%
%TO.N,Net-(R2-Pad2)*%
X181864000Y-99695000D03*
%TO.P,U1,39,GND*%
%TO.N,GND*%
X181864000Y-100330000D03*
%TO.P,U1,38,B3*%
%TO.N,Net-(R3-Pad2)*%
X181864000Y-100965000D03*
%TO.P,U1,37,B4*%
%TO.N,Net-(R4-Pad2)*%
X181864000Y-101600000D03*
%TO.P,U1,36,B5*%
%TO.N,Net-(R5-Pad2)*%
X181864000Y-102235000D03*
%TO.P,U1,35,B6*%
%TO.N,Net-(R6-Pad2)*%
X181864000Y-102870000D03*
%TO.P,U1,34,GND*%
%TO.N,GND*%
X181864000Y-103505000D03*
%TO.P,U1,33,B7*%
%TO.N,Net-(R7-Pad2)*%
X181864000Y-104140000D03*
%TO.P,U1,32,B8*%
%TO.N,Net-(R8-Pad2)*%
X181864000Y-104775000D03*
%TO.P,U1,31,Vcc_Cable*%
%TO.N,+5V*%
X181864000Y-105410000D03*
%TO.P,U1,30,PERI_LOGIC_OUT*%
%TO.N,unconnected-(U1-Pad30)*%
X181864000Y-106045000D03*
%TO.P,U1,29,C14*%
%TO.N,Net-(R14-Pad2)*%
X181864000Y-106680000D03*
%TO.P,U1,28,C15*%
%TO.N,Net-(R15-Pad2)*%
X181864000Y-107315000D03*
%TO.P,U1,27,C16*%
%TO.N,Net-(R16-Pad2)*%
X181864000Y-107950000D03*
%TO.P,U1,26,C17*%
%TO.N,Net-(R17-Pad2)*%
X181864000Y-108585000D03*
%TO.P,U1,25,HOST_LOGIC_IN*%
%TO.N,GND*%
X181864000Y-109220000D03*
%TO.P,U1,24,HOST_LOGIC_OUT*%
%TO.N,unconnected-(U1-Pad24)*%
X172464000Y-109220000D03*
%TO.P,U1,23,A17*%
%TO.N,/STROBE_3*%
X172464000Y-108585000D03*
%TO.P,U1,22,A16*%
%TO.N,/AUTOF_3*%
X172464000Y-107950000D03*
%TO.P,U1,21,A15*%
%TO.N,/INIT_3*%
X172464000Y-107315000D03*
%TO.P,U1,20,A14*%
%TO.N,/SELIN_3*%
X172464000Y-106680000D03*
%TO.P,U1,19,PERI_LOGIC_IN*%
%TO.N,GND*%
X172464000Y-106045000D03*
%TO.P,U1,18,Vcc*%
%TO.N,+3.3V*%
X172464000Y-105410000D03*
%TO.P,U1,17,A8*%
%TO.N,/D0_3*%
X172464000Y-104775000D03*
%TO.P,U1,16,A7*%
%TO.N,/D1_3*%
X172464000Y-104140000D03*
%TO.P,U1,15,GND*%
%TO.N,GND*%
X172464000Y-103505000D03*
%TO.P,U1,14,A6*%
%TO.N,/D2_3*%
X172464000Y-102870000D03*
%TO.P,U1,13,A5*%
%TO.N,/D3_3*%
X172464000Y-102235000D03*
%TO.P,U1,12,A4*%
%TO.N,/D4_3*%
X172464000Y-101600000D03*
%TO.P,U1,11,A3*%
%TO.N,/D5_3*%
X172464000Y-100965000D03*
%TO.P,U1,10,GND*%
%TO.N,GND*%
X172464000Y-100330000D03*
%TO.P,U1,9,A2*%
%TO.N,/D6_3*%
X172464000Y-99695000D03*
%TO.P,U1,8,A1*%
%TO.N,/D7_3*%
X172464000Y-99060000D03*
%TO.P,U1,7,Vcc*%
%TO.N,+3.3V*%
X172464000Y-98425000D03*
%TO.P,U1,6,A13*%
%TO.N,/ERROR_3*%
X172464000Y-97790000D03*
%TO.P,U1,5,A12*%
%TO.N,/ACK_3*%
X172464000Y-97155000D03*
%TO.P,U1,4,A11*%
%TO.N,/BUSY_3*%
X172464000Y-96520000D03*
%TO.P,U1,3,A10*%
%TO.N,/PE_3*%
X172464000Y-95885000D03*
%TO.P,U1,2,A9*%
%TO.N,/SEL_3*%
X172464000Y-95250000D03*
%TO.P,U1,1,HD*%
%TO.N,/HD*%
X172464000Y-94615000D03*
%TD*%
D14*
%TO.P,R16,1*%
%TO.N,/AUTOF*%
X191770000Y-121793000D03*
%TO.P,R16,2*%
%TO.N,Net-(R16-Pad2)*%
X189945000Y-121793000D03*
%TD*%
D10*
%TO.P,C2,1*%
%TO.N,/D6*%
X191717000Y-92837000D03*
%TO.P,C2,2*%
%TO.N,GND*%
X189992000Y-92837000D03*
%TD*%
%TO.P,C4,1*%
%TO.N,/SELIN*%
X191717000Y-105029000D03*
%TO.P,C4,2*%
%TO.N,GND*%
X189992000Y-105029000D03*
%TD*%
%TO.P,C13,1*%
%TO.N,/STROBE*%
X191717000Y-126365000D03*
%TO.P,C13,2*%
%TO.N,GND*%
X189992000Y-126365000D03*
%TD*%
%TO.P,C9,1*%
%TO.N,/BUSY*%
X191717000Y-83693000D03*
%TO.P,C9,2*%
%TO.N,GND*%
X189992000Y-83693000D03*
%TD*%
D14*
%TO.P,R8,1*%
%TO.N,/D0*%
X191770000Y-118745000D03*
%TO.P,R8,2*%
%TO.N,Net-(R8-Pad2)*%
X189945000Y-118745000D03*
%TD*%
%TO.P,R6,1*%
%TO.N,/D2*%
X191770000Y-106553000D03*
%TO.P,R6,2*%
%TO.N,Net-(R6-Pad2)*%
X189945000Y-106553000D03*
%TD*%
D16*
%TO.P,J1,25,P25*%
%TO.N,GND*%
X201928000Y-86370000D03*
%TO.P,J1,24,P24*%
X201928000Y-89140000D03*
%TO.P,J1,23,P23*%
X201928000Y-91910000D03*
%TO.P,J1,22,P22*%
X201928000Y-94680000D03*
%TO.P,J1,21,P21*%
X201928000Y-97450000D03*
%TO.P,J1,20,P20*%
X201928000Y-100220000D03*
%TO.P,J1,19,P19*%
X201928000Y-102990000D03*
%TO.P,J1,18,P18*%
X201928000Y-105760000D03*
%TO.P,J1,17,P17*%
%TO.N,/SELIN*%
X201928000Y-108530000D03*
%TO.P,J1,16,P16*%
%TO.N,/INIT*%
X201928000Y-111300000D03*
%TO.P,J1,15,P15*%
%TO.N,/ERROR*%
X201928000Y-114070000D03*
%TO.P,J1,14,P14*%
%TO.N,/AUTOF*%
X201928000Y-116840000D03*
%TO.P,J1,13,13*%
%TO.N,/SEL*%
X199088000Y-84985000D03*
%TO.P,J1,12,12*%
%TO.N,/PE*%
X199088000Y-87755000D03*
%TO.P,J1,11,11*%
%TO.N,/BUSY*%
X199088000Y-90525000D03*
%TO.P,J1,10,10*%
%TO.N,/ACK*%
X199088000Y-93295000D03*
%TO.P,J1,9,9*%
%TO.N,/D7*%
X199088000Y-96065000D03*
%TO.P,J1,8,8*%
%TO.N,/D6*%
X199088000Y-98835000D03*
%TO.P,J1,7,7*%
%TO.N,/D5*%
X199088000Y-101605000D03*
%TO.P,J1,6,6*%
%TO.N,/D4*%
X199088000Y-104375000D03*
%TO.P,J1,5,5*%
%TO.N,/D3*%
X199088000Y-107145000D03*
%TO.P,J1,4,4*%
%TO.N,/D2*%
X199088000Y-109915000D03*
%TO.P,J1,3,3*%
%TO.N,/D1*%
X199088000Y-112685000D03*
%TO.P,J1,2,2*%
%TO.N,/D0*%
X199088000Y-115455000D03*
D17*
%TO.P,J1,1,1*%
%TO.N,/STROBE*%
X199088000Y-118225000D03*
D18*
%TO.P,J1,0,PAD*%
%TO.N,GND*%
X200508000Y-125155000D03*
X200508000Y-78055000D03*
%TD*%
D14*
%TO.P,R2,1*%
%TO.N,/D6*%
X191770000Y-91313000D03*
%TO.P,R2,2*%
%TO.N,Net-(R2-Pad2)*%
X189945000Y-91313000D03*
%TD*%
%TO.P,R15,1*%
%TO.N,/INIT*%
X191770000Y-109601000D03*
%TO.P,R15,2*%
%TO.N,Net-(R15-Pad2)*%
X189945000Y-109601000D03*
%TD*%
D10*
%TO.P,C10,1*%
%TO.N,/AUTOF*%
X191717000Y-123317000D03*
%TO.P,C10,2*%
%TO.N,GND*%
X189992000Y-123317000D03*
%TD*%
%TO.P,C8,1*%
%TO.N,/D4*%
X191717000Y-98933000D03*
%TO.P,C8,2*%
%TO.N,GND*%
X189992000Y-98933000D03*
%TD*%
D14*
%TO.P,R14,1*%
%TO.N,/SELIN*%
X191770000Y-103505000D03*
%TO.P,R14,2*%
%TO.N,Net-(R14-Pad2)*%
X189945000Y-103505000D03*
%TD*%
%TO.P,R18,2*%
%TO.N,/HD*%
X172362400Y-92837000D03*
%TO.P,R18,1*%
%TO.N,GND*%
X174187400Y-92837000D03*
%TD*%
%TO.P,R13,1*%
%TO.N,/ERROR*%
X191770000Y-115697000D03*
%TO.P,R13,2*%
%TO.N,Net-(R13-Pad2)*%
X189945000Y-115697000D03*
%TD*%
%TO.P,R10,1*%
%TO.N,/PE*%
X191770000Y-79121000D03*
%TO.P,R10,2*%
%TO.N,Net-(R10-Pad2)*%
X189945000Y-79121000D03*
%TD*%
D10*
%TO.P,C6,1*%
%TO.N,/PE*%
X191717000Y-80645000D03*
%TO.P,C6,2*%
%TO.N,GND*%
X189992000Y-80645000D03*
%TD*%
%TO.P,C14,1*%
%TO.N,/D2*%
X191717000Y-108077000D03*
%TO.P,C14,2*%
%TO.N,GND*%
X189992000Y-108077000D03*
%TD*%
%TO.P,C1,1*%
%TO.N,/D7*%
X191717000Y-89789000D03*
%TO.P,C1,2*%
%TO.N,GND*%
X189992000Y-89789000D03*
%TD*%
D19*
%TO.P,R19,2*%
%TO.N,/DIR*%
X181963600Y-92837000D03*
%TO.P,R19,1*%
%TO.N,GND*%
X180138600Y-92837000D03*
%TD*%
D14*
%TO.P,R17,1*%
%TO.N,/STROBE*%
X191770000Y-124841000D03*
%TO.P,R17,2*%
%TO.N,Net-(R17-Pad2)*%
X189945000Y-124841000D03*
%TD*%
%TO.P,R7,1*%
%TO.N,/D1*%
X191770000Y-112649000D03*
%TO.P,R7,2*%
%TO.N,Net-(R7-Pad2)*%
X189945000Y-112649000D03*
%TD*%
D13*
%TO.P,C18,2*%
%TO.N,GND*%
X178052000Y-92837000D03*
%TO.P,C18,1*%
%TO.N,+3.3V*%
X176327000Y-92837000D03*
%TD*%
D10*
%TO.P,C7,1*%
%TO.N,/INIT*%
X191717000Y-111125000D03*
%TO.P,C7,2*%
%TO.N,GND*%
X189992000Y-111125000D03*
%TD*%
D14*
%TO.P,R1,1*%
%TO.N,/D7*%
X191770000Y-88265000D03*
%TO.P,R1,2*%
%TO.N,Net-(R1-Pad2)*%
X189945000Y-88265000D03*
%TD*%
%TO.P,R4,1*%
%TO.N,/D4*%
X191770000Y-97409000D03*
%TO.P,R4,2*%
%TO.N,Net-(R4-Pad2)*%
X189945000Y-97409000D03*
%TD*%
%TO.P,R5,1*%
%TO.N,/D3*%
X191770000Y-100457000D03*
%TO.P,R5,2*%
%TO.N,Net-(R5-Pad2)*%
X189945000Y-100457000D03*
%TD*%
D20*
%TO.N,GND*%
X175514000Y-110998000D03*
D21*
%TO.N,/SEL_3*%
X181356000Y-85090000D03*
D20*
%TO.N,+5V*%
X181356000Y-88900000D03*
%TO.N,+3.3V*%
X181356000Y-86233000D03*
X183642000Y-115570000D03*
X181610000Y-115570000D03*
%TO.N,GND*%
X173609000Y-103505000D03*
X173609000Y-100330000D03*
X174244000Y-93980000D03*
D21*
%TO.N,/STROBE_3*%
X171294017Y-97945983D03*
X171340803Y-108611705D03*
D20*
%TO.N,GND*%
X173609000Y-106045000D03*
X180086000Y-93980000D03*
X180721000Y-109220000D03*
X180721000Y-103505000D03*
X180721000Y-100330000D03*
D21*
%TO.N,Net-(R14-Pad2)*%
X182880000Y-106680000D03*
X188595000Y-103505000D03*
%TO.N,Net-(R13-Pad2)*%
X188849000Y-115316000D03*
X183134000Y-97790000D03*
%TO.N,Net-(R15-Pad2)*%
X188214000Y-109220000D03*
X184150000Y-109220000D03*
%TD*%
D22*
%TO.N,GND*%
X176556500Y-110998000D02*
X175514000Y-110998000D01*
%TO.N,+5V*%
X180086000Y-112522000D02*
X180086000Y-110998000D01*
X180086000Y-110998000D02*
X180086000Y-105918000D01*
X178281500Y-110998000D02*
X180086000Y-110998000D01*
D23*
%TO.N,/D7_3*%
X172464000Y-99060000D02*
X171323000Y-99060000D01*
X171323000Y-99060000D02*
X169926000Y-97663000D01*
X169926000Y-97663000D02*
X169926000Y-94996000D01*
X169926000Y-94996000D02*
X167640000Y-92710000D01*
%TO.N,/STROBE_3*%
X170180000Y-96831966D02*
X171294017Y-97945983D01*
%TO.N,/ERROR_3*%
X172464000Y-97790000D02*
X171831000Y-97790000D01*
%TO.N,/STROBE_3*%
X170180000Y-92710000D02*
X170180000Y-96831966D01*
X167640000Y-90170000D02*
X170180000Y-92710000D01*
%TO.N,/ERROR_3*%
X171831000Y-97790000D02*
X170434000Y-96393000D01*
X170434000Y-96393000D02*
X170434000Y-90424000D01*
X170434000Y-90424000D02*
X167640000Y-87630000D01*
%TO.N,/SELIN_3*%
X172464000Y-106680000D02*
X171621992Y-106680000D01*
%TO.N,/AUTOF_3*%
X172464000Y-107950000D02*
X171069000Y-107950000D01*
%TO.N,/STROBE_3*%
X172464000Y-108585000D02*
X171367508Y-108585000D01*
X171367508Y-108585000D02*
X171340803Y-108611705D01*
%TO.N,/AUTOF_3*%
X171069000Y-107950000D02*
X170815000Y-108204000D01*
%TO.N,/SELIN_3*%
X169799000Y-115951000D02*
X167640000Y-118110000D01*
%TO.N,/INIT_3*%
X172464000Y-107315000D02*
X171345496Y-107315000D01*
X170561499Y-108098997D02*
X170561499Y-120268501D01*
X171345496Y-107315000D02*
X170561499Y-108098997D01*
X170561499Y-120268501D02*
X167640000Y-123190000D01*
%TO.N,/SELIN_3*%
X169799000Y-108502992D02*
X169799000Y-115951000D01*
X171621992Y-106680000D02*
X169799000Y-108502992D01*
%TO.N,/AUTOF_3*%
X170815000Y-122555000D02*
X167640000Y-125730000D01*
X170815000Y-108204000D02*
X170815000Y-122555000D01*
%TO.N,/SEL_3*%
X178435000Y-85090000D02*
X181356000Y-85090000D01*
D22*
%TO.N,+5V*%
X181037000Y-94807000D02*
X180721000Y-95123000D01*
X181037000Y-89219000D02*
X181037000Y-94807000D01*
X181356000Y-88900000D02*
X181037000Y-89219000D01*
X180721000Y-95123000D02*
X180721000Y-98082000D01*
X180721000Y-98082000D02*
X181064000Y-98425000D01*
X181064000Y-98425000D02*
X181864000Y-98425000D01*
%TO.N,+3.3V*%
X176327000Y-91287600D02*
X176403000Y-91211600D01*
X176403000Y-91211600D02*
X176403000Y-89408000D01*
X176403000Y-89408000D02*
X179578000Y-86233000D01*
X179578000Y-86233000D02*
X181356000Y-86233000D01*
D23*
%TO.N,Net-(R16-Pad2)*%
X189945000Y-121793000D02*
X184150000Y-121793000D01*
X183052000Y-108411000D02*
X182591000Y-107950000D01*
X184150000Y-121793000D02*
X183052000Y-120695000D01*
X183052000Y-120695000D02*
X183052000Y-108411000D01*
X182591000Y-107950000D02*
X181864000Y-107950000D01*
%TO.N,Net-(R17-Pad2)*%
X189945000Y-124841000D02*
X189564000Y-124460000D01*
X189564000Y-124460000D02*
X184658000Y-124460000D01*
X184658000Y-124460000D02*
X182798499Y-122600499D01*
X182798499Y-122600499D02*
X182798499Y-108792499D01*
X182591000Y-108585000D02*
X181864000Y-108585000D01*
X182798499Y-108792499D02*
X182591000Y-108585000D01*
D22*
%TO.N,+5V*%
X185420000Y-125730000D02*
X184531000Y-125730000D01*
X182508499Y-123707499D02*
X182508499Y-114944499D01*
X184531000Y-125730000D02*
X182508499Y-123707499D01*
X180594000Y-105410000D02*
X180975000Y-105410000D01*
X180086000Y-105918000D02*
X180594000Y-105410000D01*
X182508499Y-114944499D02*
X180086000Y-112522000D01*
%TO.N,+3.3V*%
X185420000Y-115570000D02*
X183642000Y-115570000D01*
%TO.N,+5V*%
X180975000Y-105410000D02*
X180721000Y-105410000D01*
X181864000Y-105410000D02*
X180975000Y-105410000D01*
%TO.N,+3.3V*%
X174235500Y-104438500D02*
X174235500Y-104766500D01*
X174235500Y-104766500D02*
X177419000Y-107950000D01*
X177419000Y-107950000D02*
X177419000Y-111379000D01*
X177419000Y-111379000D02*
X181610000Y-115570000D01*
X174235500Y-104438500D02*
X174235500Y-98416500D01*
X174235500Y-98416500D02*
X174235500Y-98052500D01*
X174227000Y-98425000D02*
X174235500Y-98416500D01*
X172464000Y-98425000D02*
X174227000Y-98425000D01*
X172464000Y-105410000D02*
X173264000Y-105410000D01*
X173264000Y-105410000D02*
X174235500Y-104438500D01*
X174235500Y-98052500D02*
X176327000Y-95961000D01*
X176327000Y-95961000D02*
X176327000Y-92837000D01*
%TO.N,GND*%
X172464000Y-103505000D02*
X173609000Y-103505000D01*
X172464000Y-100330000D02*
X173609000Y-100330000D01*
X174187400Y-92837000D02*
X174187400Y-93923400D01*
X174187400Y-93923400D02*
X174244000Y-93980000D01*
D23*
%TO.N,/SEL_3*%
X172464000Y-95250000D02*
X173191000Y-95250000D01*
X173191000Y-95250000D02*
X173355000Y-95086000D01*
X173355000Y-95086000D02*
X173355000Y-90170000D01*
X173355000Y-90170000D02*
X178435000Y-85090000D01*
%TO.N,/HD*%
X172362400Y-90527600D02*
X185420000Y-77470000D01*
X172362400Y-92837000D02*
X172362400Y-90527600D01*
%TO.N,/PE_3*%
X172464000Y-95885000D02*
X171577000Y-95885000D01*
X171577000Y-95885000D02*
X171196000Y-95504000D01*
X171196000Y-95504000D02*
X171196000Y-81026000D01*
X171196000Y-81026000D02*
X167640000Y-77470000D01*
%TO.N,/ACK_3*%
X172464000Y-97155000D02*
X171599496Y-97155000D01*
X170688499Y-88138499D02*
X167640000Y-85090000D01*
%TO.N,/BUSY_3*%
X172464000Y-96520000D02*
X171323000Y-96520000D01*
X171323000Y-96520000D02*
X170942000Y-96139000D01*
%TO.N,/ACK_3*%
X171599496Y-97155000D02*
X170688499Y-96244003D01*
X170688499Y-96244003D02*
X170688499Y-88138499D01*
%TO.N,/BUSY_3*%
X170942000Y-83312000D02*
X167640000Y-80010000D01*
X170942000Y-96139000D02*
X170942000Y-83312000D01*
%TO.N,/D6_3*%
X172464000Y-99695000D02*
X171196000Y-99695000D01*
X171196000Y-99695000D02*
X169291000Y-97790000D01*
X169291000Y-97790000D02*
X167640000Y-97790000D01*
%TO.N,/D5_3*%
X167640000Y-100330000D02*
X168275000Y-100965000D01*
X168275000Y-100965000D02*
X172464000Y-100965000D01*
%TO.N,/D4_3*%
X167640000Y-102870000D02*
X169672000Y-102870000D01*
X169672000Y-102870000D02*
X170942000Y-101600000D01*
X170942000Y-101600000D02*
X172464000Y-101600000D01*
%TO.N,/D2_3*%
X167640000Y-110490000D02*
X169037000Y-109093000D01*
X169037000Y-109093000D02*
X169037000Y-105641504D01*
X169037000Y-105641504D02*
X171576501Y-103102003D01*
X171576501Y-103102003D02*
X171598997Y-103102003D01*
X171598997Y-103102003D02*
X171831000Y-102870000D01*
X171831000Y-102870000D02*
X172464000Y-102870000D01*
%TO.N,/D3_3*%
X168910000Y-105410000D02*
X171323000Y-102997000D01*
X167640000Y-105410000D02*
X168910000Y-105410000D01*
X171323000Y-102997000D02*
X171323000Y-102649000D01*
X171737000Y-102235000D02*
X172464000Y-102235000D01*
X171323000Y-102649000D02*
X171737000Y-102235000D01*
%TO.N,/D1_3*%
X167640000Y-113030000D02*
X169291000Y-111379000D01*
X169291000Y-111379000D02*
X169291000Y-106586000D01*
X169291000Y-106586000D02*
X171737000Y-104140000D01*
X171737000Y-104140000D02*
X172464000Y-104140000D01*
%TO.N,/D0_3*%
X167640000Y-115570000D02*
X169545000Y-113665000D01*
X169545000Y-113665000D02*
X169545000Y-106967000D01*
X169545000Y-106967000D02*
X171737000Y-104775000D01*
X171737000Y-104775000D02*
X172464000Y-104775000D01*
D22*
%TO.N,GND*%
X172464000Y-106045000D02*
X173609000Y-106045000D01*
X180138600Y-92837000D02*
X180138600Y-93927400D01*
X180138600Y-93927400D02*
X180086000Y-93980000D01*
%TO.N,+5V*%
X180975000Y-98425000D02*
X181864000Y-98425000D01*
X180721000Y-105410000D02*
X180086000Y-104775000D01*
X180086000Y-99314000D02*
X180975000Y-98425000D01*
X180086000Y-104775000D02*
X180086000Y-99314000D01*
%TO.N,GND*%
X181864000Y-109220000D02*
X180721000Y-109220000D01*
X181864000Y-103505000D02*
X180721000Y-103505000D01*
X181064000Y-100330000D02*
X180721000Y-100330000D01*
X189992000Y-120269000D02*
X185801000Y-120269000D01*
X185801000Y-120269000D02*
X185420000Y-120650000D01*
D23*
%TO.N,Net-(R14-Pad2)*%
X189945000Y-103505000D02*
X188595000Y-103505000D01*
X182880000Y-106680000D02*
X181864000Y-106680000D01*
%TO.N,Net-(R13-Pad2)*%
X189945000Y-115697000D02*
X189230000Y-115697000D01*
X189230000Y-115697000D02*
X188849000Y-115316000D01*
X183134000Y-97790000D02*
X181864000Y-97790000D01*
%TO.N,Net-(R15-Pad2)*%
X188595000Y-109601000D02*
X189945000Y-109601000D01*
X188214000Y-109220000D02*
X188595000Y-109601000D01*
X181864000Y-107315000D02*
X182591000Y-107315000D01*
X184150000Y-108874000D02*
X184150000Y-109220000D01*
X182591000Y-107315000D02*
X184150000Y-108874000D01*
%TO.N,Net-(R8-Pad2)*%
X181864000Y-104775000D02*
X183769000Y-104775000D01*
X183769000Y-104775000D02*
X184023000Y-105029000D01*
X184023000Y-105029000D02*
X184023000Y-106172000D01*
X184023000Y-106172000D02*
X184658000Y-106807000D01*
X184658000Y-106807000D02*
X186436000Y-106807000D01*
X186436000Y-106807000D02*
X187325000Y-107696000D01*
X187325000Y-107696000D02*
X187325000Y-117983000D01*
X187325000Y-117983000D02*
X188087000Y-118745000D01*
X188087000Y-118745000D02*
X189945000Y-118745000D01*
D22*
%TO.N,GND*%
X181064000Y-100330000D02*
X181864000Y-100330000D01*
D23*
%TO.N,Net-(R7-Pad2)*%
X181864000Y-104140000D02*
X183896000Y-104140000D01*
X183896000Y-104140000D02*
X184277000Y-104521000D01*
X184277000Y-104521000D02*
X184277000Y-106045000D01*
X184277000Y-106045000D02*
X184785000Y-106553000D01*
X184785000Y-106553000D02*
X186817000Y-106553000D01*
X186817000Y-106553000D02*
X187579000Y-107315000D01*
X187579000Y-107315000D02*
X187579000Y-111506000D01*
X187579000Y-111506000D02*
X188722000Y-112649000D01*
X188722000Y-112649000D02*
X189945000Y-112649000D01*
%TO.N,Net-(R6-Pad2)*%
X181864000Y-102870000D02*
X183642000Y-102870000D01*
X184912000Y-104140000D02*
X186182000Y-104140000D01*
X183642000Y-102870000D02*
X184912000Y-104140000D01*
X186944000Y-104902000D02*
X186944000Y-105664000D01*
X186944000Y-105664000D02*
X187833000Y-106553000D01*
X187833000Y-106553000D02*
X189945000Y-106553000D01*
X186182000Y-104140000D02*
X186944000Y-104902000D01*
%TO.N,Net-(R5-Pad2)*%
X181864000Y-102235000D02*
X182753000Y-102235000D01*
X183388000Y-101600000D02*
X187579000Y-101600000D01*
X182753000Y-102235000D02*
X183388000Y-101600000D01*
X187579000Y-101600000D02*
X188722000Y-100457000D01*
X188722000Y-100457000D02*
X189945000Y-100457000D01*
%TO.N,Net-(R4-Pad2)*%
X181864000Y-101600000D02*
X182626000Y-101600000D01*
X182626000Y-101600000D02*
X184531000Y-99695000D01*
X184531000Y-99695000D02*
X184531000Y-99314000D01*
X184531000Y-99314000D02*
X184785000Y-99060000D01*
X184785000Y-99060000D02*
X186309000Y-99060000D01*
X186309000Y-99060000D02*
X187960000Y-97409000D01*
X187960000Y-97409000D02*
X189945000Y-97409000D01*
%TO.N,Net-(R3-Pad2)*%
X181864000Y-100965000D02*
X182591000Y-100965000D01*
X184277000Y-99279000D02*
X184277000Y-94361000D01*
X182591000Y-100965000D02*
X184277000Y-99279000D01*
X184277000Y-94361000D02*
X184531000Y-94107000D01*
X184531000Y-94107000D02*
X189691000Y-94107000D01*
X189691000Y-94107000D02*
X189945000Y-94361000D01*
%TO.N,Net-(R2-Pad2)*%
X181864000Y-99695000D02*
X182591000Y-99695000D01*
X182591000Y-99695000D02*
X184023000Y-98263000D01*
X184023000Y-98263000D02*
X184023000Y-92075000D01*
X184023000Y-92075000D02*
X184785000Y-91313000D01*
X184785000Y-91313000D02*
X189945000Y-91313000D01*
%TO.N,Net-(R1-Pad2)*%
X181864000Y-99060000D02*
X182591000Y-99060000D01*
X182591000Y-99060000D02*
X183769000Y-97882000D01*
X183769000Y-97882000D02*
X183769000Y-89789000D01*
X183769000Y-89789000D02*
X184658000Y-88900000D01*
X184658000Y-88900000D02*
X189310000Y-88900000D01*
X189310000Y-88900000D02*
X189945000Y-88265000D01*
%TO.N,Net-(R12-Pad2)*%
X181864000Y-97155000D02*
X182591000Y-97155000D01*
X182591000Y-97155000D02*
X183515000Y-96231000D01*
X183515000Y-96231000D02*
X183515000Y-86614000D01*
X183896000Y-86233000D02*
X187198000Y-86233000D01*
X183515000Y-86614000D02*
X183896000Y-86233000D01*
X188214000Y-85217000D02*
X189945000Y-85217000D01*
X187198000Y-86233000D02*
X188214000Y-85217000D01*
%TO.N,Net-(R11-Pad2)*%
X181864000Y-96520000D02*
X182499000Y-96520000D01*
X182499000Y-96520000D02*
X183261000Y-95758000D01*
X183261000Y-95758000D02*
X183261000Y-84074000D01*
X183261000Y-84074000D02*
X183642000Y-83693000D01*
X183642000Y-83693000D02*
X186690000Y-83693000D01*
X186690000Y-83693000D02*
X188214000Y-82169000D01*
X188214000Y-82169000D02*
X189945000Y-82169000D01*
%TO.N,Net-(R9-Pad2)*%
X181864000Y-95250000D02*
X182591000Y-95250000D01*
X186689501Y-81153499D02*
X186944000Y-80899000D01*
X188341000Y-76073000D02*
X189945000Y-76073000D01*
X183663997Y-81153499D02*
X186689501Y-81153499D01*
X182753499Y-82063997D02*
X183663997Y-81153499D01*
X182591000Y-95250000D02*
X182753499Y-95087501D01*
X186944000Y-80899000D02*
X186944000Y-77470000D01*
X182753499Y-95087501D02*
X182753499Y-82063997D01*
X186944000Y-77470000D02*
X188341000Y-76073000D01*
%TO.N,Net-(R10-Pad2)*%
X182626000Y-95885000D02*
X183007000Y-95504000D01*
X187325000Y-80899000D02*
X187325000Y-79756000D01*
X187325000Y-79756000D02*
X187960000Y-79121000D01*
X181864000Y-95885000D02*
X182626000Y-95885000D01*
X183007000Y-95504000D02*
X183007000Y-82169000D01*
X183007000Y-82169000D02*
X183769000Y-81407000D01*
X187960000Y-79121000D02*
X189945000Y-79121000D01*
X183769000Y-81407000D02*
X186817000Y-81407000D01*
X186817000Y-81407000D02*
X187325000Y-80899000D01*
%TO.N,/DIR*%
X184217919Y-80010000D02*
X185420000Y-80010000D01*
X181963600Y-82264319D02*
X184217919Y-80010000D01*
X181963600Y-92837000D02*
X181963600Y-82264319D01*
X181864000Y-94615000D02*
X181864000Y-92936600D01*
X181864000Y-92936600D02*
X181963600Y-92837000D01*
%TO.N,/HD*%
X172464000Y-94615000D02*
X172464000Y-92938600D01*
X172464000Y-92938600D02*
X172362400Y-92837000D01*
D22*
%TO.N,GND*%
X178052000Y-92837000D02*
X180138600Y-92837000D01*
X178052000Y-91287600D02*
X178052000Y-92837000D01*
%TO.N,+3.3V*%
X176327000Y-91287600D02*
X176327000Y-92837000D01*
%TO.N,GND*%
X189992000Y-126365000D02*
X190694000Y-127067000D01*
X190694000Y-127067000D02*
X193052000Y-127067000D01*
X193052000Y-127067000D02*
X194770000Y-125349000D01*
X189992000Y-123317000D02*
X190659500Y-123984500D01*
X190659500Y-123984500D02*
X190659500Y-125697500D01*
X190659500Y-125697500D02*
X189992000Y-126365000D01*
X189992000Y-120269000D02*
X190659500Y-120936500D01*
X190659500Y-120936500D02*
X190659500Y-122649500D01*
X190659500Y-122649500D02*
X189992000Y-123317000D01*
X189992000Y-117221000D02*
X190659500Y-117888500D01*
X190659500Y-117888500D02*
X190659500Y-119601500D01*
X190659500Y-119601500D02*
X189992000Y-120269000D01*
X189992000Y-114173000D02*
X190659500Y-114840500D01*
X190659500Y-114840500D02*
X190659500Y-116553500D01*
X190659500Y-116553500D02*
X189992000Y-117221000D01*
X189992000Y-111125000D02*
X190659500Y-111792500D01*
X190659500Y-113505500D02*
X189992000Y-114173000D01*
X190659500Y-111792500D02*
X190659500Y-113505500D01*
X189992000Y-108077000D02*
X190659500Y-108744500D01*
X190659500Y-108744500D02*
X190659500Y-110457500D01*
X190659500Y-110457500D02*
X189992000Y-111125000D01*
X189992000Y-105029000D02*
X190659500Y-105696500D01*
X190659500Y-105696500D02*
X190659500Y-107409500D01*
X190659500Y-107409500D02*
X189992000Y-108077000D01*
X189992000Y-101981000D02*
X190659500Y-102648500D01*
X190659500Y-102648500D02*
X190659500Y-104361500D01*
X190659500Y-104361500D02*
X189992000Y-105029000D01*
X189992000Y-98933000D02*
X190659500Y-99600500D01*
X190659500Y-99600500D02*
X190659500Y-101313500D01*
X190659500Y-101313500D02*
X189992000Y-101981000D01*
X189992000Y-95885000D02*
X190659500Y-96552500D01*
X190659500Y-96552500D02*
X190659500Y-98265500D01*
X190659500Y-98265500D02*
X189992000Y-98933000D01*
X189992000Y-92837000D02*
X190659500Y-93504500D01*
X190659500Y-93504500D02*
X190659500Y-95217500D01*
X190659500Y-95217500D02*
X189992000Y-95885000D01*
X189992000Y-89789000D02*
X190659500Y-90456500D01*
X190659500Y-90456500D02*
X190659500Y-92169500D01*
X190659500Y-92169500D02*
X189992000Y-92837000D01*
X189992000Y-86741000D02*
X190659500Y-87408500D01*
X190659500Y-89121500D02*
X189992000Y-89789000D01*
X190659500Y-87408500D02*
X190659500Y-89121500D01*
X189992000Y-83693000D02*
X190659500Y-84360500D01*
X190659500Y-84360500D02*
X190659500Y-86073500D01*
X190659500Y-86073500D02*
X189992000Y-86741000D01*
X189992000Y-80645000D02*
X190659500Y-81312500D01*
X190659500Y-81312500D02*
X190659500Y-83025500D01*
X190659500Y-83025500D02*
X189992000Y-83693000D01*
X189992000Y-77597000D02*
X190659500Y-78264500D01*
X190659500Y-78264500D02*
X190659500Y-79977500D01*
X190659500Y-79977500D02*
X189992000Y-80645000D01*
D23*
%TO.N,/STROBE*%
X194770000Y-122809000D02*
X199088000Y-118491000D01*
X199088000Y-118491000D02*
X199088000Y-118225000D01*
%TO.N,/AUTOF*%
X194770000Y-120269000D02*
X198199000Y-116840000D01*
X198199000Y-116840000D02*
X201928000Y-116840000D01*
%TO.N,/D0*%
X194770000Y-117729000D02*
X196814000Y-117729000D01*
X196814000Y-117729000D02*
X199088000Y-115455000D01*
%TO.N,/ERROR*%
X194770000Y-115189000D02*
X195889000Y-114070000D01*
X195889000Y-114070000D02*
X201928000Y-114070000D01*
%TO.N,/D1*%
X194770000Y-112649000D02*
X199052000Y-112649000D01*
X199052000Y-112649000D02*
X199088000Y-112685000D01*
%TO.N,/INIT*%
X194770000Y-110109000D02*
X195961000Y-111300000D01*
X195961000Y-111300000D02*
X201928000Y-111300000D01*
%TO.N,/D2*%
X194770000Y-107569000D02*
X197116000Y-109915000D01*
X197116000Y-109915000D02*
X199088000Y-109915000D01*
%TO.N,/SELIN*%
X194770000Y-105029000D02*
X198271000Y-108530000D01*
X198271000Y-108530000D02*
X201928000Y-108530000D01*
%TO.N,/D3*%
X194770000Y-102489000D02*
X199088000Y-106807000D01*
X199088000Y-106807000D02*
X199088000Y-107145000D01*
%TO.N,/D4*%
X194770000Y-99949000D02*
X199088000Y-104267000D01*
X199088000Y-104267000D02*
X199088000Y-104375000D01*
%TO.N,/D5*%
X194770000Y-97409000D02*
X198966000Y-101605000D01*
X198966000Y-101605000D02*
X199088000Y-101605000D01*
%TO.N,/D6*%
X194770000Y-94869000D02*
X198736000Y-98835000D01*
X198736000Y-98835000D02*
X199088000Y-98835000D01*
%TO.N,/D7*%
X194770000Y-92329000D02*
X198506000Y-96065000D01*
X198506000Y-96065000D02*
X199088000Y-96065000D01*
%TO.N,/ACK*%
X194770000Y-89789000D02*
X198276000Y-93295000D01*
X198276000Y-93295000D02*
X199088000Y-93295000D01*
%TO.N,/BUSY*%
X194770000Y-87249000D02*
X198046000Y-90525000D01*
X198046000Y-90525000D02*
X199088000Y-90525000D01*
%TO.N,/PE*%
X194770000Y-84709000D02*
X197816000Y-87755000D01*
X197816000Y-87755000D02*
X199088000Y-87755000D01*
%TO.N,/SEL*%
X194770000Y-82169000D02*
X196272000Y-82169000D01*
X196272000Y-82169000D02*
X199088000Y-84985000D01*
X191717000Y-77597000D02*
X192448000Y-78328000D01*
X192448000Y-78328000D02*
X192448000Y-79847000D01*
X192448000Y-79847000D02*
X194770000Y-82169000D01*
%TO.N,/PE*%
X191717000Y-80645000D02*
X194770000Y-83698000D01*
X194770000Y-83698000D02*
X194770000Y-84709000D01*
%TO.N,/BUSY*%
X191717000Y-83693000D02*
X194770000Y-86746000D01*
X194770000Y-86746000D02*
X194770000Y-87249000D01*
%TO.N,/ACK*%
X191717000Y-86741000D02*
X191722000Y-86741000D01*
X191722000Y-86741000D02*
X194770000Y-89789000D01*
%TO.N,/D7*%
X191717000Y-89789000D02*
X192230000Y-89789000D01*
X192230000Y-89789000D02*
X194770000Y-92329000D01*
%TO.N,/D6*%
X191717000Y-92837000D02*
X192738000Y-92837000D01*
X192738000Y-92837000D02*
X194770000Y-94869000D01*
%TO.N,/D5*%
X191717000Y-95885000D02*
X193246000Y-95885000D01*
X193246000Y-95885000D02*
X194770000Y-97409000D01*
%TO.N,/D4*%
X191717000Y-98933000D02*
X193754000Y-98933000D01*
X193754000Y-98933000D02*
X194770000Y-99949000D01*
%TO.N,/D3*%
X191717000Y-101981000D02*
X192225000Y-102489000D01*
X192225000Y-102489000D02*
X194770000Y-102489000D01*
%TO.N,/SELIN*%
X191717000Y-105029000D02*
X194770000Y-105029000D01*
%TO.N,/D2*%
X191717000Y-108077000D02*
X192225000Y-107569000D01*
X192225000Y-107569000D02*
X194770000Y-107569000D01*
%TO.N,/INIT*%
X191770000Y-109601000D02*
X192278000Y-110109000D01*
X192278000Y-110109000D02*
X194770000Y-110109000D01*
%TO.N,/D1*%
X191770000Y-112649000D02*
X194770000Y-112649000D01*
%TO.N,/ERROR*%
X191770000Y-115697000D02*
X192278000Y-115189000D01*
X192278000Y-115189000D02*
X194770000Y-115189000D01*
%TO.N,/D0*%
X191770000Y-118745000D02*
X193754000Y-118745000D01*
X193754000Y-118745000D02*
X194770000Y-117729000D01*
%TO.N,/AUTOF*%
X191770000Y-121793000D02*
X193246000Y-121793000D01*
X193246000Y-121793000D02*
X194770000Y-120269000D01*
%TO.N,/STROBE*%
X191770000Y-124841000D02*
X192738000Y-124841000D01*
X192738000Y-124841000D02*
X194770000Y-122809000D01*
X191770000Y-124841000D02*
X191717000Y-124894000D01*
X191717000Y-124894000D02*
X191717000Y-126365000D01*
%TO.N,/AUTOF*%
X191770000Y-121793000D02*
X191770000Y-123264000D01*
X191770000Y-123264000D02*
X191717000Y-123317000D01*
%TO.N,/D0*%
X191770000Y-118745000D02*
X191770000Y-120216000D01*
X191770000Y-120216000D02*
X191717000Y-120269000D01*
%TO.N,/ERROR*%
X191770000Y-115697000D02*
X191770000Y-117168000D01*
X191770000Y-117168000D02*
X191717000Y-117221000D01*
%TO.N,/D1*%
X191770000Y-112649000D02*
X191770000Y-114120000D01*
X191770000Y-114120000D02*
X191717000Y-114173000D01*
%TO.N,/INIT*%
X191770000Y-109601000D02*
X191770000Y-111072000D01*
X191770000Y-111072000D02*
X191717000Y-111125000D01*
%TO.N,/D2*%
X191770000Y-106553000D02*
X191770000Y-108024000D01*
X191770000Y-108024000D02*
X191717000Y-108077000D01*
%TO.N,/SELIN*%
X191770000Y-103505000D02*
X191717000Y-103558000D01*
X191717000Y-103558000D02*
X191717000Y-105029000D01*
%TO.N,/D3*%
X191770000Y-100457000D02*
X191770000Y-101928000D01*
X191770000Y-101928000D02*
X191717000Y-101981000D01*
%TO.N,/D4*%
X191770000Y-97409000D02*
X191770000Y-98880000D01*
X191770000Y-98880000D02*
X191717000Y-98933000D01*
%TO.N,/D5*%
X191770000Y-94361000D02*
X191717000Y-94414000D01*
X191717000Y-94414000D02*
X191717000Y-95885000D01*
%TO.N,/D6*%
X191770000Y-91313000D02*
X191770000Y-92784000D01*
X191770000Y-92784000D02*
X191717000Y-92837000D01*
%TO.N,/D7*%
X191770000Y-88265000D02*
X191770000Y-89736000D01*
X191770000Y-89736000D02*
X191717000Y-89789000D01*
%TO.N,/ACK*%
X191770000Y-85217000D02*
X191770000Y-86688000D01*
X191770000Y-86688000D02*
X191717000Y-86741000D01*
%TO.N,/BUSY*%
X191770000Y-82169000D02*
X191770000Y-83640000D01*
X191770000Y-83640000D02*
X191717000Y-83693000D01*
%TO.N,/PE*%
X191770000Y-79121000D02*
X191770000Y-80592000D01*
X191770000Y-80592000D02*
X191717000Y-80645000D01*
%TO.N,/SEL*%
X191770000Y-76073000D02*
X191770000Y-77544000D01*
X191770000Y-77544000D02*
X191717000Y-77597000D01*
%TD*%
M02*
