%TF.GenerationSoftware,KiCad,Pcbnew,6.0.10-86aedd382b~118~ubuntu20.04.1*%
%TF.CreationDate,2023-01-18T18:06:03-08:00*%
%TF.ProjectId,parallel2usb,70617261-6c6c-4656-9c32-7573622e6b69,rev?*%
%TF.SameCoordinates,Original*%
%TF.FileFunction,Legend,Bot*%
%TF.FilePolarity,Positive*%
%FSLAX46Y46*%
G04 Gerber Fmt 4.6, Leading zero omitted, Abs format (unit mm)*
G04 Created by KiCad (PCBNEW 6.0.10-86aedd382b~118~ubuntu20.04.1) date 2023-01-18 18:06:03*
%MOMM*%
%LPD*%
G01*
G04 APERTURE LIST*
%ADD10C,0.150000*%
%ADD11C,0.120000*%
%ADD12C,0.010000*%
G04 APERTURE END LIST*
D10*
X192857333Y-87177571D02*
X192714476Y-87225190D01*
X192666857Y-87272809D01*
X192619238Y-87368047D01*
X192619238Y-87510904D01*
X192666857Y-87606142D01*
X192714476Y-87653761D01*
X192809714Y-87701380D01*
X193190666Y-87701380D01*
X193190666Y-86701380D01*
X192857333Y-86701380D01*
X192762095Y-86749000D01*
X192714476Y-86796619D01*
X192666857Y-86891857D01*
X192666857Y-86987095D01*
X192714476Y-87082333D01*
X192762095Y-87129952D01*
X192857333Y-87177571D01*
X193190666Y-87177571D01*
X192238285Y-87653761D02*
X192095428Y-87701380D01*
X191857333Y-87701380D01*
X191762095Y-87653761D01*
X191714476Y-87606142D01*
X191666857Y-87510904D01*
X191666857Y-87415666D01*
X191714476Y-87320428D01*
X191762095Y-87272809D01*
X191857333Y-87225190D01*
X192047809Y-87177571D01*
X192143047Y-87129952D01*
X192190666Y-87082333D01*
X192238285Y-86987095D01*
X192238285Y-86891857D01*
X192190666Y-86796619D01*
X192143047Y-86749000D01*
X192047809Y-86701380D01*
X191809714Y-86701380D01*
X191666857Y-86749000D01*
X191047809Y-87225190D02*
X191047809Y-87701380D01*
X191381142Y-86701380D02*
X191047809Y-87225190D01*
X190714476Y-86701380D01*
X193166857Y-110561380D02*
X193166857Y-109561380D01*
X192690666Y-110561380D02*
X192690666Y-109561380D01*
X192119238Y-110561380D01*
X192119238Y-109561380D01*
X191643047Y-110561380D02*
X191643047Y-109561380D01*
X191309714Y-109561380D02*
X190738285Y-109561380D01*
X191024000Y-110561380D02*
X191024000Y-109561380D01*
X193293857Y-82573761D02*
X193151000Y-82621380D01*
X192912904Y-82621380D01*
X192817666Y-82573761D01*
X192770047Y-82526142D01*
X192722428Y-82430904D01*
X192722428Y-82335666D01*
X192770047Y-82240428D01*
X192817666Y-82192809D01*
X192912904Y-82145190D01*
X193103380Y-82097571D01*
X193198619Y-82049952D01*
X193246238Y-82002333D01*
X193293857Y-81907095D01*
X193293857Y-81811857D01*
X193246238Y-81716619D01*
X193198619Y-81669000D01*
X193103380Y-81621380D01*
X192865285Y-81621380D01*
X192722428Y-81669000D01*
X192293857Y-82097571D02*
X191960523Y-82097571D01*
X191817666Y-82621380D02*
X192293857Y-82621380D01*
X192293857Y-81621380D01*
X191817666Y-81621380D01*
X190912904Y-82621380D02*
X191389095Y-82621380D01*
X191389095Y-81621380D01*
X193270095Y-108021380D02*
X193270095Y-107021380D01*
X193032000Y-107021380D01*
X192889142Y-107069000D01*
X192793904Y-107164238D01*
X192746285Y-107259476D01*
X192698666Y-107449952D01*
X192698666Y-107592809D01*
X192746285Y-107783285D01*
X192793904Y-107878523D01*
X192889142Y-107973761D01*
X193032000Y-108021380D01*
X193270095Y-108021380D01*
X192317714Y-107116619D02*
X192270095Y-107069000D01*
X192174857Y-107021380D01*
X191936761Y-107021380D01*
X191841523Y-107069000D01*
X191793904Y-107116619D01*
X191746285Y-107211857D01*
X191746285Y-107307095D01*
X191793904Y-107449952D01*
X192365333Y-108021380D01*
X191746285Y-108021380D01*
X193262095Y-89955666D02*
X192785904Y-89955666D01*
X193357333Y-90241380D02*
X193024000Y-89241380D01*
X192690666Y-90241380D01*
X191785904Y-90146142D02*
X191833523Y-90193761D01*
X191976380Y-90241380D01*
X192071619Y-90241380D01*
X192214476Y-90193761D01*
X192309714Y-90098523D01*
X192357333Y-90003285D01*
X192404952Y-89812809D01*
X192404952Y-89669952D01*
X192357333Y-89479476D01*
X192309714Y-89384238D01*
X192214476Y-89289000D01*
X192071619Y-89241380D01*
X191976380Y-89241380D01*
X191833523Y-89289000D01*
X191785904Y-89336619D01*
X191357333Y-90241380D02*
X191357333Y-89241380D01*
X190785904Y-90241380D02*
X191214476Y-89669952D01*
X190785904Y-89241380D02*
X191357333Y-89812809D01*
X193238285Y-115117571D02*
X192904952Y-115117571D01*
X192762095Y-115641380D02*
X193238285Y-115641380D01*
X193238285Y-114641380D01*
X192762095Y-114641380D01*
X191762095Y-115641380D02*
X192095428Y-115165190D01*
X192333523Y-115641380D02*
X192333523Y-114641380D01*
X191952571Y-114641380D01*
X191857333Y-114689000D01*
X191809714Y-114736619D01*
X191762095Y-114831857D01*
X191762095Y-114974714D01*
X191809714Y-115069952D01*
X191857333Y-115117571D01*
X191952571Y-115165190D01*
X192333523Y-115165190D01*
X190762095Y-115641380D02*
X191095428Y-115165190D01*
X191333523Y-115641380D02*
X191333523Y-114641380D01*
X190952571Y-114641380D01*
X190857333Y-114689000D01*
X190809714Y-114736619D01*
X190762095Y-114831857D01*
X190762095Y-114974714D01*
X190809714Y-115069952D01*
X190857333Y-115117571D01*
X190952571Y-115165190D01*
X191333523Y-115165190D01*
X193270095Y-113101380D02*
X193270095Y-112101380D01*
X193032000Y-112101380D01*
X192889142Y-112149000D01*
X192793904Y-112244238D01*
X192746285Y-112339476D01*
X192698666Y-112529952D01*
X192698666Y-112672809D01*
X192746285Y-112863285D01*
X192793904Y-112958523D01*
X192889142Y-113053761D01*
X193032000Y-113101380D01*
X193270095Y-113101380D01*
X191746285Y-113101380D02*
X192317714Y-113101380D01*
X192032000Y-113101380D02*
X192032000Y-112101380D01*
X192127238Y-112244238D01*
X192222476Y-112339476D01*
X192317714Y-112387095D01*
X193270095Y-100274380D02*
X193270095Y-99274380D01*
X193032000Y-99274380D01*
X192889142Y-99322000D01*
X192793904Y-99417238D01*
X192746285Y-99512476D01*
X192698666Y-99702952D01*
X192698666Y-99845809D01*
X192746285Y-100036285D01*
X192793904Y-100131523D01*
X192889142Y-100226761D01*
X193032000Y-100274380D01*
X193270095Y-100274380D01*
X191841523Y-99607714D02*
X191841523Y-100274380D01*
X192079619Y-99226761D02*
X192317714Y-99941047D01*
X191698666Y-99941047D01*
X193277952Y-105433761D02*
X193135095Y-105481380D01*
X192897000Y-105481380D01*
X192801761Y-105433761D01*
X192754142Y-105386142D01*
X192706523Y-105290904D01*
X192706523Y-105195666D01*
X192754142Y-105100428D01*
X192801761Y-105052809D01*
X192897000Y-105005190D01*
X193087476Y-104957571D01*
X193182714Y-104909952D01*
X193230333Y-104862333D01*
X193277952Y-104767095D01*
X193277952Y-104671857D01*
X193230333Y-104576619D01*
X193182714Y-104529000D01*
X193087476Y-104481380D01*
X192849380Y-104481380D01*
X192706523Y-104529000D01*
X192277952Y-104957571D02*
X191944619Y-104957571D01*
X191801761Y-105481380D02*
X192277952Y-105481380D01*
X192277952Y-104481380D01*
X191801761Y-104481380D01*
X190897000Y-105481380D02*
X191373190Y-105481380D01*
X191373190Y-104481380D01*
X190563666Y-105481380D02*
X190563666Y-104481380D01*
X193190666Y-123213761D02*
X193047809Y-123261380D01*
X192809714Y-123261380D01*
X192714476Y-123213761D01*
X192666857Y-123166142D01*
X192619238Y-123070904D01*
X192619238Y-122975666D01*
X192666857Y-122880428D01*
X192714476Y-122832809D01*
X192809714Y-122785190D01*
X193000190Y-122737571D01*
X193095428Y-122689952D01*
X193143047Y-122642333D01*
X193190666Y-122547095D01*
X193190666Y-122451857D01*
X193143047Y-122356619D01*
X193095428Y-122309000D01*
X193000190Y-122261380D01*
X192762095Y-122261380D01*
X192619238Y-122309000D01*
X192333523Y-122261380D02*
X191762095Y-122261380D01*
X192047809Y-123261380D02*
X192047809Y-122261380D01*
X191095428Y-122737571D02*
X190952571Y-122785190D01*
X190904952Y-122832809D01*
X190857333Y-122928047D01*
X190857333Y-123070904D01*
X190904952Y-123166142D01*
X190952571Y-123213761D01*
X191047809Y-123261380D01*
X191428761Y-123261380D01*
X191428761Y-122261380D01*
X191095428Y-122261380D01*
X191000190Y-122309000D01*
X190952571Y-122356619D01*
X190904952Y-122451857D01*
X190904952Y-122547095D01*
X190952571Y-122642333D01*
X191000190Y-122689952D01*
X191095428Y-122737571D01*
X191428761Y-122737571D01*
X193198666Y-120435666D02*
X192722476Y-120435666D01*
X193293904Y-120721380D02*
X192960571Y-119721380D01*
X192627238Y-120721380D01*
X191960571Y-120197571D02*
X192293904Y-120197571D01*
X192293904Y-120721380D02*
X192293904Y-119721380D01*
X191817714Y-119721380D01*
X193270095Y-92781380D02*
X193270095Y-91781380D01*
X193032000Y-91781380D01*
X192889142Y-91829000D01*
X192793904Y-91924238D01*
X192746285Y-92019476D01*
X192698666Y-92209952D01*
X192698666Y-92352809D01*
X192746285Y-92543285D01*
X192793904Y-92638523D01*
X192889142Y-92733761D01*
X193032000Y-92781380D01*
X193270095Y-92781380D01*
X192365333Y-91781380D02*
X191698666Y-91781380D01*
X192127238Y-92781380D01*
X193389095Y-76541380D02*
X192770047Y-76541380D01*
X193103380Y-76922333D01*
X192960523Y-76922333D01*
X192865285Y-76969952D01*
X192817666Y-77017571D01*
X192770047Y-77112809D01*
X192770047Y-77350904D01*
X192817666Y-77446142D01*
X192865285Y-77493761D01*
X192960523Y-77541380D01*
X193246238Y-77541380D01*
X193341476Y-77493761D01*
X193389095Y-77446142D01*
X192484333Y-76541380D02*
X192151000Y-77541380D01*
X191817666Y-76541380D01*
X191579571Y-76541380D02*
X190960523Y-76541380D01*
X191293857Y-76922333D01*
X191151000Y-76922333D01*
X191055761Y-76969952D01*
X191008142Y-77017571D01*
X190960523Y-77112809D01*
X190960523Y-77350904D01*
X191008142Y-77446142D01*
X191055761Y-77493761D01*
X191151000Y-77541380D01*
X191436714Y-77541380D01*
X191531952Y-77493761D01*
X191579571Y-77446142D01*
X192849476Y-79081380D02*
X193325666Y-79081380D01*
X193373285Y-79557571D01*
X193325666Y-79509952D01*
X193230428Y-79462333D01*
X192992333Y-79462333D01*
X192897095Y-79509952D01*
X192849476Y-79557571D01*
X192801857Y-79652809D01*
X192801857Y-79890904D01*
X192849476Y-79986142D01*
X192897095Y-80033761D01*
X192992333Y-80081380D01*
X193230428Y-80081380D01*
X193325666Y-80033761D01*
X193373285Y-79986142D01*
X192516142Y-79081380D02*
X192182809Y-80081380D01*
X191849476Y-79081380D01*
X193270095Y-97861380D02*
X193270095Y-96861380D01*
X193032000Y-96861380D01*
X192889142Y-96909000D01*
X192793904Y-97004238D01*
X192746285Y-97099476D01*
X192698666Y-97289952D01*
X192698666Y-97432809D01*
X192746285Y-97623285D01*
X192793904Y-97718523D01*
X192889142Y-97813761D01*
X193032000Y-97861380D01*
X193270095Y-97861380D01*
X191793904Y-96861380D02*
X192270095Y-96861380D01*
X192317714Y-97337571D01*
X192270095Y-97289952D01*
X192174857Y-97242333D01*
X191936761Y-97242333D01*
X191841523Y-97289952D01*
X191793904Y-97337571D01*
X191746285Y-97432809D01*
X191746285Y-97670904D01*
X191793904Y-97766142D01*
X191841523Y-97813761D01*
X191936761Y-97861380D01*
X192174857Y-97861380D01*
X192270095Y-97813761D01*
X192317714Y-97766142D01*
X170387714Y-95044333D02*
X171387714Y-95044333D01*
X170435333Y-95044333D02*
X170387714Y-95139571D01*
X170387714Y-95330047D01*
X170435333Y-95425285D01*
X170482952Y-95472904D01*
X170578190Y-95520523D01*
X170863904Y-95520523D01*
X170959142Y-95472904D01*
X171006761Y-95425285D01*
X171054380Y-95330047D01*
X171054380Y-95139571D01*
X171006761Y-95044333D01*
X171054380Y-96377666D02*
X170530571Y-96377666D01*
X170435333Y-96330047D01*
X170387714Y-96234809D01*
X170387714Y-96044333D01*
X170435333Y-95949095D01*
X171006761Y-96377666D02*
X171054380Y-96282428D01*
X171054380Y-96044333D01*
X171006761Y-95949095D01*
X170911523Y-95901476D01*
X170816285Y-95901476D01*
X170721047Y-95949095D01*
X170673428Y-96044333D01*
X170673428Y-96282428D01*
X170625809Y-96377666D01*
X171054380Y-96853857D02*
X170387714Y-96853857D01*
X170578190Y-96853857D02*
X170482952Y-96901476D01*
X170435333Y-96949095D01*
X170387714Y-97044333D01*
X170387714Y-97139571D01*
X171054380Y-97901476D02*
X170530571Y-97901476D01*
X170435333Y-97853857D01*
X170387714Y-97758619D01*
X170387714Y-97568142D01*
X170435333Y-97472904D01*
X171006761Y-97901476D02*
X171054380Y-97806238D01*
X171054380Y-97568142D01*
X171006761Y-97472904D01*
X170911523Y-97425285D01*
X170816285Y-97425285D01*
X170721047Y-97472904D01*
X170673428Y-97568142D01*
X170673428Y-97806238D01*
X170625809Y-97901476D01*
X171054380Y-98520523D02*
X171006761Y-98425285D01*
X170911523Y-98377666D01*
X170054380Y-98377666D01*
X171054380Y-99044333D02*
X171006761Y-98949095D01*
X170911523Y-98901476D01*
X170054380Y-98901476D01*
X171006761Y-99806238D02*
X171054380Y-99711000D01*
X171054380Y-99520523D01*
X171006761Y-99425285D01*
X170911523Y-99377666D01*
X170530571Y-99377666D01*
X170435333Y-99425285D01*
X170387714Y-99520523D01*
X170387714Y-99711000D01*
X170435333Y-99806238D01*
X170530571Y-99853857D01*
X170625809Y-99853857D01*
X170721047Y-99377666D01*
X171054380Y-100425285D02*
X171006761Y-100330047D01*
X170911523Y-100282428D01*
X170054380Y-100282428D01*
X170149619Y-100758619D02*
X170102000Y-100806238D01*
X170054380Y-100901476D01*
X170054380Y-101139571D01*
X170102000Y-101234809D01*
X170149619Y-101282428D01*
X170244857Y-101330047D01*
X170340095Y-101330047D01*
X170482952Y-101282428D01*
X171054380Y-100711000D01*
X171054380Y-101330047D01*
X170387714Y-102187190D02*
X171054380Y-102187190D01*
X170387714Y-101758619D02*
X170911523Y-101758619D01*
X171006761Y-101806238D01*
X171054380Y-101901476D01*
X171054380Y-102044333D01*
X171006761Y-102139571D01*
X170959142Y-102187190D01*
X171006761Y-102615761D02*
X171054380Y-102711000D01*
X171054380Y-102901476D01*
X171006761Y-102996714D01*
X170911523Y-103044333D01*
X170863904Y-103044333D01*
X170768666Y-102996714D01*
X170721047Y-102901476D01*
X170721047Y-102758619D01*
X170673428Y-102663380D01*
X170578190Y-102615761D01*
X170530571Y-102615761D01*
X170435333Y-102663380D01*
X170387714Y-102758619D01*
X170387714Y-102901476D01*
X170435333Y-102996714D01*
X171054380Y-103472904D02*
X170054380Y-103472904D01*
X170435333Y-103472904D02*
X170387714Y-103568142D01*
X170387714Y-103758619D01*
X170435333Y-103853857D01*
X170482952Y-103901476D01*
X170578190Y-103949095D01*
X170863904Y-103949095D01*
X170959142Y-103901476D01*
X171006761Y-103853857D01*
X171054380Y-103758619D01*
X171054380Y-103568142D01*
X171006761Y-103472904D01*
X170387714Y-105044333D02*
X171054380Y-105282428D01*
X170387714Y-105520523D01*
X170149619Y-105853857D02*
X170102000Y-105901476D01*
X170054380Y-105996714D01*
X170054380Y-106234809D01*
X170102000Y-106330047D01*
X170149619Y-106377666D01*
X170244857Y-106425285D01*
X170340095Y-106425285D01*
X170482952Y-106377666D01*
X171054380Y-105806238D01*
X171054380Y-106425285D01*
X171664380Y-95687190D02*
X171664380Y-96258619D01*
X172664380Y-95972904D02*
X171664380Y-95972904D01*
X172664380Y-96734809D02*
X172616761Y-96639571D01*
X172569142Y-96591952D01*
X172473904Y-96544333D01*
X172188190Y-96544333D01*
X172092952Y-96591952D01*
X172045333Y-96639571D01*
X171997714Y-96734809D01*
X171997714Y-96877666D01*
X172045333Y-96972904D01*
X172092952Y-97020523D01*
X172188190Y-97068142D01*
X172473904Y-97068142D01*
X172569142Y-97020523D01*
X172616761Y-96972904D01*
X172664380Y-96877666D01*
X172664380Y-96734809D01*
X172664380Y-97496714D02*
X171997714Y-97496714D01*
X172092952Y-97496714D02*
X172045333Y-97544333D01*
X171997714Y-97639571D01*
X171997714Y-97782428D01*
X172045333Y-97877666D01*
X172140571Y-97925285D01*
X172664380Y-97925285D01*
X172140571Y-97925285D02*
X172045333Y-97972904D01*
X171997714Y-98068142D01*
X171997714Y-98211000D01*
X172045333Y-98306238D01*
X172140571Y-98353857D01*
X172664380Y-98353857D01*
X171664380Y-99449095D02*
X172664380Y-99782428D01*
X171664380Y-100115761D01*
X172616761Y-100830047D02*
X172664380Y-100734809D01*
X172664380Y-100544333D01*
X172616761Y-100449095D01*
X172521523Y-100401476D01*
X172140571Y-100401476D01*
X172045333Y-100449095D01*
X171997714Y-100544333D01*
X171997714Y-100734809D01*
X172045333Y-100830047D01*
X172140571Y-100877666D01*
X172235809Y-100877666D01*
X172331047Y-100401476D01*
X172664380Y-101306238D02*
X171997714Y-101306238D01*
X172188190Y-101306238D02*
X172092952Y-101353857D01*
X172045333Y-101401476D01*
X171997714Y-101496714D01*
X171997714Y-101591952D01*
X172664380Y-101925285D02*
X171664380Y-101925285D01*
X172045333Y-101925285D02*
X171997714Y-102020523D01*
X171997714Y-102211000D01*
X172045333Y-102306238D01*
X172092952Y-102353857D01*
X172188190Y-102401476D01*
X172473904Y-102401476D01*
X172569142Y-102353857D01*
X172616761Y-102306238D01*
X172664380Y-102211000D01*
X172664380Y-102020523D01*
X172616761Y-101925285D01*
X172616761Y-103211000D02*
X172664380Y-103115761D01*
X172664380Y-102925285D01*
X172616761Y-102830047D01*
X172521523Y-102782428D01*
X172140571Y-102782428D01*
X172045333Y-102830047D01*
X171997714Y-102925285D01*
X171997714Y-103115761D01*
X172045333Y-103211000D01*
X172140571Y-103258619D01*
X172235809Y-103258619D01*
X172331047Y-102782428D01*
X171997714Y-104115761D02*
X172664380Y-104115761D01*
X171997714Y-103687190D02*
X172521523Y-103687190D01*
X172616761Y-103734809D01*
X172664380Y-103830047D01*
X172664380Y-103972904D01*
X172616761Y-104068142D01*
X172569142Y-104115761D01*
X172664380Y-104591952D02*
X171997714Y-104591952D01*
X172188190Y-104591952D02*
X172092952Y-104639571D01*
X172045333Y-104687190D01*
X171997714Y-104782428D01*
X171997714Y-104877666D01*
X172616761Y-105591952D02*
X172664380Y-105496714D01*
X172664380Y-105306238D01*
X172616761Y-105211000D01*
X172521523Y-105163380D01*
X172140571Y-105163380D01*
X172045333Y-105211000D01*
X171997714Y-105306238D01*
X171997714Y-105496714D01*
X172045333Y-105591952D01*
X172140571Y-105639571D01*
X172235809Y-105639571D01*
X172331047Y-105163380D01*
X174274380Y-83353857D02*
X173274380Y-83353857D01*
X174274380Y-83782428D02*
X173750571Y-83782428D01*
X173655333Y-83734809D01*
X173607714Y-83639571D01*
X173607714Y-83496714D01*
X173655333Y-83401476D01*
X173702952Y-83353857D01*
X173607714Y-84115761D02*
X173607714Y-84496714D01*
X173274380Y-84258619D02*
X174131523Y-84258619D01*
X174226761Y-84306238D01*
X174274380Y-84401476D01*
X174274380Y-84496714D01*
X173607714Y-84687190D02*
X173607714Y-85068142D01*
X173274380Y-84830047D02*
X174131523Y-84830047D01*
X174226761Y-84877666D01*
X174274380Y-84972904D01*
X174274380Y-85068142D01*
X173607714Y-85401476D02*
X174607714Y-85401476D01*
X173655333Y-85401476D02*
X173607714Y-85496714D01*
X173607714Y-85687190D01*
X173655333Y-85782428D01*
X173702952Y-85830047D01*
X173798190Y-85877666D01*
X174083904Y-85877666D01*
X174179142Y-85830047D01*
X174226761Y-85782428D01*
X174274380Y-85687190D01*
X174274380Y-85496714D01*
X174226761Y-85401476D01*
X174226761Y-86258619D02*
X174274380Y-86353857D01*
X174274380Y-86544333D01*
X174226761Y-86639571D01*
X174131523Y-86687190D01*
X174083904Y-86687190D01*
X173988666Y-86639571D01*
X173941047Y-86544333D01*
X173941047Y-86401476D01*
X173893428Y-86306238D01*
X173798190Y-86258619D01*
X173750571Y-86258619D01*
X173655333Y-86306238D01*
X173607714Y-86401476D01*
X173607714Y-86544333D01*
X173655333Y-86639571D01*
X174179142Y-87115761D02*
X174226761Y-87163380D01*
X174274380Y-87115761D01*
X174226761Y-87068142D01*
X174179142Y-87115761D01*
X174274380Y-87115761D01*
X173655333Y-87115761D02*
X173702952Y-87163380D01*
X173750571Y-87115761D01*
X173702952Y-87068142D01*
X173655333Y-87115761D01*
X173750571Y-87115761D01*
X173226761Y-88306238D02*
X174512476Y-87449095D01*
X173226761Y-89353857D02*
X174512476Y-88496714D01*
X173607714Y-90115761D02*
X174417238Y-90115761D01*
X174512476Y-90068142D01*
X174560095Y-90020523D01*
X174607714Y-89925285D01*
X174607714Y-89782428D01*
X174560095Y-89687190D01*
X174226761Y-90115761D02*
X174274380Y-90020523D01*
X174274380Y-89830047D01*
X174226761Y-89734809D01*
X174179142Y-89687190D01*
X174083904Y-89639571D01*
X173798190Y-89639571D01*
X173702952Y-89687190D01*
X173655333Y-89734809D01*
X173607714Y-89830047D01*
X173607714Y-90020523D01*
X173655333Y-90115761D01*
X174274380Y-90591952D02*
X173607714Y-90591952D01*
X173274380Y-90591952D02*
X173322000Y-90544333D01*
X173369619Y-90591952D01*
X173322000Y-90639571D01*
X173274380Y-90591952D01*
X173369619Y-90591952D01*
X173607714Y-90925285D02*
X173607714Y-91306238D01*
X173274380Y-91068142D02*
X174131523Y-91068142D01*
X174226761Y-91115761D01*
X174274380Y-91211000D01*
X174274380Y-91306238D01*
X174274380Y-91639571D02*
X173274380Y-91639571D01*
X174274380Y-92068142D02*
X173750571Y-92068142D01*
X173655333Y-92020523D01*
X173607714Y-91925285D01*
X173607714Y-91782428D01*
X173655333Y-91687190D01*
X173702952Y-91639571D01*
X173607714Y-92972904D02*
X174274380Y-92972904D01*
X173607714Y-92544333D02*
X174131523Y-92544333D01*
X174226761Y-92591952D01*
X174274380Y-92687190D01*
X174274380Y-92830047D01*
X174226761Y-92925285D01*
X174179142Y-92972904D01*
X174274380Y-93449095D02*
X173274380Y-93449095D01*
X173655333Y-93449095D02*
X173607714Y-93544333D01*
X173607714Y-93734809D01*
X173655333Y-93830047D01*
X173702952Y-93877666D01*
X173798190Y-93925285D01*
X174083904Y-93925285D01*
X174179142Y-93877666D01*
X174226761Y-93830047D01*
X174274380Y-93734809D01*
X174274380Y-93544333D01*
X174226761Y-93449095D01*
X174179142Y-94353857D02*
X174226761Y-94401476D01*
X174274380Y-94353857D01*
X174226761Y-94306238D01*
X174179142Y-94353857D01*
X174274380Y-94353857D01*
X174226761Y-95258619D02*
X174274380Y-95163380D01*
X174274380Y-94972904D01*
X174226761Y-94877666D01*
X174179142Y-94830047D01*
X174083904Y-94782428D01*
X173798190Y-94782428D01*
X173702952Y-94830047D01*
X173655333Y-94877666D01*
X173607714Y-94972904D01*
X173607714Y-95163380D01*
X173655333Y-95258619D01*
X174274380Y-95830047D02*
X174226761Y-95734809D01*
X174179142Y-95687190D01*
X174083904Y-95639571D01*
X173798190Y-95639571D01*
X173702952Y-95687190D01*
X173655333Y-95734809D01*
X173607714Y-95830047D01*
X173607714Y-95972904D01*
X173655333Y-96068142D01*
X173702952Y-96115761D01*
X173798190Y-96163380D01*
X174083904Y-96163380D01*
X174179142Y-96115761D01*
X174226761Y-96068142D01*
X174274380Y-95972904D01*
X174274380Y-95830047D01*
X174274380Y-96591952D02*
X173607714Y-96591952D01*
X173702952Y-96591952D02*
X173655333Y-96639571D01*
X173607714Y-96734809D01*
X173607714Y-96877666D01*
X173655333Y-96972904D01*
X173750571Y-97020523D01*
X174274380Y-97020523D01*
X173750571Y-97020523D02*
X173655333Y-97068142D01*
X173607714Y-97163380D01*
X173607714Y-97306238D01*
X173655333Y-97401476D01*
X173750571Y-97449095D01*
X174274380Y-97449095D01*
X173226761Y-98639571D02*
X174512476Y-97782428D01*
X173607714Y-98830047D02*
X173607714Y-99211000D01*
X173274380Y-98972904D02*
X174131523Y-98972904D01*
X174226761Y-99020523D01*
X174274380Y-99115761D01*
X174274380Y-99211000D01*
X174274380Y-99687190D02*
X174226761Y-99591952D01*
X174179142Y-99544333D01*
X174083904Y-99496714D01*
X173798190Y-99496714D01*
X173702952Y-99544333D01*
X173655333Y-99591952D01*
X173607714Y-99687190D01*
X173607714Y-99830047D01*
X173655333Y-99925285D01*
X173702952Y-99972904D01*
X173798190Y-100020523D01*
X174083904Y-100020523D01*
X174179142Y-99972904D01*
X174226761Y-99925285D01*
X174274380Y-99830047D01*
X174274380Y-99687190D01*
X174274380Y-100449095D02*
X173607714Y-100449095D01*
X173702952Y-100449095D02*
X173655333Y-100496714D01*
X173607714Y-100591952D01*
X173607714Y-100734809D01*
X173655333Y-100830047D01*
X173750571Y-100877666D01*
X174274380Y-100877666D01*
X173750571Y-100877666D02*
X173655333Y-100925285D01*
X173607714Y-101020523D01*
X173607714Y-101163380D01*
X173655333Y-101258619D01*
X173750571Y-101306238D01*
X174274380Y-101306238D01*
X173607714Y-101687190D02*
X174274380Y-101925285D01*
X173607714Y-102163380D01*
X174226761Y-102925285D02*
X174274380Y-102830047D01*
X174274380Y-102639571D01*
X174226761Y-102544333D01*
X174131523Y-102496714D01*
X173750571Y-102496714D01*
X173655333Y-102544333D01*
X173607714Y-102639571D01*
X173607714Y-102830047D01*
X173655333Y-102925285D01*
X173750571Y-102972904D01*
X173845809Y-102972904D01*
X173941047Y-102496714D01*
X174274380Y-103401476D02*
X173607714Y-103401476D01*
X173798190Y-103401476D02*
X173702952Y-103449095D01*
X173655333Y-103496714D01*
X173607714Y-103591952D01*
X173607714Y-103687190D01*
X174274380Y-104020523D02*
X173274380Y-104020523D01*
X173655333Y-104020523D02*
X173607714Y-104115761D01*
X173607714Y-104306238D01*
X173655333Y-104401476D01*
X173702952Y-104449095D01*
X173798190Y-104496714D01*
X174083904Y-104496714D01*
X174179142Y-104449095D01*
X174226761Y-104401476D01*
X174274380Y-104306238D01*
X174274380Y-104115761D01*
X174226761Y-104020523D01*
X174226761Y-105306238D02*
X174274380Y-105211000D01*
X174274380Y-105020523D01*
X174226761Y-104925285D01*
X174131523Y-104877666D01*
X173750571Y-104877666D01*
X173655333Y-104925285D01*
X173607714Y-105020523D01*
X173607714Y-105211000D01*
X173655333Y-105306238D01*
X173750571Y-105353857D01*
X173845809Y-105353857D01*
X173941047Y-104877666D01*
X173607714Y-106210999D02*
X174274380Y-106210999D01*
X173607714Y-105782428D02*
X174131523Y-105782428D01*
X174226761Y-105830047D01*
X174274380Y-105925285D01*
X174274380Y-106068142D01*
X174226761Y-106163380D01*
X174179142Y-106210999D01*
X174274380Y-106687190D02*
X173607714Y-106687190D01*
X173798190Y-106687190D02*
X173702952Y-106734809D01*
X173655333Y-106782428D01*
X173607714Y-106877666D01*
X173607714Y-106972904D01*
X174226761Y-107687190D02*
X174274380Y-107591952D01*
X174274380Y-107401476D01*
X174226761Y-107306238D01*
X174131523Y-107258619D01*
X173750571Y-107258619D01*
X173655333Y-107306238D01*
X173607714Y-107401476D01*
X173607714Y-107591952D01*
X173655333Y-107687190D01*
X173750571Y-107734809D01*
X173845809Y-107734809D01*
X173941047Y-107258619D01*
X173226761Y-108877666D02*
X174512476Y-108020523D01*
X173607714Y-109210999D02*
X174607714Y-109210999D01*
X173655333Y-109210999D02*
X173607714Y-109306238D01*
X173607714Y-109496714D01*
X173655333Y-109591952D01*
X173702952Y-109639571D01*
X173798190Y-109687190D01*
X174083904Y-109687190D01*
X174179142Y-109639571D01*
X174226761Y-109591952D01*
X174274380Y-109496714D01*
X174274380Y-109306238D01*
X174226761Y-109210999D01*
X174274380Y-110544333D02*
X173750571Y-110544333D01*
X173655333Y-110496714D01*
X173607714Y-110401476D01*
X173607714Y-110210999D01*
X173655333Y-110115761D01*
X174226761Y-110544333D02*
X174274380Y-110449095D01*
X174274380Y-110210999D01*
X174226761Y-110115761D01*
X174131523Y-110068142D01*
X174036285Y-110068142D01*
X173941047Y-110115761D01*
X173893428Y-110210999D01*
X173893428Y-110449095D01*
X173845809Y-110544333D01*
X174274380Y-111020523D02*
X173607714Y-111020523D01*
X173798190Y-111020523D02*
X173702952Y-111068142D01*
X173655333Y-111115761D01*
X173607714Y-111210999D01*
X173607714Y-111306238D01*
X174274380Y-112068142D02*
X173750571Y-112068142D01*
X173655333Y-112020523D01*
X173607714Y-111925285D01*
X173607714Y-111734809D01*
X173655333Y-111639571D01*
X174226761Y-112068142D02*
X174274380Y-111972904D01*
X174274380Y-111734809D01*
X174226761Y-111639571D01*
X174131523Y-111591952D01*
X174036285Y-111591952D01*
X173941047Y-111639571D01*
X173893428Y-111734809D01*
X173893428Y-111972904D01*
X173845809Y-112068142D01*
X174274380Y-112687190D02*
X174226761Y-112591952D01*
X174131523Y-112544333D01*
X173274380Y-112544333D01*
X174274380Y-113210999D02*
X174226761Y-113115761D01*
X174131523Y-113068142D01*
X173274380Y-113068142D01*
X174226761Y-113972904D02*
X174274380Y-113877666D01*
X174274380Y-113687190D01*
X174226761Y-113591952D01*
X174131523Y-113544333D01*
X173750571Y-113544333D01*
X173655333Y-113591952D01*
X173607714Y-113687190D01*
X173607714Y-113877666D01*
X173655333Y-113972904D01*
X173750571Y-114020523D01*
X173845809Y-114020523D01*
X173941047Y-113544333D01*
X174274380Y-114591952D02*
X174226761Y-114496714D01*
X174131523Y-114449095D01*
X173274380Y-114449095D01*
X173369619Y-114925285D02*
X173322000Y-114972904D01*
X173274380Y-115068142D01*
X173274380Y-115306238D01*
X173322000Y-115401476D01*
X173369619Y-115449095D01*
X173464857Y-115496714D01*
X173560095Y-115496714D01*
X173702952Y-115449095D01*
X174274380Y-114877666D01*
X174274380Y-115496714D01*
X173607714Y-116353857D02*
X174274380Y-116353857D01*
X173607714Y-115925285D02*
X174131523Y-115925285D01*
X174226761Y-115972904D01*
X174274380Y-116068142D01*
X174274380Y-116210999D01*
X174226761Y-116306238D01*
X174179142Y-116353857D01*
X174226761Y-116782428D02*
X174274380Y-116877666D01*
X174274380Y-117068142D01*
X174226761Y-117163380D01*
X174131523Y-117210999D01*
X174083904Y-117210999D01*
X173988666Y-117163380D01*
X173941047Y-117068142D01*
X173941047Y-116925285D01*
X173893428Y-116830047D01*
X173798190Y-116782428D01*
X173750571Y-116782428D01*
X173655333Y-116830047D01*
X173607714Y-116925285D01*
X173607714Y-117068142D01*
X173655333Y-117163380D01*
X174274380Y-117639571D02*
X173274380Y-117639571D01*
X173655333Y-117639571D02*
X173607714Y-117734809D01*
X173607714Y-117925285D01*
X173655333Y-118020523D01*
X173702952Y-118068142D01*
X173798190Y-118115761D01*
X174083904Y-118115761D01*
X174179142Y-118068142D01*
X174226761Y-118020523D01*
X174274380Y-117925285D01*
X174274380Y-117734809D01*
X174226761Y-117639571D01*
X193246285Y-85161380D02*
X193246285Y-84161380D01*
X192865333Y-84161380D01*
X192770095Y-84209000D01*
X192722476Y-84256619D01*
X192674857Y-84351857D01*
X192674857Y-84494714D01*
X192722476Y-84589952D01*
X192770095Y-84637571D01*
X192865333Y-84685190D01*
X193246285Y-84685190D01*
X192246285Y-84637571D02*
X191912952Y-84637571D01*
X191770095Y-85161380D02*
X192246285Y-85161380D01*
X192246285Y-84161380D01*
X191770095Y-84161380D01*
X193270095Y-118181380D02*
X193270095Y-117181380D01*
X193032000Y-117181380D01*
X192889142Y-117229000D01*
X192793904Y-117324238D01*
X192746285Y-117419476D01*
X192698666Y-117609952D01*
X192698666Y-117752809D01*
X192746285Y-117943285D01*
X192793904Y-118038523D01*
X192889142Y-118133761D01*
X193032000Y-118181380D01*
X193270095Y-118181380D01*
X192079619Y-117181380D02*
X191984380Y-117181380D01*
X191889142Y-117229000D01*
X191841523Y-117276619D01*
X191793904Y-117371857D01*
X191746285Y-117562333D01*
X191746285Y-117800428D01*
X191793904Y-117990904D01*
X191841523Y-118086142D01*
X191889142Y-118133761D01*
X191984380Y-118181380D01*
X192079619Y-118181380D01*
X192174857Y-118133761D01*
X192222476Y-118086142D01*
X192270095Y-117990904D01*
X192317714Y-117800428D01*
X192317714Y-117562333D01*
X192270095Y-117371857D01*
X192222476Y-117276619D01*
X192174857Y-117229000D01*
X192079619Y-117181380D01*
X193270095Y-102941380D02*
X193270095Y-101941380D01*
X193032000Y-101941380D01*
X192889142Y-101989000D01*
X192793904Y-102084238D01*
X192746285Y-102179476D01*
X192698666Y-102369952D01*
X192698666Y-102512809D01*
X192746285Y-102703285D01*
X192793904Y-102798523D01*
X192889142Y-102893761D01*
X193032000Y-102941380D01*
X193270095Y-102941380D01*
X192365333Y-101941380D02*
X191746285Y-101941380D01*
X192079619Y-102322333D01*
X191936761Y-102322333D01*
X191841523Y-102369952D01*
X191793904Y-102417571D01*
X191746285Y-102512809D01*
X191746285Y-102750904D01*
X191793904Y-102846142D01*
X191841523Y-102893761D01*
X191936761Y-102941380D01*
X192222476Y-102941380D01*
X192317714Y-102893761D01*
X192365333Y-102846142D01*
X193270095Y-95321380D02*
X193270095Y-94321380D01*
X193032000Y-94321380D01*
X192889142Y-94369000D01*
X192793904Y-94464238D01*
X192746285Y-94559476D01*
X192698666Y-94749952D01*
X192698666Y-94892809D01*
X192746285Y-95083285D01*
X192793904Y-95178523D01*
X192889142Y-95273761D01*
X193032000Y-95321380D01*
X193270095Y-95321380D01*
X191841523Y-94321380D02*
X192032000Y-94321380D01*
X192127238Y-94369000D01*
X192174857Y-94416619D01*
X192270095Y-94559476D01*
X192317714Y-94749952D01*
X192317714Y-95130904D01*
X192270095Y-95226142D01*
X192222476Y-95273761D01*
X192127238Y-95321380D01*
X191936761Y-95321380D01*
X191841523Y-95273761D01*
X191793904Y-95226142D01*
X191746285Y-95130904D01*
X191746285Y-94892809D01*
X191793904Y-94797571D01*
X191841523Y-94749952D01*
X191936761Y-94702333D01*
X192127238Y-94702333D01*
X192222476Y-94749952D01*
X192270095Y-94797571D01*
X192317714Y-94892809D01*
X192658904Y-124849000D02*
X192754142Y-124801380D01*
X192897000Y-124801380D01*
X193039857Y-124849000D01*
X193135095Y-124944238D01*
X193182714Y-125039476D01*
X193230333Y-125229952D01*
X193230333Y-125372809D01*
X193182714Y-125563285D01*
X193135095Y-125658523D01*
X193039857Y-125753761D01*
X192897000Y-125801380D01*
X192801761Y-125801380D01*
X192658904Y-125753761D01*
X192611285Y-125706142D01*
X192611285Y-125372809D01*
X192801761Y-125372809D01*
X192182714Y-125801380D02*
X192182714Y-124801380D01*
X191611285Y-125801380D01*
X191611285Y-124801380D01*
X191135095Y-125801380D02*
X191135095Y-124801380D01*
X190897000Y-124801380D01*
X190754142Y-124849000D01*
X190658904Y-124944238D01*
X190611285Y-125039476D01*
X190563666Y-125229952D01*
X190563666Y-125372809D01*
X190611285Y-125563285D01*
X190658904Y-125658523D01*
X190754142Y-125753761D01*
X190897000Y-125801380D01*
X191135095Y-125801380D01*
%TO.C,U2*%
X177291904Y-123531380D02*
X177291904Y-124340904D01*
X177244285Y-124436142D01*
X177196666Y-124483761D01*
X177101428Y-124531380D01*
X176910952Y-124531380D01*
X176815714Y-124483761D01*
X176768095Y-124436142D01*
X176720476Y-124340904D01*
X176720476Y-123531380D01*
X176291904Y-123626619D02*
X176244285Y-123579000D01*
X176149047Y-123531380D01*
X175910952Y-123531380D01*
X175815714Y-123579000D01*
X175768095Y-123626619D01*
X175720476Y-123721857D01*
X175720476Y-123817095D01*
X175768095Y-123959952D01*
X176339523Y-124531380D01*
X175720476Y-124531380D01*
X188627722Y-79619407D02*
X188546910Y-79592470D01*
X188466097Y-79511658D01*
X188412223Y-79403908D01*
X188412223Y-79296158D01*
X188439160Y-79215346D01*
X188519972Y-79080659D01*
X188600784Y-78999847D01*
X188735471Y-78919035D01*
X188816284Y-78892097D01*
X188924033Y-78892097D01*
X189031783Y-78945972D01*
X189085658Y-78999847D01*
X189139532Y-79107597D01*
X189139532Y-79161471D01*
X188950971Y-79350033D01*
X188843221Y-79242284D01*
X189435844Y-79350033D02*
X188870158Y-79915719D01*
X189085658Y-80131218D01*
X189166470Y-80158155D01*
X189220345Y-80158155D01*
X189301157Y-80131218D01*
X189381969Y-80050406D01*
X189408906Y-79969593D01*
X189408906Y-79915719D01*
X189381969Y-79834906D01*
X189166470Y-79619407D01*
X190297841Y-80212030D02*
X189974592Y-79888781D01*
X190136216Y-80050406D02*
X189570531Y-80616091D01*
X189597468Y-80481404D01*
X189597468Y-80373654D01*
X189570531Y-80292842D01*
X189920717Y-80966277D02*
X190297841Y-81343401D01*
X190621089Y-80535279D01*
X188419847Y-115109407D02*
X188770033Y-115459593D01*
X188796971Y-115055532D01*
X188877783Y-115136345D01*
X188958595Y-115163282D01*
X189012470Y-115163282D01*
X189093282Y-115136345D01*
X189227969Y-115001658D01*
X189254906Y-114920845D01*
X189254906Y-114866971D01*
X189227969Y-114786158D01*
X189066345Y-114624534D01*
X188985532Y-114597597D01*
X188931658Y-114597597D01*
X188931658Y-115621218D02*
X189685905Y-115244094D01*
X189308781Y-115998341D01*
X189443468Y-116133028D02*
X189793654Y-116483215D01*
X189820592Y-116079154D01*
X189901404Y-116159966D01*
X189982216Y-116186903D01*
X190036091Y-116186903D01*
X190116903Y-116159966D01*
X190251590Y-116025279D01*
X190278528Y-115944467D01*
X190278528Y-115890592D01*
X190251590Y-115809780D01*
X190089966Y-115648155D01*
X190009154Y-115621218D01*
X189955279Y-115621218D01*
X188627722Y-89779407D02*
X188546910Y-89752470D01*
X188466097Y-89671658D01*
X188412223Y-89563908D01*
X188412223Y-89456158D01*
X188439160Y-89375346D01*
X188519972Y-89240659D01*
X188600784Y-89159847D01*
X188735471Y-89079035D01*
X188816284Y-89052097D01*
X188924033Y-89052097D01*
X189031783Y-89105972D01*
X189085658Y-89159847D01*
X189139532Y-89267597D01*
X189139532Y-89321471D01*
X188950971Y-89510033D01*
X188843221Y-89402284D01*
X189435844Y-89510033D02*
X188870158Y-90075719D01*
X189085658Y-90291218D01*
X189166470Y-90318155D01*
X189220345Y-90318155D01*
X189301157Y-90291218D01*
X189381969Y-90210406D01*
X189408906Y-90129593D01*
X189408906Y-90075719D01*
X189381969Y-89994906D01*
X189166470Y-89779407D01*
X189462781Y-90560592D02*
X189462781Y-90614467D01*
X189489719Y-90695279D01*
X189624406Y-90829966D01*
X189705218Y-90856903D01*
X189759093Y-90856903D01*
X189839905Y-90829966D01*
X189893780Y-90776091D01*
X189947654Y-90668341D01*
X189947654Y-90021844D01*
X190297841Y-90372030D01*
X190082341Y-91287902D02*
X190136216Y-91341776D01*
X190217028Y-91368714D01*
X190270903Y-91368714D01*
X190351715Y-91341776D01*
X190486402Y-91260964D01*
X190621089Y-91126277D01*
X190701902Y-90991590D01*
X190728839Y-90910778D01*
X190728839Y-90856903D01*
X190701902Y-90776091D01*
X190648027Y-90722216D01*
X190567215Y-90695279D01*
X190513340Y-90695279D01*
X190432528Y-90722216D01*
X190297841Y-90803028D01*
X190163154Y-90937715D01*
X190082341Y-91072402D01*
X190055404Y-91153215D01*
X190055404Y-91207089D01*
X190082341Y-91287902D01*
X188627722Y-87239407D02*
X188546910Y-87212470D01*
X188466097Y-87131658D01*
X188412223Y-87023908D01*
X188412223Y-86916158D01*
X188439160Y-86835346D01*
X188519972Y-86700659D01*
X188600784Y-86619847D01*
X188735471Y-86539035D01*
X188816284Y-86512097D01*
X188924033Y-86512097D01*
X189031783Y-86565972D01*
X189085658Y-86619847D01*
X189139532Y-86727597D01*
X189139532Y-86781471D01*
X188950971Y-86970033D01*
X188843221Y-86862284D01*
X189435844Y-86970033D02*
X188870158Y-87535719D01*
X189085658Y-87751218D01*
X189166470Y-87778155D01*
X189220345Y-87778155D01*
X189301157Y-87751218D01*
X189381969Y-87670406D01*
X189408906Y-87589593D01*
X189408906Y-87535719D01*
X189381969Y-87454906D01*
X189166470Y-87239407D01*
X190297841Y-87832030D02*
X189974592Y-87508781D01*
X190136216Y-87670406D02*
X189570531Y-88236091D01*
X189597468Y-88101404D01*
X189597468Y-87993654D01*
X189570531Y-87912842D01*
X190567215Y-88101404D02*
X190674964Y-88209154D01*
X190701902Y-88289966D01*
X190701902Y-88343841D01*
X190674964Y-88478528D01*
X190594152Y-88613215D01*
X190378653Y-88828714D01*
X190297841Y-88855651D01*
X190243966Y-88855651D01*
X190163154Y-88828714D01*
X190055404Y-88720964D01*
X190028467Y-88640152D01*
X190028467Y-88586277D01*
X190055404Y-88505465D01*
X190190091Y-88370778D01*
X190270903Y-88343841D01*
X190324778Y-88343841D01*
X190405590Y-88370778D01*
X190513340Y-88478528D01*
X190540277Y-88559340D01*
X190540277Y-88613215D01*
X190513340Y-88694027D01*
X188681597Y-106859035D02*
X188950971Y-107128409D01*
X188789346Y-106643536D02*
X188412223Y-107397783D01*
X189166470Y-107020659D01*
X189112595Y-108044280D02*
X189031783Y-108017343D01*
X188950971Y-107936531D01*
X188897096Y-107828781D01*
X188897096Y-107721032D01*
X188924033Y-107640219D01*
X189004845Y-107505532D01*
X189085658Y-107424720D01*
X189220345Y-107343908D01*
X189301157Y-107316971D01*
X189408906Y-107316971D01*
X189516656Y-107370845D01*
X189570531Y-107424720D01*
X189624406Y-107532470D01*
X189624406Y-107586345D01*
X189435844Y-107774906D01*
X189328094Y-107667157D01*
X189920717Y-107774906D02*
X189355032Y-108340592D01*
X190243966Y-108098155D01*
X189678280Y-108663841D01*
X190513340Y-108367529D02*
X189947654Y-108933215D01*
X190082341Y-109067902D01*
X190190091Y-109121776D01*
X190297841Y-109121776D01*
X190378653Y-109094839D01*
X190513340Y-109014027D01*
X190594152Y-108933215D01*
X190674964Y-108798528D01*
X190701902Y-108717715D01*
X190701902Y-108609966D01*
X190648027Y-108502216D01*
X190513340Y-108367529D01*
X188627722Y-105009407D02*
X188546910Y-104982470D01*
X188466097Y-104901658D01*
X188412223Y-104793908D01*
X188412223Y-104686158D01*
X188439160Y-104605346D01*
X188519972Y-104470659D01*
X188600784Y-104389847D01*
X188735471Y-104309035D01*
X188816284Y-104282097D01*
X188924033Y-104282097D01*
X189031783Y-104335972D01*
X189085658Y-104389847D01*
X189139532Y-104497597D01*
X189139532Y-104551471D01*
X188950971Y-104740033D01*
X188843221Y-104632284D01*
X189435844Y-104740033D02*
X188870158Y-105305719D01*
X189085658Y-105521218D01*
X189166470Y-105548155D01*
X189220345Y-105548155D01*
X189301157Y-105521218D01*
X189381969Y-105440406D01*
X189408906Y-105359593D01*
X189408906Y-105305719D01*
X189381969Y-105224906D01*
X189166470Y-105009407D01*
X189462781Y-105790592D02*
X189462781Y-105844467D01*
X189489719Y-105925279D01*
X189624406Y-106059966D01*
X189705218Y-106086903D01*
X189759093Y-106086903D01*
X189839905Y-106059966D01*
X189893780Y-106006091D01*
X189947654Y-105898341D01*
X189947654Y-105251844D01*
X190297841Y-105602030D01*
X189920717Y-106356277D02*
X190297841Y-106733401D01*
X190621089Y-105925279D01*
X188616158Y-82401844D02*
X188535346Y-82374906D01*
X188454534Y-82294094D01*
X188400659Y-82186345D01*
X188400659Y-82078595D01*
X188427597Y-81997783D01*
X188508409Y-81863096D01*
X188589221Y-81782284D01*
X188723908Y-81701471D01*
X188804720Y-81674534D01*
X188912470Y-81674534D01*
X189020219Y-81728409D01*
X189074094Y-81782284D01*
X189127969Y-81890033D01*
X189127969Y-81943908D01*
X188939407Y-82132470D01*
X188831658Y-82024720D01*
X189424280Y-82132470D02*
X188858595Y-82698155D01*
X189747529Y-82455719D01*
X189181844Y-83021404D01*
X190016903Y-82725093D02*
X189451218Y-83290778D01*
X189585905Y-83425465D01*
X189693654Y-83479340D01*
X189801404Y-83479340D01*
X189882216Y-83452402D01*
X190016903Y-83371590D01*
X190097715Y-83290778D01*
X190178528Y-83156091D01*
X190205465Y-83075279D01*
X190205465Y-82967529D01*
X190151590Y-82859780D01*
X190016903Y-82725093D01*
X188627722Y-92309407D02*
X188546910Y-92282470D01*
X188466097Y-92201658D01*
X188412223Y-92093908D01*
X188412223Y-91986158D01*
X188439160Y-91905346D01*
X188519972Y-91770659D01*
X188600784Y-91689847D01*
X188735471Y-91609035D01*
X188816284Y-91582097D01*
X188924033Y-91582097D01*
X189031783Y-91635972D01*
X189085658Y-91689847D01*
X189139532Y-91797597D01*
X189139532Y-91851471D01*
X188950971Y-92040033D01*
X188843221Y-91932284D01*
X189435844Y-92040033D02*
X188870158Y-92605719D01*
X189085658Y-92821218D01*
X189166470Y-92848155D01*
X189220345Y-92848155D01*
X189301157Y-92821218D01*
X189381969Y-92740406D01*
X189408906Y-92659593D01*
X189408906Y-92605719D01*
X189381969Y-92524906D01*
X189166470Y-92309407D01*
X189462781Y-93090592D02*
X189462781Y-93144467D01*
X189489719Y-93225279D01*
X189624406Y-93359966D01*
X189705218Y-93386903D01*
X189759093Y-93386903D01*
X189839905Y-93359966D01*
X189893780Y-93306091D01*
X189947654Y-93198341D01*
X189947654Y-92551844D01*
X190297841Y-92902030D01*
X190836589Y-93440778D02*
X190513340Y-93117529D01*
X190674964Y-93279154D02*
X190109279Y-93844839D01*
X190136216Y-93710152D01*
X190136216Y-93602402D01*
X190109279Y-93521590D01*
X188627722Y-97399407D02*
X188546910Y-97372470D01*
X188466097Y-97291658D01*
X188412223Y-97183908D01*
X188412223Y-97076158D01*
X188439160Y-96995346D01*
X188519972Y-96860659D01*
X188600784Y-96779847D01*
X188735471Y-96699035D01*
X188816284Y-96672097D01*
X188924033Y-96672097D01*
X189031783Y-96725972D01*
X189085658Y-96779847D01*
X189139532Y-96887597D01*
X189139532Y-96941471D01*
X188950971Y-97130033D01*
X188843221Y-97022284D01*
X189435844Y-97130033D02*
X188870158Y-97695719D01*
X189085658Y-97911218D01*
X189166470Y-97938155D01*
X189220345Y-97938155D01*
X189301157Y-97911218D01*
X189381969Y-97830406D01*
X189408906Y-97749593D01*
X189408906Y-97695719D01*
X189381969Y-97614906D01*
X189166470Y-97399407D01*
X189462781Y-98180592D02*
X189462781Y-98234467D01*
X189489719Y-98315279D01*
X189624406Y-98449966D01*
X189705218Y-98476903D01*
X189759093Y-98476903D01*
X189839905Y-98449966D01*
X189893780Y-98396091D01*
X189947654Y-98288341D01*
X189947654Y-97641844D01*
X190297841Y-97992030D01*
X190001529Y-98719340D02*
X190001529Y-98773215D01*
X190028467Y-98854027D01*
X190163154Y-98988714D01*
X190243966Y-99015651D01*
X190297841Y-99015651D01*
X190378653Y-98988714D01*
X190432528Y-98934839D01*
X190486402Y-98827089D01*
X190486402Y-98180592D01*
X190836589Y-98530778D01*
X188450473Y-122530033D02*
X189204720Y-122152910D01*
X188827597Y-122907157D01*
X189527969Y-122530033D02*
X189635719Y-122583908D01*
X189770406Y-122718595D01*
X189797343Y-122799407D01*
X189797343Y-122853282D01*
X189770406Y-122934094D01*
X189716531Y-122987969D01*
X189635719Y-123014906D01*
X189581844Y-123014906D01*
X189501032Y-122987969D01*
X189366345Y-122907157D01*
X189285532Y-122880219D01*
X189231658Y-122880219D01*
X189150845Y-122907157D01*
X189096971Y-122961032D01*
X189070033Y-123041844D01*
X189070033Y-123095719D01*
X189096971Y-123176531D01*
X189231658Y-123311218D01*
X189339407Y-123365093D01*
X189958967Y-123445905D02*
X190228341Y-123176531D01*
X189474094Y-123553654D02*
X189958967Y-123445905D01*
X189851218Y-123930778D01*
X190551590Y-123553654D02*
X190659340Y-123607529D01*
X190794027Y-123742216D01*
X190820964Y-123823028D01*
X190820964Y-123876903D01*
X190794027Y-123957715D01*
X190740152Y-124011590D01*
X190659340Y-124038528D01*
X190605465Y-124038528D01*
X190524653Y-124011590D01*
X190389966Y-123930778D01*
X190309154Y-123903841D01*
X190255279Y-123903841D01*
X190174467Y-123930778D01*
X190120592Y-123984653D01*
X190093654Y-124065465D01*
X190093654Y-124119340D01*
X190120592Y-124200152D01*
X190255279Y-124334839D01*
X190363028Y-124388714D01*
X188048630Y-116913190D02*
X188398816Y-117263377D01*
X188425754Y-116859316D01*
X188506566Y-116940128D01*
X188587378Y-116967065D01*
X188641253Y-116967065D01*
X188722065Y-116940128D01*
X188856752Y-116805441D01*
X188883690Y-116724629D01*
X188883690Y-116670754D01*
X188856752Y-116589942D01*
X188695128Y-116428317D01*
X188614316Y-116401380D01*
X188560441Y-116401380D01*
X188560441Y-117425001D02*
X189314688Y-117047877D01*
X188937564Y-117802125D01*
X189072251Y-117936812D02*
X189422438Y-118286998D01*
X189449375Y-117882937D01*
X189530187Y-117963749D01*
X189611000Y-117990687D01*
X189664874Y-117990687D01*
X189745687Y-117963749D01*
X189880374Y-117829062D01*
X189907311Y-117748250D01*
X189907311Y-117694375D01*
X189880374Y-117613563D01*
X189718749Y-117451938D01*
X189637937Y-117425001D01*
X189584062Y-117425001D01*
X189934248Y-118260061D02*
X190122810Y-118448622D01*
X190499934Y-118233123D02*
X190230560Y-117963749D01*
X189664874Y-118529435D01*
X189934248Y-118798809D01*
X190742370Y-118475560D02*
X190176685Y-119041245D01*
X191065619Y-118798809D01*
X190499934Y-119364494D01*
X189368375Y-99656564D02*
X188910439Y-99737377D01*
X189045126Y-99333316D02*
X188479441Y-99899001D01*
X188694940Y-100114500D01*
X188775752Y-100141438D01*
X188829627Y-100141438D01*
X188910439Y-100114500D01*
X188991251Y-100033688D01*
X189018189Y-99952876D01*
X189018189Y-99899001D01*
X188991251Y-99818189D01*
X188775752Y-99602690D01*
X189045126Y-100464687D02*
X189503062Y-100006751D01*
X189583874Y-99979813D01*
X189637749Y-99979813D01*
X189718561Y-100006751D01*
X189826311Y-100114500D01*
X189853248Y-100195312D01*
X189853248Y-100249187D01*
X189826311Y-100329999D01*
X189368375Y-100787935D01*
X190203435Y-100491624D02*
X189637749Y-101057309D01*
X190526683Y-100814873D01*
X189960998Y-101380558D01*
X188616158Y-95101844D02*
X188535346Y-95074906D01*
X188454534Y-94994094D01*
X188400659Y-94886345D01*
X188400659Y-94778595D01*
X188427597Y-94697783D01*
X188508409Y-94563096D01*
X188589221Y-94482284D01*
X188723908Y-94401471D01*
X188804720Y-94374534D01*
X188912470Y-94374534D01*
X189020219Y-94428409D01*
X189074094Y-94482284D01*
X189127969Y-94590033D01*
X189127969Y-94643908D01*
X188939407Y-94832470D01*
X188831658Y-94724720D01*
X189424280Y-94832470D02*
X188858595Y-95398155D01*
X189747529Y-95155719D01*
X189181844Y-95721404D01*
X190016903Y-95425093D02*
X189451218Y-95990778D01*
X189585905Y-96125465D01*
X189693654Y-96179340D01*
X189801404Y-96179340D01*
X189882216Y-96152402D01*
X190016903Y-96071590D01*
X190097715Y-95990778D01*
X190178528Y-95856091D01*
X190205465Y-95775279D01*
X190205465Y-95667529D01*
X190151590Y-95559780D01*
X190016903Y-95425093D01*
X188264129Y-125011690D02*
X189018377Y-124634566D01*
X188641253Y-125388813D01*
X189287751Y-125496563D02*
X189395500Y-125550438D01*
X189449375Y-125550438D01*
X189530187Y-125523500D01*
X189611000Y-125442688D01*
X189637937Y-125361876D01*
X189637937Y-125308001D01*
X189611000Y-125227189D01*
X189395500Y-125011690D01*
X188829815Y-125577375D01*
X189018377Y-125765937D01*
X189099189Y-125792874D01*
X189153064Y-125792874D01*
X189233876Y-125765937D01*
X189287751Y-125712062D01*
X189314688Y-125631250D01*
X189314688Y-125577375D01*
X189287751Y-125496563D01*
X189099189Y-125308001D01*
X189395500Y-126143061D02*
X189853436Y-125685125D01*
X189934248Y-125658187D01*
X189988123Y-125658187D01*
X190068935Y-125685125D01*
X190176685Y-125792874D01*
X190203622Y-125873687D01*
X190203622Y-125927561D01*
X190176685Y-126008374D01*
X189718749Y-126466309D01*
X190499934Y-126169998D02*
X190607683Y-126223873D01*
X190742370Y-126358560D01*
X190769308Y-126439372D01*
X190769308Y-126493247D01*
X190742370Y-126574059D01*
X190688496Y-126627934D01*
X190607683Y-126654871D01*
X190553809Y-126654871D01*
X190472996Y-126627934D01*
X190338309Y-126547122D01*
X190257497Y-126520184D01*
X190203622Y-126520184D01*
X190122810Y-126547122D01*
X190068935Y-126600996D01*
X190041998Y-126681809D01*
X190041998Y-126735683D01*
X190068935Y-126816496D01*
X190203622Y-126951183D01*
X190311372Y-127005057D01*
X188627722Y-110353407D02*
X188546910Y-110326470D01*
X188466097Y-110245658D01*
X188412223Y-110137908D01*
X188412223Y-110030158D01*
X188439160Y-109949346D01*
X188519972Y-109814659D01*
X188600784Y-109733847D01*
X188735471Y-109653035D01*
X188816284Y-109626097D01*
X188924033Y-109626097D01*
X189031783Y-109679972D01*
X189085658Y-109733847D01*
X189139532Y-109841597D01*
X189139532Y-109895471D01*
X188950971Y-110084033D01*
X188843221Y-109976284D01*
X189435844Y-110084033D02*
X188870158Y-110649719D01*
X189085658Y-110865218D01*
X189166470Y-110892155D01*
X189220345Y-110892155D01*
X189301157Y-110865218D01*
X189381969Y-110784406D01*
X189408906Y-110703593D01*
X189408906Y-110649719D01*
X189381969Y-110568906D01*
X189166470Y-110353407D01*
X189462781Y-111134592D02*
X189462781Y-111188467D01*
X189489719Y-111269279D01*
X189624406Y-111403966D01*
X189705218Y-111430903D01*
X189759093Y-111430903D01*
X189839905Y-111403966D01*
X189893780Y-111350091D01*
X189947654Y-111242341D01*
X189947654Y-110595844D01*
X190297841Y-110946030D01*
X190297841Y-111592528D02*
X190217028Y-111565590D01*
X190163154Y-111565590D01*
X190082341Y-111592528D01*
X190055404Y-111619465D01*
X190028467Y-111700277D01*
X190028467Y-111754152D01*
X190055404Y-111834964D01*
X190163154Y-111942714D01*
X190243966Y-111969651D01*
X190297841Y-111969651D01*
X190378653Y-111942714D01*
X190405590Y-111915776D01*
X190432528Y-111834964D01*
X190432528Y-111781089D01*
X190405590Y-111700277D01*
X190297841Y-111592528D01*
X190270903Y-111511715D01*
X190270903Y-111457841D01*
X190297841Y-111377028D01*
X190405590Y-111269279D01*
X190486402Y-111242341D01*
X190540277Y-111242341D01*
X190621089Y-111269279D01*
X190728839Y-111377028D01*
X190755776Y-111457841D01*
X190755776Y-111511715D01*
X190728839Y-111592528D01*
X190621089Y-111700277D01*
X190540277Y-111727215D01*
X190486402Y-111727215D01*
X190405590Y-111700277D01*
X188627722Y-77079407D02*
X188546910Y-77052470D01*
X188466097Y-76971658D01*
X188412223Y-76863908D01*
X188412223Y-76756158D01*
X188439160Y-76675346D01*
X188519972Y-76540659D01*
X188600784Y-76459847D01*
X188735471Y-76379035D01*
X188816284Y-76352097D01*
X188924033Y-76352097D01*
X189031783Y-76405972D01*
X189085658Y-76459847D01*
X189139532Y-76567597D01*
X189139532Y-76621471D01*
X188950971Y-76810033D01*
X188843221Y-76702284D01*
X189435844Y-76810033D02*
X188870158Y-77375719D01*
X189085658Y-77591218D01*
X189166470Y-77618155D01*
X189220345Y-77618155D01*
X189301157Y-77591218D01*
X189381969Y-77510406D01*
X189408906Y-77429593D01*
X189408906Y-77375719D01*
X189381969Y-77294906D01*
X189166470Y-77079407D01*
X190297841Y-77672030D02*
X189974592Y-77348781D01*
X190136216Y-77510406D02*
X189570531Y-78076091D01*
X189597468Y-77941404D01*
X189597468Y-77833654D01*
X189570531Y-77752842D01*
X190217028Y-78722589D02*
X190109279Y-78614839D01*
X190082341Y-78534027D01*
X190082341Y-78480152D01*
X190109279Y-78345465D01*
X190190091Y-78210778D01*
X190405590Y-77995279D01*
X190486402Y-77968341D01*
X190540277Y-77968341D01*
X190621089Y-77995279D01*
X190728839Y-78103028D01*
X190755776Y-78183841D01*
X190755776Y-78237715D01*
X190728839Y-78318528D01*
X190594152Y-78453215D01*
X190513340Y-78480152D01*
X190459465Y-78480152D01*
X190378653Y-78453215D01*
X190270903Y-78345465D01*
X190243966Y-78264653D01*
X190243966Y-78210778D01*
X190270903Y-78129966D01*
X188419972Y-111786410D02*
X188689346Y-112055784D01*
X188527722Y-111570911D02*
X188150598Y-112325158D01*
X188904845Y-111948035D01*
X188446910Y-112621470D02*
X189201157Y-112244346D01*
X188824033Y-112998593D01*
X189901529Y-112944719D02*
X189443593Y-113025531D01*
X189578280Y-112621470D02*
X189012595Y-113187155D01*
X189228094Y-113402654D01*
X189308906Y-113429592D01*
X189362781Y-113429592D01*
X189443593Y-113402654D01*
X189524406Y-113321842D01*
X189551343Y-113241030D01*
X189551343Y-113187155D01*
X189524406Y-113106343D01*
X189308906Y-112890844D01*
X189847654Y-113483467D02*
X190036216Y-113672028D01*
X190413340Y-113456529D02*
X190143966Y-113187155D01*
X189578280Y-113752841D01*
X189847654Y-114022215D01*
X190548027Y-114183839D02*
X190359465Y-113995277D01*
X190655776Y-113698966D02*
X190090091Y-114264651D01*
X190359465Y-114534025D01*
X188627722Y-84699407D02*
X188546910Y-84672470D01*
X188466097Y-84591658D01*
X188412223Y-84483908D01*
X188412223Y-84376158D01*
X188439160Y-84295346D01*
X188519972Y-84160659D01*
X188600784Y-84079847D01*
X188735471Y-83999035D01*
X188816284Y-83972097D01*
X188924033Y-83972097D01*
X189031783Y-84025972D01*
X189085658Y-84079847D01*
X189139532Y-84187597D01*
X189139532Y-84241471D01*
X188950971Y-84430033D01*
X188843221Y-84322284D01*
X189435844Y-84430033D02*
X188870158Y-84995719D01*
X189085658Y-85211218D01*
X189166470Y-85238155D01*
X189220345Y-85238155D01*
X189301157Y-85211218D01*
X189381969Y-85130406D01*
X189408906Y-85049593D01*
X189408906Y-84995719D01*
X189381969Y-84914906D01*
X189166470Y-84699407D01*
X190297841Y-85292030D02*
X189974592Y-84968781D01*
X190136216Y-85130406D02*
X189570531Y-85696091D01*
X189597468Y-85561404D01*
X189597468Y-85453654D01*
X189570531Y-85372842D01*
X190297841Y-85938528D02*
X190217028Y-85911590D01*
X190163154Y-85911590D01*
X190082341Y-85938528D01*
X190055404Y-85965465D01*
X190028467Y-86046277D01*
X190028467Y-86100152D01*
X190055404Y-86180964D01*
X190163154Y-86288714D01*
X190243966Y-86315651D01*
X190297841Y-86315651D01*
X190378653Y-86288714D01*
X190405590Y-86261776D01*
X190432528Y-86180964D01*
X190432528Y-86127089D01*
X190405590Y-86046277D01*
X190297841Y-85938528D01*
X190270903Y-85857715D01*
X190270903Y-85803841D01*
X190297841Y-85723028D01*
X190405590Y-85615279D01*
X190486402Y-85588341D01*
X190540277Y-85588341D01*
X190621089Y-85615279D01*
X190728839Y-85723028D01*
X190755776Y-85803841D01*
X190755776Y-85857715D01*
X190728839Y-85938528D01*
X190621089Y-86046277D01*
X190540277Y-86073215D01*
X190486402Y-86073215D01*
X190405590Y-86046277D01*
X188616158Y-120501844D02*
X188535346Y-120474906D01*
X188454534Y-120394094D01*
X188400659Y-120286345D01*
X188400659Y-120178595D01*
X188427597Y-120097783D01*
X188508409Y-119963096D01*
X188589221Y-119882284D01*
X188723908Y-119801471D01*
X188804720Y-119774534D01*
X188912470Y-119774534D01*
X189020219Y-119828409D01*
X189074094Y-119882284D01*
X189127969Y-119990033D01*
X189127969Y-120043908D01*
X188939407Y-120232470D01*
X188831658Y-120124720D01*
X189424280Y-120232470D02*
X188858595Y-120798155D01*
X189747529Y-120555719D01*
X189181844Y-121121404D01*
X190016903Y-120825093D02*
X189451218Y-121390778D01*
X189585905Y-121525465D01*
X189693654Y-121579340D01*
X189801404Y-121579340D01*
X189882216Y-121552402D01*
X190016903Y-121471590D01*
X190097715Y-121390778D01*
X190178528Y-121256091D01*
X190205465Y-121175279D01*
X190205465Y-121067529D01*
X190151590Y-120959780D01*
X190016903Y-120825093D01*
X188627722Y-102479407D02*
X188546910Y-102452470D01*
X188466097Y-102371658D01*
X188412223Y-102263908D01*
X188412223Y-102156158D01*
X188439160Y-102075346D01*
X188519972Y-101940659D01*
X188600784Y-101859847D01*
X188735471Y-101779035D01*
X188816284Y-101752097D01*
X188924033Y-101752097D01*
X189031783Y-101805972D01*
X189085658Y-101859847D01*
X189139532Y-101967597D01*
X189139532Y-102021471D01*
X188950971Y-102210033D01*
X188843221Y-102102284D01*
X189435844Y-102210033D02*
X188870158Y-102775719D01*
X189085658Y-102991218D01*
X189166470Y-103018155D01*
X189220345Y-103018155D01*
X189301157Y-102991218D01*
X189381969Y-102910406D01*
X189408906Y-102829593D01*
X189408906Y-102775719D01*
X189381969Y-102694906D01*
X189166470Y-102479407D01*
X189462781Y-103260592D02*
X189462781Y-103314467D01*
X189489719Y-103395279D01*
X189624406Y-103529966D01*
X189705218Y-103556903D01*
X189759093Y-103556903D01*
X189839905Y-103529966D01*
X189893780Y-103476091D01*
X189947654Y-103368341D01*
X189947654Y-102721844D01*
X190297841Y-103072030D01*
X190217028Y-104122589D02*
X190109279Y-104014839D01*
X190082341Y-103934027D01*
X190082341Y-103880152D01*
X190109279Y-103745465D01*
X190190091Y-103610778D01*
X190405590Y-103395279D01*
X190486402Y-103368341D01*
X190540277Y-103368341D01*
X190621089Y-103395279D01*
X190728839Y-103503028D01*
X190755776Y-103583841D01*
X190755776Y-103637715D01*
X190728839Y-103718528D01*
X190594152Y-103853215D01*
X190513340Y-103880152D01*
X190459465Y-103880152D01*
X190378653Y-103853215D01*
X190270903Y-103745465D01*
X190243966Y-103664653D01*
X190243966Y-103610778D01*
X190270903Y-103529966D01*
D11*
X166030000Y-86500000D02*
X166030000Y-86100000D01*
X187030000Y-99300000D02*
X187030000Y-98900000D01*
X166030000Y-84000000D02*
X166030000Y-83600000D01*
X187030000Y-112000000D02*
X187030000Y-111600000D01*
X177630000Y-76100000D02*
X178030000Y-76100000D01*
X172830000Y-76100000D02*
X166030000Y-76100000D01*
X187030000Y-101800000D02*
X187030000Y-101400000D01*
X187030000Y-76100000D02*
X180230000Y-76100000D01*
X187030000Y-114500000D02*
X187030000Y-114100000D01*
X187030000Y-81500000D02*
X187030000Y-81100000D01*
X166030000Y-117000000D02*
X166030000Y-116600000D01*
X166030000Y-114500000D02*
X166030000Y-114100000D01*
X187030000Y-122100000D02*
X187030000Y-121700000D01*
X166030000Y-89100000D02*
X166030000Y-88700000D01*
X169037000Y-124433000D02*
X169037000Y-127100000D01*
X187030000Y-104300000D02*
X187030000Y-103900000D01*
X166030000Y-127100000D02*
X166030000Y-126800000D01*
X166030000Y-81500000D02*
X166030000Y-81100000D01*
X187030000Y-84000000D02*
X187030000Y-83600000D01*
X166030000Y-106900000D02*
X166030000Y-106500000D01*
X166030000Y-91600000D02*
X166030000Y-91200000D01*
X187030000Y-89100000D02*
X187030000Y-88700000D01*
X187030000Y-94200000D02*
X187030000Y-93800000D01*
X187030000Y-117000000D02*
X187030000Y-116600000D01*
X166030000Y-122100000D02*
X166030000Y-121700000D01*
X166030000Y-109400000D02*
X166030000Y-109000000D01*
X166030000Y-127100000D02*
X187030000Y-127100000D01*
X187030000Y-119600000D02*
X187030000Y-119200000D01*
X187030000Y-109400000D02*
X187030000Y-109000000D01*
X166030000Y-96700000D02*
X166030000Y-96300000D01*
X166030000Y-101800000D02*
X166030000Y-101400000D01*
X187030000Y-86500000D02*
X187030000Y-86100000D01*
X187030000Y-96700000D02*
X187030000Y-96300000D01*
X166030000Y-94200000D02*
X166030000Y-93800000D01*
X187030000Y-91600000D02*
X187030000Y-91200000D01*
X166030000Y-78900000D02*
X166030000Y-78500000D01*
X166030000Y-99300000D02*
X166030000Y-98900000D01*
X187030000Y-78900000D02*
X187030000Y-78500000D01*
X166030000Y-104300000D02*
X166030000Y-103900000D01*
X166030000Y-124433000D02*
X169037000Y-124433000D01*
X175030000Y-76100000D02*
X175430000Y-76100000D01*
X166030000Y-119600000D02*
X166030000Y-119200000D01*
X187030000Y-106900000D02*
X187030000Y-106500000D01*
X187030000Y-127100000D02*
X187030000Y-126800000D01*
X187030000Y-124700000D02*
X187030000Y-124300000D01*
X166030000Y-124700000D02*
X166030000Y-124300000D01*
X166030000Y-112000000D02*
X166030000Y-111600000D01*
%TO.C,REF\u002A\u002A*%
G36*
X178511091Y-98742500D02*
G01*
X178513518Y-98754908D01*
X178526088Y-98820801D01*
X178543170Y-98911916D01*
X178562829Y-99017896D01*
X178583132Y-99128385D01*
X178591299Y-99171895D01*
X178611167Y-99269118D01*
X178629954Y-99350142D01*
X178645859Y-99407523D01*
X178657079Y-99433813D01*
X178675411Y-99445727D01*
X178723916Y-99467417D01*
X178786692Y-99489605D01*
X178810200Y-99497415D01*
X178887366Y-99526165D01*
X178978694Y-99563248D01*
X179069093Y-99602625D01*
X179116310Y-99623685D01*
X179186837Y-99653689D01*
X179239655Y-99674308D01*
X179265912Y-99681974D01*
X179267894Y-99681548D01*
X179295751Y-99667007D01*
X179349510Y-99634217D01*
X179423963Y-99586507D01*
X179513897Y-99527202D01*
X179614104Y-99459631D01*
X179940416Y-99237287D01*
X180233016Y-99529399D01*
X180261171Y-99557651D01*
X180345449Y-99644039D01*
X180418128Y-99721244D01*
X180475112Y-99784742D01*
X180512307Y-99830010D01*
X180525616Y-99852526D01*
X180515490Y-99876977D01*
X180486421Y-99928181D01*
X180441896Y-100000253D01*
X180385411Y-100087540D01*
X180320462Y-100184388D01*
X180256314Y-100279514D01*
X180199827Y-100365331D01*
X180155184Y-100435348D01*
X180125855Y-100484124D01*
X180115308Y-100506217D01*
X180115404Y-100507512D01*
X180125802Y-100536861D01*
X180150012Y-100588907D01*
X180183249Y-100653292D01*
X180183613Y-100653968D01*
X180226441Y-100739479D01*
X180247365Y-100798074D01*
X180247423Y-100834429D01*
X180227654Y-100853225D01*
X180208195Y-100861181D01*
X180156080Y-100882653D01*
X180075964Y-100915727D01*
X179972107Y-100958644D01*
X179848767Y-101009644D01*
X179710201Y-101066967D01*
X179560670Y-101128854D01*
X179424636Y-101184948D01*
X179285050Y-101242023D01*
X179160315Y-101292521D01*
X179054672Y-101334746D01*
X178972365Y-101367005D01*
X178917635Y-101387603D01*
X178894726Y-101394846D01*
X178873718Y-101381014D01*
X178838642Y-101342588D01*
X178797887Y-101288193D01*
X178691267Y-101157605D01*
X178555025Y-101040740D01*
X178405118Y-100955220D01*
X178245971Y-100901569D01*
X178082012Y-100880316D01*
X177917667Y-100891986D01*
X177757361Y-100937106D01*
X177605520Y-101016203D01*
X177466572Y-101129803D01*
X177412460Y-101189035D01*
X177316782Y-101330946D01*
X177254405Y-101482794D01*
X177223844Y-101640139D01*
X177223615Y-101798544D01*
X177252232Y-101953571D01*
X177308210Y-102100780D01*
X177390064Y-102235734D01*
X177496309Y-102353995D01*
X177625459Y-102451123D01*
X177776031Y-102522682D01*
X177946539Y-102564231D01*
X178028722Y-102571857D01*
X178206775Y-102561366D01*
X178375704Y-102514118D01*
X178532522Y-102431511D01*
X178674245Y-102314941D01*
X178797887Y-102165807D01*
X178836982Y-102113439D01*
X178872443Y-102074168D01*
X178894692Y-102059154D01*
X178914088Y-102065141D01*
X178966059Y-102084568D01*
X179046002Y-102115806D01*
X179149673Y-102157161D01*
X179272832Y-102206939D01*
X179411234Y-102263447D01*
X179560637Y-102324991D01*
X179696020Y-102380992D01*
X179835852Y-102438816D01*
X179960872Y-102490500D01*
X180066822Y-102534282D01*
X180149441Y-102568403D01*
X180204472Y-102591102D01*
X180227654Y-102600620D01*
X180227928Y-102600731D01*
X180247503Y-102619772D01*
X180247279Y-102656306D01*
X180226210Y-102715046D01*
X180183249Y-102800708D01*
X180179631Y-102807451D01*
X180147087Y-102871062D01*
X180124050Y-102921293D01*
X180115308Y-102947782D01*
X180125639Y-102969494D01*
X180154788Y-103018016D01*
X180199287Y-103087837D01*
X180255668Y-103173516D01*
X180320462Y-103269612D01*
X180383984Y-103364294D01*
X180440705Y-103451868D01*
X180485547Y-103524358D01*
X180515016Y-103576111D01*
X180525616Y-103601474D01*
X180524270Y-103605794D01*
X180503056Y-103635908D01*
X180459237Y-103687360D01*
X180396909Y-103755625D01*
X180320170Y-103836180D01*
X180233116Y-103924500D01*
X179940617Y-104216512D01*
X179271525Y-103761640D01*
X179121916Y-103830792D01*
X179121473Y-103830997D01*
X179026101Y-103872523D01*
X178919896Y-103914956D01*
X178825769Y-103949142D01*
X178810588Y-103954316D01*
X178740109Y-103980399D01*
X178685342Y-104003919D01*
X178657079Y-104020323D01*
X178653088Y-104027004D01*
X178639697Y-104067108D01*
X178622373Y-104135205D01*
X178602917Y-104223855D01*
X178583132Y-104325615D01*
X178577551Y-104356096D01*
X178557233Y-104466372D01*
X178538095Y-104569269D01*
X178522070Y-104654431D01*
X178511091Y-104711500D01*
X178490845Y-104814077D01*
X178063701Y-104814077D01*
X178011180Y-104814054D01*
X177883047Y-104813621D01*
X177787420Y-104812341D01*
X177719411Y-104809832D01*
X177674133Y-104805714D01*
X177646697Y-104799605D01*
X177632218Y-104791122D01*
X177625807Y-104779885D01*
X177623209Y-104769006D01*
X177614022Y-104724653D01*
X177599991Y-104653894D01*
X177582486Y-104563926D01*
X177562874Y-104461944D01*
X177542525Y-104355143D01*
X177522807Y-104250719D01*
X177505089Y-104155868D01*
X177490738Y-104077786D01*
X177481124Y-104023668D01*
X177477616Y-104000709D01*
X177475497Y-103999158D01*
X177448006Y-103986675D01*
X177395406Y-103965073D01*
X177326192Y-103937877D01*
X177232937Y-103900134D01*
X177125159Y-103853672D01*
X177030172Y-103810122D01*
X177008851Y-103800142D01*
X176942086Y-103772138D01*
X176890590Y-103755359D01*
X176864095Y-103753146D01*
X176862218Y-103754287D01*
X176834565Y-103772416D01*
X176780849Y-103808356D01*
X176706303Y-103858582D01*
X176616162Y-103919570D01*
X176515657Y-103987795D01*
X176401470Y-104064670D01*
X176312770Y-104122337D01*
X176247721Y-104161574D01*
X176202295Y-104184650D01*
X176172463Y-104193834D01*
X176154195Y-104191396D01*
X176152825Y-104190576D01*
X176126205Y-104168523D01*
X176077697Y-104123564D01*
X176012108Y-104060327D01*
X175934247Y-103983441D01*
X175848922Y-103897535D01*
X175762334Y-103808421D01*
X175680947Y-103721128D01*
X175626035Y-103656982D01*
X175596190Y-103614321D01*
X175590004Y-103591479D01*
X175591394Y-103588495D01*
X175610127Y-103557064D01*
X175646733Y-103500003D01*
X175697697Y-103422657D01*
X175759504Y-103330374D01*
X175828639Y-103228498D01*
X176055420Y-102896407D01*
X175987353Y-102746434D01*
X175985381Y-102742077D01*
X175945491Y-102650000D01*
X175905818Y-102552317D01*
X175874674Y-102469461D01*
X175874545Y-102469095D01*
X175850456Y-102403315D01*
X175830110Y-102352677D01*
X175817901Y-102328116D01*
X175817458Y-102327718D01*
X175792456Y-102319381D01*
X175735598Y-102305659D01*
X175653014Y-102287877D01*
X175550831Y-102267359D01*
X175435178Y-102245429D01*
X175431033Y-102244664D01*
X175313019Y-102222771D01*
X175206151Y-102202719D01*
X175117252Y-102185808D01*
X175053145Y-102173333D01*
X175020654Y-102166594D01*
X175018853Y-102166163D01*
X175004944Y-102161727D01*
X174994489Y-102152737D01*
X174986996Y-102134263D01*
X174981972Y-102101372D01*
X174978922Y-102049132D01*
X174977355Y-101972612D01*
X174976776Y-101866878D01*
X174976692Y-101727000D01*
X174976693Y-101709425D01*
X174976807Y-101573629D01*
X174977472Y-101471424D01*
X174979182Y-101397878D01*
X174982429Y-101348058D01*
X174987706Y-101317033D01*
X174995507Y-101299871D01*
X175006325Y-101291639D01*
X175020654Y-101287406D01*
X175021168Y-101287284D01*
X175054851Y-101280328D01*
X175119917Y-101267680D01*
X175209542Y-101250640D01*
X175316904Y-101230504D01*
X175435178Y-101208571D01*
X175444856Y-101206782D01*
X175559650Y-101184917D01*
X175660480Y-101164570D01*
X175741217Y-101147066D01*
X175795734Y-101133729D01*
X175817901Y-101125884D01*
X175817936Y-101125842D01*
X175830200Y-101101116D01*
X175850576Y-101050369D01*
X175874674Y-100984538D01*
X175875983Y-100980831D01*
X175907791Y-100896669D01*
X175947685Y-100798770D01*
X175987353Y-100707565D01*
X176055420Y-100557593D01*
X175828639Y-100225501D01*
X175812688Y-100202111D01*
X175744890Y-100101920D01*
X175685208Y-100012520D01*
X175637156Y-99939255D01*
X175604250Y-99887473D01*
X175590004Y-99862520D01*
X175593270Y-99845423D01*
X175618571Y-99806605D01*
X175668675Y-99746615D01*
X175744989Y-99663790D01*
X175848922Y-99556465D01*
X175858382Y-99546861D01*
X175943145Y-99461698D01*
X176019937Y-99386051D01*
X176083947Y-99324551D01*
X176130361Y-99281827D01*
X176154369Y-99262511D01*
X176154485Y-99262448D01*
X176172763Y-99259994D01*
X176202411Y-99269044D01*
X176247486Y-99291881D01*
X176312044Y-99330787D01*
X176400140Y-99388046D01*
X176515830Y-99465941D01*
X176535357Y-99479215D01*
X176634278Y-99546348D01*
X176721848Y-99605590D01*
X176792831Y-99653412D01*
X176841991Y-99686285D01*
X176864095Y-99700682D01*
X176868777Y-99701768D01*
X176903710Y-99694956D01*
X176960753Y-99674550D01*
X177030172Y-99643877D01*
X177120959Y-99602192D01*
X177228686Y-99555648D01*
X177326192Y-99516123D01*
X177351430Y-99506324D01*
X177415870Y-99480660D01*
X177460763Y-99461807D01*
X177477616Y-99453290D01*
X177478875Y-99443889D01*
X177486159Y-99401637D01*
X177498739Y-99332479D01*
X177515246Y-99243613D01*
X177534312Y-99142232D01*
X177554569Y-99035533D01*
X177574647Y-98930712D01*
X177593179Y-98834964D01*
X177608795Y-98755484D01*
X177620127Y-98699470D01*
X177625807Y-98674115D01*
X177627408Y-98669912D01*
X177636045Y-98659666D01*
X177654433Y-98652043D01*
X177687460Y-98646662D01*
X177740013Y-98643141D01*
X177816979Y-98641099D01*
X177923246Y-98640153D01*
X178063701Y-98639923D01*
X178490845Y-98639923D01*
X178511091Y-98742500D01*
G37*
D12*
X178511091Y-98742500D02*
X178513518Y-98754908D01*
X178526088Y-98820801D01*
X178543170Y-98911916D01*
X178562829Y-99017896D01*
X178583132Y-99128385D01*
X178591299Y-99171895D01*
X178611167Y-99269118D01*
X178629954Y-99350142D01*
X178645859Y-99407523D01*
X178657079Y-99433813D01*
X178675411Y-99445727D01*
X178723916Y-99467417D01*
X178786692Y-99489605D01*
X178810200Y-99497415D01*
X178887366Y-99526165D01*
X178978694Y-99563248D01*
X179069093Y-99602625D01*
X179116310Y-99623685D01*
X179186837Y-99653689D01*
X179239655Y-99674308D01*
X179265912Y-99681974D01*
X179267894Y-99681548D01*
X179295751Y-99667007D01*
X179349510Y-99634217D01*
X179423963Y-99586507D01*
X179513897Y-99527202D01*
X179614104Y-99459631D01*
X179940416Y-99237287D01*
X180233016Y-99529399D01*
X180261171Y-99557651D01*
X180345449Y-99644039D01*
X180418128Y-99721244D01*
X180475112Y-99784742D01*
X180512307Y-99830010D01*
X180525616Y-99852526D01*
X180515490Y-99876977D01*
X180486421Y-99928181D01*
X180441896Y-100000253D01*
X180385411Y-100087540D01*
X180320462Y-100184388D01*
X180256314Y-100279514D01*
X180199827Y-100365331D01*
X180155184Y-100435348D01*
X180125855Y-100484124D01*
X180115308Y-100506217D01*
X180115404Y-100507512D01*
X180125802Y-100536861D01*
X180150012Y-100588907D01*
X180183249Y-100653292D01*
X180183613Y-100653968D01*
X180226441Y-100739479D01*
X180247365Y-100798074D01*
X180247423Y-100834429D01*
X180227654Y-100853225D01*
X180208195Y-100861181D01*
X180156080Y-100882653D01*
X180075964Y-100915727D01*
X179972107Y-100958644D01*
X179848767Y-101009644D01*
X179710201Y-101066967D01*
X179560670Y-101128854D01*
X179424636Y-101184948D01*
X179285050Y-101242023D01*
X179160315Y-101292521D01*
X179054672Y-101334746D01*
X178972365Y-101367005D01*
X178917635Y-101387603D01*
X178894726Y-101394846D01*
X178873718Y-101381014D01*
X178838642Y-101342588D01*
X178797887Y-101288193D01*
X178691267Y-101157605D01*
X178555025Y-101040740D01*
X178405118Y-100955220D01*
X178245971Y-100901569D01*
X178082012Y-100880316D01*
X177917667Y-100891986D01*
X177757361Y-100937106D01*
X177605520Y-101016203D01*
X177466572Y-101129803D01*
X177412460Y-101189035D01*
X177316782Y-101330946D01*
X177254405Y-101482794D01*
X177223844Y-101640139D01*
X177223615Y-101798544D01*
X177252232Y-101953571D01*
X177308210Y-102100780D01*
X177390064Y-102235734D01*
X177496309Y-102353995D01*
X177625459Y-102451123D01*
X177776031Y-102522682D01*
X177946539Y-102564231D01*
X178028722Y-102571857D01*
X178206775Y-102561366D01*
X178375704Y-102514118D01*
X178532522Y-102431511D01*
X178674245Y-102314941D01*
X178797887Y-102165807D01*
X178836982Y-102113439D01*
X178872443Y-102074168D01*
X178894692Y-102059154D01*
X178914088Y-102065141D01*
X178966059Y-102084568D01*
X179046002Y-102115806D01*
X179149673Y-102157161D01*
X179272832Y-102206939D01*
X179411234Y-102263447D01*
X179560637Y-102324991D01*
X179696020Y-102380992D01*
X179835852Y-102438816D01*
X179960872Y-102490500D01*
X180066822Y-102534282D01*
X180149441Y-102568403D01*
X180204472Y-102591102D01*
X180227654Y-102600620D01*
X180227928Y-102600731D01*
X180247503Y-102619772D01*
X180247279Y-102656306D01*
X180226210Y-102715046D01*
X180183249Y-102800708D01*
X180179631Y-102807451D01*
X180147087Y-102871062D01*
X180124050Y-102921293D01*
X180115308Y-102947782D01*
X180125639Y-102969494D01*
X180154788Y-103018016D01*
X180199287Y-103087837D01*
X180255668Y-103173516D01*
X180320462Y-103269612D01*
X180383984Y-103364294D01*
X180440705Y-103451868D01*
X180485547Y-103524358D01*
X180515016Y-103576111D01*
X180525616Y-103601474D01*
X180524270Y-103605794D01*
X180503056Y-103635908D01*
X180459237Y-103687360D01*
X180396909Y-103755625D01*
X180320170Y-103836180D01*
X180233116Y-103924500D01*
X179940617Y-104216512D01*
X179271525Y-103761640D01*
X179121916Y-103830792D01*
X179121473Y-103830997D01*
X179026101Y-103872523D01*
X178919896Y-103914956D01*
X178825769Y-103949142D01*
X178810588Y-103954316D01*
X178740109Y-103980399D01*
X178685342Y-104003919D01*
X178657079Y-104020323D01*
X178653088Y-104027004D01*
X178639697Y-104067108D01*
X178622373Y-104135205D01*
X178602917Y-104223855D01*
X178583132Y-104325615D01*
X178577551Y-104356096D01*
X178557233Y-104466372D01*
X178538095Y-104569269D01*
X178522070Y-104654431D01*
X178511091Y-104711500D01*
X178490845Y-104814077D01*
X178063701Y-104814077D01*
X178011180Y-104814054D01*
X177883047Y-104813621D01*
X177787420Y-104812341D01*
X177719411Y-104809832D01*
X177674133Y-104805714D01*
X177646697Y-104799605D01*
X177632218Y-104791122D01*
X177625807Y-104779885D01*
X177623209Y-104769006D01*
X177614022Y-104724653D01*
X177599991Y-104653894D01*
X177582486Y-104563926D01*
X177562874Y-104461944D01*
X177542525Y-104355143D01*
X177522807Y-104250719D01*
X177505089Y-104155868D01*
X177490738Y-104077786D01*
X177481124Y-104023668D01*
X177477616Y-104000709D01*
X177475497Y-103999158D01*
X177448006Y-103986675D01*
X177395406Y-103965073D01*
X177326192Y-103937877D01*
X177232937Y-103900134D01*
X177125159Y-103853672D01*
X177030172Y-103810122D01*
X177008851Y-103800142D01*
X176942086Y-103772138D01*
X176890590Y-103755359D01*
X176864095Y-103753146D01*
X176862218Y-103754287D01*
X176834565Y-103772416D01*
X176780849Y-103808356D01*
X176706303Y-103858582D01*
X176616162Y-103919570D01*
X176515657Y-103987795D01*
X176401470Y-104064670D01*
X176312770Y-104122337D01*
X176247721Y-104161574D01*
X176202295Y-104184650D01*
X176172463Y-104193834D01*
X176154195Y-104191396D01*
X176152825Y-104190576D01*
X176126205Y-104168523D01*
X176077697Y-104123564D01*
X176012108Y-104060327D01*
X175934247Y-103983441D01*
X175848922Y-103897535D01*
X175762334Y-103808421D01*
X175680947Y-103721128D01*
X175626035Y-103656982D01*
X175596190Y-103614321D01*
X175590004Y-103591479D01*
X175591394Y-103588495D01*
X175610127Y-103557064D01*
X175646733Y-103500003D01*
X175697697Y-103422657D01*
X175759504Y-103330374D01*
X175828639Y-103228498D01*
X176055420Y-102896407D01*
X175987353Y-102746434D01*
X175985381Y-102742077D01*
X175945491Y-102650000D01*
X175905818Y-102552317D01*
X175874674Y-102469461D01*
X175874545Y-102469095D01*
X175850456Y-102403315D01*
X175830110Y-102352677D01*
X175817901Y-102328116D01*
X175817458Y-102327718D01*
X175792456Y-102319381D01*
X175735598Y-102305659D01*
X175653014Y-102287877D01*
X175550831Y-102267359D01*
X175435178Y-102245429D01*
X175431033Y-102244664D01*
X175313019Y-102222771D01*
X175206151Y-102202719D01*
X175117252Y-102185808D01*
X175053145Y-102173333D01*
X175020654Y-102166594D01*
X175018853Y-102166163D01*
X175004944Y-102161727D01*
X174994489Y-102152737D01*
X174986996Y-102134263D01*
X174981972Y-102101372D01*
X174978922Y-102049132D01*
X174977355Y-101972612D01*
X174976776Y-101866878D01*
X174976692Y-101727000D01*
X174976693Y-101709425D01*
X174976807Y-101573629D01*
X174977472Y-101471424D01*
X174979182Y-101397878D01*
X174982429Y-101348058D01*
X174987706Y-101317033D01*
X174995507Y-101299871D01*
X175006325Y-101291639D01*
X175020654Y-101287406D01*
X175021168Y-101287284D01*
X175054851Y-101280328D01*
X175119917Y-101267680D01*
X175209542Y-101250640D01*
X175316904Y-101230504D01*
X175435178Y-101208571D01*
X175444856Y-101206782D01*
X175559650Y-101184917D01*
X175660480Y-101164570D01*
X175741217Y-101147066D01*
X175795734Y-101133729D01*
X175817901Y-101125884D01*
X175817936Y-101125842D01*
X175830200Y-101101116D01*
X175850576Y-101050369D01*
X175874674Y-100984538D01*
X175875983Y-100980831D01*
X175907791Y-100896669D01*
X175947685Y-100798770D01*
X175987353Y-100707565D01*
X176055420Y-100557593D01*
X175828639Y-100225501D01*
X175812688Y-100202111D01*
X175744890Y-100101920D01*
X175685208Y-100012520D01*
X175637156Y-99939255D01*
X175604250Y-99887473D01*
X175590004Y-99862520D01*
X175593270Y-99845423D01*
X175618571Y-99806605D01*
X175668675Y-99746615D01*
X175744989Y-99663790D01*
X175848922Y-99556465D01*
X175858382Y-99546861D01*
X175943145Y-99461698D01*
X176019937Y-99386051D01*
X176083947Y-99324551D01*
X176130361Y-99281827D01*
X176154369Y-99262511D01*
X176154485Y-99262448D01*
X176172763Y-99259994D01*
X176202411Y-99269044D01*
X176247486Y-99291881D01*
X176312044Y-99330787D01*
X176400140Y-99388046D01*
X176515830Y-99465941D01*
X176535357Y-99479215D01*
X176634278Y-99546348D01*
X176721848Y-99605590D01*
X176792831Y-99653412D01*
X176841991Y-99686285D01*
X176864095Y-99700682D01*
X176868777Y-99701768D01*
X176903710Y-99694956D01*
X176960753Y-99674550D01*
X177030172Y-99643877D01*
X177120959Y-99602192D01*
X177228686Y-99555648D01*
X177326192Y-99516123D01*
X177351430Y-99506324D01*
X177415870Y-99480660D01*
X177460763Y-99461807D01*
X177477616Y-99453290D01*
X177478875Y-99443889D01*
X177486159Y-99401637D01*
X177498739Y-99332479D01*
X177515246Y-99243613D01*
X177534312Y-99142232D01*
X177554569Y-99035533D01*
X177574647Y-98930712D01*
X177593179Y-98834964D01*
X177608795Y-98755484D01*
X177620127Y-98699470D01*
X177625807Y-98674115D01*
X177627408Y-98669912D01*
X177636045Y-98659666D01*
X177654433Y-98652043D01*
X177687460Y-98646662D01*
X177740013Y-98643141D01*
X177816979Y-98641099D01*
X177923246Y-98640153D01*
X178063701Y-98639923D01*
X178490845Y-98639923D01*
X178511091Y-98742500D01*
G36*
X182127738Y-99626697D02*
G01*
X182109787Y-99673754D01*
X182092511Y-99708985D01*
X182070242Y-99731983D01*
X182036165Y-99745345D01*
X181983463Y-99751672D01*
X181905323Y-99753563D01*
X181794928Y-99753615D01*
X181706935Y-99753883D01*
X181622502Y-99755479D01*
X181564834Y-99759288D01*
X181526988Y-99766180D01*
X181502024Y-99777025D01*
X181483000Y-99792692D01*
X181456153Y-99831208D01*
X181446034Y-99895909D01*
X181471606Y-99959919D01*
X181474880Y-99964144D01*
X181490007Y-99977311D01*
X181514268Y-99987025D01*
X181553650Y-99994097D01*
X181614141Y-99999344D01*
X181701729Y-100003579D01*
X181822402Y-100007615D01*
X182145515Y-100017385D01*
X182071065Y-100183461D01*
X181776062Y-100183461D01*
X181695919Y-100183117D01*
X181584431Y-100180153D01*
X181501421Y-100172649D01*
X181440199Y-100158810D01*
X181394075Y-100136845D01*
X181356358Y-100104961D01*
X181320358Y-100061367D01*
X181284089Y-99998664D01*
X181260412Y-99899883D01*
X181270684Y-99800628D01*
X181313569Y-99709371D01*
X181387729Y-99634584D01*
X181410944Y-99619083D01*
X181437256Y-99606226D01*
X181470420Y-99597107D01*
X181516881Y-99590898D01*
X181583082Y-99586767D01*
X181675468Y-99583884D01*
X181800485Y-99581421D01*
X182147278Y-99575303D01*
X182127738Y-99626697D01*
G37*
X182127738Y-99626697D02*
X182109787Y-99673754D01*
X182092511Y-99708985D01*
X182070242Y-99731983D01*
X182036165Y-99745345D01*
X181983463Y-99751672D01*
X181905323Y-99753563D01*
X181794928Y-99753615D01*
X181706935Y-99753883D01*
X181622502Y-99755479D01*
X181564834Y-99759288D01*
X181526988Y-99766180D01*
X181502024Y-99777025D01*
X181483000Y-99792692D01*
X181456153Y-99831208D01*
X181446034Y-99895909D01*
X181471606Y-99959919D01*
X181474880Y-99964144D01*
X181490007Y-99977311D01*
X181514268Y-99987025D01*
X181553650Y-99994097D01*
X181614141Y-99999344D01*
X181701729Y-100003579D01*
X181822402Y-100007615D01*
X182145515Y-100017385D01*
X182071065Y-100183461D01*
X181776062Y-100183461D01*
X181695919Y-100183117D01*
X181584431Y-100180153D01*
X181501421Y-100172649D01*
X181440199Y-100158810D01*
X181394075Y-100136845D01*
X181356358Y-100104961D01*
X181320358Y-100061367D01*
X181284089Y-99998664D01*
X181260412Y-99899883D01*
X181270684Y-99800628D01*
X181313569Y-99709371D01*
X181387729Y-99634584D01*
X181410944Y-99619083D01*
X181437256Y-99606226D01*
X181470420Y-99597107D01*
X181516881Y-99590898D01*
X181583082Y-99586767D01*
X181675468Y-99583884D01*
X181800485Y-99581421D01*
X182147278Y-99575303D01*
X182127738Y-99626697D01*
G36*
X181630518Y-101496809D02*
G01*
X181603837Y-101540300D01*
X181548446Y-101574574D01*
X181537024Y-101578093D01*
X181478838Y-101615972D01*
X181447407Y-101673064D01*
X181446058Y-101738617D01*
X181478116Y-101801883D01*
X181486383Y-101811328D01*
X181522311Y-101842913D01*
X181553635Y-101848129D01*
X181584391Y-101824235D01*
X181618617Y-101768490D01*
X181660350Y-101678154D01*
X181662993Y-101672044D01*
X181709755Y-101571759D01*
X181751181Y-101503265D01*
X181792542Y-101461101D01*
X181839111Y-101439807D01*
X181896160Y-101433923D01*
X181959408Y-101441634D01*
X182040364Y-101480570D01*
X182098522Y-101549068D01*
X182115983Y-101598612D01*
X182125537Y-101668531D01*
X182123496Y-101736425D01*
X182109082Y-101784907D01*
X182105493Y-101790057D01*
X182080416Y-101803733D01*
X182036218Y-101794243D01*
X182001527Y-101777754D01*
X181987084Y-101751313D01*
X181987803Y-101701166D01*
X181983660Y-101631547D01*
X181955054Y-101586057D01*
X181902104Y-101570692D01*
X181900582Y-101570706D01*
X181869845Y-101580017D01*
X181841643Y-101611689D01*
X181809136Y-101673269D01*
X181769998Y-101757014D01*
X181748706Y-101812482D01*
X181750079Y-101844503D01*
X181778203Y-101859466D01*
X181837170Y-101863758D01*
X181931068Y-101863769D01*
X181989031Y-101864248D01*
X182060612Y-101866444D01*
X182109606Y-101870014D01*
X182127769Y-101874509D01*
X182127646Y-101875710D01*
X182117802Y-101901681D01*
X182097028Y-101944695D01*
X182066287Y-102004141D01*
X181789298Y-101997077D01*
X181770928Y-101996586D01*
X181641992Y-101990975D01*
X181544814Y-101981062D01*
X181472925Y-101964825D01*
X181419852Y-101940241D01*
X181379127Y-101905285D01*
X181344279Y-101857936D01*
X181343733Y-101857060D01*
X181315303Y-101780501D01*
X181310500Y-101691956D01*
X181328228Y-101606542D01*
X181367389Y-101539378D01*
X181397902Y-101509831D01*
X181489110Y-101453052D01*
X181588548Y-101433923D01*
X181656960Y-101433923D01*
X181630518Y-101496809D01*
G37*
X181630518Y-101496809D02*
X181603837Y-101540300D01*
X181548446Y-101574574D01*
X181537024Y-101578093D01*
X181478838Y-101615972D01*
X181447407Y-101673064D01*
X181446058Y-101738617D01*
X181478116Y-101801883D01*
X181486383Y-101811328D01*
X181522311Y-101842913D01*
X181553635Y-101848129D01*
X181584391Y-101824235D01*
X181618617Y-101768490D01*
X181660350Y-101678154D01*
X181662993Y-101672044D01*
X181709755Y-101571759D01*
X181751181Y-101503265D01*
X181792542Y-101461101D01*
X181839111Y-101439807D01*
X181896160Y-101433923D01*
X181959408Y-101441634D01*
X182040364Y-101480570D01*
X182098522Y-101549068D01*
X182115983Y-101598612D01*
X182125537Y-101668531D01*
X182123496Y-101736425D01*
X182109082Y-101784907D01*
X182105493Y-101790057D01*
X182080416Y-101803733D01*
X182036218Y-101794243D01*
X182001527Y-101777754D01*
X181987084Y-101751313D01*
X181987803Y-101701166D01*
X181983660Y-101631547D01*
X181955054Y-101586057D01*
X181902104Y-101570692D01*
X181900582Y-101570706D01*
X181869845Y-101580017D01*
X181841643Y-101611689D01*
X181809136Y-101673269D01*
X181769998Y-101757014D01*
X181748706Y-101812482D01*
X181750079Y-101844503D01*
X181778203Y-101859466D01*
X181837170Y-101863758D01*
X181931068Y-101863769D01*
X181989031Y-101864248D01*
X182060612Y-101866444D01*
X182109606Y-101870014D01*
X182127769Y-101874509D01*
X182127646Y-101875710D01*
X182117802Y-101901681D01*
X182097028Y-101944695D01*
X182066287Y-102004141D01*
X181789298Y-101997077D01*
X181770928Y-101996586D01*
X181641992Y-101990975D01*
X181544814Y-101981062D01*
X181472925Y-101964825D01*
X181419852Y-101940241D01*
X181379127Y-101905285D01*
X181344279Y-101857936D01*
X181343733Y-101857060D01*
X181315303Y-101780501D01*
X181310500Y-101691956D01*
X181328228Y-101606542D01*
X181367389Y-101539378D01*
X181397902Y-101509831D01*
X181489110Y-101453052D01*
X181588548Y-101433923D01*
X181656960Y-101433923D01*
X181630518Y-101496809D01*
G36*
X181744094Y-100750340D02*
G01*
X181868805Y-100751042D01*
X181974557Y-100752117D01*
X182056322Y-100753500D01*
X182109069Y-100755126D01*
X182127769Y-100756930D01*
X182127706Y-100757636D01*
X182120912Y-100781613D01*
X182106320Y-100825315D01*
X182084870Y-100886846D01*
X181809617Y-100886846D01*
X181701466Y-100887237D01*
X181623026Y-100889054D01*
X181569647Y-100893233D01*
X181534256Y-100900714D01*
X181509779Y-100912433D01*
X181489144Y-100929329D01*
X181478170Y-100940848D01*
X181447775Y-101003136D01*
X181450466Y-101071789D01*
X181486406Y-101134702D01*
X181495325Y-101143861D01*
X181513844Y-101158529D01*
X181538326Y-101168567D01*
X181575393Y-101174849D01*
X181631667Y-101178252D01*
X181713771Y-101179651D01*
X181828329Y-101179923D01*
X181886430Y-101180053D01*
X181981993Y-101180901D01*
X182058526Y-101182406D01*
X182109345Y-101184415D01*
X182127769Y-101186777D01*
X182127706Y-101187482D01*
X182120912Y-101211459D01*
X182106320Y-101255161D01*
X182084870Y-101316692D01*
X181808358Y-101316662D01*
X181783742Y-101316616D01*
X181655419Y-101314030D01*
X181558384Y-101306087D01*
X181486057Y-101290845D01*
X181431855Y-101266364D01*
X181389198Y-101230702D01*
X181351505Y-101181918D01*
X181327910Y-101134339D01*
X181309672Y-101058268D01*
X181308636Y-100983444D01*
X181326378Y-100925923D01*
X181328829Y-100921598D01*
X181328566Y-100908262D01*
X181308039Y-100899149D01*
X181260980Y-100892572D01*
X181181120Y-100886846D01*
X181017236Y-100877077D01*
X181070806Y-100750077D01*
X181605455Y-100750077D01*
X181744094Y-100750340D01*
G37*
X181744094Y-100750340D02*
X181868805Y-100751042D01*
X181974557Y-100752117D01*
X182056322Y-100753500D01*
X182109069Y-100755126D01*
X182127769Y-100756930D01*
X182127706Y-100757636D01*
X182120912Y-100781613D01*
X182106320Y-100825315D01*
X182084870Y-100886846D01*
X181809617Y-100886846D01*
X181701466Y-100887237D01*
X181623026Y-100889054D01*
X181569647Y-100893233D01*
X181534256Y-100900714D01*
X181509779Y-100912433D01*
X181489144Y-100929329D01*
X181478170Y-100940848D01*
X181447775Y-101003136D01*
X181450466Y-101071789D01*
X181486406Y-101134702D01*
X181495325Y-101143861D01*
X181513844Y-101158529D01*
X181538326Y-101168567D01*
X181575393Y-101174849D01*
X181631667Y-101178252D01*
X181713771Y-101179651D01*
X181828329Y-101179923D01*
X181886430Y-101180053D01*
X181981993Y-101180901D01*
X182058526Y-101182406D01*
X182109345Y-101184415D01*
X182127769Y-101186777D01*
X182127706Y-101187482D01*
X182120912Y-101211459D01*
X182106320Y-101255161D01*
X182084870Y-101316692D01*
X181808358Y-101316662D01*
X181783742Y-101316616D01*
X181655419Y-101314030D01*
X181558384Y-101306087D01*
X181486057Y-101290845D01*
X181431855Y-101266364D01*
X181389198Y-101230702D01*
X181351505Y-101181918D01*
X181327910Y-101134339D01*
X181309672Y-101058268D01*
X181308636Y-100983444D01*
X181326378Y-100925923D01*
X181328829Y-100921598D01*
X181328566Y-100908262D01*
X181308039Y-100899149D01*
X181260980Y-100892572D01*
X181181120Y-100886846D01*
X181017236Y-100877077D01*
X181070806Y-100750077D01*
X181605455Y-100750077D01*
X181744094Y-100750340D01*
G36*
X181793652Y-102764161D02*
G01*
X181897507Y-102775190D01*
X181975333Y-102799186D01*
X182034760Y-102838957D01*
X182083418Y-102897312D01*
X182111546Y-102952900D01*
X182127199Y-103046249D01*
X182110084Y-103139470D01*
X182062388Y-103223728D01*
X181986294Y-103290182D01*
X181972262Y-103298207D01*
X181947679Y-103308804D01*
X181916309Y-103316665D01*
X181872769Y-103322193D01*
X181811678Y-103325794D01*
X181727655Y-103327872D01*
X181615320Y-103328833D01*
X181469289Y-103329081D01*
X181015963Y-103329154D01*
X181042564Y-103265654D01*
X181049845Y-103248864D01*
X181066287Y-103222141D01*
X181091187Y-103206844D01*
X181134732Y-103198437D01*
X181207106Y-103192385D01*
X181272089Y-103186856D01*
X181314750Y-103179550D01*
X181330670Y-103169082D01*
X181326400Y-103153308D01*
X181311397Y-103113110D01*
X181307678Y-103041272D01*
X181311089Y-103022301D01*
X181447057Y-103022301D01*
X181451575Y-103090600D01*
X181489144Y-103149902D01*
X181504040Y-103162667D01*
X181532089Y-103178236D01*
X181571258Y-103187238D01*
X181630858Y-103191383D01*
X181720200Y-103192385D01*
X181791316Y-103191923D01*
X181855641Y-103189001D01*
X181897166Y-103181779D01*
X181925067Y-103168439D01*
X181948517Y-103147164D01*
X181953025Y-103142179D01*
X181986295Y-103078137D01*
X181982890Y-103010375D01*
X181943042Y-102947266D01*
X181922398Y-102928474D01*
X181895029Y-102912746D01*
X181857192Y-102903961D01*
X181799355Y-102900141D01*
X181711986Y-102899308D01*
X181645319Y-102899719D01*
X181580245Y-102902566D01*
X181538251Y-102909744D01*
X181510063Y-102923111D01*
X181486406Y-102944528D01*
X181475753Y-102957110D01*
X181447057Y-103022301D01*
X181311089Y-103022301D01*
X181321572Y-102963990D01*
X181351505Y-102897312D01*
X181379211Y-102860629D01*
X181433269Y-102813528D01*
X181502577Y-102783362D01*
X181594765Y-102767322D01*
X181711986Y-102762809D01*
X181717462Y-102762599D01*
X181793652Y-102764161D01*
G37*
X181793652Y-102764161D02*
X181897507Y-102775190D01*
X181975333Y-102799186D01*
X182034760Y-102838957D01*
X182083418Y-102897312D01*
X182111546Y-102952900D01*
X182127199Y-103046249D01*
X182110084Y-103139470D01*
X182062388Y-103223728D01*
X181986294Y-103290182D01*
X181972262Y-103298207D01*
X181947679Y-103308804D01*
X181916309Y-103316665D01*
X181872769Y-103322193D01*
X181811678Y-103325794D01*
X181727655Y-103327872D01*
X181615320Y-103328833D01*
X181469289Y-103329081D01*
X181015963Y-103329154D01*
X181042564Y-103265654D01*
X181049845Y-103248864D01*
X181066287Y-103222141D01*
X181091187Y-103206844D01*
X181134732Y-103198437D01*
X181207106Y-103192385D01*
X181272089Y-103186856D01*
X181314750Y-103179550D01*
X181330670Y-103169082D01*
X181326400Y-103153308D01*
X181311397Y-103113110D01*
X181307678Y-103041272D01*
X181311089Y-103022301D01*
X181447057Y-103022301D01*
X181451575Y-103090600D01*
X181489144Y-103149902D01*
X181504040Y-103162667D01*
X181532089Y-103178236D01*
X181571258Y-103187238D01*
X181630858Y-103191383D01*
X181720200Y-103192385D01*
X181791316Y-103191923D01*
X181855641Y-103189001D01*
X181897166Y-103181779D01*
X181925067Y-103168439D01*
X181948517Y-103147164D01*
X181953025Y-103142179D01*
X181986295Y-103078137D01*
X181982890Y-103010375D01*
X181943042Y-102947266D01*
X181922398Y-102928474D01*
X181895029Y-102912746D01*
X181857192Y-102903961D01*
X181799355Y-102900141D01*
X181711986Y-102899308D01*
X181645319Y-102899719D01*
X181580245Y-102902566D01*
X181538251Y-102909744D01*
X181510063Y-102923111D01*
X181486406Y-102944528D01*
X181475753Y-102957110D01*
X181447057Y-103022301D01*
X181311089Y-103022301D01*
X181321572Y-102963990D01*
X181351505Y-102897312D01*
X181379211Y-102860629D01*
X181433269Y-102813528D01*
X181502577Y-102783362D01*
X181594765Y-102767322D01*
X181711986Y-102762809D01*
X181717462Y-102762599D01*
X181793652Y-102764161D01*
G36*
X181719105Y-97330865D02*
G01*
X181813584Y-97331924D01*
X181879414Y-97335564D01*
X181925394Y-97343108D01*
X181960321Y-97355878D01*
X181992995Y-97375197D01*
X181999775Y-97379950D01*
X182053231Y-97430241D01*
X182093547Y-97487543D01*
X182106629Y-97516968D01*
X182128450Y-97622701D01*
X182114336Y-97727266D01*
X182066105Y-97823632D01*
X181985579Y-97904765D01*
X181974791Y-97911615D01*
X181912153Y-97933903D01*
X181824935Y-97948921D01*
X181724210Y-97956208D01*
X181621052Y-97955301D01*
X181526533Y-97945738D01*
X181451727Y-97927057D01*
X181401905Y-97903049D01*
X181324409Y-97835464D01*
X181276256Y-97743886D01*
X181260727Y-97638720D01*
X181443923Y-97638720D01*
X181445432Y-97656984D01*
X181473107Y-97708152D01*
X181535172Y-97741965D01*
X181631037Y-97758204D01*
X181760114Y-97756651D01*
X181768420Y-97756026D01*
X181839643Y-97746923D01*
X181884809Y-97730712D01*
X181915752Y-97703340D01*
X181944737Y-97657447D01*
X181946261Y-97612058D01*
X181912846Y-97565308D01*
X181904053Y-97557176D01*
X181877741Y-97541246D01*
X181839520Y-97531841D01*
X181780349Y-97527368D01*
X181691182Y-97526231D01*
X181607664Y-97528178D01*
X181528095Y-97537895D01*
X181477808Y-97557953D01*
X181451513Y-97590760D01*
X181443923Y-97638720D01*
X181260727Y-97638720D01*
X181259703Y-97631787D01*
X181260599Y-97601849D01*
X181278929Y-97513685D01*
X181325104Y-97441267D01*
X181404648Y-97374808D01*
X181410548Y-97370853D01*
X181442288Y-97352960D01*
X181478163Y-97341322D01*
X181526906Y-97334629D01*
X181597249Y-97331574D01*
X181691182Y-97330894D01*
X181697923Y-97330846D01*
X181719105Y-97330865D01*
G37*
X181719105Y-97330865D02*
X181813584Y-97331924D01*
X181879414Y-97335564D01*
X181925394Y-97343108D01*
X181960321Y-97355878D01*
X181992995Y-97375197D01*
X181999775Y-97379950D01*
X182053231Y-97430241D01*
X182093547Y-97487543D01*
X182106629Y-97516968D01*
X182128450Y-97622701D01*
X182114336Y-97727266D01*
X182066105Y-97823632D01*
X181985579Y-97904765D01*
X181974791Y-97911615D01*
X181912153Y-97933903D01*
X181824935Y-97948921D01*
X181724210Y-97956208D01*
X181621052Y-97955301D01*
X181526533Y-97945738D01*
X181451727Y-97927057D01*
X181401905Y-97903049D01*
X181324409Y-97835464D01*
X181276256Y-97743886D01*
X181260727Y-97638720D01*
X181443923Y-97638720D01*
X181445432Y-97656984D01*
X181473107Y-97708152D01*
X181535172Y-97741965D01*
X181631037Y-97758204D01*
X181760114Y-97756651D01*
X181768420Y-97756026D01*
X181839643Y-97746923D01*
X181884809Y-97730712D01*
X181915752Y-97703340D01*
X181944737Y-97657447D01*
X181946261Y-97612058D01*
X181912846Y-97565308D01*
X181904053Y-97557176D01*
X181877741Y-97541246D01*
X181839520Y-97531841D01*
X181780349Y-97527368D01*
X181691182Y-97526231D01*
X181607664Y-97528178D01*
X181528095Y-97537895D01*
X181477808Y-97557953D01*
X181451513Y-97590760D01*
X181443923Y-97638720D01*
X181260727Y-97638720D01*
X181259703Y-97631787D01*
X181260599Y-97601849D01*
X181278929Y-97513685D01*
X181325104Y-97441267D01*
X181404648Y-97374808D01*
X181410548Y-97370853D01*
X181442288Y-97352960D01*
X181478163Y-97341322D01*
X181526906Y-97334629D01*
X181597249Y-97331574D01*
X181691182Y-97330894D01*
X181697923Y-97330846D01*
X181719105Y-97330865D01*
G36*
X181937269Y-98077237D02*
G01*
X181980802Y-98076700D01*
X182126344Y-98074981D01*
X182237711Y-98074635D01*
X182318804Y-98076723D01*
X182373522Y-98082302D01*
X182405761Y-98092433D01*
X182419422Y-98108174D01*
X182418403Y-98130583D01*
X182406603Y-98160720D01*
X182387920Y-98199645D01*
X182383933Y-98207962D01*
X182364419Y-98242598D01*
X182341202Y-98260686D01*
X182302492Y-98267608D01*
X182236497Y-98268744D01*
X182118000Y-98268795D01*
X182118000Y-98390859D01*
X182114712Y-98465945D01*
X182101377Y-98524985D01*
X182074423Y-98574014D01*
X182071788Y-98577670D01*
X182027286Y-98627419D01*
X181973523Y-98662041D01*
X181903154Y-98683877D01*
X181808830Y-98695263D01*
X181683206Y-98698538D01*
X181591536Y-98697813D01*
X181522098Y-98694510D01*
X181473945Y-98687172D01*
X181437866Y-98674345D01*
X181404648Y-98654577D01*
X181379261Y-98636431D01*
X181310727Y-98570539D01*
X181273505Y-98495886D01*
X181261722Y-98402096D01*
X181262544Y-98394584D01*
X181443923Y-98394584D01*
X181446050Y-98417683D01*
X181467147Y-98457650D01*
X181514161Y-98484074D01*
X181591175Y-98498670D01*
X181702271Y-98503154D01*
X181720131Y-98503120D01*
X181800748Y-98501265D01*
X181853447Y-98495307D01*
X181887668Y-98483494D01*
X181912846Y-98464077D01*
X181914049Y-98462867D01*
X181946628Y-98415142D01*
X181943417Y-98368890D01*
X181903965Y-98316650D01*
X181890482Y-98303872D01*
X181862837Y-98285051D01*
X181826880Y-98274438D01*
X181772364Y-98269748D01*
X181689042Y-98268692D01*
X181638598Y-98269606D01*
X181546857Y-98279523D01*
X181486752Y-98302158D01*
X181453900Y-98339762D01*
X181443923Y-98394584D01*
X181262544Y-98394584D01*
X181273467Y-98294760D01*
X181315595Y-98201969D01*
X181389898Y-98128579D01*
X181397764Y-98123046D01*
X181418668Y-98110143D01*
X181442555Y-98100258D01*
X181474582Y-98092907D01*
X181519905Y-98087606D01*
X181583679Y-98083873D01*
X181671060Y-98081222D01*
X181689042Y-98080904D01*
X181787205Y-98079172D01*
X181937269Y-98077237D01*
G37*
X181937269Y-98077237D02*
X181980802Y-98076700D01*
X182126344Y-98074981D01*
X182237711Y-98074635D01*
X182318804Y-98076723D01*
X182373522Y-98082302D01*
X182405761Y-98092433D01*
X182419422Y-98108174D01*
X182418403Y-98130583D01*
X182406603Y-98160720D01*
X182387920Y-98199645D01*
X182383933Y-98207962D01*
X182364419Y-98242598D01*
X182341202Y-98260686D01*
X182302492Y-98267608D01*
X182236497Y-98268744D01*
X182118000Y-98268795D01*
X182118000Y-98390859D01*
X182114712Y-98465945D01*
X182101377Y-98524985D01*
X182074423Y-98574014D01*
X182071788Y-98577670D01*
X182027286Y-98627419D01*
X181973523Y-98662041D01*
X181903154Y-98683877D01*
X181808830Y-98695263D01*
X181683206Y-98698538D01*
X181591536Y-98697813D01*
X181522098Y-98694510D01*
X181473945Y-98687172D01*
X181437866Y-98674345D01*
X181404648Y-98654577D01*
X181379261Y-98636431D01*
X181310727Y-98570539D01*
X181273505Y-98495886D01*
X181261722Y-98402096D01*
X181262544Y-98394584D01*
X181443923Y-98394584D01*
X181446050Y-98417683D01*
X181467147Y-98457650D01*
X181514161Y-98484074D01*
X181591175Y-98498670D01*
X181702271Y-98503154D01*
X181720131Y-98503120D01*
X181800748Y-98501265D01*
X181853447Y-98495307D01*
X181887668Y-98483494D01*
X181912846Y-98464077D01*
X181914049Y-98462867D01*
X181946628Y-98415142D01*
X181943417Y-98368890D01*
X181903965Y-98316650D01*
X181890482Y-98303872D01*
X181862837Y-98285051D01*
X181826880Y-98274438D01*
X181772364Y-98269748D01*
X181689042Y-98268692D01*
X181638598Y-98269606D01*
X181546857Y-98279523D01*
X181486752Y-98302158D01*
X181453900Y-98339762D01*
X181443923Y-98394584D01*
X181262544Y-98394584D01*
X181273467Y-98294760D01*
X181315595Y-98201969D01*
X181389898Y-98128579D01*
X181397764Y-98123046D01*
X181418668Y-98110143D01*
X181442555Y-98100258D01*
X181474582Y-98092907D01*
X181519905Y-98087606D01*
X181583679Y-98083873D01*
X181671060Y-98081222D01*
X181689042Y-98080904D01*
X181787205Y-98079172D01*
X181937269Y-98077237D01*
G36*
X182054296Y-102101239D02*
G01*
X182109507Y-102106395D01*
X182127769Y-102114842D01*
X182122301Y-102140406D01*
X182105733Y-102183834D01*
X182100888Y-102194060D01*
X182089920Y-102210033D01*
X182071890Y-102221046D01*
X182040396Y-102228250D01*
X181989036Y-102232792D01*
X181911410Y-102235820D01*
X181801115Y-102238484D01*
X181768875Y-102239215D01*
X181667050Y-102242035D01*
X181595788Y-102245696D01*
X181548332Y-102251306D01*
X181517925Y-102259971D01*
X181497810Y-102272798D01*
X181481229Y-102290895D01*
X181452161Y-102344475D01*
X181446564Y-102410388D01*
X181468807Y-102469365D01*
X181514859Y-102511797D01*
X181580692Y-102528077D01*
X181598587Y-102528530D01*
X181630982Y-102537422D01*
X181635925Y-102563675D01*
X181616633Y-102615081D01*
X181610446Y-102626987D01*
X181574058Y-102659165D01*
X181519954Y-102659802D01*
X181445128Y-102629144D01*
X181404350Y-102601022D01*
X181346421Y-102529117D01*
X181313670Y-102440362D01*
X181309212Y-102345458D01*
X181336167Y-102255108D01*
X181339581Y-102248940D01*
X181378692Y-102198553D01*
X181428975Y-102153502D01*
X181440339Y-102145645D01*
X181466860Y-102130624D01*
X181498336Y-102119893D01*
X181541591Y-102112514D01*
X181603449Y-102107548D01*
X181690733Y-102104058D01*
X181810269Y-102101107D01*
X181830478Y-102100689D01*
X181961499Y-102099346D01*
X182054296Y-102101239D01*
G37*
X182054296Y-102101239D02*
X182109507Y-102106395D01*
X182127769Y-102114842D01*
X182122301Y-102140406D01*
X182105733Y-102183834D01*
X182100888Y-102194060D01*
X182089920Y-102210033D01*
X182071890Y-102221046D01*
X182040396Y-102228250D01*
X181989036Y-102232792D01*
X181911410Y-102235820D01*
X181801115Y-102238484D01*
X181768875Y-102239215D01*
X181667050Y-102242035D01*
X181595788Y-102245696D01*
X181548332Y-102251306D01*
X181517925Y-102259971D01*
X181497810Y-102272798D01*
X181481229Y-102290895D01*
X181452161Y-102344475D01*
X181446564Y-102410388D01*
X181468807Y-102469365D01*
X181514859Y-102511797D01*
X181580692Y-102528077D01*
X181598587Y-102528530D01*
X181630982Y-102537422D01*
X181635925Y-102563675D01*
X181616633Y-102615081D01*
X181610446Y-102626987D01*
X181574058Y-102659165D01*
X181519954Y-102659802D01*
X181445128Y-102629144D01*
X181404350Y-102601022D01*
X181346421Y-102529117D01*
X181313670Y-102440362D01*
X181309212Y-102345458D01*
X181336167Y-102255108D01*
X181339581Y-102248940D01*
X181378692Y-102198553D01*
X181428975Y-102153502D01*
X181440339Y-102145645D01*
X181466860Y-102130624D01*
X181498336Y-102119893D01*
X181541591Y-102112514D01*
X181603449Y-102107548D01*
X181690733Y-102104058D01*
X181810269Y-102101107D01*
X181830478Y-102100689D01*
X181961499Y-102099346D01*
X182054296Y-102101239D01*
G36*
X182069363Y-103508215D02*
G01*
X182083228Y-103522338D01*
X182114046Y-103561464D01*
X182124028Y-103600922D01*
X182119433Y-103659638D01*
X182116462Y-103683544D01*
X182110176Y-103745199D01*
X182107672Y-103788308D01*
X182108055Y-103801095D01*
X182112200Y-103853554D01*
X182119433Y-103916978D01*
X182121918Y-103937270D01*
X182122895Y-103988390D01*
X182107462Y-104025793D01*
X182069363Y-104068401D01*
X182007533Y-104130231D01*
X181657343Y-104130231D01*
X181553857Y-104129749D01*
X181455192Y-104128247D01*
X181377068Y-104125911D01*
X181325662Y-104122929D01*
X181307154Y-104119491D01*
X181307204Y-104118770D01*
X181316413Y-104093797D01*
X181336707Y-104051601D01*
X181366261Y-103994451D01*
X181673746Y-103989072D01*
X181981231Y-103983692D01*
X181981231Y-103866461D01*
X181644192Y-103861115D01*
X181552574Y-103859421D01*
X181454649Y-103856995D01*
X181376906Y-103854366D01*
X181325642Y-103851754D01*
X181307154Y-103849377D01*
X181307219Y-103848694D01*
X181314020Y-103825004D01*
X181328604Y-103781454D01*
X181350054Y-103719923D01*
X181646104Y-103719624D01*
X181697532Y-103719324D01*
X181797466Y-103717246D01*
X181880925Y-103713530D01*
X181940377Y-103708570D01*
X181968287Y-103702760D01*
X181983214Y-103681976D01*
X181987825Y-103639560D01*
X181981231Y-103592923D01*
X181644192Y-103587577D01*
X181558546Y-103585664D01*
X181457172Y-103581697D01*
X181377655Y-103576509D01*
X181325736Y-103570501D01*
X181307154Y-103564073D01*
X181313034Y-103539002D01*
X181329829Y-103496150D01*
X181352503Y-103446385D01*
X182007533Y-103446385D01*
X182069363Y-103508215D01*
G37*
X182069363Y-103508215D02*
X182083228Y-103522338D01*
X182114046Y-103561464D01*
X182124028Y-103600922D01*
X182119433Y-103659638D01*
X182116462Y-103683544D01*
X182110176Y-103745199D01*
X182107672Y-103788308D01*
X182108055Y-103801095D01*
X182112200Y-103853554D01*
X182119433Y-103916978D01*
X182121918Y-103937270D01*
X182122895Y-103988390D01*
X182107462Y-104025793D01*
X182069363Y-104068401D01*
X182007533Y-104130231D01*
X181657343Y-104130231D01*
X181553857Y-104129749D01*
X181455192Y-104128247D01*
X181377068Y-104125911D01*
X181325662Y-104122929D01*
X181307154Y-104119491D01*
X181307204Y-104118770D01*
X181316413Y-104093797D01*
X181336707Y-104051601D01*
X181366261Y-103994451D01*
X181673746Y-103989072D01*
X181981231Y-103983692D01*
X181981231Y-103866461D01*
X181644192Y-103861115D01*
X181552574Y-103859421D01*
X181454649Y-103856995D01*
X181376906Y-103854366D01*
X181325642Y-103851754D01*
X181307154Y-103849377D01*
X181307219Y-103848694D01*
X181314020Y-103825004D01*
X181328604Y-103781454D01*
X181350054Y-103719923D01*
X181646104Y-103719624D01*
X181697532Y-103719324D01*
X181797466Y-103717246D01*
X181880925Y-103713530D01*
X181940377Y-103708570D01*
X181968287Y-103702760D01*
X181983214Y-103681976D01*
X181987825Y-103639560D01*
X181981231Y-103592923D01*
X181644192Y-103587577D01*
X181558546Y-103585664D01*
X181457172Y-103581697D01*
X181377655Y-103576509D01*
X181325736Y-103570501D01*
X181307154Y-103564073D01*
X181313034Y-103539002D01*
X181329829Y-103496150D01*
X181352503Y-103446385D01*
X182007533Y-103446385D01*
X182069363Y-103508215D01*
G36*
X181884805Y-104911997D02*
G01*
X181981308Y-104913140D01*
X182058323Y-104915081D01*
X182109319Y-104917635D01*
X182127769Y-104920619D01*
X182121667Y-104940038D01*
X182105095Y-104979234D01*
X182104558Y-104980411D01*
X182093903Y-105000765D01*
X182079282Y-105014454D01*
X182053673Y-105022801D01*
X182010054Y-105027126D01*
X181941403Y-105028752D01*
X181840698Y-105029000D01*
X181776813Y-105029500D01*
X181656751Y-105034836D01*
X181568809Y-105047055D01*
X181508375Y-105067448D01*
X181470836Y-105097305D01*
X181451581Y-105137918D01*
X181450239Y-105143552D01*
X181449191Y-105219622D01*
X181483271Y-105278948D01*
X181551598Y-105319923D01*
X181571351Y-105327230D01*
X181615066Y-105343886D01*
X181635155Y-105352321D01*
X181632387Y-105369644D01*
X181617365Y-105407475D01*
X181592556Y-105442760D01*
X181545670Y-105458846D01*
X181512087Y-105454048D01*
X181443967Y-105424569D01*
X181380134Y-105376902D01*
X181335988Y-105321161D01*
X181325782Y-105297807D01*
X181308718Y-105209381D01*
X181315476Y-105115499D01*
X181345440Y-105034833D01*
X181367954Y-105001286D01*
X181400212Y-104967313D01*
X181441246Y-104943081D01*
X181497108Y-104926999D01*
X181573851Y-104917479D01*
X181677525Y-104912932D01*
X181814184Y-104911769D01*
X181884805Y-104911997D01*
G37*
X181884805Y-104911997D02*
X181981308Y-104913140D01*
X182058323Y-104915081D01*
X182109319Y-104917635D01*
X182127769Y-104920619D01*
X182121667Y-104940038D01*
X182105095Y-104979234D01*
X182104558Y-104980411D01*
X182093903Y-105000765D01*
X182079282Y-105014454D01*
X182053673Y-105022801D01*
X182010054Y-105027126D01*
X181941403Y-105028752D01*
X181840698Y-105029000D01*
X181776813Y-105029500D01*
X181656751Y-105034836D01*
X181568809Y-105047055D01*
X181508375Y-105067448D01*
X181470836Y-105097305D01*
X181451581Y-105137918D01*
X181450239Y-105143552D01*
X181449191Y-105219622D01*
X181483271Y-105278948D01*
X181551598Y-105319923D01*
X181571351Y-105327230D01*
X181615066Y-105343886D01*
X181635155Y-105352321D01*
X181632387Y-105369644D01*
X181617365Y-105407475D01*
X181592556Y-105442760D01*
X181545670Y-105458846D01*
X181512087Y-105454048D01*
X181443967Y-105424569D01*
X181380134Y-105376902D01*
X181335988Y-105321161D01*
X181325782Y-105297807D01*
X181308718Y-105209381D01*
X181315476Y-105115499D01*
X181345440Y-105034833D01*
X181367954Y-105001286D01*
X181400212Y-104967313D01*
X181441246Y-104943081D01*
X181497108Y-104926999D01*
X181573851Y-104917479D01*
X181677525Y-104912932D01*
X181814184Y-104911769D01*
X181884805Y-104911997D01*
G36*
X181790643Y-98822426D02*
G01*
X181822021Y-98825934D01*
X181933705Y-98852073D01*
X182018642Y-98899306D01*
X182083741Y-98971138D01*
X182086428Y-98975198D01*
X182124634Y-99066513D01*
X182128034Y-99161856D01*
X182098939Y-99253726D01*
X182039660Y-99334621D01*
X181952510Y-99397038D01*
X181950409Y-99398086D01*
X181896289Y-99418827D01*
X181834781Y-99434020D01*
X181777039Y-99442079D01*
X181734215Y-99441418D01*
X181717462Y-99430452D01*
X181718480Y-99420710D01*
X181737009Y-99374123D01*
X181771081Y-99321318D01*
X181810522Y-99276397D01*
X181845155Y-99253465D01*
X181892133Y-99229627D01*
X181934862Y-99180770D01*
X181951923Y-99124037D01*
X181946990Y-99103242D01*
X181922157Y-99062196D01*
X181887685Y-99026443D01*
X181856411Y-99011154D01*
X181856295Y-99011158D01*
X181841933Y-99028505D01*
X181816025Y-99074753D01*
X181782210Y-99142933D01*
X181744129Y-99226077D01*
X181743927Y-99226534D01*
X181703709Y-99316862D01*
X181674733Y-99377408D01*
X181652474Y-99414112D01*
X181632407Y-99432914D01*
X181610009Y-99439754D01*
X181580756Y-99440571D01*
X181510654Y-99433378D01*
X181415412Y-99397816D01*
X181340567Y-99338286D01*
X181288745Y-99261254D01*
X181262573Y-99173185D01*
X181264071Y-99107177D01*
X181445856Y-99107177D01*
X181448406Y-99163819D01*
X181483120Y-99216416D01*
X181507107Y-99237090D01*
X181525363Y-99242000D01*
X181542777Y-99222089D01*
X181568872Y-99172479D01*
X181569610Y-99171024D01*
X181597483Y-99112494D01*
X181619719Y-99060132D01*
X181629126Y-99026914D01*
X181616552Y-99013590D01*
X181573468Y-99011154D01*
X181519847Y-99021276D01*
X181471119Y-99056369D01*
X181445856Y-99107177D01*
X181264071Y-99107177D01*
X181264676Y-99080546D01*
X181297681Y-98989802D01*
X181364215Y-98907421D01*
X181430055Y-98861778D01*
X181524036Y-98828992D01*
X181573468Y-98823661D01*
X181642536Y-98816213D01*
X181790643Y-98822426D01*
G37*
X181790643Y-98822426D02*
X181822021Y-98825934D01*
X181933705Y-98852073D01*
X182018642Y-98899306D01*
X182083741Y-98971138D01*
X182086428Y-98975198D01*
X182124634Y-99066513D01*
X182128034Y-99161856D01*
X182098939Y-99253726D01*
X182039660Y-99334621D01*
X181952510Y-99397038D01*
X181950409Y-99398086D01*
X181896289Y-99418827D01*
X181834781Y-99434020D01*
X181777039Y-99442079D01*
X181734215Y-99441418D01*
X181717462Y-99430452D01*
X181718480Y-99420710D01*
X181737009Y-99374123D01*
X181771081Y-99321318D01*
X181810522Y-99276397D01*
X181845155Y-99253465D01*
X181892133Y-99229627D01*
X181934862Y-99180770D01*
X181951923Y-99124037D01*
X181946990Y-99103242D01*
X181922157Y-99062196D01*
X181887685Y-99026443D01*
X181856411Y-99011154D01*
X181856295Y-99011158D01*
X181841933Y-99028505D01*
X181816025Y-99074753D01*
X181782210Y-99142933D01*
X181744129Y-99226077D01*
X181743927Y-99226534D01*
X181703709Y-99316862D01*
X181674733Y-99377408D01*
X181652474Y-99414112D01*
X181632407Y-99432914D01*
X181610009Y-99439754D01*
X181580756Y-99440571D01*
X181510654Y-99433378D01*
X181415412Y-99397816D01*
X181340567Y-99338286D01*
X181288745Y-99261254D01*
X181262573Y-99173185D01*
X181264071Y-99107177D01*
X181445856Y-99107177D01*
X181448406Y-99163819D01*
X181483120Y-99216416D01*
X181507107Y-99237090D01*
X181525363Y-99242000D01*
X181542777Y-99222089D01*
X181568872Y-99172479D01*
X181569610Y-99171024D01*
X181597483Y-99112494D01*
X181619719Y-99060132D01*
X181629126Y-99026914D01*
X181616552Y-99013590D01*
X181573468Y-99011154D01*
X181519847Y-99021276D01*
X181471119Y-99056369D01*
X181445856Y-99107177D01*
X181264071Y-99107177D01*
X181264676Y-99080546D01*
X181297681Y-98989802D01*
X181364215Y-98907421D01*
X181430055Y-98861778D01*
X181524036Y-98828992D01*
X181573468Y-98823661D01*
X181642536Y-98816213D01*
X181790643Y-98822426D01*
G36*
X181773449Y-105576587D02*
G01*
X181876047Y-105581359D01*
X181951126Y-105593850D01*
X182006748Y-105616879D01*
X182050975Y-105653268D01*
X182091869Y-105705838D01*
X182110466Y-105739286D01*
X182122991Y-105792902D01*
X182122003Y-105868220D01*
X182118035Y-105910328D01*
X182105920Y-105961121D01*
X182079585Y-106001720D01*
X182030514Y-106048951D01*
X182023346Y-106055262D01*
X181968189Y-106097723D01*
X181920150Y-106117982D01*
X181863184Y-106123154D01*
X181779471Y-106123154D01*
X181801552Y-106064654D01*
X181827364Y-106022006D01*
X181887928Y-105984936D01*
X181907320Y-105977197D01*
X181962235Y-105933926D01*
X181989879Y-105875024D01*
X181987393Y-105810889D01*
X181951923Y-105751923D01*
X181929805Y-105731658D01*
X181896436Y-105713280D01*
X181866117Y-105719029D01*
X181834913Y-105752113D01*
X181798887Y-105815739D01*
X181754103Y-105913115D01*
X181666445Y-106113385D01*
X181579607Y-106118699D01*
X181514663Y-106116353D01*
X181432590Y-106086814D01*
X181387361Y-106049528D01*
X181336838Y-105972224D01*
X181311316Y-105880522D01*
X181311490Y-105872360D01*
X181443721Y-105872360D01*
X181474339Y-105942960D01*
X181489648Y-105962526D01*
X181524296Y-105986217D01*
X181558538Y-105976312D01*
X181595096Y-105931244D01*
X181636692Y-105849443D01*
X181642718Y-105835908D01*
X181670753Y-105771182D01*
X181690472Y-105722753D01*
X181697923Y-105700249D01*
X181692438Y-105696839D01*
X181658948Y-105695471D01*
X181605116Y-105700349D01*
X181552473Y-105712636D01*
X181486151Y-105750959D01*
X181448780Y-105806280D01*
X181443721Y-105872360D01*
X181311490Y-105872360D01*
X181313336Y-105785726D01*
X181345440Y-105699141D01*
X181357767Y-105680080D01*
X181395912Y-105636360D01*
X181444167Y-105606460D01*
X181509710Y-105588032D01*
X181599720Y-105578730D01*
X181658948Y-105577501D01*
X181721376Y-105576206D01*
X181773449Y-105576587D01*
G37*
X181773449Y-105576587D02*
X181876047Y-105581359D01*
X181951126Y-105593850D01*
X182006748Y-105616879D01*
X182050975Y-105653268D01*
X182091869Y-105705838D01*
X182110466Y-105739286D01*
X182122991Y-105792902D01*
X182122003Y-105868220D01*
X182118035Y-105910328D01*
X182105920Y-105961121D01*
X182079585Y-106001720D01*
X182030514Y-106048951D01*
X182023346Y-106055262D01*
X181968189Y-106097723D01*
X181920150Y-106117982D01*
X181863184Y-106123154D01*
X181779471Y-106123154D01*
X181801552Y-106064654D01*
X181827364Y-106022006D01*
X181887928Y-105984936D01*
X181907320Y-105977197D01*
X181962235Y-105933926D01*
X181989879Y-105875024D01*
X181987393Y-105810889D01*
X181951923Y-105751923D01*
X181929805Y-105731658D01*
X181896436Y-105713280D01*
X181866117Y-105719029D01*
X181834913Y-105752113D01*
X181798887Y-105815739D01*
X181754103Y-105913115D01*
X181666445Y-106113385D01*
X181579607Y-106118699D01*
X181514663Y-106116353D01*
X181432590Y-106086814D01*
X181387361Y-106049528D01*
X181336838Y-105972224D01*
X181311316Y-105880522D01*
X181311490Y-105872360D01*
X181443721Y-105872360D01*
X181474339Y-105942960D01*
X181489648Y-105962526D01*
X181524296Y-105986217D01*
X181558538Y-105976312D01*
X181595096Y-105931244D01*
X181636692Y-105849443D01*
X181642718Y-105835908D01*
X181670753Y-105771182D01*
X181690472Y-105722753D01*
X181697923Y-105700249D01*
X181692438Y-105696839D01*
X181658948Y-105695471D01*
X181605116Y-105700349D01*
X181552473Y-105712636D01*
X181486151Y-105750959D01*
X181448780Y-105806280D01*
X181443721Y-105872360D01*
X181311490Y-105872360D01*
X181313336Y-105785726D01*
X181345440Y-105699141D01*
X181357767Y-105680080D01*
X181395912Y-105636360D01*
X181444167Y-105606460D01*
X181509710Y-105588032D01*
X181599720Y-105578730D01*
X181658948Y-105577501D01*
X181721376Y-105576206D01*
X181773449Y-105576587D01*
G36*
X181946670Y-104248690D02*
G01*
X182021868Y-104281429D01*
X182083131Y-104343159D01*
X182109210Y-104393142D01*
X182127470Y-104489697D01*
X182125007Y-104543353D01*
X182111687Y-104593024D01*
X182083739Y-104612081D01*
X182037710Y-104604955D01*
X182031624Y-104602882D01*
X181999349Y-104586444D01*
X181987133Y-104559074D01*
X181987950Y-104506932D01*
X181989061Y-104470116D01*
X181979528Y-104427039D01*
X181951026Y-104397525D01*
X181915935Y-104380714D01*
X181879175Y-104378839D01*
X181878961Y-104378926D01*
X181859098Y-104400721D01*
X181830192Y-104447368D01*
X181797886Y-104507722D01*
X181767823Y-104570640D01*
X181745646Y-104624977D01*
X181737000Y-104659590D01*
X181745467Y-104664740D01*
X181785309Y-104671222D01*
X181850371Y-104675661D01*
X181932385Y-104677308D01*
X181989153Y-104677691D01*
X182060648Y-104679495D01*
X182109610Y-104682442D01*
X182127769Y-104686157D01*
X182121667Y-104705576D01*
X182105095Y-104744773D01*
X182082420Y-104794538D01*
X181791509Y-104794538D01*
X181716940Y-104794220D01*
X181603701Y-104791211D01*
X181519692Y-104783546D01*
X181458520Y-104769438D01*
X181413795Y-104747101D01*
X181379124Y-104714747D01*
X181348117Y-104670590D01*
X181322528Y-104614333D01*
X181307154Y-104510460D01*
X181308911Y-104463064D01*
X181319547Y-104421193D01*
X181346062Y-104382209D01*
X181395420Y-104332035D01*
X181430279Y-104299768D01*
X181475534Y-104266156D01*
X181517951Y-104250997D01*
X181571768Y-104247461D01*
X181659850Y-104247461D01*
X181628787Y-104307530D01*
X181590936Y-104355133D01*
X181539950Y-104387739D01*
X181526088Y-104393339D01*
X181472358Y-104436008D01*
X181445417Y-104495293D01*
X181448039Y-104559939D01*
X181483000Y-104618692D01*
X181511394Y-104643550D01*
X181547718Y-104658030D01*
X181580046Y-104642530D01*
X181612565Y-104594333D01*
X181649461Y-104510726D01*
X181654557Y-104498038D01*
X181687907Y-104421922D01*
X181720793Y-104356604D01*
X181746769Y-104315047D01*
X181793167Y-104273424D01*
X181867211Y-104245753D01*
X181946670Y-104248690D01*
G37*
X181946670Y-104248690D02*
X182021868Y-104281429D01*
X182083131Y-104343159D01*
X182109210Y-104393142D01*
X182127470Y-104489697D01*
X182125007Y-104543353D01*
X182111687Y-104593024D01*
X182083739Y-104612081D01*
X182037710Y-104604955D01*
X182031624Y-104602882D01*
X181999349Y-104586444D01*
X181987133Y-104559074D01*
X181987950Y-104506932D01*
X181989061Y-104470116D01*
X181979528Y-104427039D01*
X181951026Y-104397525D01*
X181915935Y-104380714D01*
X181879175Y-104378839D01*
X181878961Y-104378926D01*
X181859098Y-104400721D01*
X181830192Y-104447368D01*
X181797886Y-104507722D01*
X181767823Y-104570640D01*
X181745646Y-104624977D01*
X181737000Y-104659590D01*
X181745467Y-104664740D01*
X181785309Y-104671222D01*
X181850371Y-104675661D01*
X181932385Y-104677308D01*
X181989153Y-104677691D01*
X182060648Y-104679495D01*
X182109610Y-104682442D01*
X182127769Y-104686157D01*
X182121667Y-104705576D01*
X182105095Y-104744773D01*
X182082420Y-104794538D01*
X181791509Y-104794538D01*
X181716940Y-104794220D01*
X181603701Y-104791211D01*
X181519692Y-104783546D01*
X181458520Y-104769438D01*
X181413795Y-104747101D01*
X181379124Y-104714747D01*
X181348117Y-104670590D01*
X181322528Y-104614333D01*
X181307154Y-104510460D01*
X181308911Y-104463064D01*
X181319547Y-104421193D01*
X181346062Y-104382209D01*
X181395420Y-104332035D01*
X181430279Y-104299768D01*
X181475534Y-104266156D01*
X181517951Y-104250997D01*
X181571768Y-104247461D01*
X181659850Y-104247461D01*
X181628787Y-104307530D01*
X181590936Y-104355133D01*
X181539950Y-104387739D01*
X181526088Y-104393339D01*
X181472358Y-104436008D01*
X181445417Y-104495293D01*
X181448039Y-104559939D01*
X181483000Y-104618692D01*
X181511394Y-104643550D01*
X181547718Y-104658030D01*
X181580046Y-104642530D01*
X181612565Y-104594333D01*
X181649461Y-104510726D01*
X181654557Y-104498038D01*
X181687907Y-104421922D01*
X181720793Y-104356604D01*
X181746769Y-104315047D01*
X181793167Y-104273424D01*
X181867211Y-104245753D01*
X181946670Y-104248690D01*
%TD*%
M02*
