%TF.GenerationSoftware,KiCad,Pcbnew,6.0.10-86aedd382b~118~ubuntu20.04.1*%
%TF.CreationDate,2023-01-18T21:44:42-08:00*%
%TF.ProjectId,parallel2usb,70617261-6c6c-4656-9c32-7573622e6b69,rev?*%
%TF.SameCoordinates,Original*%
%TF.FileFunction,Soldermask,Top*%
%TF.FilePolarity,Negative*%
%FSLAX46Y46*%
G04 Gerber Fmt 4.6, Leading zero omitted, Abs format (unit mm)*
G04 Created by KiCad (PCBNEW 6.0.10-86aedd382b~118~ubuntu20.04.1) date 2023-01-18 21:44:42*
%MOMM*%
%LPD*%
G01*
G04 APERTURE LIST*
G04 Aperture macros list*
%AMRoundRect*
0 Rectangle with rounded corners*
0 $1 Rounding radius*
0 $2 $3 $4 $5 $6 $7 $8 $9 X,Y pos of 4 corners*
0 Add a 4 corners polygon primitive as box body*
4,1,4,$2,$3,$4,$5,$6,$7,$8,$9,$2,$3,0*
0 Add four circle primitives for the rounded corners*
1,1,$1+$1,$2,$3*
1,1,$1+$1,$4,$5*
1,1,$1+$1,$6,$7*
1,1,$1+$1,$8,$9*
0 Add four rect primitives between the rounded corners*
20,1,$1+$1,$2,$3,$4,$5,0*
20,1,$1+$1,$4,$5,$6,$7,0*
20,1,$1+$1,$6,$7,$8,$9,0*
20,1,$1+$1,$8,$9,$2,$3,0*%
G04 Aperture macros list end*
%ADD10RoundRect,0.237500X0.300000X0.237500X-0.300000X0.237500X-0.300000X-0.237500X0.300000X-0.237500X0*%
%ADD11RoundRect,0.237500X-0.300000X-0.237500X0.300000X-0.237500X0.300000X0.237500X-0.300000X0.237500X0*%
%ADD12RoundRect,0.237500X0.250000X0.237500X-0.250000X0.237500X-0.250000X-0.237500X0.250000X-0.237500X0*%
%ADD13R,1.200000X0.400000*%
%ADD14C,4.000000*%
%ADD15R,1.600000X1.600000*%
%ADD16C,1.600000*%
%ADD17RoundRect,0.237500X-0.250000X-0.237500X0.250000X-0.237500X0.250000X0.237500X-0.250000X0.237500X0*%
%ADD18R,1.700000X1.700000*%
%ADD19O,1.700000X1.700000*%
%ADD20O,1.500000X1.500000*%
%ADD21O,1.800000X1.800000*%
G04 APERTURE END LIST*
D10*
%TO.C,C3*%
X191717000Y-77597000D03*
X189992000Y-77597000D03*
%TD*%
D11*
%TO.C,C19*%
X176327000Y-91287600D03*
X178052000Y-91287600D03*
%TD*%
D10*
%TO.C,C16*%
X191717000Y-114173000D03*
X189992000Y-114173000D03*
%TD*%
%TO.C,C17*%
X191717000Y-120269000D03*
X189992000Y-120269000D03*
%TD*%
D12*
%TO.C,R9*%
X191770000Y-76073000D03*
X189945000Y-76073000D03*
%TD*%
D10*
%TO.C,C15*%
X191717000Y-117221000D03*
X189992000Y-117221000D03*
%TD*%
%TO.C,C12*%
X191717000Y-86741000D03*
X189992000Y-86741000D03*
%TD*%
D12*
%TO.C,R3*%
X191770000Y-94361000D03*
X189945000Y-94361000D03*
%TD*%
%TO.C,R12*%
X191770000Y-85217000D03*
X189945000Y-85217000D03*
%TD*%
D10*
%TO.C,C5*%
X191717000Y-95885000D03*
X189992000Y-95885000D03*
%TD*%
%TO.C,C11*%
X191717000Y-101981000D03*
X189992000Y-101981000D03*
%TD*%
D12*
%TO.C,R11*%
X191770000Y-82169000D03*
X189945000Y-82169000D03*
%TD*%
D13*
%TO.C,U1*%
X172464000Y-94615000D03*
X172464000Y-95250000D03*
X172464000Y-95885000D03*
X172464000Y-96520000D03*
X172464000Y-97155000D03*
X172464000Y-97790000D03*
X172464000Y-98425000D03*
X172464000Y-99060000D03*
X172464000Y-99695000D03*
X172464000Y-100330000D03*
X172464000Y-100965000D03*
X172464000Y-101600000D03*
X172464000Y-102235000D03*
X172464000Y-102870000D03*
X172464000Y-103505000D03*
X172464000Y-104140000D03*
X172464000Y-104775000D03*
X172464000Y-105410000D03*
X172464000Y-106045000D03*
X172464000Y-106680000D03*
X172464000Y-107315000D03*
X172464000Y-107950000D03*
X172464000Y-108585000D03*
X172464000Y-109220000D03*
X181864000Y-109220000D03*
X181864000Y-108585000D03*
X181864000Y-107950000D03*
X181864000Y-107315000D03*
X181864000Y-106680000D03*
X181864000Y-106045000D03*
X181864000Y-105410000D03*
X181864000Y-104775000D03*
X181864000Y-104140000D03*
X181864000Y-103505000D03*
X181864000Y-102870000D03*
X181864000Y-102235000D03*
X181864000Y-101600000D03*
X181864000Y-100965000D03*
X181864000Y-100330000D03*
X181864000Y-99695000D03*
X181864000Y-99060000D03*
X181864000Y-98425000D03*
X181864000Y-97790000D03*
X181864000Y-97155000D03*
X181864000Y-96520000D03*
X181864000Y-95885000D03*
X181864000Y-95250000D03*
X181864000Y-94615000D03*
%TD*%
D12*
%TO.C,R16*%
X191770000Y-121793000D03*
X189945000Y-121793000D03*
%TD*%
D10*
%TO.C,C2*%
X191717000Y-92837000D03*
X189992000Y-92837000D03*
%TD*%
%TO.C,C4*%
X191717000Y-105029000D03*
X189992000Y-105029000D03*
%TD*%
%TO.C,C13*%
X191717000Y-126365000D03*
X189992000Y-126365000D03*
%TD*%
%TO.C,C9*%
X191717000Y-83693000D03*
X189992000Y-83693000D03*
%TD*%
D12*
%TO.C,R8*%
X191770000Y-118745000D03*
X189945000Y-118745000D03*
%TD*%
%TO.C,R6*%
X191770000Y-106553000D03*
X189945000Y-106553000D03*
%TD*%
D14*
%TO.C,J1*%
X200508000Y-78055000D03*
X200508000Y-125155000D03*
D15*
X199088000Y-118225000D03*
D16*
X199088000Y-115455000D03*
X199088000Y-112685000D03*
X199088000Y-109915000D03*
X199088000Y-107145000D03*
X199088000Y-104375000D03*
X199088000Y-101605000D03*
X199088000Y-98835000D03*
X199088000Y-96065000D03*
X199088000Y-93295000D03*
X199088000Y-90525000D03*
X199088000Y-87755000D03*
X199088000Y-84985000D03*
X201928000Y-116840000D03*
X201928000Y-114070000D03*
X201928000Y-111300000D03*
X201928000Y-108530000D03*
X201928000Y-105760000D03*
X201928000Y-102990000D03*
X201928000Y-100220000D03*
X201928000Y-97450000D03*
X201928000Y-94680000D03*
X201928000Y-91910000D03*
X201928000Y-89140000D03*
X201928000Y-86370000D03*
%TD*%
D12*
%TO.C,R2*%
X191770000Y-91313000D03*
X189945000Y-91313000D03*
%TD*%
%TO.C,R15*%
X191770000Y-109601000D03*
X189945000Y-109601000D03*
%TD*%
D10*
%TO.C,C10*%
X191717000Y-123317000D03*
X189992000Y-123317000D03*
%TD*%
%TO.C,C8*%
X191717000Y-98933000D03*
X189992000Y-98933000D03*
%TD*%
%TO.C,C20*%
X178281500Y-110998000D03*
X176556500Y-110998000D03*
%TD*%
D12*
%TO.C,R14*%
X191770000Y-103505000D03*
X189945000Y-103505000D03*
%TD*%
%TO.C,R18*%
X174187400Y-92837000D03*
X172362400Y-92837000D03*
%TD*%
%TO.C,R13*%
X191770000Y-115697000D03*
X189945000Y-115697000D03*
%TD*%
%TO.C,R10*%
X191770000Y-79121000D03*
X189945000Y-79121000D03*
%TD*%
D10*
%TO.C,C6*%
X191717000Y-80645000D03*
X189992000Y-80645000D03*
%TD*%
%TO.C,C14*%
X191717000Y-108077000D03*
X189992000Y-108077000D03*
%TD*%
%TO.C,C1*%
X191717000Y-89789000D03*
X189992000Y-89789000D03*
%TD*%
D17*
%TO.C,R19*%
X180138600Y-92837000D03*
X181963600Y-92837000D03*
%TD*%
D12*
%TO.C,R17*%
X191770000Y-124841000D03*
X189945000Y-124841000D03*
%TD*%
%TO.C,R7*%
X191770000Y-112649000D03*
X189945000Y-112649000D03*
%TD*%
D11*
%TO.C,C18*%
X176327000Y-92837000D03*
X178052000Y-92837000D03*
%TD*%
D10*
%TO.C,C7*%
X191717000Y-111125000D03*
X189992000Y-111125000D03*
%TD*%
D12*
%TO.C,R1*%
X191770000Y-88265000D03*
X189945000Y-88265000D03*
%TD*%
%TO.C,R4*%
X191770000Y-97409000D03*
X189945000Y-97409000D03*
%TD*%
D18*
%TO.C,J2*%
X194770000Y-77089000D03*
D19*
X194770000Y-79629000D03*
X194770000Y-82169000D03*
X194770000Y-84709000D03*
X194770000Y-87249000D03*
X194770000Y-89789000D03*
X194770000Y-92329000D03*
X194770000Y-94869000D03*
X194770000Y-97409000D03*
X194770000Y-99949000D03*
X194770000Y-102489000D03*
X194770000Y-105029000D03*
X194770000Y-107569000D03*
X194770000Y-110109000D03*
X194770000Y-112649000D03*
X194770000Y-115189000D03*
X194770000Y-117729000D03*
X194770000Y-120269000D03*
X194770000Y-122809000D03*
X194770000Y-125349000D03*
%TD*%
D12*
%TO.C,R5*%
X191770000Y-100457000D03*
X189945000Y-100457000D03*
%TD*%
D20*
%TO.C,U2*%
X174105000Y-122570000D03*
X178955000Y-122570000D03*
D21*
X179255000Y-125600000D03*
X173805000Y-125600000D03*
D19*
X167640000Y-125730000D03*
X167640000Y-123190000D03*
D18*
X167640000Y-120650000D03*
D19*
X167640000Y-118110000D03*
X167640000Y-115570000D03*
X167640000Y-113030000D03*
X167640000Y-110490000D03*
D18*
X167640000Y-107950000D03*
D19*
X167640000Y-105410000D03*
X167640000Y-102870000D03*
X167640000Y-100330000D03*
X167640000Y-97790000D03*
D18*
X167640000Y-95250000D03*
D19*
X167640000Y-92710000D03*
X167640000Y-90170000D03*
X167640000Y-87630000D03*
X167640000Y-85090000D03*
D18*
X167640000Y-82550000D03*
D19*
X167640000Y-80010000D03*
X167640000Y-77470000D03*
X185420000Y-77470000D03*
X185420000Y-80010000D03*
D18*
X185420000Y-82550000D03*
D19*
X185420000Y-85090000D03*
X185420000Y-87630000D03*
X185420000Y-90170000D03*
X185420000Y-92710000D03*
D18*
X185420000Y-95250000D03*
D19*
X185420000Y-97790000D03*
X185420000Y-100330000D03*
X185420000Y-102870000D03*
X185420000Y-105410000D03*
D18*
X185420000Y-107950000D03*
D19*
X185420000Y-110490000D03*
X185420000Y-113030000D03*
X185420000Y-115570000D03*
X185420000Y-118110000D03*
D18*
X185420000Y-120650000D03*
D19*
X185420000Y-123190000D03*
X185420000Y-125730000D03*
X173990000Y-77700000D03*
D18*
X176530000Y-77700000D03*
D19*
X179070000Y-77700000D03*
%TD*%
M02*
