%TF.GenerationSoftware,KiCad,Pcbnew,6.0.10-86aedd382b~118~ubuntu20.04.1*%
%TF.CreationDate,2022-12-30T18:50:17-08:00*%
%TF.ProjectId,parallel2usb,70617261-6c6c-4656-9c32-7573622e6b69,rev?*%
%TF.SameCoordinates,Original*%
%TF.FileFunction,Soldermask,Bot*%
%TF.FilePolarity,Negative*%
%FSLAX46Y46*%
G04 Gerber Fmt 4.6, Leading zero omitted, Abs format (unit mm)*
G04 Created by KiCad (PCBNEW 6.0.10-86aedd382b~118~ubuntu20.04.1) date 2022-12-30 18:50:17*
%MOMM*%
%LPD*%
G01*
G04 APERTURE LIST*
%ADD10C,2.700000*%
%ADD11C,4.000000*%
%ADD12R,1.600000X1.600000*%
%ADD13C,1.600000*%
%ADD14O,1.700000X1.700000*%
%ADD15R,1.700000X1.700000*%
%ADD16O,1.500000X1.500000*%
%ADD17O,1.800000X1.800000*%
G04 APERTURE END LIST*
D10*
%TO.C,H1*%
X184404000Y-78105000D03*
%TD*%
D11*
%TO.C,J1*%
X200508000Y-78055000D03*
X200508000Y-125155000D03*
D12*
X199088000Y-118225000D03*
D13*
X199088000Y-115455000D03*
X199088000Y-112685000D03*
X199088000Y-109915000D03*
X199088000Y-107145000D03*
X199088000Y-104375000D03*
X199088000Y-101605000D03*
X199088000Y-98835000D03*
X199088000Y-96065000D03*
X199088000Y-93295000D03*
X199088000Y-90525000D03*
X199088000Y-87755000D03*
X199088000Y-84985000D03*
X201928000Y-116840000D03*
X201928000Y-114070000D03*
X201928000Y-111300000D03*
X201928000Y-108530000D03*
X201928000Y-105760000D03*
X201928000Y-102990000D03*
X201928000Y-100220000D03*
X201928000Y-97450000D03*
X201928000Y-94680000D03*
X201928000Y-91910000D03*
X201928000Y-89140000D03*
X201928000Y-86370000D03*
%TD*%
D14*
%TO.C,J3*%
X176149000Y-99045000D03*
X176149000Y-101585000D03*
D15*
X176149000Y-104125000D03*
%TD*%
D14*
%TO.C,U4*%
X171450000Y-99060000D03*
D15*
X171450000Y-101600000D03*
D14*
X171450000Y-104140000D03*
X123420000Y-92710000D03*
X125960000Y-92710000D03*
D15*
X128500000Y-92710000D03*
D14*
X131040000Y-92710000D03*
X133580000Y-92710000D03*
X136120000Y-92710000D03*
X138660000Y-92710000D03*
D15*
X141200000Y-92710000D03*
D14*
X143740000Y-92710000D03*
X146280000Y-92710000D03*
X148820000Y-92710000D03*
X151360000Y-92710000D03*
D15*
X153900000Y-92710000D03*
D14*
X156440000Y-92710000D03*
X158980000Y-92710000D03*
X161520000Y-92710000D03*
X164060000Y-92710000D03*
D15*
X166600000Y-92710000D03*
D14*
X169140000Y-92710000D03*
X171680000Y-92710000D03*
X171680000Y-110490000D03*
X169140000Y-110490000D03*
D15*
X166600000Y-110490000D03*
D14*
X164060000Y-110490000D03*
X161520000Y-110490000D03*
X158980000Y-110490000D03*
X156440000Y-110490000D03*
D15*
X153900000Y-110490000D03*
D14*
X151360000Y-110490000D03*
X148820000Y-110490000D03*
X146280000Y-110490000D03*
X143740000Y-110490000D03*
D15*
X141200000Y-110490000D03*
D14*
X138660000Y-110490000D03*
X136120000Y-110490000D03*
X133580000Y-110490000D03*
X131040000Y-110490000D03*
D15*
X128500000Y-110490000D03*
D14*
X125960000Y-110490000D03*
X123420000Y-110490000D03*
D16*
X126580000Y-99175000D03*
D17*
X123550000Y-104325000D03*
D16*
X126580000Y-104025000D03*
D17*
X123550000Y-98875000D03*
%TD*%
D10*
%TO.C,H2*%
X184404000Y-125095000D03*
%TD*%
D15*
%TO.C,J2*%
X194770000Y-77082000D03*
D14*
X194770000Y-79622000D03*
X194770000Y-82162000D03*
X194770000Y-84702000D03*
X194770000Y-87242000D03*
X194770000Y-89782000D03*
X194770000Y-92322000D03*
X194770000Y-94862000D03*
X194770000Y-97402000D03*
X194770000Y-99942000D03*
X194770000Y-102482000D03*
X194770000Y-105022000D03*
X194770000Y-107562000D03*
X194770000Y-110102000D03*
X194770000Y-112642000D03*
X194770000Y-115182000D03*
X194770000Y-117722000D03*
X194770000Y-120262000D03*
X194770000Y-122802000D03*
X194770000Y-125342000D03*
%TD*%
M02*
