M48
; DRILL file {KiCad 6.0.10-86aedd382b~118~ubuntu20.04.1} date Fri 30 Dec 2022 06:50:20 PM PST
; FORMAT={-:-/ absolute / inch / decimal}
; #@! TF.CreationDate,2022-12-30T18:50:20-08:00
; #@! TF.GenerationSoftware,Kicad,Pcbnew,6.0.10-86aedd382b~118~ubuntu20.04.1
; #@! TF.FileFunction,Plated,1,4,PTH
FMAT,2
INCH
; #@! TA.AperFunction,Plated,PTH,ViaDrill
T1C0.0079
; #@! TA.AperFunction,Plated,PTH,ViaDrill
T2C0.0157
; #@! TA.AperFunction,Plated,PTH,ComponentDrill
T3C0.0394
; #@! TA.AperFunction,Plated,PTH,ComponentDrill
T4C0.0402
; #@! TA.AperFunction,Plated,PTH,ComponentDrill
T5C0.1260
%
G90
G05
T1
X7.3222Y-3.59
X7.325Y-3.555
X7.325Y-3.67
X7.33Y-4.085
X7.33Y-4.115
X7.34Y-3.615
X7.35Y-4.065
X7.445Y-3.405
X7.445Y-3.465
X7.445Y-3.525
X7.445Y-3.585
X7.445Y-3.645
X7.445Y-3.705
X7.445Y-3.85
X7.445Y-3.91
X7.445Y-3.97
X7.445Y-4.03
X7.445Y-4.09
X7.445Y-4.15
X7.445Y-4.315
X7.445Y-4.375
X7.445Y-4.435
X7.445Y-4.495
X7.445Y-4.555
X7.445Y-4.615
X7.445Y-4.675
X7.445Y-4.735
X7.445Y-4.795
X7.445Y-4.855
X7.445Y-4.915
X7.445Y-4.975
X7.575Y-3.365
T2
X6.82Y-3.45
X6.845Y-3.4904
X6.875Y-4.285
X7.11Y-3.875
X7.1119Y-4.3431
X7.115Y-3.69
X7.115Y-4.14
X7.115Y-4.595
X7.12Y-3.435
X7.17Y-3.37
X7.17Y-3.82
X7.17Y-4.275
X7.225Y-3.42
X7.225Y-3.69
X7.225Y-3.885
X7.225Y-4.14
X7.225Y-4.34
X7.225Y-4.595
X7.37Y-4.22
X7.38Y-3.395
X7.44Y-3.79
T3
X6.935Y-3.8994
X6.935Y-3.9994
X6.935Y-4.0994
X7.6681Y-3.0347
X7.6681Y-3.1347
X7.6681Y-3.2347
X7.6681Y-3.3347
X7.6681Y-3.4347
X7.6681Y-3.5347
X7.6681Y-3.6347
X7.6681Y-3.7347
X7.6681Y-3.8347
X7.6681Y-3.9347
X7.6681Y-4.0347
X7.6681Y-4.1347
X7.6681Y-4.2347
X7.6681Y-4.3347
X7.6681Y-4.4347
X7.6681Y-4.5347
X7.6681Y-4.6347
X7.6681Y-4.7347
X7.6681Y-4.8347
X7.6681Y-4.9347
X7.8381Y-3.3459
X7.8381Y-3.4549
X7.8381Y-3.564
X7.8381Y-3.673
X7.8381Y-3.7821
X7.8381Y-3.8911
X7.8381Y-4.0002
X7.8381Y-4.1093
X7.8381Y-4.2183
X7.8381Y-4.3274
X7.8381Y-4.4364
X7.8381Y-4.5455
X7.8381Y-4.6545
X7.9499Y-3.4004
X7.9499Y-3.5094
X7.9499Y-3.6185
X7.9499Y-3.7276
X7.9499Y-3.8366
X7.9499Y-3.9457
X7.9499Y-4.0547
X7.9499Y-4.1638
X7.9499Y-4.2728
X7.9499Y-4.3819
X7.9499Y-4.4909
X7.9499Y-4.6
T4
X4.8591Y-3.65
X4.8591Y-4.35
X4.9591Y-3.65
X4.9591Y-4.35
X5.0591Y-3.65
X5.0591Y-4.35
X5.1591Y-3.65
X5.1591Y-4.35
X5.2591Y-3.65
X5.2591Y-4.35
X5.3591Y-3.65
X5.3591Y-4.35
X5.4591Y-3.65
X5.4591Y-4.35
X5.5591Y-3.65
X5.5591Y-4.35
X5.6591Y-3.65
X5.6591Y-4.35
X5.7591Y-3.65
X5.7591Y-4.35
X5.8591Y-3.65
X5.8591Y-4.35
X5.9591Y-3.65
X5.9591Y-4.35
X6.0591Y-3.65
X6.0591Y-4.35
X6.1591Y-3.65
X6.1591Y-4.35
X6.2591Y-3.65
X6.2591Y-4.35
X6.3591Y-3.65
X6.3591Y-4.35
X6.4591Y-3.65
X6.4591Y-4.35
X6.5591Y-3.65
X6.5591Y-4.35
X6.6591Y-3.65
X6.6591Y-4.35
X6.75Y-3.9
X6.75Y-4.0
X6.75Y-4.1
X6.7591Y-3.65
X6.7591Y-4.35
T5
X7.894Y-3.073
X7.894Y-4.9274
T0
M30
