%TF.GenerationSoftware,KiCad,Pcbnew,6.0.10-86aedd382b~118~ubuntu20.04.1*%
%TF.CreationDate,2022-12-31T17:49:26-08:00*%
%TF.ProjectId,parallel2usb,70617261-6c6c-4656-9c32-7573622e6b69,rev?*%
%TF.SameCoordinates,Original*%
%TF.FileFunction,Legend,Bot*%
%TF.FilePolarity,Positive*%
%FSLAX46Y46*%
G04 Gerber Fmt 4.6, Leading zero omitted, Abs format (unit mm)*
G04 Created by KiCad (PCBNEW 6.0.10-86aedd382b~118~ubuntu20.04.1) date 2022-12-31 17:49:26*
%MOMM*%
%LPD*%
G01*
G04 APERTURE LIST*
%ADD10C,0.150000*%
%ADD11C,0.010000*%
G04 APERTURE END LIST*
D10*
X192873142Y-87177571D02*
X192730285Y-87225190D01*
X192682666Y-87272809D01*
X192635047Y-87368047D01*
X192635047Y-87510904D01*
X192682666Y-87606142D01*
X192730285Y-87653761D01*
X192825523Y-87701380D01*
X193206476Y-87701380D01*
X193206476Y-86701380D01*
X192873142Y-86701380D01*
X192777904Y-86749000D01*
X192730285Y-86796619D01*
X192682666Y-86891857D01*
X192682666Y-86987095D01*
X192730285Y-87082333D01*
X192777904Y-87129952D01*
X192873142Y-87177571D01*
X193206476Y-87177571D01*
X192206476Y-86701380D02*
X192206476Y-87510904D01*
X192158857Y-87606142D01*
X192111238Y-87653761D01*
X192016000Y-87701380D01*
X191825523Y-87701380D01*
X191730285Y-87653761D01*
X191682666Y-87606142D01*
X191635047Y-87510904D01*
X191635047Y-86701380D01*
X191206476Y-87653761D02*
X191063619Y-87701380D01*
X190825523Y-87701380D01*
X190730285Y-87653761D01*
X190682666Y-87606142D01*
X190635047Y-87510904D01*
X190635047Y-87415666D01*
X190682666Y-87320428D01*
X190730285Y-87272809D01*
X190825523Y-87225190D01*
X191016000Y-87177571D01*
X191111238Y-87129952D01*
X191158857Y-87082333D01*
X191206476Y-86987095D01*
X191206476Y-86891857D01*
X191158857Y-86796619D01*
X191111238Y-86749000D01*
X191016000Y-86701380D01*
X190777904Y-86701380D01*
X190635047Y-86749000D01*
X190016000Y-87225190D02*
X190016000Y-87701380D01*
X190349333Y-86701380D02*
X190016000Y-87225190D01*
X189682666Y-86701380D01*
X193166857Y-110561380D02*
X193166857Y-109561380D01*
X192690666Y-110561380D02*
X192690666Y-109561380D01*
X192119238Y-110561380D01*
X192119238Y-109561380D01*
X191643047Y-110561380D02*
X191643047Y-109561380D01*
X191309714Y-109561380D02*
X190738285Y-109561380D01*
X191024000Y-110561380D02*
X191024000Y-109561380D01*
X193293857Y-82573761D02*
X193151000Y-82621380D01*
X192912904Y-82621380D01*
X192817666Y-82573761D01*
X192770047Y-82526142D01*
X192722428Y-82430904D01*
X192722428Y-82335666D01*
X192770047Y-82240428D01*
X192817666Y-82192809D01*
X192912904Y-82145190D01*
X193103380Y-82097571D01*
X193198619Y-82049952D01*
X193246238Y-82002333D01*
X193293857Y-81907095D01*
X193293857Y-81811857D01*
X193246238Y-81716619D01*
X193198619Y-81669000D01*
X193103380Y-81621380D01*
X192865285Y-81621380D01*
X192722428Y-81669000D01*
X192293857Y-82097571D02*
X191960523Y-82097571D01*
X191817666Y-82621380D02*
X192293857Y-82621380D01*
X192293857Y-81621380D01*
X191817666Y-81621380D01*
X190912904Y-82621380D02*
X191389095Y-82621380D01*
X191389095Y-81621380D01*
X193270095Y-108021380D02*
X193270095Y-107021380D01*
X193032000Y-107021380D01*
X192889142Y-107069000D01*
X192793904Y-107164238D01*
X192746285Y-107259476D01*
X192698666Y-107449952D01*
X192698666Y-107592809D01*
X192746285Y-107783285D01*
X192793904Y-107878523D01*
X192889142Y-107973761D01*
X193032000Y-108021380D01*
X193270095Y-108021380D01*
X192317714Y-107116619D02*
X192270095Y-107069000D01*
X192174857Y-107021380D01*
X191936761Y-107021380D01*
X191841523Y-107069000D01*
X191793904Y-107116619D01*
X191746285Y-107211857D01*
X191746285Y-107307095D01*
X191793904Y-107449952D01*
X192365333Y-108021380D01*
X191746285Y-108021380D01*
X193262095Y-89955666D02*
X192785904Y-89955666D01*
X193357333Y-90241380D02*
X193024000Y-89241380D01*
X192690666Y-90241380D01*
X191785904Y-90146142D02*
X191833523Y-90193761D01*
X191976380Y-90241380D01*
X192071619Y-90241380D01*
X192214476Y-90193761D01*
X192309714Y-90098523D01*
X192357333Y-90003285D01*
X192404952Y-89812809D01*
X192404952Y-89669952D01*
X192357333Y-89479476D01*
X192309714Y-89384238D01*
X192214476Y-89289000D01*
X192071619Y-89241380D01*
X191976380Y-89241380D01*
X191833523Y-89289000D01*
X191785904Y-89336619D01*
X191357333Y-90241380D02*
X191357333Y-89241380D01*
X190785904Y-90241380D02*
X191214476Y-89669952D01*
X190785904Y-89241380D02*
X191357333Y-89812809D01*
X193246095Y-115117571D02*
X192912761Y-115117571D01*
X192769904Y-115641380D02*
X193246095Y-115641380D01*
X193246095Y-114641380D01*
X192769904Y-114641380D01*
X191769904Y-115641380D02*
X192103238Y-115165190D01*
X192341333Y-115641380D02*
X192341333Y-114641380D01*
X191960380Y-114641380D01*
X191865142Y-114689000D01*
X191817523Y-114736619D01*
X191769904Y-114831857D01*
X191769904Y-114974714D01*
X191817523Y-115069952D01*
X191865142Y-115117571D01*
X191960380Y-115165190D01*
X192341333Y-115165190D01*
X190769904Y-115641380D02*
X191103238Y-115165190D01*
X191341333Y-115641380D02*
X191341333Y-114641380D01*
X190960380Y-114641380D01*
X190865142Y-114689000D01*
X190817523Y-114736619D01*
X190769904Y-114831857D01*
X190769904Y-114974714D01*
X190817523Y-115069952D01*
X190865142Y-115117571D01*
X190960380Y-115165190D01*
X191341333Y-115165190D01*
X190150857Y-114641380D02*
X189960380Y-114641380D01*
X189865142Y-114689000D01*
X189769904Y-114784238D01*
X189722285Y-114974714D01*
X189722285Y-115308047D01*
X189769904Y-115498523D01*
X189865142Y-115593761D01*
X189960380Y-115641380D01*
X190150857Y-115641380D01*
X190246095Y-115593761D01*
X190341333Y-115498523D01*
X190388952Y-115308047D01*
X190388952Y-114974714D01*
X190341333Y-114784238D01*
X190246095Y-114689000D01*
X190150857Y-114641380D01*
X188722285Y-115641380D02*
X189055619Y-115165190D01*
X189293714Y-115641380D02*
X189293714Y-114641380D01*
X188912761Y-114641380D01*
X188817523Y-114689000D01*
X188769904Y-114736619D01*
X188722285Y-114831857D01*
X188722285Y-114974714D01*
X188769904Y-115069952D01*
X188817523Y-115117571D01*
X188912761Y-115165190D01*
X189293714Y-115165190D01*
X193270095Y-113101380D02*
X193270095Y-112101380D01*
X193032000Y-112101380D01*
X192889142Y-112149000D01*
X192793904Y-112244238D01*
X192746285Y-112339476D01*
X192698666Y-112529952D01*
X192698666Y-112672809D01*
X192746285Y-112863285D01*
X192793904Y-112958523D01*
X192889142Y-113053761D01*
X193032000Y-113101380D01*
X193270095Y-113101380D01*
X191746285Y-113101380D02*
X192317714Y-113101380D01*
X192032000Y-113101380D02*
X192032000Y-112101380D01*
X192127238Y-112244238D01*
X192222476Y-112339476D01*
X192317714Y-112387095D01*
X193270095Y-100274380D02*
X193270095Y-99274380D01*
X193032000Y-99274380D01*
X192889142Y-99322000D01*
X192793904Y-99417238D01*
X192746285Y-99512476D01*
X192698666Y-99702952D01*
X192698666Y-99845809D01*
X192746285Y-100036285D01*
X192793904Y-100131523D01*
X192889142Y-100226761D01*
X193032000Y-100274380D01*
X193270095Y-100274380D01*
X191841523Y-99607714D02*
X191841523Y-100274380D01*
X192079619Y-99226761D02*
X192317714Y-99941047D01*
X191698666Y-99941047D01*
X193293714Y-105433761D02*
X193150857Y-105481380D01*
X192912761Y-105481380D01*
X192817523Y-105433761D01*
X192769904Y-105386142D01*
X192722285Y-105290904D01*
X192722285Y-105195666D01*
X192769904Y-105100428D01*
X192817523Y-105052809D01*
X192912761Y-105005190D01*
X193103238Y-104957571D01*
X193198476Y-104909952D01*
X193246095Y-104862333D01*
X193293714Y-104767095D01*
X193293714Y-104671857D01*
X193246095Y-104576619D01*
X193198476Y-104529000D01*
X193103238Y-104481380D01*
X192865142Y-104481380D01*
X192722285Y-104529000D01*
X192293714Y-104957571D02*
X191960380Y-104957571D01*
X191817523Y-105481380D02*
X192293714Y-105481380D01*
X192293714Y-104481380D01*
X191817523Y-104481380D01*
X190912761Y-105481380D02*
X191388952Y-105481380D01*
X191388952Y-104481380D01*
X190579428Y-105481380D02*
X190579428Y-104481380D01*
X190103238Y-105481380D02*
X190103238Y-104481380D01*
X189531809Y-105481380D01*
X189531809Y-104481380D01*
X189198476Y-104481380D02*
X188627047Y-104481380D01*
X188912761Y-105481380D02*
X188912761Y-104481380D01*
X193269857Y-123213761D02*
X193127000Y-123261380D01*
X192888904Y-123261380D01*
X192793666Y-123213761D01*
X192746047Y-123166142D01*
X192698428Y-123070904D01*
X192698428Y-122975666D01*
X192746047Y-122880428D01*
X192793666Y-122832809D01*
X192888904Y-122785190D01*
X193079380Y-122737571D01*
X193174619Y-122689952D01*
X193222238Y-122642333D01*
X193269857Y-122547095D01*
X193269857Y-122451857D01*
X193222238Y-122356619D01*
X193174619Y-122309000D01*
X193079380Y-122261380D01*
X192841285Y-122261380D01*
X192698428Y-122309000D01*
X192412714Y-122261380D02*
X191841285Y-122261380D01*
X192127000Y-123261380D02*
X192127000Y-122261380D01*
X190936523Y-123261380D02*
X191269857Y-122785190D01*
X191507952Y-123261380D02*
X191507952Y-122261380D01*
X191127000Y-122261380D01*
X191031761Y-122309000D01*
X190984142Y-122356619D01*
X190936523Y-122451857D01*
X190936523Y-122594714D01*
X190984142Y-122689952D01*
X191031761Y-122737571D01*
X191127000Y-122785190D01*
X191507952Y-122785190D01*
X190317476Y-122261380D02*
X190127000Y-122261380D01*
X190031761Y-122309000D01*
X189936523Y-122404238D01*
X189888904Y-122594714D01*
X189888904Y-122928047D01*
X189936523Y-123118523D01*
X190031761Y-123213761D01*
X190127000Y-123261380D01*
X190317476Y-123261380D01*
X190412714Y-123213761D01*
X190507952Y-123118523D01*
X190555571Y-122928047D01*
X190555571Y-122594714D01*
X190507952Y-122404238D01*
X190412714Y-122309000D01*
X190317476Y-122261380D01*
X189127000Y-122737571D02*
X188984142Y-122785190D01*
X188936523Y-122832809D01*
X188888904Y-122928047D01*
X188888904Y-123070904D01*
X188936523Y-123166142D01*
X188984142Y-123213761D01*
X189079380Y-123261380D01*
X189460333Y-123261380D01*
X189460333Y-122261380D01*
X189127000Y-122261380D01*
X189031761Y-122309000D01*
X188984142Y-122356619D01*
X188936523Y-122451857D01*
X188936523Y-122547095D01*
X188984142Y-122642333D01*
X189031761Y-122689952D01*
X189127000Y-122737571D01*
X189460333Y-122737571D01*
X188460333Y-122737571D02*
X188127000Y-122737571D01*
X187984142Y-123261380D02*
X188460333Y-123261380D01*
X188460333Y-122261380D01*
X187984142Y-122261380D01*
X193230238Y-120435666D02*
X192754047Y-120435666D01*
X193325476Y-120721380D02*
X192992142Y-119721380D01*
X192658809Y-120721380D01*
X192325476Y-119721380D02*
X192325476Y-120530904D01*
X192277857Y-120626142D01*
X192230238Y-120673761D01*
X192135000Y-120721380D01*
X191944523Y-120721380D01*
X191849285Y-120673761D01*
X191801666Y-120626142D01*
X191754047Y-120530904D01*
X191754047Y-119721380D01*
X191420714Y-119721380D02*
X190849285Y-119721380D01*
X191135000Y-120721380D02*
X191135000Y-119721380D01*
X190325476Y-119721380D02*
X190135000Y-119721380D01*
X190039761Y-119769000D01*
X189944523Y-119864238D01*
X189896904Y-120054714D01*
X189896904Y-120388047D01*
X189944523Y-120578523D01*
X190039761Y-120673761D01*
X190135000Y-120721380D01*
X190325476Y-120721380D01*
X190420714Y-120673761D01*
X190515952Y-120578523D01*
X190563571Y-120388047D01*
X190563571Y-120054714D01*
X190515952Y-119864238D01*
X190420714Y-119769000D01*
X190325476Y-119721380D01*
X189135000Y-120197571D02*
X189468333Y-120197571D01*
X189468333Y-120721380D02*
X189468333Y-119721380D01*
X188992142Y-119721380D01*
X193270095Y-92781380D02*
X193270095Y-91781380D01*
X193032000Y-91781380D01*
X192889142Y-91829000D01*
X192793904Y-91924238D01*
X192746285Y-92019476D01*
X192698666Y-92209952D01*
X192698666Y-92352809D01*
X192746285Y-92543285D01*
X192793904Y-92638523D01*
X192889142Y-92733761D01*
X193032000Y-92781380D01*
X193270095Y-92781380D01*
X192365333Y-91781380D02*
X191698666Y-91781380D01*
X192127238Y-92781380D01*
X193389095Y-76541380D02*
X192770047Y-76541380D01*
X193103380Y-76922333D01*
X192960523Y-76922333D01*
X192865285Y-76969952D01*
X192817666Y-77017571D01*
X192770047Y-77112809D01*
X192770047Y-77350904D01*
X192817666Y-77446142D01*
X192865285Y-77493761D01*
X192960523Y-77541380D01*
X193246238Y-77541380D01*
X193341476Y-77493761D01*
X193389095Y-77446142D01*
X192484333Y-76541380D02*
X192151000Y-77541380D01*
X191817666Y-76541380D01*
X191579571Y-76541380D02*
X190960523Y-76541380D01*
X191293857Y-76922333D01*
X191151000Y-76922333D01*
X191055761Y-76969952D01*
X191008142Y-77017571D01*
X190960523Y-77112809D01*
X190960523Y-77350904D01*
X191008142Y-77446142D01*
X191055761Y-77493761D01*
X191151000Y-77541380D01*
X191436714Y-77541380D01*
X191531952Y-77493761D01*
X191579571Y-77446142D01*
X192849476Y-79081380D02*
X193325666Y-79081380D01*
X193373285Y-79557571D01*
X193325666Y-79509952D01*
X193230428Y-79462333D01*
X192992333Y-79462333D01*
X192897095Y-79509952D01*
X192849476Y-79557571D01*
X192801857Y-79652809D01*
X192801857Y-79890904D01*
X192849476Y-79986142D01*
X192897095Y-80033761D01*
X192992333Y-80081380D01*
X193230428Y-80081380D01*
X193325666Y-80033761D01*
X193373285Y-79986142D01*
X192516142Y-79081380D02*
X192182809Y-80081380D01*
X191849476Y-79081380D01*
X193270095Y-97861380D02*
X193270095Y-96861380D01*
X193032000Y-96861380D01*
X192889142Y-96909000D01*
X192793904Y-97004238D01*
X192746285Y-97099476D01*
X192698666Y-97289952D01*
X192698666Y-97432809D01*
X192746285Y-97623285D01*
X192793904Y-97718523D01*
X192889142Y-97813761D01*
X193032000Y-97861380D01*
X193270095Y-97861380D01*
X191793904Y-96861380D02*
X192270095Y-96861380D01*
X192317714Y-97337571D01*
X192270095Y-97289952D01*
X192174857Y-97242333D01*
X191936761Y-97242333D01*
X191841523Y-97289952D01*
X191793904Y-97337571D01*
X191746285Y-97432809D01*
X191746285Y-97670904D01*
X191793904Y-97766142D01*
X191841523Y-97813761D01*
X191936761Y-97861380D01*
X192174857Y-97861380D01*
X192270095Y-97813761D01*
X192317714Y-97766142D01*
X151970666Y-95838714D02*
X151970666Y-96838714D01*
X151970666Y-95886333D02*
X151875428Y-95838714D01*
X151684952Y-95838714D01*
X151589714Y-95886333D01*
X151542095Y-95933952D01*
X151494476Y-96029190D01*
X151494476Y-96314904D01*
X151542095Y-96410142D01*
X151589714Y-96457761D01*
X151684952Y-96505380D01*
X151875428Y-96505380D01*
X151970666Y-96457761D01*
X150637333Y-96505380D02*
X150637333Y-95981571D01*
X150684952Y-95886333D01*
X150780190Y-95838714D01*
X150970666Y-95838714D01*
X151065904Y-95886333D01*
X150637333Y-96457761D02*
X150732571Y-96505380D01*
X150970666Y-96505380D01*
X151065904Y-96457761D01*
X151113523Y-96362523D01*
X151113523Y-96267285D01*
X151065904Y-96172047D01*
X150970666Y-96124428D01*
X150732571Y-96124428D01*
X150637333Y-96076809D01*
X150161142Y-96505380D02*
X150161142Y-95838714D01*
X150161142Y-96029190D02*
X150113523Y-95933952D01*
X150065904Y-95886333D01*
X149970666Y-95838714D01*
X149875428Y-95838714D01*
X149113523Y-96505380D02*
X149113523Y-95981571D01*
X149161142Y-95886333D01*
X149256380Y-95838714D01*
X149446857Y-95838714D01*
X149542095Y-95886333D01*
X149113523Y-96457761D02*
X149208761Y-96505380D01*
X149446857Y-96505380D01*
X149542095Y-96457761D01*
X149589714Y-96362523D01*
X149589714Y-96267285D01*
X149542095Y-96172047D01*
X149446857Y-96124428D01*
X149208761Y-96124428D01*
X149113523Y-96076809D01*
X148494476Y-96505380D02*
X148589714Y-96457761D01*
X148637333Y-96362523D01*
X148637333Y-95505380D01*
X147970666Y-96505380D02*
X148065904Y-96457761D01*
X148113523Y-96362523D01*
X148113523Y-95505380D01*
X147208761Y-96457761D02*
X147304000Y-96505380D01*
X147494476Y-96505380D01*
X147589714Y-96457761D01*
X147637333Y-96362523D01*
X147637333Y-95981571D01*
X147589714Y-95886333D01*
X147494476Y-95838714D01*
X147304000Y-95838714D01*
X147208761Y-95886333D01*
X147161142Y-95981571D01*
X147161142Y-96076809D01*
X147637333Y-96172047D01*
X146589714Y-96505380D02*
X146684952Y-96457761D01*
X146732571Y-96362523D01*
X146732571Y-95505380D01*
X146256380Y-95600619D02*
X146208761Y-95553000D01*
X146113523Y-95505380D01*
X145875428Y-95505380D01*
X145780190Y-95553000D01*
X145732571Y-95600619D01*
X145684952Y-95695857D01*
X145684952Y-95791095D01*
X145732571Y-95933952D01*
X146304000Y-96505380D01*
X145684952Y-96505380D01*
X144827809Y-95838714D02*
X144827809Y-96505380D01*
X145256380Y-95838714D02*
X145256380Y-96362523D01*
X145208761Y-96457761D01*
X145113523Y-96505380D01*
X144970666Y-96505380D01*
X144875428Y-96457761D01*
X144827809Y-96410142D01*
X144399238Y-96457761D02*
X144304000Y-96505380D01*
X144113523Y-96505380D01*
X144018285Y-96457761D01*
X143970666Y-96362523D01*
X143970666Y-96314904D01*
X144018285Y-96219666D01*
X144113523Y-96172047D01*
X144256380Y-96172047D01*
X144351619Y-96124428D01*
X144399238Y-96029190D01*
X144399238Y-95981571D01*
X144351619Y-95886333D01*
X144256380Y-95838714D01*
X144113523Y-95838714D01*
X144018285Y-95886333D01*
X143542095Y-96505380D02*
X143542095Y-95505380D01*
X143542095Y-95886333D02*
X143446857Y-95838714D01*
X143256380Y-95838714D01*
X143161142Y-95886333D01*
X143113523Y-95933952D01*
X143065904Y-96029190D01*
X143065904Y-96314904D01*
X143113523Y-96410142D01*
X143161142Y-96457761D01*
X143256380Y-96505380D01*
X143446857Y-96505380D01*
X143542095Y-96457761D01*
X141970666Y-95838714D02*
X141732571Y-96505380D01*
X141494476Y-95838714D01*
X140589714Y-96505380D02*
X141161142Y-96505380D01*
X140875428Y-96505380D02*
X140875428Y-95505380D01*
X140970666Y-95648238D01*
X141065904Y-95743476D01*
X141161142Y-95791095D01*
X151327809Y-97115380D02*
X150756380Y-97115380D01*
X151042095Y-98115380D02*
X151042095Y-97115380D01*
X150280190Y-98115380D02*
X150375428Y-98067761D01*
X150423047Y-98020142D01*
X150470666Y-97924904D01*
X150470666Y-97639190D01*
X150423047Y-97543952D01*
X150375428Y-97496333D01*
X150280190Y-97448714D01*
X150137333Y-97448714D01*
X150042095Y-97496333D01*
X149994476Y-97543952D01*
X149946857Y-97639190D01*
X149946857Y-97924904D01*
X149994476Y-98020142D01*
X150042095Y-98067761D01*
X150137333Y-98115380D01*
X150280190Y-98115380D01*
X149518285Y-98115380D02*
X149518285Y-97448714D01*
X149518285Y-97543952D02*
X149470666Y-97496333D01*
X149375428Y-97448714D01*
X149232571Y-97448714D01*
X149137333Y-97496333D01*
X149089714Y-97591571D01*
X149089714Y-98115380D01*
X149089714Y-97591571D02*
X149042095Y-97496333D01*
X148946857Y-97448714D01*
X148804000Y-97448714D01*
X148708761Y-97496333D01*
X148661142Y-97591571D01*
X148661142Y-98115380D01*
X147565904Y-97115380D02*
X147232571Y-98115380D01*
X146899238Y-97115380D01*
X146184952Y-98067761D02*
X146280190Y-98115380D01*
X146470666Y-98115380D01*
X146565904Y-98067761D01*
X146613523Y-97972523D01*
X146613523Y-97591571D01*
X146565904Y-97496333D01*
X146470666Y-97448714D01*
X146280190Y-97448714D01*
X146184952Y-97496333D01*
X146137333Y-97591571D01*
X146137333Y-97686809D01*
X146613523Y-97782047D01*
X145708761Y-98115380D02*
X145708761Y-97448714D01*
X145708761Y-97639190D02*
X145661142Y-97543952D01*
X145613523Y-97496333D01*
X145518285Y-97448714D01*
X145423047Y-97448714D01*
X145089714Y-98115380D02*
X145089714Y-97115380D01*
X145089714Y-97496333D02*
X144994476Y-97448714D01*
X144804000Y-97448714D01*
X144708761Y-97496333D01*
X144661142Y-97543952D01*
X144613523Y-97639190D01*
X144613523Y-97924904D01*
X144661142Y-98020142D01*
X144708761Y-98067761D01*
X144804000Y-98115380D01*
X144994476Y-98115380D01*
X145089714Y-98067761D01*
X143804000Y-98067761D02*
X143899238Y-98115380D01*
X144089714Y-98115380D01*
X144184952Y-98067761D01*
X144232571Y-97972523D01*
X144232571Y-97591571D01*
X144184952Y-97496333D01*
X144089714Y-97448714D01*
X143899238Y-97448714D01*
X143804000Y-97496333D01*
X143756380Y-97591571D01*
X143756380Y-97686809D01*
X144232571Y-97782047D01*
X142899238Y-97448714D02*
X142899238Y-98115380D01*
X143327809Y-97448714D02*
X143327809Y-97972523D01*
X143280190Y-98067761D01*
X143184952Y-98115380D01*
X143042095Y-98115380D01*
X142946857Y-98067761D01*
X142899238Y-98020142D01*
X142423047Y-98115380D02*
X142423047Y-97448714D01*
X142423047Y-97639190D02*
X142375428Y-97543952D01*
X142327809Y-97496333D01*
X142232571Y-97448714D01*
X142137333Y-97448714D01*
X141423047Y-98067761D02*
X141518285Y-98115380D01*
X141708761Y-98115380D01*
X141804000Y-98067761D01*
X141851619Y-97972523D01*
X141851619Y-97591571D01*
X141804000Y-97496333D01*
X141708761Y-97448714D01*
X141518285Y-97448714D01*
X141423047Y-97496333D01*
X141375428Y-97591571D01*
X141375428Y-97686809D01*
X141851619Y-97782047D01*
X163661142Y-99725380D02*
X163661142Y-98725380D01*
X163232571Y-99725380D02*
X163232571Y-99201571D01*
X163280190Y-99106333D01*
X163375428Y-99058714D01*
X163518285Y-99058714D01*
X163613523Y-99106333D01*
X163661142Y-99153952D01*
X162899238Y-99058714D02*
X162518285Y-99058714D01*
X162756380Y-98725380D02*
X162756380Y-99582523D01*
X162708761Y-99677761D01*
X162613523Y-99725380D01*
X162518285Y-99725380D01*
X162327809Y-99058714D02*
X161946857Y-99058714D01*
X162184952Y-98725380D02*
X162184952Y-99582523D01*
X162137333Y-99677761D01*
X162042095Y-99725380D01*
X161946857Y-99725380D01*
X161613523Y-99058714D02*
X161613523Y-100058714D01*
X161613523Y-99106333D02*
X161518285Y-99058714D01*
X161327809Y-99058714D01*
X161232571Y-99106333D01*
X161184952Y-99153952D01*
X161137333Y-99249190D01*
X161137333Y-99534904D01*
X161184952Y-99630142D01*
X161232571Y-99677761D01*
X161327809Y-99725380D01*
X161518285Y-99725380D01*
X161613523Y-99677761D01*
X160756380Y-99677761D02*
X160661142Y-99725380D01*
X160470666Y-99725380D01*
X160375428Y-99677761D01*
X160327809Y-99582523D01*
X160327809Y-99534904D01*
X160375428Y-99439666D01*
X160470666Y-99392047D01*
X160613523Y-99392047D01*
X160708761Y-99344428D01*
X160756380Y-99249190D01*
X160756380Y-99201571D01*
X160708761Y-99106333D01*
X160613523Y-99058714D01*
X160470666Y-99058714D01*
X160375428Y-99106333D01*
X159899238Y-99630142D02*
X159851619Y-99677761D01*
X159899238Y-99725380D01*
X159946857Y-99677761D01*
X159899238Y-99630142D01*
X159899238Y-99725380D01*
X159899238Y-99106333D02*
X159851619Y-99153952D01*
X159899238Y-99201571D01*
X159946857Y-99153952D01*
X159899238Y-99106333D01*
X159899238Y-99201571D01*
X158708761Y-98677761D02*
X159565904Y-99963476D01*
X157661142Y-98677761D02*
X158518285Y-99963476D01*
X156899238Y-99058714D02*
X156899238Y-99868238D01*
X156946857Y-99963476D01*
X156994476Y-100011095D01*
X157089714Y-100058714D01*
X157232571Y-100058714D01*
X157327809Y-100011095D01*
X156899238Y-99677761D02*
X156994476Y-99725380D01*
X157184952Y-99725380D01*
X157280190Y-99677761D01*
X157327809Y-99630142D01*
X157375428Y-99534904D01*
X157375428Y-99249190D01*
X157327809Y-99153952D01*
X157280190Y-99106333D01*
X157184952Y-99058714D01*
X156994476Y-99058714D01*
X156899238Y-99106333D01*
X156423047Y-99725380D02*
X156423047Y-99058714D01*
X156423047Y-98725380D02*
X156470666Y-98773000D01*
X156423047Y-98820619D01*
X156375428Y-98773000D01*
X156423047Y-98725380D01*
X156423047Y-98820619D01*
X156089714Y-99058714D02*
X155708761Y-99058714D01*
X155946857Y-98725380D02*
X155946857Y-99582523D01*
X155899238Y-99677761D01*
X155804000Y-99725380D01*
X155708761Y-99725380D01*
X155375428Y-99725380D02*
X155375428Y-98725380D01*
X154946857Y-99725380D02*
X154946857Y-99201571D01*
X154994476Y-99106333D01*
X155089714Y-99058714D01*
X155232571Y-99058714D01*
X155327809Y-99106333D01*
X155375428Y-99153952D01*
X154042095Y-99058714D02*
X154042095Y-99725380D01*
X154470666Y-99058714D02*
X154470666Y-99582523D01*
X154423047Y-99677761D01*
X154327809Y-99725380D01*
X154184952Y-99725380D01*
X154089714Y-99677761D01*
X154042095Y-99630142D01*
X153565904Y-99725380D02*
X153565904Y-98725380D01*
X153565904Y-99106333D02*
X153470666Y-99058714D01*
X153280190Y-99058714D01*
X153184952Y-99106333D01*
X153137333Y-99153952D01*
X153089714Y-99249190D01*
X153089714Y-99534904D01*
X153137333Y-99630142D01*
X153184952Y-99677761D01*
X153280190Y-99725380D01*
X153470666Y-99725380D01*
X153565904Y-99677761D01*
X152661142Y-99630142D02*
X152613523Y-99677761D01*
X152661142Y-99725380D01*
X152708761Y-99677761D01*
X152661142Y-99630142D01*
X152661142Y-99725380D01*
X151756380Y-99677761D02*
X151851619Y-99725380D01*
X152042095Y-99725380D01*
X152137333Y-99677761D01*
X152184952Y-99630142D01*
X152232571Y-99534904D01*
X152232571Y-99249190D01*
X152184952Y-99153952D01*
X152137333Y-99106333D01*
X152042095Y-99058714D01*
X151851619Y-99058714D01*
X151756380Y-99106333D01*
X151184952Y-99725380D02*
X151280190Y-99677761D01*
X151327809Y-99630142D01*
X151375428Y-99534904D01*
X151375428Y-99249190D01*
X151327809Y-99153952D01*
X151280190Y-99106333D01*
X151184952Y-99058714D01*
X151042095Y-99058714D01*
X150946857Y-99106333D01*
X150899238Y-99153952D01*
X150851619Y-99249190D01*
X150851619Y-99534904D01*
X150899238Y-99630142D01*
X150946857Y-99677761D01*
X151042095Y-99725380D01*
X151184952Y-99725380D01*
X150423047Y-99725380D02*
X150423047Y-99058714D01*
X150423047Y-99153952D02*
X150375428Y-99106333D01*
X150280190Y-99058714D01*
X150137333Y-99058714D01*
X150042095Y-99106333D01*
X149994476Y-99201571D01*
X149994476Y-99725380D01*
X149994476Y-99201571D02*
X149946857Y-99106333D01*
X149851619Y-99058714D01*
X149708761Y-99058714D01*
X149613523Y-99106333D01*
X149565904Y-99201571D01*
X149565904Y-99725380D01*
X148375428Y-98677761D02*
X149232571Y-99963476D01*
X148184952Y-99058714D02*
X147804000Y-99058714D01*
X148042095Y-98725380D02*
X148042095Y-99582523D01*
X147994476Y-99677761D01*
X147899238Y-99725380D01*
X147804000Y-99725380D01*
X147327809Y-99725380D02*
X147423047Y-99677761D01*
X147470666Y-99630142D01*
X147518285Y-99534904D01*
X147518285Y-99249190D01*
X147470666Y-99153952D01*
X147423047Y-99106333D01*
X147327809Y-99058714D01*
X147184952Y-99058714D01*
X147089714Y-99106333D01*
X147042095Y-99153952D01*
X146994476Y-99249190D01*
X146994476Y-99534904D01*
X147042095Y-99630142D01*
X147089714Y-99677761D01*
X147184952Y-99725380D01*
X147327809Y-99725380D01*
X146565904Y-99725380D02*
X146565904Y-99058714D01*
X146565904Y-99153952D02*
X146518285Y-99106333D01*
X146423047Y-99058714D01*
X146280190Y-99058714D01*
X146184952Y-99106333D01*
X146137333Y-99201571D01*
X146137333Y-99725380D01*
X146137333Y-99201571D02*
X146089714Y-99106333D01*
X145994476Y-99058714D01*
X145851619Y-99058714D01*
X145756380Y-99106333D01*
X145708761Y-99201571D01*
X145708761Y-99725380D01*
X145327809Y-99058714D02*
X145089714Y-99725380D01*
X144851619Y-99058714D01*
X144089714Y-99677761D02*
X144184952Y-99725380D01*
X144375428Y-99725380D01*
X144470666Y-99677761D01*
X144518285Y-99582523D01*
X144518285Y-99201571D01*
X144470666Y-99106333D01*
X144375428Y-99058714D01*
X144184952Y-99058714D01*
X144089714Y-99106333D01*
X144042095Y-99201571D01*
X144042095Y-99296809D01*
X144518285Y-99392047D01*
X143613523Y-99725380D02*
X143613523Y-99058714D01*
X143613523Y-99249190D02*
X143565904Y-99153952D01*
X143518285Y-99106333D01*
X143423047Y-99058714D01*
X143327809Y-99058714D01*
X142994476Y-99725380D02*
X142994476Y-98725380D01*
X142994476Y-99106333D02*
X142899238Y-99058714D01*
X142708761Y-99058714D01*
X142613523Y-99106333D01*
X142565904Y-99153952D01*
X142518285Y-99249190D01*
X142518285Y-99534904D01*
X142565904Y-99630142D01*
X142613523Y-99677761D01*
X142708761Y-99725380D01*
X142899238Y-99725380D01*
X142994476Y-99677761D01*
X141708761Y-99677761D02*
X141804000Y-99725380D01*
X141994476Y-99725380D01*
X142089714Y-99677761D01*
X142137333Y-99582523D01*
X142137333Y-99201571D01*
X142089714Y-99106333D01*
X141994476Y-99058714D01*
X141804000Y-99058714D01*
X141708761Y-99106333D01*
X141661142Y-99201571D01*
X141661142Y-99296809D01*
X142137333Y-99392047D01*
X140804000Y-99058714D02*
X140804000Y-99725380D01*
X141232571Y-99058714D02*
X141232571Y-99582523D01*
X141184952Y-99677761D01*
X141089714Y-99725380D01*
X140946857Y-99725380D01*
X140851619Y-99677761D01*
X140804000Y-99630142D01*
X140327809Y-99725380D02*
X140327809Y-99058714D01*
X140327809Y-99249190D02*
X140280190Y-99153952D01*
X140232571Y-99106333D01*
X140137333Y-99058714D01*
X140042095Y-99058714D01*
X139327809Y-99677761D02*
X139423047Y-99725380D01*
X139613523Y-99725380D01*
X139708761Y-99677761D01*
X139756380Y-99582523D01*
X139756380Y-99201571D01*
X139708761Y-99106333D01*
X139613523Y-99058714D01*
X139423047Y-99058714D01*
X139327809Y-99106333D01*
X139280190Y-99201571D01*
X139280190Y-99296809D01*
X139756380Y-99392047D01*
X138137333Y-98677761D02*
X138994476Y-99963476D01*
X137804000Y-99058714D02*
X137804000Y-100058714D01*
X137804000Y-99106333D02*
X137708761Y-99058714D01*
X137518285Y-99058714D01*
X137423047Y-99106333D01*
X137375428Y-99153952D01*
X137327809Y-99249190D01*
X137327809Y-99534904D01*
X137375428Y-99630142D01*
X137423047Y-99677761D01*
X137518285Y-99725380D01*
X137708761Y-99725380D01*
X137804000Y-99677761D01*
X136470666Y-99725380D02*
X136470666Y-99201571D01*
X136518285Y-99106333D01*
X136613523Y-99058714D01*
X136804000Y-99058714D01*
X136899238Y-99106333D01*
X136470666Y-99677761D02*
X136565904Y-99725380D01*
X136804000Y-99725380D01*
X136899238Y-99677761D01*
X136946857Y-99582523D01*
X136946857Y-99487285D01*
X136899238Y-99392047D01*
X136804000Y-99344428D01*
X136565904Y-99344428D01*
X136470666Y-99296809D01*
X135994476Y-99725380D02*
X135994476Y-99058714D01*
X135994476Y-99249190D02*
X135946857Y-99153952D01*
X135899238Y-99106333D01*
X135804000Y-99058714D01*
X135708761Y-99058714D01*
X134946857Y-99725380D02*
X134946857Y-99201571D01*
X134994476Y-99106333D01*
X135089714Y-99058714D01*
X135280190Y-99058714D01*
X135375428Y-99106333D01*
X134946857Y-99677761D02*
X135042095Y-99725380D01*
X135280190Y-99725380D01*
X135375428Y-99677761D01*
X135423047Y-99582523D01*
X135423047Y-99487285D01*
X135375428Y-99392047D01*
X135280190Y-99344428D01*
X135042095Y-99344428D01*
X134946857Y-99296809D01*
X134327809Y-99725380D02*
X134423047Y-99677761D01*
X134470666Y-99582523D01*
X134470666Y-98725380D01*
X133804000Y-99725380D02*
X133899238Y-99677761D01*
X133946857Y-99582523D01*
X133946857Y-98725380D01*
X133042095Y-99677761D02*
X133137333Y-99725380D01*
X133327809Y-99725380D01*
X133423047Y-99677761D01*
X133470666Y-99582523D01*
X133470666Y-99201571D01*
X133423047Y-99106333D01*
X133327809Y-99058714D01*
X133137333Y-99058714D01*
X133042095Y-99106333D01*
X132994476Y-99201571D01*
X132994476Y-99296809D01*
X133470666Y-99392047D01*
X132423047Y-99725380D02*
X132518285Y-99677761D01*
X132565904Y-99582523D01*
X132565904Y-98725380D01*
X132089714Y-98820619D02*
X132042095Y-98773000D01*
X131946857Y-98725380D01*
X131708761Y-98725380D01*
X131613523Y-98773000D01*
X131565904Y-98820619D01*
X131518285Y-98915857D01*
X131518285Y-99011095D01*
X131565904Y-99153952D01*
X132137333Y-99725380D01*
X131518285Y-99725380D01*
X130661142Y-99058714D02*
X130661142Y-99725380D01*
X131089714Y-99058714D02*
X131089714Y-99582523D01*
X131042095Y-99677761D01*
X130946857Y-99725380D01*
X130804000Y-99725380D01*
X130708761Y-99677761D01*
X130661142Y-99630142D01*
X130232571Y-99677761D02*
X130137333Y-99725380D01*
X129946857Y-99725380D01*
X129851619Y-99677761D01*
X129804000Y-99582523D01*
X129804000Y-99534904D01*
X129851619Y-99439666D01*
X129946857Y-99392047D01*
X130089714Y-99392047D01*
X130184952Y-99344428D01*
X130232571Y-99249190D01*
X130232571Y-99201571D01*
X130184952Y-99106333D01*
X130089714Y-99058714D01*
X129946857Y-99058714D01*
X129851619Y-99106333D01*
X129375428Y-99725380D02*
X129375428Y-98725380D01*
X129375428Y-99106333D02*
X129280190Y-99058714D01*
X129089714Y-99058714D01*
X128994476Y-99106333D01*
X128946857Y-99153952D01*
X128899238Y-99249190D01*
X128899238Y-99534904D01*
X128946857Y-99630142D01*
X128994476Y-99677761D01*
X129089714Y-99725380D01*
X129280190Y-99725380D01*
X129375428Y-99677761D01*
X193246285Y-85161380D02*
X193246285Y-84161380D01*
X192865333Y-84161380D01*
X192770095Y-84209000D01*
X192722476Y-84256619D01*
X192674857Y-84351857D01*
X192674857Y-84494714D01*
X192722476Y-84589952D01*
X192770095Y-84637571D01*
X192865333Y-84685190D01*
X193246285Y-84685190D01*
X192246285Y-84637571D02*
X191912952Y-84637571D01*
X191770095Y-85161380D02*
X192246285Y-85161380D01*
X192246285Y-84161380D01*
X191770095Y-84161380D01*
X193270095Y-118181380D02*
X193270095Y-117181380D01*
X193032000Y-117181380D01*
X192889142Y-117229000D01*
X192793904Y-117324238D01*
X192746285Y-117419476D01*
X192698666Y-117609952D01*
X192698666Y-117752809D01*
X192746285Y-117943285D01*
X192793904Y-118038523D01*
X192889142Y-118133761D01*
X193032000Y-118181380D01*
X193270095Y-118181380D01*
X192079619Y-117181380D02*
X191984380Y-117181380D01*
X191889142Y-117229000D01*
X191841523Y-117276619D01*
X191793904Y-117371857D01*
X191746285Y-117562333D01*
X191746285Y-117800428D01*
X191793904Y-117990904D01*
X191841523Y-118086142D01*
X191889142Y-118133761D01*
X191984380Y-118181380D01*
X192079619Y-118181380D01*
X192174857Y-118133761D01*
X192222476Y-118086142D01*
X192270095Y-117990904D01*
X192317714Y-117800428D01*
X192317714Y-117562333D01*
X192270095Y-117371857D01*
X192222476Y-117276619D01*
X192174857Y-117229000D01*
X192079619Y-117181380D01*
X193270095Y-102941380D02*
X193270095Y-101941380D01*
X193032000Y-101941380D01*
X192889142Y-101989000D01*
X192793904Y-102084238D01*
X192746285Y-102179476D01*
X192698666Y-102369952D01*
X192698666Y-102512809D01*
X192746285Y-102703285D01*
X192793904Y-102798523D01*
X192889142Y-102893761D01*
X193032000Y-102941380D01*
X193270095Y-102941380D01*
X192365333Y-101941380D02*
X191746285Y-101941380D01*
X192079619Y-102322333D01*
X191936761Y-102322333D01*
X191841523Y-102369952D01*
X191793904Y-102417571D01*
X191746285Y-102512809D01*
X191746285Y-102750904D01*
X191793904Y-102846142D01*
X191841523Y-102893761D01*
X191936761Y-102941380D01*
X192222476Y-102941380D01*
X192317714Y-102893761D01*
X192365333Y-102846142D01*
X193270095Y-95321380D02*
X193270095Y-94321380D01*
X193032000Y-94321380D01*
X192889142Y-94369000D01*
X192793904Y-94464238D01*
X192746285Y-94559476D01*
X192698666Y-94749952D01*
X192698666Y-94892809D01*
X192746285Y-95083285D01*
X192793904Y-95178523D01*
X192889142Y-95273761D01*
X193032000Y-95321380D01*
X193270095Y-95321380D01*
X191841523Y-94321380D02*
X192032000Y-94321380D01*
X192127238Y-94369000D01*
X192174857Y-94416619D01*
X192270095Y-94559476D01*
X192317714Y-94749952D01*
X192317714Y-95130904D01*
X192270095Y-95226142D01*
X192222476Y-95273761D01*
X192127238Y-95321380D01*
X191936761Y-95321380D01*
X191841523Y-95273761D01*
X191793904Y-95226142D01*
X191746285Y-95130904D01*
X191746285Y-94892809D01*
X191793904Y-94797571D01*
X191841523Y-94749952D01*
X191936761Y-94702333D01*
X192127238Y-94702333D01*
X192222476Y-94749952D01*
X192270095Y-94797571D01*
X192317714Y-94892809D01*
X192658904Y-124849000D02*
X192754142Y-124801380D01*
X192897000Y-124801380D01*
X193039857Y-124849000D01*
X193135095Y-124944238D01*
X193182714Y-125039476D01*
X193230333Y-125229952D01*
X193230333Y-125372809D01*
X193182714Y-125563285D01*
X193135095Y-125658523D01*
X193039857Y-125753761D01*
X192897000Y-125801380D01*
X192801761Y-125801380D01*
X192658904Y-125753761D01*
X192611285Y-125706142D01*
X192611285Y-125372809D01*
X192801761Y-125372809D01*
X192182714Y-125801380D02*
X192182714Y-124801380D01*
X191611285Y-125801380D01*
X191611285Y-124801380D01*
X191135095Y-125801380D02*
X191135095Y-124801380D01*
X190897000Y-124801380D01*
X190754142Y-124849000D01*
X190658904Y-124944238D01*
X190611285Y-125039476D01*
X190563666Y-125229952D01*
X190563666Y-125372809D01*
X190611285Y-125563285D01*
X190658904Y-125658523D01*
X190754142Y-125753761D01*
X190897000Y-125801380D01*
X191135095Y-125801380D01*
%TO.C,REF\u002A\u002A*%
G36*
X148230372Y-106848684D02*
G01*
X148321629Y-106891569D01*
X148396416Y-106965729D01*
X148411917Y-106988944D01*
X148424774Y-107015256D01*
X148433893Y-107048420D01*
X148440102Y-107094881D01*
X148444233Y-107161082D01*
X148447116Y-107253468D01*
X148449579Y-107378485D01*
X148455697Y-107725278D01*
X148404303Y-107705738D01*
X148357246Y-107687787D01*
X148322015Y-107670511D01*
X148299017Y-107648242D01*
X148285655Y-107614165D01*
X148279328Y-107561463D01*
X148277437Y-107483323D01*
X148277385Y-107372928D01*
X148277117Y-107284935D01*
X148275521Y-107200502D01*
X148271712Y-107142834D01*
X148264820Y-107104988D01*
X148253975Y-107080024D01*
X148238308Y-107061000D01*
X148199792Y-107034153D01*
X148135091Y-107024034D01*
X148071081Y-107049606D01*
X148066856Y-107052880D01*
X148053689Y-107068007D01*
X148043975Y-107092268D01*
X148036903Y-107131650D01*
X148031656Y-107192141D01*
X148027421Y-107279729D01*
X148023385Y-107400402D01*
X148013615Y-107723515D01*
X147847539Y-107649065D01*
X147847539Y-107354062D01*
X147847883Y-107273919D01*
X147850847Y-107162431D01*
X147858351Y-107079421D01*
X147872190Y-107018199D01*
X147894155Y-106972075D01*
X147926039Y-106934358D01*
X147969633Y-106898358D01*
X148032336Y-106862089D01*
X148131117Y-106838412D01*
X148230372Y-106848684D01*
G37*
D11*
X148230372Y-106848684D02*
X148321629Y-106891569D01*
X148396416Y-106965729D01*
X148411917Y-106988944D01*
X148424774Y-107015256D01*
X148433893Y-107048420D01*
X148440102Y-107094881D01*
X148444233Y-107161082D01*
X148447116Y-107253468D01*
X148449579Y-107378485D01*
X148455697Y-107725278D01*
X148404303Y-107705738D01*
X148357246Y-107687787D01*
X148322015Y-107670511D01*
X148299017Y-107648242D01*
X148285655Y-107614165D01*
X148279328Y-107561463D01*
X148277437Y-107483323D01*
X148277385Y-107372928D01*
X148277117Y-107284935D01*
X148275521Y-107200502D01*
X148271712Y-107142834D01*
X148264820Y-107104988D01*
X148253975Y-107080024D01*
X148238308Y-107061000D01*
X148199792Y-107034153D01*
X148135091Y-107024034D01*
X148071081Y-107049606D01*
X148066856Y-107052880D01*
X148053689Y-107068007D01*
X148043975Y-107092268D01*
X148036903Y-107131650D01*
X148031656Y-107192141D01*
X148027421Y-107279729D01*
X148023385Y-107400402D01*
X148013615Y-107723515D01*
X147847539Y-107649065D01*
X147847539Y-107354062D01*
X147847883Y-107273919D01*
X147850847Y-107162431D01*
X147858351Y-107079421D01*
X147872190Y-107018199D01*
X147894155Y-106972075D01*
X147926039Y-106934358D01*
X147969633Y-106898358D01*
X148032336Y-106862089D01*
X148131117Y-106838412D01*
X148230372Y-106848684D01*
G36*
X145266839Y-107371652D02*
G01*
X145255810Y-107475507D01*
X145231814Y-107553333D01*
X145192043Y-107612760D01*
X145133688Y-107661418D01*
X145078100Y-107689546D01*
X144984751Y-107705199D01*
X144891530Y-107688084D01*
X144807272Y-107640388D01*
X144740818Y-107564294D01*
X144732793Y-107550262D01*
X144722196Y-107525679D01*
X144714335Y-107494309D01*
X144708807Y-107450769D01*
X144705206Y-107389678D01*
X144703128Y-107305655D01*
X144703064Y-107298200D01*
X144838615Y-107298200D01*
X144839077Y-107369316D01*
X144841999Y-107433641D01*
X144849221Y-107475166D01*
X144862561Y-107503067D01*
X144883836Y-107526517D01*
X144888821Y-107531025D01*
X144952863Y-107564295D01*
X145020625Y-107560890D01*
X145083734Y-107521042D01*
X145102526Y-107500398D01*
X145118254Y-107473029D01*
X145127039Y-107435192D01*
X145130859Y-107377355D01*
X145131692Y-107289986D01*
X145131281Y-107223319D01*
X145128434Y-107158245D01*
X145121256Y-107116251D01*
X145107889Y-107088063D01*
X145086472Y-107064406D01*
X145073890Y-107053753D01*
X145008699Y-107025057D01*
X144940400Y-107029575D01*
X144881098Y-107067144D01*
X144868333Y-107082040D01*
X144852764Y-107110089D01*
X144843762Y-107149258D01*
X144839617Y-107208858D01*
X144838615Y-107298200D01*
X144703064Y-107298200D01*
X144702167Y-107193320D01*
X144701919Y-107047289D01*
X144701846Y-106593963D01*
X144765346Y-106620564D01*
X144782136Y-106627845D01*
X144808859Y-106644287D01*
X144824156Y-106669187D01*
X144832563Y-106712732D01*
X144838615Y-106785106D01*
X144844144Y-106850089D01*
X144851450Y-106892750D01*
X144861918Y-106908670D01*
X144877692Y-106904400D01*
X144917890Y-106889397D01*
X144989728Y-106885678D01*
X145067010Y-106899572D01*
X145133688Y-106929505D01*
X145170371Y-106957211D01*
X145217472Y-107011269D01*
X145247638Y-107080577D01*
X145263678Y-107172765D01*
X145268191Y-107289986D01*
X145268401Y-107295462D01*
X145266839Y-107371652D01*
G37*
X145266839Y-107371652D02*
X145255810Y-107475507D01*
X145231814Y-107553333D01*
X145192043Y-107612760D01*
X145133688Y-107661418D01*
X145078100Y-107689546D01*
X144984751Y-107705199D01*
X144891530Y-107688084D01*
X144807272Y-107640388D01*
X144740818Y-107564294D01*
X144732793Y-107550262D01*
X144722196Y-107525679D01*
X144714335Y-107494309D01*
X144708807Y-107450769D01*
X144705206Y-107389678D01*
X144703128Y-107305655D01*
X144703064Y-107298200D01*
X144838615Y-107298200D01*
X144839077Y-107369316D01*
X144841999Y-107433641D01*
X144849221Y-107475166D01*
X144862561Y-107503067D01*
X144883836Y-107526517D01*
X144888821Y-107531025D01*
X144952863Y-107564295D01*
X145020625Y-107560890D01*
X145083734Y-107521042D01*
X145102526Y-107500398D01*
X145118254Y-107473029D01*
X145127039Y-107435192D01*
X145130859Y-107377355D01*
X145131692Y-107289986D01*
X145131281Y-107223319D01*
X145128434Y-107158245D01*
X145121256Y-107116251D01*
X145107889Y-107088063D01*
X145086472Y-107064406D01*
X145073890Y-107053753D01*
X145008699Y-107025057D01*
X144940400Y-107029575D01*
X144881098Y-107067144D01*
X144868333Y-107082040D01*
X144852764Y-107110089D01*
X144843762Y-107149258D01*
X144839617Y-107208858D01*
X144838615Y-107298200D01*
X144703064Y-107298200D01*
X144702167Y-107193320D01*
X144701919Y-107047289D01*
X144701846Y-106593963D01*
X144765346Y-106620564D01*
X144782136Y-106627845D01*
X144808859Y-106644287D01*
X144824156Y-106669187D01*
X144832563Y-106712732D01*
X144838615Y-106785106D01*
X144844144Y-106850089D01*
X144851450Y-106892750D01*
X144861918Y-106908670D01*
X144877692Y-106904400D01*
X144917890Y-106889397D01*
X144989728Y-106885678D01*
X145067010Y-106899572D01*
X145133688Y-106929505D01*
X145170371Y-106957211D01*
X145217472Y-107011269D01*
X145247638Y-107080577D01*
X145263678Y-107172765D01*
X145268191Y-107289986D01*
X145268401Y-107295462D01*
X145266839Y-107371652D01*
G36*
X147280923Y-106648806D02*
G01*
X147280923Y-107183455D01*
X147280660Y-107322094D01*
X147279958Y-107446805D01*
X147278883Y-107552557D01*
X147277500Y-107634322D01*
X147275874Y-107687069D01*
X147274070Y-107705769D01*
X147273364Y-107705706D01*
X147249387Y-107698912D01*
X147205685Y-107684320D01*
X147144154Y-107662870D01*
X147144154Y-107387617D01*
X147143763Y-107279466D01*
X147141946Y-107201026D01*
X147137767Y-107147647D01*
X147130286Y-107112256D01*
X147118567Y-107087779D01*
X147101671Y-107067144D01*
X147090152Y-107056170D01*
X147027864Y-107025775D01*
X146959211Y-107028466D01*
X146896298Y-107064406D01*
X146887139Y-107073325D01*
X146872471Y-107091844D01*
X146862433Y-107116326D01*
X146856151Y-107153393D01*
X146852748Y-107209667D01*
X146851349Y-107291771D01*
X146851077Y-107406329D01*
X146850947Y-107464430D01*
X146850099Y-107559993D01*
X146848594Y-107636526D01*
X146846585Y-107687345D01*
X146844223Y-107705769D01*
X146843518Y-107705706D01*
X146819541Y-107698912D01*
X146775839Y-107684320D01*
X146714308Y-107662870D01*
X146714338Y-107386358D01*
X146714384Y-107361742D01*
X146716970Y-107233419D01*
X146724913Y-107136384D01*
X146740155Y-107064057D01*
X146764636Y-107009855D01*
X146800298Y-106967198D01*
X146849082Y-106929505D01*
X146896661Y-106905910D01*
X146972732Y-106887672D01*
X147047556Y-106886636D01*
X147105077Y-106904378D01*
X147109402Y-106906829D01*
X147122738Y-106906566D01*
X147131851Y-106886039D01*
X147138428Y-106838980D01*
X147144154Y-106759120D01*
X147153923Y-106595236D01*
X147280923Y-106648806D01*
G37*
X147280923Y-106648806D02*
X147280923Y-107183455D01*
X147280660Y-107322094D01*
X147279958Y-107446805D01*
X147278883Y-107552557D01*
X147277500Y-107634322D01*
X147275874Y-107687069D01*
X147274070Y-107705769D01*
X147273364Y-107705706D01*
X147249387Y-107698912D01*
X147205685Y-107684320D01*
X147144154Y-107662870D01*
X147144154Y-107387617D01*
X147143763Y-107279466D01*
X147141946Y-107201026D01*
X147137767Y-107147647D01*
X147130286Y-107112256D01*
X147118567Y-107087779D01*
X147101671Y-107067144D01*
X147090152Y-107056170D01*
X147027864Y-107025775D01*
X146959211Y-107028466D01*
X146896298Y-107064406D01*
X146887139Y-107073325D01*
X146872471Y-107091844D01*
X146862433Y-107116326D01*
X146856151Y-107153393D01*
X146852748Y-107209667D01*
X146851349Y-107291771D01*
X146851077Y-107406329D01*
X146850947Y-107464430D01*
X146850099Y-107559993D01*
X146848594Y-107636526D01*
X146846585Y-107687345D01*
X146844223Y-107705769D01*
X146843518Y-107705706D01*
X146819541Y-107698912D01*
X146775839Y-107684320D01*
X146714308Y-107662870D01*
X146714338Y-107386358D01*
X146714384Y-107361742D01*
X146716970Y-107233419D01*
X146724913Y-107136384D01*
X146740155Y-107064057D01*
X146764636Y-107009855D01*
X146800298Y-106967198D01*
X146849082Y-106929505D01*
X146896661Y-106905910D01*
X146972732Y-106887672D01*
X147047556Y-106886636D01*
X147105077Y-106904378D01*
X147109402Y-106906829D01*
X147122738Y-106906566D01*
X147131851Y-106886039D01*
X147138428Y-106838980D01*
X147144154Y-106759120D01*
X147153923Y-106595236D01*
X147280923Y-106648806D01*
G36*
X146424458Y-106906228D02*
G01*
X146491622Y-106945389D01*
X146521169Y-106975902D01*
X146577948Y-107067110D01*
X146597077Y-107166548D01*
X146597077Y-107234960D01*
X146534191Y-107208518D01*
X146490700Y-107181837D01*
X146456426Y-107126446D01*
X146452907Y-107115024D01*
X146415028Y-107056838D01*
X146357936Y-107025407D01*
X146292383Y-107024058D01*
X146229117Y-107056116D01*
X146219672Y-107064383D01*
X146188087Y-107100311D01*
X146182871Y-107131635D01*
X146206765Y-107162391D01*
X146262510Y-107196617D01*
X146352846Y-107238350D01*
X146358956Y-107240993D01*
X146459241Y-107287755D01*
X146527735Y-107329181D01*
X146569899Y-107370542D01*
X146591193Y-107417111D01*
X146597077Y-107474160D01*
X146589366Y-107537408D01*
X146550430Y-107618364D01*
X146481932Y-107676522D01*
X146432388Y-107693983D01*
X146362469Y-107703537D01*
X146294575Y-107701496D01*
X146246093Y-107687082D01*
X146240943Y-107683493D01*
X146227267Y-107658416D01*
X146236757Y-107614218D01*
X146253246Y-107579527D01*
X146279687Y-107565084D01*
X146329834Y-107565803D01*
X146399453Y-107561660D01*
X146444943Y-107533054D01*
X146460308Y-107480104D01*
X146460294Y-107478582D01*
X146450983Y-107447845D01*
X146419311Y-107419643D01*
X146357731Y-107387136D01*
X146273986Y-107347998D01*
X146218518Y-107326706D01*
X146186497Y-107328079D01*
X146171534Y-107356203D01*
X146167242Y-107415170D01*
X146167231Y-107509068D01*
X146166752Y-107567031D01*
X146164556Y-107638612D01*
X146160986Y-107687606D01*
X146156491Y-107705769D01*
X146155290Y-107705646D01*
X146129319Y-107695802D01*
X146086305Y-107675028D01*
X146026859Y-107644287D01*
X146033923Y-107367298D01*
X146034414Y-107348928D01*
X146040025Y-107219992D01*
X146049938Y-107122814D01*
X146066175Y-107050925D01*
X146090759Y-106997852D01*
X146125715Y-106957127D01*
X146173064Y-106922279D01*
X146173940Y-106921733D01*
X146250499Y-106893303D01*
X146339044Y-106888500D01*
X146424458Y-106906228D01*
G37*
X146424458Y-106906228D02*
X146491622Y-106945389D01*
X146521169Y-106975902D01*
X146577948Y-107067110D01*
X146597077Y-107166548D01*
X146597077Y-107234960D01*
X146534191Y-107208518D01*
X146490700Y-107181837D01*
X146456426Y-107126446D01*
X146452907Y-107115024D01*
X146415028Y-107056838D01*
X146357936Y-107025407D01*
X146292383Y-107024058D01*
X146229117Y-107056116D01*
X146219672Y-107064383D01*
X146188087Y-107100311D01*
X146182871Y-107131635D01*
X146206765Y-107162391D01*
X146262510Y-107196617D01*
X146352846Y-107238350D01*
X146358956Y-107240993D01*
X146459241Y-107287755D01*
X146527735Y-107329181D01*
X146569899Y-107370542D01*
X146591193Y-107417111D01*
X146597077Y-107474160D01*
X146589366Y-107537408D01*
X146550430Y-107618364D01*
X146481932Y-107676522D01*
X146432388Y-107693983D01*
X146362469Y-107703537D01*
X146294575Y-107701496D01*
X146246093Y-107687082D01*
X146240943Y-107683493D01*
X146227267Y-107658416D01*
X146236757Y-107614218D01*
X146253246Y-107579527D01*
X146279687Y-107565084D01*
X146329834Y-107565803D01*
X146399453Y-107561660D01*
X146444943Y-107533054D01*
X146460308Y-107480104D01*
X146460294Y-107478582D01*
X146450983Y-107447845D01*
X146419311Y-107419643D01*
X146357731Y-107387136D01*
X146273986Y-107347998D01*
X146218518Y-107326706D01*
X146186497Y-107328079D01*
X146171534Y-107356203D01*
X146167242Y-107415170D01*
X146167231Y-107509068D01*
X146166752Y-107567031D01*
X146164556Y-107638612D01*
X146160986Y-107687606D01*
X146156491Y-107705769D01*
X146155290Y-107705646D01*
X146129319Y-107695802D01*
X146086305Y-107675028D01*
X146026859Y-107644287D01*
X146033923Y-107367298D01*
X146034414Y-107348928D01*
X146040025Y-107219992D01*
X146049938Y-107122814D01*
X146066175Y-107050925D01*
X146090759Y-106997852D01*
X146125715Y-106957127D01*
X146173064Y-106922279D01*
X146173940Y-106921733D01*
X146250499Y-106893303D01*
X146339044Y-106888500D01*
X146424458Y-106906228D01*
G36*
X149953763Y-107515269D02*
G01*
X149954300Y-107558802D01*
X149956019Y-107704344D01*
X149956365Y-107815711D01*
X149954277Y-107896804D01*
X149948698Y-107951522D01*
X149938567Y-107983761D01*
X149922826Y-107997422D01*
X149900417Y-107996403D01*
X149870280Y-107984603D01*
X149831355Y-107965920D01*
X149823038Y-107961933D01*
X149788402Y-107942419D01*
X149770314Y-107919202D01*
X149763392Y-107880492D01*
X149762256Y-107814497D01*
X149762205Y-107696000D01*
X149640141Y-107696000D01*
X149565055Y-107692712D01*
X149506015Y-107679377D01*
X149456986Y-107652423D01*
X149453330Y-107649788D01*
X149403581Y-107605286D01*
X149368959Y-107551523D01*
X149347123Y-107481154D01*
X149335737Y-107386830D01*
X149332959Y-107280271D01*
X149527846Y-107280271D01*
X149527880Y-107298131D01*
X149529735Y-107378748D01*
X149535693Y-107431447D01*
X149547506Y-107465668D01*
X149566923Y-107490846D01*
X149568133Y-107492049D01*
X149615858Y-107524628D01*
X149662110Y-107521417D01*
X149714350Y-107481965D01*
X149727128Y-107468482D01*
X149745949Y-107440837D01*
X149756562Y-107404880D01*
X149761252Y-107350364D01*
X149762308Y-107267042D01*
X149761394Y-107216598D01*
X149751477Y-107124857D01*
X149728842Y-107064752D01*
X149691238Y-107031900D01*
X149636416Y-107021923D01*
X149613317Y-107024050D01*
X149573350Y-107045147D01*
X149546926Y-107092161D01*
X149532330Y-107169175D01*
X149527846Y-107280271D01*
X149332959Y-107280271D01*
X149332462Y-107261206D01*
X149333187Y-107169536D01*
X149336490Y-107100098D01*
X149343828Y-107051945D01*
X149356655Y-107015866D01*
X149376423Y-106982648D01*
X149394569Y-106957261D01*
X149460461Y-106888727D01*
X149535114Y-106851505D01*
X149628904Y-106839722D01*
X149736240Y-106851467D01*
X149829031Y-106893595D01*
X149902421Y-106967898D01*
X149907954Y-106975764D01*
X149920857Y-106996668D01*
X149930742Y-107020555D01*
X149938093Y-107052582D01*
X149943394Y-107097905D01*
X149947127Y-107161679D01*
X149949778Y-107249060D01*
X149950096Y-107267042D01*
X149951828Y-107365205D01*
X149953763Y-107515269D01*
G37*
X149953763Y-107515269D02*
X149954300Y-107558802D01*
X149956019Y-107704344D01*
X149956365Y-107815711D01*
X149954277Y-107896804D01*
X149948698Y-107951522D01*
X149938567Y-107983761D01*
X149922826Y-107997422D01*
X149900417Y-107996403D01*
X149870280Y-107984603D01*
X149831355Y-107965920D01*
X149823038Y-107961933D01*
X149788402Y-107942419D01*
X149770314Y-107919202D01*
X149763392Y-107880492D01*
X149762256Y-107814497D01*
X149762205Y-107696000D01*
X149640141Y-107696000D01*
X149565055Y-107692712D01*
X149506015Y-107679377D01*
X149456986Y-107652423D01*
X149453330Y-107649788D01*
X149403581Y-107605286D01*
X149368959Y-107551523D01*
X149347123Y-107481154D01*
X149335737Y-107386830D01*
X149332959Y-107280271D01*
X149527846Y-107280271D01*
X149527880Y-107298131D01*
X149529735Y-107378748D01*
X149535693Y-107431447D01*
X149547506Y-107465668D01*
X149566923Y-107490846D01*
X149568133Y-107492049D01*
X149615858Y-107524628D01*
X149662110Y-107521417D01*
X149714350Y-107481965D01*
X149727128Y-107468482D01*
X149745949Y-107440837D01*
X149756562Y-107404880D01*
X149761252Y-107350364D01*
X149762308Y-107267042D01*
X149761394Y-107216598D01*
X149751477Y-107124857D01*
X149728842Y-107064752D01*
X149691238Y-107031900D01*
X149636416Y-107021923D01*
X149613317Y-107024050D01*
X149573350Y-107045147D01*
X149546926Y-107092161D01*
X149532330Y-107169175D01*
X149527846Y-107280271D01*
X149332959Y-107280271D01*
X149332462Y-107261206D01*
X149333187Y-107169536D01*
X149336490Y-107100098D01*
X149343828Y-107051945D01*
X149356655Y-107015866D01*
X149376423Y-106982648D01*
X149394569Y-106957261D01*
X149460461Y-106888727D01*
X149535114Y-106851505D01*
X149628904Y-106839722D01*
X149736240Y-106851467D01*
X149829031Y-106893595D01*
X149902421Y-106967898D01*
X149907954Y-106975764D01*
X149920857Y-106996668D01*
X149930742Y-107020555D01*
X149938093Y-107052582D01*
X149943394Y-107097905D01*
X149947127Y-107161679D01*
X149949778Y-107249060D01*
X149950096Y-107267042D01*
X149951828Y-107365205D01*
X149953763Y-107515269D01*
G36*
X150700135Y-107297105D02*
G01*
X150699076Y-107391584D01*
X150695436Y-107457414D01*
X150687892Y-107503394D01*
X150675122Y-107538321D01*
X150655803Y-107570995D01*
X150651050Y-107577775D01*
X150600759Y-107631231D01*
X150543457Y-107671547D01*
X150514032Y-107684629D01*
X150408299Y-107706450D01*
X150303734Y-107692336D01*
X150207368Y-107644105D01*
X150126235Y-107563579D01*
X150119385Y-107552791D01*
X150097097Y-107490153D01*
X150082079Y-107402935D01*
X150074792Y-107302210D01*
X150075611Y-107209037D01*
X150272796Y-107209037D01*
X150274349Y-107338114D01*
X150274974Y-107346420D01*
X150284077Y-107417643D01*
X150300288Y-107462809D01*
X150327660Y-107493752D01*
X150373553Y-107522737D01*
X150418942Y-107524261D01*
X150465692Y-107490846D01*
X150473824Y-107482053D01*
X150489754Y-107455741D01*
X150499159Y-107417520D01*
X150503632Y-107358349D01*
X150504769Y-107269182D01*
X150502822Y-107185664D01*
X150493105Y-107106095D01*
X150473047Y-107055808D01*
X150440240Y-107029513D01*
X150392280Y-107021923D01*
X150374016Y-107023432D01*
X150322848Y-107051107D01*
X150289035Y-107113172D01*
X150272796Y-107209037D01*
X150075611Y-107209037D01*
X150075699Y-107199052D01*
X150085262Y-107104533D01*
X150103943Y-107029727D01*
X150127951Y-106979905D01*
X150195536Y-106902409D01*
X150287114Y-106854256D01*
X150399213Y-106837703D01*
X150429151Y-106838599D01*
X150517315Y-106856929D01*
X150589733Y-106903104D01*
X150656192Y-106982648D01*
X150660147Y-106988548D01*
X150678040Y-107020288D01*
X150689678Y-107056163D01*
X150696371Y-107104906D01*
X150699426Y-107175249D01*
X150700106Y-107269182D01*
X150700154Y-107275923D01*
X150700135Y-107297105D01*
G37*
X150700135Y-107297105D02*
X150699076Y-107391584D01*
X150695436Y-107457414D01*
X150687892Y-107503394D01*
X150675122Y-107538321D01*
X150655803Y-107570995D01*
X150651050Y-107577775D01*
X150600759Y-107631231D01*
X150543457Y-107671547D01*
X150514032Y-107684629D01*
X150408299Y-107706450D01*
X150303734Y-107692336D01*
X150207368Y-107644105D01*
X150126235Y-107563579D01*
X150119385Y-107552791D01*
X150097097Y-107490153D01*
X150082079Y-107402935D01*
X150074792Y-107302210D01*
X150075611Y-107209037D01*
X150272796Y-107209037D01*
X150274349Y-107338114D01*
X150274974Y-107346420D01*
X150284077Y-107417643D01*
X150300288Y-107462809D01*
X150327660Y-107493752D01*
X150373553Y-107522737D01*
X150418942Y-107524261D01*
X150465692Y-107490846D01*
X150473824Y-107482053D01*
X150489754Y-107455741D01*
X150499159Y-107417520D01*
X150503632Y-107358349D01*
X150504769Y-107269182D01*
X150502822Y-107185664D01*
X150493105Y-107106095D01*
X150473047Y-107055808D01*
X150440240Y-107029513D01*
X150392280Y-107021923D01*
X150374016Y-107023432D01*
X150322848Y-107051107D01*
X150289035Y-107113172D01*
X150272796Y-107209037D01*
X150075611Y-107209037D01*
X150075699Y-107199052D01*
X150085262Y-107104533D01*
X150103943Y-107029727D01*
X150127951Y-106979905D01*
X150195536Y-106902409D01*
X150287114Y-106854256D01*
X150399213Y-106837703D01*
X150429151Y-106838599D01*
X150517315Y-106856929D01*
X150589733Y-106903104D01*
X150656192Y-106982648D01*
X150660147Y-106988548D01*
X150678040Y-107020288D01*
X150689678Y-107056163D01*
X150696371Y-107104906D01*
X150699426Y-107175249D01*
X150700106Y-107269182D01*
X150700154Y-107275923D01*
X150700135Y-107297105D01*
G36*
X146321575Y-100554693D02*
G01*
X146457371Y-100554807D01*
X146559576Y-100555472D01*
X146633122Y-100557182D01*
X146682942Y-100560429D01*
X146713967Y-100565706D01*
X146731129Y-100573507D01*
X146739361Y-100584325D01*
X146743594Y-100598654D01*
X146743716Y-100599168D01*
X146750672Y-100632851D01*
X146763320Y-100697917D01*
X146780360Y-100787542D01*
X146800496Y-100894904D01*
X146822429Y-101013178D01*
X146824218Y-101022856D01*
X146846083Y-101137650D01*
X146866430Y-101238480D01*
X146883934Y-101319217D01*
X146897271Y-101373734D01*
X146905116Y-101395901D01*
X146905158Y-101395936D01*
X146929884Y-101408200D01*
X146980631Y-101428576D01*
X147046462Y-101452674D01*
X147050169Y-101453983D01*
X147134331Y-101485791D01*
X147232230Y-101525685D01*
X147323435Y-101565353D01*
X147473407Y-101633420D01*
X147805499Y-101406639D01*
X147828889Y-101390688D01*
X147929080Y-101322890D01*
X148018480Y-101263208D01*
X148091745Y-101215156D01*
X148143527Y-101182250D01*
X148168480Y-101168004D01*
X148185577Y-101171270D01*
X148224395Y-101196571D01*
X148284385Y-101246675D01*
X148367210Y-101322989D01*
X148474535Y-101426922D01*
X148484139Y-101436382D01*
X148569302Y-101521145D01*
X148644949Y-101597937D01*
X148706449Y-101661947D01*
X148749173Y-101708361D01*
X148768489Y-101732369D01*
X148768552Y-101732485D01*
X148771006Y-101750763D01*
X148761956Y-101780411D01*
X148739119Y-101825486D01*
X148700213Y-101890044D01*
X148642954Y-101978140D01*
X148565059Y-102093830D01*
X148551785Y-102113357D01*
X148484652Y-102212278D01*
X148425410Y-102299848D01*
X148377588Y-102370831D01*
X148344715Y-102419991D01*
X148330318Y-102442095D01*
X148329232Y-102446777D01*
X148336044Y-102481710D01*
X148356450Y-102538753D01*
X148387123Y-102608172D01*
X148428808Y-102698959D01*
X148475352Y-102806686D01*
X148514877Y-102904192D01*
X148524676Y-102929430D01*
X148550340Y-102993870D01*
X148569193Y-103038763D01*
X148577710Y-103055616D01*
X148587111Y-103056875D01*
X148629363Y-103064159D01*
X148698521Y-103076739D01*
X148787387Y-103093246D01*
X148888768Y-103112312D01*
X148995467Y-103132569D01*
X149100288Y-103152647D01*
X149196036Y-103171179D01*
X149275516Y-103186795D01*
X149331530Y-103198127D01*
X149356885Y-103203807D01*
X149361088Y-103205408D01*
X149371334Y-103214045D01*
X149378957Y-103232433D01*
X149384338Y-103265460D01*
X149387859Y-103318013D01*
X149389901Y-103394979D01*
X149390847Y-103501246D01*
X149391077Y-103641701D01*
X149391077Y-104068845D01*
X149288500Y-104089091D01*
X149276092Y-104091518D01*
X149210199Y-104104088D01*
X149119084Y-104121170D01*
X149013104Y-104140829D01*
X148902615Y-104161132D01*
X148859105Y-104169299D01*
X148761882Y-104189167D01*
X148680858Y-104207954D01*
X148623477Y-104223859D01*
X148597187Y-104235079D01*
X148585273Y-104253411D01*
X148563583Y-104301916D01*
X148541395Y-104364692D01*
X148533585Y-104388200D01*
X148504835Y-104465366D01*
X148467752Y-104556694D01*
X148428375Y-104647093D01*
X148407315Y-104694310D01*
X148377311Y-104764837D01*
X148356692Y-104817655D01*
X148349026Y-104843912D01*
X148349452Y-104845894D01*
X148363993Y-104873751D01*
X148396783Y-104927510D01*
X148444493Y-105001963D01*
X148503798Y-105091897D01*
X148571369Y-105192104D01*
X148793713Y-105518416D01*
X148501601Y-105811016D01*
X148473349Y-105839171D01*
X148386961Y-105923449D01*
X148309756Y-105996128D01*
X148246258Y-106053112D01*
X148200990Y-106090307D01*
X148178474Y-106103616D01*
X148154023Y-106093490D01*
X148102819Y-106064421D01*
X148030747Y-106019896D01*
X147943460Y-105963411D01*
X147846612Y-105898462D01*
X147751486Y-105834314D01*
X147665669Y-105777827D01*
X147595652Y-105733184D01*
X147546876Y-105703855D01*
X147524783Y-105693308D01*
X147523488Y-105693404D01*
X147494139Y-105703802D01*
X147442093Y-105728012D01*
X147377708Y-105761249D01*
X147377032Y-105761613D01*
X147291521Y-105804441D01*
X147232926Y-105825365D01*
X147196571Y-105825423D01*
X147177775Y-105805654D01*
X147169819Y-105786195D01*
X147148347Y-105734080D01*
X147115273Y-105653964D01*
X147072356Y-105550107D01*
X147021356Y-105426767D01*
X146964033Y-105288201D01*
X146902146Y-105138670D01*
X146846052Y-105002636D01*
X146788977Y-104863050D01*
X146738479Y-104738315D01*
X146696254Y-104632672D01*
X146663995Y-104550365D01*
X146643397Y-104495635D01*
X146636154Y-104472726D01*
X146649986Y-104451718D01*
X146688412Y-104416642D01*
X146742807Y-104375887D01*
X146873395Y-104269267D01*
X146990260Y-104133025D01*
X147075780Y-103983118D01*
X147129431Y-103823971D01*
X147150684Y-103660012D01*
X147139014Y-103495667D01*
X147093894Y-103335361D01*
X147014797Y-103183520D01*
X146901197Y-103044572D01*
X146841965Y-102990460D01*
X146700054Y-102894782D01*
X146548206Y-102832405D01*
X146390861Y-102801844D01*
X146232456Y-102801615D01*
X146077429Y-102830232D01*
X145930220Y-102886210D01*
X145795266Y-102968064D01*
X145677005Y-103074309D01*
X145579877Y-103203459D01*
X145508318Y-103354031D01*
X145466769Y-103524539D01*
X145459143Y-103606722D01*
X145469634Y-103784775D01*
X145516882Y-103953704D01*
X145599489Y-104110522D01*
X145716059Y-104252245D01*
X145865193Y-104375887D01*
X145917561Y-104414982D01*
X145956832Y-104450443D01*
X145971846Y-104472692D01*
X145965859Y-104492088D01*
X145946432Y-104544059D01*
X145915194Y-104624002D01*
X145873839Y-104727673D01*
X145824061Y-104850832D01*
X145767553Y-104989234D01*
X145706009Y-105138637D01*
X145650008Y-105274020D01*
X145592184Y-105413852D01*
X145540500Y-105538872D01*
X145496718Y-105644822D01*
X145462597Y-105727441D01*
X145439898Y-105782472D01*
X145430380Y-105805654D01*
X145430269Y-105805928D01*
X145411228Y-105825503D01*
X145374694Y-105825279D01*
X145315954Y-105804210D01*
X145230292Y-105761249D01*
X145223549Y-105757631D01*
X145159938Y-105725087D01*
X145109707Y-105702050D01*
X145083218Y-105693308D01*
X145061506Y-105703639D01*
X145012984Y-105732788D01*
X144943163Y-105777287D01*
X144857484Y-105833668D01*
X144761388Y-105898462D01*
X144666706Y-105961984D01*
X144579132Y-106018705D01*
X144506642Y-106063547D01*
X144454889Y-106093016D01*
X144429526Y-106103616D01*
X144425206Y-106102270D01*
X144395092Y-106081056D01*
X144343640Y-106037237D01*
X144275375Y-105974909D01*
X144194820Y-105898170D01*
X144106500Y-105811116D01*
X143814488Y-105518617D01*
X144269360Y-104849525D01*
X144200208Y-104699916D01*
X144200003Y-104699473D01*
X144158477Y-104604101D01*
X144116044Y-104497896D01*
X144081858Y-104403769D01*
X144076684Y-104388588D01*
X144050601Y-104318109D01*
X144027081Y-104263342D01*
X144010677Y-104235079D01*
X144003996Y-104231088D01*
X143963892Y-104217697D01*
X143895795Y-104200373D01*
X143807145Y-104180917D01*
X143705385Y-104161132D01*
X143674904Y-104155551D01*
X143564628Y-104135233D01*
X143461731Y-104116095D01*
X143376569Y-104100070D01*
X143319500Y-104089091D01*
X143216923Y-104068845D01*
X143216923Y-103641701D01*
X143216946Y-103589180D01*
X143217379Y-103461047D01*
X143218659Y-103365420D01*
X143221168Y-103297411D01*
X143225286Y-103252133D01*
X143231395Y-103224697D01*
X143239878Y-103210218D01*
X143251115Y-103203807D01*
X143261994Y-103201209D01*
X143306347Y-103192022D01*
X143377106Y-103177991D01*
X143467074Y-103160486D01*
X143569056Y-103140874D01*
X143675857Y-103120525D01*
X143780281Y-103100807D01*
X143875132Y-103083089D01*
X143953214Y-103068738D01*
X144007332Y-103059124D01*
X144030291Y-103055616D01*
X144031842Y-103053497D01*
X144044325Y-103026006D01*
X144065927Y-102973406D01*
X144093123Y-102904192D01*
X144130866Y-102810937D01*
X144177328Y-102703159D01*
X144220878Y-102608172D01*
X144230858Y-102586851D01*
X144258862Y-102520086D01*
X144275641Y-102468590D01*
X144277854Y-102442095D01*
X144276713Y-102440218D01*
X144258584Y-102412565D01*
X144222644Y-102358849D01*
X144172418Y-102284303D01*
X144111430Y-102194162D01*
X144043205Y-102093657D01*
X143966330Y-101979470D01*
X143908663Y-101890770D01*
X143869426Y-101825721D01*
X143846350Y-101780295D01*
X143837166Y-101750463D01*
X143839604Y-101732195D01*
X143840424Y-101730825D01*
X143862477Y-101704205D01*
X143907436Y-101655697D01*
X143970673Y-101590108D01*
X144047559Y-101512247D01*
X144133465Y-101426922D01*
X144222579Y-101340334D01*
X144309872Y-101258947D01*
X144374018Y-101204035D01*
X144416679Y-101174190D01*
X144439521Y-101168004D01*
X144442505Y-101169394D01*
X144473936Y-101188127D01*
X144530997Y-101224733D01*
X144608343Y-101275697D01*
X144700626Y-101337504D01*
X144802502Y-101406639D01*
X145134593Y-101633420D01*
X145284566Y-101565353D01*
X145288923Y-101563381D01*
X145381000Y-101523491D01*
X145478683Y-101483818D01*
X145561539Y-101452674D01*
X145561905Y-101452545D01*
X145627685Y-101428456D01*
X145678323Y-101408110D01*
X145702884Y-101395901D01*
X145703282Y-101395458D01*
X145711619Y-101370456D01*
X145725341Y-101313598D01*
X145743123Y-101231014D01*
X145763641Y-101128831D01*
X145785571Y-101013178D01*
X145786336Y-101009033D01*
X145808229Y-100891019D01*
X145828281Y-100784151D01*
X145845192Y-100695252D01*
X145857667Y-100631145D01*
X145864406Y-100598654D01*
X145864837Y-100596853D01*
X145869273Y-100582944D01*
X145878263Y-100572489D01*
X145896737Y-100564996D01*
X145929628Y-100559972D01*
X145981868Y-100556922D01*
X146058388Y-100555355D01*
X146164122Y-100554776D01*
X146304000Y-100554692D01*
X146321575Y-100554693D01*
G37*
X146321575Y-100554693D02*
X146457371Y-100554807D01*
X146559576Y-100555472D01*
X146633122Y-100557182D01*
X146682942Y-100560429D01*
X146713967Y-100565706D01*
X146731129Y-100573507D01*
X146739361Y-100584325D01*
X146743594Y-100598654D01*
X146743716Y-100599168D01*
X146750672Y-100632851D01*
X146763320Y-100697917D01*
X146780360Y-100787542D01*
X146800496Y-100894904D01*
X146822429Y-101013178D01*
X146824218Y-101022856D01*
X146846083Y-101137650D01*
X146866430Y-101238480D01*
X146883934Y-101319217D01*
X146897271Y-101373734D01*
X146905116Y-101395901D01*
X146905158Y-101395936D01*
X146929884Y-101408200D01*
X146980631Y-101428576D01*
X147046462Y-101452674D01*
X147050169Y-101453983D01*
X147134331Y-101485791D01*
X147232230Y-101525685D01*
X147323435Y-101565353D01*
X147473407Y-101633420D01*
X147805499Y-101406639D01*
X147828889Y-101390688D01*
X147929080Y-101322890D01*
X148018480Y-101263208D01*
X148091745Y-101215156D01*
X148143527Y-101182250D01*
X148168480Y-101168004D01*
X148185577Y-101171270D01*
X148224395Y-101196571D01*
X148284385Y-101246675D01*
X148367210Y-101322989D01*
X148474535Y-101426922D01*
X148484139Y-101436382D01*
X148569302Y-101521145D01*
X148644949Y-101597937D01*
X148706449Y-101661947D01*
X148749173Y-101708361D01*
X148768489Y-101732369D01*
X148768552Y-101732485D01*
X148771006Y-101750763D01*
X148761956Y-101780411D01*
X148739119Y-101825486D01*
X148700213Y-101890044D01*
X148642954Y-101978140D01*
X148565059Y-102093830D01*
X148551785Y-102113357D01*
X148484652Y-102212278D01*
X148425410Y-102299848D01*
X148377588Y-102370831D01*
X148344715Y-102419991D01*
X148330318Y-102442095D01*
X148329232Y-102446777D01*
X148336044Y-102481710D01*
X148356450Y-102538753D01*
X148387123Y-102608172D01*
X148428808Y-102698959D01*
X148475352Y-102806686D01*
X148514877Y-102904192D01*
X148524676Y-102929430D01*
X148550340Y-102993870D01*
X148569193Y-103038763D01*
X148577710Y-103055616D01*
X148587111Y-103056875D01*
X148629363Y-103064159D01*
X148698521Y-103076739D01*
X148787387Y-103093246D01*
X148888768Y-103112312D01*
X148995467Y-103132569D01*
X149100288Y-103152647D01*
X149196036Y-103171179D01*
X149275516Y-103186795D01*
X149331530Y-103198127D01*
X149356885Y-103203807D01*
X149361088Y-103205408D01*
X149371334Y-103214045D01*
X149378957Y-103232433D01*
X149384338Y-103265460D01*
X149387859Y-103318013D01*
X149389901Y-103394979D01*
X149390847Y-103501246D01*
X149391077Y-103641701D01*
X149391077Y-104068845D01*
X149288500Y-104089091D01*
X149276092Y-104091518D01*
X149210199Y-104104088D01*
X149119084Y-104121170D01*
X149013104Y-104140829D01*
X148902615Y-104161132D01*
X148859105Y-104169299D01*
X148761882Y-104189167D01*
X148680858Y-104207954D01*
X148623477Y-104223859D01*
X148597187Y-104235079D01*
X148585273Y-104253411D01*
X148563583Y-104301916D01*
X148541395Y-104364692D01*
X148533585Y-104388200D01*
X148504835Y-104465366D01*
X148467752Y-104556694D01*
X148428375Y-104647093D01*
X148407315Y-104694310D01*
X148377311Y-104764837D01*
X148356692Y-104817655D01*
X148349026Y-104843912D01*
X148349452Y-104845894D01*
X148363993Y-104873751D01*
X148396783Y-104927510D01*
X148444493Y-105001963D01*
X148503798Y-105091897D01*
X148571369Y-105192104D01*
X148793713Y-105518416D01*
X148501601Y-105811016D01*
X148473349Y-105839171D01*
X148386961Y-105923449D01*
X148309756Y-105996128D01*
X148246258Y-106053112D01*
X148200990Y-106090307D01*
X148178474Y-106103616D01*
X148154023Y-106093490D01*
X148102819Y-106064421D01*
X148030747Y-106019896D01*
X147943460Y-105963411D01*
X147846612Y-105898462D01*
X147751486Y-105834314D01*
X147665669Y-105777827D01*
X147595652Y-105733184D01*
X147546876Y-105703855D01*
X147524783Y-105693308D01*
X147523488Y-105693404D01*
X147494139Y-105703802D01*
X147442093Y-105728012D01*
X147377708Y-105761249D01*
X147377032Y-105761613D01*
X147291521Y-105804441D01*
X147232926Y-105825365D01*
X147196571Y-105825423D01*
X147177775Y-105805654D01*
X147169819Y-105786195D01*
X147148347Y-105734080D01*
X147115273Y-105653964D01*
X147072356Y-105550107D01*
X147021356Y-105426767D01*
X146964033Y-105288201D01*
X146902146Y-105138670D01*
X146846052Y-105002636D01*
X146788977Y-104863050D01*
X146738479Y-104738315D01*
X146696254Y-104632672D01*
X146663995Y-104550365D01*
X146643397Y-104495635D01*
X146636154Y-104472726D01*
X146649986Y-104451718D01*
X146688412Y-104416642D01*
X146742807Y-104375887D01*
X146873395Y-104269267D01*
X146990260Y-104133025D01*
X147075780Y-103983118D01*
X147129431Y-103823971D01*
X147150684Y-103660012D01*
X147139014Y-103495667D01*
X147093894Y-103335361D01*
X147014797Y-103183520D01*
X146901197Y-103044572D01*
X146841965Y-102990460D01*
X146700054Y-102894782D01*
X146548206Y-102832405D01*
X146390861Y-102801844D01*
X146232456Y-102801615D01*
X146077429Y-102830232D01*
X145930220Y-102886210D01*
X145795266Y-102968064D01*
X145677005Y-103074309D01*
X145579877Y-103203459D01*
X145508318Y-103354031D01*
X145466769Y-103524539D01*
X145459143Y-103606722D01*
X145469634Y-103784775D01*
X145516882Y-103953704D01*
X145599489Y-104110522D01*
X145716059Y-104252245D01*
X145865193Y-104375887D01*
X145917561Y-104414982D01*
X145956832Y-104450443D01*
X145971846Y-104472692D01*
X145965859Y-104492088D01*
X145946432Y-104544059D01*
X145915194Y-104624002D01*
X145873839Y-104727673D01*
X145824061Y-104850832D01*
X145767553Y-104989234D01*
X145706009Y-105138637D01*
X145650008Y-105274020D01*
X145592184Y-105413852D01*
X145540500Y-105538872D01*
X145496718Y-105644822D01*
X145462597Y-105727441D01*
X145439898Y-105782472D01*
X145430380Y-105805654D01*
X145430269Y-105805928D01*
X145411228Y-105825503D01*
X145374694Y-105825279D01*
X145315954Y-105804210D01*
X145230292Y-105761249D01*
X145223549Y-105757631D01*
X145159938Y-105725087D01*
X145109707Y-105702050D01*
X145083218Y-105693308D01*
X145061506Y-105703639D01*
X145012984Y-105732788D01*
X144943163Y-105777287D01*
X144857484Y-105833668D01*
X144761388Y-105898462D01*
X144666706Y-105961984D01*
X144579132Y-106018705D01*
X144506642Y-106063547D01*
X144454889Y-106093016D01*
X144429526Y-106103616D01*
X144425206Y-106102270D01*
X144395092Y-106081056D01*
X144343640Y-106037237D01*
X144275375Y-105974909D01*
X144194820Y-105898170D01*
X144106500Y-105811116D01*
X143814488Y-105518617D01*
X144269360Y-104849525D01*
X144200208Y-104699916D01*
X144200003Y-104699473D01*
X144158477Y-104604101D01*
X144116044Y-104497896D01*
X144081858Y-104403769D01*
X144076684Y-104388588D01*
X144050601Y-104318109D01*
X144027081Y-104263342D01*
X144010677Y-104235079D01*
X144003996Y-104231088D01*
X143963892Y-104217697D01*
X143895795Y-104200373D01*
X143807145Y-104180917D01*
X143705385Y-104161132D01*
X143674904Y-104155551D01*
X143564628Y-104135233D01*
X143461731Y-104116095D01*
X143376569Y-104100070D01*
X143319500Y-104089091D01*
X143216923Y-104068845D01*
X143216923Y-103641701D01*
X143216946Y-103589180D01*
X143217379Y-103461047D01*
X143218659Y-103365420D01*
X143221168Y-103297411D01*
X143225286Y-103252133D01*
X143231395Y-103224697D01*
X143239878Y-103210218D01*
X143251115Y-103203807D01*
X143261994Y-103201209D01*
X143306347Y-103192022D01*
X143377106Y-103177991D01*
X143467074Y-103160486D01*
X143569056Y-103140874D01*
X143675857Y-103120525D01*
X143780281Y-103100807D01*
X143875132Y-103083089D01*
X143953214Y-103068738D01*
X144007332Y-103059124D01*
X144030291Y-103055616D01*
X144031842Y-103053497D01*
X144044325Y-103026006D01*
X144065927Y-102973406D01*
X144093123Y-102904192D01*
X144130866Y-102810937D01*
X144177328Y-102703159D01*
X144220878Y-102608172D01*
X144230858Y-102586851D01*
X144258862Y-102520086D01*
X144275641Y-102468590D01*
X144277854Y-102442095D01*
X144276713Y-102440218D01*
X144258584Y-102412565D01*
X144222644Y-102358849D01*
X144172418Y-102284303D01*
X144111430Y-102194162D01*
X144043205Y-102093657D01*
X143966330Y-101979470D01*
X143908663Y-101890770D01*
X143869426Y-101825721D01*
X143846350Y-101780295D01*
X143837166Y-101750463D01*
X143839604Y-101732195D01*
X143840424Y-101730825D01*
X143862477Y-101704205D01*
X143907436Y-101655697D01*
X143970673Y-101590108D01*
X144047559Y-101512247D01*
X144133465Y-101426922D01*
X144222579Y-101340334D01*
X144309872Y-101258947D01*
X144374018Y-101204035D01*
X144416679Y-101174190D01*
X144439521Y-101168004D01*
X144442505Y-101169394D01*
X144473936Y-101188127D01*
X144530997Y-101224733D01*
X144608343Y-101275697D01*
X144700626Y-101337504D01*
X144802502Y-101406639D01*
X145134593Y-101633420D01*
X145284566Y-101565353D01*
X145288923Y-101563381D01*
X145381000Y-101523491D01*
X145478683Y-101483818D01*
X145561539Y-101452674D01*
X145561905Y-101452545D01*
X145627685Y-101428456D01*
X145678323Y-101408110D01*
X145702884Y-101395901D01*
X145703282Y-101395458D01*
X145711619Y-101370456D01*
X145725341Y-101313598D01*
X145743123Y-101231014D01*
X145763641Y-101128831D01*
X145785571Y-101013178D01*
X145786336Y-101009033D01*
X145808229Y-100891019D01*
X145828281Y-100784151D01*
X145845192Y-100695252D01*
X145857667Y-100631145D01*
X145864406Y-100598654D01*
X145864837Y-100596853D01*
X145869273Y-100582944D01*
X145878263Y-100572489D01*
X145896737Y-100564996D01*
X145929628Y-100559972D01*
X145981868Y-100556922D01*
X146058388Y-100555355D01*
X146164122Y-100554776D01*
X146304000Y-100554692D01*
X146321575Y-100554693D01*
G36*
X144491998Y-106891034D02*
G01*
X144534850Y-106907829D01*
X144584615Y-106930503D01*
X144584615Y-107585533D01*
X144522785Y-107647363D01*
X144508662Y-107661228D01*
X144469536Y-107692046D01*
X144430078Y-107702028D01*
X144371362Y-107697433D01*
X144347456Y-107694462D01*
X144285801Y-107688176D01*
X144242692Y-107685672D01*
X144229905Y-107686055D01*
X144177446Y-107690200D01*
X144114022Y-107697433D01*
X144093730Y-107699918D01*
X144042610Y-107700895D01*
X144005207Y-107685462D01*
X143962599Y-107647363D01*
X143900769Y-107585533D01*
X143900769Y-107235343D01*
X143901251Y-107131857D01*
X143902753Y-107033192D01*
X143905089Y-106955068D01*
X143908071Y-106903662D01*
X143911509Y-106885154D01*
X143912230Y-106885204D01*
X143937203Y-106894413D01*
X143979399Y-106914707D01*
X144036549Y-106944261D01*
X144041928Y-107251746D01*
X144047308Y-107559231D01*
X144164539Y-107559231D01*
X144169885Y-107222192D01*
X144171579Y-107130574D01*
X144174005Y-107032649D01*
X144176634Y-106954906D01*
X144179246Y-106903642D01*
X144181623Y-106885154D01*
X144182306Y-106885219D01*
X144205996Y-106892020D01*
X144249546Y-106906604D01*
X144311077Y-106928054D01*
X144311376Y-107224104D01*
X144311676Y-107275532D01*
X144313754Y-107375466D01*
X144317470Y-107458925D01*
X144322430Y-107518377D01*
X144328240Y-107546287D01*
X144349024Y-107561214D01*
X144391440Y-107565825D01*
X144438077Y-107559231D01*
X144443423Y-107222192D01*
X144445336Y-107136546D01*
X144449303Y-107035172D01*
X144454491Y-106955655D01*
X144460499Y-106903736D01*
X144466927Y-106885154D01*
X144491998Y-106891034D01*
G37*
X144491998Y-106891034D02*
X144534850Y-106907829D01*
X144584615Y-106930503D01*
X144584615Y-107585533D01*
X144522785Y-107647363D01*
X144508662Y-107661228D01*
X144469536Y-107692046D01*
X144430078Y-107702028D01*
X144371362Y-107697433D01*
X144347456Y-107694462D01*
X144285801Y-107688176D01*
X144242692Y-107685672D01*
X144229905Y-107686055D01*
X144177446Y-107690200D01*
X144114022Y-107697433D01*
X144093730Y-107699918D01*
X144042610Y-107700895D01*
X144005207Y-107685462D01*
X143962599Y-107647363D01*
X143900769Y-107585533D01*
X143900769Y-107235343D01*
X143901251Y-107131857D01*
X143902753Y-107033192D01*
X143905089Y-106955068D01*
X143908071Y-106903662D01*
X143911509Y-106885154D01*
X143912230Y-106885204D01*
X143937203Y-106894413D01*
X143979399Y-106914707D01*
X144036549Y-106944261D01*
X144041928Y-107251746D01*
X144047308Y-107559231D01*
X144164539Y-107559231D01*
X144169885Y-107222192D01*
X144171579Y-107130574D01*
X144174005Y-107032649D01*
X144176634Y-106954906D01*
X144179246Y-106903642D01*
X144181623Y-106885154D01*
X144182306Y-106885219D01*
X144205996Y-106892020D01*
X144249546Y-106906604D01*
X144311077Y-106928054D01*
X144311376Y-107224104D01*
X144311676Y-107275532D01*
X144313754Y-107375466D01*
X144317470Y-107458925D01*
X144322430Y-107518377D01*
X144328240Y-107546287D01*
X144349024Y-107561214D01*
X144391440Y-107565825D01*
X144438077Y-107559231D01*
X144443423Y-107222192D01*
X144445336Y-107136546D01*
X144449303Y-107035172D01*
X144454491Y-106955655D01*
X144460499Y-106903736D01*
X144466927Y-106885154D01*
X144491998Y-106891034D01*
G36*
X143567936Y-106886911D02*
G01*
X143609807Y-106897547D01*
X143648791Y-106924062D01*
X143698965Y-106973420D01*
X143731232Y-107008279D01*
X143764844Y-107053534D01*
X143780003Y-107095951D01*
X143783539Y-107149768D01*
X143783539Y-107237850D01*
X143723470Y-107206787D01*
X143675867Y-107168936D01*
X143643261Y-107117950D01*
X143637661Y-107104088D01*
X143594992Y-107050358D01*
X143535707Y-107023417D01*
X143471061Y-107026039D01*
X143412308Y-107061000D01*
X143387450Y-107089394D01*
X143372970Y-107125718D01*
X143388470Y-107158046D01*
X143436667Y-107190565D01*
X143520274Y-107227461D01*
X143532962Y-107232557D01*
X143609078Y-107265907D01*
X143674396Y-107298793D01*
X143715953Y-107324769D01*
X143757576Y-107371167D01*
X143785247Y-107445211D01*
X143782310Y-107524670D01*
X143749571Y-107599868D01*
X143687841Y-107661131D01*
X143637858Y-107687210D01*
X143541303Y-107705470D01*
X143487647Y-107703007D01*
X143437976Y-107689687D01*
X143418919Y-107661739D01*
X143426045Y-107615710D01*
X143428118Y-107609624D01*
X143444556Y-107577349D01*
X143471926Y-107565133D01*
X143524068Y-107565950D01*
X143560884Y-107567061D01*
X143603961Y-107557528D01*
X143633475Y-107529026D01*
X143650286Y-107493935D01*
X143652161Y-107457175D01*
X143652074Y-107456961D01*
X143630279Y-107437098D01*
X143583632Y-107408192D01*
X143523278Y-107375886D01*
X143460360Y-107345823D01*
X143406023Y-107323646D01*
X143371410Y-107315000D01*
X143366260Y-107323467D01*
X143359778Y-107363309D01*
X143355339Y-107428371D01*
X143353692Y-107510385D01*
X143353309Y-107567153D01*
X143351505Y-107638648D01*
X143348558Y-107687610D01*
X143344843Y-107705769D01*
X143325424Y-107699667D01*
X143286227Y-107683095D01*
X143236462Y-107660420D01*
X143236462Y-107369509D01*
X143236780Y-107294940D01*
X143239789Y-107181701D01*
X143247454Y-107097692D01*
X143261562Y-107036520D01*
X143283899Y-106991795D01*
X143316253Y-106957124D01*
X143360410Y-106926117D01*
X143416667Y-106900528D01*
X143520540Y-106885154D01*
X143567936Y-106886911D01*
G37*
X143567936Y-106886911D02*
X143609807Y-106897547D01*
X143648791Y-106924062D01*
X143698965Y-106973420D01*
X143731232Y-107008279D01*
X143764844Y-107053534D01*
X143780003Y-107095951D01*
X143783539Y-107149768D01*
X143783539Y-107237850D01*
X143723470Y-107206787D01*
X143675867Y-107168936D01*
X143643261Y-107117950D01*
X143637661Y-107104088D01*
X143594992Y-107050358D01*
X143535707Y-107023417D01*
X143471061Y-107026039D01*
X143412308Y-107061000D01*
X143387450Y-107089394D01*
X143372970Y-107125718D01*
X143388470Y-107158046D01*
X143436667Y-107190565D01*
X143520274Y-107227461D01*
X143532962Y-107232557D01*
X143609078Y-107265907D01*
X143674396Y-107298793D01*
X143715953Y-107324769D01*
X143757576Y-107371167D01*
X143785247Y-107445211D01*
X143782310Y-107524670D01*
X143749571Y-107599868D01*
X143687841Y-107661131D01*
X143637858Y-107687210D01*
X143541303Y-107705470D01*
X143487647Y-107703007D01*
X143437976Y-107689687D01*
X143418919Y-107661739D01*
X143426045Y-107615710D01*
X143428118Y-107609624D01*
X143444556Y-107577349D01*
X143471926Y-107565133D01*
X143524068Y-107565950D01*
X143560884Y-107567061D01*
X143603961Y-107557528D01*
X143633475Y-107529026D01*
X143650286Y-107493935D01*
X143652161Y-107457175D01*
X143652074Y-107456961D01*
X143630279Y-107437098D01*
X143583632Y-107408192D01*
X143523278Y-107375886D01*
X143460360Y-107345823D01*
X143406023Y-107323646D01*
X143371410Y-107315000D01*
X143366260Y-107323467D01*
X143359778Y-107363309D01*
X143355339Y-107428371D01*
X143353692Y-107510385D01*
X143353309Y-107567153D01*
X143351505Y-107638648D01*
X143348558Y-107687610D01*
X143344843Y-107705769D01*
X143325424Y-107699667D01*
X143286227Y-107683095D01*
X143236462Y-107660420D01*
X143236462Y-107369509D01*
X143236780Y-107294940D01*
X143239789Y-107181701D01*
X143247454Y-107097692D01*
X143261562Y-107036520D01*
X143283899Y-106991795D01*
X143316253Y-106957124D01*
X143360410Y-106926117D01*
X143416667Y-106900528D01*
X143520540Y-106885154D01*
X143567936Y-106886911D01*
G36*
X149208574Y-107368643D02*
G01*
X149205066Y-107400021D01*
X149178927Y-107511705D01*
X149131694Y-107596642D01*
X149059862Y-107661741D01*
X149055802Y-107664428D01*
X148964487Y-107702634D01*
X148869144Y-107706034D01*
X148777274Y-107676939D01*
X148696379Y-107617660D01*
X148633962Y-107530510D01*
X148632914Y-107528409D01*
X148612173Y-107474289D01*
X148596980Y-107412781D01*
X148588921Y-107355039D01*
X148589582Y-107312215D01*
X148600548Y-107295462D01*
X148610290Y-107296480D01*
X148656877Y-107315009D01*
X148709682Y-107349081D01*
X148754603Y-107388522D01*
X148777535Y-107423155D01*
X148801373Y-107470133D01*
X148850230Y-107512862D01*
X148906963Y-107529923D01*
X148927758Y-107524990D01*
X148968804Y-107500157D01*
X149004557Y-107465685D01*
X149019846Y-107434411D01*
X149019842Y-107434295D01*
X149002495Y-107419933D01*
X148956247Y-107394025D01*
X148888067Y-107360210D01*
X148804923Y-107322129D01*
X148804466Y-107321927D01*
X148714138Y-107281709D01*
X148653592Y-107252733D01*
X148616888Y-107230474D01*
X148598086Y-107210407D01*
X148591246Y-107188009D01*
X148590429Y-107158756D01*
X148596113Y-107103363D01*
X148789000Y-107103363D01*
X148808911Y-107120777D01*
X148858521Y-107146872D01*
X148859976Y-107147610D01*
X148918506Y-107175483D01*
X148970868Y-107197719D01*
X149004086Y-107207126D01*
X149017410Y-107194552D01*
X149019846Y-107151468D01*
X149009724Y-107097847D01*
X148974631Y-107049119D01*
X148923823Y-107023856D01*
X148867181Y-107026406D01*
X148814584Y-107061120D01*
X148793910Y-107085107D01*
X148789000Y-107103363D01*
X148596113Y-107103363D01*
X148597622Y-107088654D01*
X148633184Y-106993412D01*
X148692714Y-106918567D01*
X148769746Y-106866745D01*
X148857815Y-106840573D01*
X148950454Y-106842676D01*
X149041198Y-106875681D01*
X149123579Y-106942215D01*
X149169222Y-107008055D01*
X149202008Y-107102036D01*
X149207339Y-107151468D01*
X149214787Y-107220536D01*
X149208574Y-107368643D01*
G37*
X149208574Y-107368643D02*
X149205066Y-107400021D01*
X149178927Y-107511705D01*
X149131694Y-107596642D01*
X149059862Y-107661741D01*
X149055802Y-107664428D01*
X148964487Y-107702634D01*
X148869144Y-107706034D01*
X148777274Y-107676939D01*
X148696379Y-107617660D01*
X148633962Y-107530510D01*
X148632914Y-107528409D01*
X148612173Y-107474289D01*
X148596980Y-107412781D01*
X148588921Y-107355039D01*
X148589582Y-107312215D01*
X148600548Y-107295462D01*
X148610290Y-107296480D01*
X148656877Y-107315009D01*
X148709682Y-107349081D01*
X148754603Y-107388522D01*
X148777535Y-107423155D01*
X148801373Y-107470133D01*
X148850230Y-107512862D01*
X148906963Y-107529923D01*
X148927758Y-107524990D01*
X148968804Y-107500157D01*
X149004557Y-107465685D01*
X149019846Y-107434411D01*
X149019842Y-107434295D01*
X149002495Y-107419933D01*
X148956247Y-107394025D01*
X148888067Y-107360210D01*
X148804923Y-107322129D01*
X148804466Y-107321927D01*
X148714138Y-107281709D01*
X148653592Y-107252733D01*
X148616888Y-107230474D01*
X148598086Y-107210407D01*
X148591246Y-107188009D01*
X148590429Y-107158756D01*
X148596113Y-107103363D01*
X148789000Y-107103363D01*
X148808911Y-107120777D01*
X148858521Y-107146872D01*
X148859976Y-107147610D01*
X148918506Y-107175483D01*
X148970868Y-107197719D01*
X149004086Y-107207126D01*
X149017410Y-107194552D01*
X149019846Y-107151468D01*
X149009724Y-107097847D01*
X148974631Y-107049119D01*
X148923823Y-107023856D01*
X148867181Y-107026406D01*
X148814584Y-107061120D01*
X148793910Y-107085107D01*
X148789000Y-107103363D01*
X148596113Y-107103363D01*
X148597622Y-107088654D01*
X148633184Y-106993412D01*
X148692714Y-106918567D01*
X148769746Y-106866745D01*
X148857815Y-106840573D01*
X148950454Y-106842676D01*
X149041198Y-106875681D01*
X149123579Y-106942215D01*
X149169222Y-107008055D01*
X149202008Y-107102036D01*
X149207339Y-107151468D01*
X149214787Y-107220536D01*
X149208574Y-107368643D01*
G36*
X145775892Y-106914167D02*
G01*
X145782060Y-106917581D01*
X145832447Y-106956692D01*
X145877498Y-107006975D01*
X145885355Y-107018339D01*
X145900376Y-107044860D01*
X145911107Y-107076336D01*
X145918486Y-107119591D01*
X145923452Y-107181449D01*
X145926942Y-107268733D01*
X145929893Y-107388269D01*
X145930311Y-107408478D01*
X145931654Y-107539499D01*
X145929761Y-107632296D01*
X145924605Y-107687507D01*
X145916158Y-107705769D01*
X145890594Y-107700301D01*
X145847166Y-107683733D01*
X145836940Y-107678888D01*
X145820967Y-107667920D01*
X145809954Y-107649890D01*
X145802750Y-107618396D01*
X145798208Y-107567036D01*
X145795180Y-107489410D01*
X145792516Y-107379115D01*
X145791785Y-107346875D01*
X145788965Y-107245050D01*
X145785304Y-107173788D01*
X145779694Y-107126332D01*
X145771029Y-107095925D01*
X145758202Y-107075810D01*
X145740105Y-107059229D01*
X145686525Y-107030161D01*
X145620612Y-107024564D01*
X145561635Y-107046807D01*
X145519203Y-107092859D01*
X145502923Y-107158692D01*
X145502470Y-107176587D01*
X145493578Y-107208982D01*
X145467325Y-107213925D01*
X145415919Y-107194633D01*
X145404013Y-107188446D01*
X145371835Y-107152058D01*
X145371198Y-107097954D01*
X145401856Y-107023128D01*
X145429978Y-106982350D01*
X145501883Y-106924421D01*
X145590638Y-106891670D01*
X145685542Y-106887212D01*
X145775892Y-106914167D01*
G37*
X145775892Y-106914167D02*
X145782060Y-106917581D01*
X145832447Y-106956692D01*
X145877498Y-107006975D01*
X145885355Y-107018339D01*
X145900376Y-107044860D01*
X145911107Y-107076336D01*
X145918486Y-107119591D01*
X145923452Y-107181449D01*
X145926942Y-107268733D01*
X145929893Y-107388269D01*
X145930311Y-107408478D01*
X145931654Y-107539499D01*
X145929761Y-107632296D01*
X145924605Y-107687507D01*
X145916158Y-107705769D01*
X145890594Y-107700301D01*
X145847166Y-107683733D01*
X145836940Y-107678888D01*
X145820967Y-107667920D01*
X145809954Y-107649890D01*
X145802750Y-107618396D01*
X145798208Y-107567036D01*
X145795180Y-107489410D01*
X145792516Y-107379115D01*
X145791785Y-107346875D01*
X145788965Y-107245050D01*
X145785304Y-107173788D01*
X145779694Y-107126332D01*
X145771029Y-107095925D01*
X145758202Y-107075810D01*
X145740105Y-107059229D01*
X145686525Y-107030161D01*
X145620612Y-107024564D01*
X145561635Y-107046807D01*
X145519203Y-107092859D01*
X145502923Y-107158692D01*
X145502470Y-107176587D01*
X145493578Y-107208982D01*
X145467325Y-107213925D01*
X145415919Y-107194633D01*
X145404013Y-107188446D01*
X145371835Y-107152058D01*
X145371198Y-107097954D01*
X145401856Y-107023128D01*
X145429978Y-106982350D01*
X145501883Y-106924421D01*
X145590638Y-106891670D01*
X145685542Y-106887212D01*
X145775892Y-106914167D01*
G36*
X142915501Y-106893476D02*
G01*
X142996167Y-106923440D01*
X143029714Y-106945954D01*
X143063687Y-106978212D01*
X143087919Y-107019246D01*
X143104001Y-107075108D01*
X143113521Y-107151851D01*
X143118068Y-107255525D01*
X143119231Y-107392184D01*
X143119003Y-107462805D01*
X143117860Y-107559308D01*
X143115919Y-107636323D01*
X143113365Y-107687319D01*
X143110381Y-107705769D01*
X143090962Y-107699667D01*
X143051766Y-107683095D01*
X143050589Y-107682558D01*
X143030235Y-107671903D01*
X143016546Y-107657282D01*
X143008199Y-107631673D01*
X143003874Y-107588054D01*
X143002248Y-107519403D01*
X143002000Y-107418698D01*
X143001500Y-107354813D01*
X142996164Y-107234751D01*
X142983945Y-107146809D01*
X142963552Y-107086375D01*
X142933695Y-107048836D01*
X142893082Y-107029581D01*
X142887448Y-107028239D01*
X142811378Y-107027191D01*
X142752052Y-107061271D01*
X142711077Y-107129598D01*
X142703770Y-107149351D01*
X142687114Y-107193066D01*
X142678679Y-107213155D01*
X142661356Y-107210387D01*
X142623525Y-107195365D01*
X142588240Y-107170556D01*
X142572154Y-107123670D01*
X142576952Y-107090087D01*
X142606431Y-107021967D01*
X142654098Y-106958134D01*
X142709839Y-106913988D01*
X142733193Y-106903782D01*
X142821619Y-106886718D01*
X142915501Y-106893476D01*
G37*
X142915501Y-106893476D02*
X142996167Y-106923440D01*
X143029714Y-106945954D01*
X143063687Y-106978212D01*
X143087919Y-107019246D01*
X143104001Y-107075108D01*
X143113521Y-107151851D01*
X143118068Y-107255525D01*
X143119231Y-107392184D01*
X143119003Y-107462805D01*
X143117860Y-107559308D01*
X143115919Y-107636323D01*
X143113365Y-107687319D01*
X143110381Y-107705769D01*
X143090962Y-107699667D01*
X143051766Y-107683095D01*
X143050589Y-107682558D01*
X143030235Y-107671903D01*
X143016546Y-107657282D01*
X143008199Y-107631673D01*
X143003874Y-107588054D01*
X143002248Y-107519403D01*
X143002000Y-107418698D01*
X143001500Y-107354813D01*
X142996164Y-107234751D01*
X142983945Y-107146809D01*
X142963552Y-107086375D01*
X142933695Y-107048836D01*
X142893082Y-107029581D01*
X142887448Y-107028239D01*
X142811378Y-107027191D01*
X142752052Y-107061271D01*
X142711077Y-107129598D01*
X142703770Y-107149351D01*
X142687114Y-107193066D01*
X142678679Y-107213155D01*
X142661356Y-107210387D01*
X142623525Y-107195365D01*
X142588240Y-107170556D01*
X142572154Y-107123670D01*
X142576952Y-107090087D01*
X142606431Y-107021967D01*
X142654098Y-106958134D01*
X142709839Y-106913988D01*
X142733193Y-106903782D01*
X142821619Y-106886718D01*
X142915501Y-106893476D01*
G36*
X142454413Y-107351449D02*
G01*
X142449641Y-107454047D01*
X142437150Y-107529126D01*
X142414121Y-107584748D01*
X142377732Y-107628975D01*
X142325162Y-107669869D01*
X142291714Y-107688466D01*
X142238098Y-107700991D01*
X142162780Y-107700003D01*
X142120672Y-107696035D01*
X142069879Y-107683920D01*
X142029280Y-107657585D01*
X141982049Y-107608514D01*
X141975738Y-107601346D01*
X141933277Y-107546189D01*
X141913018Y-107498150D01*
X141907846Y-107441184D01*
X141907846Y-107357471D01*
X141966346Y-107379552D01*
X142008994Y-107405364D01*
X142046064Y-107465928D01*
X142053803Y-107485320D01*
X142097074Y-107540235D01*
X142155976Y-107567879D01*
X142220111Y-107565393D01*
X142279077Y-107529923D01*
X142299342Y-107507805D01*
X142317720Y-107474436D01*
X142311971Y-107444117D01*
X142278887Y-107412913D01*
X142215261Y-107376887D01*
X142117885Y-107332103D01*
X141917615Y-107244445D01*
X141912301Y-107157607D01*
X141914299Y-107102296D01*
X142044783Y-107102296D01*
X142054688Y-107136538D01*
X142099756Y-107173096D01*
X142181557Y-107214692D01*
X142195092Y-107220718D01*
X142259818Y-107248753D01*
X142308247Y-107268472D01*
X142330751Y-107275923D01*
X142334161Y-107270438D01*
X142335529Y-107236948D01*
X142330651Y-107183116D01*
X142318364Y-107130473D01*
X142280041Y-107064151D01*
X142224720Y-107026780D01*
X142158640Y-107021721D01*
X142088040Y-107052339D01*
X142068474Y-107067648D01*
X142044783Y-107102296D01*
X141914299Y-107102296D01*
X141914647Y-107092663D01*
X141944186Y-107010590D01*
X141981472Y-106965361D01*
X142058776Y-106914838D01*
X142150478Y-106889316D01*
X142245274Y-106891336D01*
X142331859Y-106923440D01*
X142350920Y-106935767D01*
X142394640Y-106973912D01*
X142424540Y-107022167D01*
X142442968Y-107087710D01*
X142452270Y-107177720D01*
X142453499Y-107236948D01*
X142454794Y-107299376D01*
X142454413Y-107351449D01*
G37*
X142454413Y-107351449D02*
X142449641Y-107454047D01*
X142437150Y-107529126D01*
X142414121Y-107584748D01*
X142377732Y-107628975D01*
X142325162Y-107669869D01*
X142291714Y-107688466D01*
X142238098Y-107700991D01*
X142162780Y-107700003D01*
X142120672Y-107696035D01*
X142069879Y-107683920D01*
X142029280Y-107657585D01*
X141982049Y-107608514D01*
X141975738Y-107601346D01*
X141933277Y-107546189D01*
X141913018Y-107498150D01*
X141907846Y-107441184D01*
X141907846Y-107357471D01*
X141966346Y-107379552D01*
X142008994Y-107405364D01*
X142046064Y-107465928D01*
X142053803Y-107485320D01*
X142097074Y-107540235D01*
X142155976Y-107567879D01*
X142220111Y-107565393D01*
X142279077Y-107529923D01*
X142299342Y-107507805D01*
X142317720Y-107474436D01*
X142311971Y-107444117D01*
X142278887Y-107412913D01*
X142215261Y-107376887D01*
X142117885Y-107332103D01*
X141917615Y-107244445D01*
X141912301Y-107157607D01*
X141914299Y-107102296D01*
X142044783Y-107102296D01*
X142054688Y-107136538D01*
X142099756Y-107173096D01*
X142181557Y-107214692D01*
X142195092Y-107220718D01*
X142259818Y-107248753D01*
X142308247Y-107268472D01*
X142330751Y-107275923D01*
X142334161Y-107270438D01*
X142335529Y-107236948D01*
X142330651Y-107183116D01*
X142318364Y-107130473D01*
X142280041Y-107064151D01*
X142224720Y-107026780D01*
X142158640Y-107021721D01*
X142088040Y-107052339D01*
X142068474Y-107067648D01*
X142044783Y-107102296D01*
X141914299Y-107102296D01*
X141914647Y-107092663D01*
X141944186Y-107010590D01*
X141981472Y-106965361D01*
X142058776Y-106914838D01*
X142150478Y-106889316D01*
X142245274Y-106891336D01*
X142331859Y-106923440D01*
X142350920Y-106935767D01*
X142394640Y-106973912D01*
X142424540Y-107022167D01*
X142442968Y-107087710D01*
X142452270Y-107177720D01*
X142453499Y-107236948D01*
X142454794Y-107299376D01*
X142454413Y-107351449D01*
%TD*%
M02*
