%TF.GenerationSoftware,KiCad,Pcbnew,6.0.10-86aedd382b~118~ubuntu20.04.1*%
%TF.CreationDate,2022-12-30T18:50:17-08:00*%
%TF.ProjectId,parallel2usb,70617261-6c6c-4656-9c32-7573622e6b69,rev?*%
%TF.SameCoordinates,Original*%
%TF.FileFunction,Copper,L2,Inr*%
%TF.FilePolarity,Positive*%
%FSLAX46Y46*%
G04 Gerber Fmt 4.6, Leading zero omitted, Abs format (unit mm)*
G04 Created by KiCad (PCBNEW 6.0.10-86aedd382b~118~ubuntu20.04.1) date 2022-12-30 18:50:17*
%MOMM*%
%LPD*%
G01*
G04 APERTURE LIST*
%TA.AperFunction,ComponentPad*%
%ADD10C,4.000000*%
%TD*%
%TA.AperFunction,ComponentPad*%
%ADD11R,1.600000X1.600000*%
%TD*%
%TA.AperFunction,ComponentPad*%
%ADD12C,1.600000*%
%TD*%
%TA.AperFunction,ComponentPad*%
%ADD13O,1.700000X1.700000*%
%TD*%
%TA.AperFunction,ComponentPad*%
%ADD14R,1.700000X1.700000*%
%TD*%
%TA.AperFunction,ViaPad*%
%ADD15C,0.460000*%
%TD*%
%TA.AperFunction,ViaPad*%
%ADD16C,0.800000*%
%TD*%
%TA.AperFunction,Conductor*%
%ADD17C,0.200000*%
%TD*%
G04 APERTURE END LIST*
D10*
%TO.N,GND*%
%TO.C,J1*%
X200508000Y-78055000D03*
X200508000Y-125155000D03*
D11*
%TO.N,/STROBE*%
X199088000Y-118225000D03*
D12*
%TO.N,/D0*%
X199088000Y-115455000D03*
%TO.N,/D1*%
X199088000Y-112685000D03*
%TO.N,/D2*%
X199088000Y-109915000D03*
%TO.N,/D3*%
X199088000Y-107145000D03*
%TO.N,/D4*%
X199088000Y-104375000D03*
%TO.N,/D5*%
X199088000Y-101605000D03*
%TO.N,/D6*%
X199088000Y-98835000D03*
%TO.N,/D7*%
X199088000Y-96065000D03*
%TO.N,/ACK*%
X199088000Y-93295000D03*
%TO.N,/BUSY*%
X199088000Y-90525000D03*
%TO.N,/PE*%
X199088000Y-87755000D03*
%TO.N,/SEL*%
X199088000Y-84985000D03*
%TO.N,/AUTOF*%
X201928000Y-116840000D03*
%TO.N,/ERROR*%
X201928000Y-114070000D03*
%TO.N,/INIT*%
X201928000Y-111300000D03*
%TO.N,/SELIN*%
X201928000Y-108530000D03*
%TO.N,GND*%
X201928000Y-105760000D03*
X201928000Y-102990000D03*
X201928000Y-100220000D03*
X201928000Y-97450000D03*
X201928000Y-94680000D03*
X201928000Y-91910000D03*
X201928000Y-89140000D03*
X201928000Y-86370000D03*
%TD*%
D13*
%TO.N,/SWDIO*%
%TO.C,J3*%
X176149000Y-99045000D03*
%TO.N,GND*%
X176149000Y-101585000D03*
D14*
%TO.N,/SWCLK*%
X176149000Y-104125000D03*
%TD*%
D13*
%TO.N,/SWDIO*%
%TO.C,U4*%
X171450000Y-99060000D03*
D14*
%TO.N,GND*%
X171450000Y-101600000D03*
D13*
%TO.N,/SWCLK*%
X171450000Y-104140000D03*
%TO.N,+5V*%
X123420000Y-92710000D03*
%TO.N,unconnected-(U4-Pad39)*%
X125960000Y-92710000D03*
D14*
%TO.N,GND*%
X128500000Y-92710000D03*
D13*
%TO.N,unconnected-(U4-Pad37)*%
X131040000Y-92710000D03*
%TO.N,+3.3V*%
X133580000Y-92710000D03*
%TO.N,unconnected-(U4-Pad35)*%
X136120000Y-92710000D03*
%TO.N,unconnected-(U4-Pad34)*%
X138660000Y-92710000D03*
D14*
%TO.N,GND*%
X141200000Y-92710000D03*
D13*
%TO.N,unconnected-(U4-Pad32)*%
X143740000Y-92710000D03*
%TO.N,unconnected-(U4-Pad31)*%
X146280000Y-92710000D03*
%TO.N,unconnected-(U4-Pad30)*%
X148820000Y-92710000D03*
%TO.N,unconnected-(U4-Pad29)*%
X151360000Y-92710000D03*
D14*
%TO.N,GND*%
X153900000Y-92710000D03*
D13*
%TO.N,/SOEN_3*%
X156440000Y-92710000D03*
%TO.N,/ACK_3*%
X158980000Y-92710000D03*
%TO.N,/ERROR_3*%
X161520000Y-92710000D03*
%TO.N,/SEL_3*%
X164060000Y-92710000D03*
D14*
%TO.N,GND*%
X166600000Y-92710000D03*
D13*
%TO.N,/PE_3*%
X169140000Y-92710000D03*
%TO.N,/BUSY_3*%
X171680000Y-92710000D03*
%TO.N,/D7_3*%
X171680000Y-110490000D03*
%TO.N,/D6_3*%
X169140000Y-110490000D03*
D14*
%TO.N,GND*%
X166600000Y-110490000D03*
D13*
%TO.N,/D5_3*%
X164060000Y-110490000D03*
%TO.N,/D4_3*%
X161520000Y-110490000D03*
%TO.N,/D3_3*%
X158980000Y-110490000D03*
%TO.N,/D2_3*%
X156440000Y-110490000D03*
D14*
%TO.N,GND*%
X153900000Y-110490000D03*
D13*
%TO.N,/D1_3*%
X151360000Y-110490000D03*
%TO.N,/D0_3*%
X148820000Y-110490000D03*
%TO.N,/DOEN_3*%
X146280000Y-110490000D03*
%TO.N,/STROBE_3*%
X143740000Y-110490000D03*
D14*
%TO.N,GND*%
X141200000Y-110490000D03*
D13*
%TO.N,/AUTOF_3*%
X138660000Y-110490000D03*
%TO.N,/INIT_3*%
X136120000Y-110490000D03*
%TO.N,/SELIN_3*%
X133580000Y-110490000D03*
%TO.N,/COEN_3*%
X131040000Y-110490000D03*
D14*
%TO.N,GND*%
X128500000Y-110490000D03*
D13*
%TO.N,unconnected-(U4-Pad2)*%
X125960000Y-110490000D03*
%TO.N,unconnected-(U4-Pad1)*%
X123420000Y-110490000D03*
%TD*%
D14*
%TO.N,+3.3V*%
%TO.C,J2*%
X194770000Y-77082000D03*
D13*
%TO.N,+5V*%
X194770000Y-79622000D03*
%TO.N,/SEL*%
X194770000Y-82162000D03*
%TO.N,/PE*%
X194770000Y-84702000D03*
%TO.N,/BUSY*%
X194770000Y-87242000D03*
%TO.N,/ACK*%
X194770000Y-89782000D03*
%TO.N,/D7*%
X194770000Y-92322000D03*
%TO.N,/D6*%
X194770000Y-94862000D03*
%TO.N,/D5*%
X194770000Y-97402000D03*
%TO.N,/D4*%
X194770000Y-99942000D03*
%TO.N,/D3*%
X194770000Y-102482000D03*
%TO.N,/SELIN*%
X194770000Y-105022000D03*
%TO.N,/D2*%
X194770000Y-107562000D03*
%TO.N,/INIT*%
X194770000Y-110102000D03*
%TO.N,/D1*%
X194770000Y-112642000D03*
%TO.N,/ERROR*%
X194770000Y-115182000D03*
%TO.N,/D0*%
X194770000Y-117722000D03*
%TO.N,/AUTOF*%
X194770000Y-120262000D03*
%TO.N,/STROBE*%
X194770000Y-122802000D03*
%TO.N,GND*%
X194770000Y-125342000D03*
%TD*%
D15*
%TO.N,/SELIN*%
X192405000Y-85471000D03*
D16*
%TO.N,+5V*%
X183515000Y-98679000D03*
%TO.N,GND*%
X174625000Y-108839000D03*
%TO.N,+3.3V*%
X188976000Y-96266000D03*
X187198000Y-107188000D03*
X180594000Y-98425000D03*
%TO.N,+5V*%
X173228000Y-87630000D03*
%TO.N,+3.3V*%
X187452000Y-86233000D03*
X173863000Y-88656503D03*
D15*
%TO.N,/ACK*%
X186436000Y-91821000D03*
%TO.N,/ERROR*%
X186055000Y-93218000D03*
%TO.N,/INIT*%
X186690000Y-103251000D03*
%TO.N,/AUTOF*%
X186182000Y-103759000D03*
%TO.N,/STROBE*%
X186182000Y-104521000D03*
D16*
%TO.N,GND*%
X182118000Y-97028000D03*
X180721000Y-105156000D03*
X183515000Y-105156000D03*
D15*
%TO.N,+5V*%
X189103000Y-121793000D03*
%TO.N,GND*%
X189103000Y-123317000D03*
X189103000Y-117221000D03*
%TO.N,+5V*%
X189103000Y-112649000D03*
%TO.N,GND*%
X189103000Y-91059000D03*
X189103000Y-88011000D03*
D16*
X180721000Y-93726000D03*
X180721000Y-116713000D03*
D15*
%TO.N,+5V*%
X189103000Y-115697000D03*
D16*
%TO.N,GND*%
X182118000Y-108585000D03*
X183515000Y-116713000D03*
D15*
X189103000Y-120269000D03*
D16*
X183515000Y-93726000D03*
D15*
X189103000Y-126365000D03*
D16*
X182118000Y-85598000D03*
D15*
X189103000Y-94107000D03*
X189103000Y-102362000D03*
%TO.N,+5V*%
X189103000Y-92583000D03*
%TO.N,GND*%
X189103000Y-105410000D03*
X189103000Y-99314000D03*
X189103000Y-111125000D03*
%TO.N,/BUSY*%
X185984000Y-91186000D03*
%TO.N,/PE*%
X186055000Y-90297000D03*
D16*
%TO.N,+3.3V*%
X180641843Y-110315157D03*
X180848000Y-87249000D03*
D15*
%TO.N,+5V*%
X189103000Y-103886000D03*
D16*
X183515000Y-110236000D03*
D15*
X189103000Y-97790000D03*
%TO.N,GND*%
X189103000Y-114173000D03*
%TO.N,+5V*%
X189103000Y-109601000D03*
D16*
X183515000Y-86868000D03*
D15*
X189103000Y-100838000D03*
X189103000Y-86487000D03*
X189103000Y-89535000D03*
X189103000Y-118745000D03*
X189103000Y-124841000D03*
%TD*%
D17*
%TO.N,+5V*%
X182880000Y-88011000D02*
X182880000Y-86868000D01*
X182880000Y-86868000D02*
X183515000Y-86868000D01*
X182880000Y-98679000D02*
X182880000Y-110236000D01*
X182880000Y-88011000D02*
X182880000Y-98679000D01*
X182880000Y-98679000D02*
X183515000Y-98679000D01*
X182880000Y-88011000D02*
X173609000Y-88011000D01*
X173609000Y-88011000D02*
X173228000Y-87630000D01*
X183261000Y-88011000D02*
X182880000Y-88011000D01*
X182880000Y-110236000D02*
X183515000Y-110236000D01*
X188087000Y-88011000D02*
X188087000Y-89535000D01*
X188087000Y-86487000D02*
X188087000Y-88011000D01*
X188087000Y-88011000D02*
X183261000Y-88011000D01*
X188087000Y-89535000D02*
X188087000Y-92583000D01*
X188087000Y-89535000D02*
X189103000Y-89535000D01*
X188087000Y-92583000D02*
X188087000Y-97790000D01*
X188087000Y-92583000D02*
X189103000Y-92583000D01*
X188087000Y-97790000D02*
X188087000Y-100838000D01*
X188087000Y-97790000D02*
X189103000Y-97790000D01*
X188087000Y-100838000D02*
X188087000Y-103886000D01*
X188087000Y-100838000D02*
X189103000Y-100838000D01*
X188087000Y-103886000D02*
X188087000Y-109601000D01*
X188087000Y-103886000D02*
X189103000Y-103886000D01*
X188087000Y-109601000D02*
X188087000Y-112649000D01*
X188087000Y-109601000D02*
X189103000Y-109601000D01*
X188087000Y-112649000D02*
X188087000Y-115697000D01*
X188087000Y-112649000D02*
X189103000Y-112649000D01*
X188087000Y-115697000D02*
X188087000Y-118745000D01*
X188087000Y-115697000D02*
X189103000Y-115697000D01*
X188087000Y-118745000D02*
X188087000Y-121666000D01*
X188087000Y-118745000D02*
X189103000Y-118745000D01*
X188087000Y-121666000D02*
X188087000Y-124841000D01*
X188087000Y-121666000D02*
X188976000Y-121666000D01*
X188976000Y-121666000D02*
X189103000Y-121793000D01*
X189103000Y-86487000D02*
X188087000Y-86487000D01*
X188087000Y-124841000D02*
X189103000Y-124841000D01*
%TD*%
M02*
