%TF.GenerationSoftware,KiCad,Pcbnew,6.0.10-86aedd382b~118~ubuntu20.04.1*%
%TF.CreationDate,2022-12-30T18:50:17-08:00*%
%TF.ProjectId,parallel2usb,70617261-6c6c-4656-9c32-7573622e6b69,rev?*%
%TF.SameCoordinates,Original*%
%TF.FileFunction,Copper,L4,Bot*%
%TF.FilePolarity,Positive*%
%FSLAX46Y46*%
G04 Gerber Fmt 4.6, Leading zero omitted, Abs format (unit mm)*
G04 Created by KiCad (PCBNEW 6.0.10-86aedd382b~118~ubuntu20.04.1) date 2022-12-30 18:50:17*
%MOMM*%
%LPD*%
G01*
G04 APERTURE LIST*
%TA.AperFunction,ComponentPad*%
%ADD10C,4.000000*%
%TD*%
%TA.AperFunction,ComponentPad*%
%ADD11R,1.600000X1.600000*%
%TD*%
%TA.AperFunction,ComponentPad*%
%ADD12C,1.600000*%
%TD*%
%TA.AperFunction,ComponentPad*%
%ADD13O,1.700000X1.700000*%
%TD*%
%TA.AperFunction,ComponentPad*%
%ADD14R,1.700000X1.700000*%
%TD*%
%TA.AperFunction,ViaPad*%
%ADD15C,0.460000*%
%TD*%
%TA.AperFunction,ViaPad*%
%ADD16C,0.800000*%
%TD*%
%TA.AperFunction,Conductor*%
%ADD17C,0.100000*%
%TD*%
%TA.AperFunction,Conductor*%
%ADD18C,0.200000*%
%TD*%
G04 APERTURE END LIST*
D10*
%TO.P,J1,0,PAD*%
%TO.N,GND*%
X200508000Y-78055000D03*
X200508000Y-125155000D03*
D11*
%TO.P,J1,1,1*%
%TO.N,/STROBE*%
X199088000Y-118225000D03*
D12*
%TO.P,J1,2,2*%
%TO.N,/D0*%
X199088000Y-115455000D03*
%TO.P,J1,3,3*%
%TO.N,/D1*%
X199088000Y-112685000D03*
%TO.P,J1,4,4*%
%TO.N,/D2*%
X199088000Y-109915000D03*
%TO.P,J1,5,5*%
%TO.N,/D3*%
X199088000Y-107145000D03*
%TO.P,J1,6,6*%
%TO.N,/D4*%
X199088000Y-104375000D03*
%TO.P,J1,7,7*%
%TO.N,/D5*%
X199088000Y-101605000D03*
%TO.P,J1,8,8*%
%TO.N,/D6*%
X199088000Y-98835000D03*
%TO.P,J1,9,9*%
%TO.N,/D7*%
X199088000Y-96065000D03*
%TO.P,J1,10,10*%
%TO.N,/ACK*%
X199088000Y-93295000D03*
%TO.P,J1,11,11*%
%TO.N,/BUSY*%
X199088000Y-90525000D03*
%TO.P,J1,12,12*%
%TO.N,/PE*%
X199088000Y-87755000D03*
%TO.P,J1,13,13*%
%TO.N,/SEL*%
X199088000Y-84985000D03*
%TO.P,J1,14,P14*%
%TO.N,/AUTOF*%
X201928000Y-116840000D03*
%TO.P,J1,15,P15*%
%TO.N,/ERROR*%
X201928000Y-114070000D03*
%TO.P,J1,16,P16*%
%TO.N,/INIT*%
X201928000Y-111300000D03*
%TO.P,J1,17,P17*%
%TO.N,/SELIN*%
X201928000Y-108530000D03*
%TO.P,J1,18,P18*%
%TO.N,GND*%
X201928000Y-105760000D03*
%TO.P,J1,19,P19*%
X201928000Y-102990000D03*
%TO.P,J1,20,P20*%
X201928000Y-100220000D03*
%TO.P,J1,21,P21*%
X201928000Y-97450000D03*
%TO.P,J1,22,P22*%
X201928000Y-94680000D03*
%TO.P,J1,23,P23*%
X201928000Y-91910000D03*
%TO.P,J1,24,P24*%
X201928000Y-89140000D03*
%TO.P,J1,25,P25*%
X201928000Y-86370000D03*
%TD*%
D13*
%TO.P,J3,3,Pin_3*%
%TO.N,/SWDIO*%
X176149000Y-99045000D03*
%TO.P,J3,2,Pin_2*%
%TO.N,GND*%
X176149000Y-101585000D03*
D14*
%TO.P,J3,1,Pin_1*%
%TO.N,/SWCLK*%
X176149000Y-104125000D03*
%TD*%
D13*
%TO.P,U4,43,SWDIO*%
%TO.N,/SWDIO*%
X171450000Y-99060000D03*
D14*
%TO.P,U4,42,GND*%
%TO.N,GND*%
X171450000Y-101600000D03*
D13*
%TO.P,U4,41,SWCLK*%
%TO.N,/SWCLK*%
X171450000Y-104140000D03*
%TO.P,U4,40,VBUS*%
%TO.N,+5V*%
X123420000Y-92710000D03*
%TO.P,U4,39,VSYS*%
%TO.N,unconnected-(U4-Pad39)*%
X125960000Y-92710000D03*
D14*
%TO.P,U4,38,GND*%
%TO.N,GND*%
X128500000Y-92710000D03*
D13*
%TO.P,U4,37,3V3_EN*%
%TO.N,unconnected-(U4-Pad37)*%
X131040000Y-92710000D03*
%TO.P,U4,36,3V3*%
%TO.N,+3.3V*%
X133580000Y-92710000D03*
%TO.P,U4,35,ADC_VREF*%
%TO.N,unconnected-(U4-Pad35)*%
X136120000Y-92710000D03*
%TO.P,U4,34,GPIO28_ADC2*%
%TO.N,unconnected-(U4-Pad34)*%
X138660000Y-92710000D03*
D14*
%TO.P,U4,33,AGND*%
%TO.N,GND*%
X141200000Y-92710000D03*
D13*
%TO.P,U4,32,GPIO27_ADC1*%
%TO.N,unconnected-(U4-Pad32)*%
X143740000Y-92710000D03*
%TO.P,U4,31,GPIO26_ADC0*%
%TO.N,unconnected-(U4-Pad31)*%
X146280000Y-92710000D03*
%TO.P,U4,30,RUN*%
%TO.N,unconnected-(U4-Pad30)*%
X148820000Y-92710000D03*
%TO.P,U4,29,GPIO22*%
%TO.N,unconnected-(U4-Pad29)*%
X151360000Y-92710000D03*
D14*
%TO.P,U4,28,GND*%
%TO.N,GND*%
X153900000Y-92710000D03*
D13*
%TO.P,U4,27,GPIO21*%
%TO.N,/SOEN_3*%
X156440000Y-92710000D03*
%TO.P,U4,26,GPIO20*%
%TO.N,/ACK_3*%
X158980000Y-92710000D03*
%TO.P,U4,25,GPIO19*%
%TO.N,/ERROR_3*%
X161520000Y-92710000D03*
%TO.P,U4,24,GPIO18*%
%TO.N,/SEL_3*%
X164060000Y-92710000D03*
D14*
%TO.P,U4,23,GND*%
%TO.N,GND*%
X166600000Y-92710000D03*
D13*
%TO.P,U4,22,GPIO17*%
%TO.N,/PE_3*%
X169140000Y-92710000D03*
%TO.P,U4,21,GPIO16*%
%TO.N,/BUSY_3*%
X171680000Y-92710000D03*
%TO.P,U4,20,GPIO15*%
%TO.N,/D7_3*%
X171680000Y-110490000D03*
%TO.P,U4,19,GPIO14*%
%TO.N,/D6_3*%
X169140000Y-110490000D03*
D14*
%TO.P,U4,18,GND*%
%TO.N,GND*%
X166600000Y-110490000D03*
D13*
%TO.P,U4,17,GPIO13*%
%TO.N,/D5_3*%
X164060000Y-110490000D03*
%TO.P,U4,16,GPIO12*%
%TO.N,/D4_3*%
X161520000Y-110490000D03*
%TO.P,U4,15,GPIO11*%
%TO.N,/D3_3*%
X158980000Y-110490000D03*
%TO.P,U4,14,GPIO10*%
%TO.N,/D2_3*%
X156440000Y-110490000D03*
D14*
%TO.P,U4,13,GND*%
%TO.N,GND*%
X153900000Y-110490000D03*
D13*
%TO.P,U4,12,GPIO9*%
%TO.N,/D1_3*%
X151360000Y-110490000D03*
%TO.P,U4,11,GPIO8*%
%TO.N,/D0_3*%
X148820000Y-110490000D03*
%TO.P,U4,10,GPIO7*%
%TO.N,/DOEN_3*%
X146280000Y-110490000D03*
%TO.P,U4,9,GPIO6*%
%TO.N,/STROBE_3*%
X143740000Y-110490000D03*
D14*
%TO.P,U4,8,GND*%
%TO.N,GND*%
X141200000Y-110490000D03*
D13*
%TO.P,U4,7,GPIO5*%
%TO.N,/AUTOF_3*%
X138660000Y-110490000D03*
%TO.P,U4,6,GPIO4*%
%TO.N,/INIT_3*%
X136120000Y-110490000D03*
%TO.P,U4,5,GPIO3*%
%TO.N,/SELIN_3*%
X133580000Y-110490000D03*
%TO.P,U4,4,GPIO2*%
%TO.N,/COEN_3*%
X131040000Y-110490000D03*
D14*
%TO.P,U4,3,GND*%
%TO.N,GND*%
X128500000Y-110490000D03*
D13*
%TO.P,U4,2,GPIO1*%
%TO.N,unconnected-(U4-Pad2)*%
X125960000Y-110490000D03*
%TO.P,U4,1,GPIO0*%
%TO.N,unconnected-(U4-Pad1)*%
X123420000Y-110490000D03*
%TD*%
D14*
%TO.P,J2,1,Pin_1*%
%TO.N,+3.3V*%
X194770000Y-77082000D03*
D13*
%TO.P,J2,2,Pin_2*%
%TO.N,+5V*%
X194770000Y-79622000D03*
%TO.P,J2,3,Pin_3*%
%TO.N,/SEL*%
X194770000Y-82162000D03*
%TO.P,J2,4,Pin_4*%
%TO.N,/PE*%
X194770000Y-84702000D03*
%TO.P,J2,5,Pin_5*%
%TO.N,/BUSY*%
X194770000Y-87242000D03*
%TO.P,J2,6,Pin_6*%
%TO.N,/ACK*%
X194770000Y-89782000D03*
%TO.P,J2,7,Pin_7*%
%TO.N,/D7*%
X194770000Y-92322000D03*
%TO.P,J2,8,Pin_8*%
%TO.N,/D6*%
X194770000Y-94862000D03*
%TO.P,J2,9,Pin_9*%
%TO.N,/D5*%
X194770000Y-97402000D03*
%TO.P,J2,10,Pin_10*%
%TO.N,/D4*%
X194770000Y-99942000D03*
%TO.P,J2,11,Pin_11*%
%TO.N,/D3*%
X194770000Y-102482000D03*
%TO.P,J2,12,Pin_12*%
%TO.N,/SELIN*%
X194770000Y-105022000D03*
%TO.P,J2,13,Pin_13*%
%TO.N,/D2*%
X194770000Y-107562000D03*
%TO.P,J2,14,Pin_14*%
%TO.N,/INIT*%
X194770000Y-110102000D03*
%TO.P,J2,15,Pin_15*%
%TO.N,/D1*%
X194770000Y-112642000D03*
%TO.P,J2,16,Pin_16*%
%TO.N,/ERROR*%
X194770000Y-115182000D03*
%TO.P,J2,17,Pin_17*%
%TO.N,/D0*%
X194770000Y-117722000D03*
%TO.P,J2,18,Pin_18*%
%TO.N,/AUTOF*%
X194770000Y-120262000D03*
%TO.P,J2,19,Pin_19*%
%TO.N,/STROBE*%
X194770000Y-122802000D03*
%TO.P,J2,20,Pin_20*%
%TO.N,GND*%
X194770000Y-125342000D03*
%TD*%
D15*
%TO.N,/SELIN*%
X192405000Y-85471000D03*
D16*
%TO.N,+5V*%
X183515000Y-98679000D03*
%TO.N,GND*%
X174625000Y-108839000D03*
%TO.N,+3.3V*%
X188976000Y-96266000D03*
X187198000Y-107188000D03*
X180594000Y-98425000D03*
%TO.N,+5V*%
X173228000Y-87630000D03*
%TO.N,+3.3V*%
X187452000Y-86233000D03*
X173863000Y-88656503D03*
D15*
%TO.N,/ACK*%
X186436000Y-91821000D03*
%TO.N,/ERROR*%
X186055000Y-93218000D03*
%TO.N,/INIT*%
X186690000Y-103251000D03*
%TO.N,/AUTOF*%
X186182000Y-103759000D03*
%TO.N,/STROBE*%
X186182000Y-104521000D03*
D16*
%TO.N,GND*%
X182118000Y-97028000D03*
X180721000Y-105156000D03*
X183515000Y-105156000D03*
D15*
%TO.N,+5V*%
X189103000Y-121793000D03*
%TO.N,GND*%
X189103000Y-123317000D03*
X189103000Y-117221000D03*
%TO.N,+5V*%
X189103000Y-112649000D03*
%TO.N,GND*%
X189103000Y-91059000D03*
X189103000Y-88011000D03*
D16*
X180721000Y-93726000D03*
X180721000Y-116713000D03*
D15*
%TO.N,+5V*%
X189103000Y-115697000D03*
D16*
%TO.N,GND*%
X182118000Y-108585000D03*
X183515000Y-116713000D03*
D15*
X189103000Y-120269000D03*
D16*
X183515000Y-93726000D03*
D15*
X189103000Y-126365000D03*
D16*
X182118000Y-85598000D03*
D15*
X189103000Y-94107000D03*
X189103000Y-102362000D03*
%TO.N,+5V*%
X189103000Y-92583000D03*
%TO.N,GND*%
X189103000Y-105410000D03*
X189103000Y-99314000D03*
X189103000Y-111125000D03*
%TO.N,/BUSY*%
X185984000Y-91186000D03*
%TO.N,/PE*%
X186055000Y-90297000D03*
D16*
%TO.N,+3.3V*%
X180641843Y-110315157D03*
X180848000Y-87249000D03*
D15*
%TO.N,+5V*%
X189103000Y-103886000D03*
D16*
X183515000Y-110236000D03*
D15*
X189103000Y-97790000D03*
%TO.N,GND*%
X189103000Y-114173000D03*
%TO.N,+5V*%
X189103000Y-109601000D03*
D16*
X183515000Y-86868000D03*
D15*
X189103000Y-100838000D03*
X189103000Y-86487000D03*
X189103000Y-89535000D03*
X189103000Y-118745000D03*
X189103000Y-124841000D03*
%TD*%
D17*
%TO.N,/SELIN*%
X194770000Y-105022000D02*
X196088000Y-103704000D01*
X195834000Y-83439000D02*
X194310000Y-83439000D01*
X196088000Y-103704000D02*
X196088000Y-103378000D01*
X196088000Y-103378000D02*
X196088000Y-83693000D01*
X196088000Y-83693000D02*
X195834000Y-83439000D01*
X194310000Y-83439000D02*
X192405000Y-85344000D01*
X192405000Y-85344000D02*
X192405000Y-85471000D01*
D18*
%TO.N,+3.3V*%
X181483000Y-98044000D02*
X187198000Y-98044000D01*
X187198000Y-98044000D02*
X188976000Y-96266000D01*
X181483000Y-107188000D02*
X181483000Y-110363000D01*
X181483000Y-98044000D02*
X181483000Y-107188000D01*
X181483000Y-107188000D02*
X187198000Y-107188000D01*
X181483000Y-110363000D02*
X180689686Y-110363000D01*
X180689686Y-110363000D02*
X180641843Y-110315157D01*
X181483000Y-88646000D02*
X181483000Y-98044000D01*
X181483000Y-98044000D02*
X181102000Y-98425000D01*
X181102000Y-98425000D02*
X180594000Y-98425000D01*
X173873503Y-88646000D02*
X173863000Y-88656503D01*
X181483000Y-88646000D02*
X173873503Y-88646000D01*
X181483000Y-88646000D02*
X187960000Y-88646000D01*
X187960000Y-88646000D02*
X188087000Y-88519000D01*
X188087000Y-88519000D02*
X188087000Y-86868000D01*
X188087000Y-86868000D02*
X187452000Y-86233000D01*
X181483000Y-88646000D02*
X181483000Y-87884000D01*
X181483000Y-87884000D02*
X180848000Y-87249000D01*
D17*
%TO.N,/PE*%
X194770000Y-84702000D02*
X192405000Y-87067000D01*
X192405000Y-87067000D02*
X192405000Y-89789000D01*
X192405000Y-89789000D02*
X192024000Y-90170000D01*
X192024000Y-90170000D02*
X186182000Y-90170000D01*
X186182000Y-90170000D02*
X186055000Y-90297000D01*
%TO.N,/BUSY*%
X194770000Y-87242000D02*
X192913000Y-89099000D01*
X192913000Y-89099000D02*
X192913000Y-89662000D01*
X192913000Y-89662000D02*
X192151000Y-90424000D01*
X192151000Y-90424000D02*
X187706000Y-90424000D01*
X187706000Y-90424000D02*
X186944000Y-91186000D01*
X186944000Y-91186000D02*
X185984000Y-91186000D01*
%TO.N,/ACK*%
X194770000Y-89782000D02*
X192731000Y-91821000D01*
X192731000Y-91821000D02*
X191770000Y-91821000D01*
X191770000Y-91821000D02*
X186436000Y-91821000D01*
%TO.N,/ERROR*%
X194770000Y-115182000D02*
X195707000Y-114245000D01*
X195707000Y-114245000D02*
X195707000Y-114046000D01*
X195707000Y-114046000D02*
X195770000Y-113983000D01*
X187198000Y-93218000D02*
X186055000Y-93218000D01*
X194644214Y-108562000D02*
X194355786Y-108562000D01*
X195770000Y-113983000D02*
X195770000Y-109687786D01*
X195770000Y-109687786D02*
X194644214Y-108562000D01*
X194355786Y-108562000D02*
X190246000Y-104452214D01*
X189484000Y-95504000D02*
X187198000Y-93218000D01*
X190246000Y-102870000D02*
X190246000Y-96266000D01*
X190246000Y-104452214D02*
X190246000Y-102870000D01*
X190246000Y-96266000D02*
X189484000Y-95504000D01*
%TO.N,/INIT*%
X194770000Y-110102000D02*
X193033000Y-110102000D01*
X190627000Y-107696000D02*
X186690000Y-103759000D01*
X193033000Y-110102000D02*
X190627000Y-107696000D01*
X186690000Y-103759000D02*
X186690000Y-103378000D01*
X186690000Y-103378000D02*
X186690000Y-103251000D01*
%TO.N,/AUTOF*%
X194770000Y-120262000D02*
X191636000Y-120262000D01*
X191636000Y-120262000D02*
X191008000Y-119634000D01*
X190881000Y-108458000D02*
X186817000Y-104394000D01*
X191008000Y-119634000D02*
X190881000Y-119507000D01*
X190881000Y-119507000D02*
X190881000Y-108458000D01*
X186817000Y-104394000D02*
X186182000Y-103759000D01*
%TO.N,/STROBE*%
X194770000Y-122802000D02*
X192779000Y-122802000D01*
X192779000Y-122802000D02*
X191262000Y-121285000D01*
X190627000Y-108585000D02*
X186563000Y-104521000D01*
X191262000Y-121285000D02*
X190627000Y-120650000D01*
X190627000Y-120650000D02*
X190627000Y-108585000D01*
X186563000Y-104521000D02*
X186182000Y-104521000D01*
%TD*%
M02*
