%TF.GenerationSoftware,KiCad,Pcbnew,6.0.10-86aedd382b~118~ubuntu20.04.1*%
%TF.CreationDate,2022-12-31T17:49:26-08:00*%
%TF.ProjectId,parallel2usb,70617261-6c6c-4656-9c32-7573622e6b69,rev?*%
%TF.SameCoordinates,Original*%
%TF.FileFunction,Soldermask,Bot*%
%TF.FilePolarity,Negative*%
%FSLAX46Y46*%
G04 Gerber Fmt 4.6, Leading zero omitted, Abs format (unit mm)*
G04 Created by KiCad (PCBNEW 6.0.10-86aedd382b~118~ubuntu20.04.1) date 2022-12-31 17:49:26*
%MOMM*%
%LPD*%
G01*
G04 APERTURE LIST*
%ADD10C,2.700000*%
%ADD11O,1.500000X1.500000*%
%ADD12O,1.800000X1.800000*%
%ADD13O,1.700000X1.700000*%
%ADD14R,1.700000X1.700000*%
%ADD15C,4.000000*%
%ADD16R,1.600000X1.600000*%
%ADD17C,1.600000*%
G04 APERTURE END LIST*
D10*
%TO.C,H1*%
X183642000Y-78105000D03*
%TD*%
D11*
%TO.C,U2*%
X123354200Y-104025000D03*
X123354200Y-99175000D03*
D12*
X120324200Y-98875000D03*
X120324200Y-104325000D03*
D13*
X120194200Y-110490000D03*
X122734200Y-110490000D03*
D14*
X125274200Y-110490000D03*
D13*
X127814200Y-110490000D03*
X130354200Y-110490000D03*
X132894200Y-110490000D03*
X135434200Y-110490000D03*
D14*
X137974200Y-110490000D03*
D13*
X140514200Y-110490000D03*
X143054200Y-110490000D03*
X145594200Y-110490000D03*
X148134200Y-110490000D03*
D14*
X150674200Y-110490000D03*
D13*
X153214200Y-110490000D03*
X155754200Y-110490000D03*
X158294200Y-110490000D03*
X160834200Y-110490000D03*
D14*
X163374200Y-110490000D03*
D13*
X165914200Y-110490000D03*
X168454200Y-110490000D03*
X168454200Y-92710000D03*
X165914200Y-92710000D03*
D14*
X163374200Y-92710000D03*
D13*
X160834200Y-92710000D03*
X158294200Y-92710000D03*
X155754200Y-92710000D03*
X153214200Y-92710000D03*
D14*
X150674200Y-92710000D03*
D13*
X148134200Y-92710000D03*
X145594200Y-92710000D03*
X143054200Y-92710000D03*
X140514200Y-92710000D03*
D14*
X137974200Y-92710000D03*
D13*
X135434200Y-92710000D03*
X132894200Y-92710000D03*
X130354200Y-92710000D03*
X127814200Y-92710000D03*
D14*
X125274200Y-92710000D03*
D13*
X122734200Y-92710000D03*
X120194200Y-92710000D03*
X168224200Y-104140000D03*
D14*
X168224200Y-101600000D03*
D13*
X168224200Y-99060000D03*
%TD*%
D15*
%TO.C,J1*%
X200508000Y-78055000D03*
X200508000Y-125155000D03*
D16*
X199088000Y-118225000D03*
D17*
X199088000Y-115455000D03*
X199088000Y-112685000D03*
X199088000Y-109915000D03*
X199088000Y-107145000D03*
X199088000Y-104375000D03*
X199088000Y-101605000D03*
X199088000Y-98835000D03*
X199088000Y-96065000D03*
X199088000Y-93295000D03*
X199088000Y-90525000D03*
X199088000Y-87755000D03*
X199088000Y-84985000D03*
X201928000Y-116840000D03*
X201928000Y-114070000D03*
X201928000Y-111300000D03*
X201928000Y-108530000D03*
X201928000Y-105760000D03*
X201928000Y-102990000D03*
X201928000Y-100220000D03*
X201928000Y-97450000D03*
X201928000Y-94680000D03*
X201928000Y-91910000D03*
X201928000Y-89140000D03*
X201928000Y-86370000D03*
%TD*%
D14*
%TO.C,J3*%
X176672000Y-112776000D03*
D13*
X179212000Y-112776000D03*
X181752000Y-112776000D03*
%TD*%
D10*
%TO.C,H2*%
X183642000Y-125095000D03*
%TD*%
D14*
%TO.C,J2*%
X194770000Y-77089000D03*
D13*
X194770000Y-79629000D03*
X194770000Y-82169000D03*
X194770000Y-84709000D03*
X194770000Y-87249000D03*
X194770000Y-89789000D03*
X194770000Y-92329000D03*
X194770000Y-94869000D03*
X194770000Y-97409000D03*
X194770000Y-99949000D03*
X194770000Y-102489000D03*
X194770000Y-105029000D03*
X194770000Y-107569000D03*
X194770000Y-110109000D03*
X194770000Y-112649000D03*
X194770000Y-115189000D03*
X194770000Y-117729000D03*
X194770000Y-120269000D03*
X194770000Y-122809000D03*
X194770000Y-125349000D03*
%TD*%
M02*
