%TF.GenerationSoftware,KiCad,Pcbnew,6.0.10-86aedd382b~118~ubuntu20.04.1*%
%TF.CreationDate,2022-12-30T18:50:17-08:00*%
%TF.ProjectId,parallel2usb,70617261-6c6c-4656-9c32-7573622e6b69,rev?*%
%TF.SameCoordinates,Original*%
%TF.FileFunction,Paste,Top*%
%TF.FilePolarity,Positive*%
%FSLAX46Y46*%
G04 Gerber Fmt 4.6, Leading zero omitted, Abs format (unit mm)*
G04 Created by KiCad (PCBNEW 6.0.10-86aedd382b~118~ubuntu20.04.1) date 2022-12-30 18:50:17*
%MOMM*%
%LPD*%
G01*
G04 APERTURE LIST*
G04 Aperture macros list*
%AMRoundRect*
0 Rectangle with rounded corners*
0 $1 Rounding radius*
0 $2 $3 $4 $5 $6 $7 $8 $9 X,Y pos of 4 corners*
0 Add a 4 corners polygon primitive as box body*
4,1,4,$2,$3,$4,$5,$6,$7,$8,$9,$2,$3,0*
0 Add four circle primitives for the rounded corners*
1,1,$1+$1,$2,$3*
1,1,$1+$1,$4,$5*
1,1,$1+$1,$6,$7*
1,1,$1+$1,$8,$9*
0 Add four rect primitives between the rounded corners*
20,1,$1+$1,$2,$3,$4,$5,0*
20,1,$1+$1,$4,$5,$6,$7,0*
20,1,$1+$1,$6,$7,$8,$9,0*
20,1,$1+$1,$8,$9,$2,$3,0*%
G04 Aperture macros list end*
%ADD10RoundRect,0.237500X0.250000X0.237500X-0.250000X0.237500X-0.250000X-0.237500X0.250000X-0.237500X0*%
%ADD11RoundRect,0.237500X0.300000X0.237500X-0.300000X0.237500X-0.300000X-0.237500X0.300000X-0.237500X0*%
%ADD12RoundRect,0.237500X-0.250000X-0.237500X0.250000X-0.237500X0.250000X0.237500X-0.250000X0.237500X0*%
%ADD13RoundRect,0.237500X-0.300000X-0.237500X0.300000X-0.237500X0.300000X0.237500X-0.300000X0.237500X0*%
%ADD14RoundRect,0.100000X-0.637500X-0.100000X0.637500X-0.100000X0.637500X0.100000X-0.637500X0.100000X0*%
G04 APERTURE END LIST*
D10*
%TO.C,R3*%
X186309000Y-85090000D03*
X188134000Y-85090000D03*
%TD*%
D11*
%TO.C,C3*%
X183007000Y-85090000D03*
X184732000Y-85090000D03*
%TD*%
%TO.C,C16*%
X191643000Y-114173000D03*
X189918000Y-114173000D03*
%TD*%
%TO.C,C17*%
X191643000Y-123317000D03*
X189918000Y-123317000D03*
%TD*%
D12*
%TO.C,R9*%
X189818000Y-103886000D03*
X191643000Y-103886000D03*
%TD*%
D11*
%TO.C,C15*%
X191643000Y-88011000D03*
X189918000Y-88011000D03*
%TD*%
D12*
%TO.C,R18*%
X175617500Y-94869000D03*
X177442500Y-94869000D03*
%TD*%
D13*
%TO.C,C5*%
X181176000Y-96520000D03*
X179451000Y-96520000D03*
%TD*%
D11*
%TO.C,C11*%
X191643000Y-111125000D03*
X189918000Y-111125000D03*
%TD*%
D12*
%TO.C,R11*%
X189818000Y-115697000D03*
X191643000Y-115697000D03*
%TD*%
D14*
%TO.C,U1*%
X184980500Y-109582000D03*
X184980500Y-110232000D03*
X184980500Y-110882000D03*
X184980500Y-111532000D03*
X184980500Y-112182000D03*
X184980500Y-112832000D03*
X184980500Y-113482000D03*
X184980500Y-114132000D03*
X184980500Y-114782000D03*
X184980500Y-115432000D03*
X184980500Y-116082000D03*
X184980500Y-116732000D03*
X179255500Y-116732000D03*
X179255500Y-116082000D03*
X179255500Y-115432000D03*
X179255500Y-114782000D03*
X179255500Y-114132000D03*
X179255500Y-113482000D03*
X179255500Y-112832000D03*
X179255500Y-112182000D03*
X179255500Y-111532000D03*
X179255500Y-110882000D03*
X179255500Y-110232000D03*
X179255500Y-109582000D03*
%TD*%
D10*
%TO.C,R19*%
X177442500Y-96393000D03*
X175617500Y-96393000D03*
%TD*%
D12*
%TO.C,R16*%
X175641000Y-86868000D03*
X177466000Y-86868000D03*
%TD*%
D13*
%TO.C,C2*%
X181229000Y-108077000D03*
X179504000Y-108077000D03*
%TD*%
D11*
%TO.C,C4*%
X183007000Y-108077000D03*
X184732000Y-108077000D03*
%TD*%
D14*
%TO.C,U3*%
X184980500Y-98006000D03*
X184980500Y-98656000D03*
X184980500Y-99306000D03*
X184980500Y-99956000D03*
X184980500Y-100606000D03*
X184980500Y-101256000D03*
X184980500Y-101906000D03*
X184980500Y-102556000D03*
X184980500Y-103206000D03*
X184980500Y-103856000D03*
X184980500Y-104506000D03*
X184980500Y-105156000D03*
X179255500Y-105156000D03*
X179255500Y-104506000D03*
X179255500Y-103856000D03*
X179255500Y-103206000D03*
X179255500Y-102556000D03*
X179255500Y-101906000D03*
X179255500Y-101256000D03*
X179255500Y-100606000D03*
X179255500Y-99956000D03*
X179255500Y-99306000D03*
X179255500Y-98656000D03*
X179255500Y-98006000D03*
%TD*%
D11*
%TO.C,C9*%
X191643000Y-102362000D03*
X189918000Y-102362000D03*
%TD*%
D12*
%TO.C,R8*%
X189818000Y-100838000D03*
X191643000Y-100838000D03*
%TD*%
%TO.C,R6*%
X189818000Y-92583000D03*
X191643000Y-92583000D03*
%TD*%
D10*
%TO.C,R2*%
X186309000Y-108077000D03*
X188134000Y-108077000D03*
%TD*%
D12*
%TO.C,R15*%
X189818000Y-124841000D03*
X191643000Y-124841000D03*
%TD*%
D11*
%TO.C,C10*%
X191643000Y-105410000D03*
X189918000Y-105410000D03*
%TD*%
%TO.C,C8*%
X191643000Y-99314000D03*
X189918000Y-99314000D03*
%TD*%
D12*
%TO.C,R14*%
X189818000Y-121793000D03*
X191643000Y-121793000D03*
%TD*%
%TO.C,R13*%
X189818000Y-112649000D03*
X191643000Y-112649000D03*
%TD*%
%TO.C,R10*%
X189818000Y-109601000D03*
X191643000Y-109601000D03*
%TD*%
D10*
%TO.C,R21*%
X177442500Y-108966000D03*
X175617500Y-108966000D03*
%TD*%
D11*
%TO.C,C6*%
X191643000Y-91059000D03*
X189918000Y-91059000D03*
%TD*%
%TO.C,C12*%
X191643000Y-117221000D03*
X189918000Y-117221000D03*
%TD*%
%TO.C,C14*%
X182880000Y-96520000D03*
X184605000Y-96520000D03*
%TD*%
D13*
%TO.C,C1*%
X181229000Y-85090000D03*
X179504000Y-85090000D03*
%TD*%
D10*
%TO.C,R17*%
X177466000Y-88392000D03*
X175641000Y-88392000D03*
%TD*%
D11*
%TO.C,C18*%
X191643000Y-126365000D03*
X189918000Y-126365000D03*
%TD*%
D12*
%TO.C,R7*%
X189818000Y-97790000D03*
X191643000Y-97790000D03*
%TD*%
%TO.C,R12*%
X189818000Y-118745000D03*
X191643000Y-118745000D03*
%TD*%
D11*
%TO.C,C13*%
X189918000Y-120269000D03*
X191643000Y-120269000D03*
%TD*%
D12*
%TO.C,R20*%
X177466000Y-107442000D03*
X175641000Y-107442000D03*
%TD*%
D11*
%TO.C,C7*%
X191643000Y-94107000D03*
X189918000Y-94107000D03*
%TD*%
D10*
%TO.C,R1*%
X186182000Y-96520000D03*
X188007000Y-96520000D03*
%TD*%
D14*
%TO.C,U2*%
X184980500Y-86595000D03*
X184980500Y-87245000D03*
X184980500Y-87895000D03*
X184980500Y-88545000D03*
X184980500Y-89195000D03*
X184980500Y-89845000D03*
X184980500Y-90495000D03*
X184980500Y-91145000D03*
X184980500Y-91795000D03*
X184980500Y-92445000D03*
X184980500Y-93095000D03*
X184980500Y-93745000D03*
X179255500Y-93745000D03*
X179255500Y-93095000D03*
X179255500Y-92445000D03*
X179255500Y-91795000D03*
X179255500Y-91145000D03*
X179255500Y-90495000D03*
X179255500Y-89845000D03*
X179255500Y-89195000D03*
X179255500Y-88545000D03*
X179255500Y-87895000D03*
X179255500Y-87245000D03*
X179255500Y-86595000D03*
%TD*%
D12*
%TO.C,R4*%
X189818000Y-86487000D03*
X191643000Y-86487000D03*
%TD*%
%TO.C,R5*%
X189818000Y-89535000D03*
X191643000Y-89535000D03*
%TD*%
M02*
