%TF.GenerationSoftware,KiCad,Pcbnew,6.0.10-86aedd382b~118~ubuntu20.04.1*%
%TF.CreationDate,2022-12-30T18:50:17-08:00*%
%TF.ProjectId,parallel2usb,70617261-6c6c-4656-9c32-7573622e6b69,rev?*%
%TF.SameCoordinates,Original*%
%TF.FileFunction,Legend,Top*%
%TF.FilePolarity,Positive*%
%FSLAX46Y46*%
G04 Gerber Fmt 4.6, Leading zero omitted, Abs format (unit mm)*
G04 Created by KiCad (PCBNEW 6.0.10-86aedd382b~118~ubuntu20.04.1) date 2022-12-30 18:50:17*
%MOMM*%
%LPD*%
G01*
G04 APERTURE LIST*
%ADD10C,0.150000*%
%ADD11C,0.120000*%
G04 APERTURE END LIST*
D10*
%TO.C,R3*%
X187031333Y-84399380D02*
X186698000Y-83923190D01*
X186459904Y-84399380D02*
X186459904Y-83399380D01*
X186840857Y-83399380D01*
X186936095Y-83447000D01*
X186983714Y-83494619D01*
X187031333Y-83589857D01*
X187031333Y-83732714D01*
X186983714Y-83827952D01*
X186936095Y-83875571D01*
X186840857Y-83923190D01*
X186459904Y-83923190D01*
X187364666Y-83399380D02*
X187983714Y-83399380D01*
X187650380Y-83780333D01*
X187793238Y-83780333D01*
X187888476Y-83827952D01*
X187936095Y-83875571D01*
X187983714Y-83970809D01*
X187983714Y-84208904D01*
X187936095Y-84304142D01*
X187888476Y-84351761D01*
X187793238Y-84399380D01*
X187507523Y-84399380D01*
X187412285Y-84351761D01*
X187364666Y-84304142D01*
%TO.C,C3*%
X183602333Y-84304142D02*
X183554714Y-84351761D01*
X183411857Y-84399380D01*
X183316619Y-84399380D01*
X183173761Y-84351761D01*
X183078523Y-84256523D01*
X183030904Y-84161285D01*
X182983285Y-83970809D01*
X182983285Y-83827952D01*
X183030904Y-83637476D01*
X183078523Y-83542238D01*
X183173761Y-83447000D01*
X183316619Y-83399380D01*
X183411857Y-83399380D01*
X183554714Y-83447000D01*
X183602333Y-83494619D01*
X183935666Y-83399380D02*
X184554714Y-83399380D01*
X184221380Y-83780333D01*
X184364238Y-83780333D01*
X184459476Y-83827952D01*
X184507095Y-83875571D01*
X184554714Y-83970809D01*
X184554714Y-84208904D01*
X184507095Y-84304142D01*
X184459476Y-84351761D01*
X184364238Y-84399380D01*
X184078523Y-84399380D01*
X183983285Y-84351761D01*
X183935666Y-84304142D01*
%TO.C,C16*%
X187057642Y-114530142D02*
X187010023Y-114577761D01*
X186867166Y-114625380D01*
X186771928Y-114625380D01*
X186629071Y-114577761D01*
X186533833Y-114482523D01*
X186486214Y-114387285D01*
X186438595Y-114196809D01*
X186438595Y-114053952D01*
X186486214Y-113863476D01*
X186533833Y-113768238D01*
X186629071Y-113673000D01*
X186771928Y-113625380D01*
X186867166Y-113625380D01*
X187010023Y-113673000D01*
X187057642Y-113720619D01*
X188010023Y-114625380D02*
X187438595Y-114625380D01*
X187724309Y-114625380D02*
X187724309Y-113625380D01*
X187629071Y-113768238D01*
X187533833Y-113863476D01*
X187438595Y-113911095D01*
X188867166Y-113625380D02*
X188676690Y-113625380D01*
X188581452Y-113673000D01*
X188533833Y-113720619D01*
X188438595Y-113863476D01*
X188390976Y-114053952D01*
X188390976Y-114434904D01*
X188438595Y-114530142D01*
X188486214Y-114577761D01*
X188581452Y-114625380D01*
X188771928Y-114625380D01*
X188867166Y-114577761D01*
X188914785Y-114530142D01*
X188962404Y-114434904D01*
X188962404Y-114196809D01*
X188914785Y-114101571D01*
X188867166Y-114053952D01*
X188771928Y-114006333D01*
X188581452Y-114006333D01*
X188486214Y-114053952D01*
X188438595Y-114101571D01*
X188390976Y-114196809D01*
%TO.C,C17*%
X186936142Y-123674142D02*
X186888523Y-123721761D01*
X186745666Y-123769380D01*
X186650428Y-123769380D01*
X186507571Y-123721761D01*
X186412333Y-123626523D01*
X186364714Y-123531285D01*
X186317095Y-123340809D01*
X186317095Y-123197952D01*
X186364714Y-123007476D01*
X186412333Y-122912238D01*
X186507571Y-122817000D01*
X186650428Y-122769380D01*
X186745666Y-122769380D01*
X186888523Y-122817000D01*
X186936142Y-122864619D01*
X187888523Y-123769380D02*
X187317095Y-123769380D01*
X187602809Y-123769380D02*
X187602809Y-122769380D01*
X187507571Y-122912238D01*
X187412333Y-123007476D01*
X187317095Y-123055095D01*
X188221857Y-122769380D02*
X188888523Y-122769380D01*
X188459952Y-123769380D01*
%TO.C,H1*%
X185801095Y-76525380D02*
X185801095Y-75525380D01*
X185801095Y-76001571D02*
X186372523Y-76001571D01*
X186372523Y-76525380D02*
X186372523Y-75525380D01*
X187372523Y-76525380D02*
X186801095Y-76525380D01*
X187086809Y-76525380D02*
X187086809Y-75525380D01*
X186991571Y-75668238D01*
X186896333Y-75763476D01*
X186801095Y-75811095D01*
%TO.C,R9*%
X187920333Y-104338380D02*
X187587000Y-103862190D01*
X187348904Y-104338380D02*
X187348904Y-103338380D01*
X187729857Y-103338380D01*
X187825095Y-103386000D01*
X187872714Y-103433619D01*
X187920333Y-103528857D01*
X187920333Y-103671714D01*
X187872714Y-103766952D01*
X187825095Y-103814571D01*
X187729857Y-103862190D01*
X187348904Y-103862190D01*
X188396523Y-104338380D02*
X188587000Y-104338380D01*
X188682238Y-104290761D01*
X188729857Y-104243142D01*
X188825095Y-104100285D01*
X188872714Y-103909809D01*
X188872714Y-103528857D01*
X188825095Y-103433619D01*
X188777476Y-103386000D01*
X188682238Y-103338380D01*
X188491761Y-103338380D01*
X188396523Y-103386000D01*
X188348904Y-103433619D01*
X188301285Y-103528857D01*
X188301285Y-103766952D01*
X188348904Y-103862190D01*
X188396523Y-103909809D01*
X188491761Y-103957428D01*
X188682238Y-103957428D01*
X188777476Y-103909809D01*
X188825095Y-103862190D01*
X188872714Y-103766952D01*
%TO.C,C15*%
X187025642Y-88398142D02*
X186978023Y-88445761D01*
X186835166Y-88493380D01*
X186739928Y-88493380D01*
X186597071Y-88445761D01*
X186501833Y-88350523D01*
X186454214Y-88255285D01*
X186406595Y-88064809D01*
X186406595Y-87921952D01*
X186454214Y-87731476D01*
X186501833Y-87636238D01*
X186597071Y-87541000D01*
X186739928Y-87493380D01*
X186835166Y-87493380D01*
X186978023Y-87541000D01*
X187025642Y-87588619D01*
X187978023Y-88493380D02*
X187406595Y-88493380D01*
X187692309Y-88493380D02*
X187692309Y-87493380D01*
X187597071Y-87636238D01*
X187501833Y-87731476D01*
X187406595Y-87779095D01*
X188882785Y-87493380D02*
X188406595Y-87493380D01*
X188358976Y-87969571D01*
X188406595Y-87921952D01*
X188501833Y-87874333D01*
X188739928Y-87874333D01*
X188835166Y-87921952D01*
X188882785Y-87969571D01*
X188930404Y-88064809D01*
X188930404Y-88302904D01*
X188882785Y-88398142D01*
X188835166Y-88445761D01*
X188739928Y-88493380D01*
X188501833Y-88493380D01*
X188406595Y-88445761D01*
X188358976Y-88398142D01*
%TO.C,R18*%
X175887142Y-93891380D02*
X175553809Y-93415190D01*
X175315714Y-93891380D02*
X175315714Y-92891380D01*
X175696666Y-92891380D01*
X175791904Y-92939000D01*
X175839523Y-92986619D01*
X175887142Y-93081857D01*
X175887142Y-93224714D01*
X175839523Y-93319952D01*
X175791904Y-93367571D01*
X175696666Y-93415190D01*
X175315714Y-93415190D01*
X176839523Y-93891380D02*
X176268095Y-93891380D01*
X176553809Y-93891380D02*
X176553809Y-92891380D01*
X176458571Y-93034238D01*
X176363333Y-93129476D01*
X176268095Y-93177095D01*
X177410952Y-93319952D02*
X177315714Y-93272333D01*
X177268095Y-93224714D01*
X177220476Y-93129476D01*
X177220476Y-93081857D01*
X177268095Y-92986619D01*
X177315714Y-92939000D01*
X177410952Y-92891380D01*
X177601428Y-92891380D01*
X177696666Y-92939000D01*
X177744285Y-92986619D01*
X177791904Y-93081857D01*
X177791904Y-93129476D01*
X177744285Y-93224714D01*
X177696666Y-93272333D01*
X177601428Y-93319952D01*
X177410952Y-93319952D01*
X177315714Y-93367571D01*
X177268095Y-93415190D01*
X177220476Y-93510428D01*
X177220476Y-93700904D01*
X177268095Y-93796142D01*
X177315714Y-93843761D01*
X177410952Y-93891380D01*
X177601428Y-93891380D01*
X177696666Y-93843761D01*
X177744285Y-93796142D01*
X177791904Y-93700904D01*
X177791904Y-93510428D01*
X177744285Y-93415190D01*
X177696666Y-93367571D01*
X177601428Y-93319952D01*
%TO.C,C5*%
X179411333Y-95734142D02*
X179363714Y-95781761D01*
X179220857Y-95829380D01*
X179125619Y-95829380D01*
X178982761Y-95781761D01*
X178887523Y-95686523D01*
X178839904Y-95591285D01*
X178792285Y-95400809D01*
X178792285Y-95257952D01*
X178839904Y-95067476D01*
X178887523Y-94972238D01*
X178982761Y-94877000D01*
X179125619Y-94829380D01*
X179220857Y-94829380D01*
X179363714Y-94877000D01*
X179411333Y-94924619D01*
X180316095Y-94829380D02*
X179839904Y-94829380D01*
X179792285Y-95305571D01*
X179839904Y-95257952D01*
X179935142Y-95210333D01*
X180173238Y-95210333D01*
X180268476Y-95257952D01*
X180316095Y-95305571D01*
X180363714Y-95400809D01*
X180363714Y-95638904D01*
X180316095Y-95734142D01*
X180268476Y-95781761D01*
X180173238Y-95829380D01*
X179935142Y-95829380D01*
X179839904Y-95781761D01*
X179792285Y-95734142D01*
%TO.C,C11*%
X187063142Y-111609142D02*
X187015523Y-111656761D01*
X186872666Y-111704380D01*
X186777428Y-111704380D01*
X186634571Y-111656761D01*
X186539333Y-111561523D01*
X186491714Y-111466285D01*
X186444095Y-111275809D01*
X186444095Y-111132952D01*
X186491714Y-110942476D01*
X186539333Y-110847238D01*
X186634571Y-110752000D01*
X186777428Y-110704380D01*
X186872666Y-110704380D01*
X187015523Y-110752000D01*
X187063142Y-110799619D01*
X188015523Y-111704380D02*
X187444095Y-111704380D01*
X187729809Y-111704380D02*
X187729809Y-110704380D01*
X187634571Y-110847238D01*
X187539333Y-110942476D01*
X187444095Y-110990095D01*
X188967904Y-111704380D02*
X188396476Y-111704380D01*
X188682190Y-111704380D02*
X188682190Y-110704380D01*
X188586952Y-110847238D01*
X188491714Y-110942476D01*
X188396476Y-110990095D01*
%TO.C,R11*%
X186936142Y-116149380D02*
X186602809Y-115673190D01*
X186364714Y-116149380D02*
X186364714Y-115149380D01*
X186745666Y-115149380D01*
X186840904Y-115197000D01*
X186888523Y-115244619D01*
X186936142Y-115339857D01*
X186936142Y-115482714D01*
X186888523Y-115577952D01*
X186840904Y-115625571D01*
X186745666Y-115673190D01*
X186364714Y-115673190D01*
X187888523Y-116149380D02*
X187317095Y-116149380D01*
X187602809Y-116149380D02*
X187602809Y-115149380D01*
X187507571Y-115292238D01*
X187412333Y-115387476D01*
X187317095Y-115435095D01*
X188840904Y-116149380D02*
X188269476Y-116149380D01*
X188555190Y-116149380D02*
X188555190Y-115149380D01*
X188459952Y-115292238D01*
X188364714Y-115387476D01*
X188269476Y-115435095D01*
%TO.C,U1*%
X181737095Y-117435380D02*
X181737095Y-118244904D01*
X181784714Y-118340142D01*
X181832333Y-118387761D01*
X181927571Y-118435380D01*
X182118047Y-118435380D01*
X182213285Y-118387761D01*
X182260904Y-118340142D01*
X182308523Y-118244904D01*
X182308523Y-117435380D01*
X183308523Y-118435380D02*
X182737095Y-118435380D01*
X183022809Y-118435380D02*
X183022809Y-117435380D01*
X182927571Y-117578238D01*
X182832333Y-117673476D01*
X182737095Y-117721095D01*
%TO.C,R19*%
X174973880Y-96273857D02*
X174497690Y-96607190D01*
X174973880Y-96845285D02*
X173973880Y-96845285D01*
X173973880Y-96464333D01*
X174021500Y-96369095D01*
X174069119Y-96321476D01*
X174164357Y-96273857D01*
X174307214Y-96273857D01*
X174402452Y-96321476D01*
X174450071Y-96369095D01*
X174497690Y-96464333D01*
X174497690Y-96845285D01*
X174973880Y-95321476D02*
X174973880Y-95892904D01*
X174973880Y-95607190D02*
X173973880Y-95607190D01*
X174116738Y-95702428D01*
X174211976Y-95797666D01*
X174259595Y-95892904D01*
X174973880Y-94845285D02*
X174973880Y-94654809D01*
X174926261Y-94559571D01*
X174878642Y-94511952D01*
X174735785Y-94416714D01*
X174545309Y-94369095D01*
X174164357Y-94369095D01*
X174069119Y-94416714D01*
X174021500Y-94464333D01*
X173973880Y-94559571D01*
X173973880Y-94750047D01*
X174021500Y-94845285D01*
X174069119Y-94892904D01*
X174164357Y-94940523D01*
X174402452Y-94940523D01*
X174497690Y-94892904D01*
X174545309Y-94845285D01*
X174592928Y-94750047D01*
X174592928Y-94559571D01*
X174545309Y-94464333D01*
X174497690Y-94416714D01*
X174402452Y-94369095D01*
%TO.C,R16*%
X172839142Y-87066380D02*
X172505809Y-86590190D01*
X172267714Y-87066380D02*
X172267714Y-86066380D01*
X172648666Y-86066380D01*
X172743904Y-86114000D01*
X172791523Y-86161619D01*
X172839142Y-86256857D01*
X172839142Y-86399714D01*
X172791523Y-86494952D01*
X172743904Y-86542571D01*
X172648666Y-86590190D01*
X172267714Y-86590190D01*
X173791523Y-87066380D02*
X173220095Y-87066380D01*
X173505809Y-87066380D02*
X173505809Y-86066380D01*
X173410571Y-86209238D01*
X173315333Y-86304476D01*
X173220095Y-86352095D01*
X174648666Y-86066380D02*
X174458190Y-86066380D01*
X174362952Y-86114000D01*
X174315333Y-86161619D01*
X174220095Y-86304476D01*
X174172476Y-86494952D01*
X174172476Y-86875904D01*
X174220095Y-86971142D01*
X174267714Y-87018761D01*
X174362952Y-87066380D01*
X174553428Y-87066380D01*
X174648666Y-87018761D01*
X174696285Y-86971142D01*
X174743904Y-86875904D01*
X174743904Y-86637809D01*
X174696285Y-86542571D01*
X174648666Y-86494952D01*
X174553428Y-86447333D01*
X174362952Y-86447333D01*
X174267714Y-86494952D01*
X174220095Y-86542571D01*
X174172476Y-86637809D01*
%TO.C,C2*%
X179665333Y-107291142D02*
X179617714Y-107338761D01*
X179474857Y-107386380D01*
X179379619Y-107386380D01*
X179236761Y-107338761D01*
X179141523Y-107243523D01*
X179093904Y-107148285D01*
X179046285Y-106957809D01*
X179046285Y-106814952D01*
X179093904Y-106624476D01*
X179141523Y-106529238D01*
X179236761Y-106434000D01*
X179379619Y-106386380D01*
X179474857Y-106386380D01*
X179617714Y-106434000D01*
X179665333Y-106481619D01*
X180046285Y-106481619D02*
X180093904Y-106434000D01*
X180189142Y-106386380D01*
X180427238Y-106386380D01*
X180522476Y-106434000D01*
X180570095Y-106481619D01*
X180617714Y-106576857D01*
X180617714Y-106672095D01*
X180570095Y-106814952D01*
X179998666Y-107386380D01*
X180617714Y-107386380D01*
%TO.C,C4*%
X184491333Y-107291142D02*
X184443714Y-107338761D01*
X184300857Y-107386380D01*
X184205619Y-107386380D01*
X184062761Y-107338761D01*
X183967523Y-107243523D01*
X183919904Y-107148285D01*
X183872285Y-106957809D01*
X183872285Y-106814952D01*
X183919904Y-106624476D01*
X183967523Y-106529238D01*
X184062761Y-106434000D01*
X184205619Y-106386380D01*
X184300857Y-106386380D01*
X184443714Y-106434000D01*
X184491333Y-106481619D01*
X185348476Y-106719714D02*
X185348476Y-107386380D01*
X185110380Y-106338761D02*
X184872285Y-107053047D01*
X185491333Y-107053047D01*
%TO.C,U3*%
X181297595Y-105878380D02*
X181297595Y-106687904D01*
X181345214Y-106783142D01*
X181392833Y-106830761D01*
X181488071Y-106878380D01*
X181678547Y-106878380D01*
X181773785Y-106830761D01*
X181821404Y-106783142D01*
X181869023Y-106687904D01*
X181869023Y-105878380D01*
X182249976Y-105878380D02*
X182869023Y-105878380D01*
X182535690Y-106259333D01*
X182678547Y-106259333D01*
X182773785Y-106306952D01*
X182821404Y-106354571D01*
X182869023Y-106449809D01*
X182869023Y-106687904D01*
X182821404Y-106783142D01*
X182773785Y-106830761D01*
X182678547Y-106878380D01*
X182392833Y-106878380D01*
X182297595Y-106830761D01*
X182249976Y-106783142D01*
%TO.C,C9*%
X187920333Y-102846142D02*
X187872714Y-102893761D01*
X187729857Y-102941380D01*
X187634619Y-102941380D01*
X187491761Y-102893761D01*
X187396523Y-102798523D01*
X187348904Y-102703285D01*
X187301285Y-102512809D01*
X187301285Y-102369952D01*
X187348904Y-102179476D01*
X187396523Y-102084238D01*
X187491761Y-101989000D01*
X187634619Y-101941380D01*
X187729857Y-101941380D01*
X187872714Y-101989000D01*
X187920333Y-102036619D01*
X188396523Y-102941380D02*
X188587000Y-102941380D01*
X188682238Y-102893761D01*
X188729857Y-102846142D01*
X188825095Y-102703285D01*
X188872714Y-102512809D01*
X188872714Y-102131857D01*
X188825095Y-102036619D01*
X188777476Y-101989000D01*
X188682238Y-101941380D01*
X188491761Y-101941380D01*
X188396523Y-101989000D01*
X188348904Y-102036619D01*
X188301285Y-102131857D01*
X188301285Y-102369952D01*
X188348904Y-102465190D01*
X188396523Y-102512809D01*
X188491761Y-102560428D01*
X188682238Y-102560428D01*
X188777476Y-102512809D01*
X188825095Y-102465190D01*
X188872714Y-102369952D01*
%TO.C,R8*%
X187920333Y-101290380D02*
X187587000Y-100814190D01*
X187348904Y-101290380D02*
X187348904Y-100290380D01*
X187729857Y-100290380D01*
X187825095Y-100338000D01*
X187872714Y-100385619D01*
X187920333Y-100480857D01*
X187920333Y-100623714D01*
X187872714Y-100718952D01*
X187825095Y-100766571D01*
X187729857Y-100814190D01*
X187348904Y-100814190D01*
X188491761Y-100718952D02*
X188396523Y-100671333D01*
X188348904Y-100623714D01*
X188301285Y-100528476D01*
X188301285Y-100480857D01*
X188348904Y-100385619D01*
X188396523Y-100338000D01*
X188491761Y-100290380D01*
X188682238Y-100290380D01*
X188777476Y-100338000D01*
X188825095Y-100385619D01*
X188872714Y-100480857D01*
X188872714Y-100528476D01*
X188825095Y-100623714D01*
X188777476Y-100671333D01*
X188682238Y-100718952D01*
X188491761Y-100718952D01*
X188396523Y-100766571D01*
X188348904Y-100814190D01*
X188301285Y-100909428D01*
X188301285Y-101099904D01*
X188348904Y-101195142D01*
X188396523Y-101242761D01*
X188491761Y-101290380D01*
X188682238Y-101290380D01*
X188777476Y-101242761D01*
X188825095Y-101195142D01*
X188872714Y-101099904D01*
X188872714Y-100909428D01*
X188825095Y-100814190D01*
X188777476Y-100766571D01*
X188682238Y-100718952D01*
%TO.C,R6*%
X187920333Y-93035380D02*
X187587000Y-92559190D01*
X187348904Y-93035380D02*
X187348904Y-92035380D01*
X187729857Y-92035380D01*
X187825095Y-92083000D01*
X187872714Y-92130619D01*
X187920333Y-92225857D01*
X187920333Y-92368714D01*
X187872714Y-92463952D01*
X187825095Y-92511571D01*
X187729857Y-92559190D01*
X187348904Y-92559190D01*
X188777476Y-92035380D02*
X188587000Y-92035380D01*
X188491761Y-92083000D01*
X188444142Y-92130619D01*
X188348904Y-92273476D01*
X188301285Y-92463952D01*
X188301285Y-92844904D01*
X188348904Y-92940142D01*
X188396523Y-92987761D01*
X188491761Y-93035380D01*
X188682238Y-93035380D01*
X188777476Y-92987761D01*
X188825095Y-92940142D01*
X188872714Y-92844904D01*
X188872714Y-92606809D01*
X188825095Y-92511571D01*
X188777476Y-92463952D01*
X188682238Y-92416333D01*
X188491761Y-92416333D01*
X188396523Y-92463952D01*
X188348904Y-92511571D01*
X188301285Y-92606809D01*
%TO.C,J1*%
X195670997Y-127087380D02*
X195670997Y-127801666D01*
X195623378Y-127944523D01*
X195528140Y-128039761D01*
X195385283Y-128087380D01*
X195290045Y-128087380D01*
X196670997Y-128087380D02*
X196099569Y-128087380D01*
X196385283Y-128087380D02*
X196385283Y-127087380D01*
X196290045Y-127230238D01*
X196194807Y-127325476D01*
X196099569Y-127373095D01*
%TO.C,R2*%
X187158333Y-107386380D02*
X186825000Y-106910190D01*
X186586904Y-107386380D02*
X186586904Y-106386380D01*
X186967857Y-106386380D01*
X187063095Y-106434000D01*
X187110714Y-106481619D01*
X187158333Y-106576857D01*
X187158333Y-106719714D01*
X187110714Y-106814952D01*
X187063095Y-106862571D01*
X186967857Y-106910190D01*
X186586904Y-106910190D01*
X187539285Y-106481619D02*
X187586904Y-106434000D01*
X187682142Y-106386380D01*
X187920238Y-106386380D01*
X188015476Y-106434000D01*
X188063095Y-106481619D01*
X188110714Y-106576857D01*
X188110714Y-106672095D01*
X188063095Y-106814952D01*
X187491666Y-107386380D01*
X188110714Y-107386380D01*
%TO.C,R15*%
X186936142Y-125293380D02*
X186602809Y-124817190D01*
X186364714Y-125293380D02*
X186364714Y-124293380D01*
X186745666Y-124293380D01*
X186840904Y-124341000D01*
X186888523Y-124388619D01*
X186936142Y-124483857D01*
X186936142Y-124626714D01*
X186888523Y-124721952D01*
X186840904Y-124769571D01*
X186745666Y-124817190D01*
X186364714Y-124817190D01*
X187888523Y-125293380D02*
X187317095Y-125293380D01*
X187602809Y-125293380D02*
X187602809Y-124293380D01*
X187507571Y-124436238D01*
X187412333Y-124531476D01*
X187317095Y-124579095D01*
X188793285Y-124293380D02*
X188317095Y-124293380D01*
X188269476Y-124769571D01*
X188317095Y-124721952D01*
X188412333Y-124674333D01*
X188650428Y-124674333D01*
X188745666Y-124721952D01*
X188793285Y-124769571D01*
X188840904Y-124864809D01*
X188840904Y-125102904D01*
X188793285Y-125198142D01*
X188745666Y-125245761D01*
X188650428Y-125293380D01*
X188412333Y-125293380D01*
X188317095Y-125245761D01*
X188269476Y-125198142D01*
%TO.C,C10*%
X187063142Y-105767142D02*
X187015523Y-105814761D01*
X186872666Y-105862380D01*
X186777428Y-105862380D01*
X186634571Y-105814761D01*
X186539333Y-105719523D01*
X186491714Y-105624285D01*
X186444095Y-105433809D01*
X186444095Y-105290952D01*
X186491714Y-105100476D01*
X186539333Y-105005238D01*
X186634571Y-104910000D01*
X186777428Y-104862380D01*
X186872666Y-104862380D01*
X187015523Y-104910000D01*
X187063142Y-104957619D01*
X188015523Y-105862380D02*
X187444095Y-105862380D01*
X187729809Y-105862380D02*
X187729809Y-104862380D01*
X187634571Y-105005238D01*
X187539333Y-105100476D01*
X187444095Y-105148095D01*
X188634571Y-104862380D02*
X188729809Y-104862380D01*
X188825047Y-104910000D01*
X188872666Y-104957619D01*
X188920285Y-105052857D01*
X188967904Y-105243333D01*
X188967904Y-105481428D01*
X188920285Y-105671904D01*
X188872666Y-105767142D01*
X188825047Y-105814761D01*
X188729809Y-105862380D01*
X188634571Y-105862380D01*
X188539333Y-105814761D01*
X188491714Y-105767142D01*
X188444095Y-105671904D01*
X188396476Y-105481428D01*
X188396476Y-105243333D01*
X188444095Y-105052857D01*
X188491714Y-104957619D01*
X188539333Y-104910000D01*
X188634571Y-104862380D01*
%TO.C,C8*%
X187920333Y-99671142D02*
X187872714Y-99718761D01*
X187729857Y-99766380D01*
X187634619Y-99766380D01*
X187491761Y-99718761D01*
X187396523Y-99623523D01*
X187348904Y-99528285D01*
X187301285Y-99337809D01*
X187301285Y-99194952D01*
X187348904Y-99004476D01*
X187396523Y-98909238D01*
X187491761Y-98814000D01*
X187634619Y-98766380D01*
X187729857Y-98766380D01*
X187872714Y-98814000D01*
X187920333Y-98861619D01*
X188491761Y-99194952D02*
X188396523Y-99147333D01*
X188348904Y-99099714D01*
X188301285Y-99004476D01*
X188301285Y-98956857D01*
X188348904Y-98861619D01*
X188396523Y-98814000D01*
X188491761Y-98766380D01*
X188682238Y-98766380D01*
X188777476Y-98814000D01*
X188825095Y-98861619D01*
X188872714Y-98956857D01*
X188872714Y-99004476D01*
X188825095Y-99099714D01*
X188777476Y-99147333D01*
X188682238Y-99194952D01*
X188491761Y-99194952D01*
X188396523Y-99242571D01*
X188348904Y-99290190D01*
X188301285Y-99385428D01*
X188301285Y-99575904D01*
X188348904Y-99671142D01*
X188396523Y-99718761D01*
X188491761Y-99766380D01*
X188682238Y-99766380D01*
X188777476Y-99718761D01*
X188825095Y-99671142D01*
X188872714Y-99575904D01*
X188872714Y-99385428D01*
X188825095Y-99290190D01*
X188777476Y-99242571D01*
X188682238Y-99194952D01*
%TO.C,R14*%
X186936142Y-122372380D02*
X186602809Y-121896190D01*
X186364714Y-122372380D02*
X186364714Y-121372380D01*
X186745666Y-121372380D01*
X186840904Y-121420000D01*
X186888523Y-121467619D01*
X186936142Y-121562857D01*
X186936142Y-121705714D01*
X186888523Y-121800952D01*
X186840904Y-121848571D01*
X186745666Y-121896190D01*
X186364714Y-121896190D01*
X187888523Y-122372380D02*
X187317095Y-122372380D01*
X187602809Y-122372380D02*
X187602809Y-121372380D01*
X187507571Y-121515238D01*
X187412333Y-121610476D01*
X187317095Y-121658095D01*
X188745666Y-121705714D02*
X188745666Y-122372380D01*
X188507571Y-121324761D02*
X188269476Y-122039047D01*
X188888523Y-122039047D01*
%TO.C,J3*%
X174204380Y-104346333D02*
X174918666Y-104346333D01*
X175061523Y-104393952D01*
X175156761Y-104489190D01*
X175204380Y-104632047D01*
X175204380Y-104727285D01*
X174204380Y-103965380D02*
X174204380Y-103346333D01*
X174585333Y-103679666D01*
X174585333Y-103536809D01*
X174632952Y-103441571D01*
X174680571Y-103393952D01*
X174775809Y-103346333D01*
X175013904Y-103346333D01*
X175109142Y-103393952D01*
X175156761Y-103441571D01*
X175204380Y-103536809D01*
X175204380Y-103822523D01*
X175156761Y-103917761D01*
X175109142Y-103965380D01*
%TO.C,R13*%
X187007642Y-113041380D02*
X186674309Y-112565190D01*
X186436214Y-113041380D02*
X186436214Y-112041380D01*
X186817166Y-112041380D01*
X186912404Y-112089000D01*
X186960023Y-112136619D01*
X187007642Y-112231857D01*
X187007642Y-112374714D01*
X186960023Y-112469952D01*
X186912404Y-112517571D01*
X186817166Y-112565190D01*
X186436214Y-112565190D01*
X187960023Y-113041380D02*
X187388595Y-113041380D01*
X187674309Y-113041380D02*
X187674309Y-112041380D01*
X187579071Y-112184238D01*
X187483833Y-112279476D01*
X187388595Y-112327095D01*
X188293357Y-112041380D02*
X188912404Y-112041380D01*
X188579071Y-112422333D01*
X188721928Y-112422333D01*
X188817166Y-112469952D01*
X188864785Y-112517571D01*
X188912404Y-112612809D01*
X188912404Y-112850904D01*
X188864785Y-112946142D01*
X188817166Y-112993761D01*
X188721928Y-113041380D01*
X188436214Y-113041380D01*
X188340976Y-112993761D01*
X188293357Y-112946142D01*
%TO.C,R10*%
X187063142Y-110180380D02*
X186729809Y-109704190D01*
X186491714Y-110180380D02*
X186491714Y-109180380D01*
X186872666Y-109180380D01*
X186967904Y-109228000D01*
X187015523Y-109275619D01*
X187063142Y-109370857D01*
X187063142Y-109513714D01*
X187015523Y-109608952D01*
X186967904Y-109656571D01*
X186872666Y-109704190D01*
X186491714Y-109704190D01*
X188015523Y-110180380D02*
X187444095Y-110180380D01*
X187729809Y-110180380D02*
X187729809Y-109180380D01*
X187634571Y-109323238D01*
X187539333Y-109418476D01*
X187444095Y-109466095D01*
X188634571Y-109180380D02*
X188729809Y-109180380D01*
X188825047Y-109228000D01*
X188872666Y-109275619D01*
X188920285Y-109370857D01*
X188967904Y-109561333D01*
X188967904Y-109799428D01*
X188920285Y-109989904D01*
X188872666Y-110085142D01*
X188825047Y-110132761D01*
X188729809Y-110180380D01*
X188634571Y-110180380D01*
X188539333Y-110132761D01*
X188491714Y-110085142D01*
X188444095Y-109989904D01*
X188396476Y-109799428D01*
X188396476Y-109561333D01*
X188444095Y-109370857D01*
X188491714Y-109275619D01*
X188539333Y-109228000D01*
X188634571Y-109180380D01*
%TO.C,R21*%
X175887142Y-110688380D02*
X175553809Y-110212190D01*
X175315714Y-110688380D02*
X175315714Y-109688380D01*
X175696666Y-109688380D01*
X175791904Y-109736000D01*
X175839523Y-109783619D01*
X175887142Y-109878857D01*
X175887142Y-110021714D01*
X175839523Y-110116952D01*
X175791904Y-110164571D01*
X175696666Y-110212190D01*
X175315714Y-110212190D01*
X176268095Y-109783619D02*
X176315714Y-109736000D01*
X176410952Y-109688380D01*
X176649047Y-109688380D01*
X176744285Y-109736000D01*
X176791904Y-109783619D01*
X176839523Y-109878857D01*
X176839523Y-109974095D01*
X176791904Y-110116952D01*
X176220476Y-110688380D01*
X176839523Y-110688380D01*
X177791904Y-110688380D02*
X177220476Y-110688380D01*
X177506190Y-110688380D02*
X177506190Y-109688380D01*
X177410952Y-109831238D01*
X177315714Y-109926476D01*
X177220476Y-109974095D01*
%TO.C,C6*%
X187920333Y-91543142D02*
X187872714Y-91590761D01*
X187729857Y-91638380D01*
X187634619Y-91638380D01*
X187491761Y-91590761D01*
X187396523Y-91495523D01*
X187348904Y-91400285D01*
X187301285Y-91209809D01*
X187301285Y-91066952D01*
X187348904Y-90876476D01*
X187396523Y-90781238D01*
X187491761Y-90686000D01*
X187634619Y-90638380D01*
X187729857Y-90638380D01*
X187872714Y-90686000D01*
X187920333Y-90733619D01*
X188777476Y-90638380D02*
X188587000Y-90638380D01*
X188491761Y-90686000D01*
X188444142Y-90733619D01*
X188348904Y-90876476D01*
X188301285Y-91066952D01*
X188301285Y-91447904D01*
X188348904Y-91543142D01*
X188396523Y-91590761D01*
X188491761Y-91638380D01*
X188682238Y-91638380D01*
X188777476Y-91590761D01*
X188825095Y-91543142D01*
X188872714Y-91447904D01*
X188872714Y-91209809D01*
X188825095Y-91114571D01*
X188777476Y-91066952D01*
X188682238Y-91019333D01*
X188491761Y-91019333D01*
X188396523Y-91066952D01*
X188348904Y-91114571D01*
X188301285Y-91209809D01*
%TO.C,C12*%
X186936142Y-117578142D02*
X186888523Y-117625761D01*
X186745666Y-117673380D01*
X186650428Y-117673380D01*
X186507571Y-117625761D01*
X186412333Y-117530523D01*
X186364714Y-117435285D01*
X186317095Y-117244809D01*
X186317095Y-117101952D01*
X186364714Y-116911476D01*
X186412333Y-116816238D01*
X186507571Y-116721000D01*
X186650428Y-116673380D01*
X186745666Y-116673380D01*
X186888523Y-116721000D01*
X186936142Y-116768619D01*
X187888523Y-117673380D02*
X187317095Y-117673380D01*
X187602809Y-117673380D02*
X187602809Y-116673380D01*
X187507571Y-116816238D01*
X187412333Y-116911476D01*
X187317095Y-116959095D01*
X188269476Y-116768619D02*
X188317095Y-116721000D01*
X188412333Y-116673380D01*
X188650428Y-116673380D01*
X188745666Y-116721000D01*
X188793285Y-116768619D01*
X188840904Y-116863857D01*
X188840904Y-116959095D01*
X188793285Y-117101952D01*
X188221857Y-117673380D01*
X188840904Y-117673380D01*
%TO.C,C14*%
X183708142Y-95734142D02*
X183660523Y-95781761D01*
X183517666Y-95829380D01*
X183422428Y-95829380D01*
X183279571Y-95781761D01*
X183184333Y-95686523D01*
X183136714Y-95591285D01*
X183089095Y-95400809D01*
X183089095Y-95257952D01*
X183136714Y-95067476D01*
X183184333Y-94972238D01*
X183279571Y-94877000D01*
X183422428Y-94829380D01*
X183517666Y-94829380D01*
X183660523Y-94877000D01*
X183708142Y-94924619D01*
X184660523Y-95829380D02*
X184089095Y-95829380D01*
X184374809Y-95829380D02*
X184374809Y-94829380D01*
X184279571Y-94972238D01*
X184184333Y-95067476D01*
X184089095Y-95115095D01*
X185517666Y-95162714D02*
X185517666Y-95829380D01*
X185279571Y-94781761D02*
X185041476Y-95496047D01*
X185660523Y-95496047D01*
%TO.C,C1*%
X180173333Y-84304142D02*
X180125714Y-84351761D01*
X179982857Y-84399380D01*
X179887619Y-84399380D01*
X179744761Y-84351761D01*
X179649523Y-84256523D01*
X179601904Y-84161285D01*
X179554285Y-83970809D01*
X179554285Y-83827952D01*
X179601904Y-83637476D01*
X179649523Y-83542238D01*
X179744761Y-83447000D01*
X179887619Y-83399380D01*
X179982857Y-83399380D01*
X180125714Y-83447000D01*
X180173333Y-83494619D01*
X181125714Y-84399380D02*
X180554285Y-84399380D01*
X180840000Y-84399380D02*
X180840000Y-83399380D01*
X180744761Y-83542238D01*
X180649523Y-83637476D01*
X180554285Y-83685095D01*
%TO.C,R17*%
X175887142Y-90114380D02*
X175553809Y-89638190D01*
X175315714Y-90114380D02*
X175315714Y-89114380D01*
X175696666Y-89114380D01*
X175791904Y-89162000D01*
X175839523Y-89209619D01*
X175887142Y-89304857D01*
X175887142Y-89447714D01*
X175839523Y-89542952D01*
X175791904Y-89590571D01*
X175696666Y-89638190D01*
X175315714Y-89638190D01*
X176839523Y-90114380D02*
X176268095Y-90114380D01*
X176553809Y-90114380D02*
X176553809Y-89114380D01*
X176458571Y-89257238D01*
X176363333Y-89352476D01*
X176268095Y-89400095D01*
X177172857Y-89114380D02*
X177839523Y-89114380D01*
X177410952Y-90114380D01*
%TO.C,C18*%
X186936142Y-126722142D02*
X186888523Y-126769761D01*
X186745666Y-126817380D01*
X186650428Y-126817380D01*
X186507571Y-126769761D01*
X186412333Y-126674523D01*
X186364714Y-126579285D01*
X186317095Y-126388809D01*
X186317095Y-126245952D01*
X186364714Y-126055476D01*
X186412333Y-125960238D01*
X186507571Y-125865000D01*
X186650428Y-125817380D01*
X186745666Y-125817380D01*
X186888523Y-125865000D01*
X186936142Y-125912619D01*
X187888523Y-126817380D02*
X187317095Y-126817380D01*
X187602809Y-126817380D02*
X187602809Y-125817380D01*
X187507571Y-125960238D01*
X187412333Y-126055476D01*
X187317095Y-126103095D01*
X188459952Y-126245952D02*
X188364714Y-126198333D01*
X188317095Y-126150714D01*
X188269476Y-126055476D01*
X188269476Y-126007857D01*
X188317095Y-125912619D01*
X188364714Y-125865000D01*
X188459952Y-125817380D01*
X188650428Y-125817380D01*
X188745666Y-125865000D01*
X188793285Y-125912619D01*
X188840904Y-126007857D01*
X188840904Y-126055476D01*
X188793285Y-126150714D01*
X188745666Y-126198333D01*
X188650428Y-126245952D01*
X188459952Y-126245952D01*
X188364714Y-126293571D01*
X188317095Y-126341190D01*
X188269476Y-126436428D01*
X188269476Y-126626904D01*
X188317095Y-126722142D01*
X188364714Y-126769761D01*
X188459952Y-126817380D01*
X188650428Y-126817380D01*
X188745666Y-126769761D01*
X188793285Y-126722142D01*
X188840904Y-126626904D01*
X188840904Y-126436428D01*
X188793285Y-126341190D01*
X188745666Y-126293571D01*
X188650428Y-126245952D01*
%TO.C,R7*%
X187920333Y-98242380D02*
X187587000Y-97766190D01*
X187348904Y-98242380D02*
X187348904Y-97242380D01*
X187729857Y-97242380D01*
X187825095Y-97290000D01*
X187872714Y-97337619D01*
X187920333Y-97432857D01*
X187920333Y-97575714D01*
X187872714Y-97670952D01*
X187825095Y-97718571D01*
X187729857Y-97766190D01*
X187348904Y-97766190D01*
X188253666Y-97242380D02*
X188920333Y-97242380D01*
X188491761Y-98242380D01*
%TO.C,R12*%
X186936142Y-119324380D02*
X186602809Y-118848190D01*
X186364714Y-119324380D02*
X186364714Y-118324380D01*
X186745666Y-118324380D01*
X186840904Y-118372000D01*
X186888523Y-118419619D01*
X186936142Y-118514857D01*
X186936142Y-118657714D01*
X186888523Y-118752952D01*
X186840904Y-118800571D01*
X186745666Y-118848190D01*
X186364714Y-118848190D01*
X187888523Y-119324380D02*
X187317095Y-119324380D01*
X187602809Y-119324380D02*
X187602809Y-118324380D01*
X187507571Y-118467238D01*
X187412333Y-118562476D01*
X187317095Y-118610095D01*
X188269476Y-118419619D02*
X188317095Y-118372000D01*
X188412333Y-118324380D01*
X188650428Y-118324380D01*
X188745666Y-118372000D01*
X188793285Y-118419619D01*
X188840904Y-118514857D01*
X188840904Y-118610095D01*
X188793285Y-118752952D01*
X188221857Y-119324380D01*
X188840904Y-119324380D01*
%TO.C,C13*%
X186936142Y-120753142D02*
X186888523Y-120800761D01*
X186745666Y-120848380D01*
X186650428Y-120848380D01*
X186507571Y-120800761D01*
X186412333Y-120705523D01*
X186364714Y-120610285D01*
X186317095Y-120419809D01*
X186317095Y-120276952D01*
X186364714Y-120086476D01*
X186412333Y-119991238D01*
X186507571Y-119896000D01*
X186650428Y-119848380D01*
X186745666Y-119848380D01*
X186888523Y-119896000D01*
X186936142Y-119943619D01*
X187888523Y-120848380D02*
X187317095Y-120848380D01*
X187602809Y-120848380D02*
X187602809Y-119848380D01*
X187507571Y-119991238D01*
X187412333Y-120086476D01*
X187317095Y-120134095D01*
X188221857Y-119848380D02*
X188840904Y-119848380D01*
X188507571Y-120229333D01*
X188650428Y-120229333D01*
X188745666Y-120276952D01*
X188793285Y-120324571D01*
X188840904Y-120419809D01*
X188840904Y-120657904D01*
X188793285Y-120753142D01*
X188745666Y-120800761D01*
X188650428Y-120848380D01*
X188364714Y-120848380D01*
X188269476Y-120800761D01*
X188221857Y-120753142D01*
%TO.C,R20*%
X175807142Y-106751380D02*
X175473809Y-106275190D01*
X175235714Y-106751380D02*
X175235714Y-105751380D01*
X175616666Y-105751380D01*
X175711904Y-105799000D01*
X175759523Y-105846619D01*
X175807142Y-105941857D01*
X175807142Y-106084714D01*
X175759523Y-106179952D01*
X175711904Y-106227571D01*
X175616666Y-106275190D01*
X175235714Y-106275190D01*
X176188095Y-105846619D02*
X176235714Y-105799000D01*
X176330952Y-105751380D01*
X176569047Y-105751380D01*
X176664285Y-105799000D01*
X176711904Y-105846619D01*
X176759523Y-105941857D01*
X176759523Y-106037095D01*
X176711904Y-106179952D01*
X176140476Y-106751380D01*
X176759523Y-106751380D01*
X177378571Y-105751380D02*
X177473809Y-105751380D01*
X177569047Y-105799000D01*
X177616666Y-105846619D01*
X177664285Y-105941857D01*
X177711904Y-106132333D01*
X177711904Y-106370428D01*
X177664285Y-106560904D01*
X177616666Y-106656142D01*
X177569047Y-106703761D01*
X177473809Y-106751380D01*
X177378571Y-106751380D01*
X177283333Y-106703761D01*
X177235714Y-106656142D01*
X177188095Y-106560904D01*
X177140476Y-106370428D01*
X177140476Y-106132333D01*
X177188095Y-105941857D01*
X177235714Y-105846619D01*
X177283333Y-105799000D01*
X177378571Y-105751380D01*
%TO.C,C7*%
X187920333Y-94464142D02*
X187872714Y-94511761D01*
X187729857Y-94559380D01*
X187634619Y-94559380D01*
X187491761Y-94511761D01*
X187396523Y-94416523D01*
X187348904Y-94321285D01*
X187301285Y-94130809D01*
X187301285Y-93987952D01*
X187348904Y-93797476D01*
X187396523Y-93702238D01*
X187491761Y-93607000D01*
X187634619Y-93559380D01*
X187729857Y-93559380D01*
X187872714Y-93607000D01*
X187920333Y-93654619D01*
X188253666Y-93559380D02*
X188920333Y-93559380D01*
X188491761Y-94559380D01*
%TO.C,U4*%
X147002380Y-102361904D02*
X147811904Y-102361904D01*
X147907142Y-102314285D01*
X147954761Y-102266666D01*
X148002380Y-102171428D01*
X148002380Y-101980952D01*
X147954761Y-101885714D01*
X147907142Y-101838095D01*
X147811904Y-101790476D01*
X147002380Y-101790476D01*
X147335714Y-100885714D02*
X148002380Y-100885714D01*
X146954761Y-101123809D02*
X147669047Y-101361904D01*
X147669047Y-100742857D01*
X144140592Y-89502277D02*
X144167529Y-89583089D01*
X144248341Y-89663902D01*
X144356091Y-89717776D01*
X144463841Y-89717776D01*
X144544653Y-89690839D01*
X144679340Y-89610027D01*
X144760152Y-89529215D01*
X144840964Y-89394528D01*
X144867902Y-89313715D01*
X144867902Y-89205966D01*
X144814027Y-89098216D01*
X144760152Y-89044341D01*
X144652402Y-88990467D01*
X144598528Y-88990467D01*
X144409966Y-89179028D01*
X144517715Y-89286778D01*
X144409966Y-88694155D02*
X143844280Y-89259841D01*
X143628781Y-89044341D01*
X143601844Y-88963529D01*
X143601844Y-88909654D01*
X143628781Y-88828842D01*
X143709593Y-88748030D01*
X143790406Y-88721093D01*
X143844280Y-88721093D01*
X143925093Y-88748030D01*
X144140592Y-88963529D01*
X143359407Y-88667218D02*
X143305532Y-88667218D01*
X143224720Y-88640280D01*
X143090033Y-88505593D01*
X143063096Y-88424781D01*
X143063096Y-88370906D01*
X143090033Y-88290094D01*
X143143908Y-88236219D01*
X143251658Y-88182345D01*
X143898155Y-88182345D01*
X143547969Y-87832158D01*
X142793722Y-88209282D02*
X142416598Y-87832158D01*
X143224720Y-87508910D01*
X164450592Y-89502277D02*
X164477529Y-89583089D01*
X164558341Y-89663902D01*
X164666091Y-89717776D01*
X164773841Y-89717776D01*
X164854653Y-89690839D01*
X164989340Y-89610027D01*
X165070152Y-89529215D01*
X165150964Y-89394528D01*
X165177902Y-89313715D01*
X165177902Y-89205966D01*
X165124027Y-89098216D01*
X165070152Y-89044341D01*
X164962402Y-88990467D01*
X164908528Y-88990467D01*
X164719966Y-89179028D01*
X164827715Y-89286778D01*
X164719966Y-88694155D02*
X164154280Y-89259841D01*
X163938781Y-89044341D01*
X163911844Y-88963529D01*
X163911844Y-88909654D01*
X163938781Y-88828842D01*
X164019593Y-88748030D01*
X164100406Y-88721093D01*
X164154280Y-88721093D01*
X164235093Y-88748030D01*
X164450592Y-88963529D01*
X163857969Y-87832158D02*
X164181218Y-88155407D01*
X164019593Y-87993783D02*
X163453908Y-88559468D01*
X163588595Y-88532531D01*
X163696345Y-88532531D01*
X163777157Y-88559468D01*
X163211471Y-87832158D02*
X163238409Y-87912971D01*
X163238409Y-87966845D01*
X163211471Y-88047658D01*
X163184534Y-88074595D01*
X163103722Y-88101532D01*
X163049847Y-88101532D01*
X162969035Y-88074595D01*
X162861285Y-87966845D01*
X162834348Y-87886033D01*
X162834348Y-87832158D01*
X162861285Y-87751346D01*
X162888223Y-87724409D01*
X162969035Y-87697471D01*
X163022910Y-87697471D01*
X163103722Y-87724409D01*
X163211471Y-87832158D01*
X163292284Y-87859096D01*
X163346158Y-87859096D01*
X163426971Y-87832158D01*
X163534720Y-87724409D01*
X163561658Y-87643597D01*
X163561658Y-87589722D01*
X163534720Y-87508910D01*
X163426971Y-87401160D01*
X163346158Y-87374223D01*
X163292284Y-87374223D01*
X163211471Y-87401160D01*
X163103722Y-87508910D01*
X163076784Y-87589722D01*
X163076784Y-87643597D01*
X163103722Y-87724409D01*
X138796592Y-89502277D02*
X138823529Y-89583089D01*
X138904341Y-89663902D01*
X139012091Y-89717776D01*
X139119841Y-89717776D01*
X139200653Y-89690839D01*
X139335340Y-89610027D01*
X139416152Y-89529215D01*
X139496964Y-89394528D01*
X139523902Y-89313715D01*
X139523902Y-89205966D01*
X139470027Y-89098216D01*
X139416152Y-89044341D01*
X139308402Y-88990467D01*
X139254528Y-88990467D01*
X139065966Y-89179028D01*
X139173715Y-89286778D01*
X139065966Y-88694155D02*
X138500280Y-89259841D01*
X138284781Y-89044341D01*
X138257844Y-88963529D01*
X138257844Y-88909654D01*
X138284781Y-88828842D01*
X138365593Y-88748030D01*
X138446406Y-88721093D01*
X138500280Y-88721093D01*
X138581093Y-88748030D01*
X138796592Y-88963529D01*
X138015407Y-88667218D02*
X137961532Y-88667218D01*
X137880720Y-88640280D01*
X137746033Y-88505593D01*
X137719096Y-88424781D01*
X137719096Y-88370906D01*
X137746033Y-88290094D01*
X137799908Y-88236219D01*
X137907658Y-88182345D01*
X138554155Y-88182345D01*
X138203969Y-87832158D01*
X137557471Y-87832158D02*
X137584409Y-87912971D01*
X137584409Y-87966845D01*
X137557471Y-88047658D01*
X137530534Y-88074595D01*
X137449722Y-88101532D01*
X137395847Y-88101532D01*
X137315035Y-88074595D01*
X137207285Y-87966845D01*
X137180348Y-87886033D01*
X137180348Y-87832158D01*
X137207285Y-87751346D01*
X137234223Y-87724409D01*
X137315035Y-87697471D01*
X137368910Y-87697471D01*
X137449722Y-87724409D01*
X137557471Y-87832158D01*
X137638284Y-87859096D01*
X137692158Y-87859096D01*
X137772971Y-87832158D01*
X137880720Y-87724409D01*
X137907658Y-87643597D01*
X137907658Y-87589722D01*
X137880720Y-87508910D01*
X137772971Y-87401160D01*
X137692158Y-87374223D01*
X137638284Y-87374223D01*
X137557471Y-87401160D01*
X137449722Y-87508910D01*
X137422784Y-87589722D01*
X137422784Y-87643597D01*
X137449722Y-87724409D01*
X154048155Y-115113841D02*
X154075093Y-115194653D01*
X154155905Y-115275465D01*
X154263654Y-115329340D01*
X154371404Y-115329340D01*
X154452216Y-115302402D01*
X154586903Y-115221590D01*
X154667715Y-115140778D01*
X154748528Y-115006091D01*
X154775465Y-114925279D01*
X154775465Y-114817529D01*
X154721590Y-114709780D01*
X154667715Y-114655905D01*
X154559966Y-114602030D01*
X154506091Y-114602030D01*
X154317529Y-114790592D01*
X154425279Y-114898341D01*
X154317529Y-114305719D02*
X153751844Y-114871404D01*
X153994280Y-113982470D01*
X153428595Y-114548155D01*
X153724906Y-113713096D02*
X153159221Y-114278781D01*
X153024534Y-114144094D01*
X152970659Y-114036345D01*
X152970659Y-113928595D01*
X152997597Y-113847783D01*
X153078409Y-113713096D01*
X153159221Y-113632284D01*
X153293908Y-113551471D01*
X153374720Y-113524534D01*
X153482470Y-113524534D01*
X153590219Y-113578409D01*
X153724906Y-113713096D01*
X140991155Y-115648841D02*
X141018093Y-115729653D01*
X141098905Y-115810465D01*
X141206654Y-115864340D01*
X141314404Y-115864340D01*
X141395216Y-115837402D01*
X141529903Y-115756590D01*
X141610715Y-115675778D01*
X141691528Y-115541091D01*
X141718465Y-115460279D01*
X141718465Y-115352529D01*
X141664590Y-115244780D01*
X141610715Y-115190905D01*
X141502966Y-115137030D01*
X141449091Y-115137030D01*
X141260529Y-115325592D01*
X141368279Y-115433341D01*
X141260529Y-114840719D02*
X140694844Y-115406404D01*
X140937280Y-114517470D01*
X140371595Y-115083155D01*
X140667906Y-114248096D02*
X140102221Y-114813781D01*
X139967534Y-114679094D01*
X139913659Y-114571345D01*
X139913659Y-114463595D01*
X139940597Y-114382783D01*
X140021409Y-114248096D01*
X140102221Y-114167284D01*
X140236908Y-114086471D01*
X140317720Y-114059534D01*
X140425470Y-114059534D01*
X140533219Y-114113409D01*
X140667906Y-114248096D01*
X166748155Y-89513841D02*
X166775093Y-89594653D01*
X166855905Y-89675465D01*
X166963654Y-89729340D01*
X167071404Y-89729340D01*
X167152216Y-89702402D01*
X167286903Y-89621590D01*
X167367715Y-89540778D01*
X167448528Y-89406091D01*
X167475465Y-89325279D01*
X167475465Y-89217529D01*
X167421590Y-89109780D01*
X167367715Y-89055905D01*
X167259966Y-89002030D01*
X167206091Y-89002030D01*
X167017529Y-89190592D01*
X167125279Y-89298341D01*
X167017529Y-88705719D02*
X166451844Y-89271404D01*
X166694280Y-88382470D01*
X166128595Y-88948155D01*
X166424906Y-88113096D02*
X165859221Y-88678781D01*
X165724534Y-88544094D01*
X165670659Y-88436345D01*
X165670659Y-88328595D01*
X165697597Y-88247783D01*
X165778409Y-88113096D01*
X165859221Y-88032284D01*
X165993908Y-87951471D01*
X166074720Y-87924534D01*
X166182470Y-87924534D01*
X166290219Y-87978409D01*
X166424906Y-88113096D01*
X134040592Y-89710152D02*
X133690406Y-89359966D01*
X134094467Y-89333028D01*
X134013654Y-89252216D01*
X133986717Y-89171404D01*
X133986717Y-89117529D01*
X134013654Y-89036717D01*
X134148341Y-88902030D01*
X134229154Y-88875093D01*
X134283028Y-88875093D01*
X134363841Y-88902030D01*
X134525465Y-89063654D01*
X134552402Y-89144467D01*
X134552402Y-89198341D01*
X133528781Y-89198341D02*
X133905905Y-88444094D01*
X133151658Y-88821218D01*
X133016971Y-88686531D02*
X132666784Y-88336345D01*
X133070845Y-88309407D01*
X132990033Y-88228595D01*
X132963096Y-88147783D01*
X132963096Y-88093908D01*
X132990033Y-88013096D01*
X133124720Y-87878409D01*
X133205532Y-87851471D01*
X133259407Y-87851471D01*
X133340219Y-87878409D01*
X133501844Y-88040033D01*
X133528781Y-88120845D01*
X133528781Y-88174720D01*
X159370592Y-89502277D02*
X159397529Y-89583089D01*
X159478341Y-89663902D01*
X159586091Y-89717776D01*
X159693841Y-89717776D01*
X159774653Y-89690839D01*
X159909340Y-89610027D01*
X159990152Y-89529215D01*
X160070964Y-89394528D01*
X160097902Y-89313715D01*
X160097902Y-89205966D01*
X160044027Y-89098216D01*
X159990152Y-89044341D01*
X159882402Y-88990467D01*
X159828528Y-88990467D01*
X159639966Y-89179028D01*
X159747715Y-89286778D01*
X159639966Y-88694155D02*
X159074280Y-89259841D01*
X158858781Y-89044341D01*
X158831844Y-88963529D01*
X158831844Y-88909654D01*
X158858781Y-88828842D01*
X158939593Y-88748030D01*
X159020406Y-88721093D01*
X159074280Y-88721093D01*
X159155093Y-88748030D01*
X159370592Y-88963529D01*
X158589407Y-88667218D02*
X158535532Y-88667218D01*
X158454720Y-88640280D01*
X158320033Y-88505593D01*
X158293096Y-88424781D01*
X158293096Y-88370906D01*
X158320033Y-88290094D01*
X158373908Y-88236219D01*
X158481658Y-88182345D01*
X159128155Y-88182345D01*
X158777969Y-87832158D01*
X157862097Y-88047658D02*
X157808223Y-87993783D01*
X157781285Y-87912971D01*
X157781285Y-87859096D01*
X157808223Y-87778284D01*
X157889035Y-87643597D01*
X158023722Y-87508910D01*
X158158409Y-87428097D01*
X158239221Y-87401160D01*
X158293096Y-87401160D01*
X158373908Y-87428097D01*
X158427783Y-87481972D01*
X158454720Y-87562784D01*
X158454720Y-87616659D01*
X158427783Y-87697471D01*
X158346971Y-87832158D01*
X158212284Y-87966845D01*
X158077597Y-88047658D01*
X157996784Y-88074595D01*
X157942910Y-88074595D01*
X157862097Y-88047658D01*
X146371218Y-114986903D02*
X146398155Y-115067715D01*
X146478967Y-115148528D01*
X146586717Y-115202402D01*
X146694467Y-115202402D01*
X146775279Y-115175465D01*
X146909966Y-115094653D01*
X146990778Y-115013841D01*
X147071590Y-114879154D01*
X147098528Y-114798341D01*
X147098528Y-114690592D01*
X147044653Y-114582842D01*
X146990778Y-114528967D01*
X146883028Y-114475093D01*
X146829154Y-114475093D01*
X146640592Y-114663654D01*
X146748341Y-114771404D01*
X146640592Y-114178781D02*
X146074906Y-114744467D01*
X145859407Y-114528967D01*
X145832470Y-114448155D01*
X145832470Y-114394280D01*
X145859407Y-114313468D01*
X145940219Y-114232656D01*
X146021032Y-114205719D01*
X146074906Y-114205719D01*
X146155719Y-114232656D01*
X146371218Y-114448155D01*
X145563096Y-114232656D02*
X145185972Y-113855532D01*
X145994094Y-113532284D01*
X146670592Y-89502277D02*
X146697529Y-89583089D01*
X146778341Y-89663902D01*
X146886091Y-89717776D01*
X146993841Y-89717776D01*
X147074653Y-89690839D01*
X147209340Y-89610027D01*
X147290152Y-89529215D01*
X147370964Y-89394528D01*
X147397902Y-89313715D01*
X147397902Y-89205966D01*
X147344027Y-89098216D01*
X147290152Y-89044341D01*
X147182402Y-88990467D01*
X147128528Y-88990467D01*
X146939966Y-89179028D01*
X147047715Y-89286778D01*
X146939966Y-88694155D02*
X146374280Y-89259841D01*
X146158781Y-89044341D01*
X146131844Y-88963529D01*
X146131844Y-88909654D01*
X146158781Y-88828842D01*
X146239593Y-88748030D01*
X146320406Y-88721093D01*
X146374280Y-88721093D01*
X146455093Y-88748030D01*
X146670592Y-88963529D01*
X145889407Y-88667218D02*
X145835532Y-88667218D01*
X145754720Y-88640280D01*
X145620033Y-88505593D01*
X145593096Y-88424781D01*
X145593096Y-88370906D01*
X145620033Y-88290094D01*
X145673908Y-88236219D01*
X145781658Y-88182345D01*
X146428155Y-88182345D01*
X146077969Y-87832158D01*
X145027410Y-87912971D02*
X145135160Y-88020720D01*
X145215972Y-88047658D01*
X145269847Y-88047658D01*
X145404534Y-88020720D01*
X145539221Y-87939908D01*
X145754720Y-87724409D01*
X145781658Y-87643597D01*
X145781658Y-87589722D01*
X145754720Y-87508910D01*
X145646971Y-87401160D01*
X145566158Y-87374223D01*
X145512284Y-87374223D01*
X145431471Y-87401160D01*
X145296784Y-87535847D01*
X145269847Y-87616659D01*
X145269847Y-87670534D01*
X145296784Y-87751346D01*
X145404534Y-87859096D01*
X145485346Y-87886033D01*
X145539221Y-87886033D01*
X145620033Y-87859096D01*
X142290964Y-89448402D02*
X142021590Y-89179028D01*
X142506463Y-89340653D02*
X141752216Y-89717776D01*
X142129340Y-88963529D01*
X141105719Y-89017404D02*
X141132656Y-89098216D01*
X141213468Y-89179028D01*
X141321218Y-89232903D01*
X141428967Y-89232903D01*
X141509780Y-89205966D01*
X141644467Y-89125154D01*
X141725279Y-89044341D01*
X141806091Y-88909654D01*
X141833028Y-88828842D01*
X141833028Y-88721093D01*
X141779154Y-88613343D01*
X141725279Y-88559468D01*
X141617529Y-88505593D01*
X141563654Y-88505593D01*
X141375093Y-88694155D01*
X141482842Y-88801905D01*
X141375093Y-88209282D02*
X140809407Y-88774967D01*
X141051844Y-87886033D01*
X140486158Y-88451719D01*
X140782470Y-87616659D02*
X140216784Y-88182345D01*
X140082097Y-88047658D01*
X140028223Y-87939908D01*
X140028223Y-87832158D01*
X140055160Y-87751346D01*
X140135972Y-87616659D01*
X140216784Y-87535847D01*
X140351471Y-87455035D01*
X140432284Y-87428097D01*
X140540033Y-87428097D01*
X140647783Y-87481972D01*
X140782470Y-87616659D01*
X151481218Y-115086903D02*
X151508155Y-115167715D01*
X151588967Y-115248528D01*
X151696717Y-115302402D01*
X151804467Y-115302402D01*
X151885279Y-115275465D01*
X152019966Y-115194653D01*
X152100778Y-115113841D01*
X152181590Y-114979154D01*
X152208528Y-114898341D01*
X152208528Y-114790592D01*
X152154653Y-114682842D01*
X152100778Y-114628967D01*
X151993028Y-114575093D01*
X151939154Y-114575093D01*
X151750592Y-114763654D01*
X151858341Y-114871404D01*
X151750592Y-114278781D02*
X151184906Y-114844467D01*
X150969407Y-114628967D01*
X150942470Y-114548155D01*
X150942470Y-114494280D01*
X150969407Y-114413468D01*
X151050219Y-114332656D01*
X151131032Y-114305719D01*
X151184906Y-114305719D01*
X151265719Y-114332656D01*
X151481218Y-114548155D01*
X151157969Y-113686158D02*
X151050219Y-113578409D01*
X150969407Y-113551471D01*
X150915532Y-113551471D01*
X150780845Y-113578409D01*
X150646158Y-113659221D01*
X150430659Y-113874720D01*
X150403722Y-113955532D01*
X150403722Y-114009407D01*
X150430659Y-114090219D01*
X150538409Y-114197969D01*
X150619221Y-114224906D01*
X150673096Y-114224906D01*
X150753908Y-114197969D01*
X150888595Y-114063282D01*
X150915532Y-113982470D01*
X150915532Y-113928595D01*
X150888595Y-113847783D01*
X150780845Y-113740033D01*
X150700033Y-113713096D01*
X150646158Y-113713096D01*
X150565346Y-113740033D01*
X126071218Y-115186903D02*
X126098155Y-115267715D01*
X126178967Y-115348528D01*
X126286717Y-115402402D01*
X126394467Y-115402402D01*
X126475279Y-115375465D01*
X126609966Y-115294653D01*
X126690778Y-115213841D01*
X126771590Y-115079154D01*
X126798528Y-114998341D01*
X126798528Y-114890592D01*
X126744653Y-114782842D01*
X126690778Y-114728967D01*
X126583028Y-114675093D01*
X126529154Y-114675093D01*
X126340592Y-114863654D01*
X126448341Y-114971404D01*
X126340592Y-114378781D02*
X125774906Y-114944467D01*
X125559407Y-114728967D01*
X125532470Y-114648155D01*
X125532470Y-114594280D01*
X125559407Y-114513468D01*
X125640219Y-114432656D01*
X125721032Y-114405719D01*
X125774906Y-114405719D01*
X125855719Y-114432656D01*
X126071218Y-114648155D01*
X125478595Y-113516784D02*
X125801844Y-113840033D01*
X125640219Y-113678409D02*
X125074534Y-114244094D01*
X125209221Y-114217157D01*
X125316971Y-114217157D01*
X125397783Y-114244094D01*
X137083773Y-89445211D02*
X136814399Y-89175837D01*
X137299272Y-89337462D02*
X136545025Y-89714585D01*
X136922149Y-88960338D01*
X136733587Y-88771776D02*
X136167902Y-89337462D01*
X136033215Y-89202775D01*
X135979340Y-89095025D01*
X135979340Y-88987276D01*
X136006277Y-88906463D01*
X136087089Y-88771776D01*
X136167902Y-88690964D01*
X136302589Y-88610152D01*
X136383401Y-88583215D01*
X136491150Y-88583215D01*
X136598900Y-88637089D01*
X136733587Y-88771776D01*
X135790778Y-87936717D02*
X135844653Y-87936717D01*
X135952402Y-87990592D01*
X136006277Y-88044467D01*
X136060152Y-88152216D01*
X136060152Y-88259966D01*
X136033215Y-88340778D01*
X135952402Y-88475465D01*
X135871590Y-88556277D01*
X135736903Y-88637089D01*
X135656091Y-88664027D01*
X135548341Y-88664027D01*
X135440592Y-88610152D01*
X135386717Y-88556277D01*
X135332842Y-88448528D01*
X135332842Y-88394653D01*
X135790778Y-87721218D02*
X135359780Y-87290219D01*
X134686345Y-87855905D02*
X135063468Y-87101658D01*
X134309221Y-87478781D01*
X134363096Y-86401285D02*
X134282284Y-86859221D01*
X134686345Y-86724534D02*
X134120659Y-87290219D01*
X133905160Y-87074720D01*
X133878223Y-86993908D01*
X133878223Y-86940033D01*
X133905160Y-86859221D01*
X133985972Y-86778409D01*
X134066784Y-86751471D01*
X134120659Y-86751471D01*
X134201471Y-86778409D01*
X134416971Y-86993908D01*
X133824348Y-86455160D02*
X133635786Y-86266598D01*
X133851285Y-85889475D02*
X134120659Y-86158849D01*
X133554974Y-86724534D01*
X133285600Y-86455160D01*
X133123975Y-85754788D02*
X133312537Y-85943349D01*
X133608849Y-85647038D02*
X133043163Y-86212723D01*
X132773789Y-85943349D01*
X154048155Y-89513841D02*
X154075093Y-89594653D01*
X154155905Y-89675465D01*
X154263654Y-89729340D01*
X154371404Y-89729340D01*
X154452216Y-89702402D01*
X154586903Y-89621590D01*
X154667715Y-89540778D01*
X154748528Y-89406091D01*
X154775465Y-89325279D01*
X154775465Y-89217529D01*
X154721590Y-89109780D01*
X154667715Y-89055905D01*
X154559966Y-89002030D01*
X154506091Y-89002030D01*
X154317529Y-89190592D01*
X154425279Y-89298341D01*
X154317529Y-88705719D02*
X153751844Y-89271404D01*
X153994280Y-88382470D01*
X153428595Y-88948155D01*
X153724906Y-88113096D02*
X153159221Y-88678781D01*
X153024534Y-88544094D01*
X152970659Y-88436345D01*
X152970659Y-88328595D01*
X152997597Y-88247783D01*
X153078409Y-88113096D01*
X153159221Y-88032284D01*
X153293908Y-87951471D01*
X153374720Y-87924534D01*
X153482470Y-87924534D01*
X153590219Y-87978409D01*
X153724906Y-88113096D01*
X174059809Y-108870523D02*
X174097904Y-108756238D01*
X174097904Y-108565761D01*
X174059809Y-108489571D01*
X174021714Y-108451476D01*
X173945523Y-108413380D01*
X173869333Y-108413380D01*
X173793142Y-108451476D01*
X173755047Y-108489571D01*
X173716952Y-108565761D01*
X173678857Y-108718142D01*
X173640761Y-108794333D01*
X173602666Y-108832428D01*
X173526476Y-108870523D01*
X173450285Y-108870523D01*
X173374095Y-108832428D01*
X173336000Y-108794333D01*
X173297904Y-108718142D01*
X173297904Y-108527666D01*
X173336000Y-108413380D01*
X173297904Y-108146714D02*
X174097904Y-107956238D01*
X173526476Y-107803857D01*
X174097904Y-107651476D01*
X173297904Y-107461000D01*
X174021714Y-106699095D02*
X174059809Y-106737190D01*
X174097904Y-106851476D01*
X174097904Y-106927666D01*
X174059809Y-107041952D01*
X173983619Y-107118142D01*
X173907428Y-107156238D01*
X173755047Y-107194333D01*
X173640761Y-107194333D01*
X173488380Y-107156238D01*
X173412190Y-107118142D01*
X173336000Y-107041952D01*
X173297904Y-106927666D01*
X173297904Y-106851476D01*
X173336000Y-106737190D01*
X173374095Y-106699095D01*
X174097904Y-105975285D02*
X174097904Y-106356238D01*
X173297904Y-106356238D01*
X174097904Y-105708619D02*
X173297904Y-105708619D01*
X174097904Y-105251476D02*
X173640761Y-105594333D01*
X173297904Y-105251476D02*
X173755047Y-105708619D01*
X166748155Y-115113841D02*
X166775093Y-115194653D01*
X166855905Y-115275465D01*
X166963654Y-115329340D01*
X167071404Y-115329340D01*
X167152216Y-115302402D01*
X167286903Y-115221590D01*
X167367715Y-115140778D01*
X167448528Y-115006091D01*
X167475465Y-114925279D01*
X167475465Y-114817529D01*
X167421590Y-114709780D01*
X167367715Y-114655905D01*
X167259966Y-114602030D01*
X167206091Y-114602030D01*
X167017529Y-114790592D01*
X167125279Y-114898341D01*
X167017529Y-114305719D02*
X166451844Y-114871404D01*
X166694280Y-113982470D01*
X166128595Y-114548155D01*
X166424906Y-113713096D02*
X165859221Y-114278781D01*
X165724534Y-114144094D01*
X165670659Y-114036345D01*
X165670659Y-113928595D01*
X165697597Y-113847783D01*
X165778409Y-113713096D01*
X165859221Y-113632284D01*
X165993908Y-113551471D01*
X166074720Y-113524534D01*
X166182470Y-113524534D01*
X166290219Y-113578409D01*
X166424906Y-113713096D01*
X159370592Y-115756277D02*
X159397529Y-115837089D01*
X159478341Y-115917902D01*
X159586091Y-115971776D01*
X159693841Y-115971776D01*
X159774653Y-115944839D01*
X159909340Y-115864027D01*
X159990152Y-115783215D01*
X160070964Y-115648528D01*
X160097902Y-115567715D01*
X160097902Y-115459966D01*
X160044027Y-115352216D01*
X159990152Y-115298341D01*
X159882402Y-115244467D01*
X159828528Y-115244467D01*
X159639966Y-115433028D01*
X159747715Y-115540778D01*
X159639966Y-114948155D02*
X159074280Y-115513841D01*
X158858781Y-115298341D01*
X158831844Y-115217529D01*
X158831844Y-115163654D01*
X158858781Y-115082842D01*
X158939593Y-115002030D01*
X159020406Y-114975093D01*
X159074280Y-114975093D01*
X159155093Y-115002030D01*
X159370592Y-115217529D01*
X158777969Y-114086158D02*
X159101218Y-114409407D01*
X158939593Y-114247783D02*
X158373908Y-114813468D01*
X158508595Y-114786531D01*
X158616345Y-114786531D01*
X158697157Y-114813468D01*
X158239221Y-113547410D02*
X158562470Y-113870659D01*
X158400845Y-113709035D02*
X157835160Y-114274720D01*
X157969847Y-114247783D01*
X158077597Y-114247783D01*
X158158409Y-114274720D01*
X172070592Y-89502277D02*
X172097529Y-89583089D01*
X172178341Y-89663902D01*
X172286091Y-89717776D01*
X172393841Y-89717776D01*
X172474653Y-89690839D01*
X172609340Y-89610027D01*
X172690152Y-89529215D01*
X172770964Y-89394528D01*
X172797902Y-89313715D01*
X172797902Y-89205966D01*
X172744027Y-89098216D01*
X172690152Y-89044341D01*
X172582402Y-88990467D01*
X172528528Y-88990467D01*
X172339966Y-89179028D01*
X172447715Y-89286778D01*
X172339966Y-88694155D02*
X171774280Y-89259841D01*
X171558781Y-89044341D01*
X171531844Y-88963529D01*
X171531844Y-88909654D01*
X171558781Y-88828842D01*
X171639593Y-88748030D01*
X171720406Y-88721093D01*
X171774280Y-88721093D01*
X171855093Y-88748030D01*
X172070592Y-88963529D01*
X171477969Y-87832158D02*
X171801218Y-88155407D01*
X171639593Y-87993783D02*
X171073908Y-88559468D01*
X171208595Y-88532531D01*
X171316345Y-88532531D01*
X171397157Y-88559468D01*
X170427410Y-87912971D02*
X170535160Y-88020720D01*
X170615972Y-88047658D01*
X170669847Y-88047658D01*
X170804534Y-88020720D01*
X170939221Y-87939908D01*
X171154720Y-87724409D01*
X171181658Y-87643597D01*
X171181658Y-87589722D01*
X171154720Y-87508910D01*
X171046971Y-87401160D01*
X170966158Y-87374223D01*
X170912284Y-87374223D01*
X170831471Y-87401160D01*
X170696784Y-87535847D01*
X170669847Y-87616659D01*
X170669847Y-87670534D01*
X170696784Y-87751346D01*
X170804534Y-87859096D01*
X170885346Y-87886033D01*
X170939221Y-87886033D01*
X171020033Y-87859096D01*
X131508308Y-89677868D02*
X131158122Y-89327682D01*
X131562183Y-89300744D01*
X131481370Y-89219932D01*
X131454433Y-89139120D01*
X131454433Y-89085245D01*
X131481370Y-89004433D01*
X131616057Y-88869746D01*
X131696870Y-88842809D01*
X131750744Y-88842809D01*
X131831557Y-88869746D01*
X131993181Y-89031370D01*
X132020118Y-89112183D01*
X132020118Y-89166057D01*
X130996497Y-89166057D02*
X131373621Y-88411810D01*
X130619374Y-88788934D01*
X130484687Y-88654247D02*
X130134500Y-88304061D01*
X130538561Y-88277123D01*
X130457749Y-88196311D01*
X130430812Y-88115499D01*
X130430812Y-88061624D01*
X130457749Y-87980812D01*
X130592436Y-87846125D01*
X130673248Y-87819187D01*
X130727123Y-87819187D01*
X130807935Y-87846125D01*
X130969560Y-88007749D01*
X130996497Y-88088561D01*
X130996497Y-88142436D01*
X130646311Y-87576751D02*
X130215312Y-87145752D01*
X129730439Y-87361251D02*
X129541877Y-87172690D01*
X129757377Y-86795566D02*
X130026751Y-87064940D01*
X129461065Y-87630625D01*
X129191691Y-87361251D01*
X129514940Y-86553129D02*
X128949255Y-87118815D01*
X129191691Y-86229881D01*
X128626006Y-86795566D01*
X169530592Y-89502277D02*
X169557529Y-89583089D01*
X169638341Y-89663902D01*
X169746091Y-89717776D01*
X169853841Y-89717776D01*
X169934653Y-89690839D01*
X170069340Y-89610027D01*
X170150152Y-89529215D01*
X170230964Y-89394528D01*
X170257902Y-89313715D01*
X170257902Y-89205966D01*
X170204027Y-89098216D01*
X170150152Y-89044341D01*
X170042402Y-88990467D01*
X169988528Y-88990467D01*
X169799966Y-89179028D01*
X169907715Y-89286778D01*
X169799966Y-88694155D02*
X169234280Y-89259841D01*
X169018781Y-89044341D01*
X168991844Y-88963529D01*
X168991844Y-88909654D01*
X169018781Y-88828842D01*
X169099593Y-88748030D01*
X169180406Y-88721093D01*
X169234280Y-88721093D01*
X169315093Y-88748030D01*
X169530592Y-88963529D01*
X168937969Y-87832158D02*
X169261218Y-88155407D01*
X169099593Y-87993783D02*
X168533908Y-88559468D01*
X168668595Y-88532531D01*
X168776345Y-88532531D01*
X168857157Y-88559468D01*
X168183722Y-88209282D02*
X167806598Y-87832158D01*
X168614720Y-87508910D01*
X149493435Y-88761624D02*
X149412622Y-89219560D01*
X149816683Y-89084873D02*
X149250998Y-89650558D01*
X149035499Y-89435059D01*
X149008561Y-89354247D01*
X149008561Y-89300372D01*
X149035499Y-89219560D01*
X149116311Y-89138748D01*
X149197123Y-89111810D01*
X149250998Y-89111810D01*
X149331810Y-89138748D01*
X149547309Y-89354247D01*
X148685312Y-89084873D02*
X149143248Y-88626937D01*
X149170186Y-88546125D01*
X149170186Y-88492250D01*
X149143248Y-88411438D01*
X149035499Y-88303688D01*
X148954687Y-88276751D01*
X148900812Y-88276751D01*
X148820000Y-88303688D01*
X148362064Y-88761624D01*
X148658375Y-87926564D02*
X148092690Y-88492250D01*
X148335126Y-87603316D01*
X147769441Y-88169001D01*
X133701218Y-115086903D02*
X133728155Y-115167715D01*
X133808967Y-115248528D01*
X133916717Y-115302402D01*
X134024467Y-115302402D01*
X134105279Y-115275465D01*
X134239966Y-115194653D01*
X134320778Y-115113841D01*
X134401590Y-114979154D01*
X134428528Y-114898341D01*
X134428528Y-114790592D01*
X134374653Y-114682842D01*
X134320778Y-114628967D01*
X134213028Y-114575093D01*
X134159154Y-114575093D01*
X133970592Y-114763654D01*
X134078341Y-114871404D01*
X133970592Y-114278781D02*
X133404906Y-114844467D01*
X133189407Y-114628967D01*
X133162470Y-114548155D01*
X133162470Y-114494280D01*
X133189407Y-114413468D01*
X133270219Y-114332656D01*
X133351032Y-114305719D01*
X133404906Y-114305719D01*
X133485719Y-114332656D01*
X133701218Y-114548155D01*
X132893096Y-114332656D02*
X132542910Y-113982470D01*
X132946971Y-113955532D01*
X132866158Y-113874720D01*
X132839221Y-113793908D01*
X132839221Y-113740033D01*
X132866158Y-113659221D01*
X133000845Y-113524534D01*
X133081658Y-113497597D01*
X133135532Y-113497597D01*
X133216345Y-113524534D01*
X133377969Y-113686158D01*
X133404906Y-113766971D01*
X133404906Y-113820845D01*
X126619966Y-89679526D02*
X126997089Y-88925279D01*
X126242842Y-89302402D01*
X126619966Y-88602030D02*
X126566091Y-88494280D01*
X126431404Y-88359593D01*
X126350592Y-88332656D01*
X126296717Y-88332656D01*
X126215905Y-88359593D01*
X126162030Y-88413468D01*
X126135093Y-88494280D01*
X126135093Y-88548155D01*
X126162030Y-88628967D01*
X126242842Y-88763654D01*
X126269780Y-88844467D01*
X126269780Y-88898341D01*
X126242842Y-88979154D01*
X126188967Y-89033028D01*
X126108155Y-89059966D01*
X126054280Y-89059966D01*
X125973468Y-89033028D01*
X125838781Y-88898341D01*
X125784906Y-88790592D01*
X125704094Y-88171032D02*
X125973468Y-87901658D01*
X125596345Y-88655905D02*
X125704094Y-88171032D01*
X125219221Y-88278781D01*
X125596345Y-87578409D02*
X125542470Y-87470659D01*
X125407783Y-87335972D01*
X125326971Y-87309035D01*
X125273096Y-87309035D01*
X125192284Y-87335972D01*
X125138409Y-87389847D01*
X125111471Y-87470659D01*
X125111471Y-87524534D01*
X125138409Y-87605346D01*
X125219221Y-87740033D01*
X125246158Y-87820845D01*
X125246158Y-87874720D01*
X125219221Y-87955532D01*
X125165346Y-88009407D01*
X125084534Y-88036345D01*
X125030659Y-88036345D01*
X124949847Y-88009407D01*
X124815160Y-87874720D01*
X124761285Y-87766971D01*
X136241218Y-115086903D02*
X136268155Y-115167715D01*
X136348967Y-115248528D01*
X136456717Y-115302402D01*
X136564467Y-115302402D01*
X136645279Y-115275465D01*
X136779966Y-115194653D01*
X136860778Y-115113841D01*
X136941590Y-114979154D01*
X136968528Y-114898341D01*
X136968528Y-114790592D01*
X136914653Y-114682842D01*
X136860778Y-114628967D01*
X136753028Y-114575093D01*
X136699154Y-114575093D01*
X136510592Y-114763654D01*
X136618341Y-114871404D01*
X136510592Y-114278781D02*
X135944906Y-114844467D01*
X135729407Y-114628967D01*
X135702470Y-114548155D01*
X135702470Y-114494280D01*
X135729407Y-114413468D01*
X135810219Y-114332656D01*
X135891032Y-114305719D01*
X135944906Y-114305719D01*
X136025719Y-114332656D01*
X136241218Y-114548155D01*
X135325346Y-113847783D02*
X135702470Y-113470659D01*
X135244534Y-114197969D02*
X135783282Y-113928595D01*
X135433096Y-113578409D01*
X174059809Y-97961238D02*
X174097904Y-97846952D01*
X174097904Y-97656476D01*
X174059809Y-97580285D01*
X174021714Y-97542190D01*
X173945523Y-97504095D01*
X173869333Y-97504095D01*
X173793142Y-97542190D01*
X173755047Y-97580285D01*
X173716952Y-97656476D01*
X173678857Y-97808857D01*
X173640761Y-97885047D01*
X173602666Y-97923142D01*
X173526476Y-97961238D01*
X173450285Y-97961238D01*
X173374095Y-97923142D01*
X173336000Y-97885047D01*
X173297904Y-97808857D01*
X173297904Y-97618380D01*
X173336000Y-97504095D01*
X173297904Y-97237428D02*
X174097904Y-97046952D01*
X173526476Y-96894571D01*
X174097904Y-96742190D01*
X173297904Y-96551714D01*
X174097904Y-96246952D02*
X173297904Y-96246952D01*
X173297904Y-96056476D01*
X173336000Y-95942190D01*
X173412190Y-95866000D01*
X173488380Y-95827904D01*
X173640761Y-95789809D01*
X173755047Y-95789809D01*
X173907428Y-95827904D01*
X173983619Y-95866000D01*
X174059809Y-95942190D01*
X174097904Y-96056476D01*
X174097904Y-96246952D01*
X174097904Y-95446952D02*
X173297904Y-95446952D01*
X173297904Y-94913619D02*
X173297904Y-94761238D01*
X173336000Y-94685047D01*
X173412190Y-94608857D01*
X173564571Y-94570761D01*
X173831238Y-94570761D01*
X173983619Y-94608857D01*
X174059809Y-94685047D01*
X174097904Y-94761238D01*
X174097904Y-94913619D01*
X174059809Y-94989809D01*
X173983619Y-95066000D01*
X173831238Y-95104095D01*
X173564571Y-95104095D01*
X173412190Y-95066000D01*
X173336000Y-94989809D01*
X173297904Y-94913619D01*
X164450592Y-115610277D02*
X164477529Y-115691089D01*
X164558341Y-115771902D01*
X164666091Y-115825776D01*
X164773841Y-115825776D01*
X164854653Y-115798839D01*
X164989340Y-115718027D01*
X165070152Y-115637215D01*
X165150964Y-115502528D01*
X165177902Y-115421715D01*
X165177902Y-115313966D01*
X165124027Y-115206216D01*
X165070152Y-115152341D01*
X164962402Y-115098467D01*
X164908528Y-115098467D01*
X164719966Y-115287028D01*
X164827715Y-115394778D01*
X164719966Y-114802155D02*
X164154280Y-115367841D01*
X163938781Y-115152341D01*
X163911844Y-115071529D01*
X163911844Y-115017654D01*
X163938781Y-114936842D01*
X164019593Y-114856030D01*
X164100406Y-114829093D01*
X164154280Y-114829093D01*
X164235093Y-114856030D01*
X164450592Y-115071529D01*
X163857969Y-113940158D02*
X164181218Y-114263407D01*
X164019593Y-114101783D02*
X163453908Y-114667468D01*
X163588595Y-114640531D01*
X163696345Y-114640531D01*
X163777157Y-114667468D01*
X163103722Y-114317282D02*
X162753536Y-113967096D01*
X163157597Y-113940158D01*
X163076784Y-113859346D01*
X163049847Y-113778534D01*
X163049847Y-113724659D01*
X163076784Y-113643847D01*
X163211471Y-113509160D01*
X163292284Y-113482223D01*
X163346158Y-113482223D01*
X163426971Y-113509160D01*
X163588595Y-113670784D01*
X163615532Y-113751597D01*
X163615532Y-113805471D01*
X169530592Y-115656277D02*
X169557529Y-115737089D01*
X169638341Y-115817902D01*
X169746091Y-115871776D01*
X169853841Y-115871776D01*
X169934653Y-115844839D01*
X170069340Y-115764027D01*
X170150152Y-115683215D01*
X170230964Y-115548528D01*
X170257902Y-115467715D01*
X170257902Y-115359966D01*
X170204027Y-115252216D01*
X170150152Y-115198341D01*
X170042402Y-115144467D01*
X169988528Y-115144467D01*
X169799966Y-115333028D01*
X169907715Y-115440778D01*
X169799966Y-114848155D02*
X169234280Y-115413841D01*
X169018781Y-115198341D01*
X168991844Y-115117529D01*
X168991844Y-115063654D01*
X169018781Y-114982842D01*
X169099593Y-114902030D01*
X169180406Y-114875093D01*
X169234280Y-114875093D01*
X169315093Y-114902030D01*
X169530592Y-115117529D01*
X168937969Y-113986158D02*
X169261218Y-114309407D01*
X169099593Y-114147783D02*
X168533908Y-114713468D01*
X168668595Y-114686531D01*
X168776345Y-114686531D01*
X168857157Y-114713468D01*
X168075972Y-113878409D02*
X168453096Y-113501285D01*
X167995160Y-114228595D02*
X168533908Y-113959221D01*
X168183722Y-113609035D01*
X128648155Y-89513841D02*
X128675093Y-89594653D01*
X128755905Y-89675465D01*
X128863654Y-89729340D01*
X128971404Y-89729340D01*
X129052216Y-89702402D01*
X129186903Y-89621590D01*
X129267715Y-89540778D01*
X129348528Y-89406091D01*
X129375465Y-89325279D01*
X129375465Y-89217529D01*
X129321590Y-89109780D01*
X129267715Y-89055905D01*
X129159966Y-89002030D01*
X129106091Y-89002030D01*
X128917529Y-89190592D01*
X129025279Y-89298341D01*
X128917529Y-88705719D02*
X128351844Y-89271404D01*
X128594280Y-88382470D01*
X128028595Y-88948155D01*
X128324906Y-88113096D02*
X127759221Y-88678781D01*
X127624534Y-88544094D01*
X127570659Y-88436345D01*
X127570659Y-88328595D01*
X127597597Y-88247783D01*
X127678409Y-88113096D01*
X127759221Y-88032284D01*
X127893908Y-87951471D01*
X127974720Y-87924534D01*
X128082470Y-87924534D01*
X128190219Y-87978409D01*
X128324906Y-88113096D01*
X161910592Y-115756277D02*
X161937529Y-115837089D01*
X162018341Y-115917902D01*
X162126091Y-115971776D01*
X162233841Y-115971776D01*
X162314653Y-115944839D01*
X162449340Y-115864027D01*
X162530152Y-115783215D01*
X162610964Y-115648528D01*
X162637902Y-115567715D01*
X162637902Y-115459966D01*
X162584027Y-115352216D01*
X162530152Y-115298341D01*
X162422402Y-115244467D01*
X162368528Y-115244467D01*
X162179966Y-115433028D01*
X162287715Y-115540778D01*
X162179966Y-114948155D02*
X161614280Y-115513841D01*
X161398781Y-115298341D01*
X161371844Y-115217529D01*
X161371844Y-115163654D01*
X161398781Y-115082842D01*
X161479593Y-115002030D01*
X161560406Y-114975093D01*
X161614280Y-114975093D01*
X161695093Y-115002030D01*
X161910592Y-115217529D01*
X161317969Y-114086158D02*
X161641218Y-114409407D01*
X161479593Y-114247783D02*
X160913908Y-114813468D01*
X161048595Y-114786531D01*
X161156345Y-114786531D01*
X161237157Y-114813468D01*
X160590659Y-114382470D02*
X160536784Y-114382470D01*
X160455972Y-114355532D01*
X160321285Y-114220845D01*
X160294348Y-114140033D01*
X160294348Y-114086158D01*
X160321285Y-114005346D01*
X160375160Y-113951471D01*
X160482910Y-113897597D01*
X161129407Y-113897597D01*
X160779221Y-113547410D01*
X156840592Y-89502277D02*
X156867529Y-89583089D01*
X156948341Y-89663902D01*
X157056091Y-89717776D01*
X157163841Y-89717776D01*
X157244653Y-89690839D01*
X157379340Y-89610027D01*
X157460152Y-89529215D01*
X157540964Y-89394528D01*
X157567902Y-89313715D01*
X157567902Y-89205966D01*
X157514027Y-89098216D01*
X157460152Y-89044341D01*
X157352402Y-88990467D01*
X157298528Y-88990467D01*
X157109966Y-89179028D01*
X157217715Y-89286778D01*
X157109966Y-88694155D02*
X156544280Y-89259841D01*
X156328781Y-89044341D01*
X156301844Y-88963529D01*
X156301844Y-88909654D01*
X156328781Y-88828842D01*
X156409593Y-88748030D01*
X156490406Y-88721093D01*
X156544280Y-88721093D01*
X156625093Y-88748030D01*
X156840592Y-88963529D01*
X156059407Y-88667218D02*
X156005532Y-88667218D01*
X155924720Y-88640280D01*
X155790033Y-88505593D01*
X155763096Y-88424781D01*
X155763096Y-88370906D01*
X155790033Y-88290094D01*
X155843908Y-88236219D01*
X155951658Y-88182345D01*
X156598155Y-88182345D01*
X156247969Y-87832158D01*
X155709221Y-87293410D02*
X156032470Y-87616659D01*
X155870845Y-87455035D02*
X155305160Y-88020720D01*
X155439847Y-87993783D01*
X155547597Y-87993783D01*
X155628409Y-88020720D01*
X156830592Y-115610277D02*
X156857529Y-115691089D01*
X156938341Y-115771902D01*
X157046091Y-115825776D01*
X157153841Y-115825776D01*
X157234653Y-115798839D01*
X157369340Y-115718027D01*
X157450152Y-115637215D01*
X157530964Y-115502528D01*
X157557902Y-115421715D01*
X157557902Y-115313966D01*
X157504027Y-115206216D01*
X157450152Y-115152341D01*
X157342402Y-115098467D01*
X157288528Y-115098467D01*
X157099966Y-115287028D01*
X157207715Y-115394778D01*
X157099966Y-114802155D02*
X156534280Y-115367841D01*
X156318781Y-115152341D01*
X156291844Y-115071529D01*
X156291844Y-115017654D01*
X156318781Y-114936842D01*
X156399593Y-114856030D01*
X156480406Y-114829093D01*
X156534280Y-114829093D01*
X156615093Y-114856030D01*
X156830592Y-115071529D01*
X156237969Y-113940158D02*
X156561218Y-114263407D01*
X156399593Y-114101783D02*
X155833908Y-114667468D01*
X155968595Y-114640531D01*
X156076345Y-114640531D01*
X156157157Y-114667468D01*
X155322097Y-114155658D02*
X155268223Y-114101783D01*
X155241285Y-114020971D01*
X155241285Y-113967096D01*
X155268223Y-113886284D01*
X155349035Y-113751597D01*
X155483722Y-113616910D01*
X155618409Y-113536097D01*
X155699221Y-113509160D01*
X155753096Y-113509160D01*
X155833908Y-113536097D01*
X155887783Y-113589972D01*
X155914720Y-113670784D01*
X155914720Y-113724659D01*
X155887783Y-113805471D01*
X155806971Y-113940158D01*
X155672284Y-114074845D01*
X155537597Y-114155658D01*
X155456784Y-114182595D01*
X155402910Y-114182595D01*
X155322097Y-114155658D01*
X123541218Y-115086903D02*
X123568155Y-115167715D01*
X123648967Y-115248528D01*
X123756717Y-115302402D01*
X123864467Y-115302402D01*
X123945279Y-115275465D01*
X124079966Y-115194653D01*
X124160778Y-115113841D01*
X124241590Y-114979154D01*
X124268528Y-114898341D01*
X124268528Y-114790592D01*
X124214653Y-114682842D01*
X124160778Y-114628967D01*
X124053028Y-114575093D01*
X123999154Y-114575093D01*
X123810592Y-114763654D01*
X123918341Y-114871404D01*
X123810592Y-114278781D02*
X123244906Y-114844467D01*
X123029407Y-114628967D01*
X123002470Y-114548155D01*
X123002470Y-114494280D01*
X123029407Y-114413468D01*
X123110219Y-114332656D01*
X123191032Y-114305719D01*
X123244906Y-114305719D01*
X123325719Y-114332656D01*
X123541218Y-114548155D01*
X122571471Y-114171032D02*
X122517597Y-114117157D01*
X122490659Y-114036345D01*
X122490659Y-113982470D01*
X122517597Y-113901658D01*
X122598409Y-113766971D01*
X122733096Y-113632284D01*
X122867783Y-113551471D01*
X122948595Y-113524534D01*
X123002470Y-113524534D01*
X123083282Y-113551471D01*
X123137157Y-113605346D01*
X123164094Y-113686158D01*
X123164094Y-113740033D01*
X123137157Y-113820845D01*
X123056345Y-113955532D01*
X122921658Y-114090219D01*
X122786971Y-114171032D01*
X122706158Y-114197969D01*
X122652284Y-114197969D01*
X122571471Y-114171032D01*
X161910592Y-89502277D02*
X161937529Y-89583089D01*
X162018341Y-89663902D01*
X162126091Y-89717776D01*
X162233841Y-89717776D01*
X162314653Y-89690839D01*
X162449340Y-89610027D01*
X162530152Y-89529215D01*
X162610964Y-89394528D01*
X162637902Y-89313715D01*
X162637902Y-89205966D01*
X162584027Y-89098216D01*
X162530152Y-89044341D01*
X162422402Y-88990467D01*
X162368528Y-88990467D01*
X162179966Y-89179028D01*
X162287715Y-89286778D01*
X162179966Y-88694155D02*
X161614280Y-89259841D01*
X161398781Y-89044341D01*
X161371844Y-88963529D01*
X161371844Y-88909654D01*
X161398781Y-88828842D01*
X161479593Y-88748030D01*
X161560406Y-88721093D01*
X161614280Y-88721093D01*
X161695093Y-88748030D01*
X161910592Y-88963529D01*
X161317969Y-87832158D02*
X161641218Y-88155407D01*
X161479593Y-87993783D02*
X160913908Y-88559468D01*
X161048595Y-88532531D01*
X161156345Y-88532531D01*
X161237157Y-88559468D01*
X161048595Y-87562784D02*
X160940845Y-87455035D01*
X160860033Y-87428097D01*
X160806158Y-87428097D01*
X160671471Y-87455035D01*
X160536784Y-87535847D01*
X160321285Y-87751346D01*
X160294348Y-87832158D01*
X160294348Y-87886033D01*
X160321285Y-87966845D01*
X160429035Y-88074595D01*
X160509847Y-88101532D01*
X160563722Y-88101532D01*
X160644534Y-88074595D01*
X160779221Y-87939908D01*
X160806158Y-87859096D01*
X160806158Y-87805221D01*
X160779221Y-87724409D01*
X160671471Y-87616659D01*
X160590659Y-87589722D01*
X160536784Y-87589722D01*
X160455972Y-87616659D01*
X172070592Y-115610277D02*
X172097529Y-115691089D01*
X172178341Y-115771902D01*
X172286091Y-115825776D01*
X172393841Y-115825776D01*
X172474653Y-115798839D01*
X172609340Y-115718027D01*
X172690152Y-115637215D01*
X172770964Y-115502528D01*
X172797902Y-115421715D01*
X172797902Y-115313966D01*
X172744027Y-115206216D01*
X172690152Y-115152341D01*
X172582402Y-115098467D01*
X172528528Y-115098467D01*
X172339966Y-115287028D01*
X172447715Y-115394778D01*
X172339966Y-114802155D02*
X171774280Y-115367841D01*
X171558781Y-115152341D01*
X171531844Y-115071529D01*
X171531844Y-115017654D01*
X171558781Y-114936842D01*
X171639593Y-114856030D01*
X171720406Y-114829093D01*
X171774280Y-114829093D01*
X171855093Y-114856030D01*
X172070592Y-115071529D01*
X171477969Y-113940158D02*
X171801218Y-114263407D01*
X171639593Y-114101783D02*
X171073908Y-114667468D01*
X171208595Y-114640531D01*
X171316345Y-114640531D01*
X171397157Y-114667468D01*
X170400473Y-113994033D02*
X170669847Y-114263407D01*
X170966158Y-114020971D01*
X170912284Y-114020971D01*
X170831471Y-113994033D01*
X170696784Y-113859346D01*
X170669847Y-113778534D01*
X170669847Y-113724659D01*
X170696784Y-113643847D01*
X170831471Y-113509160D01*
X170912284Y-113482223D01*
X170966158Y-113482223D01*
X171046971Y-113509160D01*
X171181658Y-113643847D01*
X171208595Y-113724659D01*
X171208595Y-113778534D01*
X145282218Y-115621903D02*
X145309155Y-115702715D01*
X145389967Y-115783528D01*
X145497717Y-115837402D01*
X145605467Y-115837402D01*
X145686279Y-115810465D01*
X145820966Y-115729653D01*
X145901778Y-115648841D01*
X145982590Y-115514154D01*
X146009528Y-115433341D01*
X146009528Y-115325592D01*
X145955653Y-115217842D01*
X145901778Y-115163967D01*
X145794028Y-115110093D01*
X145740154Y-115110093D01*
X145551592Y-115298654D01*
X145659341Y-115406404D01*
X145551592Y-114813781D02*
X144985906Y-115379467D01*
X144770407Y-115163967D01*
X144743470Y-115083155D01*
X144743470Y-115029280D01*
X144770407Y-114948468D01*
X144851219Y-114867656D01*
X144932032Y-114840719D01*
X144985906Y-114840719D01*
X145066719Y-114867656D01*
X145282218Y-115083155D01*
X144177784Y-114571345D02*
X144285534Y-114679094D01*
X144366346Y-114706032D01*
X144420221Y-114706032D01*
X144554908Y-114679094D01*
X144689595Y-114598282D01*
X144905094Y-114382783D01*
X144932032Y-114301971D01*
X144932032Y-114248096D01*
X144905094Y-114167284D01*
X144797345Y-114059534D01*
X144716532Y-114032597D01*
X144662658Y-114032597D01*
X144581845Y-114059534D01*
X144447158Y-114194221D01*
X144420221Y-114275033D01*
X144420221Y-114328908D01*
X144447158Y-114409720D01*
X144554908Y-114517470D01*
X144635720Y-114544407D01*
X144689595Y-114544407D01*
X144770407Y-114517470D01*
X128648155Y-115113841D02*
X128675093Y-115194653D01*
X128755905Y-115275465D01*
X128863654Y-115329340D01*
X128971404Y-115329340D01*
X129052216Y-115302402D01*
X129186903Y-115221590D01*
X129267715Y-115140778D01*
X129348528Y-115006091D01*
X129375465Y-114925279D01*
X129375465Y-114817529D01*
X129321590Y-114709780D01*
X129267715Y-114655905D01*
X129159966Y-114602030D01*
X129106091Y-114602030D01*
X128917529Y-114790592D01*
X129025279Y-114898341D01*
X128917529Y-114305719D02*
X128351844Y-114871404D01*
X128594280Y-113982470D01*
X128028595Y-114548155D01*
X128324906Y-113713096D02*
X127759221Y-114278781D01*
X127624534Y-114144094D01*
X127570659Y-114036345D01*
X127570659Y-113928595D01*
X127597597Y-113847783D01*
X127678409Y-113713096D01*
X127759221Y-113632284D01*
X127893908Y-113551471D01*
X127974720Y-113524534D01*
X128082470Y-113524534D01*
X128190219Y-113578409D01*
X128324906Y-113713096D01*
X151750592Y-89502277D02*
X151777529Y-89583089D01*
X151858341Y-89663902D01*
X151966091Y-89717776D01*
X152073841Y-89717776D01*
X152154653Y-89690839D01*
X152289340Y-89610027D01*
X152370152Y-89529215D01*
X152450964Y-89394528D01*
X152477902Y-89313715D01*
X152477902Y-89205966D01*
X152424027Y-89098216D01*
X152370152Y-89044341D01*
X152262402Y-88990467D01*
X152208528Y-88990467D01*
X152019966Y-89179028D01*
X152127715Y-89286778D01*
X152019966Y-88694155D02*
X151454280Y-89259841D01*
X151238781Y-89044341D01*
X151211844Y-88963529D01*
X151211844Y-88909654D01*
X151238781Y-88828842D01*
X151319593Y-88748030D01*
X151400406Y-88721093D01*
X151454280Y-88721093D01*
X151535093Y-88748030D01*
X151750592Y-88963529D01*
X150969407Y-88667218D02*
X150915532Y-88667218D01*
X150834720Y-88640280D01*
X150700033Y-88505593D01*
X150673096Y-88424781D01*
X150673096Y-88370906D01*
X150700033Y-88290094D01*
X150753908Y-88236219D01*
X150861658Y-88182345D01*
X151508155Y-88182345D01*
X151157969Y-87832158D01*
X150430659Y-88128470D02*
X150376784Y-88128470D01*
X150295972Y-88101532D01*
X150161285Y-87966845D01*
X150134348Y-87886033D01*
X150134348Y-87832158D01*
X150161285Y-87751346D01*
X150215160Y-87697471D01*
X150322910Y-87643597D01*
X150969407Y-87643597D01*
X150619221Y-87293410D01*
X124077309Y-89646870D02*
X124454433Y-88892622D01*
X123700186Y-89269746D01*
X123592436Y-88623248D02*
X123538561Y-88515499D01*
X123538561Y-88461624D01*
X123565499Y-88380812D01*
X123646311Y-88300000D01*
X123727123Y-88273062D01*
X123780998Y-88273062D01*
X123861810Y-88300000D01*
X124077309Y-88515499D01*
X123511624Y-89081184D01*
X123323062Y-88892622D01*
X123296125Y-88811810D01*
X123296125Y-88757935D01*
X123323062Y-88677123D01*
X123376937Y-88623248D01*
X123457749Y-88596311D01*
X123511624Y-88596311D01*
X123592436Y-88623248D01*
X123780998Y-88811810D01*
X122945938Y-88515499D02*
X123403874Y-88057563D01*
X123430812Y-87976751D01*
X123430812Y-87922876D01*
X123403874Y-87842064D01*
X123296125Y-87734314D01*
X123215312Y-87707377D01*
X123161438Y-87707377D01*
X123080625Y-87734314D01*
X122622690Y-88192250D01*
X122919001Y-87411065D02*
X122865126Y-87303316D01*
X122730439Y-87168629D01*
X122649627Y-87141691D01*
X122595752Y-87141691D01*
X122514940Y-87168629D01*
X122461065Y-87222503D01*
X122434128Y-87303316D01*
X122434128Y-87357190D01*
X122461065Y-87438003D01*
X122541877Y-87572690D01*
X122568815Y-87653502D01*
X122568815Y-87707377D01*
X122541877Y-87788189D01*
X122488003Y-87842064D01*
X122407190Y-87869001D01*
X122353316Y-87869001D01*
X122272503Y-87842064D01*
X122137816Y-87707377D01*
X122083942Y-87599627D01*
X148941218Y-115086903D02*
X148968155Y-115167715D01*
X149048967Y-115248528D01*
X149156717Y-115302402D01*
X149264467Y-115302402D01*
X149345279Y-115275465D01*
X149479966Y-115194653D01*
X149560778Y-115113841D01*
X149641590Y-114979154D01*
X149668528Y-114898341D01*
X149668528Y-114790592D01*
X149614653Y-114682842D01*
X149560778Y-114628967D01*
X149453028Y-114575093D01*
X149399154Y-114575093D01*
X149210592Y-114763654D01*
X149318341Y-114871404D01*
X149210592Y-114278781D02*
X148644906Y-114844467D01*
X148429407Y-114628967D01*
X148402470Y-114548155D01*
X148402470Y-114494280D01*
X148429407Y-114413468D01*
X148510219Y-114332656D01*
X148591032Y-114305719D01*
X148644906Y-114305719D01*
X148725719Y-114332656D01*
X148941218Y-114548155D01*
X148240845Y-113955532D02*
X148267783Y-114036345D01*
X148267783Y-114090219D01*
X148240845Y-114171032D01*
X148213908Y-114197969D01*
X148133096Y-114224906D01*
X148079221Y-114224906D01*
X147998409Y-114197969D01*
X147890659Y-114090219D01*
X147863722Y-114009407D01*
X147863722Y-113955532D01*
X147890659Y-113874720D01*
X147917597Y-113847783D01*
X147998409Y-113820845D01*
X148052284Y-113820845D01*
X148133096Y-113847783D01*
X148240845Y-113955532D01*
X148321658Y-113982470D01*
X148375532Y-113982470D01*
X148456345Y-113955532D01*
X148564094Y-113847783D01*
X148591032Y-113766971D01*
X148591032Y-113713096D01*
X148564094Y-113632284D01*
X148456345Y-113524534D01*
X148375532Y-113497597D01*
X148321658Y-113497597D01*
X148240845Y-113524534D01*
X148133096Y-113632284D01*
X148106158Y-113713096D01*
X148106158Y-113766971D01*
X148133096Y-113847783D01*
X138781218Y-115086903D02*
X138808155Y-115167715D01*
X138888967Y-115248528D01*
X138996717Y-115302402D01*
X139104467Y-115302402D01*
X139185279Y-115275465D01*
X139319966Y-115194653D01*
X139400778Y-115113841D01*
X139481590Y-114979154D01*
X139508528Y-114898341D01*
X139508528Y-114790592D01*
X139454653Y-114682842D01*
X139400778Y-114628967D01*
X139293028Y-114575093D01*
X139239154Y-114575093D01*
X139050592Y-114763654D01*
X139158341Y-114871404D01*
X139050592Y-114278781D02*
X138484906Y-114844467D01*
X138269407Y-114628967D01*
X138242470Y-114548155D01*
X138242470Y-114494280D01*
X138269407Y-114413468D01*
X138350219Y-114332656D01*
X138431032Y-114305719D01*
X138484906Y-114305719D01*
X138565719Y-114332656D01*
X138781218Y-114548155D01*
X137649847Y-114009407D02*
X137919221Y-114278781D01*
X138215532Y-114036345D01*
X138161658Y-114036345D01*
X138080845Y-114009407D01*
X137946158Y-113874720D01*
X137919221Y-113793908D01*
X137919221Y-113740033D01*
X137946158Y-113659221D01*
X138080845Y-113524534D01*
X138161658Y-113497597D01*
X138215532Y-113497597D01*
X138296345Y-113524534D01*
X138431032Y-113659221D01*
X138457969Y-113740033D01*
X138457969Y-113793908D01*
X131161218Y-115186903D02*
X131188155Y-115267715D01*
X131268967Y-115348528D01*
X131376717Y-115402402D01*
X131484467Y-115402402D01*
X131565279Y-115375465D01*
X131699966Y-115294653D01*
X131780778Y-115213841D01*
X131861590Y-115079154D01*
X131888528Y-114998341D01*
X131888528Y-114890592D01*
X131834653Y-114782842D01*
X131780778Y-114728967D01*
X131673028Y-114675093D01*
X131619154Y-114675093D01*
X131430592Y-114863654D01*
X131538341Y-114971404D01*
X131430592Y-114378781D02*
X130864906Y-114944467D01*
X130649407Y-114728967D01*
X130622470Y-114648155D01*
X130622470Y-114594280D01*
X130649407Y-114513468D01*
X130730219Y-114432656D01*
X130811032Y-114405719D01*
X130864906Y-114405719D01*
X130945719Y-114432656D01*
X131161218Y-114648155D01*
X130380033Y-114351844D02*
X130326158Y-114351844D01*
X130245346Y-114324906D01*
X130110659Y-114190219D01*
X130083722Y-114109407D01*
X130083722Y-114055532D01*
X130110659Y-113974720D01*
X130164534Y-113920845D01*
X130272284Y-113866971D01*
X130918781Y-113866971D01*
X130568595Y-113516784D01*
%TO.C,H2*%
X181102095Y-124658380D02*
X181102095Y-123658380D01*
X181102095Y-124134571D02*
X181673523Y-124134571D01*
X181673523Y-124658380D02*
X181673523Y-123658380D01*
X182102095Y-123753619D02*
X182149714Y-123706000D01*
X182244952Y-123658380D01*
X182483047Y-123658380D01*
X182578285Y-123706000D01*
X182625904Y-123753619D01*
X182673523Y-123848857D01*
X182673523Y-123944095D01*
X182625904Y-124086952D01*
X182054476Y-124658380D01*
X182673523Y-124658380D01*
%TO.C,R1*%
X186904333Y-95829380D02*
X186571000Y-95353190D01*
X186332904Y-95829380D02*
X186332904Y-94829380D01*
X186713857Y-94829380D01*
X186809095Y-94877000D01*
X186856714Y-94924619D01*
X186904333Y-95019857D01*
X186904333Y-95162714D01*
X186856714Y-95257952D01*
X186809095Y-95305571D01*
X186713857Y-95353190D01*
X186332904Y-95353190D01*
X187856714Y-95829380D02*
X187285285Y-95829380D01*
X187571000Y-95829380D02*
X187571000Y-94829380D01*
X187475761Y-94972238D01*
X187380523Y-95067476D01*
X187285285Y-95115095D01*
%TO.C,U2*%
X181229095Y-94448380D02*
X181229095Y-95257904D01*
X181276714Y-95353142D01*
X181324333Y-95400761D01*
X181419571Y-95448380D01*
X181610047Y-95448380D01*
X181705285Y-95400761D01*
X181752904Y-95353142D01*
X181800523Y-95257904D01*
X181800523Y-94448380D01*
X182229095Y-94543619D02*
X182276714Y-94496000D01*
X182371952Y-94448380D01*
X182610047Y-94448380D01*
X182705285Y-94496000D01*
X182752904Y-94543619D01*
X182800523Y-94638857D01*
X182800523Y-94734095D01*
X182752904Y-94876952D01*
X182181476Y-95448380D01*
X182800523Y-95448380D01*
%TO.C,R4*%
X187793333Y-86939380D02*
X187460000Y-86463190D01*
X187221904Y-86939380D02*
X187221904Y-85939380D01*
X187602857Y-85939380D01*
X187698095Y-85987000D01*
X187745714Y-86034619D01*
X187793333Y-86129857D01*
X187793333Y-86272714D01*
X187745714Y-86367952D01*
X187698095Y-86415571D01*
X187602857Y-86463190D01*
X187221904Y-86463190D01*
X188650476Y-86272714D02*
X188650476Y-86939380D01*
X188412380Y-85891761D02*
X188174285Y-86606047D01*
X188793333Y-86606047D01*
%TO.C,J2*%
X191817666Y-75652380D02*
X191817666Y-76366666D01*
X191770047Y-76509523D01*
X191674809Y-76604761D01*
X191531952Y-76652380D01*
X191436714Y-76652380D01*
X192246238Y-75747619D02*
X192293857Y-75700000D01*
X192389095Y-75652380D01*
X192627190Y-75652380D01*
X192722428Y-75700000D01*
X192770047Y-75747619D01*
X192817666Y-75842857D01*
X192817666Y-75938095D01*
X192770047Y-76080952D01*
X192198619Y-76652380D01*
X192817666Y-76652380D01*
%TO.C,R5*%
X187920333Y-89987380D02*
X187587000Y-89511190D01*
X187348904Y-89987380D02*
X187348904Y-88987380D01*
X187729857Y-88987380D01*
X187825095Y-89035000D01*
X187872714Y-89082619D01*
X187920333Y-89177857D01*
X187920333Y-89320714D01*
X187872714Y-89415952D01*
X187825095Y-89463571D01*
X187729857Y-89511190D01*
X187348904Y-89511190D01*
X188825095Y-88987380D02*
X188348904Y-88987380D01*
X188301285Y-89463571D01*
X188348904Y-89415952D01*
X188444142Y-89368333D01*
X188682238Y-89368333D01*
X188777476Y-89415952D01*
X188825095Y-89463571D01*
X188872714Y-89558809D01*
X188872714Y-89796904D01*
X188825095Y-89892142D01*
X188777476Y-89939761D01*
X188682238Y-89987380D01*
X188444142Y-89987380D01*
X188348904Y-89939761D01*
X188301285Y-89892142D01*
D11*
%TO.C,R3*%
X187476224Y-84567500D02*
X186966776Y-84567500D01*
X187476224Y-85612500D02*
X186966776Y-85612500D01*
%TO.C,C3*%
X184015767Y-84580000D02*
X183723233Y-84580000D01*
X184015767Y-85600000D02*
X183723233Y-85600000D01*
%TO.C,C16*%
X190926767Y-114683000D02*
X190634233Y-114683000D01*
X190926767Y-113663000D02*
X190634233Y-113663000D01*
%TO.C,C17*%
X190926767Y-123827000D02*
X190634233Y-123827000D01*
X190926767Y-122807000D02*
X190634233Y-122807000D01*
%TO.C,R9*%
X190475776Y-104408500D02*
X190985224Y-104408500D01*
X190475776Y-103363500D02*
X190985224Y-103363500D01*
%TO.C,C15*%
X190926767Y-88521000D02*
X190634233Y-88521000D01*
X190926767Y-87501000D02*
X190634233Y-87501000D01*
%TO.C,R18*%
X176275276Y-94346500D02*
X176784724Y-94346500D01*
X176275276Y-95391500D02*
X176784724Y-95391500D01*
%TO.C,C5*%
X180167233Y-96010000D02*
X180459767Y-96010000D01*
X180167233Y-97030000D02*
X180459767Y-97030000D01*
%TO.C,C11*%
X190926767Y-110615000D02*
X190634233Y-110615000D01*
X190926767Y-111635000D02*
X190634233Y-111635000D01*
%TO.C,R11*%
X190475776Y-116219500D02*
X190985224Y-116219500D01*
X190475776Y-115174500D02*
X190985224Y-115174500D01*
%TO.C,U1*%
X182118000Y-109122000D02*
X184318000Y-109122000D01*
X182118000Y-117192000D02*
X184318000Y-117192000D01*
X182118000Y-109122000D02*
X178518000Y-109122000D01*
X182118000Y-117192000D02*
X179918000Y-117192000D01*
%TO.C,R19*%
X176784724Y-95870500D02*
X176275276Y-95870500D01*
X176784724Y-96915500D02*
X176275276Y-96915500D01*
%TO.C,R16*%
X176298776Y-86345500D02*
X176808224Y-86345500D01*
X176298776Y-87390500D02*
X176808224Y-87390500D01*
%TO.C,C2*%
X180220233Y-108587000D02*
X180512767Y-108587000D01*
X180220233Y-107567000D02*
X180512767Y-107567000D01*
%TO.C,C4*%
X184015767Y-108587000D02*
X183723233Y-108587000D01*
X184015767Y-107567000D02*
X183723233Y-107567000D01*
%TO.C,U3*%
X182118000Y-105616000D02*
X184318000Y-105616000D01*
X182118000Y-97546000D02*
X184318000Y-97546000D01*
X182118000Y-105616000D02*
X179918000Y-105616000D01*
X182118000Y-97546000D02*
X178518000Y-97546000D01*
%TO.C,C9*%
X190926767Y-101852000D02*
X190634233Y-101852000D01*
X190926767Y-102872000D02*
X190634233Y-102872000D01*
%TO.C,R8*%
X190475776Y-100315500D02*
X190985224Y-100315500D01*
X190475776Y-101360500D02*
X190985224Y-101360500D01*
%TO.C,R6*%
X190475776Y-92060500D02*
X190985224Y-92060500D01*
X190475776Y-93105500D02*
X190985224Y-93105500D01*
%TO.C,J1*%
X209568000Y-128215000D02*
X197228000Y-128215000D01*
X196333662Y-117975000D02*
X196766675Y-118225000D01*
X197228000Y-74995000D02*
X209568000Y-74995000D01*
X196333662Y-118475000D02*
X196333662Y-117975000D01*
X196766675Y-118225000D02*
X196333662Y-118475000D01*
X197228000Y-128215000D02*
X197228000Y-74995000D01*
%TO.C,R2*%
X187476224Y-108599500D02*
X186966776Y-108599500D01*
X187476224Y-107554500D02*
X186966776Y-107554500D01*
%TO.C,R15*%
X190475776Y-124318500D02*
X190985224Y-124318500D01*
X190475776Y-125363500D02*
X190985224Y-125363500D01*
%TO.C,C10*%
X190926767Y-105920000D02*
X190634233Y-105920000D01*
X190926767Y-104900000D02*
X190634233Y-104900000D01*
%TO.C,C8*%
X190926767Y-98804000D02*
X190634233Y-98804000D01*
X190926767Y-99824000D02*
X190634233Y-99824000D01*
%TO.C,R14*%
X190475776Y-122315500D02*
X190985224Y-122315500D01*
X190475776Y-121270500D02*
X190985224Y-121270500D01*
%TO.C,J3*%
X177479000Y-97715000D02*
X174819000Y-97715000D01*
X177479000Y-102855000D02*
X177479000Y-97715000D01*
X177479000Y-104125000D02*
X177479000Y-105455000D01*
X177479000Y-102855000D02*
X174819000Y-102855000D01*
X177479000Y-105455000D02*
X176149000Y-105455000D01*
X174819000Y-102855000D02*
X174819000Y-97715000D01*
%TO.C,R13*%
X190475776Y-113171500D02*
X190985224Y-113171500D01*
X190475776Y-112126500D02*
X190985224Y-112126500D01*
%TO.C,R10*%
X190475776Y-110123500D02*
X190985224Y-110123500D01*
X190475776Y-109078500D02*
X190985224Y-109078500D01*
%TO.C,R21*%
X176784724Y-109488500D02*
X176275276Y-109488500D01*
X176784724Y-108443500D02*
X176275276Y-108443500D01*
%TO.C,C6*%
X190926767Y-91569000D02*
X190634233Y-91569000D01*
X190926767Y-90549000D02*
X190634233Y-90549000D01*
%TO.C,C12*%
X190926767Y-116711000D02*
X190634233Y-116711000D01*
X190926767Y-117731000D02*
X190634233Y-117731000D01*
%TO.C,C14*%
X183888767Y-97030000D02*
X183596233Y-97030000D01*
X183888767Y-96010000D02*
X183596233Y-96010000D01*
%TO.C,C1*%
X180220233Y-85600000D02*
X180512767Y-85600000D01*
X180220233Y-84580000D02*
X180512767Y-84580000D01*
%TO.C,R17*%
X176808224Y-88914500D02*
X176298776Y-88914500D01*
X176808224Y-87869500D02*
X176298776Y-87869500D01*
%TO.C,C18*%
X190926767Y-125855000D02*
X190634233Y-125855000D01*
X190926767Y-126875000D02*
X190634233Y-126875000D01*
%TO.C,R7*%
X190475776Y-97267500D02*
X190985224Y-97267500D01*
X190475776Y-98312500D02*
X190985224Y-98312500D01*
%TO.C,R12*%
X190475776Y-119267500D02*
X190985224Y-119267500D01*
X190475776Y-118222500D02*
X190985224Y-118222500D01*
%TO.C,C13*%
X190926767Y-120779000D02*
X190634233Y-120779000D01*
X190926767Y-119759000D02*
X190634233Y-119759000D01*
%TO.C,R20*%
X176298776Y-107964500D02*
X176808224Y-107964500D01*
X176298776Y-106919500D02*
X176808224Y-106919500D01*
%TO.C,C7*%
X190926767Y-94617000D02*
X190634233Y-94617000D01*
X190926767Y-93597000D02*
X190634233Y-93597000D01*
%TO.C,U4*%
X162650000Y-91100000D02*
X163050000Y-91100000D01*
X132150000Y-112100000D02*
X132550000Y-112100000D01*
X152450000Y-91100000D02*
X152850000Y-91100000D01*
X132150000Y-91100000D02*
X132550000Y-91100000D01*
X160050000Y-112100000D02*
X160450000Y-112100000D01*
X170250000Y-112100000D02*
X170650000Y-112100000D01*
X124717000Y-109093000D02*
X122050000Y-109093000D01*
X173050000Y-103100000D02*
X173050000Y-102700000D01*
X122050000Y-112100000D02*
X122350000Y-112100000D01*
X160050000Y-91100000D02*
X160450000Y-91100000D01*
X129550000Y-112100000D02*
X129950000Y-112100000D01*
X142250000Y-91100000D02*
X142650000Y-91100000D01*
X139750000Y-91100000D02*
X140150000Y-91100000D01*
X173050000Y-100500000D02*
X173050000Y-100100000D01*
X157550000Y-91100000D02*
X157950000Y-91100000D01*
X149850000Y-91100000D02*
X150250000Y-91100000D01*
X134650000Y-112100000D02*
X135050000Y-112100000D01*
X124450000Y-91100000D02*
X124850000Y-91100000D01*
X152450000Y-112100000D02*
X152850000Y-112100000D01*
X149850000Y-112100000D02*
X150250000Y-112100000D01*
X165150000Y-91100000D02*
X165550000Y-91100000D01*
X122050000Y-91100000D02*
X122350000Y-91100000D01*
X137150000Y-91100000D02*
X137550000Y-91100000D01*
X144850000Y-112100000D02*
X145250000Y-112100000D01*
X127050000Y-112100000D02*
X127450000Y-112100000D01*
X154950000Y-112100000D02*
X155350000Y-112100000D01*
X173050000Y-105300000D02*
X173050000Y-112100000D01*
X122050000Y-112100000D02*
X122050000Y-91100000D01*
X162650000Y-112100000D02*
X163050000Y-112100000D01*
X147350000Y-112100000D02*
X147750000Y-112100000D01*
X144850000Y-91100000D02*
X145250000Y-91100000D01*
X137150000Y-112100000D02*
X137550000Y-112100000D01*
X124450000Y-112100000D02*
X124850000Y-112100000D01*
X139750000Y-112100000D02*
X140150000Y-112100000D01*
X167650000Y-91100000D02*
X168050000Y-91100000D01*
X127050000Y-91100000D02*
X127450000Y-91100000D01*
X167650000Y-112100000D02*
X168050000Y-112100000D01*
X170250000Y-91100000D02*
X170650000Y-91100000D01*
X142250000Y-112100000D02*
X142650000Y-112100000D01*
X124717000Y-112100000D02*
X124717000Y-109093000D01*
X154950000Y-91100000D02*
X155350000Y-91100000D01*
X165150000Y-112100000D02*
X165550000Y-112100000D01*
X173050000Y-91100000D02*
X173050000Y-97900000D01*
X129550000Y-91100000D02*
X129950000Y-91100000D01*
X157550000Y-112100000D02*
X157950000Y-112100000D01*
X147350000Y-91100000D02*
X147750000Y-91100000D01*
X134650000Y-91100000D02*
X135050000Y-91100000D01*
%TO.C,R1*%
X187349224Y-95997500D02*
X186839776Y-95997500D01*
X187349224Y-97042500D02*
X186839776Y-97042500D01*
%TO.C,U2*%
X182118000Y-86135000D02*
X184318000Y-86135000D01*
X182118000Y-94205000D02*
X184318000Y-94205000D01*
X182118000Y-94205000D02*
X179918000Y-94205000D01*
X182118000Y-86135000D02*
X178518000Y-86135000D01*
%TO.C,R4*%
X190475776Y-85964500D02*
X190985224Y-85964500D01*
X190475776Y-87009500D02*
X190985224Y-87009500D01*
%TO.C,J2*%
X196100000Y-78352000D02*
X196100000Y-126672000D01*
X193440000Y-75752000D02*
X194770000Y-75752000D01*
X193440000Y-77082000D02*
X193440000Y-75752000D01*
X193440000Y-78352000D02*
X196100000Y-78352000D01*
X193440000Y-126672000D02*
X196100000Y-126672000D01*
X193440000Y-78352000D02*
X193440000Y-126672000D01*
%TO.C,R5*%
X190475776Y-90057500D02*
X190985224Y-90057500D01*
X190475776Y-89012500D02*
X190985224Y-89012500D01*
%TD*%
M02*
