M48
; DRILL file {KiCad 6.0.10-86aedd382b~118~ubuntu20.04.1} date Sat 31 Dec 2022 05:49:30 PM PST
; FORMAT={-:-/ absolute / inch / decimal}
; #@! TF.CreationDate,2022-12-31T17:49:30-08:00
; #@! TF.GenerationSoftware,Kicad,Pcbnew,6.0.10-86aedd382b~118~ubuntu20.04.1
; #@! TF.FileFunction,Plated,1,4,PTH
FMAT,2
INCH
; #@! TA.AperFunction,Plated,PTH,ViaDrill
T1C0.0079
; #@! TA.AperFunction,Plated,PTH,ViaDrill
T2C0.0157
; #@! TA.AperFunction,Plated,PTH,ComponentDrill
T3C0.0394
; #@! TA.AperFunction,Plated,PTH,ComponentDrill
T4C0.0402
; #@! TA.AperFunction,Plated,PTH,ComponentDrill
T5C0.1260
%
G90
G05
T1
X7.274Y-4.089
X7.275Y-4.048
X7.28Y-3.84
X7.29Y-4.13
X7.2911Y-4.29
X7.298Y-4.177
X7.31Y-4.315
X7.312Y-4.367
X7.361Y-4.664
X7.361Y-4.764
X7.361Y-4.864
X7.362Y-3.264
X7.362Y-3.364
X7.362Y-3.464
X7.362Y-3.564
X7.362Y-3.664
X7.362Y-3.764
X7.362Y-3.864
X7.362Y-3.964
X7.362Y-4.064
X7.362Y-4.164
X7.362Y-4.264
X7.362Y-4.364
X7.362Y-4.464
X7.362Y-4.564
T2
X6.91Y-3.94
X6.91Y-4.065
X6.91Y-4.165
X6.98Y-3.565
X6.98Y-3.865
X6.98Y-4.14
X7.055Y-3.685
X7.13Y-3.865
X7.13Y-4.14
X7.19Y-3.94
X7.19Y-4.065
X7.19Y-4.29
T3
X6.9556Y-4.44
X7.0556Y-4.44
X7.1556Y-4.44
X7.6681Y-3.035
X7.6681Y-3.135
X7.6681Y-3.235
X7.6681Y-3.335
X7.6681Y-3.435
X7.6681Y-3.535
X7.6681Y-3.635
X7.6681Y-3.735
X7.6681Y-3.835
X7.6681Y-3.935
X7.6681Y-4.035
X7.6681Y-4.135
X7.6681Y-4.235
X7.6681Y-4.335
X7.6681Y-4.435
X7.6681Y-4.535
X7.6681Y-4.635
X7.6681Y-4.735
X7.6681Y-4.835
X7.6681Y-4.935
X7.8381Y-3.3459
X7.8381Y-3.4549
X7.8381Y-3.564
X7.8381Y-3.673
X7.8381Y-3.7821
X7.8381Y-3.8911
X7.8381Y-4.0002
X7.8381Y-4.1093
X7.8381Y-4.2183
X7.8381Y-4.3274
X7.8381Y-4.4364
X7.8381Y-4.5455
X7.8381Y-4.6545
X7.9499Y-3.4004
X7.9499Y-3.5094
X7.9499Y-3.6185
X7.9499Y-3.7276
X7.9499Y-3.8366
X7.9499Y-3.9457
X7.9499Y-4.0547
X7.9499Y-4.1638
X7.9499Y-4.2728
X7.9499Y-4.3819
X7.9499Y-4.4909
X7.9499Y-4.6
T4
X4.7321Y-3.65
X4.7321Y-4.35
X4.8321Y-3.65
X4.8321Y-4.35
X4.9321Y-3.65
X4.9321Y-4.35
X5.0321Y-3.65
X5.0321Y-4.35
X5.1321Y-3.65
X5.1321Y-4.35
X5.2321Y-3.65
X5.2321Y-4.35
X5.3321Y-3.65
X5.3321Y-4.35
X5.4321Y-3.65
X5.4321Y-4.35
X5.5321Y-3.65
X5.5321Y-4.35
X5.6321Y-3.65
X5.6321Y-4.35
X5.7321Y-3.65
X5.7321Y-4.35
X5.8321Y-3.65
X5.8321Y-4.35
X5.9321Y-3.65
X5.9321Y-4.35
X6.0321Y-3.65
X6.0321Y-4.35
X6.1321Y-3.65
X6.1321Y-4.35
X6.2321Y-3.65
X6.2321Y-4.35
X6.3321Y-3.65
X6.3321Y-4.35
X6.4321Y-3.65
X6.4321Y-4.35
X6.5321Y-3.65
X6.5321Y-4.35
X6.623Y-3.9
X6.623Y-4.0
X6.623Y-4.1
X6.6321Y-3.65
X6.6321Y-4.35
T5
X7.894Y-3.073
X7.894Y-4.9274
T0
M30
