%TF.GenerationSoftware,KiCad,Pcbnew,6.0.10-86aedd382b~118~ubuntu20.04.1*%
%TF.CreationDate,2022-12-31T17:49:26-08:00*%
%TF.ProjectId,parallel2usb,70617261-6c6c-4656-9c32-7573622e6b69,rev?*%
%TF.SameCoordinates,Original*%
%TF.FileFunction,Soldermask,Top*%
%TF.FilePolarity,Negative*%
%FSLAX46Y46*%
G04 Gerber Fmt 4.6, Leading zero omitted, Abs format (unit mm)*
G04 Created by KiCad (PCBNEW 6.0.10-86aedd382b~118~ubuntu20.04.1) date 2022-12-31 17:49:26*
%MOMM*%
%LPD*%
G01*
G04 APERTURE LIST*
G04 Aperture macros list*
%AMRoundRect*
0 Rectangle with rounded corners*
0 $1 Rounding radius*
0 $2 $3 $4 $5 $6 $7 $8 $9 X,Y pos of 4 corners*
0 Add a 4 corners polygon primitive as box body*
4,1,4,$2,$3,$4,$5,$6,$7,$8,$9,$2,$3,0*
0 Add four circle primitives for the rounded corners*
1,1,$1+$1,$2,$3*
1,1,$1+$1,$4,$5*
1,1,$1+$1,$6,$7*
1,1,$1+$1,$8,$9*
0 Add four rect primitives between the rounded corners*
20,1,$1+$1,$2,$3,$4,$5,0*
20,1,$1+$1,$4,$5,$6,$7,0*
20,1,$1+$1,$6,$7,$8,$9,0*
20,1,$1+$1,$8,$9,$2,$3,0*%
G04 Aperture macros list end*
%ADD10RoundRect,0.237500X0.300000X0.237500X-0.300000X0.237500X-0.300000X-0.237500X0.300000X-0.237500X0*%
%ADD11RoundRect,0.237500X-0.300000X-0.237500X0.300000X-0.237500X0.300000X0.237500X-0.300000X0.237500X0*%
%ADD12C,2.700000*%
%ADD13RoundRect,0.237500X0.250000X0.237500X-0.250000X0.237500X-0.250000X-0.237500X0.250000X-0.237500X0*%
%ADD14O,1.500000X1.500000*%
%ADD15O,1.800000X1.800000*%
%ADD16O,1.700000X1.700000*%
%ADD17R,1.700000X3.500000*%
%ADD18R,1.700000X1.700000*%
%ADD19R,3.500000X1.700000*%
%ADD20R,1.200000X0.400000*%
%ADD21C,4.000000*%
%ADD22R,1.600000X1.600000*%
%ADD23C,1.600000*%
%ADD24RoundRect,0.237500X-0.250000X-0.237500X0.250000X-0.237500X0.250000X0.237500X-0.250000X0.237500X0*%
G04 APERTURE END LIST*
D10*
%TO.C,C3*%
X188722000Y-82169000D03*
X186997000Y-82169000D03*
%TD*%
D11*
%TO.C,C19*%
X178234000Y-91033600D03*
X179959000Y-91033600D03*
%TD*%
D10*
%TO.C,C16*%
X188698500Y-112649000D03*
X186973500Y-112649000D03*
%TD*%
%TO.C,C17*%
X188696600Y-117729000D03*
X186971600Y-117729000D03*
%TD*%
D12*
%TO.C,H1*%
X183642000Y-78105000D03*
%TD*%
D13*
%TO.C,R9*%
X192151000Y-82169000D03*
X190326000Y-82169000D03*
%TD*%
D10*
%TO.C,C15*%
X188719800Y-115189000D03*
X186994800Y-115189000D03*
%TD*%
%TO.C,C12*%
X188722000Y-89789000D03*
X186997000Y-89789000D03*
%TD*%
D13*
%TO.C,R3*%
X192151000Y-97409000D03*
X190326000Y-97409000D03*
%TD*%
%TO.C,R12*%
X192151000Y-89789000D03*
X190326000Y-89789000D03*
%TD*%
D10*
%TO.C,C5*%
X188722000Y-97409000D03*
X186997000Y-97409000D03*
%TD*%
%TO.C,C11*%
X188722000Y-102489000D03*
X186997000Y-102489000D03*
%TD*%
D13*
%TO.C,R11*%
X192151000Y-87249000D03*
X190326000Y-87249000D03*
%TD*%
D14*
%TO.C,U2*%
X123354200Y-104025000D03*
X123354200Y-99175000D03*
D15*
X120324200Y-98875000D03*
X120324200Y-104325000D03*
D16*
X120194200Y-110490000D03*
D17*
X120194200Y-111390000D03*
X122734200Y-111390000D03*
D16*
X122734200Y-110490000D03*
D18*
X125274200Y-110490000D03*
D17*
X125274200Y-111390000D03*
X127814200Y-111390000D03*
D16*
X127814200Y-110490000D03*
X130354200Y-110490000D03*
D17*
X130354200Y-111390000D03*
X132894200Y-111390000D03*
D16*
X132894200Y-110490000D03*
X135434200Y-110490000D03*
D17*
X135434200Y-111390000D03*
D18*
X137974200Y-110490000D03*
D17*
X137974200Y-111390000D03*
D16*
X140514200Y-110490000D03*
D17*
X140514200Y-111390000D03*
D16*
X143054200Y-110490000D03*
D17*
X143054200Y-111390000D03*
D16*
X145594200Y-110490000D03*
D17*
X145594200Y-111390000D03*
X148134200Y-111390000D03*
D16*
X148134200Y-110490000D03*
D18*
X150674200Y-110490000D03*
D17*
X150674200Y-111390000D03*
X153214200Y-111390000D03*
D16*
X153214200Y-110490000D03*
D17*
X155754200Y-111390000D03*
D16*
X155754200Y-110490000D03*
X158294200Y-110490000D03*
D17*
X158294200Y-111390000D03*
X160834200Y-111390000D03*
D16*
X160834200Y-110490000D03*
D17*
X163374200Y-111390000D03*
D18*
X163374200Y-110490000D03*
D16*
X165914200Y-110490000D03*
D17*
X165914200Y-111390000D03*
D16*
X168454200Y-110490000D03*
D17*
X168454200Y-111390000D03*
D16*
X168454200Y-92710000D03*
D17*
X168454200Y-91810000D03*
D16*
X165914200Y-92710000D03*
D17*
X165914200Y-91810000D03*
D18*
X163374200Y-92710000D03*
D17*
X163374200Y-91810000D03*
D16*
X160834200Y-92710000D03*
D17*
X160834200Y-91810000D03*
X158294200Y-91810000D03*
D16*
X158294200Y-92710000D03*
D17*
X155754200Y-91810000D03*
D16*
X155754200Y-92710000D03*
X153214200Y-92710000D03*
D17*
X153214200Y-91810000D03*
D18*
X150674200Y-92710000D03*
D17*
X150674200Y-91810000D03*
X148134200Y-91810000D03*
D16*
X148134200Y-92710000D03*
X145594200Y-92710000D03*
D17*
X145594200Y-91810000D03*
X143054200Y-91810000D03*
D16*
X143054200Y-92710000D03*
D17*
X140514200Y-91810000D03*
D16*
X140514200Y-92710000D03*
D18*
X137974200Y-92710000D03*
D17*
X137974200Y-91810000D03*
X135434200Y-91810000D03*
D16*
X135434200Y-92710000D03*
X132894200Y-92710000D03*
D17*
X132894200Y-91810000D03*
X130354200Y-91810000D03*
D16*
X130354200Y-92710000D03*
X127814200Y-92710000D03*
D17*
X127814200Y-91810000D03*
X125274200Y-91810000D03*
D18*
X125274200Y-92710000D03*
D17*
X122734200Y-91810000D03*
D16*
X122734200Y-92710000D03*
D17*
X120194200Y-91810000D03*
D16*
X120194200Y-92710000D03*
D19*
X169124200Y-104140000D03*
D16*
X168224200Y-104140000D03*
D19*
X169124200Y-101600000D03*
D18*
X168224200Y-101600000D03*
D16*
X168224200Y-99060000D03*
D19*
X169124200Y-99060000D03*
%TD*%
D20*
%TO.C,U1*%
X174371000Y-94361000D03*
X174371000Y-94996000D03*
X174371000Y-95631000D03*
X174371000Y-96266000D03*
X174371000Y-96901000D03*
X174371000Y-97536000D03*
X174371000Y-98171000D03*
X174371000Y-98806000D03*
X174371000Y-99441000D03*
X174371000Y-100076000D03*
X174371000Y-100711000D03*
X174371000Y-101346000D03*
X174371000Y-101981000D03*
X174371000Y-102616000D03*
X174371000Y-103251000D03*
X174371000Y-103886000D03*
X174371000Y-104521000D03*
X174371000Y-105156000D03*
X174371000Y-105791000D03*
X174371000Y-106426000D03*
X174371000Y-107061000D03*
X174371000Y-107696000D03*
X174371000Y-108331000D03*
X174371000Y-108966000D03*
X183771000Y-108966000D03*
X183771000Y-108331000D03*
X183771000Y-107696000D03*
X183771000Y-107061000D03*
X183771000Y-106426000D03*
X183771000Y-105791000D03*
X183771000Y-105156000D03*
X183771000Y-104521000D03*
X183771000Y-103886000D03*
X183771000Y-103251000D03*
X183771000Y-102616000D03*
X183771000Y-101981000D03*
X183771000Y-101346000D03*
X183771000Y-100711000D03*
X183771000Y-100076000D03*
X183771000Y-99441000D03*
X183771000Y-98806000D03*
X183771000Y-98171000D03*
X183771000Y-97536000D03*
X183771000Y-96901000D03*
X183771000Y-96266000D03*
X183771000Y-95631000D03*
X183771000Y-94996000D03*
X183771000Y-94361000D03*
%TD*%
D13*
%TO.C,R16*%
X192151000Y-120269000D03*
X190326000Y-120269000D03*
%TD*%
D10*
%TO.C,C2*%
X188722000Y-94869000D03*
X186997000Y-94869000D03*
%TD*%
%TO.C,C4*%
X188722000Y-105029000D03*
X186997000Y-105029000D03*
%TD*%
%TO.C,C13*%
X188696600Y-122809000D03*
X186971600Y-122809000D03*
%TD*%
%TO.C,C9*%
X188722000Y-87249000D03*
X186997000Y-87249000D03*
%TD*%
D13*
%TO.C,R8*%
X192151000Y-117729000D03*
X190326000Y-117729000D03*
%TD*%
%TO.C,R6*%
X192151000Y-107569000D03*
X190326000Y-107569000D03*
%TD*%
D21*
%TO.C,J1*%
X200508000Y-78055000D03*
X200508000Y-125155000D03*
D22*
X199088000Y-118225000D03*
D23*
X199088000Y-115455000D03*
X199088000Y-112685000D03*
X199088000Y-109915000D03*
X199088000Y-107145000D03*
X199088000Y-104375000D03*
X199088000Y-101605000D03*
X199088000Y-98835000D03*
X199088000Y-96065000D03*
X199088000Y-93295000D03*
X199088000Y-90525000D03*
X199088000Y-87755000D03*
X199088000Y-84985000D03*
X201928000Y-116840000D03*
X201928000Y-114070000D03*
X201928000Y-111300000D03*
X201928000Y-108530000D03*
X201928000Y-105760000D03*
X201928000Y-102990000D03*
X201928000Y-100220000D03*
X201928000Y-97450000D03*
X201928000Y-94680000D03*
X201928000Y-91910000D03*
X201928000Y-89140000D03*
X201928000Y-86370000D03*
%TD*%
D13*
%TO.C,R2*%
X192151000Y-94869000D03*
X190326000Y-94869000D03*
%TD*%
%TO.C,R15*%
X192151000Y-110109000D03*
X190326000Y-110109000D03*
%TD*%
D10*
%TO.C,C10*%
X188696600Y-120269000D03*
X186971600Y-120269000D03*
%TD*%
%TO.C,C8*%
X188722000Y-99949000D03*
X186997000Y-99949000D03*
%TD*%
D13*
%TO.C,R14*%
X192151000Y-105029000D03*
X190326000Y-105029000D03*
%TD*%
%TO.C,R18*%
X176094400Y-92583000D03*
X174269400Y-92583000D03*
%TD*%
D18*
%TO.C,J3*%
X176672000Y-112776000D03*
D16*
X179212000Y-112776000D03*
X181752000Y-112776000D03*
%TD*%
D13*
%TO.C,R13*%
X192174500Y-115189000D03*
X190349500Y-115189000D03*
%TD*%
%TO.C,R10*%
X192151000Y-84709000D03*
X190326000Y-84709000D03*
%TD*%
D10*
%TO.C,C6*%
X188722000Y-84709000D03*
X186997000Y-84709000D03*
%TD*%
%TO.C,C14*%
X188722000Y-107569000D03*
X186997000Y-107569000D03*
%TD*%
%TO.C,C1*%
X188722000Y-92329000D03*
X186997000Y-92329000D03*
%TD*%
D24*
%TO.C,R19*%
X182045600Y-92583000D03*
X183870600Y-92583000D03*
%TD*%
D13*
%TO.C,R17*%
X192147200Y-122809000D03*
X190322200Y-122809000D03*
%TD*%
%TO.C,R7*%
X192151000Y-112649000D03*
X190326000Y-112649000D03*
%TD*%
D11*
%TO.C,C18*%
X178234000Y-92583000D03*
X179959000Y-92583000D03*
%TD*%
D10*
%TO.C,C7*%
X188722000Y-110109000D03*
X186997000Y-110109000D03*
%TD*%
D12*
%TO.C,H2*%
X183642000Y-125095000D03*
%TD*%
D13*
%TO.C,R1*%
X192151000Y-92329000D03*
X190326000Y-92329000D03*
%TD*%
%TO.C,R4*%
X192151000Y-99949000D03*
X190326000Y-99949000D03*
%TD*%
D18*
%TO.C,J2*%
X194770000Y-77089000D03*
D16*
X194770000Y-79629000D03*
X194770000Y-82169000D03*
X194770000Y-84709000D03*
X194770000Y-87249000D03*
X194770000Y-89789000D03*
X194770000Y-92329000D03*
X194770000Y-94869000D03*
X194770000Y-97409000D03*
X194770000Y-99949000D03*
X194770000Y-102489000D03*
X194770000Y-105029000D03*
X194770000Y-107569000D03*
X194770000Y-110109000D03*
X194770000Y-112649000D03*
X194770000Y-115189000D03*
X194770000Y-117729000D03*
X194770000Y-120269000D03*
X194770000Y-122809000D03*
X194770000Y-125349000D03*
%TD*%
D13*
%TO.C,R5*%
X192151000Y-102489000D03*
X190326000Y-102489000D03*
%TD*%
M02*
